<svg xmlns="http://www.w3.org/2000/svg" xmlns:xlink="http://www.w3.org/1999/xlink" width="58" height="57" viewBox="0 0 58 57">
    <defs>
        <path id="wggbq83gra" d="M0 0.054L43.141 0.054 43.141 36.421 0 36.421z"/>
        <path id="ovjmcgotjc" d="M4.984.114c-.051.201-.079.413-.079.63 0 .1.006.2.019.297.068.58.335 1.1.73 1.49.224.217.485.395.776.52l-.775.446-2.798 1.61-1.15.66L.07 2.942l1.208-.696 2.87-1.65"/>
        <path id="jb7ezjkted" d="M.017.123C.24.34.502.518.793.643c.306.13.64.202.993.202.232 0 .456-.031.668-.09.308-.085.592-.224.838-.41v5.436H.017"/>
        <path id="wqm86k2gqe" d="M.11 2.031s1.457 1.477 4.032.864C8.268 1.913 8.288.085 8.288.085L.11 2.03z"/>
        <path id="i7ohsuzfjf" d="M.083 4.594c-.099 5.26 2.105 5.853 2.105 5.853L2.384.021S.144 1.311.083 4.594"/>
    </defs>
    <g fill="none" fill-rule="evenodd">
        <g>
            <g>
                <g>
                    <g>
                        <g transform="translate(-290 -74) translate(290 74) scale(1 -1) rotate(30 115.07 8.562) translate(0 .053) translate(0 .21)">
                            <mask id="u0obwfwwmb" fill="#fff">
                                <use xlink:href="#wggbq83gra"/>
                            </mask>
                            <path fill="#C6E4FF" d="M22.778 36.175c5.059-1.1 9.771-3.876 13.352-7.58 3.73-3.858 5.9-8.496 6.761-13.807.547-3.373.26-6.994-1.486-9.936C40.078 2.614 37.911.998 35.39.36c-3.062-.774-4.51.023-7.357 1.254-5.15 2.226-10.878 2.734-16.49 2.758-1.877.007-3.773-.034-5.606.364-1.833.399-3.633 1.294-4.716 2.82C-.145 9.48-.155 12.042.188 14.374c.832 5.658 3.555 10.979 7.494 15.116 3.89 4.085 9.24 7.957 15.096 6.685" mask="url(#u0obwfwwmb)"/>
                        </g>
                        <g>
                            <g transform="translate(-290 -74) translate(290 74) scale(1 -1) rotate(30 115.07 8.562) translate(0 .053) translate(19.463 7.301)"/>
                            <g transform="translate(-290 -74) translate(290 74) scale(1 -1) rotate(30 115.07 8.562) translate(0 .053) translate(19.463 7.301) translate(5.638 2.408)"/>
                        </g>
                    </g>
                    <g transform="translate(-290 -74) translate(290 74) scale(1 -1) rotate(30 115.07 8.562) translate(5.235 30.632)"/>
                    <g fill="#F4FBFB">
                        <path d="M1.77 1.642c-.004-.017-.018-.03-.036-.032C1.72 1.608.342 1.43.156.653.15.631.128.617.106.623.082.627.068.65.073.672c.2.834 1.59 1.013 1.65 1.02.023.003.044-.014.046-.037v-.014" transform="translate(-290 -74) translate(290 74) scale(1 -1) rotate(30 115.07 8.562) translate(7.235 30.15)"/>
                    </g>
                    <g transform="translate(-290 -74) translate(290 74) scale(1 -1) rotate(30 115.07 8.562) translate(15.839 6.15)"/>
                    <g>
                        <g>
                            <g fill="#1E2D77"/>
                        </g>
                    </g>
                </g>
                <g>
                    <g>
                        <path fill="#76C955" d="M.108 35.013s.186-1.224 2.556-1.553c2.37-.33 4.573-2.969 8.48-2.586 3.908.384 7.15 2.787 11.599 2.05 4.448-.736 7.233.203 8.231.943.998.74 5.127-.173 5.432 1.183L.108 35.013z" transform="translate(-290 -74) translate(290 74) translate(9 6) translate(.536 .16)"/>
                        <path fill="#578DDD" d="M9.849 5.857s-2.674-.132-1.256 8.064c0 0 .955 2.783-.25 4.576h17.736V5.857H9.85z" transform="translate(-290 -74) translate(290 74) translate(9 6) translate(.536 .16)"/>
                        <path fill="#599DAD" d="M11.67 27.166s-1.238-1.454-.076-2.377c0 0 .85-.517 1.542-.475 0 0-.981 1.654-.664 1.819.318.164.961-1.923.961-1.923s1.933-.189 2.555.112c0 0-1.652 1.36-1.304 1.44.348.081 2.132-1.253 2.132-1.253s1.799.308 1.703 1.411c-.096 1.104-.716 1.444-.988 1.415-.273-.03-1.866-.641-1.9-.417-.036.225.924.958 1.595.993 0 0-1.268 1.406-2.11 1-.843-.406-.915-1.05-1.44-1.29-.526-.242-.975-.241-.758.005.217.246 1.168.485 1.468 1.02.3.534.57.894-.301.762-.873-.131-2.29-.773-2.352-1.508l-.062-.734z" transform="translate(-290 -74) translate(290 74) translate(9 6) translate(.536 .16)"/>
                        <path fill="#599DAD" d="M17.635 25.95s-4.885-.19-5.964 1.216c0 0-.239.718-.973 1.373l-.115.313s.847-.897 1.15-.952c0 0-.474-1.74 5.902-1.95" transform="translate(-290 -74) translate(290 74) translate(9 6) translate(.536 .16)"/>
                        <path fill="#599DAD" d="M10.698 28.539s-1.049.78-1.122 2.173l.19.017s.336-1.44.94-2.004c.606-.564-.008-.186-.008-.186M7.338 25.338s1.971-1.11 1.052-2.617c0 0-.736-.925-1.525-1.162 0 0 .42 2.246 0 2.299-.42.053-.289-2.537-.289-2.537s-2.076-1.004-2.89-.925c0 0 1.287 2.193.867 2.14-.42-.052-1.866-2.272-1.866-2.272s-2.13-.397-2.47.872c-.342 1.268.21 1.902.525 1.982.315.08 2.339.053 2.286.317-.052.264-1.419.687-2.181.45 0 0 .841 2.087 1.945 1.981 1.104-.106 1.445-.793 2.129-.846.683-.052 1.182.133.84.318-.341.185-1.497.06-2.05.532-.551.472-.998.762.027.974 1.025.211 2.864.08 3.232-.714l.368-.792z" transform="translate(-290 -74) translate(290 74) translate(9 6) translate(.536 .16)"/>
                        <path fill="#6BB7BF" d="M1.189 21.532s5.519 1.797 6.15 3.806c0 0-.027.898.525 1.929v.396s-.578-1.348-.894-1.533c0 0 1.236-1.744-5.781-4.598M7.864 27.267s.851 1.3.366 2.881l-.22-.059s.213-1.742-.232-2.619c-.445-.876.086-.203.086-.203" transform="translate(-290 -74) translate(290 74) translate(9 6) translate(.536 .16)"/>
                        <path fill="#86D1CD" d="M10.474 23.807s-2.598-1.463-1.386-3.449c0 0 .97-1.219 2.01-1.533 0 0-.555 2.961 0 3.031.554.07.38-3.344.38-3.344s2.738-1.324 3.812-1.22c0 0-1.698 2.892-1.144 2.822.555-.07 2.46-2.995 2.46-2.995s2.806-.523 3.256 1.15c.45 1.671-.277 2.507-.692 2.612-.416.104-3.084.07-3.014.418.069.348 1.87.905 2.875.592 0 0-1.109 2.752-2.564 2.613-1.455-.14-1.905-1.045-2.806-1.115-.9-.07-1.559.174-1.108.418.45.244 1.974.08 2.702.702.727.622 1.316 1.005-.035 1.283-1.35.28-3.776.105-4.26-.94l-.486-1.045z" transform="translate(-290 -74) translate(290 74) translate(9 6) translate(.536 .16)"/>
                        <path fill="#6BB7BF" d="M18.58 18.79s-7.274 2.37-8.106 5.017c0 0 .035 1.184-.693 2.543v.522s.762-1.776 1.178-2.02c0 0-1.628-2.3 7.622-6.061" transform="translate(-290 -74) translate(290 74) translate(9 6) translate(.536 .16)"/>
                        <path fill="#6BB7BF" d="M9.781 26.35S8.66 28.063 9.3 30.148l.289-.078s-.28-2.297.306-3.452c.587-1.155-.113-.268-.113-.268" transform="translate(-290 -74) translate(290 74) translate(9 6) translate(.536 .16)"/>
                        <path fill="#EFCBAB" d="M10.387 34.67c2.81 0 5.09-2.29 5.09-5.117H5.296c0 2.826 2.279 5.118 5.09 5.118" transform="translate(-290 -74) translate(290 74) translate(9 6) translate(.536 .16)"/>
                        <path fill="#FFEBDC" d="M11.639 34.631c-.207.026-.418.04-.632.04-2.811 0-5.09-2.292-5.09-5.118h1.265c0 2.611 1.945 4.765 4.457 5.078" transform="translate(-290 -74) translate(290 74) translate(9 6) translate(.536 .16)"/>
                        <path fill="#EFCBAB" d="M15.546 34.93H5.226c0-.348.282-.63.629-.63h9.064c.346 0 .627.282.627.63" transform="translate(-290 -74) translate(290 74) translate(9 6) translate(.536 .16)"/>
                        <path fill="#EFCDAF" d="M5.13 29.71L15.592 29.71 15.592 29.553 5.13 29.553z" transform="translate(-290 -74) translate(290 74) translate(9 6) translate(.536 .16)"/>
                        <path fill="#599DAD" d="M28.803 10.094s-.891-1.691.445-2.336c0 0 .941-.317 1.608-.123 0 0-1.319 1.398-1.045 1.628.274.231 1.357-1.663 1.357-1.663s1.927.242 2.468.673c0 0-1.909.961-1.587 1.117.322.156 2.354-.752 2.354-.752s1.688.697 1.353 1.753c-.334 1.055-1.013 1.25-1.272 1.162-.26-.089-1.68-1.037-1.764-.826-.083.211.693 1.138 1.341 1.32 0 0-1.544 1.092-2.278.51-.734-.582-.663-1.225-1.123-1.577-.46-.35-.898-.45-.74-.161.158.288 1.033.73 1.21 1.318.176.588.36 1-.461.678-.822-.321-2.065-1.26-1.965-1.99l.1-.73z" transform="translate(-290 -74) translate(290 74) translate(9 6) translate(.536 .16)"/>
                        <path fill="#599DAD" d="M34.888 10.225s-4.725-1.263-6.085-.13c0 0-.39.648-1.248 1.124l-.18.28s1.021-.688 1.329-.674c0 0-.083-1.803 6.184-.6" transform="translate(-290 -74) translate(290 74) translate(9 6) translate(.536 .16)"/>
                        <path fill="#599DAD" d="M27.555 11.219s-1.194.53-1.569 1.873l.182.058s.641-1.331 1.355-1.747c.713-.417.032-.184.032-.184" transform="translate(-290 -74) translate(290 74) translate(9 6) translate(.536 .16)"/>
                        <path fill="#86D1CD" d="M22.933 7.043s-2.64-1.385-1.487-3.406c0 0 .933-1.247 1.963-1.592 0 0-.467 2.976.09 3.03.556.053.281-3.355.281-3.355S26.477.315 27.553.388c0 0-1.61 2.94-1.059 2.854.552-.086 2.37-3.068 2.37-3.068s2.79-.606 3.29 1.052c.499 1.658-.204 2.515-.616 2.632-.413.117-3.08.162-3 .508.08.346 1.896.85 2.891.506 0 0-1.026 2.784-2.485 2.688-1.458-.096-1.935-.988-2.838-1.03-.902-.043-1.553.22-1.095.45.457.231 1.976.022 2.721.621.746.6 1.346.966.004 1.285-1.342.319-3.772.217-4.287-.813l-.516-1.03z" transform="translate(-290 -74) translate(290 74) translate(9 6) translate(.536 .16)"/>
                        <path fill="#6BB7BF" d="M30.887 1.786s-7.201 2.586-7.954 5.257c0 0 .07 1.183-.617 2.563l.015.522s.71-1.799 1.118-2.055c0 0-1.696-2.25 7.438-6.287" transform="translate(-290 -74) translate(290 74) translate(9 6) translate(.536 .16)"/>
                        <path fill="#6BB7BF" d="M22.316 9.606s-1.071 1.746-.37 3.81l.286-.086s-.348-2.287.205-3.46c.552-1.172-.121-.264-.121-.264" transform="translate(-290 -74) translate(290 74) translate(9 6) translate(.536 .16)"/>
                        <path fill="#92BAF6" d="M10.974 34.991L29.491 34.991 29.491 10.708 10.974 10.708z" transform="translate(-290 -74) translate(290 74) translate(9 6) translate(.536 .16)"/>
                        <path fill="#FFF" d="M11.579 34.991L29.785 34.991 29.785 10.708 11.579 10.708z" transform="translate(-290 -74) translate(290 74) translate(9 6) translate(.536 .16)"/>
                        <path fill="#699FF0" d="M29.785 10.708H11.579c.1-1.384-.051-2.39-.294-3.112-.467-1.39-1.272-1.74-1.272-1.74h17.17c1.466 0 2.602.889 2.911 2.067.012.044.022.088.032.132.293 1.349-.329 2.628-.341 2.653" transform="translate(-290 -74) translate(290 74) translate(9 6) translate(.536 .16)"/>
                        <path fill="#92BAF6" d="M29.785 10.708H11.579c.1-1.384-.051-2.39-.294-3.112 1.86.342 6.468 1.072 11.4.95 3.192-.08 5.713-.295 7.44-.49.294 1.348-.328 2.627-.34 2.652" transform="translate(-290 -74) translate(290 74) translate(9 6) translate(.536 .16)"/>
                        <path fill="#699FF0" d="M24.93 16.307h-9.563c-.125 0-.226-.102-.226-.227 0-.126.101-.228.226-.228h9.562c.125 0 .227.102.227.228 0 .125-.102.227-.227.227M21.198 17.074h-5.874c-.1 0-.183-.084-.183-.185v-.086c0-.102.082-.185.183-.185h5.874c.1 0 .183.083.183.185v.086c0 .101-.082.185-.183.185M14.21 17v-.93h-.121c-.074 0-.111-.031-.111-.093 0-.045.029-.077.087-.095.03-.01.076-.018.141-.023.065-.005.117-.007.156-.007.039 0 .063.008.073.023.01.016.014.055.014.118V17h.126c.082 0 .122.035.122.106 0 .074-.04.111-.122.111h-.507c-.036 0-.065-.01-.09-.028-.024-.02-.036-.047-.036-.081 0-.072.042-.108.124-.108h.145z" transform="translate(-290 -74) translate(290 74) translate(9 6) translate(.536 .16)"/>
                        <path fill="#92BAF6" d="M24.93 21.103h-9.563c-.125 0-.226-.102-.226-.228 0-.125.101-.227.226-.227h9.562c.125 0 .227.102.227.227 0 .126-.102.228-.227.228M21.198 21.87h-5.874c-.1 0-.183-.084-.183-.185v-.087c0-.101.082-.184.183-.184h5.874c.1 0 .183.083.183.184v.087c0 .101-.083.184-.183.184M14.716 21.776c0 .062-.043.093-.129.093h-.536c-.077 0-.116-.031-.116-.093 0-.02.01-.043.03-.07l.135-.157c.09-.113.164-.21.224-.293.02-.027.05-.069.088-.125.032-.056.048-.103.048-.141 0-.043-.014-.078-.041-.106-.027-.028-.062-.042-.105-.042-.041 0-.077.013-.108.04-.02.017-.037.05-.049.098-.015.062-.025.098-.03.108-.016.035-.042.053-.08.053-.032 0-.058-.012-.076-.036-.018-.021-.026-.048-.026-.082 0-.039.006-.078.018-.117.026-.085.072-.15.139-.194.063-.043.14-.064.23-.064.1 0 .182.03.249.09.068.064.103.145.103.244 0 .074-.025.15-.074.227-.027.043-.083.119-.168.227-.044.056-.113.138-.206.244h.353c.085 0 .127.032.127.096M24.93 25.104h-9.563c-.125 0-.226-.103-.226-.228s.101-.228.226-.228h9.562c.125 0 .227.103.227.228s-.102.228-.227.228M21.198 25.87h-5.874c-.1 0-.183-.083-.183-.185V25.6c0-.102.082-.185.183-.185h5.874c.1 0 .183.083.183.185v.086c0 .102-.082.185-.183.185M14.716 25.488c0 .117-.04.21-.122.28-.077.068-.174.102-.292.102-.092 0-.17-.022-.234-.066-.103-.07-.154-.153-.154-.25 0-.028.01-.052.027-.072.018-.02.04-.03.068-.03.03 0 .057.019.082.058.042.065.065.101.072.108.037.039.084.059.142.059.078 0 .134-.03.167-.088.016-.029.024-.066.024-.11 0-.11-.064-.172-.192-.184-.073-.007-.11-.037-.11-.092 0-.04.022-.07.064-.086l.12-.045c.042-.028.063-.077.063-.147 0-.041-.013-.074-.037-.098-.024-.024-.057-.036-.098-.036-.051 0-.091.012-.12.037-.025.021-.045.058-.062.11-.013.038-.039.058-.076.058-.027 0-.05-.012-.066-.035-.017-.024-.026-.05-.026-.078 0-.034.01-.07.028-.104.032-.058.08-.103.144-.136.06-.03.124-.045.194-.045.095 0 .173.028.236.086.063.058.095.134.095.228 0 .113-.047.203-.14.269.135.055.203.157.203.307" transform="translate(-290 -74) translate(290 74) translate(9 6) translate(.536 .16)"/>
                        <path fill="#699FF0" d="M23.797 12.32H17.89c-.133 0-.242-.108-.242-.242v-.043c0-.134.109-.243.242-.243h5.906c.133 0 .241.11.241.243v.043c0 .134-.108.243-.241.243M25.386 13.137h-9.084c-.145 0-.263-.12-.263-.265 0-.145.118-.264.263-.264h9.084c.145 0 .263.119.263.264 0 .146-.118.265-.263.265" transform="translate(-290 -74) translate(290 74) translate(9 6) translate(.536 .16)"/>
                        <path fill="#C65447" d="M20.138 18.763c-1.983 0-3.865-.25-5.268-.608-1.418-.361-2.181-.952-2.181-1.476 0-.475.622-.911 1.8-1.263-1.129.337-1.732.831-1.732 1.263 0 .479.782.953 2.146 1.3 1.398.357 3.257.554 5.235.554 1.979 0 3.838-.197 5.236-.553 1.364-.348 2.146-.822 2.146-1.301 0-.507-.824-1.138-2.15-1.645-1.507-.577-3.365-.792-5.232-.792-3.504 0-4.947.412-6.198.927 1.257-.517 2.681-1.104 6.198-1.104 1.874 0 3.74.32 5.255.899 1.354.518 2.195 1.175 2.195 1.715 0 .524-.78 1.011-2.198 1.373-1.403.357-3.268.71-5.252.71" transform="translate(-290 -74) translate(290 74) translate(9 6) translate(.536 .16)"/>
                        <path fill="#FFB27D" d="M32.182 23.438s-.065.638-.137.76c-.072.12-.377.506-.507.582-.13.075.08-.509.053-.623-.026-.113-.107.208-.164.215-.057.008-.043-.281-.045-.386-.002-.105.28-.365.378-.59.099-.223.422.042.422.042M24.382 17.55l-.146-.277s.072-.494-.543-.806c0 0-.224-.092-.351.093-.117.17.222.139.204.43-.018.29.119.46.31.554l.157.184.369-.178z" transform="translate(-290 -74) translate(290 74) translate(9 6) translate(.536 .16)"/>
                        <path fill="#E58638" d="M30.191 16.888s-.528 2.605-3.433 3.456c-.907.266-2.967-2.736-2.967-2.736s.072-.277.526-.213c0 0 2.006 1.335 2.259 1.48.224.13 1.697-1.654 2.37-1.942.671-.288 1.245-.045 1.245-.045" transform="translate(-290 -74) translate(290 74) translate(9 6) translate(.536 .16)"/>
                        <path fill="#C65447" d="M25.158 16.792L25.076 17.331 22.378 16.915 22.461 16.375z" transform="translate(-290 -74) translate(290 74) translate(9 6) translate(.536 .16)"/>
                        <path fill="#FFB27D" d="M21.792 16.548L22.378 16.915 22.461 16.375zM25.445 17.02l-.026.17c-.016.105-.114.177-.218.16l-.125-.019.082-.539.136.021c.098.015.166.108.15.206" transform="translate(-290 -74) translate(290 74) translate(9 6) translate(.536 .16)"/>
                        <path fill="#233862" d="M33.66 33.266s.36.331.29.566c-.07.235-.396.392-.44.679-.044.287-.22.444-.378.444h-.754s-.117-.202.164-.263c.282-.061.388-.399.37-.712-.017-.313.027-.731.027-.731l.597-.14.123.157zM29.238 34.122s.065.752-.094.83l-2.024-.004s0-.234.325-.287c.325-.052.896-.243.993-.67.097-.426.8.13.8.13" transform="translate(-290 -74) translate(290 74) translate(9 6) translate(.536 .16)"/>
                        <path fill="#2F2E41" d="M27.528 23.49s.107 1.32.233 2.905c.17 2.154.375 4.8.396 5.302.035.87.176 2.263.176 2.263s.334.33 1.002.191c0 0 .595-1.988.765-4.09l.008-.105c.158-2.14.404-6.649.404-6.649l-2.984.183z" transform="translate(-290 -74) translate(290 74) translate(9 6) translate(.536 .16)"/>
                        <path fill="#37364C" d="M27.528 23.49s.107 1.32.233 2.905l2.34 3.665.007-.104c.158-2.14.404-6.649.404-6.649l-2.984.183z" transform="translate(-290 -74) translate(290 74) translate(9 6) translate(.536 .16)"/>
                        <path fill="#2F2E41" d="M28.016 23.646s1.925 4.779 3.19 7.024c1.267 2.245 1.662 2.872 1.662 2.872s.725-.287.791-.483c0 0-.484-4.335-1.331-5.392-.48-.597-1.042-2.389-1.068-3.015-.027-.627-.172-1.867-.172-1.867l-3.072.861z" transform="translate(-290 -74) translate(290 74) translate(9 6) translate(.536 .16)"/>
                        <path fill="#FFB27D" d="M30.549 16.283s-1.303.632-2.053.398c0 0 .184-.235.508-.41-.026-.15-.046-.282-.058-.394-.032-.257-.032-.403-.032-.403l.503-.398.476-.38c-.037 1.07.656 1.587.656 1.587" transform="translate(-290 -74) translate(290 74) translate(9 6) translate(.536 .16)"/>
                        <path fill="#EE9849" d="M31.235 23.03c.003.08-.167.171-.242.205-.558.246-1.078.418-1.667.475-.696.072-1.519-.086-1.802-.08-.029 0-.055-.011-.078-.031-.02-.015-.034-.858-.02-1.92 0-.042 0-.085.003-.128v-.014c.006-.415.02-.85.04-1.284.04-.955.116-1.876.243-2.385.153-.6.5-.998.814-1.287l.26-.228c.26.051.535.037.809-.097.3-.146.624-.304.676-.264.392.29.658.938.8 1.768.08.477.121 1.012.118 1.572 0 .206-.006.418-.017.627-.07 1.132 0 2.115.04 2.684.012.166.02.295.023.387" transform="translate(-290 -74) translate(290 74) translate(9 6) translate(.536 .16)"/>
                        <path fill="#E58638" d="M31.212 22.978c-4.56-.01-.841-4.977-.841-4.977l.739-.241c.058.51.088 1.081.086 1.68 0 .22-.005.446-.013.669-.05 1.21 0 2.26.03 2.869" transform="translate(-290 -74) translate(290 74) translate(9 6) translate(.536 .16)"/>
                        <path fill="#ED985F" d="M29.902 15.105s-.33.603-.956.772c-.032-.257-.032-.403-.032-.403l.503-.398.485.029z" transform="translate(-290 -74) translate(290 74) translate(9 6) translate(.536 .16)"/>
                        <path fill="#FFB27D" d="M28.685 15.456s1.243.205 1.36-.563c.116-.768.355-1.26-.434-1.422-.788-.163-.987.107-1.089.354-.102.247-.157 1.558.163 1.631" transform="translate(-290 -74) translate(290 74) translate(9 6) translate(.536 .16)"/>
                        <path fill="#2C3A64" d="M30.496 13.379c.011-.013.037-.024.095-.027 0 0-.046-.029-.108-.03-.012-.081-.055-.225-.194-.26 0 0 .075.04.085.126-.16-.165-.505-.286-1.457-.21-1.255.1-.841.907-.679 1.004.163.096.572-.168.874-.144.303.024.36.464.463.524.103.06.063-.046.201-.11.14-.062.153.17.113.32-.04.15.15.349.15.349l.193-.21c.193-.208.375-1.093.287-1.282l-.023-.05" transform="translate(-290 -74) translate(290 74) translate(9 6) translate(.536 .16)"/>
                        <path fill="#EE9849" d="M30.27 15.986s.786.374 1.163.95c.585.893 1.263 4.146 1.275 4.447.013.302-.494 2.428-.494 2.428s-.515-.034-.648-.295c0 0 .103-2.185.038-2.326-.065-.14-2.144-2.931-1.91-3.527.233-.595.576-1.677.576-1.677" transform="translate(-290 -74) translate(290 74) translate(9 6) translate(.536 .16)"/>
                        <path fill="#FFB27D" d="M24.233 17.26s.043-.17-.074-.246c-.118-.077-.225-.284-.275-.256-.102.058.056.24.027.465-.01.08.173.286.322.037" transform="translate(-290 -74) translate(290 74) translate(9 6) translate(.536 .16)"/>
                        <path fill="#58A33C" d="M5.13 33.34s-1.847-4.754-3.142-3.997C.693 30.1 5.13 33.341 5.13 33.341M4.217 33.34s-2.44-2.12-3.554-1.725c-1.115.393 3.554 1.726 3.554 1.726M30.048 34.026s.563-1.966 1.222-1.734c.66.232-1.222 1.734-1.222 1.734M30.562 33.919s1.435-.948 1.75-.655c.315.293-1.75.655-1.75.655" transform="translate(-290 -74) translate(290 74) translate(9 6) translate(.536 .16)"/>
                        <path fill="#92BAF6" d="M25.657 29.71H14.462c-.075 0-.136-.062-.136-.137 0-.076.06-.137.136-.137h11.195c.075 0 .136.061.136.137 0 .075-.061.137-.136.137M25.657 30.258H14.462c-.075 0-.136-.062-.136-.137 0-.075.06-.137.136-.137h11.195c.075 0 .136.062.136.137 0 .075-.061.137-.136.137M25.657 30.866H14.462c-.075 0-.136-.062-.136-.137 0-.076.06-.137.136-.137h11.195c.075 0 .136.061.136.137 0 .075-.061.137-.136.137M24.178 31.473h-9.716c-.075 0-.136-.061-.136-.137 0-.075.06-.137.136-.137h9.716c.075 0 .136.062.136.137 0 .076-.06.137-.136.137" transform="translate(-290 -74) translate(290 74) translate(9 6) translate(.536 .16)"/>
                    </g>
                </g>
            </g>
        </g>
    </g>
</svg>
