<?xml version="1.0" encoding="UTF-8"?>
<svg width="19px" height="21px" viewBox="0 0 19 21" version="1.1" xmlns="http://www.w3.org/2000/svg" xmlns:xlink="http://www.w3.org/1999/xlink">
    <title>Group 2</title>
    <g id="Onboarding" stroke="none" stroke-width="1" fill="none" fill-rule="evenodd">
        <g id="15.4-Shop---subcategories-Copy-4" transform="translate(-258.000000, -40.000000)">
            <g id="Group-2" transform="translate(258.000000, 42.000000)">
                <g id="107799" transform="translate(0.000000, 2.400000)" fill="#43B02A" fill-rule="nonzero">
                    <path d="M16.3848843,0.286613911 C16.3026758,0.111620158 16.1271693,0 15.9343977,0 L0.498060848,0 C0.305289248,0 0.129849164,0.111620158 0.0475742718,0.286613911 C-0.034634216,0.461607663 -0.00886935874,0.66845481 0.11377933,0.817725948 L6.04773141,8.04031653 L6.04773141,14.7002082 C6.04773141,14.8731362 6.13677954,15.0337359 6.28313455,15.124898 C6.36335091,15.1748105 6.45439117,15.2 6.54576345,15.2 C6.6212651,15.2 6.69703238,15.1827405 6.76688967,15.1480217 L10.1009153,13.4897126 C10.2703126,13.405481 10.3774891,13.2322865 10.3777547,13.0425656 L10.3842623,8.04051645 L16.3185464,0.817659309 C16.4412615,0.66845481 16.4670928,0.461541025 16.3848843,0.286613911 Z" id="Shape"></path>
                </g>
                <circle id="Oval" stroke="#FFFFFF" stroke-width="1.3" fill="#FF8200" cx="14" cy="3" r="3.65"></circle>
            </g>
        </g>
    </g>
</svg>