<svg xmlns="http://www.w3.org/2000/svg" width="21" height="24" viewBox="0 0 21 24">
    <g fill="none" fill-rule="evenodd">
        <g>
            <g>
                <g>
                    <g transform="translate(-44 -350) translate(0 138) translate(20 156) translate(24 56)">
                        <circle cx="10.065" cy="10.065" r="10.065" fill="#64BA02"/>
                        <g fill="#FFF">
                            <path d="M8.258 3.097H4.13v6.198h4.13V3.097zm.516 0v6.198h.774c.428 0 .775-.346.775-.774v-4.65c0-.428-.347-.774-.775-.774h-.774zm-5.161 0h-.774c-.428 0-.774.346-.774.774v4.65c0 .428.346.774.774.774h.774V3.097zm1.032-.516v-.258c0-.428.347-.775.774-.775h1.549c.427 0 .774.347.774.775v.258h1.806c.713 0 1.29.577 1.29 1.29v4.65c0 .713-.577 1.29-1.29 1.29h-6.71c-.712 0-1.29-.577-1.29-1.29v-4.65c0-.713.578-1.29 1.29-1.29h1.807zm2.58 0v-.258c0-.143-.115-.258-.257-.258H5.419c-.142 0-.258.115-.258.258v.258h2.065z" transform="translate(3.871 3.871)"/>
                        </g>
                        <path fill="#64BA02" d="M4.684 18.596c1.718 1.075 5.38 3.107 5.38 5.198.012-1.405 1.815-3.137 5.41-5.198-8.34-.716-11.936-.716-10.79 0z"/>
                    </g>
                </g>
            </g>
        </g>
    </g>
</svg>
