<svg xmlns="http://www.w3.org/2000/svg" width="42" height="42" viewBox="0 0 42 42">
    <g fill="none" fill-rule="evenodd">
        <g fill="#43B02A">
            <g>
                <g fill-opacity=".2" transform="translate(-209 -115) translate(209 115)">
                    <circle cx="21" cy="21" r="21"/>
                </g>
                <path fill-rule="nonzero" d="M25.552 14.982C24.274 13.704 22.575 13 20.767 13c-1.807 0-3.507.704-4.785 1.982S14 17.96 14 19.767c0 3.657 3.457 6.698 5.315 8.332.258.227.481.423.659.59.222.207.508.311.793.311.286 0 .571-.104.794-.312.177-.166.4-.362.658-.589 1.858-1.634 5.315-4.675 5.315-8.332 0-1.807-.704-3.507-1.982-4.785zm-4.785 7.512c-1.644 0-2.982-1.338-2.982-2.983 0-1.644 1.338-2.982 2.982-2.982 1.645 0 2.982 1.338 2.982 2.982 0 1.645-1.337 2.983-2.982 2.983z" transform="translate(-209 -115) translate(209 115)"/>
            </g>
        </g>
    </g>
</svg>
