<svg xmlns="http://www.w3.org/2000/svg" width="24" height="24" viewBox="0 0 24 24">
    <g fill="none" fill-rule="evenodd">
        <g>
            <g>
                <path fill="#424242" fill-rule="nonzero" d="M16.108 6.734C14.99 5.616 13.503 5 11.921 5c-1.581 0-3.068.616-4.187 1.734C6.616 7.853 6 9.34 6 10.921c0 3.2 3.025 5.861 4.65 7.29.226.2.421.371.577.516.195.182.444.273.694.273.25 0 .5-.091.695-.273.155-.145.35-.317.576-.515 1.625-1.43 4.65-4.091 4.65-7.29 0-1.582-.615-3.07-1.734-4.188zm-4.187 6.573c-1.439 0-2.61-1.17-2.61-2.61 0-1.438 1.171-2.609 2.61-2.609 1.44 0 2.61 1.17 2.61 2.61 0 1.438-1.17 2.609-2.61 2.609z" transform="translate(-16 -264) translate(16 264)"/>
            </g>
        </g>
    </g>
</svg>
