<svg xmlns="http://www.w3.org/2000/svg" width="18" height="14" viewBox="0 0 18 14">
    <g fill="none" fill-rule="evenodd">
        <g fill="#212121" fill-rule="nonzero">
            <path d="M30.293 44.293c.39-.39 1.024-.39 1.414 0l6 6c.029.028.055.059.08.09l.017.022c.018.024.034.049.05.074l.021.037c.011.02.022.04.031.06l.023.053.021.06.014.045.016.065.009.053c.007.048.011.097.011.148l-.004-.085c.002.017.003.034.003.052L38 51v.033l-.004.053-.007.063-.01.052c-.004.022-.009.043-.015.065l-.014.046-.021.06-.023.051-.03.061-.022.037c-.016.025-.032.05-.05.074-.03.04-.061.077-.097.112l.08-.09-.007.008-.073.082-6 6c-.39.39-1.024.39-1.414 0-.39-.39-.39-1.024 0-1.414l4.292-4.294L21 52c-.513 0-.936-.386-.993-.883L20 51c0-.552.448-1 1-1l13.585-.001-4.292-4.292c-.36-.36-.388-.928-.083-1.32z" transform="translate(-20 -44) matrix(-1 0 0 1 58 0)"/>
        </g>
    </g>
</svg>
