<svg xmlns="http://www.w3.org/2000/svg" xmlns:xlink="http://www.w3.org/1999/xlink" width="24" height="25" viewBox="0 0 24 25">
    <defs>
        <path id="isadpfmqsa" d="M0.151 0.199L10.145 0.199 10.145 24.219 0.151 24.219z"/>
        <path id="h2g888kpmc" d="M0 0.25L7.617 0.25 7.617 7.867 0 7.867z"/>
    </defs>
    <g fill="none" fill-rule="evenodd">
        <g>
            <g>
                <path fill="#A9D8FF" d="M13.172.73L3.435 3.694S.684 23.929 13.172 24.75V.73z" transform="translate(-18 -84) translate(18 84)"/>
                <g transform="translate(-18 -84) translate(18 84) translate(13.02 .531)">
                    <mask id="o2l8300hjb" fill="#fff">
                        <use xlink:href="#isadpfmqsa"/>
                    </mask>
                    <path fill="#A9D8FF" d="M.151.2l9.737 2.962S12.639 23.398.15 24.22V.199z" mask="url(#o2l8300hjb)"/>
                </g>
                <path fill="#518AB9" d="M15.6 10.103c0 1.378-1.116 2.495-2.494 2.495-1.378 0-2.495-1.117-2.495-2.495 0-1.378 1.117-2.495 2.495-2.495 1.378 0 2.495 1.117 2.495 2.495" transform="translate(-18 -84) translate(18 84)"/>
                <path fill="#518AB9" d="M12.367 11.834l-1.689 4.848c-.127.365.066.764.43.89.075.027.153.04.231.04h3.643c.386 0 .7-.314.7-.7 0-.084-.015-.166-.044-.245l-1.803-4.833h-1.468z" transform="translate(-18 -84) translate(18 84)"/>
                <g transform="translate(-18 -84) translate(18 84) translate(0 .01)">
                    <mask id="oetmwffnrd" fill="#fff">
                        <use xlink:href="#h2g888kpmc"/>
                    </mask>
                    <path fill="#43B02A" d="M7.617 4.058c0 2.104-1.705 3.809-3.809 3.809C1.705 7.867 0 6.162 0 4.058 0 1.955 1.705.25 3.808.25c2.104 0 3.809 1.705 3.809 3.808" mask="url(#oetmwffnrd)"/>
                </g>
                <path stroke="#FFF" stroke-linecap="round" stroke-linejoin="round" stroke-width=".7" d="M2.344 4.167L3.54 5.065 5.472 2.91" transform="translate(-18 -84) translate(18 84)"/>
            </g>
        </g>
    </g>
</svg>
