<?xml version="1.0" encoding="utf-8"?>
<!-- Generator: Adobe Illustrator 25.1.0, SVG Export Plug-In . SVG Version: 6.00 Build 0)  -->
<svg version="1.1" id="Layer_1" xmlns="http://www.w3.org/2000/svg" xmlns:xlink="http://www.w3.org/1999/xlink" x="0px" y="0px"
	 viewBox="0 0 512 512" style="enable-background:new 0 0 512 512;" xml:space="preserve">
<style type="text/css">
	.st0{fill:#D5D5D3;}
	.st1{fill:#FDC8A2;}
	.st2{fill:#FDB683;}
	.st3{fill:#47A211;}
	.st4{fill:#34507B;}
	.st5{fill:#47AE11;}
	.st6{fill:#47B911;}
	.st7{fill:#7A432A;}
	.st8{fill:#2F486E;}
	.st9{fill:#CECECC;}
	.st10{fill:#C6C6C4;}
</style>
<circle class="st0" cx="356" cy="124" r="28"/>
<path class="st0" d="M408,200h-16v-21.2L361.8,141l12.5-10l32,40c1.1,1.4,1.8,3.2,1.8,5L408,200z"/>
<path class="st1" d="M264,96l-16,8v8c0,8.8-7.2,16-16,16h-48V48h64v24l5.3,8L264,96z"/>
<path class="st2" d="M253.3,80H216V64h32v8L253.3,80z"/>
<path class="st3" d="M40,352h56v48H40V352z"/>
<circle class="st4" cx="120" cy="432" r="56"/>
<circle class="st0" cx="120" cy="432" r="24"/>
<path class="st5" d="M40,136h96c8.8,0,16,7.2,16,16v112l0,0H24l0,0V152C24,143.2,31.2,136,40,136z"/>
<path class="st6" d="M48,192h16v48H48V192z"/>
<path class="st3" d="M24,160h128v16H24V160z"/>
<path class="st5" d="M311,409L361,359c4.5-4.5,7-10.6,7-17V280c0-17.7,14.3-32,32-32v40c0,22.1,17.9,40,40,40v32h-17.8
	c-9,0-17.6,3.8-23.7,10.5l-61,67.1c-6.1,6.7-14.7,10.5-23.7,10.5H24c0-51,36.4-94.6,86.6-103.7l1.4-0.3v-32h136
	c0,13.8-10.1,25.4-23.8,27.4c-18.5,2.6-32.2,18.5-32.2,37.2v1.9c0,20.7,16.8,37.6,37.6,37.6h64.5C300.4,416,306.5,413.5,311,409
	L311,409z"/>
<path class="st6" d="M104.3,387.6l-6.1-14.8c5.4-2.2,11-3.9,16.7-4.9l2.9,15.7C113.1,384.5,108.6,385.8,104.3,387.6z"/>
<path class="st6" d="M70.5,419.5l-14.4-7c6.2-12.8,15.6-23.7,27.4-31.8l9,13.2C83.1,400.4,75.5,409.2,70.5,419.5L70.5,419.5z"/>
<path class="st0" d="M152,264H24c-4.4,0-8,3.6-8,8v9.3c0,7.7,5.5,14.4,13.1,15.8l81.4,14.8c0.5,0.1,1,0.1,1.4,0.1h40
	c4.4,0,8-3.6,8-8v-32C160,267.6,156.4,264,152,264z M144,296h-31.3L32,281.3V280h112V296z"/>
<path class="st5" d="M256,64h-40v19c0,11.6-9.4,21-21,21c-3.9,0-7.7-1.1-11-3.1c-1.1-0.7-2.1-1.5-3.1-2.3c-3.9-3.5-6.3-8.3-6.8-13.5
	L172.4,68c-2.2-22,13.8-41.6,35.8-43.8c1.3-0.1,2.7-0.2,4-0.2h3.8C238.1,24,256,41.9,256,64z"/>
<path class="st7" d="M184,240v16c0,13.3,10.7,24,24,24h80l-40,104h40l37.6-90.5c4.7-11.2,3.8-24-2.4-34.4c-6.9-11.8-19.6-19-33.3-19
	H184z"/>
<path class="st5" d="M280,184l-48-56h-48v112h64v-40l9,9c4.5,4.5,10.6,7,17,7H352v-32H280z"/>
<path class="st3" d="M368,248h64v-56h-14.1c-11,0-21,6.2-25.9,16l-24,8V248z"/>
<path class="st4" d="M488,432c0,30.9-25.1,56-56,55.9s-56-25.1-55.9-56s25.1-56,56-55.9c27.8,0,51.4,20.5,55.4,48
	C487.8,426.6,488,429.3,488,432z"/>
<path class="st8" d="M487.4,424H424l-31.7,47.5c-21.8-21.9-21.7-57.4,0.2-79.2c21.9-21.8,57.4-21.7,79.2,0.2
	C480.2,401,485.7,412.1,487.4,424z"/>
<path class="st9" d="M455,432c0,13.3-10.7,24-24,24.1c-13.3,0-24-10.7-24.1-24c0-13.3,10.7-24,24-24.1c10.2,0,19.3,6.4,22.7,16
	C454.5,426.6,455,429.3,455,432z"/>
<path class="st10" d="M453.6,424H424l-13.6,20.4c-6.8-11.4-3.2-26.1,8.2-32.9s26.1-3.2,32.9,8.2C452.4,421,453.1,422.5,453.6,424z"
	/>
<path class="st0" d="M396,419.2l24.5,24.5c5.8,5.8,15.2,5.8,21,0c0,0,0,0,0,0c5.8-5.8,5.8-15.2,0-21c0,0,0,0,0,0L417,398.2
	L396,419.2z"/>
<path class="st5" d="M360,456h32l32-48h64c0-26.5-21.5-48-48-48h-16c-35.3,0-64,28.7-64,64V456z"/>
<path class="st1" d="M352,184v32l16,8v16h32v-40L352,184z"/>
<circle class="st4" cx="368" cy="232" r="16"/>
<g>
	<path class="st3" d="M112,336h56v16h-56V336z"/>
	<path class="st3" d="M278.1,432H128v-16h166.1c6.4,0,12.5-2.5,17-7l1-1l-17,17C290.5,429.5,284.4,432,278.1,432z"/>
	<path class="st3" d="M424,352c-35.1,0-65.1,25.4-71,60h16.3c5.7-25.7,28.4-44,54.7-44h16v-16H424z"/>
</g>
<path class="st4" d="M168,280h64c8.8,0,16,7.2,16,16l0,0c0,8.8-7.2,16-16,16h-64c-8.8,0-16-7.2-16-16l0,0
	C152,287.2,159.2,280,168,280z"/>
<path class="st3" d="M248,201.4L221.7,175l-11.3,11.3L248,224V201.4z"/>
<path class="st0" d="M248,384h48c8.8,0,16,7.2,16,16s-7.2,16-16,16h-48l0,0V384L248,384z"/>
</svg>
