<svg viewBox="0 0 176.08 400" xmlns="http://www.w3.org/2000/svg"><g fill="#ff5843"><path d="m133.67 137.41h6.88v15.94h-6.88z" transform="matrix(.21217767 -.97723111 .97723111 .21217767 -34.05 248.54)"/><path d="m144.7 142.09 26.88 5.76a8.7 8.7 0 0 0 4.09-.1l.41-.11-2.7 11.51-.2-.16a8.86 8.86 0 0 0 -3.53-1.64l-27.83-6 2.55-9.38z"/><path d="m31 141.94h15.94v6.88h-15.94z" transform="matrix(.97726812 -.21200711 .21200711 .97726812 -29.95 11.57)"/></g><path d="m88.27 358.12h-20.93s7.27 33.43 10.17 38.23c1.94 3.2 6.08 3.68 8.62 3.65h4.28c2.54 0 6.68-.45 8.62-3.65 2.9-4.8 10.17-38.23 10.17-38.23z" fill="#9adae5"/><path d="m82.96 368.6h10.61v13.64h-10.61z" fill="#00cf9a"/><path d="m88.27 44.48a12.65 12.65 0 0 1 -12.65-12.64v-19.19a12.65 12.65 0 0 1 25.3 0v19.19a12.64 12.64 0 0 1 -12.65 12.64z" fill="#0c3d4c"/><path d="m104.12 23.37c-4.37-11-15.85-11.2-15.85-11.2s-11.48.15-15.84 11.2-11.2 35.63-11.2 35.63l27-3.2 27 3.2s-6.75-24.59-11.11-35.63z" fill="#00cf9a"/><path d="m123 139.93h-69.42s-3.16-54.88-3.27-58.31v-.05a13.53 13.53 0 0 1 .87-5.19 62.68 62.68 0 0 1 14.7-22.84 55.11 55.11 0 0 1 16.86-11.32 14.07 14.07 0 0 1 11.06 0c8.14 3.44 23.29 12.48 31.56 34.16a13.44 13.44 0 0 1 .87 5.24c-.11 3.43-3.23 58.31-3.23 58.31z" fill="#00cf9a"/><path d="m132.72 196.62h-88.9s-13.11 57.56 0 118.18c11.24 52 35.87 55.85 42.68 55.91q1.77 0 3.54 0c6.81-.06 31.44-3.95 42.68-55.91 13.11-60.62 0-118.18 0-118.18z" fill="#00cf9a"/><path d="m129.5 122.58c-4.71-4.15-27.12-22.14-41.23-23.8-14.11 1.66-36.52 19.65-41.23 23.8s-2.21 18-2.21 18h86.88s2.49-13.85-2.21-18z" fill="#9adae5"/><path d="m139.71 209a489.73 489.73 0 0 1 -5.77-66.76 2.61 2.61 0 0 0 -2.31-2.55l-43.36-5-43.36 5a2.61 2.61 0 0 0 -2.31 2.55 489.73 489.73 0 0 1 -5.77 66.76c-5.83 35.73 1.17 43.58 1.17 43.58 5.86-33.15 50.24-71.52 50.24-71.52s44.38 38.37 50.24 71.52c.03 0 7.03-7.85 1.23-43.58z" fill="#0c3d4c"/><path d="m88.27 170.48c-51.65 14.76-41.51 119-41.51 119 3.69 58.59 41.51 56.26 41.51 56.26s37.82 2.33 41.51-56.26c0-.01 10.14-104.24-41.51-119z" fill="#e5f5fb"/><path d="m88.27 109.45c-23.33 9.37-25.08 36-25.08 36h50.16s-1.75-26.63-25.08-36z" fill="#99dadd"/><path d="m119.36 139.83c-3.94-3.5-14.28-11.06-31.09-12.39-16.81 1.33-27.14 8.89-31.09 12.39a5.13 5.13 0 0 0 -1.43 5.79c1.8 4.18 7.88 3.19 7.88 3.19h49.28s6.08 1 7.88-3.19a5.11 5.11 0 0 0 -1.43-5.79z" fill="#e5f5fb"/><path d="m64.22 63.49c-3.5 5.06-8.46 14.36-13.91 18.08a13.53 13.53 0 0 1 .87-5.19 62.68 62.68 0 0 1 14.7-22.84c1.02 2.46 1.04 6.06-1.66 9.95z" fill="#e5f5fb"/><path d="m112.29 63.35c3.5 5.06 8.47 14.36 13.91 18.08a13.34 13.34 0 0 0 -.87-5.19 62.81 62.81 0 0 0 -14.69-22.85c-1.02 2.48-1.05 6.07 1.65 9.96z" fill="#e5f5fb"/><path d="m83 382.24h10.58s-4.22 3.93-10.58 0z" fill="#ff5843"/><path d="m31.38 142.09-26.88 5.76a8.66 8.66 0 0 1 -4.08-.1l-.42-.11 2.7 11.51.2-.16a8.93 8.93 0 0 1 3.53-1.64l27.83-6-2.55-9.35z" fill="#ff5843"/><path d="m71.15 206.72 3.65-8.83a4.26 4.26 0 0 1 1.7-2s4.66-2.66 6.32-3.86a20 20 0 0 0 4.18-4.29 2.6 2.6 0 0 1 2.07-1.06h.55a2.41 2.41 0 0 1 2.18 1.23 15.66 15.66 0 0 0 3.84 4.15c2.14 1.57 6.9 4.21 6.9 4.21a4.28 4.28 0 0 1 1.59 1.73l4.58 9.23z" fill="#ffd988"/><path d="m10.64 142.63c3.54-1.69 10.15-4.21 14.42-1.91a3 3 0 0 1 1.57 2.7c0 2.56.35 7.71 3.64 8.75a2 2 0 0 1 1.4 1.61c.23 1.49-.1 3.65-3.69 4.15a11.74 11.74 0 0 0 -6.64 4.24l-13.91-.81s-1.72-8.8-1.17-12.79a7.8 7.8 0 0 1 4.38-5.94z" fill="#f8b679"/><path d="m165.9 142.63c-3.53-1.69-10.15-4.21-14.42-1.91a3 3 0 0 0 -1.57 2.7c0 2.56-.35 7.71-3.63 8.75a2 2 0 0 0 -1.41 1.61c-.22 1.49.1 3.65 3.69 4.15a11.71 11.71 0 0 1 6.64 4.24l13.91-.81s1.72-8.8 1.17-12.79a7.8 7.8 0 0 0 -4.38-5.94z" fill="#f8b679"/><path d="m139.77 236.58c-3.05-5.87-13.25-7.85-13.25-7.85l-38.28 67.63-38.24-67.63s-10.2 2-13.25 7.85.77 34.42 13.45 58.14a45.5 45.5 0 0 0 18 18.46 40.8 40.8 0 0 0 40 0 45.5 45.5 0 0 0 18-18.46c12.8-23.72 16.63-52.27 13.57-58.14z" fill="#0c3d4c"/><path d="m155.2 162.17a204.92 204.92 0 0 1 -15.46 38.62c-6.34 12.1-16.88 20.84-28.65 26.24a25.59 25.59 0 0 0 -9.9-.95c-7.7-.69-27.63 4.89-35.13 1.31l-2.89 4.84 2.89-4.93c-12-5.37-22.8-14.2-29.26-26.51a204.92 204.92 0 0 1 -15.46-38.62l-13.91-.81c10.51 58.35 39.3 81.64 45.57 88.22 5.34 6.42 7.41 42.42 7.41 42.42 4.45 8.6 22.24 10 28 10.24v.05h.85.92v-.06c5.42-.25 21.65-1.7 26.06-10.23 0 0 2-36 7.34-42.43 6.28-6.62 35.08-29.87 45.58-88.22z" fill="#9adae5"/><ellipse cx="89.52" cy="224.05" fill="#ff5843" rx="23.76" ry="28.76"/></svg>