<svg height="666.66669" viewBox="0 0 666.66669 666.66669" width="666.66669" xmlns="http://www.w3.org/2000/svg"><g transform="matrix(.13333333 0 0 -.13333333 0 666.66667)"><path d="m5000 0h-5000.00390625v5000h5000.00390625z" fill="#fff"/><g fill="#f0413f"><path d="m3061.32 2995.61-155.81 33.82 14.6 67.27 155.81-33.82z"/><path d="m3066.6 3079.1 268.78-57.64c13.52-2.9 27.53-2.55 40.89 1.01l4.15 1.12-27-115.1-2.03 1.57c-10.37 8.07-22.43 13.68-35.28 16.44l-278.32 59.7 25.5 93.77c1.12-.28 2.2-.62 3.31-.87"/><path d="m1938.67 2995.61-14.6 67.27 155.82 33.82 14.6-67.27z"/></g><path d="m2502.28 918.832h-209.32s72.68-334.352 101.75-382.32c19.38-31.981 60.73-36.821 86.14-36.5 14.29.187 28.57.187 42.86 0 25.41-.321 66.76 4.519 86.14 36.5 29.08 47.968 101.76 382.32 101.76 382.32z" fill="#a2e0e4"/><path d="m2449.23 814.012h106.11v-136.43h-106.11z" fill="#50c28a"/><path d="m2502.28 4055.19c-69.85 0-126.47 56.61-126.47 126.46v191.89c0 69.84 56.62 126.46 126.47 126.46s126.47-56.62 126.47-126.46v-191.89c0-69.85-56.62-126.46-126.47-126.46" fill="#1b3949"/><path d="m2660.73 4266.34c-43.61 110.48-158.45 111.93-158.45 111.93s-114.84-1.45-158.44-111.93c-43.62-110.48-111.94-356.14-111.94-356.14l270.38 31.98 270.38-31.98s-68.32 245.66-111.93 356.14" fill="#50c28a"/><path d="m2849.17 3100.73h-693.84s-31.59 548.79-32.63 583.06v.53c-.56 17.88 2.51 35.67 8.71 51.89 38.7 101.35 92.33 175.05 146.93 228.43 62.13 60.61 125.31 94.81 168.68 113.13 35.84 15.08 74.69 15.08 110.53 0 81.45-34.37 232.9-124.82 315.61-341.56 6.28-16.39 9.34-34.36 8.72-52.42-1.05-34.27-32.71-583.06-32.71-583.06" fill="#50c28a"/><path d="m2946.79 2533.84h-889.01s-131.15-575.65 0-1181.83c112.41-519.569 358.69-558.549 426.76-559.088 11.83-.09 23.66-.09 35.48 0 68.07.539 314.36 39.519 426.77 559.088 131.14 606.18 0 1181.83 0 1181.83" fill="#50c28a"/><path d="m2914.57 3274.19c-47.04 41.5-271.17 221.37-412.29 237.97-141.12-16.6-365.25-196.47-412.28-237.97-47.04-41.5-22.14-179.85-22.14-179.85h434.42 434.42s24.91 138.35-22.13 179.85" fill="#a2e0e4"/><path d="m3016.7 2410.27c-48.98 302.19-56.58 586.73-57.75 667.66-.2 13.1-10.07 23.96-23.09 25.45-144.52 16.57-289.05 33.14-433.58 49.72-144.52-16.58-289.05-33.15-433.58-49.72-13.01-1.49-22.89-12.35-23.08-25.45-1.17-80.93-8.77-365.47-57.76-667.66-57.96-357.59 11.99-436.05 11.99-436.05 58.66 331.46 502.43 715.16 502.43 715.16s443.77-383.7 502.44-715.16c0 0 69.95 78.46 11.98 436.05" fill="#1b3949"/><path d="m2502.28 2795.22c-516.54-147.59-415.07-1189.89-415.07-1189.89 36.89-585.89 415.07-562.65 415.07-562.65s378.18-23.24 415.08 562.65c0 0 101.46 1042.3-415.08 1189.89" fill="#e9f8fc"/><path d="m2502.28 3405.52c-233.31-93.76-250.75-359.79-250.75-359.79h250.75 250.76s-17.45 266.03-250.76 359.79" fill="#9fdfd9"/><path d="m2813.21 3101.7c-39.48 35.02-142.8 110.61-310.93 123.93-168.13-13.32-271.45-88.91-310.92-123.93-16.33-14.48-22.91-37.87-14.28-57.93 17.97-41.74 78.81-31.84 78.81-31.84h246.39 246.39s60.85-9.9 78.81 31.84c8.63 20.06 2.05 43.45-14.27 57.93" fill="#e9f8fc"/><path d="m2261.81 3865.08c-35-50.59-84.65-143.6-139.11-180.76-.56 17.88 2.51 35.67 8.71 51.89 38.7 101.35 92.33 175.05 146.93 228.43 10.25-24.78 10.46-60.66-16.53-99.56" fill="#e9f8fc"/><path d="m2742.51 3866.5c35.01-50.59 84.66-143.61 139.11-180.77.57 17.88-2.51 35.68-8.71 51.9-38.7 101.35-92.32 175.05-146.93 228.43-10.24-24.77-10.45-60.67 16.53-99.56" fill="#e9f8fc"/><path d="m2449.23 677.582h106.11s-42.15-39.25-106.11 0" fill="#f0413f"/><path d="m1933.4 3079.1-268.78-57.64c-13.52-2.9-27.53-2.55-40.89 1.01l-4.15 1.12 27-115.1 2.03 1.57c10.38 8.07 22.44 13.68 35.28 16.44l278.32 59.7-25.51 93.77c-1.1-.28-2.19-.62-3.3-.87" fill="#f0413f"/><path d="m2331.1 2432.82 36.46 88.28c3.43 8.3 9.41 15.3 17.07 19.99 0 0 46.52 26.62 63.12 38.6 8.59 6.2 22.95 18.04 41.94 42.95 4.97 6.52 12.5 10.59 20.7 10.59h5.52c8.92 0 17.69-4.37 21.81-12.28 8.04-15.43 28.15-33.96 38.4-41.53 21.31-15.76 68.94-42.1 68.94-42.1 6.82-4.16 12.32-10.17 15.87-17.33l45.82-92.29z" fill="#fcd670"/><path d="m1726 3073.72c35.36 16.9 101.51 42.09 144.18 19.04 9.85-5.32 15.82-15.79 15.72-26.98-.23-25.53 3.49-77.1 36.33-87.52 7.35-2.33 12.88-8.49 14.05-16.11 2.27-14.81-.96-36.47-36.9-41.49-21.63-3.03-55.46-24.6-66.38-42.38l-139.13 8.16s-17.19 87.99-11.68 127.82c3.58 25.89 20.22 48.19 43.81 59.46" fill="#f6ac63"/><path d="m3278.59 3073.72c-35.35 16.9-101.51 42.09-144.18 19.04-9.86-5.32-15.82-15.79-15.72-26.98.23-25.53-3.49-77.1-36.33-87.52-7.35-2.33-12.88-8.49-14.05-16.11-2.27-14.81.95-36.47 36.9-41.49 21.63-3.03 55.46-24.6 66.37-42.38l139.14 8.16s17.19 87.99 11.69 127.82c-3.59 25.89-20.24 48.19-43.82 59.46" fill="#f6ac63"/><path d="m3017.31 2134.17c-30.53 58.7-132.55 78.51-132.55 78.51l-382.78-676.32-382.78 676.32s-102.02-19.81-132.55-78.51c-30.52-58.71 8.09-344.19 134.9-581.38 48.58-90.86 115.78-148.3 180.2-184.58 124.28-70 276.18-70 400.45 0 64.42 36.28 131.62 93.72 180.21 184.58 126.8 237.19 165.42 522.67 134.9 581.38" fill="#1b3949"/><path d="m3171.59 2878.28s-48.12-183.26-154.58-386.17c-63.47-121.02-168.88-208.43-286.58-262.39-28.66 8.91-61.65 12.78-98.91 9.43-77 6.91-276.3-48.82-351.34-13.06 0 0-12.07-20.2-28.86-48.4l28.86 49.27c-120.12 53.72-228.04 142.07-292.6 265.15-106.45 202.91-154.58 386.17-154.58 386.17l-139.13 8.16c105.09-583.52 393.03-816.02 455.84-882.23 53.22-63.82 73.95-424.36 73.95-424.36 44.51-85.97 222.39-100.04 279.47-102.35v-.46s3.07.01 8.53.17c5.9-.16 9.23-.17 9.23-.17v.52c54.19 2.49 216.47 17.06 260.6 102.29 0 0 20.17 360.54 73.4 424.36 62.81 66.21 350.75 298.71 455.83 882.23z" fill="#a2e0e4"/><path d="m2277.09 2259.54c0 158.84 106.39 287.61 237.64 287.61 131.24 0 237.64-128.77 237.64-287.61s-106.4-287.6-237.64-287.6c-131.25 0-237.64 128.76-237.64 287.6" fill="#f0413f"/></g></svg>