<svg xmlns="http://www.w3.org/2000/svg" width="30" height="24" viewBox="0 0 30 24">
    <g fill="none" fill-rule="evenodd">
        <g fill="#BDBDBD" fill-rule="nonzero">
            <g>
                <g>
                    <path d="M26.806 3.672h-5.204L20.493.715C20.333.285 19.921 0 19.462 0H9.18c-.46 0-.87.285-1.031.715l-1.11 2.957H1.837C.822 3.672 0 4.494 0 5.508v14.688c0 1.014.822 1.836 1.836 1.836h24.97c1.014 0 1.836-.822 1.836-1.836V5.508c0-1.014-.822-1.836-1.836-1.836zM14.321 5.875c3.847 0 6.977 3.13 6.977 6.977 0 3.847-3.13 6.977-6.977 6.977-3.847 0-6.977-3.13-6.977-6.977 0-3.847 3.13-6.977 6.977-6.977z" transform="translate(-165 -97) translate(135.176 64.353) translate(29.964 33.49)"/>
                    <path d="M9.547 12.852c0 2.632 2.142 4.774 4.774 4.774s4.774-2.142 4.774-4.774S16.953 8.08 14.32 8.08s-4.774 2.141-4.774 4.773z" transform="translate(-165 -97) translate(135.176 64.353) translate(29.964 33.49)"/>
                </g>
            </g>
        </g>
    </g>
</svg>
