<svg xmlns="http://www.w3.org/2000/svg" width="20" height="18" viewBox="0 0 20 18">
    <g fill="none" fill-rule="evenodd">
        <g fill="#FFF" fill-rule="nonzero">
            <g transform="translate(-60 -142) translate(60 142)">
                <circle cx="10" cy="10" r="3.2"/>
                <path d="M7 0L5.17 2H2C.9 2 0 2.9 0 4v12c0 1.1.9 2 2 2h16c1.1 0 2-.9 2-2V4c0-1.1-.9-2-2-2h-3.17L13 0H7zm3 15c-2.76 0-5-2.24-5-5s2.24-5 5-5 5 2.24 5 5-2.24 5-5 5z"/>
            </g>
        </g>
    </g>
</svg>
