<svg xmlns="http://www.w3.org/2000/svg" width="16" height="16" viewBox="0 0 16 16">
    <g fill="none" fill-rule="evenodd">
        <g fill="#90CF81" fill-rule="nonzero">
            <g>
                <path d="M12.73 7.96c-.37 0-.67.3-.67.67v5.36c0 .37-.3.67-.67.67H2.01c-.37 0-.67-.3-.67-.67V4.61c0-.37.3-.67.67-.67h5.36c.37 0 .67-.3.67-.67 0-.37-.3-.67-.67-.67H2.01C.902 2.6 0 3.502 0 4.61v9.38C0 15.098.902 16 2.01 16h9.38c1.108 0 2.01-.902 2.01-2.01V8.63c0-.37-.3-.67-.67-.67z" transform="translate(-16 -420) translate(16 420)"/>
                <path d="M6.169 7.474c-.047.047-.078.106-.091.17l-.472 2.357c-.021.11.013.222.092.302.063.063.148.097.236.097.021 0 .043-.002.065-.007l2.356-.47c.066-.014.125-.046.171-.092L13.8 4.556 11.444 2.2 6.169 7.474zM15.508.492c-.656-.656-1.722-.656-2.377 0l-.931.93L14.577 3.8l.93-.93c.318-.318.493-.74.493-1.19 0-.448-.175-.87-.492-1.188z" transform="translate(-16 -420) translate(16 420)"/>
            </g>
        </g>
    </g>
</svg>
