<svg xmlns="http://www.w3.org/2000/svg" width="16" height="14" viewBox="0 0 16 14">
    <g fill="none" fill-rule="evenodd">
        <g fill="#FFF" fill-rule="nonzero">
            <g>
                <path d="M10.92 10.64c-.92 0-1.68.743-1.68 1.68 0 .92.743 1.68 1.68 1.68.92 0 1.68-.743 1.68-1.68-.016-.92-.76-1.68-1.68-1.68zM14.026 2.42c-.033 0-.082-.017-.131-.017H3.596l-.163-1.118C3.335.551 2.713 0 1.978 0H.654C.294 0 0 .3 0 .668c0 .367.294.667.654.667h1.324c.082 0 .147.067.163.15l1.014 7.043c.13.884.883 1.552 1.765 1.552h6.8c.85 0 1.586-.617 1.766-1.469l1.063-5.423c.065-.35-.164-.701-.523-.768zM6.998 12.247c-.033-.893-.794-1.607-1.703-1.607-.96.049-1.687.828-1.654 1.753.033.893.777 1.607 1.687 1.607h.033c.942-.049 1.686-.828 1.637-1.753z" transform="translate(-304 -45) translate(304 45)"/>
            </g>
        </g>
    </g>
</svg>
