<svg xmlns="http://www.w3.org/2000/svg" width="14" height="14" viewBox="0 0 14 14">
    <g fill="none" fill-rule="evenodd">
        <g fill="#212121">
            <path d="M322.29 486.11c.392-.392.4-1.02.002-1.418l.016.016c-.39-.39-1.025-.39-1.417.001L316 489.6l-4.89-4.89c-.392-.392-1.02-.4-1.418-.002l.016-.016c-.39.39-.39 1.025.001 1.417L314.6 491l-4.89 4.89c-.392.392-.4 1.02-.002 1.418l-.016-.016c.39.39 1.025.39 1.417-.001L316 492.4l4.89 4.89c.392.392 1.02.4 1.418.002l-.016.016c.39-.39.39-1.025-.001-1.417L317.4 491l4.89-4.89z" transform="translate(-309 -484)"/>
        </g>
    </g>
</svg>
