<svg xmlns="http://www.w3.org/2000/svg" width="18" height="18" viewBox="0 0 18 18">
    <g fill="none" fill-rule="evenodd">
        <g fill="#43B02A">
            <g>
                <g transform="translate(-20 -180) translate(20 171) translate(0 9)">
                    <g fill-rule="nonzero">
                        <path d="M17.566 8.156h-1.434c-.049 0-.053-.042-.056-.062C15.66 4.9 13.138 2.37 9.95 1.943c-.042-.006-.127-.014-.127-.098V.413C9.823.186 9.637 0 9.41 0h-.84c-.228 0-.414.186-.414.413v1.432c0 .069-.085.092-.127.098-1.727.232-3.259 1.08-4.366 2.317-.934 1.044-1.566 2.363-1.758 3.82-.004.026-.01.076-.063.076H.413c-.227 0-.413.186-.413.413v.84c0 .228.186.414.413.414h1.42c.056 0 .06.052.063.077.395 3.235 2.95 5.802 6.18 6.214.026.004.08.023.08.06v1.392c0 .227.186.413.413.413h.84c.228 0 .414-.186.414-.413v-1.391c0-.04.062-.058.093-.062 3.23-.418 5.784-2.993 6.17-6.235.002-.018.003-.055.054-.055h1.426c.227 0 .413-.186.413-.413v-.84c0-.228-.186-.414-.413-.414zm-7.743 6.527v-.23c0-.228-.186-.414-.413-.414h-.84c-.228 0-.414.186-.414.413v.23c0 .07-.091.064-.137.056-2.455-.414-4.385-2.37-4.758-4.839-.004-.025-.024-.076.032-.076h.234c.227 0 .413-.186.413-.413v-.84c0-.228-.186-.414-.413-.414h-.224c-.043 0-.038-.03-.035-.045.178-1.123.678-2.139 1.403-2.949.862-.962 2.04-1.634 3.371-1.853.038-.006.114-.023.114.028v.19c0 .227.186.413.413.413h.84c.228 0 .414-.186.414-.413v-.19c0-.048.081-.033.121-.027 2.426.403 4.342 2.31 4.756 4.732.007.038.02.114-.055.114h-.193c-.227 0-.413.186-.413.413v.84c0 .228.186.414.413.414h.203c.073 0 .064.068.058.102-.383 2.463-2.318 4.412-4.773 4.817-.039.006-.117.012-.117-.059z"/>
                    </g>
                    <circle cx="9" cy="9" r="2"/>
                </g>
            </g>
        </g>
    </g>
</svg>
