<svg xmlns="http://www.w3.org/2000/svg" width="16" height="16" viewBox="0 0 16 16">
    <g fill="none" fill-rule="evenodd">
        <g fill="#EA4E3C" fill-rule="nonzero">
            <path d="M28 226c-4.418 0-8 3.582-8 8s3.582 8 8 8 8-3.582 8-8c0-2.122-.843-4.157-2.343-5.657S30.122 226 28 226zm.8 11.2c0 .442-.358.8-.8.8-.442 0-.8-.358-.8-.8v-4c0-.442.358-.8.8-.8.442 0 .8.358.8.8v4zm-.8-5.6c-.442 0-.8-.358-.8-.8 0-.442.358-.8.8-.8.442 0 .8.358.8.8 0 .442-.358.8-.8.8z" transform="translate(-20 -226)"/>
        </g>
    </g>
</svg>
