<svg xmlns="http://www.w3.org/2000/svg" width="259" height="151" viewBox="0 0 259 151">
    <g fill="none" fill-rule="evenodd">
        <g>
            <g>
                <g transform="translate(-39 -166) translate(39 166) translate(.36 .18)">
                    <path fill="#ECF6FF" fill-rule="nonzero" d="M250.292 149.342c3.761 0 6.824-3.021 6.875-6.782.286-18.706 1.792-46.3-33.437-53.935-28.512-6.172-11.61-56.846-88.393-53.568-55.118 2.349-40.5 48.805-83.333 52.677-28.517 2.576-28.765 38.642-27.67 55.166.24 3.615 3.241 6.426 6.864 6.426l219.094.016z"/>
                    <path fill="#6EB5F5" fill-rule="nonzero" d="M223.73 88.641c-28.512-6.172-11.61-56.846-88.393-53.568-13.111.54-22.27 3.613-29.198 7.997 2.333-.307 4.812-.54 7.452-.631 76.788-3.278 59.881 47.39 88.393 53.568 34.857 7.56 33.755 34.64 33.448 53.335h14.86c3.761 0 6.824-3.021 6.875-6.782.286-18.69 1.792-46.283-33.437-53.919z" opacity=".2"/>
                    <path fill="#233862" fill-rule="nonzero" d="M83.827 98.167c-.748 3.588-1.089 7.249-1.016 10.913.184 4.941-.405 37.427-.405 37.427h3.97s5.648-25.439 5.858-27.448c.211-2.009 3.046-22.097 3.046-22.097l-11.453 1.205z"/>
                    <path fill="#2B478B" fill-rule="nonzero" d="M86.467 96.687s.913 6.939 2.468 11.88c1.555 4.941 9.18 37.951 9.18 37.951h3.969s-.729-25.44-1.004-27.448c-.276-2.009-2.285-22.102-2.285-22.102l-12.328-.281z"/>
                    <path fill="#616161" fill-rule="nonzero" d="M98.439 146.507v2.77h7.56c.191.001.36-.124.415-.308.055-.183-.017-.38-.177-.485-1.08-.735-2.873-1.75-4.515-1.977H98.44zM82.612 146.507v2.77h7.56c.184-.004.344-.125.4-.3.056-.175-.005-.367-.152-.477-1.107-.734-2.873-1.75-4.52-1.976l-3.288-.017z"/>
                    <path fill="#2C3A64" fill-rule="nonzero" d="M96.236 64.4s2.603-3.947-.384-4.32c-2.29-.297-3.24.384-3.24.384s-2.64-.286-4.082.961c-.988.859-4.617 7.506 1.253 9.909 5.87 2.403 4.617-3.78 4.617-3.78l1.836-3.154z"/>
                    <path fill="#2C3A64" fill-rule="nonzero" d="M95.852 60.07c-2.29-.297-3.24.383-3.24.383s-2.64-.286-4.082.961c-.988.859-4.617 7.506 1.253 9.91 2.76 1.133 3.942.372 4.422-.757-5.567 1.572-6.172-5.14-5.254-7.052.918-1.912 3.175-1.042 3.175-1.042.875-2.209 3.726-1.966 4.904-1.799-.289-.36-.717-.58-1.178-.604z"/>
                    <path fill="#F98D3D" fill-rule="nonzero" d="M92.58 66.323s-.767-.772-1.345 0c-.577.772-.194 2.5.767 2.597 0 0-.286 2.5-2.208 2.403v2.025h4.52V71.82s2.791-1.15 2.7-3.461c-.047-1.347-.308-2.678-.773-3.942-.972 1.028-2.261 1.7-3.661 1.906z"/>
                    <path fill="#ED701B" fill-rule="nonzero" d="M93.271 72.452c.448.189.373.47.394.896h.648V71.82s-1.08.351-2.7-.54c.494.468 1.053.862 1.658 1.172z"/>
                    <path fill="#F98D3D" fill-rule="nonzero" d="M94.2 62.64s-2.344-.934-2.619-.232c-.178.459.275.853.902 1.253l-.54.086c-.058.008-.106.05-.121.106-.015.057.005.117.05.153.462.196.964.277 1.464.238l.864-1.604z"/>
                    <path d="M80.257 88.058L83.4 98.183 83.341 97.67 83.4 98.183 84.458 83.441z"/>
                    <path fill="#43B02A" fill-rule="nonzero" d="M110.94 68.51c-4.471-3.31-16.68-5.94-16.68-5.94l-1.005 1.836s11.08 4.32 10.352 4.935c-.432.378-5.848 2.857-7.679 3.694-.397.178-.829.266-1.264.26l-5.61-.033c-2.775-.134-5.452 1.041-7.23 3.175-2.847 3.278-7.69 10.865-7.69 10.865l8.154 11.988.901 1.323v.113l.805.081c2.619.243 11.016.907 15.466-.038l.118-.027-.21-19.666c4.294-3.352 8.217-7.153 11.702-11.34.16-.174.237-.408.212-.643-.025-.234-.15-.447-.342-.583zM83.584 95.332l-.794-1.74-2.533-5.534 4.201-4.709-.756 10.33-.118 1.653z"/>
                    <path fill="#EFAA3A" fill-rule="nonzero" d="M82.79 93.593L83.584 95.332 83.2 100.575 83.189 100.591 82.288 99.268z"/>
                    <path fill="#87D675" fill-rule="nonzero" d="M82.795 66.884l-.858-1.544c1.434-2.701.54-6.051-2.048-7.68-2.589-1.628-5.995-.982-7.809 1.481-1.813 2.463-1.418 5.908.906 7.896 2.323 1.989 5.788 1.847 7.94-.325l1.87.172z"/>
                    <path fill="#FFF" fill-rule="nonzero" d="M73.761 62.1h.227v.81c0 .248.075.356.248.356s.232-.07.362-.226v-.94h.221v1.328h-.183v-.21c-.097.148-.26.238-.438.243-.28 0-.41-.184-.41-.54l-.027-.821zM75.764 63.531v.448h-.221V62.1h.184v.151c.116-.11.267-.174.426-.183.34 0 .54.264.54.675 0 .41-.27.718-.578.718-.136-.01-.265-.066-.367-.157l.016.227zm.324-.265c.222 0 .384-.2.384-.54s-.103-.486-.351-.486c-.137.012-.265.076-.357.179v.696c.088.086.202.14.324.151zM77.293 63.12c.108.098.248.154.394.157.173 0 .259-.092.259-.205 0-.113-.157-.194-.302-.254-.146-.06-.395-.156-.395-.378 0-.221.168-.378.454-.378.152 0 .3.054.416.151l-.108.14c-.084-.073-.191-.115-.303-.118-.167 0-.243.092-.243.194 0 .103.146.168.292.227.146.06.405.151.405.4 0 .248-.173.4-.486.4-.18-.004-.353-.07-.491-.184l.108-.151zM78.864 63.11c.07-.005.137.035.167.099s.018.14-.03.191c-.049.052-.124.069-.19.043-.065-.026-.109-.09-.109-.16-.001-.045.015-.088.045-.12.03-.033.073-.052.117-.053zM79.82 63.11c.07-.002.135.038.163.103.029.064.015.14-.034.19-.049.05-.123.066-.189.04-.065-.027-.108-.09-.108-.16-.001-.046.016-.09.047-.122.032-.033.075-.051.12-.051z"/>
                    <path fill="#6EDA55" fill-rule="nonzero" d="M60.477 136.885s-1.226-1.14-.405-5.47c.82-4.331 2.905-8.495 1.88-13.198-1.027-4.704-9.03-16.551-9.057-17.34-.027-.788-2.473 13.787 1.669 19.543 4.142 5.756 4.644 7.738 4.46 10.757-.183 3.018.044 5.454.497 6.156l.956-.448z"/>
                    <path fill="#6DBD40" fill-rule="nonzero" d="M59.716 128.174c-.481 1.934-.773 6.777 0 7.938.07.108.172.049.302-.156-.238-.8-.389-2.203.054-4.542.82-4.32 2.905-8.494 1.88-13.197-1.027-4.704-9.03-16.551-9.057-17.34 0 0 1.21 9.872 5.27 16.67 2.911 4.866 2.015 8.694 1.55 10.627z"/>
                    <path fill="#6EDA55" fill-rule="nonzero" d="M61.935 136.588s-2.354-5.876 1.62-10.962c3.974-5.087 10.363-11.621 10.492-14.208 0 0 1.62 12.285-3.553 15.763-5.173 3.477-8.813 4.039-7.916 9.385l-.643.022z"/>
                    <path fill="#6DBD40" fill-rule="nonzero" d="M67.54 124.74c-5.789 4.212-6.264 9.067-5.367 11.313.061.17.203.297.378.34-.778-5.162 2.835-5.75 7.96-9.18 5.124-3.429 3.552-15.762 3.552-15.762s-.74 9.045-6.523 13.289z"/>
                    <path fill="#6EDA55" fill-rule="nonzero" d="M58.063 136.717c.461-2.127.582-4.315.357-6.48-.4-3.337-3.91-5.238-7.188-8.786-1.69-1.825-2.187-11.475-1.145-12.371 0 0-5.783 7.02-4.892 12.15.891 5.13 10.336 8.473 11.205 10.951.52 1.467.79 3.012.8 4.569l.863-.033z"/>
                    <path fill="#6DBD40" fill-rule="nonzero" d="M48.133 111.84c-1.912 5.178.048 11.453 6.404 15.352 4.676 2.867 3.186 8.834 3.186 8.834l.767-2.354c.08-1.141.056-2.287-.07-3.424-.4-3.348-3.91-5.249-7.188-8.797-1.62-1.76-2.16-10.8-1.247-12.241-.662.844-1.28 1.722-1.852 2.63z"/>
                    <path fill="#49B4D6" fill-rule="nonzero" d="M49.985 109.21l.102-.13c-.039.039-.073.082-.102.13z"/>
                    <path fill="#6EDA55" fill-rule="nonzero" d="M63.145 136.328s1.355-5.032 4.714-5.707c3.359-.675 7.209-5.638 7.414-6.61.027 0-.567 9.369-12.128 12.317z"/>
                    <path fill="#6DBD40" fill-rule="nonzero" d="M67.664 132.3c-2.052 1.026-2.91 2.408-3.24 3.667 10.293-3.31 10.8-11.94 10.8-11.94-.127.354-.31.686-.54.983-.945 1.755-3.385 5.46-7.02 7.29z"/>
                    <path fill="#F6E552" fill-rule="nonzero" d="M70.408 134.46h-17.55l2.084 13.122c.157.996 1.016 1.73 2.025 1.728h9.331c1.009.002 1.868-.732 2.025-1.728l2.085-13.122z"/>
                    <path fill="#D1C646" fill-rule="nonzero" d="M70.062 136.647L70.408 134.476 52.858 134.476 53.203 136.647z"/>
                    <path fill="#FFAF2E" fill-rule="nonzero" d="M112.128 111.105H191.43200000000002V127.229H112.128z"/>
                    <path fill="#F98D2B" fill-rule="nonzero" opacity=".29" style="mix-blend-mode:multiply" d="M112.128 111.105H191.43200000000002V115.02000000000001H112.128z"/>
                    <path fill="#F77E2D" fill-rule="nonzero" d="M119.024 111.105L126.265 111.105 124.321 115.02 117.08 115.02zM135.332 111.105L142.568 111.105 140.629 115.02 133.393 115.02zM151.64 111.105L158.876 111.105 156.937 115.02 149.701 115.02zM167.948 111.105L175.184 111.105 173.24 115.02 166.009 115.02zM191.432 111.105L191.432 111.213 189.548 115.02 182.317 115.02 184.256 111.105z"/>
                    <path fill="#FE9822" fill-rule="nonzero" d="M121.999 127.229H127.588V149.277H121.999z"/>
                    <path fill="#B66D17" fill-rule="nonzero" d="M126.325 127.229H127.59400000000001V149.277H126.325z"/>
                    <path fill="#FE9822" fill-rule="nonzero" d="M176.41 127.229H181.999V149.277H176.41z"/>
                    <path fill="#B66D17" fill-rule="nonzero" d="M180.346 127.229H181.998V149.277H180.346zM121.999 127.213H127.588V129.989H121.999z"/>
                    <path fill="#B66D17" fill-rule="nonzero" d="M176.41 127.213H181.999V129.989H176.41z"/>
                    <path fill="#BC5500" fill-rule="nonzero" d="M121.999 108.583H127.588V111.089H121.999z"/>
                    <path fill="#BC5500" fill-rule="nonzero" d="M126.325 108.583H127.59400000000001V111.089H126.325zM176.41 108.583H181.999V111.089H176.41z"/>
                    <path fill="#BC5500" fill-rule="nonzero" d="M180.346 108.583H181.998V111.089H180.346z"/>
                    <path fill="#743502" fill-rule="nonzero" d="M121.999 110.776H127.588V111.776H121.999zM176.41 110.776H181.999V111.776H176.41z"/>
                    <path fill="#E0851C" fill-rule="nonzero" d="M126.265 111.105L118.262 127.229 112.128 127.229 112.128 125.005 119.024 111.105zM135.332 111.105L127.334 127.229 134.57 127.229 142.568 111.105zM158.876 111.105L150.878 127.229 143.642 127.229 151.64 111.105zM175.184 111.105L167.186 127.229 159.95 127.229 167.948 111.105zM184.256 111.105L176.258 127.229 183.494 127.229 191.432 111.213z"/>
                    <path fill="#B66D17" fill-rule="nonzero" d="M126.265 111.105L124.321 115.02 117.08 115.02 119.024 111.105zM142.568 111.105L140.629 115.02 133.393 115.02 135.332 111.105zM158.876 111.105L156.937 115.02 149.701 115.02 151.64 111.105zM175.184 111.105L173.24 115.02 166.009 115.02 167.948 111.105zM191.432 111.213L189.548 115.02 182.317 115.02 184.256 111.105z"/>
                    <circle cx="124.642" cy="105.094" r="4.984" fill="#FFAF2E" fill-rule="nonzero" transform="rotate(-9.24 124.642 105.094)"/>
                    <path fill="#B66D17" fill-rule="nonzero" d="M126.908 105.084c-.003-1.246-1.015-2.254-2.261-2.252-1.246.002-2.255 1.013-2.254 2.26.001 1.245 1.012 2.255 2.258 2.255.6 0 1.174-.239 1.598-.663.423-.425.66-1 .659-1.6z"/>
                    <circle cx="179.16" cy="105.099" r="4.984" fill="#FFAF2E" fill-rule="nonzero" transform="rotate(-9.24 179.16 105.099)"/>
                    <path fill="#B66D17" fill-rule="nonzero" d="M181.426 105.084c-.003-1.246-1.015-2.254-2.26-2.252-1.247.002-2.255 1.013-2.254 2.26 0 1.245 1.011 2.255 2.257 2.255.6 0 1.175-.239 1.598-.663.423-.425.66-1 .66-1.6z"/>
                    <path fill="#FFAF2E" fill-rule="nonzero" d="M221.483 147.566h-25.26l3.866-9.364 1.55-3.78.431-1.031.697-1.69.14-.34 1.556-3.78.286-.686 2.754-6.686c.224-.548.757-.907 1.35-.907.592 0 1.126.359 1.35.907l2.754 6.686.286.685 1.55 3.78.146.34.696 1.69.427 1.032 1.555 3.78 3.866 9.364z"/>
                    <path fill="#F98D2B" fill-rule="nonzero" opacity=".29" style="mix-blend-mode:multiply" d="M197.88 143.554L196.222 147.566 221.483 147.566 219.826 143.554z"/>
                    <path fill="#E0851C" fill-rule="nonzero" d="M194.203 145.168H223.131V149.256H194.203z"/>
                    <path fill="#B66D17" fill-rule="nonzero" d="M216.883 145.168H223.131V149.256H216.883z"/>
                    <path fill="#F98D2B" fill-rule="nonzero" d="M220.49 145.168h-3.575l-2.873-6.96-1.55-3.78-.432-1.037-.68-1.69-.14-.346-1.556-3.78-.302-.675-2.322-5.638.432-1.08c.224-.548.757-.907 1.35-.907.593 0 1.126.359 1.35.907l2.754 6.686.286.685 1.55 3.78.146.346.696 1.685.427 1.037 1.555 3.78 2.884 6.987z" opacity=".29" style="mix-blend-mode:multiply"/>
                    <path fill="#E0851C" fill-rule="nonzero" d="M214.793 131.355L202.907 131.355 204.463 127.575 213.243 127.575zM217.617 138.197L217.617 138.202 200.089 138.202 200.089 138.197 201.638 134.417 216.062 134.417z"/>
                    <path fill="#B66D17" fill-rule="nonzero" d="M214.793 131.355L211.223 131.355 209.668 127.575 213.243 127.575zM217.617 138.197L217.617 138.202 214.042 138.202 214.042 138.197 212.492 134.417 216.062 134.417z"/>
                    <path fill="#C6E6BC" fill-rule="nonzero" d="M32.482 53.733c1.894.02 3.51-1.365 3.78-3.24.048-.34.072-.682.07-1.026 0-4.175-3.384-7.56-7.56-7.56h-.507c-.384-4.258-4.045-7.464-8.316-7.282-4.272.182-7.648 3.687-7.668 7.963v.583c-2.389-1.329-5.29-1.348-7.696-.05C2.179 44.42.602 46.855.401 49.581v.097c-.053 1.048.326 2.072 1.05 2.832.725.76 1.73 1.188 2.779 1.186l28.252.037zM240.373 61.652c5.94 0 6.29-8.97.34-9.261h-.492c-1.034-.002-2.062.16-3.045.48-.827-4.997-5.187-8.636-10.252-8.556-5.064.08-9.308 3.854-9.977 8.875-2.005-.952-4.28-1.172-6.431-.621-5.211 1.34-4.115 9.094 1.264 9.094l28.593-.011zM168.796 17.453c5.94 0 6.285-8.964.334-9.256h-.491c-1.034 0-2.061.16-3.046.475-.82-5.002-5.182-8.648-10.251-8.567-5.069.081-9.312 3.865-9.972 8.891-1.268-.61-2.658-.925-4.066-.923-.796 0-1.589.099-2.36.297-5.21 1.345-4.114 9.094 1.264 9.094l28.588-.011z"/>
                    <circle cx="73.923" cy="19.742" r="14.283" fill="#F6E552" fill-rule="nonzero"/>
                </g>
            </g>
        </g>
    </g>
</svg>
