<svg xmlns="http://www.w3.org/2000/svg" width="19" height="14" viewBox="0 0 19 14">
    <g fill="none" fill-rule="evenodd">
        <g>
            <g>
                <path stroke="#43B02A" stroke-width="1.7" d="M14.425 10.885l3.191 2.037-.046.042c-.156.118-.342.178-.528.178s-.372-.06-.527-.178l-.09-.078-2-2.001z" transform="translate(-166 -1045) translate(166 1045)"/>
                <path fill="#43B02A" fill-rule="nonzero" d="M.55 6.595h2.344c.303 0 .55-.246.55-.55 0-.303-.247-.55-.55-.55H.55c-.304 0-.55.247-.55.55 0 .304.246.55.55.55zM.55 8.94h3.223c.304 0 .55-.246.55-.55 0-.303-.246-.549-.55-.549H.55c-.304 0-.55.246-.55.55 0 .303.246.55.55.55zM.55 11.286h5.567c.304 0 .55-.246.55-.55 0-.303-.246-.55-.55-.55H.55c-.304 0-.55.247-.55.55 0 .304.246.55.55.55zM12.564 12.532H.55c-.304 0-.55.246-.55.55 0 .303.246.55.55.55h12.014c.303 0 .55-.247.55-.55 0-.304-.247-.55-.55-.55z" transform="translate(-166 -1045) translate(166 1045)"/>
            </g>
        </g>
    </g>
</svg>
