<svg xmlns="http://www.w3.org/2000/svg" width="19" height="14" viewBox="0 0 19 14">
    <g fill="none" fill-rule="evenodd">
        <g fill="#000" fill-rule="nonzero">
            <g>
                <path d="M18.26 11.05l-4.196-4.197c.787-1.787.45-3.955-1.012-5.417-1.904-1.905-4.987-1.905-6.892 0-1.9 1.9-1.9 4.993 0 6.894 1.51 1.51 3.723 1.797 5.49.98l4.174 4.177c.673.673 1.763.673 2.436 0 .671-.672.671-1.765 0-2.436zM6.938 7.553c-1.472-1.472-1.472-3.866 0-5.338 1.475-1.475 3.862-1.476 5.337 0 1.471 1.472 1.471 3.866 0 5.338-1.475 1.475-3.862 1.476-5.337 0zm10.545 5.157c-.244.244-.638.244-.881 0l-3.989-3.99c.328-.257.62-.554.874-.887l3.995 3.996c.243.243.243.638 0 .881zM.55 6.595h2.344c.303 0 .55-.246.55-.55 0-.303-.247-.55-.55-.55H.55c-.304 0-.55.247-.55.55 0 .304.246.55.55.55zM.55 8.94h3.223c.304 0 .55-.246.55-.55 0-.303-.246-.549-.55-.549H.55c-.304 0-.55.246-.55.55 0 .303.246.55.55.55zM.55 11.286h5.567c.304 0 .55-.246.55-.55 0-.303-.246-.55-.55-.55H.55c-.304 0-.55.247-.55.55 0 .304.246.55.55.55zM12.564 12.532H.55c-.304 0-.55.246-.55.55 0 .303.246.55.55.55h12.014c.303 0 .55-.247.55-.55 0-.304-.247-.55-.55-.55z" transform="translate(-166 -808) translate(166 808)"/>
            </g>
        </g>
    </g>
</svg>
