<svg xmlns="http://www.w3.org/2000/svg" width="16" height="16" viewBox="0 0 16 16">
    <g fill="none" fill-rule="evenodd">
        <g fill="#43B02A">
            <g>
                <path d="M8 4C5.76 4 4 5.76 4 8s1.76 4 4 4 4-1.76 4-4-1.76-4-4-4zm0-4C3.6 0 0 3.6 0 8s3.6 8 8 8 8-3.6 8-8-3.6-8-8-8zm0 14.4c-3.52 0-6.4-2.88-6.4-6.4 0-3.52 2.88-6.4 6.4-6.4 3.52 0 6.4 2.88 6.4 6.4 0 3.52-2.88 6.4-6.4 6.4z" transform="translate(-124 -104) translate(124 104)"/>
            </g>
        </g>
    </g>
</svg>
