<svg xmlns="http://www.w3.org/2000/svg" width="56" height="37" viewBox="0 0 56 37">
    <g fill="none" fill-rule="evenodd">
        <g fill-rule="nonzero">
            <g transform="translate(-35 -141) translate(35 141)">
                <path fill="#66B647" d="M14.813 32.2c-.166 1.316-.778 2.521-1.431 3.682l-.067.118H6.526c-.137-.036-.272-.075-.407-.118-.767-.236-1.49-.595-2.144-1.065-2.497-1.816-3.458-5.25-3.024-8.325.27-1.911 1.1-3.863 2.718-4.892.854-.544 1.951-.721 2.935-.519l.077.016c.846.192 1.6.67 2.029 1.44.77 1.383.312 3.097-.068 4.636-.378 1.54-.583 3.382.515 4.518-.363-1.077-.005-2.36.86-3.089.654-.549 1.564-.755 2.394-.584.08.017.158.036.235.06.186.055.366.13.536.226 1.294.73 1.818 2.41 1.631 3.895z"/>
                <path fill="#FFF" d="M10.26 35.881c.196.045.392.084.59.119H9.782c-.14-.037-.28-.076-.417-.119-.304-.092-.602-.198-.896-.318-1.18-.483-2.266-1.207-3.088-2.171-.402-.468-.73-.99-.974-1.552-.265-.635-.433-1.304-.499-1.986-.149-1.4.003-2.838.287-4.212.293-1.425.766-2.808 1.408-4.12.077-.157.157-.313.24-.468.011-.026.034-.045.062-.052.028-.005.057 0 .081.016.06.033.082.105.05.165-.661 1.259-1.163 2.592-1.494 3.97-.323 1.345-.507 2.751-.444 4.133.06 1.292.405 2.562 1.19 3.618.717.964 1.707 1.724 2.802 2.242.693.324 1.42.57 2.17.735zM12.85 36h-.325l-.106-.118c-.74-.848-1.241-1.857-1.458-2.936-.262-1.346-.058-2.736.583-3.964.179-.344.39-.673.63-.982.085.017.17.037.252.06-.632.79-1.057 1.708-1.24 2.68-.331 1.847.239 3.736 1.552 5.142.036.04.074.079.112.118z"/>
                <path fill="#D9EBFD" d="M30.15 20.7H20.8l-.1-2.747c-.008-.24.094-.473.28-.636.186-.163.437-.24.688-.21l5.441.636c1.68.004 3.04 1.306 3.041 2.91v.047z"/>
                <path fill="#F48221" d="M25.868 10.35h-6.736c-.18 0-.354.072-.482.2s-.2.301-.2.482v6.736c0 .18.072.354.2.482s.301.2.482.2h6.736c.18 0 .354-.072.482-.2s.2-.301.2-.482v-6.736c0-.18-.072-.354-.2-.482s-.301-.2-.482-.2z"/>
                <path fill="#3F3D56" d="M24.605 15.6l-3.23.587c-.399.072-.785-.17-.863-.542l-.248-1.19c-.078-.372.183-.733.581-.805l3.23-.587c.399-.072.785.17.863.542l.248 1.19c.078.372-.183.733-.581.805z"/>
                <path fill="#FFF" d="M24.165 14.324l-2.367.522c-.09.02-.177-.046-.195-.149-.017-.102.041-.2.132-.22l2.367-.523c.09-.02.177.046.195.149.017.102-.041.2-.132.22zM23.283 15.11l-1.061.188c-.078.013-.154-.033-.17-.104-.015-.071.036-.14.115-.154l1.061-.188c.05-.009.103.008.137.043.033.035.044.084.027.129-.017.044-.058.077-.109.086zM26.55 11.384v.766h-8.1v-.766c0-.155.072-.304.2-.413.128-.11.301-.171.482-.171h6.736c.18 0 .354.061.482.17.128.11.2.259.2.414z"/>
                <path fill="#FFB8B8" d="M42.7 12.53c-.096-.307-.32-.556-.616-.68-.294-.124-.629-.11-.913.037L31.908 8.55l-.408 2.323 9.233 2.55c.285.473.877.658 1.378.43.502-.228.754-.797.588-1.323z"/>
                <path fill="#000" d="M42.7 12.53c-.096-.307-.32-.556-.616-.68-.294-.124-.629-.11-.913.037L31.908 8.55l-.408 2.323 9.233 2.55c.285.473.877.658 1.378.43.502-.228.754-.797.588-1.323z" opacity=".2"/>
                <path fill="#A4CDF5" d="M33.719 9.277l-.86 2.133c-.05.122-.153.219-.283.263-.13.045-.274.033-.395-.031l-2.088-1.116c-.68-.252-1.016-.977-.754-1.622.263-.646 1.025-.968 1.706-.72l2.332.49c.135.03.25.112.316.228s.075.253.026.375z"/>
                <path fill="#D9EBFD" d="M43.29 14.4l-3.24 1.472.425 1.6c.822 3.09 1.04 6.31.642 9.484l2.37.494 1.963-5.004-.687-5.691L43.29 14.4z"/>
                <path fill="#3F3D56" d="M49.725 22.05c-2.063 0-3.743 1.598-3.825 3.6h7.65c-.082-2.002-1.762-3.6-3.825-3.6z"/>
                <path fill="#403D56" d="M48.134 22.309c-.11-8.689-5.089-7.89-5.089-7.89s.093 2.705.138 2.789c3.172 5.966-2.063 12.96-8.727 11.673-.126-.024-.246-.048-.362-.073-1.753-.364-2.92-2.019-2.665-3.78.657-5.24-2.608-5.148-2.608-5.148h-4.775l-2.479-2.218c-.178-.159-.423-.22-.655-.163-.232.057-.42.225-.503.448l-.32.86s-4.708.488-4.316 5.071h1.456c-.003.13.002.26.016.39l10.864-.087c.637-.006 1.2.507 1.202 1.14.001.312-.125.61-.35.827-.224.217-.528.334-.841.324l-1.752-.058c-.54 2.389.785 3.998 2.244 5.01 1.374.938 3.004 1.436 4.671 1.426h4.759c6.18 0 7.26-5.169 7.26-5.169 3.237-1.365 2.832-5.372 2.832-5.372z"/>
                <circle cx="49.725" cy="30.375" r="5.625" fill="#2F2E41"/>
                <circle cx="49.5" cy="30.15" r="1.35" fill="#FFF"/>
                <circle cx="21.15" cy="29.25" r="6.3" fill="#2F2E41"/>
                <circle cx="21.375" cy="29.475" r="1.575" fill="#FFF"/>
                <path fill="#3F3D56" d="M39.992 16.2l-1.207-3.186c-.127-.335-.111-.706.043-1.03.154-.325.434-.576.78-.7l3.46-1.238c.607-.217 1.278-.191 1.865.072.587.264 1.043.744 1.266 1.334.1.262.151.54.151.819-.003.719-.338 1.398-.914 1.85-.205.16-.436.287-.683.375l-4.76 1.704z"/>
                <path fill="#D9EBFD" d="M46.35 12.625c0 .69-.328 1.343-.89 1.775-.862-.218-1.58-.787-1.964-1.557-.384-.77-.395-1.663-.029-2.441.703-.146 1.437.02 1.997.451.56.432.886 1.083.886 1.772z"/>
                <ellipse cx="16.65" cy="23.175" fill="#D9EBFD" rx="1.35" ry="1.575"/>
                <path fill="#FFB8B8" d="M34.65 28.8L35.87 28.8 36.45 25.65 34.65 25.65z"/>
                <path fill="#2F2E41" d="M34.2 28.35h2.474c.418 0 .819.138 1.114.383.296.245.462.578.462.924v.043H34.2v-1.35zM36.14 27.45c-.015 0-.029 0-.043-.002l-1.688-.12c-.138-.013-.263-.087-.337-.202-.074-.115-.09-.256-.042-.384l2.259-4.957c.033-.09.025-.188-.02-.272-.045-.085-.125-.147-.22-.171-1.062-.271-3.787-.994-6.146-1.838-1.01-.363-1.647-.886-1.891-1.555-.323-.883.154-1.689.175-1.723l.016-.026 2.22.197 2.406.2 5.273 2.762c.916.485 1.298 1.575.877 2.506l-2.43 5.326c-.073.157-.233.259-.41.259z"/>
                <circle cx="30.825" cy="3.825" r="2.475" fill="#FFB8B8"/>
                <path fill="#FFB8B8" d="M33.75 29.25L34.97 29.25 35.55 26.1 33.75 26.1z"/>
                <path fill="#2F2E41" d="M33.3 28.8h2.474c.418 0 .819.138 1.114.383.296.245.462.578.462.924v.043H33.3V28.8zM35.24 27.45c-.015 0-.029 0-.043-.002l-1.688-.12c-.138-.013-.263-.087-.337-.202-.074-.115-.09-.256-.042-.384l2.259-4.957c.033-.09.025-.188-.02-.272-.045-.085-.125-.147-.22-.171-1.062-.271-3.787-.994-6.146-1.838-1.01-.363-1.647-.886-1.891-1.555-.323-.883.154-1.689.175-1.723l.016-.026 2.22.197 2.406.2 5.273 2.762c.916.485 1.298 1.575.877 2.506l-2.43 5.326c-.073.157-.233.259-.41.259z"/>
                <path fill="#D9EBFD" d="M31.355 8.072L28.848 7.2s-1.574 1.215-.818 4.23c.395 1.555.28 3.196-.327 4.681-.074.184-.158.363-.253.536 0 0 2.796 3.391 5.4.872l-1.013-4.893s1.592-3.246-.482-4.554z"/>
                <path fill="#2F2E41" d="M31.042 6.724c-.36-.54-.643-1.29-.247-1.803.39-.508 1.162-.433 1.76-.658.835-.312 1.318-1.295 1.168-2.176-.151-.88-.856-1.61-1.695-1.909-.839-.299-1.785-.202-2.607.142-1.012.424-1.88 1.243-2.243 2.28-.364 1.038-.17 2.283.585 3.08.81.855 2.08 1.083 3.255 1.07"/>
                <path fill="#2F2E41" d="M28.471 2.181c-.44.344-1.113.191-1.587-.11-.473-.301-.857-.73-1.37-.967-.902-.416-1.993-.14-2.872.322-.879.461-1.658 1.099-2.586 1.46-.928.363-2.112.38-2.815-.303-.354.982-.027 2.07.82 2.722.845.652 2.027.726 2.955.185 1.017-.592 1.578-1.834 2.719-2.161.631-.181 1.309-.035 1.947.122.638.158 1.303.329 1.947.195.643-.135 1.245-.688 1.164-1.313l-.322-.152z"/>
                <path fill="#FFB8B8" d="M42.652 12.444c-.13-.285-.38-.498-.683-.582-.304-.085-.63-.031-.889.145L31.618 9.9l-.118 2.295 9.338 1.35c.336.423.937.53 1.4.249.463-.28.64-.86.414-1.35z"/>
                <path fill="#A4CDF5" d="M33.286 9.865l-.582 2.368c-.034.136-.125.251-.25.315-.125.063-.27.07-.4.016l-2.243-.922c-.715-.18-1.15-.908-.97-1.626.178-.717.902-1.154 1.618-.976l2.405.228c.14.014.266.087.347.202.081.114.109.259.075.395z"/>
                <circle cx="41.175" cy="13.275" r="1" fill="#D9EBFD"/>
                <path fill="#A4CDF5" d="M55.8 35.8c0 .138-.029.25-.064.25H2.864c-.035 0-.064-.112-.064-.25s.029-.25.064-.25h52.872c.035 0 .064.112.064.25z"/>
            </g>
        </g>
    </g>
</svg>
