<svg xmlns="http://www.w3.org/2000/svg" width="14" height="14" viewBox="0 0 14 14">
    <g fill="none" fill-rule="evenodd">
        <g fill="#9E9E9E">
            <path d="M271.29 47.11c.392-.392.4-1.02.002-1.418l.016.016c-.39-.39-1.025-.39-1.417.001L265 50.6l-4.89-4.89c-.392-.392-1.02-.4-1.418-.002l.016-.016c-.39.39-.39 1.025.001 1.417L263.6 52l-4.89 4.89c-.392.392-.4 1.02-.002 1.418l-.016-.016c.39.39 1.025.39 1.417-.001L265 53.4l4.89 4.89c.392.392 1.02.4 1.418.002l-.016.016c.39-.39.39-1.025-.001-1.417L266.4 52l4.89-4.89z" transform="translate(-258 -45)"/>
        </g>
    </g>
</svg>
