<svg xmlns="http://www.w3.org/2000/svg" width="13" height="14" viewBox="0 0 13 14">
    <g fill="none" fill-rule="evenodd">
        <g fill="#43B02A" fill-rule="nonzero">
            <g>
                <g>
                    <path d="M10.108 1.734C8.99.616 7.503 0 5.921 0 4.34 0 2.853.616 1.734 1.734.616 2.853 0 4.34 0 5.921c0 3.2 3.025 5.861 4.65 7.29.226.2.421.371.577.516.195.182.444.273.694.273.25 0 .5-.091.695-.273.155-.145.35-.317.576-.515 1.625-1.43 4.65-4.091 4.65-7.29 0-1.582-.615-3.07-1.734-4.188zM5.921 8.307c-1.439 0-2.61-1.17-2.61-2.61 0-1.438 1.171-2.609 2.61-2.609 1.44 0 2.61 1.17 2.61 2.61 0 1.438-1.17 2.609-2.61 2.609z" transform="translate(-20 -271) translate(20 268) translate(0 3)"/>
                </g>
            </g>
        </g>
    </g>
</svg>
