<?xml version="1.0" encoding="UTF-8"?>
<svg width="44px" height="41px" viewBox="0 0 44 41" version="1.1" xmlns="http://www.w3.org/2000/svg" xmlns:xlink="http://www.w3.org/1999/xlink">
    <title>Group 14</title>
    <defs>
        <polygon id="path-1" points="0 0.0541966764 43.1412058 0.0541966764 43.1412058 36.4212262 0 36.4212262"></polygon>
        <path d="M4.98442953,0.113578595 C4.93275168,0.315451505 4.90510067,0.526555184 4.90510067,0.743277592 C4.90510067,0.844147157 4.91060403,0.943277592 4.92362416,1.04053512 C4.99181208,1.62073579 5.25879195,2.14033445 5.6547651,2.53123746 C5.87771812,2.74795987 6.13932886,2.92602007 6.43033557,3.05083612 L5.6547651,3.49698997 L2.85691275,5.10688963 L1.70751678,5.7677592 L0.0700671141,2.94073579 L1.27838926,2.24494983 L4.14818792,0.59451505" id="path-3"></path>
        <linearGradient x1="225.395771%" y1="85.4359842%" x2="-3.83273995%" y2="38.7230498%" id="linearGradient-5">
            <stop stop-color="#90EBFF" offset="0%"></stop>
            <stop stop-color="#9CD1BA" offset="100%"></stop>
        </linearGradient>
        <path d="M0.0171812081,0.123210702 C0.240134228,0.33993311 0.501744966,0.517993311 0.792751678,0.642809365 C1.09852349,0.773110368 1.43369128,0.844682274 1.78550336,0.844682274 C2.01771812,0.844682274 2.24228188,0.813511706 2.45422819,0.754782609 C2.76187919,0.670367893 3.04550336,0.53083612 3.29234899,0.34541806 L3.29234899,5.78113712 L0.0171812081,5.78113712" id="path-6"></path>
        <linearGradient x1="119.131801%" y1="79.3401594%" x2="-30.031633%" y2="20.2710519%" id="linearGradient-8">
            <stop stop-color="#90EBFF" offset="0%"></stop>
            <stop stop-color="#9CD1BA" offset="100%"></stop>
        </linearGradient>
        <path d="M0.800402685,4.18448161 C2.96214765,7.8212709 4.72040268,7.29953177 4.72040268,7.29953177 L4.72040268,7.29953177 L0.435167785,0.0904347826 C0.435167785,0.0904347826 -0.548993289,1.91438127 0.800402685,4.18448161" id="path-9"></path>
        <path d="M0.110201342,2.03103679 C0.110201342,2.03103679 1.56697987,3.50782609 4.14214765,2.8948495 L4.14214765,2.8948495 C8.26751678,1.9129097 8.28751678,0.0846822742 8.28751678,0.0846822742 L8.28751678,0.0846822742 L0.110201342,2.03103679 Z" id="path-11"></path>
        <path d="M0.0828187919,4.59371237 C-0.0155704698,9.85351171 2.18832215,10.4472241 2.18832215,10.4472241 L2.18832215,10.4472241 L2.38362416,0.0211371237 C2.38362416,0.0211371237 0.144295302,1.31036789 0.0828187919,4.59371237" id="path-13"></path>
        <linearGradient x1="52.2353383%" y1="49.9995151%" x2="47.5414074%" y2="49.6035578%" id="linearGradient-15">
            <stop stop-color="#79BFD3" offset="0%"></stop>
            <stop stop-color="#B3D8E2" offset="100%"></stop>
        </linearGradient>
        <path d="M0.401342282,5.28026756 C2.04872483,10.3719064 4.3652349,10.2177926 4.3652349,10.2177926 L4.3652349,10.2177926 L1.09973154,0.125217391 C1.09973154,0.125217391 -0.627114094,2.1019398 0.401342282,5.28026756" id="path-16"></path>
        <path d="M2.6190604,0.0342474916 C1.23302013,0.0342474916 0.0991946309,1.16441472 0.0991946309,2.54568562 L0.0991946309,2.54568562 L0.0991946309,28.4474916 C0.0991946309,29.8287625 1.23302013,30.9589298 2.6190604,30.9589298 L2.6190604,30.9589298 L17.1507383,30.9589298 C18.5367785,30.9589298 19.6707383,29.8287625 19.6707383,28.4474916 L19.6707383,28.4474916 L19.6707383,2.54568562 C19.6707383,1.16441472 18.5367785,0.0342474916 17.1507383,0.0342474916 L17.1507383,0.0342474916 L2.6190604,0.0342474916 Z" id="path-18"></path>
        <path d="M0.503892617,26.7950502 C0.22590604,26.7950502 -3.96127575e-13,26.5705686 -3.96127575e-13,26.2949833 L-3.96127575e-13,0.500200669 C-3.96127575e-13,0.224347826 0.22590604,-1.95399252e-14 0.503892617,-1.95399252e-14 L15.0355705,-1.95399252e-14 C15.3136913,-1.95399252e-14 15.5395973,0.224347826 15.5395973,0.500200669 L15.5395973,26.2949833 C15.5395973,26.5705686 15.3136913,26.7950502 15.0355705,26.7950502 L0.503892617,26.7950502 Z" id="path-20"></path>
        <polygon id="path-22" points="0 0.0679227273 9.96836111 0.0679227273 9.96836111 9 0 9"></polygon>
        <polygon id="path-24" points="0 0.120246 9.96840278 0.120246 9.96840278 6.999986 0 6.999986"></polygon>
    </defs>
    <g id="final-with-copy-changed" stroke="none" stroke-width="1" fill="none" fill-rule="evenodd">
        <g id="4.6-my-shop-customer-support" transform="translate(-300.000000, -81.000000)">
            <g id="Group-14" transform="translate(300.000000, 81.000000)">
                <g id="Group-206">
                    <g id="Group-17" transform="translate(0.000000, 2.052977)">
                        <g id="Group-3" transform="translate(0.000000, 0.210702)">
                            <mask id="mask-2" fill="white">
                                <use xlink:href="#path-1"></use>
                            </mask>
                            <g id="Clip-2"></g>
                            <path d="M22.7783356,36.1748896 C27.8367248,35.0757592 32.5492081,32.2986355 36.1301477,28.5954916 C39.8608859,24.7371639 42.0296107,20.0991706 42.890953,14.7881338 C43.4380671,11.4146221 43.1502819,7.79361873 41.4054497,4.85167893 C40.0783356,2.6138194 37.9108188,0.998167224 35.3890738,0.360307692 C32.3267919,-0.414274247 30.8798121,0.382916388 28.0322953,1.6138194 C22.8824966,3.8396388 17.1543087,4.34840134 11.5412886,4.37167893 C9.66518121,4.37930435 7.76934228,4.33810033 5.93618792,4.7363612 C4.10316779,5.13475585 2.30343624,6.02973913 1.22034899,7.55642809 C-0.14461745,9.48030769 -0.154684564,12.0424482 0.188,14.3738194 C1.01967785,20.0324147 3.74303356,25.3525485 7.68222819,29.4902074 C11.5712215,33.575291 16.921557,37.447398 22.7783356,36.1748896" id="Fill-1" fill="#C6E4FF" mask="url(#mask-2)"></path>
                        </g>
                        <g id="Group-12" transform="translate(19.463087, 7.301003)">
                            <g id="Group-8">
                                <mask id="mask-4" fill="white">
                                    <use xlink:href="#path-3"></use>
                                </mask>
                                <g id="Clip-7"></g>
                                <path d="M6.43033557,3.05083612 L5.6547651,3.49698997 L2.85691275,5.10688963 L1.70751678,5.7677592 L0.0700671141,2.94073579 L1.27838926,2.24494983 L4.14818792,0.59451505 L4.98442953,0.113578595 C4.93275168,0.315451505 4.90510067,0.526555184 4.90510067,0.743277592 C4.90510067,0.844147157 4.91060403,0.943277592 4.92362416,1.04053512 C4.99181208,1.62073579 5.25879195,2.14033445 5.6547651,2.53123746 C5.87771812,2.74795987 6.13932886,2.92602007 6.43033557,3.05083612" id="Fill-6" fill="url(#linearGradient-5)" mask="url(#mask-4)"></path>
                            </g>
                            <g id="Group-11" transform="translate(5.637584, 2.408027)">
                                <mask id="mask-7" fill="white">
                                    <use xlink:href="#path-6"></use>
                                </mask>
                                <g id="Clip-10"></g>
                                <path d="M3.29234899,0.34541806 L3.29234899,5.78113712 L0.0171812081,5.78113712 L0.0171812081,0.123210702 C0.240134228,0.33993311 0.501744966,0.517993311 0.792751678,0.642809365 C1.09852349,0.773110368 1.43369128,0.844682274 1.78550336,0.844682274 C2.01771812,0.844682274 2.24228188,0.813511706 2.45422819,0.754782609 C2.76187919,0.670367893 3.04550336,0.53083612 3.29234899,0.34541806" id="Fill-9" fill="url(#linearGradient-8)" mask="url(#mask-7)"></path>
                            </g>
                        </g>
                        <path d="M15.2843624,32.0397191 C15.29,31.9532977 15.2988591,31.8675452 15.3074497,31.7815251 C12.7203356,29.713699 11.4353691,27.4637993 11.4144295,27.4262074 L11.2234228,27.5321605 C11.2447651,27.570689 12.5850336,29.9179799 15.2843624,32.0397191" id="Fill-13" fill="#FFE386"></path>
                        <path d="M7.01242953,20.2342207 C7.01242953,20.2342207 9.09028188,20.2501405 10.4398121,22.5203746 C12.601557,26.1571639 11.2975302,27.4433177 11.2975302,27.4433177 L7.01242953,20.2342207 Z" id="Fill-15" fill="#58A33C"></path>
                    </g>
                    <g id="Group-20" transform="translate(6.577181, 22.196789)">
                        <mask id="mask-10" fill="white">
                            <use xlink:href="#path-9"></use>
                        </mask>
                        <g id="Clip-19"></g>
                        <path d="M0.800402685,4.18448161 C2.96214765,7.8212709 4.72040268,7.29953177 4.72040268,7.29953177 L4.72040268,7.29953177 L0.435167785,0.0904347826 C0.435167785,0.0904347826 -0.548993289,1.91438127 0.800402685,4.18448161" id="Fill-18" fill="#59BF42" mask="url(#mask-10)"></path>
                    </g>
                    <g id="Group-29" transform="translate(5.234899, 22.196789)">
                        <path d="M6.08404027,7.33539799 C6.10390604,7.32362542 6.11061745,7.29807358 6.09880537,7.27814047 L1.8137047,0.0691772575 C1.80189262,0.0492441472 1.77612081,0.0426889632 1.75612081,0.0544615385 C1.73625503,0.0662341137 1.72967785,0.0919197324 1.74148993,0.111719064 L6.0265906,7.32081605 C6.03840268,7.34061538 6.0641745,7.34717057 6.08404027,7.33539799" id="Fill-21" fill="#F4FBFB"></path>
                        <path d="M4.98052349,5.47894314 C4.98347651,5.47707023 4.98642953,5.47479599 4.98911409,5.4721204 C5.0053557,5.45566555 5.00508725,5.42917726 4.98857718,5.41312375 C4.9262953,5.35252174 3.45448322,3.92977926 2.37179866,4.00576589 C2.34884564,4.00750502 2.33126174,4.02730435 2.33300671,4.05044816 C2.33461745,4.07359197 2.35461745,4.0908495 2.37783893,4.08924415 C3.42307383,4.01566555 4.91488591,5.45834114 4.92978523,5.4727893 C4.94374497,5.486301 4.96455034,5.48830769 4.98052349,5.47894314" id="Fill-23" fill="#F4FBFB"></path>
                        <path d="M3.69519463,3.31653512 C3.7098255,3.30797324 3.71828188,3.29098328 3.7150604,3.27319064 C3.71251007,3.25941137 3.47438926,1.89526421 4.16485906,1.4876388 C4.18472483,1.47586622 4.19130201,1.4501806 4.17948993,1.43024749 C4.16767785,1.41044816 4.14204027,1.40389298 4.12204027,1.41566555 C3.38163758,1.85298997 3.62190604,3.22971237 3.63251007,3.28804013 C3.63667114,3.31078261 3.65855034,3.32576589 3.6812349,3.32175251 C3.68633557,3.32081605 3.69103356,3.31907692 3.69519463,3.31653512" id="Fill-25" fill="#F4FBFB"></path>
                        <path d="M0.110228188,12.4657793 C0.110228188,12.4657793 0.740295302,10.4924013 3.31546309,9.87942475 C7.44069799,8.89748495 8.2874094,10.5194247 8.2874094,10.5194247 L0.110228188,12.4657793 Z" id="Fill-27" fill="#76C955"></path>
                    </g>
                    <g id="Group-32" transform="translate(5.234899, 32.631572)">
                        <mask id="mask-12" fill="white">
                            <use xlink:href="#path-11"></use>
                        </mask>
                        <g id="Clip-31"></g>
                        <path d="M0.110201342,2.03103679 C0.110201342,2.03103679 1.56697987,3.50782609 4.14214765,2.8948495 L4.14214765,2.8948495 C8.26751678,1.9129097 8.28751678,0.0846822742 8.28751678,0.0846822742 L8.28751678,0.0846822742 L0.110201342,2.03103679 Z" id="Fill-30" fill="#58A33C" mask="url(#mask-12)"></path>
                    </g>
                    <g id="Group-43" transform="translate(5.234899, 8.149967)">
                        <path d="M8.32822819,24.556602 C8.32285906,24.5341271 8.30030872,24.5203478 8.27775839,24.525699 L0.100442953,26.4719197 C0.0778926174,26.4772709 0.0640671141,26.4998796 0.0694362416,26.5223545 C0.0748053691,26.5448294 0.0974899329,26.5587425 0.120040268,26.5532575 L8.29722148,24.606903 C8.31977181,24.6015518 8.33373154,24.5790769 8.32822819,24.556602" id="Fill-33" fill="#F4FBFB"></path>
                        <path d="M6.22238926,25.0577525 C6.22158389,25.054408 6.22024161,25.0509298 6.21849664,25.0475853 C6.20748993,25.0272508 6.18198658,25.0197592 6.16171812,25.0307291 C6.08520805,25.0719331 4.28614765,26.0522676 4.03863087,27.1055117 C4.03339597,27.1278528 4.0473557,27.1504615 4.07004027,27.1556789 C4.0925906,27.1608963 4.11514094,27.1468495 4.12037584,27.1243746 C4.35930201,26.1076522 6.18319463,25.1142074 6.20158389,25.1043077 C6.21863087,25.0949431 6.22668456,25.0758127 6.22238926,25.0577525" id="Fill-35" fill="#F4FBFB"></path>
                        <path d="M3.76965101,25.6416054 C3.76575839,25.6251505 3.75179866,25.6120401 3.73394631,25.6098997 C3.71998658,25.6081605 2.34213423,25.4311706 2.15569128,24.6532441 C2.15032215,24.6307692 2.12777181,24.61699 2.10522148,24.6223411 C2.08267114,24.6278261 2.06871141,24.650301 2.07408054,24.6727759 C2.27408054,25.5070234 3.66468456,25.6856187 3.72387919,25.6928428 C3.74683221,25.6955184 3.76763758,25.6791973 3.77045638,25.6563211 C3.77112752,25.6512375 3.77072483,25.6462876 3.76965101,25.6416054" id="Fill-37" fill="#F4FBFB"></path>
                        <path d="M17.6108188,14.143505 C10.166255,10.3427023 7.83779866,2.68022742 7.81404027,2.59902341 C7.79712752,2.54123077 7.73578523,2.50778595 7.67833557,2.52504348 C7.62048322,2.54189967 7.5870604,2.60250167 7.60410738,2.66016054 C7.62813423,2.74216722 9.97497987,10.473806 17.4841074,14.3235719 C17.5258523,14.2633712 17.5678658,14.202903 17.6108188,14.143505" id="Fill-39" fill="#B3D8E3"></path>
                        <path d="M12.9876107,0.0211103679 C12.9876107,0.0211103679 15.1770067,1.39274916 15.1155302,4.67609365 C15.0171409,9.93589298 12.792443,10.4471973 12.792443,10.4471973 L12.9876107,0.0211103679 Z" id="Fill-41" fill="#B3D8E3"></path>
                    </g>
                    <g id="Group-46" transform="translate(15.838926, 8.149967)">
                        <mask id="mask-14" fill="white">
                            <use xlink:href="#path-13"></use>
                        </mask>
                        <g id="Clip-45"></g>
                        <path d="M0.0828187919,4.59371237 C-0.0155704698,9.85351171 2.18832215,10.4472241 2.18832215,10.4472241 L2.18832215,10.4472241 L2.38362416,0.0211371237 C2.38362416,0.0211371237 0.144295302,1.31036789 0.0828187919,4.59371237" id="Fill-44" fill="url(#linearGradient-15)" mask="url(#mask-14)"></path>
                    </g>
                    <g id="Group-63" transform="translate(9.161074, 0.658328)">
                        <path d="M8.86527517,17.9908453 C8.89413423,17.9913712 8.91789262,17.968495 8.91842953,17.9397324 L9.11359732,7.51377926 C9.11413423,7.48501672 9.09131544,7.46133779 9.06232215,7.46079342 C9.03346309,7.46026756 9.0097047,7.48301003 9.00916779,7.51177258 L8.81412494,17.9378595 C8.81359732,17.9664883 8.83641611,17.990301 8.86527517,17.9908453" id="Fill-47" fill="#F4FBFB"></path>
                        <path d="M8.91554362,15.3058664 C8.91997315,15.3059799 8.92453691,15.3054448 8.92910067,15.3043746 C8.95702013,15.2975518 8.97420134,15.2693244 8.96722148,15.2413645 C8.94118121,15.1366154 8.31675168,12.670796 7.12051007,12.0455117 C7.09514094,12.0322676 7.06359732,12.0418997 7.0501745,12.0674515 C7.03675168,12.0930033 7.04655034,12.1243077 7.07218792,12.1376856 C8.22708725,12.7414314 8.85957047,15.2412308 8.86574497,15.2662475 C8.87165101,15.2896589 8.8925906,15.3054448 8.91554362,15.3058664" id="Fill-49" fill="#F4FBFB"></path>
                        <path d="M8.97406711,12.1785645 C8.99527517,12.1789565 9.0154094,12.1663813 9.02359732,12.1455117 C9.03004027,12.1293244 9.67326174,10.5298595 10.6717852,10.5484548 C10.7006443,10.54899 10.7244027,10.5261137 10.7249488,10.4973512 C10.7254765,10.4685886 10.7025235,10.4450435 10.6736644,10.4443746 C9.60279195,10.4244415 8.9535302,12.0387559 8.92655034,12.1075184 C8.91594631,12.1342742 8.9292349,12.1645084 8.95594631,12.1749431 C8.96185235,12.1773512 8.96802685,12.1784214 8.97406711,12.1785645" id="Fill-51" fill="#F4FBFB"></path>
                        <path d="M0.663395973,0.12509699 C0.663395973,0.12509699 3.22366443,0.724160535 4.25198658,3.90235452 C5.89950336,8.99399331 3.92903356,10.217806 3.92903356,10.217806 L0.663395973,0.12509699 Z" id="Fill-61" fill="#76C955"></path>
                    </g>
                    <g id="Group-66" transform="translate(8.724832, 0.658328)">
                        <mask id="mask-17" fill="white">
                            <use xlink:href="#path-16"></use>
                        </mask>
                        <g id="Clip-65"></g>
                        <path d="M0.401342282,5.28026756 C2.04872483,10.3719064 4.3652349,10.2177926 4.3652349,10.2177926 L4.3652349,10.2177926 L1.09973154,0.125217391 C1.09973154,0.125217391 -0.627114094,2.1019398 0.401342282,5.28026756" id="Fill-64" fill="#58A33C" mask="url(#mask-17)"></path>
                    </g>
                    <g id="Group-77" transform="translate(9.395973, 0.658328)" fill="#EBF7F7">
                        <path d="M3.7104698,10.2681605 C3.73838926,10.2591973 3.75369128,10.2293645 3.74469799,10.2015385 L0.479060403,0.108963211 C0.470067114,0.0811371237 0.440134228,0.0658862876 0.412214765,0.0748494983 C0.384295302,0.083812709 0.368993289,0.113645485 0.377986577,0.141471572 L3.64362416,10.2340468 C3.65261745,10.2618729 3.68255034,10.2771237 3.7104698,10.2681605" id="Fill-67"></path>
                        <path d="M2.86950336,7.66898997 C2.87366443,7.66765217 2.87795973,7.66564548 2.88198658,7.66323746 C2.90655034,7.64731773 2.91366443,7.61454181 2.8978255,7.5900602 C2.83809396,7.49788629 1.4206443,5.33146488 0.0630604027,5.12357191 C0.0342013423,5.11915719 0.00695302013,5.13895652 0.00252348993,5.16798662 C-0.00190604027,5.19688294 0.0179597315,5.22377258 0.0469530201,5.22818729 C1.3578255,5.42885619 2.79420134,7.62524415 2.80856376,7.64731773 C2.82198658,7.66791973 2.84708725,7.67621405 2.86950336,7.66898997" id="Fill-69"></path>
                        <path d="M1.88993289,4.64177926 C1.9104698,4.63522408 1.92563758,4.61649498 1.92671141,4.59375251 C1.92738255,4.57609365 2.01637584,2.82585953 2.98295302,2.51522408 C3.01087248,2.50626087 3.0261745,2.47642809 3.01718121,2.44860201 C3.00818792,2.42077592 2.97825503,2.40552508 2.95033557,2.41462207 C1.91369128,2.74773244 1.82389262,4.51402007 1.82067114,4.58907023 C1.81946309,4.61823411 1.84214765,4.6428495 1.8714094,4.64432107 C1.87785235,4.64458863 1.88416107,4.64365217 1.88993289,4.64177926" id="Fill-71"></path>
                    </g>
                    <g id="Group-7" transform="translate(26.870035, 27.161089)">
                        <path d="M2.38825513,9.32333698 C2.38825513,9.32333698 -1.15695726,7.47305886 0.391410084,4.77245664 C0.391410084,4.77245664 1.64477459,3.1051457 3.02714932,2.64478981 C3.02714932,2.64478981 2.40093598,6.62191868 3.1476377,6.69279602 C3.89429864,6.76371417 3.52610575,2.2107936 3.52610575,2.2107936 C3.52610575,2.2107936 7.1465877,0.333258102 8.59204044,0.429883057 C8.59204044,0.429883057 6.42875426,4.35963794 7.16991066,4.24440616 C7.91102629,4.12921517 10.3519046,0.144578291 10.3519046,0.144578291 C10.3519046,0.144578291 14.0971563,-0.665594213 14.7680584,1.54976139 C15.4390012,3.765117 14.4958076,4.91090617 13.9420096,5.06710563 C13.3882932,5.2233459 9.80683235,5.28353247 9.9136613,5.74601019 C10.0204902,6.20856952 12.4603492,6.88094537 13.7962411,6.42197684 C13.7962411,6.42197684 12.4177808,10.1420784 10.4594675,10.0141973 C8.50119506,9.88627528 7.86071067,8.69454029 6.64913993,8.63753646 C5.43748764,8.58049183 4.56381441,8.93251189 5.17791776,9.2401775 C5.79206188,9.54788391 7.83127154,9.26792453 8.83236479,10.0695281 C9.83345804,10.8710909 10.6391196,11.359357 8.83693153,11.7856004 C7.0347435,12.2119253 3.77315788,12.0762913 3.08072689,10.6997937 L2.38825513,9.32333698 Z" id="Fill-37" fill="#86D1CD"></path>
                        <path d="M13,2 C13,2 3.75804834,5.40951638 2.79211941,8.931984 C2.79211941,8.931984 2.88155727,10.4918384 2,12.3112995 L2.01983611,13 C2.01983611,13 2.92999791,10.6282255 3.45395961,10.2903786 C3.45395961,10.2903786 1.27802794,7.32417057 13,2" id="Fill-38" fill="#6BB7BF"></path>
                    </g>
                    <path d="M29.2298725,28.4573671 C29.2298725,28.4573671 28.1289308,26.2461362 29.7784871,25.4041065 C29.7784871,25.4041065 30.9410026,24.9897776 31.7639621,25.243125 C31.7639621,25.243125 30.1358554,27.0700439 30.4739115,27.3714901 C30.8120051,27.6729763 32.1502048,25.1965828 32.1502048,25.1965828 C32.1502048,25.1965828 34.5293098,25.5137959 35.1973221,26.0764928 C35.1973221,26.0764928 32.8404542,27.3336497 33.2377967,27.5372616 C33.6352517,27.7408336 36.1447792,26.5538891 36.1447792,26.5538891 C36.1447792,26.5538891 38.2288773,27.4654526 37.8158601,28.8448724 C37.4029554,30.2243321 36.5644338,30.4800345 36.2441524,30.3640384 C35.9238709,30.2480423 34.1689791,29.0082489 34.0667185,29.2844682 C33.9643455,29.5606874 34.9222273,30.7728589 35.7221622,31.0103595 C35.7221622,31.0103595 33.8153608,32.4379979 32.9093779,31.6771975 C32.003395,30.916437 32.0901684,30.0752057 31.5222791,29.6158913 C30.9543899,29.156617 30.4138751,29.0279674 30.6088339,29.404416 C30.8038677,29.7808645 31.8848598,30.3601665 32.1028057,31.1283914 C32.320714,31.8966162 32.5483347,32.4340063 31.5333414,32.014169 C30.5184231,31.5943317 28.9837646,30.3671918 29.1067998,29.4123194 L29.2298725,28.4573671 Z" id="Fill-34" fill="#599DAD" transform="translate(33.370035, 28.661089) rotate(-28.000000) translate(-33.370035, -28.661089) "></path>
                    <g id="Group-114" transform="translate(11.275168, 5.875719)">
                        <mask id="mask-19" fill="white">
                            <use xlink:href="#path-18"></use>
                        </mask>
                        <g id="Clip-113"></g>
                    </g>
                    <g id="Group-119" transform="translate(12.348993, 6.812174)">
                        <path d="M1.54518121,28.8982876 C0.711489933,28.8982876 0.0332348993,28.2252441 0.0332348993,27.3976856 L0.0332348993,1.60303679 C0.0332348993,0.775478261 0.711489933,0.102301003 1.54518121,0.102301003 L16.0768591,0.102301003 C16.9106846,0.102301003 17.5889396,0.775478261 17.5889396,1.60303679 L17.5889396,27.3976856 C17.5889396,28.2252441 16.9106846,28.8982876 16.0768591,28.8982876 L1.54518121,28.8982876 Z" id="Fill-115" fill="#3F3D56"></path>
                        <g id="Group-70" transform="translate(1.041289, 1.102769)">
                            <mask id="mask-21" fill="white">
                                <use xlink:href="#path-20"></use>
                            </mask>
                            <use id="Mask" fill="#EBF7F7" xlink:href="#path-20"></use>
                            <g mask="url(#mask-21)">
                                <g transform="translate(1.609718, 9.085057)">
                                    <g id="Group-3" transform="translate(4.040816, 10.534898)">
                                        <path d="" id="Fill-1" fill="#1E2D77"></path>
                                    </g>
                                    <g id="Group-6" transform="translate(3.673469, 10.657347)">
                                        <path d="M2.32753469,1.86094156 C3.71745306,1.86094156 4.69386122,0.336902597 4.69447347,0.335720779 C4.56014694,0.278487013 4.42692245,0.220915584 4.29724898,0.164525974 L4.29737143,0.164694805 C3.60051429,0.966642857 2.94822857,1.22917532 2.38667755,1.2209026 L2.28884082,1.47448701 L2.19333061,1.20705844 C1.15924898,1.07655195 0.4788,0.0672792208 0.478555102,0.0669415584 C0.332106122,0.128733766 0.178432653,0.193733766 0.0221877551,0.260590909 C0.334432653,0.724032468 1.21373878,1.86094156 2.32753469,1.86094156" id="Fill-4" fill="#00637A"></path>
                                    </g>
                                    <g id="Group-9" transform="translate(0.000000, 10.779796)">
                                        <path d="M0.113228571,6.77751429 C0.113228571,4.12698367 -0.088077551,1.88224898 1.8433102,0.831759184 C2.24396327,0.614044898 3.00033061,0.3378 3.69559592,0.0664530612 C4.00784082,0.489881633 4.88726939,1.52849388 6.00106531,1.52849388 C7.39086122,1.52849388 8.36739184,0.13624898 8.36800408,0.135269388 C8.92098367,0.350902041 9.49747347,0.518534694 9.85441224,0.672085714 C12.3564122,1.7480449 11.9760857,4.32853469 11.9760857,6.77751429 L12,11.2610204 L6.03633061,11.2652694 L0.12244898,11.2610204 L0.113228571,6.77751429 Z" id="Fill-7" fill="#008CAB"></path>
                                    </g>
                                    <g id="Group-12" transform="translate(6.000000, 10.290000)">
                                        <path d="M0.0601346939,1.88443211 C0.621685714,1.89345691 1.27397143,1.60705785 1.97082857,0.732205431 L1.97070612,0.732021251 C1.27421633,0.401603306 0.688542857,0.108942149 0.688542857,0.108942149 L0.0601346939,1.88443211 Z" id="Fill-10" fill="#FFFFFF"></path>
                                    </g>
                                    <g id="Group-15" transform="translate(4.040816, 10.290000)">
                                        <path d="M2.01408831,1.8693294 L1.37860779,0.108942149 C1.37860779,0.108942149 0.825111688,0.332536009 0.122774026,0.625565525 L0.122638961,0.625565525 C0.122638961,0.625565525 0.87332987,1.72714286 2.01408831,1.8693294" id="Fill-13" fill="#FFFFFF"></path>
                                    </g>
                                    <g id="Group-18" transform="translate(1.469388, 0.004286)">
                                        <path d="M2.35574694,8.71803673 C2.35574694,8.71803673 -0.379763265,7.22440408 0.111746939,3.62036327 C0.238481633,2.69060816 0.740277551,1.76648571 1.27905306,1.21717959 C2.19007347,0.288404082 4.53166531,-0.73735102 6.13048163,0.942404082 C6.13048163,0.942404082 6.76158367,0.577873469 7.47472653,1.1086898 C9.1708898,2.37175102 9.61256327,6.50085306 6.79709388,8.59338367" id="Fill-16" fill="#734D25"></path>
                                    </g>
                                    <g id="Group-21" transform="translate(5.142857, 9.065510)">
                                        <polygon id="Fill-19" fill="#F5D5AF" points="1.92117328 2.00642449 0.996894991 2.73426122 0.040490538 2.00642449 0.040490538 0.0461387755 1.92117328 0.0461387755"></polygon>
                                    </g>
                                    <g id="Group-24" transform="translate(2.326531, 1.596122)">
                                        <path d="M7.25096327,3.97039592 C7.25096327,6.14055918 5.63708571,7.89953878 3.6463102,7.89953878 C1.65541224,7.89953878 0.0416571429,6.14055918 0.0416571429,3.97039592 C0.0416571429,1.8001102 1.65541224,0.0410081633 3.6463102,0.0410081633 C5.63708571,0.0410081633 7.25096327,1.8001102 7.25096327,3.97039592" id="Fill-22" fill="#FFDDB6"></path>
                                    </g>
                                    <g id="Group-27" transform="translate(3.183673, 2.330816)">
                                        <path d="M4.91617959,0.0638571429 C5.47124082,0.755081633 5.80834286,1.6594898 5.80834286,2.65022449 C5.80834286,4.82038776 4.19446531,6.5794898 2.2036898,6.5794898 C1.40801633,6.5794898 0.672832653,6.29773469 0.0765061224,5.82177551 C0.737240816,6.6445102 1.70715918,7.16479592 2.78911837,7.16479592 C4.78001633,7.16479592 6.39377143,5.40581633 6.39377143,3.23565306 C6.39377143,1.93291837 5.81164898,0.778836735 4.91617959,0.0638571429" id="Fill-25" fill="#F5D5AF"></path>
                                    </g>
                                    <g id="Group-30" transform="translate(2.326531, 1.473673)">
                                        <path d="M6.26921633,1.13038776 C5.30554286,0.0758571429 3.97770612,0.00655102041 3.02774694,0.163530612 C2.05354286,0.324306122 -0.530253061,1.68618367 0.119828571,4.90989796 C0.119828571,4.90989796 1.17142041,4.40112245 1.38852245,2.95083673 C1.49248163,2.25630612 2.5939102,3.13059184 3.65113469,3.165 C4.64113469,3.19744898 5.69860408,2.1932449 5.99444082,2.95083673 C6.20701224,3.4954898 5.93101224,4.41165306 7.25101224,4.9232449 C7.25101224,4.9232449 7.75293061,2.75393878 6.26921633,1.13038776" id="Fill-28" fill="#734D25"></path>
                                    </g>
                                    <g id="Group-33" transform="translate(4.040816, 10.045102)">
                                        <polygon id="Fill-31" fill="#F6E552" points="1.17509026 0.0443755102 0.114999351 0.660783673 1.69500584 1.96192653 2.01194416 1.75474286"></polygon>
                                    </g>
                                    <g id="Group-36" transform="translate(6.000000, 10.045102)">
                                        <polygon id="Fill-34" fill="#F6E552" points="0.810195918 0.0443755102 1.97076735 0.731559184 0.313787755 1.96192653 0.00105306122 1.75474286"></polygon>
                                    </g>
                                    <g id="Group-39" transform="translate(1.714286, 1.106327)">
                                        <path d="M0.120220408,4.27424082 C0.118016327,4.1984449 0.0792,2.40456735 1.26205714,1.18632245 C1.95230204,0.475628571 2.91560816,0.115138776 4.12515918,0.115138776 C6.3309551,0.115138776 7.37605714,1.24717959 7.86438367,2.19689388 C8.39115918,3.22142449 8.39728163,4.22954694 8.39728163,4.27179184 L8.2334449,4.27179184 C8.2334449,4.26175102 8.2267102,3.25632245 7.71622041,2.26656735 C7.03564898,0.947669388 5.82732245,0.278730612 4.12515918,0.278730612 C2.96152653,0.278730612 2.03777143,0.622567347 1.37960816,1.3004449 C0.244383673,2.46946531 0.283322449,4.25158776 0.283812245,4.26946531 L0.120220408,4.27424082 Z" id="Fill-37" fill="#000000"></path>
                                    </g>
                                    <g id="Group-42" transform="translate(1.714286, 1.106327)">
                                        <path d="M0.286301979,4.27424082 C0.284097897,4.1984449 0.245281571,2.40456735 1.42813871,1.18632245 C2.11838361,0.475628571 3.08168973,0.115138776 4.29124075,0.115138776 C6.49703667,0.115138776 7.54213871,1.24717959 8.03046524,2.19689388 C8.55724075,3.22142449 8.5633632,4.22954694 8.5633632,4.27179184 L8.39952647,4.27179184 C8.39952647,4.26175102 8.39279177,3.25632245 7.88230198,2.26656735 C7.20173055,0.947669388 5.99340402,0.278730612 4.29124075,0.278730612 C3.1276081,0.278730612 2.203853,0.622567347 1.54568973,1.3004449 C0.410465244,2.46946531 0.44940402,4.25158776 0.449893816,4.26946531 L0.286301979,4.27424082 Z" id="Stroke-40" stroke="#000000" stroke-width="0.5"></path>
                                    </g>
                                    <g id="Group-45" transform="translate(1.714286, 6.371633)">
                                        <path d="M3.20578776,2.62070204 C1.99770612,2.62070204 1.12256327,2.31151837 0.604971429,1.7016 C-0.0261306122,0.958334694 0.114563265,0.0502530612 0.120930612,0.0119265306 L0.282440816,0.0383755102 C0.281093878,0.0471918367 0.148726531,0.913028571 0.731216327,1.59739592 C1.21648163,2.16776327 2.04913469,2.45698776 3.20578776,2.45698776 L3.20578776,2.62070204 Z" id="Fill-43" fill="#0B1016"></path>
                                    </g>
                                    <g id="Group-48" transform="translate(0.224490, 4.412449)">
                                        <g id="Group-10" transform="translate(0.775510, 0.012135)">
                                            <path d="M1.78873247,2.28367347 L1.78873247,2.28367347 C0.80107013,2.28367347 -1.85185201e-13,1.7997551 -1.85185201e-13,1.20269388 L-1.85185201e-13,1.08110204 C-1.85185201e-13,0.484040816 0.80107013,-6.37268016e-14 1.78873247,-6.37268016e-14" id="Fill-46" fill="#FDBF1E"></path>
                                            <path d="M0.939565714,0.12957551 C0.691586494,0.315085714 0.542474805,0.550922449 0.542474805,0.808065306 L0.542474805,0.929657143 C0.542474805,1.41247347 1.06618909,1.82096327 1.78865143,1.95982041 L1.78865143,2.28369796 C0.800786494,2.28369796 0.000121558441,1.79977959 0.000121558441,1.20271837 L0.000121558441,1.08112653 C0.000121558441,0.669820408 0.380194286,0.312269388 0.939565714,0.12957551" id="Fill-49" fill="#D6A219"></path>
                                        </g>
                                    </g>
                                    <g id="Group-51" transform="translate(1.224490, 4.534898)"></g>
                                    <g id="Group-54" transform="translate(0.959184, 4.045102)">
                                        <path d="M1.93926234,2.69878776 C1.93926234,2.82846122 1.59160519,2.93327755 1.16290909,2.93327755 C0.734618182,2.93327755 0.386555844,2.82846122 0.386555844,2.69878776 L0.386555844,0.343971429 C0.386555844,0.214420408 0.734618182,0.109359184 1.16290909,0.109359184 C1.59160519,0.109359184 1.93926234,0.214420408 1.93926234,0.343971429 L1.93926234,2.69878776 Z" id="Fill-52" fill="#0B1016"></path>
                                    </g>
                                    <g id="Group-57" transform="translate(9.551020, 4.412449)">
                                        <path d="M0.0956462338,0.0120857143 L0.0956462338,0.0120857143 C1.08351117,0.0120857143 1.8841761,0.496126531 1.8841761,1.09318776 L1.8841761,1.21477959 C1.8841761,1.81184082 1.08351117,2.29575918 0.0956462338,2.29575918" id="Fill-55" fill="#FDBF1E"></path>
                                    </g>
                                    <g id="Group-60" transform="translate(9.551020, 4.534898)">
                                        <path d="M0.944812987,0.0192612245 C1.19279221,0.204771429 1.3419039,0.440608163 1.3419039,0.69775102 L1.3419039,0.819342857 C1.3419039,1.30215918 0.81818961,1.71064898 0.0957272727,1.84950612 L0.0957272727,2.17338367 C1.08359221,2.17338367 1.88425714,1.68946531 1.88425714,1.09240408 L1.88425714,0.970812245 C1.88425714,0.559506122 1.50418442,0.201955102 0.944812987,0.0192612245" id="Fill-58" fill="#D6A219"></path>
                                    </g>
                                    <g id="Group-63" transform="translate(9.306122, 4.045102)">
                                        <path d="M0.311554286,0.343922449 C0.311554286,0.214371429 0.659616623,0.109310204 1.08790753,0.109310204 C1.51700883,0.109310204 1.86426078,0.214371429 1.86426078,0.343922449 L1.86426078,2.69873878 C1.86426078,2.82841224 1.51700883,2.93322857 1.08790753,2.93322857 C0.659616623,2.93322857 0.311554286,2.82841224 0.311554286,2.69873878 L0.311554286,0.343922449 Z" id="Fill-61" fill="#0B1016"></path>
                                    </g>
                                    <g id="Group-66" transform="translate(4.653061, 7.800000)">
                                        <path d="M1.88818247,0.945471429 C1.88818247,1.44056883 1.48703961,1.84145844 0.991942208,1.84145844 C0.497098052,1.84145844 0.0959551948,1.44056883 0.0959551948,0.945471429 C0.0959551948,0.450627273 0.497098052,0.0497376623 0.991942208,0.0497376623 C1.48703961,0.0497376623 1.88818247,0.450627273 1.88818247,0.945471429" id="Fill-64" fill="#0B1016"></path>
                                    </g>
                                    <g id="Group-69" transform="translate(4.653061, 7.453265)">
                                        <path d="M1.4620167,0.546734694 C1.53089981,0.673864564 1.57015306,0.8192282 1.57015306,0.973961967 C1.57015306,1.46905937 1.1690102,1.87020223 0.674166048,1.87020223 C0.519179035,1.87020223 0.373815399,1.83069573 0.246938776,1.76181262 C0.398380334,2.04114378 0.694425788,2.23057236 1.03478942,2.23057236 C1.52963358,2.23057236 1.93102968,1.82968275 1.93102968,1.33458534 C1.93102968,0.994474954 1.74134787,0.698682746 1.4620167,0.546734694" id="Fill-67" fill="#4D4D4D"></path>
                                    </g>
                                </g>
                            </g>
                        </g>
                    </g>
                    <g id="Group-192" transform="translate(13.288591, 6.882408)" fill="#FFFFFF">
                        <path d="M27.8495168,11.409311 C27.8495168,11.8272375 27.509651,12.1661003 27.0901879,12.1661003 C26.6708591,12.1661003 26.3309933,11.8272375 26.3309933,11.409311 C26.3309933,10.9916522 26.6708591,10.6527893 27.0901879,10.6527893 C27.509651,10.6527893 27.8495168,10.9916522 27.8495168,11.409311" id="Fill-190"></path>
                    </g>
                </g>
                <g id="Group-9" transform="translate(20.000000, 9.000000)" fill="#3F3D56" fill-rule="nonzero">
                    <path d="M2.20913474,0.541977988 L0.224724437,0.541977988 C0.100684408,0.541851621 0.00015390224,0.441343429 0,0.317303432 L0,0.231380638 C0.00015390224,0.10734064 0.100684408,0.00683244846 0.224724437,0.00670608149 L2.20913268,0.00670608149 C2.33317279,0.0068324479 2.43370344,0.107340557 2.43385763,0.231380638 L2.43385763,0.317303432 C2.43370345,0.44134271 2.33317404,0.541850488 2.20913474,0.541977988 L2.20913474,0.541977988 Z" id="Path"></path>
                    <circle id="Oval" cx="3.04270977" cy="0.274599664" r="1"></circle>
                </g>
                <g id="Group-6" transform="translate(1.000000, 4.000000)">
                    <g id="Group-5" transform="translate(0.000000, 0.052700)">
                        <path d="M18,11.9473 L16.2794631,8.54579826 L16.2794631,2.10819476 C16.2794631,1.46705675 15.7771276,0.9473 15.1573276,0.9473 L1.12198371,0.9473 C0.502335464,0.9473 0,1.46705675 0,2.10819476 L0,9.31224319 C0,9.95353822 0.502335464,10.473295 1.12198371,10.473295 L14.4414616,10.473295 L18,11.9473 Z" id="Fill-1" fill="#FDBF1E"></path>
                        <path d="M15.4550866,9.42344899 L2.13560865,9.42344899 C1.51580864,9.42344899 1.01347318,8.90343985 1.01347318,8.26183341 L1.01347318,1.05444388 C1.01347318,1.01831031 1.0154461,0.982648053 1.01863312,0.9473 C0.447397265,1.00165745 0,1.49810122 0,2.1035741 L0,9.31096363 C0,9.95257007 0.502335464,10.4727363 1.12198371,10.4727363 L14.4414616,10.4727363 L18,11.9473 L15.4550866,9.42344899 Z" id="Fill-3" fill="#EBB21B"></path>
                    </g>
                    <path d="M4.7821325,6.62598455 L4.7821325,5.98525185 L3.6802355,5.98525185 L4.2189407,5.48735765 C4.40939203,5.31323072 4.53794668,5.15746874 4.60460465,5.0200717 C4.67126262,4.88267467 4.7045916,4.73643525 4.7045916,4.58135345 C4.7045916,4.40722652 4.65765895,4.25418527 4.56379365,4.1222297 C4.46992835,3.99027414 4.33933315,3.88892682 4.17200805,3.81818775 C4.00468295,3.74744869 3.81219107,3.71207915 3.5945324,3.71207915 C3.31973833,3.71207915 3.08167417,3.76513345 2.8803399,3.87124205 C2.67900563,3.97735065 2.52256347,4.12290989 2.4110134,4.30791975 L2.4110134,4.30791975 L3.0109351,4.64256995 C3.0680705,4.55278575 3.14085012,4.48408724 3.22927395,4.4364744 C3.31769778,4.38886157 3.414964,4.36505515 3.5210726,4.36505515 C3.64078487,4.36505515 3.73192943,4.39090212 3.7945063,4.44259605 C3.85708317,4.49428999 3.8883716,4.56638942 3.8883716,4.65889435 C3.8883716,4.72963342 3.87068683,4.7996923 3.8353173,4.869071 C3.79994777,4.9384497 3.73056907,5.02211225 3.6271812,5.12005865 L3.6271812,5.12005865 L2.557933,6.11992815 L2.557933,6.62598455 L4.7821325,6.62598455 Z M7.2471169,6.62598455 L7.2471169,6.07911715 L7.6715513,6.07911715 L7.6715513,5.43838445 L7.2471169,5.43838445 L7.2471169,4.95273355 L6.4839512,4.95273355 L6.4839512,5.43838445 L5.904435,5.43838445 L7.0675485,3.76921455 L6.230923,3.76921455 L4.9494576,5.55265525 L4.9494576,6.07911715 L6.4594646,6.07911715 L6.4594646,6.62598455 L7.2471169,6.62598455 Z M9.4223432,7.03409455 L10.7691062,3.18969835 L10.0794003,3.18969835 L8.7326373,7.03409455 L9.4223432,7.03409455 Z M13.2177662,6.62598455 L14.2257979,4.27527095 L14.2257979,3.76921455 L11.8587599,3.76921455 L11.8587599,4.85070605 L12.5484658,4.85070605 L12.5484658,4.40994725 L13.2993882,4.40994725 L12.3362486,6.62598455 L13.2177662,6.62598455 Z" id="24/7" fill="#FFFFFF" fill-rule="nonzero"></path>
                </g>
                <g id="Group-13" transform="translate(26.000000, 8.000000)">
                    <g id="Group-3">
                        <mask id="mask-23" fill="white">
                            <use xlink:href="#path-22"></use>
                        </mask>
                        <g id="Clip-2"></g>
                        <path d="M5.47697222,0.0679227273 C2.99641667,0.0679227273 0.985583333,2.04219545 0.985583333,4.47765 C0.985583333,5.14815 1.13877778,5.78333182 1.41141667,6.35237727 L-0.000111111111,9.00001364 L2.69711111,7.93978636 C3.46183333,8.53255909 4.42697222,8.88710455 5.47697222,8.88710455 C7.95738889,8.88710455 9.96836111,6.91296818 9.96836111,4.47765 C9.96836111,2.04219545 7.95738889,0.0679227273 5.47697222,0.0679227273" id="Fill-1" fill="#008CAB" mask="url(#mask-23)"></path>
                    </g>
                    <g id="Group-6" transform="translate(0.000000, 2.000000)">
                        <mask id="mask-25" fill="white">
                            <use xlink:href="#path-24"></use>
                        </mask>
                        <g id="Clip-5"></g>
                        <path d="M9.38131944,0.120246 C9.50354167,0.532126 9.57006944,0.968506 9.57006944,1.420566 C9.57006944,3.920686 7.559375,5.947746 5.07895833,5.947746 C4.02881944,5.947746 3.06368056,5.583466 2.29909722,4.975026 L-6.94444444e-05,6.999986 L2.69715278,5.911486 C3.461875,6.520066 4.42701389,6.884066 5.47701389,6.884066 C7.95743056,6.884066 9.96840278,4.857286 9.96840278,2.357026 C9.96840278,1.543206 9.75423611,0.780066 9.38131944,0.120246" id="Fill-4" fill="#007D99" mask="url(#mask-25)"></path>
                    </g>
                    <path d="M4,4.49993543 C4,4.77605579 3.77621384,5 3.5,5 C3.22378616,5 3,4.77605579 3,4.49993543 C3,4.22394421 3.22378616,4 3.5,4 C3.77621384,4 4,4.22394421 4,4.49993543" id="Fill-7" fill="#FFFFFF"></path>
                    <path d="M6,4.49993543 C6,4.77605579 5.77631409,5 5.49993543,5 C5.22368591,5 5,4.77605579 5,4.49993543 C5,4.22394421 5.22368591,4 5.49993543,4 C5.77631409,4 6,4.22394421 6,4.49993543" id="Fill-9" fill="#FFFFFF"></path>
                    <path d="M8,4.49993543 C8,4.77605579 7.77621384,5 7.5,5 C7.22378616,5 7,4.77605579 7,4.49993543 C7,4.22394421 7.22378616,4 7.5,4 C7.77621384,4 8,4.22394421 8,4.49993543" id="Fill-11" fill="#FFFFFF"></path>
                </g>
            </g>
        </g>
    </g>
</svg>