<svg xmlns="http://www.w3.org/2000/svg" xmlns:xlink="http://www.w3.org/1999/xlink" width="44" height="41" viewBox="0 0 44 41">
    <defs>
        <path id="22itzgt6ta" d="M0 0.054L43.141 0.054 43.141 36.421 0 36.421z"/>
        <path id="r4l3xbi69c" d="M4.984.114c-.051.201-.079.413-.079.63 0 .1.006.2.019.297.068.58.335 1.1.73 1.49.224.217.485.395.776.52l-.775.446-2.798 1.61-1.15.66L.07 2.942l1.208-.696 2.87-1.65"/>
        <path id="sl20eh419f" d="M.017.123C.24.34.502.518.793.643c.306.13.64.202.993.202.232 0 .456-.031.668-.09.308-.085.592-.224.838-.41v5.436H.017"/>
        <path id="np0c6f3wmi" d="M.8 4.184C2.962 7.821 4.72 7.3 4.72 7.3L.435.09S-.549 1.914.8 4.184"/>
        <path id="ll1ta45z7k" d="M.11 2.031s1.457 1.477 4.032.864C8.268 1.913 8.288.085 8.288.085L.11 2.03z"/>
        <path id="9w2p0xmvbm" d="M.083 4.594c-.099 5.26 2.105 5.853 2.105 5.853L2.384.021S.144 1.311.083 4.594"/>
        <path id="hz2vit4zep" d="M.401 5.28c1.648 5.092 3.964 4.938 3.964 4.938L1.1.125S-.627 2.102.4 5.28"/>
        <path id="xmf16p7afr" d="M2.62.034C1.232.034.1 1.164.1 2.546v25.901c0 1.382 1.133 2.512 2.52 2.512h14.53c1.387 0 2.52-1.13 2.52-2.512V2.546c0-1.382-1.133-2.512-2.52-2.512H2.62z"/>
        <path id="kh8dwgblcs" d="M.504 26.795c-.278 0-.504-.224-.504-.5V.5C0 .224.226 0 .504 0h14.532c.278 0 .504.224.504.5v25.795c0 .276-.226.5-.504.5H.504z"/>
        <path id="otnh5o2rru" d="M0 0.068L9.968 0.068 9.968 9 0 9z"/>
        <path id="d5avajuadw" d="M0 0.12L9.968 0.12 9.968 7 0 7z"/>
        <linearGradient id="xsh7xujgqd" x1="225.396%" x2="-3.833%" y1="85.436%" y2="38.723%">
            <stop offset="0%" stop-color="#90EBFF"/>
            <stop offset="100%" stop-color="#9CD1BA"/>
        </linearGradient>
        <linearGradient id="12n52s0ejg" x1="119.132%" x2="-30.032%" y1="79.34%" y2="20.271%">
            <stop offset="0%" stop-color="#90EBFF"/>
            <stop offset="100%" stop-color="#9CD1BA"/>
        </linearGradient>
        <linearGradient id="zgev4s1rmn" x1="52.235%" x2="47.541%" y1="50%" y2="49.604%">
            <stop offset="0%" stop-color="#79BFD3"/>
            <stop offset="100%" stop-color="#B3D8E2"/>
        </linearGradient>
    </defs>
    <g fill="none" fill-rule="evenodd">
        <g>
            <g>
                <g>
                    <g>
                        <g transform="translate(-300 -81) translate(300 81) translate(0 2.053) translate(0 .21)">
                            <mask id="u2gl2qgmub" fill="#fff">
                                <use xlink:href="#22itzgt6ta"/>
                            </mask>
                            <path fill="#C6E4FF" d="M22.778 36.175c5.059-1.1 9.771-3.876 13.352-7.58 3.73-3.858 5.9-8.496 6.761-13.807.547-3.373.26-6.994-1.486-9.936C40.078 2.614 37.911.998 35.39.36c-3.062-.774-4.51.023-7.357 1.254-5.15 2.226-10.878 2.734-16.49 2.758-1.877.007-3.773-.034-5.606.364-1.833.399-3.633 1.294-4.716 2.82C-.145 9.48-.155 12.042.188 14.374c.832 5.658 3.555 10.979 7.494 15.116 3.89 4.085 9.24 7.957 15.096 6.685" mask="url(#u2gl2qgmub)"/>
                        </g>
                        <g>
                            <g transform="translate(-300 -81) translate(300 81) translate(0 2.053) translate(19.463 7.301)">
                                <mask id="830xt45sge" fill="#fff">
                                    <use xlink:href="#r4l3xbi69c"/>
                                </mask>
                                <path fill="url(#xsh7xujgqd)" d="M6.43 3.05l-.775.447-2.798 1.61-1.15.66L.07 2.942l1.208-.696 2.87-1.65.836-.481c-.051.201-.079.413-.079.63 0 .1.006.2.019.297.068.58.335 1.1.73 1.49.224.217.485.395.776.52" mask="url(#830xt45sge)"/>
                            </g>
                            <g transform="translate(-300 -81) translate(300 81) translate(0 2.053) translate(19.463 7.301) translate(5.638 2.408)">
                                <mask id="4x1cyth3mh" fill="#fff">
                                    <use xlink:href="#sl20eh419f"/>
                                </mask>
                                <path fill="url(#12n52s0ejg)" d="M3.292.345v5.436H.017V.123C.24.34.502.518.793.643c.306.13.64.202.993.202.232 0 .456-.031.668-.09.308-.085.592-.224.838-.41" mask="url(#4x1cyth3mh)"/>
                            </g>
                        </g>
                        <path fill="#FFE386" d="M15.284 32.04c.006-.087.015-.172.023-.258-2.587-2.068-3.872-4.318-3.893-4.356l-.19.106c.02.039 1.361 2.386 4.06 4.508" transform="translate(-300 -81) translate(300 81) translate(0 2.053)"/>
                        <path fill="#58A33C" d="M7.012 20.234s2.078.016 3.428 2.286c2.162 3.637.858 4.923.858 4.923l-4.286-7.209z" transform="translate(-300 -81) translate(300 81) translate(0 2.053)"/>
                    </g>
                    <g transform="translate(-300 -81) translate(300 81) translate(6.577 22.197)">
                        <mask id="1dsuhy5q5j" fill="#fff">
                            <use xlink:href="#np0c6f3wmi"/>
                        </mask>
                        <path fill="#59BF42" d="M.8 4.184C2.962 7.821 4.72 7.3 4.72 7.3L.435.09S-.549 1.914.8 4.184" mask="url(#1dsuhy5q5j)"/>
                    </g>
                    <g>
                        <path fill="#F4FBFB" d="M6.084 7.335c.02-.011.027-.037.015-.057L1.814.07C1.802.05 1.776.043 1.756.054c-.02.012-.026.038-.015.058L6.027 7.32c.011.02.037.026.057.014" transform="translate(-300 -81) translate(300 81) translate(5.235 22.197)"/>
                        <path fill="#F4FBFB" d="M4.98 5.479l.01-.007c.015-.016.015-.043-.001-.059-.063-.06-1.535-1.483-2.617-1.407-.023.002-.04.021-.039.044.002.024.022.04.045.04 1.045-.074 2.537 1.368 2.552 1.383.014.013.035.015.05.006M3.695 3.317c.015-.009.023-.026.02-.044-.002-.014-.24-1.378.45-1.785.02-.012.026-.038.014-.058-.011-.02-.037-.026-.057-.014-.74.437-.5 1.814-.49 1.872.005.023.027.038.05.034l.013-.005" transform="translate(-300 -81) translate(300 81) translate(5.235 22.197)"/>
                        <path fill="#76C955" d="M.11 12.466s.63-1.974 3.205-2.587c4.126-.982 4.972.64 4.972.64L.11 12.466z" transform="translate(-300 -81) translate(300 81) translate(5.235 22.197)"/>
                    </g>
                    <g transform="translate(-300 -81) translate(300 81) translate(5.235 32.632)">
                        <mask id="f6a540wd3l" fill="#fff">
                            <use xlink:href="#ll1ta45z7k"/>
                        </mask>
                        <path fill="#58A33C" d="M.11 2.031s1.457 1.477 4.032.864C8.268 1.913 8.288.085 8.288.085L.11 2.03z" mask="url(#f6a540wd3l)"/>
                    </g>
                    <g>
                        <path fill="#F4FBFB" d="M8.328 24.557c-.005-.023-.028-.037-.05-.031L.1 26.472c-.022.005-.036.028-.03.05.005.023.027.037.05.031l8.177-1.946c.023-.005.037-.028.031-.05" transform="translate(-300 -81) translate(300 81) translate(5.235 8.15)"/>
                        <path fill="#F4FBFB" d="M6.222 25.058c0-.004-.002-.007-.004-.01-.01-.02-.036-.028-.056-.017-.077.04-1.876 1.021-2.123 2.075-.006.022.008.044.031.05.023.005.045-.01.05-.032.24-1.016 2.063-2.01 2.082-2.02.017-.01.025-.028.02-.046M3.77 25.642c-.004-.017-.018-.03-.036-.032-.014-.002-1.392-.179-1.578-.957-.006-.022-.028-.036-.05-.03-.023.005-.037.027-.032.05.2.834 1.59 1.013 1.65 1.02.023.003.044-.014.046-.037v-.014" transform="translate(-300 -81) translate(300 81) translate(5.235 8.15)"/>
                        <path fill="#B3D8E3" d="M17.61 14.144C10.167 10.343 7.839 2.68 7.815 2.599c-.017-.058-.078-.091-.136-.074-.058.017-.09.078-.074.135.024.082 2.371 7.814 9.88 11.664.042-.06.084-.121.127-.18" transform="translate(-300 -81) translate(300 81) translate(5.235 8.15)"/>
                        <path fill="#B3D8E3" d="M12.988.021s2.189 1.372 2.128 4.655c-.099 5.26-2.324 5.771-2.324 5.771L12.988.021z" transform="translate(-300 -81) translate(300 81) translate(5.235 8.15)"/>
                    </g>
                    <g transform="translate(-300 -81) translate(300 81) translate(15.839 8.15)">
                        <mask id="u1ltaupuoo" fill="#fff">
                            <use xlink:href="#9w2p0xmvbm"/>
                        </mask>
                        <path fill="url(#zgev4s1rmn)" d="M.083 4.594c-.099 5.26 2.105 5.853 2.105 5.853L2.384.021S.144 1.311.083 4.594" mask="url(#u1ltaupuoo)"/>
                    </g>
                    <g>
                        <path fill="#F4FBFB" d="M8.865 17.99c.03.001.053-.022.053-.05l.196-10.426c0-.029-.023-.053-.052-.053-.029 0-.052.022-.053.05l-.195 10.427c0 .028.022.052.051.053" transform="translate(-300 -81) translate(300 81) translate(9.161 .658)"/>
                        <path fill="#F4FBFB" d="M8.916 15.306c.004 0 .009 0 .013-.002.028-.006.045-.035.038-.063-.026-.104-.65-2.57-1.846-3.195-.026-.014-.057-.004-.07.021-.014.026-.004.057.021.07 1.155.604 1.788 3.104 1.794 3.13.006.023.027.038.05.039M8.974 12.179c.021 0 .041-.013.05-.033.006-.017.65-1.616 1.648-1.598.029.001.052-.022.053-.05 0-.03-.022-.053-.051-.054-1.071-.02-1.72 1.595-1.747 1.664-.011.026.002.057.029.067l.018.004" transform="translate(-300 -81) translate(300 81) translate(9.161 .658)"/>
                        <path fill="#76C955" d="M.663.125s2.56.6 3.589 3.777c1.648 5.092-.323 6.316-.323 6.316L.663.125z" transform="translate(-300 -81) translate(300 81) translate(9.161 .658)"/>
                    </g>
                    <g transform="translate(-300 -81) translate(300 81) translate(8.725 .658)">
                        <mask id="gj4y3r445q" fill="#fff">
                            <use xlink:href="#hz2vit4zep"/>
                        </mask>
                        <path fill="#58A33C" d="M.401 5.28c1.648 5.092 3.964 4.938 3.964 4.938L1.1.125S-.627 2.102.4 5.28" mask="url(#gj4y3r445q)"/>
                    </g>
                    <g fill="#EBF7F7">
                        <path d="M3.71 10.268c.028-.009.044-.039.035-.066L.479.109C.47.081.44.066.412.075.384.084.37.114.378.14l3.266 10.093c.009.028.039.043.066.034" transform="translate(-300 -81) translate(300 81) translate(9.396 .658)"/>
                        <path d="M2.87 7.669l.012-.006c.025-.016.032-.048.016-.073-.06-.092-1.477-2.259-2.835-2.466-.029-.005-.056.015-.06.044-.005.029.015.056.044.06 1.31.2 2.747 2.397 2.762 2.42.013.02.038.028.06.021M1.89 4.642c.02-.007.036-.026.037-.048 0-.018.09-1.768 1.056-2.079.028-.009.043-.039.034-.066-.009-.028-.039-.043-.067-.034-1.036.333-1.126 2.099-1.13 2.174 0 .03.022.054.051.055.007 0 .013 0 .019-.002" transform="translate(-300 -81) translate(300 81) translate(9.396 .658)"/>
                    </g>
                    <g>
                        <path fill="#86D1CD" d="M2.388 9.323s-3.545-1.85-1.997-4.55c0 0 1.254-1.668 2.636-2.128 0 0-.626 3.977.12 4.048.747.07.38-4.482.38-4.482S7.146.333 8.591.43c0 0-2.163 3.93-1.422 3.814.741-.115 3.182-4.1 3.182-4.1s3.745-.81 4.416 1.406c.671 2.215-.272 3.36-.826 3.517-.554.156-4.135.217-4.028.679.106.463 2.546 1.135 3.882.676 0 0-1.378 3.72-3.337 3.592-1.958-.128-2.598-1.32-3.81-1.376-1.212-.058-2.085.295-1.471.602.614.308 2.653.028 3.654.83 1.001.801 1.807 1.29.005 1.716-1.802.426-5.064.29-5.756-1.086l-.693-1.377z" transform="translate(-300 -81) translate(300 81) translate(26.87 27.161)"/>
                        <path fill="#6BB7BF" d="M13 2S3.758 5.41 2.792 8.932c0 0 .09 1.56-.792 3.38l.02.688s.91-2.372 1.434-2.71c0 0-2.176-2.966 9.546-8.29" transform="translate(-300 -81) translate(300 81) translate(26.87 27.161)"/>
                    </g>
                    <path fill="#599DAD" d="M29.23 28.457s-1.101-2.21.548-3.053c0 0 1.163-.414 1.986-.16 0 0-1.628 1.826-1.29 2.127.338.302 1.676-2.174 1.676-2.174s2.38.317 3.047.88c0 0-2.357 1.257-1.96 1.46.398.204 2.908-.983 2.908-.983s2.084.911 1.67 2.29c-.412 1.38-1.25 1.636-1.57 1.52-.321-.116-2.076-1.356-2.178-1.08-.103.277.855 1.489 1.655 1.726 0 0-1.907 1.428-2.813.667-.906-.76-.819-1.602-1.387-2.061-.568-.46-1.108-.588-.913-.212.195.377 1.276.956 1.494 1.724.218.769.445 1.306-.57.886-1.015-.42-2.55-1.647-2.426-2.602l.123-.955z" transform="translate(-300 -81) translate(300 81) rotate(-28 33.37 28.661)"/>
                    <g transform="translate(-300 -81) translate(300 81) translate(11.275 5.876)"/>
                    <g>
                        <path fill="#3F3D56" d="M1.545 28.898c-.834 0-1.512-.673-1.512-1.5V1.603c0-.828.678-1.5 1.512-1.5h14.532c.834 0 1.512.672 1.512 1.5v25.795c0 .827-.678 1.5-1.512 1.5H1.545z" transform="translate(-300 -81) translate(300 81) translate(12.349 6.812)"/>
                        <g transform="translate(-300 -81) translate(300 81) translate(12.349 6.812) translate(1.041 1.103)">
                            <mask id="9vp5kv04et" fill="#fff">
                                <use xlink:href="#kh8dwgblcs"/>
                            </mask>
                            <use fill="#EBF7F7" xlink:href="#kh8dwgblcs"/>
                            <g mask="url(#9vp5kv04et)">
                                <g>
                                    <g/>
                                    <g>
                                        <path fill="#00637A" d="M2.328 1.86c1.39 0 2.366-1.523 2.366-1.524L4.297.165c-.696.802-1.349 1.064-1.91 1.056l-.098.253-.096-.267C1.16 1.077.48.067.48.067L.022.26c.312.463 1.192 1.6 2.306 1.6" transform="translate(1.61 9.085) translate(3.673 10.657)"/>
                                    </g>
                                    <g>
                                        <path fill="#008CAB" d="M.113 6.778c0-2.651-.201-4.896 1.73-5.946C2.244.614 3 .338 3.696.066 4.008.49 4.887 1.528 6 1.528c1.39 0 2.366-1.392 2.367-1.393.553.216 1.13.384 1.486.537 2.502 1.076 2.122 3.657 2.122 6.106L12 11.26l-5.964.004-5.914-.004-.009-4.483z" transform="translate(1.61 9.085) translate(0 10.78)"/>
                                    </g>
                                    <g>
                                        <path fill="#FFF" d="M.06 1.884c.562.01 1.214-.277 1.91-1.152C1.275.402.69.109.69.109L.06 1.884z" transform="translate(1.61 9.085) translate(6 10.29)"/>
                                    </g>
                                    <g>
                                        <path fill="#FFF" d="M2.014 1.87L1.38.108S.825.333.123.626c0 0 .75 1.101 1.891 1.243" transform="translate(1.61 9.085) translate(4.04 10.29)"/>
                                    </g>
                                    <g>
                                        <path fill="#734D25" d="M2.356 8.718S-.38 7.224.112 3.62c.126-.93.628-1.854 1.167-2.403C2.19.288 4.532-.737 6.13.942c0 0 .632-.364 1.345.167C9.17 2.372 9.613 6.5 6.797 8.593" transform="translate(1.61 9.085) translate(1.47 .004)"/>
                                    </g>
                                    <g>
                                        <path fill="#F5D5AF" d="M1.921 2.006L0.997 2.734 0.04 2.006 0.04 0.046 1.921 0.046z" transform="translate(1.61 9.085) translate(5.143 9.066)"/>
                                    </g>
                                    <g>
                                        <path fill="#FFDDB6" d="M7.251 3.97c0 2.17-1.614 3.93-3.605 3.93C1.656 7.9.042 6.14.042 3.97S1.655.041 3.646.041s3.605 1.76 3.605 3.93" transform="translate(1.61 9.085) translate(2.327 1.596)"/>
                                    </g>
                                    <g>
                                        <path fill="#F5D5AF" d="M4.916.064c.555.691.892 1.595.892 2.586 0 2.17-1.614 3.93-3.604 3.93-.796 0-1.531-.282-2.127-.758.66.823 1.63 1.343 2.712 1.343 1.991 0 3.605-1.76 3.605-3.93 0-1.302-.582-2.456-1.478-3.171" transform="translate(1.61 9.085) translate(3.184 2.33)"/>
                                    </g>
                                    <g>
                                        <path fill="#734D25" d="M6.27 1.13C5.305.076 3.977.007 3.027.164 2.054.324-.53 1.686.12 4.91c0 0 1.051-.509 1.269-1.96.103-.694 1.205.18 2.262.215.99.032 2.048-.972 2.343-.214.213.544-.063 1.46 1.257 1.972 0 0 .502-2.17-.982-3.793" transform="translate(1.61 9.085) translate(2.327 1.474)"/>
                                    </g>
                                    <g>
                                        <path fill="#F6E552" d="M1.175 0.044L0.115 0.661 1.695 1.962 2.012 1.755z" transform="translate(1.61 9.085) translate(4.04 10.045)"/>
                                    </g>
                                    <g>
                                        <path fill="#F6E552" d="M0.81 0.044L1.971 0.732 0.314 1.962 0.001 1.755z" transform="translate(1.61 9.085) translate(6 10.045)"/>
                                    </g>
                                    <g>
                                        <path fill="#000" d="M.12 4.274c-.002-.076-.04-1.87 1.142-3.088.69-.71 1.654-1.07 2.863-1.07 2.206 0 3.251 1.131 3.74 2.08.526 1.025.532 2.034.532 2.076h-.164c0-.01-.006-1.016-.517-2.005C7.036.947 5.827.279 4.126.279 2.961.279 2.037.623 1.38 1.3.244 2.47.283 4.252.284 4.27l-.164.004z" transform="translate(1.61 9.085) translate(1.714 1.106)"/>
                                    </g>
                                    <g>
                                        <path stroke="#000" stroke-width=".5" d="M.286 4.274c-.002-.076-.04-1.87 1.142-3.088.69-.71 1.654-1.07 2.863-1.07 2.206 0 3.251 1.131 3.74 2.08.526 1.025.532 2.034.532 2.076H8.4c0-.01-.007-1.016-.518-2.005C7.202.947 5.993.279 4.292.279 3.127.279 2.203.623 1.545 1.3.41 2.47.449 4.252.45 4.27l-.164.004z" transform="translate(1.61 9.085) translate(1.714 1.106)"/>
                                    </g>
                                    <g>
                                        <path fill="#0B1016" d="M3.206 2.62c-1.208 0-2.083-.308-2.601-.918C-.026.958.115.05.121.012l.161.026c0 .01-.133.875.45 1.56.484.57 1.317.859 2.474.859v.164z" transform="translate(1.61 9.085) translate(1.714 6.372)"/>
                                    </g>
                                    <g>
                                        <g>
                                            <path fill="#FDBF1E" d="M1.789 2.284C.8 2.284 0 1.8 0 1.203V1.08C0 .484.801 0 1.789 0" transform="translate(1.61 9.085) translate(.224 4.412) translate(.776 .012)"/>
                                            <path fill="#D6A219" d="M.94.13C.692.315.542.55.542.808V.93c0 .482.524.891 1.247 1.03v.324C.8 2.284 0 1.8 0 1.203V1.08C0 .67.38.312.94.13" transform="translate(1.61 9.085) translate(.224 4.412) translate(.776 .012)"/>
                                        </g>
                                    </g>
                                    <g>
                                        <path fill="#0B1016" d="M1.94 2.699c0 .13-.348.234-.777.234-.428 0-.776-.105-.776-.234V.344c0-.13.348-.235.776-.235.429 0 .776.105.776.235v2.355z" transform="translate(1.61 9.085) translate(.96 4.045)"/>
                                    </g>
                                    <g>
                                        <path fill="#FDBF1E" d="M.096.012c.988 0 1.788.484 1.788 1.081v.122c0 .597-.8 1.08-1.788 1.08" transform="translate(1.61 9.085) translate(9.551 4.412)"/>
                                    </g>
                                    <g>
                                        <path fill="#D6A219" d="M.945.02c.248.185.397.42.397.678v.121c0 .483-.524.892-1.246 1.03v.324c.988 0 1.788-.484 1.788-1.08V.97c0-.411-.38-.769-.94-.952" transform="translate(1.61 9.085) translate(9.551 4.535)"/>
                                    </g>
                                    <g>
                                        <path fill="#0B1016" d="M.312.344c0-.13.348-.235.776-.235.429 0 .776.105.776.235v2.355c0 .13-.347.234-.776.234-.428 0-.776-.105-.776-.234V.344z" transform="translate(1.61 9.085) translate(9.306 4.045)"/>
                                    </g>
                                    <g>
                                        <path fill="#0B1016" d="M1.888.945c0 .496-.401.896-.896.896s-.896-.4-.896-.896C.096.451.497.05.992.05s.896.4.896.895" transform="translate(1.61 9.085) translate(4.653 7.8)"/>
                                    </g>
                                    <g>
                                        <path fill="#4D4D4D" d="M1.462.547c.069.127.108.272.108.427 0 .495-.401.896-.896.896-.155 0-.3-.04-.427-.108.151.28.447.469.788.469.495 0 .896-.401.896-.896 0-.34-.19-.636-.469-.788" transform="translate(1.61 9.085) translate(4.653 7.453)"/>
                                    </g>
                                </g>
                            </g>
                        </g>
                    </g>
                    <g fill="#FFF">
                        <path d="M27.85 11.41c0 .417-.34.756-.76.756s-.759-.339-.759-.757c0-.417.34-.756.76-.756.419 0 .759.339.759.756" transform="translate(-300 -81) translate(300 81) translate(13.289 6.882)"/>
                    </g>
                </g>
                <g fill="#3F3D56" fill-rule="nonzero" transform="translate(-300 -81) translate(300 81) translate(20 9)">
                    <path d="M2.21.542H.224C.1.542 0 .442 0 .317V.231C0 .107.1.007.225.007h1.984c.124 0 .225.1.225.224v.086c0 .124-.1.225-.225.225z"/>
                    <circle cx="3.043" cy=".275" r="1"/>
                </g>
                <g>
                    <g>
                        <path fill="#FDBF1E" d="M18 11.947l-1.72-3.401V2.108c0-.64-.503-1.16-1.123-1.16H1.122C.502.947 0 1.467 0 2.107v7.204c0 .642.502 1.161 1.122 1.161h13.32L18 11.947z" transform="translate(-300 -81) translate(300 81) translate(1 4) translate(0 .053)"/>
                        <path fill="#EBB21B" d="M15.455 9.423H2.135c-.62 0-1.122-.52-1.122-1.161V1.054c0-.036.002-.071.006-.107C.447 1.002 0 1.498 0 2.104V9.31c0 .642.502 1.162 1.122 1.162h13.32L18 11.947l-2.545-2.524z" transform="translate(-300 -81) translate(300 81) translate(1 4) translate(0 .053)"/>
                    </g>
                    <text fill="#FFF" font-family="Montserrat-ExtraBold, Montserrat" font-size="4.081" font-weight="600" letter-spacing="-.02" transform="translate(-300 -81) translate(300 81) translate(1 4)">
                        <tspan x="2.436" y="6.626">2</tspan> <tspan x="4.839" y="6.626">4 / 7</tspan>
                    </text>
                </g>
                <g>
                    <g transform="translate(-300 -81) translate(300 81) translate(26 8)">
                        <mask id="nperbs6eqv" fill="#fff">
                            <use xlink:href="#otnh5o2rru"/>
                        </mask>
                        <path fill="#008CAB" d="M5.477.068C2.997.068.986 2.042.986 4.478c0 .67.153 1.305.425 1.874L0 9l2.697-1.06c.765.593 1.73.947 2.78.947 2.48 0 4.491-1.974 4.491-4.41 0-2.435-2.01-4.41-4.491-4.41" mask="url(#nperbs6eqv)"/>
                    </g>
                    <g transform="translate(-300 -81) translate(300 81) translate(26 8) translate(0 2)">
                        <mask id="p82flq131x" fill="#fff">
                            <use xlink:href="#d5avajuadw"/>
                        </mask>
                        <path fill="#007D99" d="M9.381.12c.123.412.19.849.19 1.3 0 2.5-2.012 4.528-4.492 4.528-1.05 0-2.015-.365-2.78-.973L0 7l2.698-1.089c.765.61 1.73.973 2.78.973 2.48 0 4.491-2.027 4.491-4.527 0-.814-.214-1.577-.587-2.237" mask="url(#p82flq131x)"/>
                    </g>
                    <path fill="#FFF" d="M4 4.5c0 .276-.224.5-.5.5S3 4.776 3 4.5s.224-.5.5-.5.5.224.5.5M6 4.5c0 .276-.224.5-.5.5S5 4.776 5 4.5s.224-.5.5-.5.5.224.5.5M8 4.5c0 .276-.224.5-.5.5S7 4.776 7 4.5s.224-.5.5-.5.5.224.5.5" transform="translate(-300 -81) translate(300 81) translate(26 8)"/>
                </g>
            </g>
        </g>
    </g>
</svg>
