<svg xmlns="http://www.w3.org/2000/svg" width="14" height="14" viewBox="0 0 14 14">
    <g fill="none" fill-rule="evenodd">
        <g fill="#424242" fill-rule="nonzero">
            <g>
                <path d="M7 0C3.335 0 .368 2.935.368 6.562c0 1.59.578 3.114 1.63 4.31v2.717c0 .365.447.549.708.29l1.418-1.402c4.404 2.096 9.508-1.09 9.508-5.915C13.632 2.936 10.666 0 7 0zm0 10.688c-.228 0-.413-.183-.413-.408 0-.226.185-.41.413-.41.228 0 .413.184.413.41 0 .225-.185.408-.413.408zm.414-2.902v.853c0 .226-.185.41-.414.41-.229 0-.414-.184-.414-.41v-1.23c0-.226.185-.41.414-.41.915 0 1.66-.736 1.66-1.641 0-.906-.745-1.642-1.66-1.642-.915 0-1.66.736-1.66 1.642 0 .226-.185.41-.414.41-.229 0-.414-.184-.414-.41C4.512 4 5.628 2.896 7 2.896c1.372 0 2.488 1.104 2.488 2.462 0 1.218-.898 2.232-2.074 2.428z" transform="translate(-20 -361) translate(20 361)"/>
            </g>
        </g>
    </g>
</svg>
