<svg xmlns="http://www.w3.org/2000/svg" width="21" height="24" viewBox="0 0 21 24">
    <g fill="none" fill-rule="evenodd">
        <g>
            <g>
                <g>
                    <g transform="translate(-44 -442) translate(0 138) translate(20 156) translate(24 148)">
                        <circle cx="10.065" cy="10.065" r="10.065" fill="#64BA02"/>
                        <g fill="#FFF">
                            <path d="M10.323 5.541v4.007c0 .713-.578 1.29-1.29 1.29h-1.55c-.142 0-.257-.115-.257-.257V7.484c0-.143-.116-.258-.258-.258H5.419c-.142 0-.258.115-.258.258v3.097c0 .142-.115.258-.258.258H3.355c-.713 0-1.29-.578-1.29-1.29V5.54l-.094.078c-.11.09-.273.075-.364-.036-.09-.11-.075-.272.035-.363L6.03 1.607c.096-.078.233-.078.329 0l4.387 3.613c.071.059.105.15.09.242-.015.09-.078.167-.164.2-.086.031-.183.015-.254-.043l-.094-.078zM9.81 5.12L6.194 2.141 2.577 5.119c.002.014.004.028.004.042v4.387c0 .428.346.775.774.775h1.29v-2.84c0-.427.347-.773.774-.773h1.549c.427 0 .774.346.774.774v2.839h1.29c.428 0 .774-.347.774-.775V5.161c0-.014.001-.028.004-.042z" transform="translate(3.871 3.871)"/>
                        </g>
                        <path fill="#64BA02" d="M4.684 18.596c1.718 1.075 5.38 3.107 5.38 5.198.012-1.405 1.815-3.137 5.41-5.198-8.34-.716-11.936-.716-10.79 0z"/>
                    </g>
                </g>
            </g>
        </g>
    </g>
</svg>
