<svg xmlns="http://www.w3.org/2000/svg" width="12" height="13" viewBox="0 0 12 13">
    <g fill="none" fill-rule="evenodd">
        <g fill="#43B02A">
            <g>
                <g>
                    <g>
                        <g>
                            <g transform="translate(-96 -383) translate(20 190) translate(0 92) translate(0 88) translate(76 11) translate(0 2.5)">
                                <path fill-rule="nonzero" d="M11.71 5.437h-.955c-.033 0-.036-.027-.038-.041-.277-2.129-1.958-3.815-4.084-4.1-.028-.005-.084-.01-.084-.066V.276C6.549.124 6.425 0 6.273 0h-.56c-.152 0-.276.124-.276.276v.954c0 .046-.056.061-.084.065-1.152.155-2.173.72-2.91 1.545-.624.696-1.045 1.575-1.173 2.547-.002.017-.007.05-.042.05H.276c-.152 0-.276.124-.276.276v.56c0 .152.124.276.276.276h.946c.037 0 .04.034.042.051.263 2.157 1.967 3.868 4.12 4.143.018.002.053.015.053.04v.928c0 .151.124.275.276.275h.56c.152 0 .276-.124.276-.275v-.928c0-.026.04-.038.061-.04 2.154-.28 3.857-1.997 4.114-4.158.001-.012.002-.036.036-.036h.95c.152 0 .276-.124.276-.276v-.56c0-.152-.124-.276-.275-.276zM6.55 9.79v-.154c0-.152-.124-.276-.276-.276h-.56c-.152 0-.276.124-.276.276v.153c0 .046-.06.043-.091.037C3.71 9.55 2.423 8.245 2.174 6.6c-.002-.016-.016-.05.021-.05h.156c.152 0 .276-.124.276-.276v-.56c0-.152-.124-.276-.276-.276h-.149c-.028 0-.025-.02-.024-.03.12-.748.453-1.425.936-1.965.575-.642 1.36-1.09 2.248-1.236.025-.004.075-.015.075.019v.126c0 .152.124.276.276.276h.56c.152 0 .276-.124.276-.276v-.126c0-.032.054-.023.08-.018 1.618.268 2.895 1.54 3.171 3.154.004.026.013.076-.037.076h-.128c-.152 0-.276.124-.276.276v.56c0 .152.124.276.276.276h.135c.049 0 .042.045.039.068-.256 1.642-1.545 2.94-3.182 3.21-.026.005-.078.01-.078-.038z"/>
                                <circle cx="6" cy="6" r="1.714"/>
                            </g>
                        </g>
                    </g>
                </g>
            </g>
        </g>
    </g>
</svg>
