<svg xmlns="http://www.w3.org/2000/svg" width="185" height="160" viewBox="0 0 185 160">
    <g fill="none" fill-rule="evenodd">
        <g>
            <g>
                <g transform="translate(-89 -77) translate(89 77) translate(11.525 85.897)">
                    <path fill="#E0E0E0" fill-rule="nonzero" d="M10.828 57.285L.77 51.635c-.878-.51-.878-1.333 0-1.846l50.46-29.235c1.004-.509 2.19-.509 3.193 0l10.057 5.639c.882.508.882 1.332 0 1.845L14.02 57.274c-1 .513-2.187.517-3.192.011z"/>
                    <ellipse cx="73.844" cy="57.797" fill="#DBEDFC" rx="24.552" ry="15.165"/>
                    <path fill="#E0E0E0" fill-rule="nonzero" d="M168.554 24.19L127.447.458c-.893-.45-1.946-.45-2.839 0L96.825 16.501c-.352.12-.588.45-.588.82 0 .372.236.702.588.821l41.103 23.728c.892.455 1.947.455 2.839 0l27.787-16.043c.328-.147.552-.459.586-.817 0-.389-.428-.743-.586-.82z"/>
                    <path fill="#DBEDFC" d="M129.015 57.185c-2.165-.512-5.177-.143-8.09-.07 4.419-3.67 3.795-8.755-1.875-12.029-6.375-3.678-16.713-3.678-23.088 0-6.375 3.679-6.375 9.65 0 13.332 6.163 3.566 16.081 3.678 22.487.327l.385.054c3.632.404 7.172-1.156 10.3 0 3.128 1.155 1.83 3.532 2.153 4.164.324.631 1.225.192 1.225-1.676 0-1.868-1.232-3.563-3.497-4.102z"/>
                </g>
                <g fill-rule="nonzero">
                    <g>
                        <path fill="#90CAF9" d="M19.517 18.35C17.117 8.393 9.676-2.727 2.284 1.186-5.108 5.1 7.638 13.84 11.332 22.06c3.232 7.207 6.853 16.983 7.704 19.29l2.766-1.29c-.016-2.458-.232-13.147-2.285-21.71z" transform="translate(-89 -77) translate(89 77) translate(.355 94.756)"/>
                        <path fill="#047C34" d="M19.517 18.35C17.117 8.393 9.676-2.727 2.284 1.186-5.108 5.1 7.638 13.84 11.332 22.06c3.232 7.207 6.853 16.983 7.704 19.29l2.766-1.29c-.016-2.458-.232-13.147-2.285-21.71z" transform="translate(-89 -77) translate(89 77) translate(.355 94.756)"/>
                        <path fill="#FFF" d="M19.645 38.904c.142 0 .258-.116.258-.258-.066-19.371-8.236-31.404-15.208-35.823-.121-.075-.28-.039-.358.081-.075.12-.039.279.081.355 6.864 4.345 14.903 16.22 14.968 35.383 0 .07.026.136.075.185.048.05.114.077.184.077z" transform="translate(-89 -77) translate(89 77) translate(.355 94.756)"/>
                        <path fill="#62AD41" d="M17.977 30.256C12.264 18.701 4.287 17.476 1.337 20.1c-2.358 2.092-.586 5.277 1.61 6.637 2.858 1.768 12.572 6.39 15.846 14.726l2.157-1.013c-.077-1.491-.535-5.254-2.973-10.193z" transform="translate(-89 -77) translate(89 77) translate(.355 94.756)"/>
                        <path fill="#FFF" d="M19.749 40.036h.057c.148-.03.243-.175.212-.323C18.131 30.34 9.202 23.835 4.73 22.826c-.14-.018-.272.073-.303.211-.03.139.049.278.184.32 4.345.983 13.03 7.32 14.872 16.464.026.126.137.216.266.215z" transform="translate(-89 -77) translate(89 77) translate(.355 94.756)"/>
                    </g>
                </g>
                <g fill-rule="nonzero">
                    <g>
                        <g>
                            <path fill="#37474F" d="M47.54.77L2.508 26.76c-1.465.846-2.392 2.385-2.454 4.075v102.892c0 1.671 1.028 3.616 2.311 4.352 1.283.736 3.467.655 4.919-.18l44.867-25.9c1.543-1.01 2.516-2.693 2.619-4.535V4.93c0-1.667-1.033-3.617-2.311-4.352-1.28-.736-3.475-.651-4.92.192z" transform="translate(-89 -77) translate(89 77) translate(17.688 .77)"/>
                            <path fill="#263238" d="M6.648 138.194c-1.398.547-3.193.52-4.29-.116-1.272-.732-2.312-2.696-2.312-4.352V30.834c.027-.791.255-1.563.663-2.242l4.237 2.396c-.732.855-1.16 1.928-1.217 3.051v101.809c-.008 2.01 1.278 2.962 2.92 2.346z" transform="translate(-89 -77) translate(89 77) translate(17.688 .77)"/>
                            <path fill="#455A64" d="M6.028 30.045c-1.361.89-2.219 2.374-2.31 3.998v101.809c0 2.253 1.598 3.178 3.55 2.049l44.871-25.904c1.544-1.01 2.516-2.692 2.62-4.534V4.93c0-1.664-1.18-2.342-2.62-1.51L6.029 30.045z" transform="translate(-89 -77) translate(89 77) translate(17.688 .77)"/>
                            <path fill="#37474F" d="M8.397 36.5L5.909 37.937 5.909 130.86 8.397 129.423 50.575 105.075 53.063 103.639 53.063 10.716 50.579 12.149z" transform="translate(-89 -77) translate(89 77) translate(17.688 .77)"/>
                            <path fill="#90CAF9" d="M49.913 101.555V12.53L8.397 36.5 5.91 37.937v89.032L47.424 103c1.372-.79 2.489-1.444 2.489-1.444z" transform="translate(-89 -77) translate(89 77) translate(17.688 .77)"/>
                            <path fill="#DCE8FD" d="M49.913 101.555V12.53L8.397 36.5 5.91 37.937v89.032L47.424 103c1.372-.79 2.489-1.444 2.489-1.444z" transform="translate(-89 -77) translate(89 77) translate(17.688 .77)"/>
                            <path fill="#000" d="M26.193 21.274l7.573-4.372c.45-.262.816-.077.816.412-.04.557-.344 1.062-.816 1.36l-7.573 4.372c-.45.258-.82.073-.82-.416.041-.557.346-1.06.82-1.356zM39.189 13.759c.424-.243.77-.046.77.443-.029.54-.315 1.035-.77 1.329-.424.246-.77.046-.77-.443.03-.54.316-1.034.77-1.33zM42.259 11.99c.424-.246.77-.045.77.444-.03.54-.316 1.034-.77 1.329-.424.242-.77.046-.77-.443.029-.541.315-1.035.77-1.33zM17.719 26.166c.423-.247.77-.046.77.443-.03.54-.317 1.034-.77 1.329-.424.246-.77.046-.77-.443.028-.541.315-1.035.77-1.33zM20.777 24.394c.424-.243.77-.046.77.443-.029.54-.315 1.035-.77 1.329-.424.246-.77.046-.77-.443.03-.54.317-1.034.77-1.33z" transform="translate(-89 -77) translate(89 77) translate(17.688 .77)"/>
                        </g>
                        <g>
                            <path fill="#000" d="M1.606 33.72c-.405-.007-.79-.18-1.066-.477s-.418-.694-.394-1.1v-20.7c.009-.44.132-.872.359-1.25.213-.382.522-.701.897-.925l15-8.648c.259-.152.553-.235.854-.239.59-.005 1.121.355 1.333.906.07.219.107.447.108.677v20.704c-.034.885-.5 1.698-1.248 2.173L2.461 33.48c-.087.047-.177.09-.27.127-.186.073-.384.11-.585.111z" opacity=".1" transform="translate(-89 -77) translate(89 77) translate(17.688 .77) translate(6.933 44.297)"/>
                            <g>
                                <path fill="#FAFAFA" d="M18.84 1.926c-.028-.513-.299-.982-.728-1.263L17.514.32c-.456-.235-.999-.235-1.456 0L1.063 8.975c-.43.28-.7.75-.728 1.263v20.7c.027.513.298.983.728 1.264l.593.342c.458.232.999.232 1.456 0l14.992-8.662c.429-.28.699-.748.728-1.26l.008-20.696z" transform="translate(-89 -77) translate(89 77) translate(17.688 .77) translate(6.933 44.297) translate(.77 1.156)"/>
                                <path fill="#E0E0E0" d="M.335 30.938c.027.513.298.983.728 1.264l.593.342c.416.208.9.23 1.333.058-.343.131-.605-.065-.605-.481v-20.7c.009-.254.083-.5.216-.717L.547 9.518c-.13.219-.203.466-.212.72v20.7z" transform="translate(-89 -77) translate(89 77) translate(17.688 .77) translate(6.933 44.297) translate(.77 1.156)"/>
                                <path fill="#F0F0F0" d="M18.816 1.73c-.084-.313-.385-.409-.704-.216l-15 8.647c-.215.134-.391.32-.512.543L.55 9.522c.121-.223.298-.41.513-.543L16.058.33c.458-.231.999-.231 1.456 0l.598.343c.369.24.623.622.704 1.055z" transform="translate(-89 -77) translate(89 77) translate(17.688 .77) translate(6.933 44.297) translate(.77 1.156)"/>
                            </g>
                            <g fill="#90CAF9">
                                <path d="M.216 20.03c-.032-.002-.062-.01-.089-.027-.054-.03-.088-.088-.088-.15V9.029c0-.063.034-.12.088-.15l8.555-4.942c.055-.031.122-.031.177 0 .055.031.09.09.089.154v10.816c0 .063-.034.121-.089.154L.3 19.999c-.025.017-.054.028-.084.03zm.17-10.897v10.4l8.204-4.738v-10.4L.385 9.133z" transform="translate(-89 -77) translate(89 77) translate(17.688 .77) translate(6.933 44.297) translate(6.933 8.86)"/>
                                <path d="M3.744 17.984c-.096 0-.175-.077-.177-.173V7.026l-1.54-2.219L.384 9.094c-.036.09-.137.135-.227.1-.044-.016-.08-.05-.098-.092C.04 9.059.04 9.01.058 8.967L1.83 4.391c.022-.06.077-.104.142-.112.065-.007.128.02.166.074l1.76 2.538c.02.03.03.065.03.1v10.82c0 .048-.02.093-.055.126-.035.032-.081.05-.129.047z" transform="translate(-89 -77) translate(89 77) translate(17.688 .77) translate(6.933 44.297) translate(6.933 8.86)"/>
                                <path d="M3.744 7.168c-.057 0-.111-.029-.142-.077l-1.76-2.538c-.03-.04-.039-.09-.028-.139.012-.047.043-.087.085-.111l5.034-2.909c.079-.046.18-.024.231.05l1.76 2.539c.028.04.038.09.028.139-.01.048-.041.09-.085.115L3.852 7.145c-.033.02-.07.027-.108.023zM2.238 4.511l1.54 2.249 4.73-2.735-1.54-2.245-4.73 2.73z" transform="translate(-89 -77) translate(89 77) translate(17.688 .77) translate(6.933 44.297) translate(6.933 8.86)"/>
                                <path d="M1.984 4.622c-.047 0-.092-.019-.124-.052-.033-.033-.05-.078-.05-.125V3.263c0-.064.034-.123.089-.155l5.034-2.9c.055-.03.123-.03.178 0 .053.033.087.091.088.154v1.179c0 .098-.08.177-.177.177-.098 0-.177-.08-.177-.177V.663L2.16 3.359V4.44c.002.048-.016.095-.05.13-.033.034-.08.052-.127.051zM4.9 15.307l.342-.986.024-.05c.009-.026.028-.047.053-.058l.12-.069c.01-.005.024-.005.035 0 .006.012.006.027 0 .039v1.54c.004.018.004.037 0 .054-.007.017-.02.03-.035.039l-.143.085h-.034c-.007-.013-.007-.027 0-.039v-.932l-.231.67s0 .035-.027.054c-.01.019-.024.034-.043.042l-.092.054c-.013.01-.03.01-.043 0l-.023-.023-.235-.404v.936c.004.018.004.036 0 .054-.01.014-.02.027-.034.038l-.147.085c-.01.007-.024.007-.034 0-.006-.012-.006-.026 0-.039v-1.54c-.004-.018-.004-.036 0-.054.01-.015.02-.028.034-.039l.124-.07h.05l.027.024.312.59zM5.816 15.596c-.01.006-.023.006-.034 0-.005-.012-.005-.026 0-.038v-1.541c-.003-.018-.003-.036 0-.054.008-.015.02-.028.034-.038l.147-.085c.008-.008.022-.008.03 0 .007.012.007.026 0 .038v1.541c-.002.036-.019.069-.046.092l-.13.085zM7.122 14.545h.035c.006.012.006.026 0 .038v.17c.005.017.005.036 0 .054-.007.016-.02.03-.035.038l-.77.45c-.009.009-.022.009-.031 0v-1.574c-.005-.018-.005-.037 0-.055.006-.015.017-.029.03-.038l.147-.085c.01-.007.024-.007.035 0 .005.013.005.026 0 .039v1.31l.59-.347zM8.297 14.067c.005.018.005.036 0 .054-.006.017-.019.03-.035.038l-.17.1c-.017.01-.039.01-.057 0h-.023l-.424-.385v.624c.004.017.004.034 0 .05-.008.017-.02.031-.034.043l-.147.08c-.01.01-.024.01-.035 0-.004-.01-.004-.023 0-.034v-1.54c-.003-.018-.003-.037 0-.055.009-.015.02-.028.035-.038l.147-.085c.01-.007.024-.007.034 0 .005.013.005.026 0 .039v.562l.385-.801c.007-.022.02-.042.035-.058.013-.017.028-.031.046-.042l.162-.093c.011-.005.024-.005.035 0 .005.013.005.027 0 .039.003.014.003.028 0 .042l-.482.979.528.481z" transform="translate(-89 -77) translate(89 77) translate(17.688 .77) translate(6.933 44.297) translate(6.933 8.86)"/>
                            </g>
                        </g>
                        <g>
                            <path fill="#000" d="M1.58 33.665c-.406-.006-.791-.178-1.067-.476-.276-.297-.418-.694-.394-1.099v-20.7c.009-.441.132-.873.359-1.252.212-.382.521-.701.897-.924l15-8.648c.256-.155.55-.239.85-.243.59-.006 1.122.355 1.333.906.07.22.106.448.108.678v20.7c-.034.885-.5 1.697-1.248 2.172L2.396 33.427c-.086.047-.175.09-.266.127-.176.069-.362.107-.55.111z" opacity=".1" transform="translate(-89 -77) translate(89 77) translate(17.688 .77) translate(27.733 32.356)"/>
                            <g>
                                <path fill="#FAFAFA" d="M18.874 1.868c-.027-.514-.3-.984-.732-1.263L17.55.262c-.457-.235-.999-.235-1.456 0L1.098 8.906c-.433.28-.705.749-.732 1.263v20.7c.029.514.3.983.732 1.263l.593.343c.458.232.998.232 1.456 0l14.995-8.647c.433-.28.705-.75.732-1.264V1.868z" transform="translate(-89 -77) translate(89 77) translate(17.688 .77) translate(27.733 32.356) translate(.77 1.156)"/>
                                <path fill="#E0E0E0" d="M.35 30.869c.03.514.301.983.732 1.263l.594.343c.415.208.9.229 1.332.058-.343.13-.604-.066-.604-.482v-20.7c.008-.252.081-.499.211-.716L.566 9.449c-.13.218-.204.466-.215.72v20.7z" transform="translate(-89 -77) translate(89 77) translate(17.688 .77) translate(27.733 32.356) translate(.77 1.156)"/>
                                <path fill="#F0F0F0" d="M18.832 1.66c-.085-.312-.366-.408-.701-.216l-15 8.648c-.215.132-.392.32-.512.543L.566 9.452c.123-.221.301-.408.516-.543L16.074.262c.46-.23 1-.23 1.46 0l.597.343c.369.24.622.622.7 1.055z" transform="translate(-89 -77) translate(89 77) translate(17.688 .77) translate(27.733 32.356) translate(.77 1.156)"/>
                            </g>
                            <g fill="#90CAF9">
                                <path d="M3.582 18.682c-.843 0-1.633-.463-2.342-1.372C-.793 14.7.304 9.017 2.585 7.138c1.54-1.264 2.345-1.087 2.904-.713.495-.277.92-.664 1.24-1.133.69-.966 1.647-1.71 2.754-2.137.577-.237 1.24-.082 1.653.385 1.125 1.179 1.39 4.587-.112 8.254-2.134 5.2-4.302 5.435-4.826 5.416-.258.32-1.268 1.456-2.589 1.472h-.027zm1.04-12.176c-.427 0-.994.223-1.814.901C.686 9.16-.377 14.66 1.518 17.095c.647.828 1.363 1.24 2.087 1.236 1.33-.02 2.362-1.394 2.373-1.41.042-.053.11-.08.177-.069.02 0 2.273.335 4.542-5.192 1.452-3.533 1.232-6.78.185-7.877-.318-.365-.834-.484-1.28-.297C8.554 3.89 7.648 4.597 7 5.516c-.32.458-.726.85-1.194 1.155l.065.058c.278.231.462.385.69.34.316-.047.832-.444 1.228-1.199.03-.055.087-.09.15-.092.062-.002.12.03.153.083.033.053.035.12.006.175-.386.77-.979 1.302-1.483 1.379-.37.016-.727-.137-.971-.416-.265-.288-.63-.465-1.02-.493z" transform="translate(-89 -77) translate(89 77) translate(17.688 .77) translate(27.733 32.356) translate(5.393 8.86)"/>
                                <path d="M6.656 7.365c-.094.002-.173-.072-.177-.166C6.383 4.838 7.815 1.225 9.214.29c.08-.053.19-.03.242.05.054.08.031.19-.05.243-1.294.866-2.665 4.383-2.577 6.602.002.046-.014.09-.045.125-.031.034-.074.054-.12.056h-.008z" transform="translate(-89 -77) translate(89 77) translate(17.688 .77) translate(27.733 32.356) translate(5.393 8.86)"/>
                                <path d="M6.11 5.058h-.028c-.3-.018-.566-.199-.693-.47-.44-.817-.212-2.161-.204-2.22.011-.06.05-.112.104-.142.042-.023 1.04-.574 1.756-.073.643.45.497 1.591.112 2.211-.213.39-.606.65-1.048.694zm-.532-2.516c-.039.312-.131 1.275.177 1.85.058.14.19.237.343.25.303-.04.567-.226.708-.497.324-.52.385-1.376 0-1.653-.385-.277-1.001-.054-1.228.05z" transform="translate(-89 -77) translate(89 77) translate(17.688 .77) translate(27.733 32.356) translate(5.393 8.86)"/>
                            </g>
                        </g>
                        <g>
                            <path fill="#000" d="M1.606 33.511c-.405-.006-.79-.178-1.065-.474-.275-.297-.418-.693-.395-1.097V11.232c.01-.441.133-.873.359-1.252.213-.381.522-.7.897-.924l15-8.648c.259-.152.553-.235.854-.239.59-.005 1.121.356 1.333.906.07.219.107.447.108.678v20.703c-.034.886-.5 1.698-1.248 2.173l-14.988 8.64c-.087.048-.177.09-.27.127-.186.075-.384.114-.585.115z" opacity=".1" transform="translate(-89 -77) translate(89 77) translate(17.688 .77) translate(6.933 72.8)"/>
                            <g>
                                <path fill="#FAFAFA" d="M18.84 2.1c-.03-.512-.3-.98-.728-1.26l-.598-.343c-.456-.235-.999-.235-1.456 0L1.063 9.14c-.43.28-.7.748-.728 1.26v20.7c.03.51.3.977.728 1.256l.593.343c.458.23.999.23 1.456 0l14.992-8.636c.43-.282.7-.75.728-1.264l.008-20.7z" transform="translate(-89 -77) translate(89 77) translate(17.688 .77) translate(6.933 72.8) translate(.77 .77)"/>
                                <path fill="#E0E0E0" d="M.335 31.104c.03.509.3.973.728 1.252l.593.343c.416.207.9.228 1.333.057-.343.131-.605-.065-.605-.481V11.586c.009-.253.083-.5.216-.716L.547 9.684c-.13.218-.203.466-.212.72v20.7z" transform="translate(-89 -77) translate(89 77) translate(17.688 .77) translate(6.933 72.8) translate(.77 .77)"/>
                                <path fill="#F0F0F0" d="M18.816 1.895c-.084-.312-.385-.408-.704-.216l-15 8.648c-.215.133-.391.32-.512.543L.55 9.687c.121-.222.298-.41.513-.543L16.058.497c.458-.231.999-.231 1.456 0l.598.343c.369.24.623.622.704 1.055z" transform="translate(-89 -77) translate(89 77) translate(17.688 .77) translate(6.933 72.8) translate(.77 .77)"/>
                            </g>
                            <g fill="#90CAF9">
                                <path d="M4.68 15.766c-.033 0-.065-.009-.092-.027-.055-.032-.087-.091-.085-.154C4.633 7.904 9.969.809 14.294.058c.049-.01.1.001.139.03.038.033.063.078.07.128 0 .17.284 4.202-3.957 9.95-3.054 4.136-5.673 5.523-5.777 5.58-.028.013-.058.02-.089.02zM14.156.443C10.053 1.34 5.123 8 4.865 15.277c.743-.463 2.95-2.003 5.393-5.32 3.64-4.926 3.894-8.636 3.898-9.514z" transform="translate(-89 -77) translate(89 77) translate(17.688 .77) translate(6.933 72.8) translate(3.852 7.319)"/>
                                <path d="M12.295 7.284c-1.802-.112-2.754-1.672-2.611-4.287.002-.047.022-.09.057-.122.035-.031.08-.047.128-.044.096.006.17.089.165.185-.13 2.392.705 3.821 2.284 3.914.097.008.169.092.162.188-.002.047-.023.09-.057.122-.035.031-.081.047-.128.044zM1.402 18.07c-.37.004-.727-.134-.998-.386-.057-.055-.072-.142-.034-.212 1.298-2.457 3.24-3.443 4.406-3.128.093.027.148.123.124.216-.011.046-.04.085-.081.109-.041.023-.09.028-.135.014-1.029-.277-2.766.701-3.937 2.828.26.17.577.233.882.173.967-.135 2.215-1.079 2.9-2.203.056-.073.157-.092.235-.044.078.047.107.147.066.229-.735 1.201-2.091 2.218-3.154 2.368-.09.018-.182.03-.274.035z" transform="translate(-89 -77) translate(89 77) translate(17.688 .77) translate(6.933 72.8) translate(3.852 7.319)"/>
                                <path d="M5.35 20.95c-.033-.001-.066-.01-.096-.027-1.371-.893-1.406-3.443-.736-5.392.014-.044.045-.08.087-.102.041-.02.089-.024.133-.01.092.031.142.13.112.223-.613 1.765-.586 4.003.439 4.865.986-2.037.77-4.622.046-5.28-.034-.033-.053-.077-.053-.124 0-.046.019-.091.053-.123.032-.033.077-.052.123-.052s.09.019.123.052c.917.863 1.067 3.748-.065 5.89-.024.042-.065.073-.112.084l-.054-.004zM10.37 8.767c-1.095-.043-1.877-1.502-1.927-2.839-.002-.096.073-.177.17-.181.047-.003.093.013.127.045.035.032.054.077.054.124.038 1.156.724 2.466 1.583 2.5.087.013.151.088.151.176 0 .087-.064.162-.151.175h-.008zM9.013 10.335h-.027c-.697-.112-1.471-1.383-1.59-2.312-.013-.064.01-.131.062-.173.052-.041.122-.05.183-.024.06.027.1.085.105.151.108.836.809 1.926 1.298 2 .088.018.148.099.14.188-.007.09-.08.16-.17.162v.008zM7.78 11.871h-.03c-.582-.104-1.263-1.244-1.367-1.88-.008-.045.003-.093.03-.13.028-.038.07-.063.116-.07.046-.008.093.002.13.029.039.027.064.068.07.114.1.605.724 1.54 1.083 1.59.087.02.148.1.14.19-.008.09-.082.159-.171.161v-.004zM6.436 13.304h-.038c-.453-.14-.798-.512-.905-.974-.022-.095.036-.19.13-.212.095-.022.19.037.213.131.079.329.317.597.635.713.094.02.154.113.135.208-.018.079-.088.135-.17.134zM11.586 4.102c-.077 0-.152-.02-.22-.058-.18-.127-.28-.341-.261-.562.005-.448.226-.867.593-1.125.153-.1.348-.109.509-.023.184.125.286.34.265.563-.006.448-.228.865-.597 1.12-.087.052-.187.081-.289.085zm.386-1.475c-.04.002-.08.016-.112.038-.26.192-.415.494-.42.817 0 .15.046.235.089.258.042.023.115 0 .154-.027.258-.193.413-.494.42-.816 0-.154-.047-.235-.089-.258-.008-.006-.017-.01-.027-.012h-.015zM6.22 8.717c-.069-.001-.131-.041-.161-.104-.235-.524-1.321-.247-1.333-.247-.062.017-.13-.002-.173-.05-.046-.045-.061-.113-.039-.173.316-.94 2.146-3.005 3.613-3.282.046-.009.093 0 .132.027.038.026.064.066.073.112.01.045 0 .093-.026.132-.026.038-.067.065-.113.072-1.194.227-2.696 1.822-3.216 2.758.435-.058 1.155-.054 1.406.508.019.043.02.091.004.134-.017.044-.05.079-.093.097-.023.011-.048.016-.073.016z" transform="translate(-89 -77) translate(89 77) translate(17.688 .77) translate(6.933 72.8) translate(3.852 7.319)"/>
                            </g>
                        </g>
                        <g>
                            <path fill="#000" d="M1.58 33.407c-.406-.006-.791-.178-1.067-.476-.276-.297-.418-.694-.394-1.1v-20.7c.009-.44.132-.872.359-1.25.212-.383.521-.702.897-.925l15-8.648c.257-.154.55-.237.85-.239.59-.007 1.121.352 1.333.902.069.22.105.448.108.678V22.34c-.034.885-.5 1.697-1.248 2.172L2.396 33.161c-.086.048-.175.092-.266.13-.176.07-.362.109-.55.116z" opacity=".1" transform="translate(-89 -77) translate(89 77) translate(17.688 .77) translate(27.733 60.86)"/>
                            <g>
                                <path fill="#FAFAFA" d="M18.874 2.03c-.028-.513-.3-.98-.732-1.26L17.55.428c-.457-.236-.999-.236-1.456 0L1.098 9.07c-.433.28-.705.75-.732 1.264v20.7c.03.513.3.982.732 1.263l.593.343c.458.231.998.231 1.456 0l14.995-8.648c.434-.28.706-.751.732-1.267V2.03z" transform="translate(-89 -77) translate(89 77) translate(17.688 .77) translate(27.733 60.86) translate(.77 .77)"/>
                                <path fill="#E0E0E0" d="M.35 31.035c.03.513.301.982.732 1.263l.594.343c.415.207.9.228 1.332.058-.343.127-.604-.066-.604-.482v-20.7c.008-.253.081-.5.211-.716L.566 9.63c-.131.218-.205.466-.215.72v20.685z" transform="translate(-89 -77) translate(89 77) translate(17.688 .77) translate(27.733 60.86) translate(.77 .77)"/>
                                <path fill="#F0F0F0" d="M18.832 1.826c-.085-.312-.366-.409-.701-.216l-15 8.648c-.213.128-.39.31-.512.527L.566 9.63c.123-.223.3-.412.516-.547L16.074.439c.46-.23 1-.23 1.46 0l.597.343c.366.238.62.615.7 1.044z" transform="translate(-89 -77) translate(89 77) translate(17.688 .77) translate(27.733 60.86) translate(.77 .77)"/>
                            </g>
                            <g fill="#90CAF9">
                                <path d="M3.394 13.659c-.797.007-1.583-.184-2.289-.555-.04-.02-.07-.055-.085-.098-.015-.042-.012-.089.008-.13L6.856.167c.022-.054.07-.092.127-.1.058-.012.118.007.158.05l5.832 5.982c.055.056.065.144.023.211-1.648 2.781-3.74 5.008-5.893 6.237-1.118.688-2.397 1.072-3.71 1.113zm-1.977-.79c1.541.77 3.502.532 5.509-.628 2.072-1.194 4.09-3.32 5.7-5.997L7.068.544l-5.65 12.325z" transform="translate(-89 -77) translate(89 77) translate(17.688 .77) translate(27.733 60.86) translate(4.237 10.785)"/>
                                <path d="M2.92 15.365c-.894.008-1.775-.207-2.566-.624-.04-.02-.07-.055-.085-.098-.015-.042-.012-.089.008-.13L6.857.167c.02-.054.07-.092.126-.1.058-.012.118.007.158.05l6.58 6.748c.054.059.063.147.022.216-1.852 3.131-4.213 5.627-6.64 7.03-1.26.776-2.703 1.21-4.183 1.255zm-2.254-.859c1.76.863 3.976.616 6.26-.7 2.35-1.357 4.622-3.764 6.448-6.792L7.068.544.666 14.505z" transform="translate(-89 -77) translate(89 77) translate(17.688 .77) translate(27.733 60.86) translate(4.237 10.785)"/>
                                <path d="M.435 14.76c-.024.006-.049.006-.073 0-.042-.019-.075-.054-.09-.098-.016-.043-.014-.09.005-.133L6.857.181c.02-.054.07-.092.126-.1.058-.012.118.007.158.05l6.58 6.748c.068.07.068.182 0 .25-.033.034-.078.052-.124.052s-.09-.018-.123-.051L7.072.562.601 14.68c-.037.055-.1.086-.166.081z" transform="translate(-89 -77) translate(89 77) translate(17.688 .77) translate(27.733 60.86) translate(4.237 10.785)"/>
                                <path d="M6.958 4.195c-.078.001-.154-.02-.214-.062-.233-.158-.175-.624.162-1.39.03-.063.099-.108.18-.116.085-.007.166.026.21.085.242.302.346.663.294 1.02-.053.164-.187.303-.37.386-.077.045-.167.071-.262.077zm.186-.886c-.059.163-.095.33-.11.5.069-.038.118-.096.138-.161.023-.114.013-.23-.028-.34zM6.959 10.608c-.078 0-.154-.022-.214-.062-.234-.157-.177-.627.161-1.39.029-.063.099-.108.181-.116.084-.01.166.023.21.081.24.304.344.666.294 1.025-.055.163-.189.302-.37.385-.079.043-.169.07-.262.077zm.185-.89c-.058.164-.094.331-.11.501.07-.038.12-.096.139-.162.023-.113.013-.23-.029-.339zM10.306 7.835c-.037 0-.074-.006-.108-.02-.305-.104-.335-.67-.31-1.132.005-.052.035-.1.082-.131.047-.032.107-.042.164-.027.06 0 .588.143.722.493.066.215 0 .445-.172.605-.084.118-.223.196-.378.212zm-.03-.882c-.003.166.017.331.06.493l.043-.043c.094-.111.129-.2.103-.27-.044-.08-.117-.143-.207-.18zM3.631 11.671h-.043c-.13-.006-.247-.075-.303-.18-.172-.336.368-1.072.606-1.372.049-.06.135-.086.215-.066.08.021.137.084.143.158 0 .17.052 1.044-.302 1.348-.084.075-.198.115-.316.112zm.199-.797c-.104.14-.168.302-.186.47 0-.023 0-.027.03-.043.095-.127.149-.275.156-.427zM5.412 8.174c-.114.003-.223-.042-.29-.12-.224-.266.13-.916.46-1.417.044-.063.129-.098.215-.089.087.011.156.067.174.139.023.088.216.886-.091 1.267-.085.113-.224.19-.381.212-.029.006-.058.008-.087.008zm.225-.825c-.084.147-.14.302-.17.463.029-.012.053-.03.069-.054.077-.126.112-.267.1-.409zM8.508 6.41c-.05 0-.098-.01-.14-.031-.25-.112-.3-.532-.155-1.256.013-.058.059-.107.122-.131.06-.027.131-.027.19 0 .305.154.522.405.604.697.022.211-.078.418-.267.555-.088.093-.215.152-.354.166zm.081-.913c-.022.171-.022.344 0 .516.094-.065.148-.163.145-.266-.022-.096-.08-.183-.163-.25h.018z" transform="translate(-89 -77) translate(89 77) translate(17.688 .77) translate(27.733 60.86) translate(4.237 10.785)"/>
                            </g>
                        </g>
                        <g>
                            <path fill="#000" d="M1.791 25.446c-.404-.006-.788-.176-1.063-.471-.276-.296-.419-.69-.397-1.093V15.87c.03-.89.501-1.705 1.256-2.177L24.899.285c.258-.155.553-.24.855-.243.588-.005 1.118.356 1.329.906h.019c.069.219.105.447.108.677V9.63c-.03.886-.498 1.7-1.248 2.172L2.642 25.214c-.086.048-.175.09-.265.127-.187.071-.386.107-.586.105z" opacity=".1" transform="translate(-89 -77) translate(89 77) translate(17.688 .77) translate(15.022 91.675)"/>
                            <g>
                                <path fill="#90CAF9" d="M26.963 1.976c-.028-.514-.3-.983-.732-1.263L25.638.37c-.458-.232-.998-.232-1.456 0L.874 13.778c-.431.28-.703.75-.731 1.264v8c.028.514.3.983.731 1.263l.594.343c.457.232.998.232 1.456 0L26.235 11.24c.43-.282.7-.75.728-1.264v-8z" transform="translate(-89 -77) translate(89 77) translate(17.688 .77) translate(15.022 91.675) translate(1.156 .77)"/>
                                <path fill="#A2CEF6" d="M26.963 1.976c-.028-.514-.3-.983-.732-1.263L25.638.37c-.458-.232-.998-.232-1.456 0L.874 13.778c-.431.28-.703.75-.731 1.264v8c.028.514.3.983.731 1.263l.594.343c.457.232.998.232 1.456 0L26.235 11.24c.43-.282.7-.75.728-1.264v-8z" opacity=".15" transform="translate(-89 -77) translate(89 77) translate(17.688 .77) translate(15.022 91.675) translate(1.156 .77)"/>
                                <path fill="#000" d="M.131 23.042c.029.514.3.983.732 1.263l.593.343c.416.208.9.229 1.333.058-.343.13-.605-.066-.605-.482v-7.996c.008-.254.081-.502.212-.72l-2.05-1.183c-.13.217-.205.463-.215.717v8z" opacity=".3" transform="translate(-89 -77) translate(89 77) translate(17.688 .77) translate(15.022 91.675) translate(1.156 .77)"/>
                                <path fill="#000" d="M26.928 1.768c-.088-.308-.385-.408-.704-.212L2.912 14.965c-.216.132-.393.32-.512.543L.347 14.325c.123-.222.3-.409.516-.543L24.17.385c.457-.231.998-.231 1.456 0l.597.347c.364.237.618.61.704 1.036z" opacity=".15" transform="translate(-89 -77) translate(89 77) translate(17.688 .77) translate(15.022 91.675) translate(1.156 .77)"/>
                            </g>
                            <path fill="#FAFAFA" d="M5.616 22.102c-.024.02-.06.02-.085 0-.029-.031-.043-.073-.038-.116V17.41c0-.053.013-.106.038-.154.017-.043.047-.08.085-.107l1.483-.856c.154-.101.332-.158.516-.165.128-.001.25.05.34.142.093.11.156.243.18.386.04.16.059.326.058.493 0 .129-.01.257-.03.385-.017.102-.042.202-.074.3-.021.078-.05.154-.085.227-.02.05-.043.097-.07.143.122.061.213.17.251.3.052.183.076.373.07.563 0 .2-.018.4-.054.597-.037.205-.098.406-.181.597-.085.194-.195.375-.328.54-.14.167-.307.307-.497.415l-1.579.886zm1.722-4.445c.012-.09-.015-.18-.073-.25-.047-.047-.116-.043-.208 0l-.713.412v.809l.713-.412c.092-.054.164-.135.208-.232.049-.102.074-.214.073-.327zm-.994 2.931l.77-.439c.097-.06.174-.147.22-.25.054-.112.083-.234.085-.358.008-.094-.023-.188-.085-.259-.054-.05-.127-.05-.22 0l-.77.44v.866zM11.405 13.809c.025-.02.06-.02.085 0 .029.031.043.073.039.116v2.823c0 .31-.033.618-.1.92-.065.277-.162.544-.29.798-.117.232-.266.448-.442.64-.165.18-.356.334-.567.458-.173.107-.367.175-.57.2-.157.014-.315-.033-.439-.131-.139-.124-.238-.286-.285-.466-.076-.261-.11-.533-.104-.805v-2.824c.002-.054.015-.108.039-.157.019-.044.05-.081.088-.108l.601-.347c.026-.021.063-.021.089 0 .026.031.038.071.034.112v2.796c-.02.205.028.41.135.586.093.108.228.111.412 0 .188-.108.334-.277.413-.478.093-.236.139-.49.134-.743v-2.797c0-.054.014-.106.039-.154.017-.044.046-.081.085-.108l.604-.331zM13.82 17.176c0 .053-.012.105-.034.154-.017.045-.048.083-.089.107l-.6.347c-.026.021-.064.021-.09 0-.026-.032-.038-.074-.034-.115v-1.491l-1.063-2.396c-.006-.027-.006-.054 0-.08.001-.045.012-.088.03-.128.014-.035.039-.065.07-.085l.632-.385c.061-.035.108-.038.139 0 .022.02.04.045.053.073l.578 1.406.586-2.076c.014-.048.032-.094.054-.139.029-.063.077-.116.138-.15l.632-.362c.02-.017.05-.017.07 0 .021.026.033.059.03.093-.002.035-.008.07-.02.104l-1.062 3.62-.02 1.503zM18.235 14.818c-.054.031-.097.031-.127 0-.025-.017-.046-.04-.062-.065l-1.052-1.81v2.391c0 .054-.013.107-.038.154-.018.044-.047.08-.085.108l-.605.347c-.034.02-.061.02-.084 0-.029-.03-.043-.07-.039-.112v-4.568c0-.054.013-.107.039-.154.015-.045.045-.083.084-.108l.478-.277c.054-.027.096-.031.127 0 .025.016.045.037.062.061l1.051 1.814v-2.392c.002-.054.015-.108.039-.157.018-.044.049-.08.089-.104l.6-.347c.025-.023.064-.023.089 0 .026.031.038.071.035.112v4.572c0 .054-.012.108-.035.158-.019.042-.05.078-.089.104l-.477.273zM19.375 11.055c.009-.274.046-.547.112-.813.063-.267.158-.525.28-.77.12-.239.268-.463.44-.667.17-.198.374-.366.6-.497.18-.115.385-.182.598-.192.162-.006.32.049.443.154.134.119.232.274.281.447.07.22.109.45.116.682v1.259c-.013.274-.051.546-.116.813-.064.266-.159.525-.281.77-.117.241-.266.465-.443.667-.174.197-.378.364-.605.497-.18.116-.387.183-.6.196-.161.004-.317-.05-.44-.154-.132-.123-.229-.278-.281-.45-.07-.221-.108-.451-.112-.683v-.62c0-.235 0-.435.008-.64zm2.018.058v-.29-.319-.312-.27c-.005-.1-.021-.2-.05-.296-.02-.072-.057-.138-.108-.193-.048-.045-.11-.07-.177-.073-.089.005-.175.033-.25.08-.094.055-.178.125-.247.209-.072.082-.132.174-.177.273-.05.104-.087.212-.112.324-.027.115-.042.232-.046.35v1.191c-.005.178.05.354.158.497.093.1.235.096.424 0 .19-.11.338-.277.424-.478.095-.22.15-.454.161-.693zM24.968 8.559l.296-2.562c.006-.063.024-.125.054-.18.023-.037.051-.068.085-.093l.605-.347c.02-.017.05-.017.07 0 .023.025.034.059.03.093.002.02.002.04 0 .061l-.593 4.815c-.01.079-.035.154-.073.224-.033.074-.088.136-.158.177l-.385.22c-.062.034-.112.034-.147 0-.042-.035-.07-.083-.08-.136l-.347-1.402-.343 1.8c-.017.08-.044.157-.081.23-.032.07-.084.13-.15.17l-.386.223c-.047.033-.11.033-.157 0-.044-.035-.07-.087-.074-.142l-.593-4.13v-.053c.001-.045.012-.088.031-.128.015-.035.039-.066.07-.088l.604-.347c.027-.013.058-.013.085 0 .03 0 .046.05.058.116l.292 2.222.27-1.436c0-.035.023-.09.042-.15.02-.061.062-.113.116-.147l.431-.247c.054-.033.093-.033.116 0 .019.033.033.068.042.104l.27 1.133z" transform="translate(-89 -77) translate(89 77) translate(17.688 .77) translate(15.022 91.675)"/>
                        </g>
                        <g>
                            <path fill="#DCE8FD" d="M0.131 27.537L10.134 41.566 57.293 14.341 47.282 0.316z" transform="translate(-89 -77) translate(89 77) translate(17.688 .77) translate(5.778 10.4)"/>
                            <path fill="#FAFAFA" d="M4.41 25.064L8.698 22.587 18.705 36.616 14.418 39.089zM12.989 20.114L17.276 17.638 27.287 31.666 23 34.139zM21.57 15.165L25.858 12.688 35.865 26.713 31.578 29.19zM30.149 10.215L34.436 7.738 44.443 21.763 40.156 24.24zM38.727 5.266L43.014 2.789 53.021 16.813 48.734 19.29z" transform="translate(-89 -77) translate(89 77) translate(17.688 .77) translate(5.778 10.4)"/>
                            <path fill="#E0E0E0" d="M14.418 39.089c0 1.367.959 1.926 2.145 1.236 1.264-.824 2.06-2.202 2.142-3.71l-4.287 2.474zM22.992 34.14c0 1.367.959 1.925 2.141 1.236 1.265-.825 2.062-2.202 2.146-3.71l-4.287 2.473zM31.562 29.19c0 1.367.96 1.925 2.146 1.24 1.264-.826 2.06-2.205 2.141-3.713l-4.287 2.473zM40.137 24.24c0 1.367.959 1.926 2.141 1.24 1.265-.826 2.06-2.205 2.142-3.713l-4.283 2.473zM48.707 19.294c0 1.364.96 1.926 2.142 1.236 1.266-.824 2.063-2.204 2.145-3.713l-4.287 2.477z" transform="translate(-89 -77) translate(89 77) translate(17.688 .77) translate(5.778 10.4)"/>
                            <path fill="#90CAF9" d="M10.134 41.562c0 1.367.96 1.926 2.142 1.24 1.264-.826 2.06-2.205 2.142-3.713l-4.284 2.473zM18.705 36.616c0 1.363.959 1.926 2.141 1.236 1.267-.824 2.064-2.204 2.146-3.713l-4.287 2.477zM27.275 31.666c0 1.368.963 1.926 2.146 1.237 1.265-.826 2.06-2.205 2.141-3.713l-4.287 2.476zM35.85 26.717c0 1.367.959 1.926 2.141 1.236 1.267-.824 2.065-2.204 2.146-3.713l-4.288 2.477zM44.42 21.767c0 1.367.959 1.926 2.145 1.236 1.264-.824 2.06-2.202 2.142-3.709l-4.287 2.473zM52.994 16.817c0 1.368.96 1.926 2.142 1.237 1.265-.824 2.06-2.202 2.141-3.71l-4.283 2.473z" transform="translate(-89 -77) translate(89 77) translate(17.688 .77) translate(5.778 10.4)"/>
                            <g fill="#DCE8FD" opacity=".15">
                                <path d="M.12 27.31c0 1.367.959 1.926 2.141 1.24 1.265-.826 2.06-2.205 2.142-3.713L.119 27.31zM8.69 22.364c0 1.364.959 1.926 2.141 1.236 1.267-.824 2.064-2.204 2.146-3.713L8.69 22.364zM17.26 17.414c0 1.368.963 1.926 2.146 1.237 1.265-.826 2.06-2.205 2.141-3.713l-4.287 2.476zM25.835 12.465c0 1.367.959 1.926 2.141 1.236 1.268-.824 2.065-2.204 2.146-3.713l-4.287 2.477zM34.405 7.515c0 1.367.96 1.926 2.145 1.236 1.264-.824 2.06-2.202 2.142-3.709l-4.287 2.473zM42.98 2.565c0 1.368.958 1.926 2.14 1.237 1.266-.824 2.061-2.202 2.142-3.71L42.98 2.565z" transform="translate(-89 -77) translate(89 77) translate(17.688 .77) translate(5.778 10.4) translate(10.015 14.252)"/>
                            </g>
                            <path fill="#90CAF9" d="M10.134 41.562L0.131 34.139 0.131 27.537z" transform="translate(-89 -77) translate(89 77) translate(17.688 .77) translate(5.778 10.4)"/>
                            <path fill="#A6CCF7" d="M10.134 41.562L0.131 34.139 0.131 27.537z" opacity=".2" transform="translate(-89 -77) translate(89 77) translate(17.688 .77) translate(5.778 10.4)"/>
                        </g>
                    </g>
                </g>
                <g transform="translate(-89 -77) translate(89 77) translate(107.437 43.141)">
                    <path fill="#90CAF9" fill-rule="nonzero" d="M7.484 59.596L43.434 80.354 66.071 67.285 30.118 46.523z"/>
                    <path fill="#000" fill-rule="nonzero" d="M7.484 59.596L43.434 80.354 66.071 67.285 30.118 46.523z" opacity=".5"/>
                    <path fill="#000" fill-rule="nonzero" d="M62.612 64.912L32.23 47.355c-.87-.443-1.9-.443-2.77 0l-10.681 6.163c-2.757-.28-5.536.227-8.016 1.464-3.736 1.995-4.26 5.18-1.155 7.114 2.973 1.857 8.22 1.876 11.94.096l22.877 13.216c.87.443 1.9.443 2.77 0L62.6 66.51c.778-.443.778-1.16.011-1.598z" opacity=".15"/>
                    <path fill="#90CAF9" fill-rule="nonzero" d="M30.118 14.237L30.118 46.523 7.484 59.596 2.153 30.384z"/>
                    <path fill="#000" fill-rule="nonzero" d="M2.153 30.384L30.118 14.237 30.118 46.523 7.484 59.596 2.153 30.384" opacity=".4"/>
                    <path fill="#90CAF9" fill-rule="nonzero" d="M71.398 38.072L66.071 67.285 30.118 46.523 30.118 14.237z"/>
                    <path fill="#000" fill-rule="nonzero" d="M71.398 38.072L66.071 67.285 30.118 46.523 30.118 14.237z" opacity=".3"/>
                    <path fill="#455A64" fill-rule="nonzero" d="M73.228 38.072h-1.83l-41.28-23.82L2.153 30.399l.412.235-2.241-.235c.035-.36.26-.672.589-.82L28.696 13.52c.893-.45 1.947-.45 2.84 0l41.106 23.731c.158.085.586.432.586.82z"/>
                    <path fill="#90CAF9" fill-rule="nonzero" d="M50.633 2.219L49.655.447c.686-.35 1.5-.343 2.18.02h-.02c.614.416.917 1.16.77 1.886-1.07 4.45-4.822 20.346-4.91 20.504l-1.637-.955 4.595-19.683z"/>
                    <path fill="#000" fill-rule="nonzero" d="M50.633 2.219L49.655.447c.686-.35 1.5-.343 2.18.02h-.02c.614.416.917 1.16.77 1.886-1.07 4.45-4.822 20.346-4.91 20.504l-1.637-.955 4.595-19.683z" opacity=".25"/>
                    <path fill="#90CAF9" fill-rule="nonzero" d="M53.264 1.313c.64.432 1.08 1.102 1.22 1.86l3.625 25.685-1.822-1.051-3.813-25.265-1.356-1.202c.671-.347 1.466-.357 2.146-.027zM20.939 17.045L21.524 19.117 50.633 2.219 49.655.447z"/>
                    <path fill="#000" fill-rule="nonzero" d="M20.939 17.045L21.524 19.117 50.633 2.219 49.655 0.447z" opacity=".25"/>
                    <path fill="#90CAF9" fill-rule="nonzero" d="M51.118 1.34L52.474 2.542 22.599 19.953 21.524 18.285z"/>
                    <path fill="#000" fill-rule="nonzero" d="M22.19 44.89c3.991 2.31 10.458 2.31 14.449 0 3.99-2.311 3.99-6.04 0-8.343-3.99-2.304-10.458-2.312-14.448 0-3.99 2.31-3.99 6.04 0 8.343z" opacity=".05"/>
                    <path fill="#EBEBEB" fill-rule="nonzero" d="M39.054 40.66V23.435H21.817V40.66c-.073 1.325.77 2.666 2.515 3.679 3.367 1.945 8.829 1.945 12.2 0 1.763-1.013 2.595-2.354 2.522-3.679z"/>
                    <path fill="#FAFAFA" fill-rule="nonzero" d="M24.344 26.963c3.366 1.945 8.828 1.945 12.199 0 3.37-1.945 3.366-5.096 0-7.041-3.367-1.945-8.833-1.926-12.2 0-3.366 1.926-3.37 5.088 0 7.041z"/>
                    <path fill="#EBEBEB" fill-rule="nonzero" d="M24.714 26.67c3.162 1.784 8.293 1.784 11.455 0 3.162-1.783 3.162-4.684 0-6.47-3.162-1.788-8.293-1.784-11.455 0-3.163 1.783-3.144 4.683 0 6.47z"/>
                    <path fill="#F5F5F5" fill-rule="nonzero" d="M36.17 21.039c-3.163-1.787-8.294-1.787-11.456 0-1.39.77-2.169 1.787-2.335 2.816.166 1.024.944 2.026 2.335 2.815 3.162 1.784 8.293 1.784 11.455 0 1.394-.79 2.169-1.79 2.338-2.815-.17-1.029-.944-2.03-2.338-2.816z"/>
                    <path fill="#90CAF9" fill-rule="nonzero" d="M21.817 37.748c0 1.283.828 2.57 2.527 3.548 3.366 1.926 8.828 1.926 12.199 0 1.683-.975 2.527-2.246 2.527-3.52V26.242c0 1.275-.844 2.55-2.527 3.52-3.37 1.926-8.833 1.926-12.2 0-1.698-.978-2.538-2.264-2.526-3.547v11.532z"/>
                    <path fill="#FFF" fill-rule="nonzero" d="M21.817 37.748c0 1.283.828 2.57 2.527 3.548 3.366 1.926 8.828 1.926 12.199 0 1.683-.975 2.527-2.246 2.527-3.52V26.242c0 1.275-.844 2.55-2.527 3.52-3.37 1.926-8.833 1.926-12.2 0-1.698-.978-2.538-2.264-2.526-3.547v11.532z" opacity=".5"/>
                    <path fill="#000" fill-rule="nonzero" d="M33.974 45.36c-3.17.816-7.026.485-9.63-1.025-1.753-1.005-2.585-2.346-2.515-3.678V23.435c0 1.275.847 2.55 2.53 3.524.268.157.546.295.832.416v15.38c-.015 1.441 4.792 3.152 8.783 2.605z" opacity=".05"/>
                    <path fill="#E0E0E0" fill-rule="nonzero" d="M32.41 26.509l-.913-.532c-.744-.428-.944-1.01-.443-1.294.5-.285 1.502-.174 2.245.254l.913.528c.744.431.944 1.009.443 1.298-.5.289-1.502.173-2.245-.254z"/>
                    <circle cx="31.944" cy="25.199" r="1" fill="#F5F5F5" fill-rule="nonzero"/>
                    <path fill="#F5F5F5" fill-rule="nonzero" d="M33.269 26.462c.309.154.673.154.982 0 .123-.04.205-.155.205-.285 0-.129-.082-.244-.205-.285-.31-.154-.673-.154-.982 0-.123.041-.206.156-.206.285 0 .13.083.244.206.285z"/>
                    <g>
                        <path fill="#EE9849" d="M.254 38.288C1.795 28.793 4.704 16.76 10.54 7.785c5.835-8.975 11.313-10.1 12.792-3.228 1.479 6.872-3.852 26.193-7.492 34.2-9.568 21.105-17.291 10.1-15.585-.47z" transform="translate(50.845 12.711)"/>
                        <g fill="#FFBDA7" fill-rule="nonzero" opacity=".8">
                            <path d="M11.432.416s-.177.085-.497.216c-.32.13-.77.304-1.294.493-.262.104-.55.208-.851.312-.3.104-.612.235-.94.339l-2.018.75-1.013.386c-.332.135-.67.254-.986.385l-.925.385c-.293.128-.574.243-.84.343-.512.224-.966.385-1.282.513-.316.127-.513.177-.513.177s.116-.162.336-.428c.304-.364.636-.704.993-1.017.224-.189.466-.385.74-.59.28-.211.574-.407.878-.585.322-.199.654-.381.994-.547.343-.18.709-.315 1.07-.47.363-.154.736-.265 1.11-.362C6.768.62 7.138.54 7.496.458 8.15.333 8.816.264 9.483.25c.654-.02 1.308.035 1.95.166z" transform="translate(50.845 12.711) translate(10.015 5.007)"/>
                        </g>
                        <g fill="#FFBDA7" fill-rule="nonzero" opacity=".8">
                            <path d="M11.525.254s-.181.089-.497.216-.77.308-1.294.497c-.266.1-.551.204-.852.308-.3.104-.612.235-.943.339l-2.015.77-1.013.385c-.335.135-.67.25-.986.386l-.928.385c-.29.127-.57.243-.836.343-.516.223-.97.385-1.287.512-.315.127-.508.177-.508.177s.112-.162.331-.427c.305-.364.639-.703.998-1.013.223-.19.462-.386.736-.594.282-.22.577-.424.882-.612.315-.185.639-.385.99-.547.35-.162.708-.316 1.07-.466.362-.15.74-.266 1.114-.385.373-.12.743-.174 1.097-.255C8.24.146 8.904.077 9.572.065c.656-.014 1.312.05 1.953.19z" transform="translate(50.845 12.711) translate(1.54 39.674)"/>
                        </g>
                        <g fill="#FFBDA7" fill-rule="nonzero" opacity=".8">
                            <path d="M14.21.512s-.228.112-.62.278c-.393.165-.933.408-1.588.678-1.305.558-3.043 1.213-4.776 1.86L2.431 5.065l-1.622.582c-.385.146-.64.216-.64.216s.143-.205.424-.532c.164-.201.343-.39.536-.562.241-.24.498-.462.77-.667 1.4-1.101 2.97-1.967 4.65-2.561C8.218.903 9.972.514 11.755.385c.592-.046 1.187-.046 1.78 0 .427.073.674.127.674.127z" transform="translate(50.845 12.711) translate(6.933 10.785)"/>
                        </g>
                        <g fill="#FFBDA7" fill-rule="nonzero" opacity=".8">
                            <path d="M14.41.593s-.224.131-.616.316c-.393.185-.917.455-1.564.77-1.295.594-3.012 1.287-4.734 1.926l-1.294.463c-.416.165-.848.292-1.252.443l-2.254.74-1.664.527c-.408.127-.662.18-.662.18.123-.195.257-.384.4-.565.156-.212.328-.41.517-.594.231-.25.478-.485.74-.704C3.411 2.939 4.99 2.038 6.69 1.433 8.37.803 10.138.446 11.929.373c.601-.017 1.203.014 1.8.093.43.058.68.127.68.127z" transform="translate(50.845 12.711) translate(4.622 17.719)"/>
                        </g>
                        <g fill="#FFBDA7" fill-rule="nonzero" opacity=".8">
                            <path d="M12.861.532s-.2.115-.55.28c-.35.166-.829.409-1.41.683-1.156.531-2.697 1.155-4.237 1.729l-1.156.42c-.385.146-.77.262-1.128.385l-2.03.674-1.487.459c-.385.115-.597.165-.597.165s.12-.192.362-.504c.14-.191.296-.37.466-.536.207-.225.428-.436.662-.632C3.003 2.62 4.421 1.81 5.947 1.263 7.456.698 9.045.377 10.654.312c.54-.015 1.082.012 1.618.08.366.078.59.14.59.14z" transform="translate(50.845 12.711) translate(1.926 32.356)"/>
                        </g>
                        <g fill="#FFBDA7" fill-rule="nonzero" opacity=".8">
                            <path d="M14.117.44s-.22.13-.612.315c-.393.185-.92.45-1.568.77-1.29.594-3.008 1.287-4.734 1.926l-1.29.463c-.42.165-.852.292-1.256.442L2.4 5.104l-1.657.512c-.408.131-.666.185-.666.185s.135-.216.404-.562c.157-.22.331-.425.52-.617.23-.25.477-.485.736-.705 1.387-1.153 2.966-2.054 4.665-2.661C8.08.626 9.849.269 11.64.196c.603-.018 1.206.013 1.803.093.227.038.452.089.674.15z" transform="translate(50.845 12.711) translate(3.082 25.037)"/>
                        </g>
                    </g>
                    <g fill-rule="nonzero" transform="translate(36.593 1.54)">
                        <ellipse cx="9.749" cy="55.128" fill="#000" opacity=".1" rx="9.506" ry="5.489"/>
                        <g>
                            <path fill="#90CAF9" d="M10.905 10.504V2.615L8.35 2.72 5.8 2.615v7.89c.017 3.145-1.13 6.187-3.22 8.539C1.294 20.477.096 22.788.039 26.459v26.577c0 1.792 1.756 3.614 5.223 4.457 2.032.497 4.154.497 6.186 0 3.466-.847 5.2-2.665 5.215-4.457V26.46c-.058-3.671-1.252-5.982-2.538-7.415-2.094-2.35-3.241-5.393-3.22-8.54z" transform="translate(1.926)"/>
                            <path fill="#60B246" d="M10.905 10.504V2.615L8.35 2.72 5.8 2.615v7.89c.017 3.145-1.13 6.187-3.22 8.539C1.294 20.477.096 22.788.039 26.459v26.577c0 1.792 1.756 3.614 5.223 4.457 2.032.497 4.154.497 6.186 0 3.466-.847 5.2-2.665 5.215-4.457V26.46c-.058-3.671-1.252-5.982-2.538-7.415-2.094-2.35-3.241-5.393-3.22-8.54z" opacity=".5" transform="translate(1.926)"/>
                            <path fill="#37474F" d="M10.909 1.741v-.065c-.011-.48-.3-.91-.74-1.102C9.033 0 7.692 0 6.556.574c-.287.15-.518.387-.659.678-.016.024-.029.05-.038.077-.002.017-.002.033 0 .05-.023.054-.036.111-.039.17V5.4c.039.46.325.864.747 1.052 1.136.574 2.478.574 3.614 0 .36-.175.624-.499.724-.886.012-.026.021-.053.027-.08l-.023-3.745z" transform="translate(1.926)"/>
                            <path fill="#455A64" d="M10.157 2.662c-1.135.577-2.478.577-3.613 0-1.001-.574-1.001-1.51 0-2.088C7.68 0 9.021 0 10.157.574c1.013.582 1.013 1.514 0 2.088z" transform="translate(1.926)"/>
                            <path fill="#FFF" d="M16.663 27.271v14.464c0 1.237-.809 2.461-2.434 3.394-2.55 1.471-6.367 1.787-9.453.932V31.585c3.082.86 6.903.547 9.453-.932 1.625-.92 2.434-2.15 2.434-3.382z" transform="translate(1.926)"/>
                        </g>
                    </g>
                    <g fill-rule="nonzero">
                        <path fill="#F28F8F" d="M6.383 5.493c-1.618.258-4.43.77-5.828 4.572-1.595 4.341.936 9.283 4.237 11.143 4.152 2.339 10.246 1.888 13.481-1.733 3.594-4.006 3.197-10.874.193-13.59-3.005-2.715-7.076-1.448-8.112-.878-1.537.852-2.708.285-3.971.486z" transform="translate(5.007 37.363)"/>
                        <path fill="#000" d="M15.966 18.874c-3.987 2.735-9.822 2.596-13.582.278.67.833 1.487 1.535 2.412 2.072 4.152 2.338 10.246 1.887 13.481-1.734 2.727-3.039 3.151-7.703 1.891-10.985.27.909.185 7.35-4.202 10.37z" opacity=".1" transform="translate(5.007 37.363)"/>
                        <g fill="#FFF" opacity=".2">
                            <path d="M4.068.177C3.008.197 1.575 1.28.924 2.793.112 4.668.24 7.19.732 8.986c.994 3.617 4.75 5.189 5.061 4.842.312-.346-2.515-2.492-1.46-6.298C5.393 3.667 5.805.154 4.068.177z" transform="translate(5.007 37.363) translate(.77 6.933)"/>
                        </g>
                        <g fill="#FFF" opacity=".2">
                            <path d="M2.546.47C1.514.94.446 2.78.235 4.02c-.212 1.24.038 2.05.22 2.177.32.223 2.28-2.119 2.888-3.143.894-1.456.871-3.344-.797-2.585z" transform="translate(5.007 37.363) translate(1.54 7.319)"/>
                        </g>
                        <path fill="#B16668" d="M8.397 8.474c-.62-.385-1.179-.574-1.394.143-.216.716 1.413 1.637 3.05.974 1.637-.662 2.107-1.822 2.015-2.373 0 0-.64 1.283-1.757 1.541-.651.134-1.33.033-1.914-.285z" transform="translate(5.007 37.363)"/>
                        <path fill="#37474F" d="M10.015 9.156c-.183-1.564-.599-3.092-1.233-4.534-.982-2.084-2.48-3.466-2.862-3.59C5.308.874 4.67.844 4.044.944c-.862.096-1.833.77-1.517 1.086.316.316 1.587.427 3.243 1.687S9.148 7.57 9.314 9.221c.227.112.498.087.7-.065z" transform="translate(5.007 37.363)"/>
                        <path fill="#455A64" d="M5.851 1.017L5.766.994C5.203.88 4.624.866 4.056.95c-.593.052-1.144.327-1.54.77-.047.132.161.282.943.313.776.037 1.55-.115 2.253-.443.328-.147.428-.435.139-.574z" transform="translate(5.007 37.363)"/>
                        <path fill="#000" d="M8.609 6.548C7.73 4.672 5.5 3.255 4.014 2.696c.624.279 1.213.629 1.756 1.044 1.656 1.264 3.378 3.852 3.544 5.504.226.108.493.081.693-.069 0 0-.058-.59-.23-1.437.034.782-.36.54-1.168-1.19z" opacity=".1" transform="translate(5.007 37.363)"/>
                        <path fill="#90CAF9" d="M9.244 5.805c1.451.067 2.829-.64 3.621-1.857 1.033-1.687.05-3.648.05-3.648-1.231-.09-2.43.423-3.216 1.376-.94 1.174-.874 3.254-.455 4.129z" transform="translate(5.007 37.363)"/>
                        <path fill="#000" d="M9.244 5.805c1.451.067 2.829-.64 3.621-1.857 1.033-1.687.05-3.648.05-3.648-1.231-.09-2.43.423-3.216 1.376-.94 1.174-.874 3.254-.455 4.129z" opacity=".3" transform="translate(5.007 37.363)"/>
                        <path fill="#90CAF9" d="M12.927.3c-1.232-.09-2.43.423-3.216 1.376-.952 1.174-.886 3.254-.455 4.129C9.922 2.696 12.926.3 12.926.3z" transform="translate(5.007 37.363)"/>
                    </g>
                    <g fill-rule="nonzero">
                        <path fill="#000" d="M4.383 23.7c3.082 1.927 8.64 1.88 12.396-.119 3.755-1.999 4.28-5.18 1.155-7.114-3.124-1.934-8.663-1.88-12.395.12-3.732 1.998-4.249 5.18-1.156 7.114z" opacity=".15" transform="translate(3.467 23.496)"/>
                        <path fill="#DF4438" d="M6.417 5.242C4.8 5.5 1.984 6.012.585 9.815c-1.59 4.337.94 9.283 4.238 11.143 4.152 2.338 10.246 1.887 13.481-1.737 3.594-4.006 3.193-10.87.193-13.586-3-2.715-7.076-1.448-8.112-.882-1.526.855-2.708.29-3.968.49z" transform="translate(3.467 23.496)"/>
                        <path fill="#000" d="M16 18.608c-3.986 2.735-9.822 2.593-13.581.274.667.836 1.485 1.54 2.411 2.076 4.153 2.338 10.246 1.887 13.482-1.737 2.727-3.035 3.15-7.704 1.891-10.982.27.925.185 7.361-4.202 10.37z" opacity=".1" transform="translate(3.467 23.496)"/>
                        <g fill="#FFF" opacity=".2">
                            <path d="M4.102.312C3.043.312 1.61 1.414.955 2.927.143 4.803.273 7.327.767 9.121c.993 3.617 4.749 5.189 5.06 4.842.313-.347-2.514-2.492-1.463-6.298C5.435 3.802 5.84.285 4.102.312z" transform="translate(3.467 23.496) translate(.77 6.548)"/>
                        </g>
                        <g fill="#FFF" opacity=".2">
                            <path d="M2.58.22C1.546.69.479 2.53.27 3.767.062 5.004.312 5.82.49 5.943c.323.228 2.283-2.118 2.892-3.143.874-1.452.855-3.34-.801-2.58z" transform="translate(3.467 23.496) translate(1.54 7.319)"/>
                        </g>
                        <path fill="#C83C32" d="M8.428 8.22c-.616-.385-1.175-.574-1.394.142-.22.717 1.417 1.637 3.05.975 1.633-.663 2.111-1.822 2.019-2.373 0 0-.64 1.279-1.757 1.54-.653.133-1.332.032-1.918-.284z" transform="translate(3.467 23.496)"/>
                        <path fill="#37474F" d="M10.042 8.906c-.182-1.564-.594-3.092-1.225-4.534C7.835 2.292 6.337.905 5.95.786 5.341.626 4.703.594 4.08.693c-.863.1-1.837.77-1.521 1.09.315.32 1.59.428 3.247 1.688C7.46 4.73 9.179 7.322 9.348 8.975c.227.107.494.08.694-.07z" transform="translate(3.467 23.496)"/>
                        <path fill="#455A64" d="M5.886.77L5.797.743C5.234.63 4.655.615 4.087.697c-.593.052-1.144.328-1.54.77-.047.132.157.282.943.313.776.034 1.548-.118 2.253-.443.331-.143.42-.455.143-.567z" transform="translate(3.467 23.496)"/>
                        <path fill="#000" d="M8.644 6.294c-.879-1.88-3.109-3.293-4.596-3.852.625.278 1.214.629 1.757 1.044 1.652 1.26 3.374 3.852 3.543 5.504.227.108.494.081.694-.07 0 0-.058-.588-.235-1.436.038.782-.355.543-1.163-1.19z" opacity=".1" transform="translate(3.467 23.496)"/>
                        <path fill="#90CAF9" d="M9.29 5.55c1.452.07 2.831-.636 3.621-1.856 1.033-1.687.05-3.644.05-3.644-1.231-.09-2.43.423-3.216 1.375C8.794 2.6 8.86 4.68 9.291 5.551z" transform="translate(3.467 23.496)"/>
                        <path fill="#000" d="M9.29 5.55c1.452.07 2.831-.636 3.621-1.856 1.033-1.687.05-3.644.05-3.644-1.231-.09-2.43.423-3.216 1.375C8.794 2.6 8.86 4.68 9.291 5.551z" opacity=".3" transform="translate(3.467 23.496)"/>
                        <path fill="#90CAF9" d="M12.962.05c-1.232-.09-2.43.423-3.217 1.375C8.794 2.6 8.86 4.68 9.291 5.551c.662-3.113 3.67-5.5 3.67-5.5z" transform="translate(3.467 23.496)"/>
                    </g>
                    <g fill-rule="nonzero">
                        <path fill="#90CAF9" d="M13.505 14.822c0 2.458-1.996 5.23-4.453 5.23-2.458 0-4.43-2.772-4.43-5.23.071-2.407 2.043-4.322 4.451-4.322 2.408 0 4.38 1.915 4.45 4.322h-.018z" transform="translate(11.556 38.904)"/>
                        <path fill="#000" d="M13.505 14.822c0 2.458-1.996 5.23-4.453 5.23-2.458 0-4.43-2.772-4.43-5.23.071-2.407 2.043-4.322 4.451-4.322 2.408 0 4.38 1.915 4.45 4.322h-.018z" opacity=".6" transform="translate(11.556 38.904)"/>
                        <path fill="#90CAF9" d="M21.482 19.433c0 2.457-1.992 5.23-4.449 5.23-2.458 0-4.449-2.773-4.449-5.23 0-1.59.848-3.058 2.225-3.853 1.376-.795 3.072-.795 4.448 0 1.377.795 2.225 2.263 2.225 3.853z" transform="translate(11.556 38.904)"/>
                        <path fill="#000" d="M21.482 19.433c0 2.457-1.992 5.23-4.449 5.23-2.458 0-4.449-2.773-4.449-5.23 0-1.59.848-3.058 2.225-3.853 1.376-.795 3.072-.795 4.448 0 1.377.795 2.225 2.263 2.225 3.853z" opacity=".6" transform="translate(11.556 38.904)"/>
                        <path fill="#90CAF9" d="M29.46 24.043c0 2.458-1.992 5.231-4.45 5.231-2.457 0-4.449-2.773-4.449-5.23 0-2.458 1.992-4.45 4.45-4.45 2.456 0 4.448 1.992 4.448 4.45z" transform="translate(11.556 38.904)"/>
                        <path fill="#000" d="M29.46 24.043c0 2.458-1.992 5.231-4.45 5.231-2.457 0-4.449-2.773-4.449-5.23 0-2.458 1.992-4.45 4.45-4.45 2.456 0 4.448 1.992 4.448 4.45z" opacity=".6" transform="translate(11.556 38.904)"/>
                        <path fill="#90CAF9" d="M37.44 28.662c0 2.457-1.991 5.23-4.449 5.23-2.457 0-4.452-2.773-4.452-5.23.07-2.407 2.042-4.322 4.45-4.322 2.409 0 4.38 1.915 4.451 4.322z" transform="translate(11.556 38.904)"/>
                        <path fill="#000" d="M37.44 28.662c0 2.457-1.991 5.23-4.449 5.23-2.457 0-4.452-2.773-4.452-5.23.07-2.407 2.042-4.322 4.45-4.322 2.409 0 4.38 1.915 4.451 4.322z" opacity=".6" transform="translate(11.556 38.904)"/>
                        <path fill="#90CAF9" d="M46.246 23.496c0 2.458-1.992 5.231-4.45 5.231-2.457 0-4.433-2.777-4.433-5.23.071-2.408 2.043-4.322 4.451-4.322 2.408 0 4.38 1.914 4.45 4.321h-.018z" transform="translate(11.556 38.904)"/>
                        <path fill="#000" d="M46.246 23.496c0 2.458-1.992 5.231-4.45 5.231-2.457 0-4.433-2.777-4.433-5.23.071-2.408 2.043-4.322 4.451-4.322 2.408 0 4.38 1.914 4.45 4.321h-.018z" opacity=".6" transform="translate(11.556 38.904)"/>
                        <path fill="#90CAF9" d="M51.25 20.8c-.03-.36-.256-.675-.586-.82L19.487 1.968c-.892-.454-1.948-.454-2.84 0L.829 11.101c-.33.147-.554.461-.585.82v1.541c.031.36.255.674.585.82l31.177 18.016c.894.45 1.949.45 2.843 0l15.816-9.133c.33-.145.555-.46.585-.82V20.8z" transform="translate(11.556 38.904)"/>
                        <path fill="#000" d="M51.25 20.8c-.03-.36-.256-.675-.586-.82L19.487 1.968c-.892-.454-1.948-.454-2.84 0L.829 11.101c-.33.147-.554.461-.585.82v1.541c.031.36.255.674.585.82l31.177 18.016c.894.45 1.949.45 2.843 0l15.816-9.133c.33-.145.555-.46.585-.82V20.8z" opacity=".2" transform="translate(11.556 38.904)"/>
                        <path fill="#000" d="M33.454 31.1v1.54c-.503.011-1-.107-1.445-.342L.832 14.287c-.332-.146-.558-.46-.59-.82v-1.542c.035.36.26.673.59.82l31.177 18.016c.445.233.942.35 1.445.339z" opacity=".1" transform="translate(11.556 38.904)"/>
                        <path fill="#90CAF9" d="M.828 11.105l15.82-9.133c.891-.455 1.947-.455 2.839 0l31.177 18.012c.77.454.77 1.19 0 1.64l-15.816 9.133c-.893.454-1.95.454-2.843 0L.828 12.746c-.782-.455-.782-1.19 0-1.641z" transform="translate(11.556 38.904)"/>
                        <path fill="#000" d="M36.069 27.41c1.699-.982 1.702-2.57 0-3.544-1.703-.974-4.449-.974-6.163 0-1.714.975-1.718 2.566 0 3.544 1.937.98 4.226.98 6.163 0zM44.874 22.34c1.699-.981 1.703-2.568 0-3.547-1.702-.978-4.449-.974-6.163 0-1.714.975-1.718 2.566 0 3.544 1.718.978 4.465.967 6.163.004zM28.088 22.8c1.699-.983 1.706-2.57 0-3.544-1.707-.975-4.449-.975-6.163 0-1.714.974-1.718 2.565 0 3.543 1.718.979 4.464.982 6.163 0zM36.893 17.719c1.699-.979 1.707-2.566 0-3.544-1.706-.978-4.449-.975-6.163 0-1.714.974-1.718 2.565 0 3.547 1.938.98 4.227.98 6.163-.003zM20.11 18.189c1.7-.983 1.707-2.57 0-3.544-1.706-.975-4.448-.975-6.162 0-1.714.974-1.718 2.565 0 3.544 1.718.978 4.464.982 6.163 0zM28.916 13.096c1.699-.978 1.706-2.565 0-3.543-1.706-.979-4.453-.975-6.163 0-1.71.974-1.718 2.565 0 3.543 1.718.979 4.464.986 6.163 0zM12.13 13.578c1.698-.982 1.706-2.57 0-3.544-1.707-.974-4.45-.978-6.163 0-1.715.979-1.718 2.565 0 3.544 1.937.98 4.225.98 6.163 0zM20.935 8.474c1.702-.978 1.706-2.565 0-3.544-1.706-.978-4.449-.974-6.163 0-1.714.975-1.718 2.566 0 3.544 1.718.978 4.464.998 6.163 0z" opacity=".1" transform="translate(11.556 38.904)"/>
                        <path fill="#FAFAFA" d="M45.926 20.477v.211c-.015.29-.061.579-.139.86-.25.315-.56.577-.913.77-1.698.986-4.456.986-6.163 0-.35-.192-.659-.455-.905-.77-.082-.287-.131-.581-.146-.879v-.212-.208c0-.185 0-.385.034-.547.185-1.913 1.027-3.704 2.385-5.065.947-.945 2.48-.945 3.428 0 1.355 1.354 2.194 3.139 2.373 5.046.019.2.034.385.042.593.004.058.004.139.004.2zM37.949 15.862c.004.07.004.139 0 .208-.011.292-.058.582-.139.863-.247.316-.556.578-.909.77-1.937.983-4.226.983-6.163 0-.351-.192-.66-.454-.905-.77-.084-.287-.133-.583-.147-.882v-.208-.212c0-.181 0-.366.035-.543.18-1.917 1.021-3.71 2.38-5.073.946-.945 2.479-.945 3.425 0 1.357 1.353 2.198 3.138 2.376 5.046.02.196.031.385.039.59.007.07.01.14.008.211zM37.12 25.565v.208c-.014.29-.06.579-.138.859-.248.317-.558.58-.913.77-1.699.986-4.457.986-6.163 0-.35-.193-.658-.455-.905-.77-.082-.288-.131-.584-.147-.882v-.208-.212c0-.181 0-.366.035-.543.177-1.923 1.018-3.724 2.38-5.092.948-.946 2.481-.946 3.429 0 1.355 1.353 2.195 3.138 2.372 5.046.02.196.035.385.043.589.008.092.008.162.008.235zM29.143 20.946c.004.071.004.142 0 .212-.01.291-.057.58-.138.86-.248.315-.558.577-.91.77-1.936.984-4.226.984-6.162 0-.353-.193-.662-.455-.91-.77-.08-.287-.128-.582-.142-.879v-.212-.208c0-.185 0-.385.035-.547.175-1.923 1.017-3.724 2.38-5.092.946-.945 2.479-.945 3.424 0 1.357 1.353 2.197 3.138 2.377 5.046 0 .2.03.385.039.593.007.076.01.152.007.227zM29.971 11.244c.004.07.004.14 0 .211-.014.291-.06.58-.138.86-.249.316-.56.578-.913.77-1.699.986-4.457.986-6.163 0-.35-.193-.659-.455-.905-.77-.081-.287-.129-.582-.143-.879v-.212-.208c0-.185 0-.366.031-.543.178-1.92 1.021-3.717 2.384-5.08.946-.945 2.479-.945 3.425 0 1.356 1.353 2.197 3.138 2.376 5.046.02.196.031.385.039.589.007.072.01.144.007.216zM21.99 6.63c.004.07.004.14 0 .21-.011.291-.057.58-.134.86-.25.315-.56.577-.913.77-1.699.982-4.457.982-6.163 0-.352-.192-.66-.454-.906-.77-.082-.286-.13-.581-.146-.878V6.61v-.208c0-.185 0-.385.035-.547.177-1.92 1.019-3.719 2.38-5.085.946-.944 2.479-.944 3.425 0 1.356 1.354 2.197 3.139 2.376 5.046 0 .197.035.386.039.594.007.072.01.146.007.22zM21.185 16.344c.004.069.004.138 0 .208-.01.29-.056.578-.135.858-.247.318-.558.58-.912.77-1.7.987-4.457.987-6.163 0-.352-.191-.66-.454-.906-.77-.082-.286-.13-.58-.146-.878v-.208-.212c0-.184 0-.366.035-.543.174-1.923 1.016-3.725 2.38-5.092.946-.945 2.479-.945 3.424 0 1.358 1.353 2.2 3.138 2.377 5.046.02.196.035.385.039.59.007.076.01.153.007.23zM13.189 11.729c.004.07.004.141 0 .212-.01.29-.057.58-.139.859-.248.316-.56.578-.913.77-1.698.986-4.453.986-6.163 0-.35-.193-.658-.455-.905-.77-.08-.287-.129-.581-.142-.878v-.212-.208c0-.185 0-.385.03-.547.18-1.923 1.022-3.724 2.385-5.092.946-.945 2.478-.945 3.424 0 1.357 1.354 2.198 3.14 2.377 5.05.019.196.03.385.038.589.007.075.01.151.008.227z" transform="translate(11.556 38.904)"/>
                    </g>
                    <path fill="#90CAF9" fill-rule="nonzero" d="M43.438 54.215L2.153 30.384 4.55 56.33c.279 2.01 1.412 3.802 3.109 4.915l32.94 19.02c1.41.817 3.63.894 5.2.228l.12-.047.07-.034c.098-.044.195-.093.288-.147l19.618-11.328c1.695-1.112 2.83-2.9 3.112-4.907l2.392-25.947-27.96 16.132zm-28.504 4.603c.008.314-.058.626-.193.91-.312-.025-.614-.123-.882-.286l-1.07-.616c-1.257-.822-2.048-2.192-2.13-3.69V45.76c-.008-.314.056-.627.188-.913.315.026.62.125.89.29l1.067.62c1.259.818 2.05 2.19 2.13 3.69v9.371zm10.65 6.163c.008.315-.056.627-.189.913-.314-.025-.617-.124-.886-.289l-1.066-.616c-1.257-.82-2.049-2.188-2.13-3.686v-9.391c-.008-.315.055-.627.184-.913.316.022.622.12.89.289l1.07.62c1.259.818 2.05 2.188 2.127 3.686v9.387zm10.654 6.163c.009.315-.057.628-.192.913-.312-.026-.614-.124-.882-.285l-1.071-.616c-1.256-.822-2.047-2.192-2.13-3.69v-9.407c-.008-.313.057-.624.189-.909.315.024.62.123.89.29l1.066.615c1.258.82 2.05 2.191 2.13 3.69v9.4zm18.127-3.37c-.083 1.498-.874 2.868-2.13 3.69l-1.07.616c-.268.163-.57.26-.883.285-.135-.283-.2-.595-.192-.909v-9.398c.079-1.5.87-2.872 2.13-3.69l1.067-.62c.27-.166.574-.264.89-.286.132.285.196.596.188.91v9.402zm9.322-5.393c-.082 1.499-.875 2.869-2.134 3.686l-1.063.617c-.27.166-.574.265-.89.289-.132-.286-.197-.599-.189-.913v-9.387c.082-1.498.873-2.868 2.13-3.687l1.067-.616c.267-.168.572-.268.886-.289.136.284.202.595.193.91v9.39z"/>
                    <path fill="#A3CDF7" fill-rule="nonzero" d="M43.438 54.215L2.153 30.384 4.55 56.33c.279 2.01 1.412 3.802 3.109 4.915l32.94 19.02c1.41.817 3.63.894 5.2.228l.12-.047.07-.034c.098-.044.195-.093.288-.147l19.618-11.328c1.695-1.112 2.83-2.9 3.112-4.907l2.392-25.947-27.96 16.132zm-28.504 4.603c.008.314-.058.626-.193.91-.312-.025-.614-.123-.882-.286l-1.07-.616c-1.257-.822-2.048-2.192-2.13-3.69V45.76c-.008-.314.056-.627.188-.913.315.026.62.125.89.29l1.067.62c1.259.818 2.05 2.19 2.13 3.69v9.371zm10.65 6.163c.008.315-.056.627-.189.913-.314-.025-.617-.124-.886-.289l-1.066-.616c-1.257-.82-2.049-2.188-2.13-3.686v-9.391c-.008-.315.055-.627.184-.913.316.022.622.12.89.289l1.07.62c1.259.818 2.05 2.188 2.127 3.686v9.387zm10.654 6.163c.009.315-.057.628-.192.913-.312-.026-.614-.124-.882-.285l-1.071-.616c-1.256-.822-2.047-2.192-2.13-3.69v-9.407c-.008-.313.057-.624.189-.909.315.024.62.123.89.29l1.066.615c1.258.82 2.05 2.191 2.13 3.69v9.4zm18.127-3.37c-.083 1.498-.874 2.868-2.13 3.69l-1.07.616c-.268.163-.57.26-.883.285-.135-.283-.2-.595-.192-.909v-9.398c.079-1.5.87-2.872 2.13-3.69l1.067-.62c.27-.166.574-.264.89-.286.132.285.196.596.188.91v9.402zm9.322-5.393c-.082 1.499-.875 2.869-2.134 3.686l-1.063.617c-.27.166-.574.265-.89.289-.132-.286-.197-.599-.189-.913v-9.387c.082-1.498.873-2.868 2.13-3.687l1.067-.616c.267-.168.572-.268.886-.289.136.284.202.595.193.91v9.39z" opacity=".45"/>
                    <path fill="#DCE8FD" fill-rule="nonzero" d="M43.438 54.215v24.398c0 1.614 1.02 2.377 2.36 1.868l.12-.046.07-.035c.098-.043.195-.092.288-.146l19.618-11.329c1.695-1.111 2.83-2.9 3.112-4.907l2.392-25.946-27.96 16.143zm10.931 13.532c-.083 1.498-.874 2.868-2.13 3.69l-1.07.616c-.268.163-.57.26-.883.285-.135-.283-.2-.595-.192-.909v-9.371c.079-1.5.87-2.872 2.13-3.69l1.067-.62c.269-.166.574-.264.89-.286.131.285.196.596.188.91v9.375zm9.322-5.393c-.083 1.499-.875 2.869-2.134 3.686l-1.063.617c-.27.166-.575.265-.89.289-.132-.286-.197-.599-.189-.913v-9.36c.082-1.498.873-2.868 2.13-3.687l1.067-.616c.267-.168.571-.268.886-.289.136.284.202.595.193.91v9.363z" opacity=".4"/>
                    <path fill="#455A64" fill-rule="nonzero" d="M55.417 58.98v9.375c-.08 1.498-.87 2.868-2.126 3.687l-1.067.616c-.863.497-1.603.335-1.926-.32.312-.024.614-.122.882-.285l1.07-.616c1.257-.822 2.048-2.192 2.13-3.69V58.37c.009-.313-.056-.624-.188-.909.72-.038 1.225.528 1.225 1.518zM64.742 53.599v9.371c-.082 1.5-.873 2.87-2.13 3.69l-1.067.617c-.863.497-1.602.335-1.926-.32.316-.023.621-.122.89-.289l1.063-.616c1.26-.818 2.052-2.187 2.134-3.686V52.99c.01-.314-.057-.625-.192-.909.72-.034 1.228.528 1.228 1.518z"/>
                    <path fill="#37474F" fill-rule="nonzero" d="M73.232 38.072v3.081c-.034.36-.26.674-.59.82L44.855 58.01c-.436.23-.924.347-1.417.34v-3.082c.493.01.981-.107 1.417-.34l27.787-16.023c.352-.148.581-.493.582-.874.005.013.008.027.008.042z"/>
                    <path fill="#263238" fill-rule="nonzero" d="M43.438 55.27v3.082c-.495.009-.984-.108-1.422-.339L.913 34.282c-.33-.147-.555-.461-.59-.82V30.38v-.062c.004.384.234.73.586.882l41.103 23.728c.438.234.929.353 1.426.343z"/>
                    <path fill="#455A64" fill-rule="nonzero" d="M73.228 38.072c-.034.358-.258.67-.586.817L44.855 54.932c-.892.454-1.947.454-2.839 0L.913 31.2c-.33-.147-.555-.46-.59-.82h1.83l27.965 16.14 13.32 7.703 27.96-16.143 1.83-.008z"/>
                    <path fill="#37474F" fill-rule="nonzero" d="M30.919 58.668v9.375c.082 1.498.871 2.868 2.126 3.69l1.071.617c.859.493 1.599.331 1.926-.32-.314-.023-.618-.123-.886-.289l-1.07-.616c-1.258-.82-2.049-2.188-2.13-3.686v-9.376c-.009-.315.056-.627.188-.913-.717-.034-1.225.528-1.225 1.518zM20.265 52.516v9.376c.08 1.499.87 2.87 2.126 3.69l1.07.616c.864.493 1.6.335 1.927-.32-.314-.024-.618-.123-.886-.288l-1.067-.617c-1.259-.817-2.052-2.187-2.134-3.686v-9.375c-.01-.316.057-.628.192-.913-.72-.035-1.228.528-1.228 1.517zM9.63 46.369v9.375c.08 1.499.872 2.868 2.13 3.687l1.067.616c.863.497 1.602.335 1.926-.316-.314-.028-.616-.127-.886-.289l-1.067-.616c-1.258-.82-2.05-2.19-2.13-3.69V45.76c-.008-.313.056-.624.188-.909-.74-.038-1.228.528-1.228 1.518z"/>
                    <path fill="#90CAF9" fill-rule="nonzero" d="M14.005 38.761v.266c0 1.032.212 1.54 1.11 2.057.47.27.724-.07.724-.616v-.651l-1.834-1.056z"/>
                    <path fill="#000" fill-rule="nonzero" d="M14.005 38.761v.266c0 1.032.212 1.54 1.11 2.057.47.27.724-.07.724-.616v-.651l-1.834-1.056z" opacity=".25"/>
                    <path fill="#90CAF9" fill-rule="nonzero" d="M19.548 18.913c.227-.768.72-1.43 1.39-1.868l.586 2.072-5.689 20.7-1.83-1.06 5.543-19.844z"/>
                    <path fill="#000" fill-rule="nonzero" d="M19.548 18.913c.227-.768.72-1.43 1.39-1.868l.586 2.072-5.689 20.7-1.83-1.06 5.543-19.844z" opacity=".25"/>
                    <path fill="#90CAF9" fill-rule="nonzero" d="M21.57 18.254l1.025 1.699 3.852 26-2.119-1.221-3.724-24.567c-.058-.767.315-1.503.966-1.911z"/>
                    <path fill="#90CAF9" fill-rule="nonzero" d="M24.344 44.732v.266c0 1.032.158 1.756 1.051 2.268.22.127.491.126.711 0 .22-.128.356-.362.356-.616v-.697l-2.118-1.221z"/>
                </g>
                <g fill-rule="nonzero">
                    <g>
                        <path fill="#B28973" d="M3.605 9.002s-1.498-.547-1.883-.52c-.385.027-.99.239-1.121.77 0 0 .947.905 2.08.82 1.132-.084.924-1.07.924-1.07zM14.71 7.076c.886-2.82.863-4.7.25-5.778C14.55.574 13.267.285 12.724.238c-.543-.045-.732.386-.235.864.497.477.316.947.046 1.54-.329.675-.715 1.32-1.156 1.926l3.332 2.508z" transform="translate(-89 -77) translate(89 77) translate(102.044 101.304)"/>
                        <path fill="#D3AB95" d="M3.355 8.986c-.282.057-.568.085-.855.085-.493-.032-.972-.183-1.395-.439-.3-.193-.532-.474-.666-.805-.074-.265-.095-.543-.062-.817-.002-.221.03-.442.093-.654.232-.549.653-.996 1.186-1.26 1.121-.678 2.311-.089 3.968.2 1.255.216 3.667-1.772 6.617-.708 2.874 1.036 2.908 4.125 3.486 6.602.944 4.04 1.668 3.031 4.056 7.087 1.926 3.263 2.593 2.696 4.75 5.878 1.067 1.583 3.17 4.372 4.237 7.839 1.332 4.28-.278 7.426-3.043 9.04-2.45 1.425-3.771 1.926-7.173 1.672-1.898-.135-3.03-.944-3.786-1.38-1.54.883-4.807-1.494-5.963-2.38-2.16-1.656-.951-3.139.952-2.696.765.173 1.508.432 2.215.77-.68-1.369-1.223-2.802-1.618-4.28-.42-1.79-.173-3.3.508-3.685-.312-.32-.608-.655-.886-1.006-.138 1.603-.693 6.34-.805 6.71-.15.493-1.155 1.445-2.072 1.194-.917-.25-2.839-1.109-3.12-1.926-.385-1.101.72-1.27 2.615-.77v-.042c-.054-2.007-.254-4.927-.277-6.934 0-1.198-.027-2.657-.1-3.628-.056-.64-.079-1.283-.07-1.926.035-1.622.232-3.386.216-4.152-.027-1.183-.188-2.416-1.055-3.255-.867-.84-1.988-1.264-2.99-1.872-.366-.218-.713-.468-1.035-.747-.3-.274-.898-.979-.682-1.43.523.336 1.149.473 1.764.386.388-.057.75-.226 1.044-.486.027-.027.058-.057.05-.096 0-.026-.013-.05-.032-.067-.02-.017-.046-.025-.072-.022z" transform="translate(-89 -77) translate(89 77) translate(102.044 101.304)"/>
                        <path fill="#B28973" d="M25.646 38.8c-.428.36-.6.94-.44 1.475 0 0 .813 1.31 4.623 1.73 3.628.404 7.168-1.156 10.296 0 3.128 1.155 1.83 3.532 2.157 4.164.327.631 1.221.192 1.221-1.676 0-1.868-1.256-3.563-3.517-4.102-2.26-.54-5.458-.108-8.474-.058-3.081.05-3.825-1.206-4.314-1.71-.578-.586-1.144-.208-1.552.177zM1.903 5.608l.038-.046c.05-.065.074-.142.127-.204.093-.078.205-.13.324-.15.173-.05.339-.139.273-.343-.022-.053-.068-.092-.123-.108-.18-.098-.377-.158-.581-.177-.246.014-.484.09-.694.22-.423.214-.777.544-1.02.95-.112.228.169.921.169.921-.006-.108.014-.216.058-.315.135-.386.77-.47 1.125-.582.112-.033.216-.09.304-.166zM16.401 13.378l-.824.543s-1.618 1.89-5.235 2.053c-1.296.075-2.596.06-3.89-.043.024-.107.08-.204.158-.28.74-.821.955-2.917 0-3.598-.955-.682-2.95.1-4.68-.883l.385.25c1.001.61 2.138 1.045 2.989 1.873.713.69.948 1.648 1.02 2.627h-.08c.013.104.047.205.1.296v.34c0 .2 0 .454-.027.77l.809.123c3.587.556 7.242-.438 10.053-2.735-.318-.408-.58-.858-.778-1.336zM10.204 7.28c-.582.57-1.387 1.302-1.992 2-.516.589-.913.153-1.344-2.566-.385-2.33-.582-2.696-.986-2.835-.304-.1-.836-.035-.936-.254-.185-.416.458-1.202 1.964-1.449C9.198 1.8 11.117 6.39 10.204 7.28z" transform="translate(-89 -77) translate(89 77) translate(102.044 101.304)"/>
                        <path fill="#3B1815" d="M15.99 12.203c.076.239.11.366.11.366s-1.097 1.564-4.814 2.31c-3.717.748-5.07.19-5.07.19-.034-.182-.082-.361-.142-.536 0 0-.188.143-.115 1.01.05.623.135.89.47.966 1.047.239 3.143.216 5.192-.243 3.159-.708 4.719-1.925 5.008-2.218.288-.293.188-.54-.081-1.175-.27-.636-.409-.716-.559-.67z" transform="translate(-89 -77) translate(89 77) translate(102.044 101.304)"/>
                        <path fill="#B28973" d="M10.862 29.066c1.087-.631 3.629-.1 5.92 2.724 0 0-.096-1.788-2.26-3.043-2.165-1.256-3.737-.832-4.318-.416l.658.735zM11.263 36.697c.447.173.72.312.72.312.574 1.155 1.333 2.45 1.333 2.45s-1.537-1.406-2.053-2.762zM8.282 36.335c.14-.065.29-.111.442-.139.135.037.264.09.386.158.12.067.232.147.335.239.042.034.266.25.192.304-.073.054-.05 0-.069 0-.285-.203-.6-.362-.932-.47-.116-.038-.235-.069-.354-.092zM7.735 36.89c.03-.083.075-.16.13-.228.547.096 1.156.274 1.28.77 0 0 0 .081-.035.062-.222-.161-.46-.3-.71-.412-.213-.09-.437-.154-.665-.193zM4.106 33.203c.125-.093.27-.153.424-.177h.085c.227.046.436.157.6.32v.046c-.277-.115-.57-.182-.87-.2-.08-.003-.16 0-.239.011zM3.914 33.565c.009-.08.035-.158.077-.227.064.006.129.016.192.03.2.05.459.143.505.386 0 0 0 .042-.02.035-.188-.08-.383-.145-.581-.197-.058-.023-.116-.023-.173-.027z" transform="translate(-89 -77) translate(89 77) translate(102.044 101.304)"/>
                    </g>
                </g>
                <g>
                    <path fill="#FFE0CB" fill-rule="nonzero" d="M35.988 21.956c2.847-.193 4.66.185 6.07 3.466 1.792 4.153 4.087 11.941 4.7 14.51.285 1.206.281 2.22-.91 3.583-2.545 2.908-5.896 6.301-5.896 6.301l-1.818-6.367 2.214-3.259-2.669-7.226-1.69-11.008z" transform="translate(-89 -77) translate(89 77) translate(58.133 39.29)"/>
                    <path fill="#EEC8AF" fill-rule="nonzero" d="M40.352 40.19c.442.766.958 1.486 1.541 2.15-.805-.297-1.475-.874-1.887-1.626l.346-.524z" transform="translate(-89 -77) translate(89 77) translate(58.133 39.29)"/>
                    <path fill="#171724" fill-rule="nonzero" d="M10.89 109.255c-.148.484-.16 1-.035 1.49.142.3 1.036 1.287 2.862 1.645 1.825.358 4.329 0 5.392-.065 1.063-.066 4.472.346 5.547.493 1.695.23 2.997-.143 3.628-.77.206-.25.299-.574.255-.894-.005-.409-.066-.814-.182-1.206l-17.468-.693z" transform="translate(-89 -77) translate(89 77) translate(58.133 39.29)"/>
                    <path fill="#90CAF9" fill-rule="nonzero" d="M28.092 108.191c.034.143.065.282.092.424.166.72.22 1.463.158 2.2-.275.497-.748.854-1.302.982-1.275.404-2.245.339-3.66.073-1.42-.207-2.855-.296-4.29-.266-1.113.077-2.642.29-3.756.189-.944-.043-1.876-.232-2.761-.562-.744-.32-1.499-.728-1.68-1.491-.22-1.606.455-2.311 1.221-2.766.767-.454 1.841-.416 3-.493 1.048-.07 1.811-.07 2.743-.142.8-.078 1.592-.229 2.365-.451.701-.223 1.456-.998 1.757-1.032 0 0 4.664-.035 5.111 0 .513.042.67 1.64.736 1.987.05.27.058.563.13.825.047.184.093.346.136.523z" transform="translate(-89 -77) translate(89 77) translate(58.133 39.29)"/>
                    <g fill="#3E4152" fill-rule="nonzero" opacity=".4">
                        <path d="M17.306 3.42c.035.143.066.282.093.424.166.72.219 1.463.158 2.2-.275.497-.748.854-1.302.982-1.275.404-2.246.339-3.66.073-1.42-.207-2.855-.296-4.29-.266-1.114.077-2.643.29-3.756.189-.944-.043-1.876-.232-2.762-.562C1.044 6.14.29 5.732.107 4.969-.111 3.363.563 2.658 1.33 2.203c.766-.454 1.841-.416 3-.493 1.048-.07 1.81-.07 2.743-.142.8-.078 1.592-.229 2.365-.451.701-.223 1.456-.998 1.757-1.032 0 0 4.664-.035 5.111 0 .512.042.67 1.64.736 1.987.05.27.057.563.13.825.047.184.093.346.135.523z" transform="translate(-89 -77) translate(89 77) translate(58.133 39.29) translate(10.785 104.771)"/>
                    </g>
                    <path fill="#FAFAFA" fill-rule="nonzero" d="M13.717 111.577c-.147-1.155-.34-3.67 1.79-5.119h.274c-.964-.28-1.987-.28-2.95 0-1.707.455-2.466 1.834-2.038 3.293-.008-.015.377 1.395 2.924 1.826z" transform="translate(-89 -77) translate(89 77) translate(58.133 39.29)"/>
                    <path fill="#FFE0CB" fill-rule="nonzero" d="M29.79 83.609c-.15 2.665-2.63 20.85-2.846 21.825-.131.581-.867 1.201-2.781 1.136-1.344-.043-2.404.07-2.35-.986l-1.352-23.092 9.33 1.117z" transform="translate(-89 -77) translate(89 77) translate(58.133 39.29)"/>
                    <path fill="#171724" fill-rule="nonzero" d="M30.233 94.37c-.069.818-.177 1.542.158 2.458.478 1.295 1.495 1.888 2.092 2.396.629.623 1.21 1.292 1.737 2.003.582.709.709 1.156 1.618 1.926.566.466 2.15.851 3.124.44.77-.324 1.024-.582.978-1.75-.046-1.167-3.77-1.567-3.77-1.567l-5.937-5.905z" transform="translate(-89 -77) translate(89 77) translate(58.133 39.29)"/>
                    <path fill="#90CAF9" fill-rule="nonzero" d="M39.459 98.361c.315.112.385.69.443 1.834.038.863.42 2.13-.832 2.677-1.013.44-2.627.146-3.313-.67-.827-1.095-1.71-2.148-2.642-3.155-1.056-1.078-2.157-1.44-2.624-3.594-.304-1.386-.065-1.96.913-2.357 1.348-.547 3.467 1.24 4.522 1.518.91.242 3.213 3.632 3.533 3.747z" transform="translate(-89 -77) translate(89 77) translate(58.133 39.29)"/>
                    <path fill="#000" fill-rule="nonzero" d="M39.459 98.361c.315.112.385.69.443 1.834.038.863.42 2.13-.832 2.677-1.013.44-2.627.146-3.313-.67-.827-1.095-1.71-2.148-2.642-3.155-1.056-1.078-2.157-1.44-2.624-3.594-.304-1.386-.065-1.96.913-2.357 1.348-.547 3.467 1.24 4.522 1.518.91.242 3.213 3.632 3.533 3.747z" opacity=".4" transform="translate(-89 -77) translate(89 77) translate(58.133 39.29)"/>
                    <path fill="#FFE0CB" fill-rule="nonzero" d="M41.092 77.877c.177 7.296-.97 14.637-1.502 20.931-.093.62-3.201 1.892-4.237.081-.062-.135-2.901-20.673-2.901-20.673l8.64-.339z" transform="translate(-89 -77) translate(89 77) translate(58.133 39.29)"/>
                    <path fill="#FAFAFA" fill-rule="nonzero" d="M31.108 97.044s.104-2.484 3.586-2.9l-.062-.44c-.377-.372-.846-.638-1.36-.77-1.209-.312-2.164 0-2.8.77-.635.77.008 2.843.636 3.34z" transform="translate(-89 -77) translate(89 77) translate(58.133 39.29)"/>
                    <path fill="#2B478B" d="M40.93 73.186s-.2-5.108-.077-10.6c.077-3.448.146-5.424 0-7.835-.126-2.695-.449-5.377-.967-8.024 0 0-19.109-3.644-19.34 3.216-.281 8.22-.547 24.521-.566 26.67-.02 2.15.115 3.587.335 8.16 3.043.742 7.345.276 9.745-.621.085-2.311.139-3.617.139-3.617l.94-14.722s.242 2.881.408 5.897c.165 3.016.115 3.744.581 9.306 1.926.89 7.604.832 9.13-.843.025-2.334-.084-4.667-.328-6.987z" transform="translate(-89 -77) translate(89 77) translate(58.133 39.29)"/>
                    <path fill="#233862" d="M20.064 65.258c2.697.64 7.173.474 7.173.474s-.062 9.665-.559 10.932c-.497 1.267-6.236 1.06-6.933 0 .007-5.166.32-11.406.32-11.406zM38.134 56.237s-2.493 3.425-5.497 4.707L31.512 70.96l-.366-5.007.694-6.055s3.805-1.66 6.294-3.66z" transform="translate(-89 -77) translate(89 77) translate(58.133 39.29)"/>
                    <path fill="#FFE0CB" fill-rule="nonzero" d="M28.227 19.194L28.269 25.457 34.598 25.392 34.702 18.119z" transform="translate(-89 -77) translate(89 77) translate(58.133 39.29)"/>
                    <path fill="#90CAF9" fill-rule="nonzero" d="M41.076 25.118c-.52-1.706-2.31-3.108-4.599-3.178h-1.83c-.257 1.056-3.643 1.541-6.401.898-.832.22-4.08.824-4.773 1.055-1.983.659-2.384 2.673-2.696 9.145 0 0-.524 10.739-.32 18.8 3.467 1.842 9.183 1.815 13.02 1.426 6.024-.609 7.191-2.808 7.191-2.808-.265-2.785-.353-5.583-.266-8.378.073-2.631.832-5.42 1.067-8.405.347-4.453-.038-7.384-.393-8.555z" transform="translate(-89 -77) translate(89 77) translate(58.133 39.29)"/>
                    <path fill="#EE9849" d="M41.076 25.118c-.52-1.706-2.31-3.108-4.599-3.178h-1.83c-.257 1.056-3.643 1.541-6.401.898-.832.22-4.08.824-4.773 1.055-1.983.659-2.384 2.673-2.696 9.145 0 0-.524 10.739-.32 18.8 3.467 1.842 9.183 1.815 13.02 1.426 6.024-.609 7.191-2.808 7.191-2.808-.265-2.785-.353-5.583-.266-8.378.073-2.631.832-5.42 1.067-8.405.347-4.453-.038-7.384-.393-8.555z" transform="translate(-89 -77) translate(89 77) translate(58.133 39.29)"/>
                    <path fill="#EEC8AF" fill-rule="nonzero" d="M23.496 11.17s-1.679 2.535-1.521 2.762c.158.227 1.471.385 1.471.385l.05-3.147z" transform="translate(-89 -77) translate(89 77) translate(58.133 39.29)"/>
                    <path fill="#FFE0CB" fill-rule="nonzero" d="M28.042 3.081c-3.013.505-4.126 2.312-4.569 7.55-.1 1.687-.107 3.378-.023 5.065.193 2.285.62 2.858 1.079 3.37.458.513 3.224.667 4.472.386 1.564-.362 5.1-1.452 6.837-3.879 2.045-2.858 2.311-6.425.724-8.532-3.675-4.946-7.288-4.18-8.52-3.96z" transform="translate(-89 -77) translate(89 77) translate(58.133 39.29)"/>
                    <path fill="#EEC8AF" fill-rule="nonzero" d="M24.529 19.055c.346.385 2.411.59 3.701.49V18.8c-1.205.324-2.463.41-3.701.254z" transform="translate(-89 -77) translate(89 77) translate(58.133 39.29)"/>
                    <path fill="#3A1714" fill-rule="nonzero" d="M25.915 7.704c-.17 1.246.536 2.446 1.707 2.904-.173.424-.266.875-.274 1.333-.029.225.012.453.116.655.063.155.211.258.379.262.167.004.32-.091.391-.243.185-.377.41-.733.674-1.06.34-.373.807-.607 1.31-.658 1.884-.127 2.018 2.338 1.225 3.324-1.298 1.614-2.311.443-2.311.443s-.324 2.034 1.818 4.052c.493.359 1.078.569 1.687.605.543.07 1.518.143 2.034-.146 1.051-1.707 3.285-4.561 4.083-6.067.77-1.448 1.668-3.132 1.279-4.819-.157-.743-.613-1.39-1.26-1.787.235-.471.367-.987.385-1.514-.03-.928-.97-1.718-1.887-1.306.22-.7-.05-1.461-.66-1.868-.61-.408-1.416-.363-1.979.108.124-.825-.407-1.606-1.22-1.794-.812-.189-1.632.279-1.884 1.074-.44-.679-1.219-1.06-2.024-.99-.806.068-1.509.574-1.828 1.317-.638-.41-1.403-.576-2.153-.466-.756.118-1.399.615-1.703 1.317-.287.717-.067 1.537.54 2.015-.69.039-1.226.955-1.23 1.649.012.531.366 2.31 2.785 1.66z" transform="translate(-89 -77) translate(89 77) translate(58.133 39.29)"/>
                    <path fill="#FFE0CB" fill-rule="nonzero" d="M1.868 29.055c.485.913 5.855 10.739 7.415 12.226 1.113 1.059 2.831 1.78 4.622.25 3.32-2.85 8.474-7.346 8.474-7.346 3.96-3.135 4.507-8.84 2.697-10.67-.932.05-3.783.263-5.628 2.42-3.782 4.414-7.815 8.948-7.815 8.948-.99-1.31-1.872-2.342-2.94-3.83-.85-1.19-2.18-2.434-2.233-3.982-.027-.809.265-1.614.385-2.407.162-1.033.304-2.053.474-3.082.06-.202.04-.42-.054-.609-.23-.227-.596-.24-.84-.027-.264.239-.466.537-.59.871-.157.354-.32.705-.48 1.055-.074.166-.186.355-.367.359-.57 0-.662-1.202-.809-1.576-.156-.492-.25-1.002-.28-1.517-.086-.617-.167-1.233-.247-1.845-.024-.178-.066-.386-.228-.467-.161-.08-.431.07-.57.243-.223.281-.381.61-.462.96-.189.816.046 1.74-.385 2.468-.182.27-.391.52-.624.748-.27.316-.516.652-.736 1.005-.385.593-.632 1.078-.447 1.783.397 1.401.957 2.75 1.668 4.022z" transform="translate(-89 -77) translate(89 77) translate(58.133 39.29)"/>
                    <path fill="#EEC8AF" fill-rule="nonzero" d="M11.61 34.883C10.597 35.992 10 38.19 10 38.19s-.108-2.33 1.074-4.006l.536.698z" transform="translate(-89 -77) translate(89 77) translate(58.133 39.29)"/>
                </g>
                <g fill-rule="nonzero">
                    <g>
                        <g>
                            <path fill="#90CAF9" d="M1.398 55.174l-.743-.427c-.25-.164-.408-.437-.424-.736V23.785c.015-.299.173-.572.424-.735L39.84.42c.266-.135.58-.135.847 0l.744.427c.25.164.408.437.423.736v30.23c-.016.297-.173.57-.423.731L2.246 55.174c-.267.135-.581.135-.848 0z" transform="translate(-89 -77) translate(89 77) translate(105.126) translate(4.622)"/>
                            <path fill="#FFF" d="M1.398 55.174l-.743-.427c-.25-.164-.408-.437-.424-.736V23.785c.015-.299.173-.572.424-.735L39.84.42c.266-.135.58-.135.847 0l.744.427c.25.164.408.437.423.736v30.23c-.016.297-.173.57-.423.731L2.246 55.174c-.267.135-.581.135-.848 0z" opacity=".5" transform="translate(-89 -77) translate(89 77) translate(105.126) translate(4.622)"/>
                            <path fill="#A1CFF4" d="M2.246 23.966L41.43 1.336c.235-.134.423-.023.423.247v30.23c-.016.297-.173.57-.423.731L2.246 55.174c-.235.135-.424.027-.424-.242v-30.23c.015-.299.173-.572.424-.736z" transform="translate(-89 -77) translate(89 77) translate(105.126) translate(4.622)"/>
                            <path fill="#FAFAFA" d="M41.43 1.337c-3.216 1.976-6.455 3.902-9.702 5.82l-9.772 5.708-9.823 5.624-4.93 2.77-4.957 2.723 4.838-2.932 4.857-2.9 9.776-5.708 9.826-5.609c3.282-1.853 6.59-3.698 9.888-5.496z" transform="translate(-89 -77) translate(89 77) translate(105.126) translate(4.622)"/>
                            <path fill="#90CAF9" d="M1.945 24.267l-1.59-.917c-.076.126-.118.27-.124.416v30.23c.016.298.173.572.424.735l.74.428c.24.121.52.135.77.038-.197.066-.34-.05-.34-.285v-30.21c0-.153.041-.304.12-.435z" transform="translate(-89 -77) translate(89 77) translate(105.126) translate(4.622)"/>
                            <path fill="#000" d="M1.945 24.267l-1.59-.917c-.076.126-.118.27-.124.416v30.23c.016.298.173.572.424.735l.74.428c.24.121.52.135.77.038-.197.066-.34-.05-.34-.285v-30.21c0-.153.041-.304.12-.435z" opacity=".3" transform="translate(-89 -77) translate(89 77) translate(105.126) translate(4.622)"/>
                            <path fill="#3E4152" d="M1.822 28.153L41.854 5.046 41.854 12.935 1.822 36.042z" transform="translate(-89 -77) translate(89 77) translate(105.126) translate(4.622)"/>
                            <g>
                                <path fill="#90CAF9" d="M35.534 8.994v5.165c-.024.428-.25.818-.61 1.052l-5.422 3.174c-.336.193-.61.035-.61-.35v-5.17c.022-.426.247-.816.606-1.047 1.479-.856 3.944-2.312 5.423-3.174.34-.193.613-.039.613.35z" transform="translate(-89 -77) translate(89 77) translate(105.126) translate(4.622) translate(3.852 16.178)"/>
                                <g>
                                    <path fill="#000" d="M8.185.52v5.165c-.024.428-.25.818-.608 1.052L2.153 9.91c-.335.192-.608.035-.608-.35V4.39c.02-.426.246-.816.604-1.048C3.63 2.488 6.094 1.033 7.573.17c.339-.192.612-.038.612.351z" opacity=".2" transform="translate(-89 -77) translate(89 77) translate(105.126) translate(4.622) translate(3.852 16.178) translate(27.348 8.474)"/>
                                    <path fill="#FFF" d="M9.252 1.329L9.391 0.932 0.478 6.121 0.339 6.517z" transform="translate(-89 -77) translate(89 77) translate(105.126) translate(4.622) translate(3.852 16.178) translate(27.348 8.474)"/>
                                    <path fill="#FFF" d="M5.77 5.893L6.047 5.578 6.047 2.943 5.774 3.263zM3.682 7.145L3.96 6.829 3.96 4.202 3.682 4.518z" transform="translate(-89 -77) translate(89 77) translate(105.126) translate(4.622) translate(3.852 16.178) translate(27.348 8.474)"/>
                                    <path fill="#FFF" d="M9.252 3.967L9.391 3.571 0.478 8.759 0.339 9.156z" transform="translate(-89 -77) translate(89 77) translate(105.126) translate(4.622) translate(3.852 16.178) translate(27.348 8.474)"/>
                                </g>
                                <path fill="#90CAF9" d="M.505 15.28c-.224-.154-.336-.497-.336-1.028-.01-.491.102-.977.328-1.414.213-.4.535-.733.928-.959.145-.087.3-.154.462-.2.115-.03.236-.03.35 0 .024.007.039.03.036.054-.002.032-.01.063-.024.092l-.119.35c-.008.032-.026.06-.05.082-.019.006-.039.006-.058 0-.186-.018-.373.03-.527.134-.24.14-.434.348-.555.598-.14.29-.208.61-.2.932 0 .385.069.6.208.7.138.1.327.085.566-.05.213-.124.4-.289.55-.485.015-.025.034-.046.058-.061 0 0 .031 0 .05.023l.135.23c.004.017.004.034 0 .051-.006.033-.019.065-.038.092-.219.31-.506.565-.84.744-.393.242-.705.273-.924.115zM2.635 14.356c-.023 0-.035-.062-.035-.131v-2.75c-.001-.06.01-.119.035-.174.027-.05.069-.092.12-.119l.881-.508c.59-.34.885-.166.882.52.001.21-.034.42-.104.62-.07.193-.174.372-.308.527l.366.856c.002.019.002.038 0 .057.003.053-.026.103-.073.127l-.385.224c-.022.015-.047.024-.074.027 0 0-.03 0-.042-.05l-.32-.836-.412.239v.909c.002.06-.01.119-.034.173-.03.05-.072.092-.124.12l-.262.15c-.05.03-.088.038-.111.019zm.916-2.142c.253-.136.403-.407.386-.693 0-.158-.031-.258-.089-.3-.058-.043-.154-.024-.273.046l-.413.239v.928l.39-.22zM4.842 13.096c-.027 0-.039-.065-.039-.13v-2.762c-.003-.06.01-.12.039-.174.026-.052.068-.095.12-.123l1.444-.832c.054-.03.092-.039.115-.023.026.04.037.088.031.135v.17c.002.058-.009.117-.03.173-.03.046-.069.084-.116.111l-1.013.593v.732l.716-.416c.058-.03.096-.038.116 0 .019.039.03.062.03.131v.162c.004.06-.007.119-.03.173-.026.05-.066.089-.116.112l-.716.393v.74l1.024-.59c.054-.034.093-.038.116-.023.025.04.036.088.03.135v.158c.002.058-.008.116-.03.17-.029.044-.069.082-.116.107l-1.44.832c-.074.046-.112.046-.135.046zM6.837 11.94c-.029-.035-.041-.081-.035-.126V9.048c0-.06.011-.119.035-.173.027-.05.069-.092.12-.12l.731-.42c.386-.23.698-.277.906-.142.208.135.308.474.308 1.017.014.476-.093.948-.312 1.371-.21.38-.522.694-.902.905l-.732.424c-.053.03-.096.03-.119.03zm.878-1.016c.203-.113.364-.287.463-.497.115-.278.168-.578.154-.878 0-.385-.05-.601-.154-.694-.104-.092-.255-.08-.463.039l-.339.196v2.03l.34-.196zM9.244 10.554c-.026-.02-.038-.065-.038-.13V7.672c-.003-.06.01-.12.038-.173.026-.053.068-.096.12-.124l.262-.15c.058-.03.096-.038.12-.02.022.02.034.062.034.136v2.75c.001.058-.01.116-.035.17-.027.05-.069.091-.12.119l-.261.15c-.077.035-.12.039-.12.023zM10.731 9.684c-.027 0-.038-.062-.038-.131V7.164l-.57.328c-.054.036-.093.044-.116.023-.02 0-.03-.062-.03-.131v-.173c-.002-.058.008-.116.03-.17.028-.047.068-.086.116-.111l1.718-.994c.057-.031.096-.039.12 0 .022.038.03.061.03.13v.174c.002.057-.009.113-.03.166-.027.05-.07.09-.12.115l-.57.328V9.24c.001.058-.01.116-.035.17-.029.05-.072.091-.123.119l-.258.15c-.07.015-.1.023-.124.004zM13.72 7.65c-.22-.154-.33-.5-.33-1.032-.012-.49.1-.975.327-1.41.205-.406.525-.744.92-.97.144-.09.3-.157.462-.201.115-.033.236-.033.35 0 .024.007.039.03.036.054-.002.03-.01.06-.024.088l-.119.355c-.01.03-.028.057-.05.08-.019.007-.04.007-.058 0-.186-.015-.373.034-.528.14-.24.137-.434.345-.554.596-.141.29-.21.61-.2.932 0 .386.069.597.207.701.14.104.328.085.567-.053.213-.121.4-.285.547-.482.017-.024.038-.046.061-.065 0 0 .031 0 .047.023l.138.235c.004.015.004.03 0 .046-.005.034-.02.066-.042.092-.215.313-.501.57-.836.748-.39.238-.697.277-.92.123zM15.666 6.802c-.003-.026-.003-.054 0-.08l.897-3.382c.013-.049.03-.095.054-.14.024-.032.054-.06.089-.08l.254-.146c.034 0 .061-.027.08 0 .02.027.035.034.055.077l.913 2.342v.069c.002.047-.022.091-.062.116l-.42.242c-.021.015-.047.022-.073.02 0 0-.027-.024-.039-.054l-.161-.455-.844.49-.158.635c-.007.035-.02.069-.038.1-.02.026-.045.047-.074.062l-.42.242c-.034.012-.053-.004-.053-.058zm1.463-1.926l-.289-.832-.292 1.156.581-.324zM18.343 5.289c-.027 0-.039-.062-.039-.131v-2.75c-.003-.06.01-.12.039-.174.025-.052.067-.094.119-.12l.878-.508c.59-.341.886-.168.886.52.002.21-.033.419-.104.617-.07.195-.175.375-.312.531l.366.855c.004.02.004.039 0 .058.003.053-.026.103-.073.127l-.385.224c-.021.015-.047.023-.073.023 0 0-.031 0-.043-.047l-.32-.835-.416.238v.91c.003.06-.01.118-.034.173-.028.05-.07.09-.12.115l-.262.154c-.046.031-.084.039-.107.02zm.916-2.142c.122-.067.224-.164.297-.281.07-.126.104-.269.1-.412 0-.162-.03-.262-.092-.3-.058-.04-.15-.024-.27.045l-.416.24v.928l.381-.22zM20.546 4.014c-.023 0-.035-.062-.035-.127V1.132c-.001-.06.01-.118.035-.173.029-.05.072-.092.123-.12l.728-.42c.385-.23.697-.276.905-.142.208.135.309.474.309 1.017.014.476-.093.948-.312 1.371-.21.38-.522.695-.902.906l-.728.423c-.058.031-.096.039-.123.02zm.878-1.017c.202-.115.364-.288.466-.497.112-.277.164-.576.15-.875 0-.385-.05-.604-.15-.697-.1-.092-.258-.08-.466.039l-.339.196v2.03l.34-.196z" transform="translate(-89 -77) translate(89 77) translate(105.126) translate(4.622) translate(3.852 16.178)"/>
                                <g fill="#90CAF9" opacity=".15">
                                    <path d="M.505 15.28c-.224-.154-.336-.497-.336-1.028-.01-.491.102-.977.328-1.414.213-.4.535-.733.928-.959.145-.087.3-.154.462-.2.115-.03.236-.03.35 0 .024.007.039.03.036.054-.002.032-.01.063-.024.092l-.119.35c-.008.032-.026.06-.05.082-.019.006-.039.006-.058 0-.186-.018-.373.03-.527.134-.24.14-.434.348-.555.598-.14.29-.208.61-.2.932 0 .385.069.6.208.7.138.1.327.085.566-.05.213-.124.4-.289.55-.485.015-.025.034-.046.058-.061 0 0 .031 0 .05.023l.135.23c.004.017.004.034 0 .051-.006.033-.019.065-.038.092-.219.31-.506.565-.84.744-.393.242-.705.273-.924.115zM2.635 14.356c-.023 0-.035-.062-.035-.131v-2.75c-.001-.06.01-.119.035-.174.027-.05.069-.092.12-.119l.881-.508c.59-.34.885-.166.882.52.001.21-.034.42-.104.62-.07.193-.174.372-.308.527l.366.856c.002.019.002.038 0 .057.003.053-.026.103-.073.127l-.385.224c-.022.015-.047.024-.074.027 0 0-.03 0-.042-.05l-.32-.836-.412.239v.909c.002.06-.01.119-.034.173-.03.05-.072.092-.124.12l-.262.15c-.05.03-.088.038-.111.019zm.916-2.142c.253-.136.403-.407.386-.693 0-.158-.031-.258-.089-.3-.058-.043-.154-.024-.273.046l-.413.239v.928l.39-.22zM4.842 13.096c-.027 0-.039-.065-.039-.13v-2.762c-.003-.06.01-.12.039-.174.026-.052.068-.095.12-.123l1.444-.832c.054-.03.092-.039.115-.023.026.04.037.088.031.135v.17c.002.058-.009.117-.03.173-.03.046-.069.084-.116.111l-1.013.593v.732l.716-.416c.058-.03.096-.038.116 0 .019.039.03.062.03.131v.162c.004.06-.007.119-.03.173-.026.05-.066.089-.116.112l-.716.393v.74l1.024-.59c.054-.034.093-.038.116-.023.025.04.036.088.03.135v.158c.002.058-.008.116-.03.17-.029.044-.069.082-.116.107l-1.44.832c-.074.046-.112.046-.135.046zM6.837 11.94c-.029-.035-.041-.081-.035-.126V9.048c0-.06.011-.119.035-.173.027-.05.069-.092.12-.12l.731-.42c.386-.23.698-.277.906-.142.208.135.308.474.308 1.017.014.476-.093.948-.312 1.371-.21.38-.522.694-.902.905l-.732.424c-.053.03-.096.03-.119.03zm.878-1.016c.203-.113.364-.287.463-.497.115-.278.168-.578.154-.878 0-.385-.05-.601-.154-.694-.104-.092-.255-.08-.463.039l-.339.196v2.03l.34-.196zM9.244 10.554c-.026-.02-.038-.065-.038-.13V7.672c-.003-.06.01-.12.038-.173.026-.053.068-.096.12-.124l.262-.15c.058-.03.096-.038.12-.02.022.02.034.062.034.136v2.75c.001.058-.01.116-.035.17-.027.05-.069.091-.12.119l-.261.15c-.077.035-.12.039-.12.023zM10.731 9.684c-.027 0-.038-.062-.038-.131V7.164l-.57.328c-.054.036-.093.044-.116.023-.02 0-.03-.062-.03-.131v-.173c-.002-.058.008-.116.03-.17.028-.047.068-.086.116-.111l1.718-.994c.057-.031.096-.039.12 0 .022.038.03.061.03.13v.174c.002.057-.009.113-.03.166-.027.05-.07.09-.12.115l-.57.328V9.24c.001.058-.01.116-.035.17-.029.05-.072.091-.123.119l-.258.15c-.07.015-.1.023-.124.004zM13.72 7.65c-.22-.154-.33-.5-.33-1.032-.012-.49.1-.975.327-1.41.205-.406.525-.744.92-.97.144-.09.3-.157.462-.201.115-.033.236-.033.35 0 .024.007.039.03.036.054-.002.03-.01.06-.024.088l-.119.355c-.01.03-.028.057-.05.08-.019.007-.04.007-.058 0-.186-.015-.373.034-.528.14-.24.137-.434.345-.554.596-.141.29-.21.61-.2.932 0 .386.069.597.207.701.14.104.328.085.567-.053.213-.121.4-.285.547-.482.017-.024.038-.046.061-.065 0 0 .031 0 .047.023l.138.235c.004.015.004.03 0 .046-.005.034-.02.066-.042.092-.215.313-.501.57-.836.748-.39.238-.697.277-.92.123zM15.666 6.802c-.003-.026-.003-.054 0-.08l.897-3.382c.013-.049.03-.095.054-.14.024-.032.054-.06.089-.08l.254-.146c.034 0 .061-.027.08 0 .02.027.035.034.055.077l.913 2.342v.069c.002.047-.022.091-.062.116l-.42.242c-.021.015-.047.022-.073.02 0 0-.027-.024-.039-.054l-.161-.455-.844.49-.158.635c-.007.035-.02.069-.038.1-.02.026-.045.047-.074.062l-.42.242c-.034.012-.053-.004-.053-.058zm1.463-1.926l-.289-.832-.292 1.156.581-.324zM18.343 5.289c-.027 0-.039-.062-.039-.131v-2.75c-.003-.06.01-.12.039-.174.025-.052.067-.094.119-.12l.878-.508c.59-.341.886-.168.886.52.002.21-.033.419-.104.617-.07.195-.175.375-.312.531l.366.855c.004.02.004.039 0 .058.003.053-.026.103-.073.127l-.385.224c-.021.015-.047.023-.073.023 0 0-.031 0-.043-.047l-.32-.835-.416.238v.91c.003.06-.01.118-.034.173-.028.05-.07.09-.12.115l-.262.154c-.046.031-.084.039-.107.02zm.916-2.142c.122-.067.224-.164.297-.281.07-.126.104-.269.1-.412 0-.162-.03-.262-.092-.3-.058-.04-.15-.024-.27.045l-.416.24v.928l.381-.22zM20.546 4.014c-.023 0-.035-.062-.035-.127V1.132c-.001-.06.01-.118.035-.173.029-.05.072-.092.123-.12l.728-.42c.385-.23.697-.276.905-.142.208.135.309.474.309 1.017.014.476-.093.948-.312 1.371-.21.38-.522.695-.902.906l-.728.423c-.058.031-.096.039-.123.02zm.878-1.017c.202-.115.364-.288.466-.497.112-.277.164-.576.15-.875 0-.385-.05-.604-.15-.697-.1-.092-.258-.08-.466.039l-.339.196v2.03l.34-.196z" transform="translate(-89 -77) translate(89 77) translate(105.126) translate(4.622) translate(3.852 16.178)"/>
                                </g>
                                <path fill="#90CAF9" d="M3.798 25.904l1.54-.894c.201-.115.363-.023.363.208v.474c-.014.256-.148.49-.362.632l-1.541.893c-.2.116-.366.02-.366-.212v-.473c.015-.256.151-.489.366-.628zM.385 27.872l1.54-.893c.201-.116.363-.024.363.211v.474c-.014.255-.148.488-.362.628l-1.54.894c-.201.115-.363.023-.363-.208v-.474c.013-.257.147-.491.362-.632zM19.922 19.876L.662 30.996c-.357.234-.582.625-.604 1.052v.57c0 .385.27.543.605.35l19.259-11.12c.355-.236.58-.626.605-1.052v-.57c0-.385-.274-.543-.605-.35z" transform="translate(-89 -77) translate(89 77) translate(105.126) translate(4.622) translate(3.852 16.178)"/>
                                <path fill="#455A64" d="M3.798 25.904l1.54-.894c.201-.115.363-.023.363.208v.474c-.014.256-.148.49-.362.632l-1.541.893c-.2.116-.366.02-.366-.212v-.473c.015-.256.151-.489.366-.628zM.385 27.872l1.54-.893c.201-.116.363-.024.363.211v.474c-.014.255-.148.488-.362.628l-1.54.894c-.201.115-.363.023-.363-.208v-.474c.013-.257.147-.491.362-.632zM19.922 19.876L.662 30.996c-.357.234-.582.625-.604 1.052v.57c0 .385.27.543.605.35l19.259-11.12c.355-.236.58-.626.605-1.052v-.57c0-.385-.274-.543-.605-.35z" transform="translate(-89 -77) translate(89 77) translate(105.126) translate(4.622) translate(3.852 16.178)"/>
                                <path fill="#FAFAFA" d="M.416 22.476l.073-.043c.216-.127.385 0 .385.297v1.537c-.004.302-.146.586-.385.77l-.061.039c-.22.135-.386 0-.386-.281v-1.541c-.01-.305.13-.596.374-.778zM2.45 21.309l.073-.043c.216-.127.385 0 .385.297v1.517c-.002.303-.144.587-.385.77l-.062.04c-.22.134-.385 0-.385-.282v-1.54c-.002-.298.137-.58.374-.76zM4.484 20.141l.073-.042c.215-.127.385 0 .385.297v1.517c-.002.303-.145.587-.385.77l-.058.04c-.223.134-.385 0-.385-.282v-1.54c-.003-.298.134-.579.37-.76zM6.517 18.974l.074-.042c.215-.127.385 0 .385.297v1.517c-.004.302-.146.586-.385.77l-.062.04c-.223.134-.385 0-.385-.282v-1.54c-.002-.299.136-.58.373-.76zM9.93 16.98l.085-.032c.216-.123.385 0 .385.3v1.518c-.004.302-.146.586-.385.77l-.062.035c-.223.139-.385 0-.385-.28v-1.542c-.007-.299.127-.584.362-.77zM11.964 15.812l.073-.042c.22-.124.385 0 .385.3v1.518c-.004.302-.146.585-.385.77l-.062.035c-.22.138-.385 0-.385-.281V16.57c0-.298.138-.578.374-.76zM14.002 14.637l.069-.042c.22-.124.385 0 .385.3v1.518c-.005.302-.146.585-.385.77l-.062.035c-.22.139-.385 0-.385-.281v-1.541c-.001-.298.139-.58.378-.759zM16.035 13.482l.07-.043c.22-.123.385 0 .385.3v1.518c-.005.302-.147.586-.385.77l-.062.035c-.22.139-.385 0-.385-.28V14.24c-.001-.298.139-.58.377-.758zM19.448 11.482l.07-.038c.219-.127.385 0 .385.297v1.517c-.005.302-.147.586-.386.77l-.061.039c-.22.135-.385 0-.385-.281v-1.54c-.002-.3.138-.583.377-.764zM21.482 10.315l.07-.038c.219-.127.384 0 .384.296v1.518c-.004.302-.146.585-.385.77l-.061.039c-.22.135-.386 0-.386-.281v-1.541c-.001-.3.139-.582.378-.763zM23.516 9.148l.073-.038c.216-.127.385 0 .385.296v1.518c-.003.302-.145.586-.385.77l-.062.039c-.22.135-.385 0-.385-.281V9.91c-.003-.3.135-.582.374-.763zM25.55 7.981l.073-.038c.215-.128.385 0 .385.296v1.518c-.003.302-.145.586-.385.77l-.058.039c-.224.135-.385 0-.385-.281V8.744c-.003-.298.134-.58.37-.763zM28.962 5.99l.073-.043c.216-.127.386 0 .386.3v1.515c-.003.302-.145.586-.386.77l-.057.038c-.224.135-.386 0-.386-.28V6.747c-.003-.297.134-.578.37-.758zM30.996 4.823l.073-.043c.216-.127.385 0 .385.3v1.514c-.005.302-.146.585-.385.77l-.061.035c-.224.135-.386 0-.386-.28V5.577c0-.297.138-.576.374-.755zM33.03 3.655l.073-.042c.22-.127.385 0 .385.3v1.514c-.003.303-.145.586-.385.77l-.062.04c-.22.134-.385 0-.385-.282v-1.54c-.002-.298.137-.58.374-.76zM35.052 2.488l.07-.042c.219-.127.385 0 .385.3V4.26c-.005.302-.146.586-.386.77l-.061.04c-.22.134-.385 0-.385-.282v-1.54c-.003-.3.137-.581.377-.76z" transform="translate(-89 -77) translate(89 77) translate(105.126) translate(4.622) translate(3.852 16.178)"/>
                            </g>
                            <path fill="#263238" d="M1.822 28.153L0.231 27.237 0.231 35.137 1.822 36.042z" transform="translate(-89 -77) translate(89 77) translate(105.126) translate(4.622)"/>
                        </g>
                        <path fill="#90CAF9" d="M6.448 39.25l-1.587-.928L.24 42.78c-.15.142-.223.348-.198.553.026.205.148.386.329.487.019 0 1.286.751 1.54.886.157.081.333.118.509.108l4.052-.77c.114-1.592.114-3.19 0-4.78l-.023-.012z" transform="translate(-89 -77) translate(89 77) translate(105.126)"/>
                        <path fill="#FFF" d="M1.884 44.701c-.24-.135-1.507-.878-1.541-.886-.18-.1-.303-.282-.328-.487-.026-.205.047-.41.197-.553l4.622-4.457 1.59.933L1.804 43.7c-.139.136-.21.326-.194.52.016.193.116.369.275.481z" opacity=".5" transform="translate(-89 -77) translate(89 77) translate(105.126)"/>
                    </g>
                </g>
            </g>
        </g>
    </g>
</svg>
