<svg xmlns="http://www.w3.org/2000/svg" xmlns:xlink="http://www.w3.org/1999/xlink" width="251" height="153" viewBox="0 0 251 153">
    <defs>
        <path id="v7e1ejwq3a" d="M0.288 0.27L20.953 0.27 20.953 46.724 0.288 46.724z"/>
        <path id="ljknwlxg6c" d="M0 0.085L12.169 0.085 12.169 24.437 0 24.437z"/>
        <path id="zd91gnjhwe" d="M0.007 0.016L12.536 0.016 12.536 22.383 0.007 22.383z"/>
        <path id="ei0ixg9oqf" d="M0.054 0.073L8.552 0.073 8.552 7.247 0.054 7.247z"/>
    </defs>
    <g fill="none" fill-rule="evenodd">
        <g>
            <g>
                <path fill="#DBEDFC" d="M245.9 85.41c-.157 2.747-.466 5.51-.92 8.268-1.471 8.935-4.475 17.81-8.869 25.867-7.906 14.518-20.315 26.382-36.354 31.182-20.829 6.235-42.12-2.707-63.03-3.636-15.947-.706-31.254 5.31-47.195 5.272-14.226-.034-28.612-2.09-42.018-6.967C20.219 135.469 1.174 113.28.07 83.566c-.965-26.03 7.841-57.722 30.541-72.98 24.364-16.378 56.489-8.7 79.63 6.071 13.413 8.566 27.333 17.125 43.805 16.556 15.853-.546 30.789-7.811 46.77-7.138 20.322.859 35.524 16.883 41.778 35.354 2.599 7.666 3.77 15.894 3.305 23.98" transform="translate(-54 -84) translate(54 84)"/>
                <path fill="#82B378" d="M13.556 126.318c-.19-.41-.019-.868.356-1.096.861-.524 2.156.028 2.9.527.182.122.353.258.513.405.066.031.131.065.195.1-.15-.627-.286-1.257-.409-1.89-.45-.328-.85-.677-1.385-.912-.591-.26-1.208-.506-1.836-.66-.555-.135-1.158-.116-1.544-.607-.314-.399-.339-.938-.028-1.344.787-1.028 2.206-.25 2.998.331.59.433 1.094.949 1.503 1.533-.104-.665-.193-1.333-.269-2.001-.314-.388-.694-.724-1.121-.976-.623-.366-1.34-.553-2.002-.834-.994-.422-2.866-1.787-1.723-3.007 1.051-1.122 2.713.145 3.538.91.415.387.776.817 1.08 1.282-.021-.351-.037-.702-.05-1.053-.143-.215-.222-.476-.343-.714-.189-.37-.404-.73-.65-1.066-.51-.696-1.117-1.3-1.72-1.913-.57-.578-1.104-1.196-1.395-1.963-.236-.625-.472-1.645.175-2.108.663-.476 1.503.04 2.021.499.585.517 1.005 1.193 1.39 1.865.195.342.377.693.546 1.052.017-.355.037-.71.062-1.066.04-.572.091-1.143.152-1.714.062-.587.082-1.212.337-1.753.231-.49 1.023-.536 1.129.084.159.938-.113 1.978-.19 2.92-.053.64-.092 1.28-.12 1.919.353-.711.703-1.475 1.188-2.094.8-1.018 2.8-1.573 3.585-.193.86 1.51-1.213 2.602-2.206 3.257-.718.473-1.451.974-2.002 1.643-.227.274-.426.576-.565.903-.012.029-.022.058-.032.088.01.36.022.72.038 1.08.239-.464.537-.898.893-1.29.889-.98 2.306-1.811 3.568-.942.454.314.797.896.658 1.46-.158.639-1.036.986-1.568 1.243-.722.347-1.488.514-2.235.786-.369.133-.756.31-1.024.606-.062.068-.11.14-.15.213l.028.307c.068.706.151 1.412.247 2.117.293-.55.665-1.052 1.143-1.457.937-.793 2.612-1.565 3.73-.688.446.35.713.967.583 1.529-.157.682-.786.982-1.412 1.133-1.26.303-3.126.3-3.713 1.59.15.845.32 1.687.511 2.523.172-.454.44-.877.792-1.248.67-.705 1.932-1.407 2.91-.918 1.057.53.468 1.745-.31 2.208-.605.359-1.289.43-1.954.608-.439.117-.878.339-1.11.702.302 1.179.645 2.346 1.032 3.496.707 2.105 1.458 4.37 2.859 6.127.293.367-.233.832-.552.482-1.357-1.498-2.16-3.374-2.904-5.227-.637-1.589-1.185-3.215-1.652-4.863-.315-.242-.648-.446-1.052-.592-.673-.243-1.383-.354-2.076-.524-.502-.123-1.119-.302-1.358-.815" transform="translate(-54 -84) translate(54 84) rotate(-17 17.462 123.117)"/>
                <path fill="#90AEFF" d="M67.519 129.425l-40.579 15.52c-2.501.956-4.586-.744-4.586-3.824V23.967c0-3.08 2.085-4.78 4.586-3.824l40.579 15.52c1.374.525 2.467 2.731 2.467 4.937v83.888c0 2.206-1.093 4.412-2.467 4.937" transform="translate(-54 -84) translate(54 84)"/>
                <path fill="#D0E1FC" d="M67.396 125.723L27.158 138.309 27.158 30.309 67.396 44.393z" transform="translate(-54 -84) translate(54 84)"/>
                <path fill="#649BEA" d="M55.871 36.429l-12.037-4.135c-.413-.142-.753-.72-.753-1.281 0-.563.34-.901.753-.753l12.037 4.302c.346.124.628.643.628 1.154 0 .51-.282.832-.628.713" transform="translate(-54 -84) translate(54 84)"/>
                <path fill="#F8F8F8" d="M235.897 93.762c-1.429 8.481-4.345 16.906-8.612 24.554-9.71 6.004-28.742 16.688-49.245 22.243-38.488 10.433-72.94-7.578-98.66-21.47s-52.226-7.768-52.226-7.768l-.007-33.484c57.344-4.207 83.856 38.305 120.96 47.146 31.407 7.483 75.113-21.995 87.79-31.22" transform="translate(-54 -84) translate(54 84)"/>
                <path fill="#5B5B5B" d="M77.541 100.068s-2.744 2.063-1.085 2.988c1.658.924 4.164 1.202 5.256 1.644 1.092.442 3.357 1.688 3.638.558.28-1.13-1.701-2.135-2.875-2.94-1.173-.804-1.861-1.49-1.861-1.49l-3.073-.76z" transform="translate(-54 -84) translate(54 84)"/>
                <path fill="#3A216E" d="M82.162 96.812c.293.072.473.37.4.663l-1.891 7.615c-.072.292-.371.472-.665.4-.292-.073-.473-.371-.4-.664l1.892-7.615c.073-.292.372-.472.664-.4" transform="translate(-54 -84) translate(54 84)"/>
                <path fill="#3A216E" d="M82.824 106.946l-5.904-1.462c-.56-.139-.903-.708-.764-1.267.138-.558.709-.901 1.268-.763l5.904 1.462c.559.139.903.709.764 1.267-.138.558-.71.901-1.268.763" transform="translate(-54 -84) translate(54 84)"/>
                <path fill="#CC8A5E" d="M79.332 63.148s-.21 17.43-.368 19.447c-.158 2.018-2.971 10.577-1.423 17.473l3.073.76s4.215-14.895 5.215-20.303c1-5.408 3.243-16.508 3.243-16.508l-9.74-.87z" transform="translate(-54 -84) translate(54 84)"/>
                <path fill="#3A216E" d="M117.606 65.697l-4.035-1.04c-.687-.177-1.104-.883-.927-1.569.177-.686.884-1.102 1.572-.925l4.034 1.04c.688.177 1.104.883.927 1.569-.177.686-.885 1.102-1.571.925M113.694 88.964c-8.693-2.241-17.56 2.979-19.805 11.659-2.244 8.68 2.984 17.533 11.678 19.774 8.693 2.24 17.56-2.98 19.804-11.66 2.245-8.68-2.983-17.532-11.677-19.773m-.651 2.52c7.288 1.878 11.686 9.326 9.805 16.604-1.882 7.276-9.342 11.668-16.63 9.79-7.288-1.88-11.687-9.328-9.806-16.605 1.882-7.276 9.342-11.668 16.63-9.79M60.157 75.164c-8.693-2.24-17.56 2.98-19.805 11.66-2.244 8.68 2.984 17.532 11.678 19.773 8.694 2.241 17.56-2.979 19.805-11.659 2.244-8.68-2.984-17.533-11.678-19.774m-.651 2.52c7.288 1.878 11.687 9.327 9.805 16.604-1.881 7.276-9.341 11.668-16.63 9.79-7.288-1.879-11.687-9.327-9.805-16.604 1.882-7.277 9.342-11.669 16.63-9.79" transform="translate(-54 -84) translate(54 84)"/>
                <path fill="#FF6F5C" d="M56.308 67.864l.22 20.453L66.651 70.53l-10.343-2.666zm-.64 23.775c-.31-.08-.53-.358-.533-.68l-.259-24.006c-.002-.22.099-.43.273-.566.174-.136.402-.184.616-.129l12.14 3.13c.214.055.39.206.477.41.086.203.073.435-.037.627l-11.88 20.878c-.16.279-.486.416-.797.336z" transform="translate(-54 -84) translate(54 84)"/>
                <path fill="#F45E4A" d="M107.702 71.91c-.509-.131-.885-.591-.888-1.14l-.008-2.223c-.001-.42.22-.81.583-1.023.363-.214.812-.219 1.179-.014.565.31 2.29 1.032 3.434.62.296-.106.726-.337 1.033-1.112.323-.814.363-1.467.118-1.939-.367-.706-1.306-.939-1.315-.942l-.018-.005c-.621-.16-1.009-.787-.863-1.414.147-.632.77-1.03 1.405-.889.205.045 2.003.486 2.878 2.13.591 1.114.59 2.436-.002 3.93-.484 1.22-1.329 2.074-2.445 2.471-1.236.44-2.575.246-3.611-.058l.002.459c.002.652-.526 1.184-1.18 1.186-.105 0-.206-.012-.302-.037" transform="translate(-54 -84) translate(54 84)"/>
                <path fill="#3A216E" d="M111.073 64.013l-4.035-1.04c-.687-.177-1.104-.883-.927-1.569.178-.686.885-1.102 1.571-.925l4.035 1.04c.688.177 1.104.883.927 1.57-.177.685-.884 1.101-1.571.924" transform="translate(-54 -84) translate(54 84)"/>
                <path fill="#F45E4A" d="M69.59 71.358l-16.97-4.375c-.915-.235-1.47-1.175-1.234-2.088s1.177-1.467 2.092-1.231l16.97 4.374c.914.235 1.469 1.175 1.233 2.088s-1.177 1.467-2.092 1.232" transform="translate(-54 -84) translate(54 84)"/>
                <path fill="#3A216E" d="M112.803 105.498c-.453 1.75-2.24 2.802-3.992 2.35-1.752-.452-2.806-2.236-2.353-3.986.452-1.749 2.24-2.801 3.991-2.35 1.753.452 2.806 2.237 2.354 3.986M59.266 91.699c-.452 1.75-2.24 2.801-3.992 2.35-1.752-.452-2.805-2.237-2.353-3.986.452-1.75 2.24-2.801 3.992-2.35 1.752.452 2.806 2.236 2.353 3.986" transform="translate(-54 -84) translate(54 84)"/>
                <path fill="#82A0F0" d="M83.052 95.314L81.323 75.25l23.696 5.396-21.967 14.668zm-4.516-19.299l1.703 19.759-21.52-5.547 19.817-14.212zm32.521 28.812l-1.22-24.233c.123-.262.167-.56.112-.857-.03-.168-.094-.322-.179-.463l-.28-7.163c-.039-.783-.707-1.386-1.49-1.346-.785.04-1.389.706-1.35 1.489l.217 5.901-25.8-5.875-.613-7.118c-.068-.781-.756-1.36-1.538-1.292-.782.067-1.362.754-1.295 1.535l.63 7.319L54.595 89.69c-.002 0-.003.002-.004.003-.036.025-.07.053-.103.082l-.034.032c-.025.023-.05.046-.073.07-.017.019-.031.038-.047.057l-.042.05c-.017.022-.031.044-.046.067-.01.016-.023.031-.033.048-.016.026-.03.052-.043.079-.008.014-.017.028-.024.043-.042.085-.074.173-.098.264v.003c-.004.013-.006.026-.008.039-.008.031-.015.062-.02.095-.004.023-.005.046-.008.069-.002.022-.006.045-.007.068-.002.025-.001.051-.002.077v.06l.006.076.007.064c.003.022.007.045.012.067l.013.07.017.06c.007.024.014.049.023.074l.02.053.031.075c.009.02.019.038.029.056.011.022.022.045.035.067.014.024.03.047.045.07.01.014.018.03.028.043l.003.003c.027.039.056.075.088.11l.012.013c.027.03.056.06.085.087l.045.038c.02.017.04.035.062.052l.054.037c.02.014.04.029.061.042.02.012.041.022.061.033.02.011.04.023.062.033.033.016.067.03.1.044l.028.011c.044.016.09.03.134.042l.004.002 25.814 6.653c.102.094.217.175.346.237.084.04.171.072.26.095.388.1.805.033 1.146-.194l24.462-16.334 1.123 22.295c.031.635.478 1.152 1.064 1.303.135.035.28.05.427.043.784-.04 1.388-.706 1.348-1.489z" transform="translate(-54 -84) translate(54 84)"/>
                <path fill="#F45E4A" d="M86.454 66.046s-6.32 2.372-12.149-.84c-3.905-2.153-.4-6.34 2.939-4.462 3.338 1.879 7.313 2.777 8.99 2.7 1.678-.077 2.17 1.96.22 2.602M86.321 98.105c-.598 2.407-3.037 3.875-5.448 3.277-2.411-.596-3.88-3.032-3.283-5.44.598-2.406 3.037-3.874 5.448-3.276 2.411.596 3.881 3.032 3.283 5.44" transform="translate(-54 -84) translate(54 84)"/>
                <path fill="#3A216E" d="M83.653 97.444c-.232.936-1.18 1.507-2.119 1.275-.937-.232-1.509-1.179-1.276-2.115.233-.936 1.18-1.507 2.119-1.275.937.232 1.509 1.18 1.276 2.115" transform="translate(-54 -84) translate(54 84)"/>
                <path stroke="#085486" stroke-width="2" d="M56.065 87.612S81.592 90.8 85.32 92.831c4.29 2.336 2.63 10.567-3.97 9.302-6.053-1.16-23.876-7.205-26.786-8.198-.534-.182-1.017-.507-1.336-.971-.411-.597-.712-1.554-.272-2.996.88-2.883 3.11-2.356 3.11-2.356z" transform="translate(-54 -84) translate(54 84)"/>
                <path fill="#CC8A5E" d="M100.868 45.04s6.098 10.09 8.412 11.034c3.983 1.624 8.659 5.915 8.661 7.287.003 1.371-1.328 3.27-1.694 1.98-.365-1.29-1.015-2.823-1.743-3.346-.729-.523-10.311-3.41-10.514-3.975-.203-.564-6.89-10.017-6.89-10.017s-.762-4.77 3.768-2.963" transform="translate(-54 -84) translate(54 84)"/>
                <path fill="#E59D6C" d="M90.604 61.997s11.327 6.919 11.781 12.001c.454 5.083-17.4 9.232-17.4 9.232l-1.013-2.137s3.345-4.485 6.657-5.378c3.312-.894 4.24-1.864 4.24-1.864s-7.967-3.173-9.668-5.308c-1.701-2.135 5.403-6.546 5.403-6.546" transform="translate(-54 -84) translate(54 84)"/>
                <path fill="#5B5B5B" d="M83.972 81.093s-2.183-.198-1.897 1.416c.286 1.613-.477 3.995.574 4.598 1.052.604 4.893 1.726 4.81.677-.082-1.049-1.011-.765-1.741-1.974-.73-1.209-.732-2.58-.732-2.58l-1.014-2.137z" transform="translate(-54 -84) translate(54 84)"/>
                <path fill="#CC8A5E" d="M98.84 39.678s.52.705 1.337-.388l3.373 2.367-1.826 2.527s-.58 1.159-2.543.264c-1.962-.895-1.868-3.339-.34-4.77" transform="translate(-54 -84) translate(54 84)"/>
                <path fill="#2A4282" d="M98.84 39.678s-7.955 3.26-13.36 9.12c-5.404 5.86-10.593 8.95-7.756 12.424 3.974 4.865.856 6.493 3.043 9.434l16.969-3.451s-5.758-5.21-6.325-5.694c-.566-.483 1.567-4.925 4.07-6.019 2.504-1.094 3.958-1.42 4.52-3.68.561-2.26 1.723-7.628 1.723-7.628s-4.087.337-2.883-4.506" transform="translate(-54 -84) translate(54 84)"/>
                <path fill="#E59D6C" d="M92.592 44.322s.547 11.618 1.765 15.005c1.219 3.387 12.408 1.188 14.068 2.799 1.66 1.61-.238 2.34 1.096 2.499 1.333.159 2.299-2.344 1.084-3.674-1.215-1.329-12.74-5.383-12.74-5.383s.386-10.53-.061-11.498c-.446-.968-3.846-3.866-5.212.252" transform="translate(-54 -84) translate(54 84)"/>
                <path fill="#3A216E" d="M84.14 88.855c.292.073.472.371.4.663l-1.892 7.615c-.073.293-.372.473-.665.4-.293-.072-.473-.371-.4-.663l1.892-7.615c.072-.293.371-.473.664-.4" transform="translate(-54 -84) translate(54 84)"/>
                <path fill="#3A216E" d="M86.942 90.37l-5.904-1.463c-.56-.138-.903-.708-.764-1.266.138-.558.709-.901 1.268-.763l5.904 1.462c.559.139.903.708.764 1.267-.138.558-.71.901-1.268.762" transform="translate(-54 -84) translate(54 84)"/>
                <path fill="#CC8A5E" d="M103.55 41.657s1.348.654 2.63.735c1.283.081 2.53-.236 3.923-1.547 1.391-1.31 3.066-3.7 3.788-5.176s-1.492-7.819-6.036-7.644c-4.544.176-8.973 6.373-7.678 11.265 1.295 4.892 3.373 2.367 3.373 2.367" transform="translate(-54 -84) translate(54 84)"/>
                <path fill="#FFBE55" d="M71.22 68.452L52.261 63.846 56.306 47.243 75.266 51.849z" transform="translate(-54 -84) translate(54 84)"/>
                <path fill="#FFBE55" d="M75.994 54.154L54.691 48.979 55.67 44.96 76.973 50.135z" transform="translate(-54 -84) translate(54 84)"/>
                <path fill="#E1A749" d="M74.643 54.427L55.676 49.82 55.815 49.25 74.782 53.857z" transform="translate(-54 -84) translate(54 84)"/>
                <path fill="#FFBE55" d="M72.845 49.48L56.187 45.433 59.742 30.846 76.4 34.892z" transform="translate(-54 -84) translate(54 84)"/>
                <path fill="#FFBE55" d="M77.039 36.917L58.323 32.371 59.183 28.84 77.9 33.386z" transform="translate(-54 -84) translate(54 84)"/>
                <path fill="#E1A749" d="M75.852 37.157L59.188 33.109 59.31 32.609 75.974 36.657zM72.943 49.199L56.279 45.151 56.401 44.65 73.065 48.698z" transform="translate(-54 -84) translate(54 84)"/>
                <path fill="#3A216E" d="M104.983 26.491c-3.48.554-6.081 2.628-8.79 4.705-2.64 2.023-6.812 4.102-9.884 1.671-2.115-1.674-2.964-4.654-6.063-4.846-2.485-.154-4.807 1.589-5.661 3.857-1.19 3.158-.142 6.302 1.915 8.752l.03.037c.03.037.061.072.093.108.1.12.205.238.315.353 1.825 1.96 4.294 3.405 6.697 3.94 7.682 1.712 14.636-2.718 20.225-7.464.253-.215.316-.472.261-.707.006-.033.01-.068.01-.104.01-.999.167-2.253 1.425-2.386.692-.074 1.352.375 1.9.724.756.484 1.444 1.085 2.303 1.392 1.323.472 2.82.303 3.998-.428.17.015.338-.056.424-.251l.028-.07c.008-.008.017-.013.026-.02.121-.1.15-.232.122-.356 2.075-5.65-4.191-9.732-9.374-8.907" transform="translate(-54 -84) translate(54 84)"/>
                <path fill="#654FB2" d="M103.685 42.561c-.245 0-.465-.17-.519-.419-.791-3.715 4.158-7.579 4.369-7.741.232-.178.565-.135.743.095.18.232.136.564-.095.743-.046.036-4.632 3.618-3.979 6.683.06.286-.122.567-.408.628-.038.008-.075.011-.111.011" transform="translate(-54 -84) translate(54 84)"/>
                <path fill="#466EB6" d="M112.48 37.786L97.68 29.909s-.31-7.93 11.236-4.389c5.42 1.663 7.445 6.283 6.269 8.724-1.176 2.44-2.704 3.542-2.704 3.542" transform="translate(-54 -84) translate(54 84)"/>
                <path fill="#654FB2" d="M104.323 39.314c-.17 0-.337-.082-.44-.233-1.132-1.67-1.318-7.11-1.336-7.724-.008-.293.223-.536.515-.545.294-.008.537.222.546.514.045 1.585.34 5.962 1.154 7.162.164.242.1.57-.142.735-.091.061-.195.09-.297.09" transform="translate(-54 -84) translate(54 84)"/>
                <g transform="translate(-54 -84) translate(54 84) translate(229.79 13.882)">
                    <mask id="ede85w42eb" fill="#fff">
                        <use xlink:href="#v7e1ejwq3a"/>
                    </mask>
                    <path fill="#82B378" d="M20.95 24.81c.05-.673-.433-1.223-1.078-1.345-1.48-.28-2.999 1.175-3.774 2.264-.19.268-.358.548-.505.837-.075.079-.148.16-.218.243-.123-.955-.265-1.909-.428-2.86.455-.694.831-1.393 1.455-2.003.69-.673 1.421-1.343 2.218-1.889.705-.482 1.557-.773 1.838-1.662.229-.724-.022-1.49-.671-1.894-1.644-1.023-3.217.812-4.017 2.042-.597.917-1.028 1.902-1.292 2.935-.206-.985-.434-1.965-.68-2.94.233-.708.587-1.378 1.052-1.955.677-.84 1.58-1.478 2.357-2.22 1.167-1.115 3.064-4.008.82-5.112-2.062-1.016-3.716 1.63-4.464 3.137-.377.758-.654 1.55-.834 2.36-.156-.502-.319-1.002-.486-1.5.086-.374.058-.781.102-1.177.068-.618.179-1.234.346-1.833.345-1.243.874-2.406 1.394-3.582.49-1.107.911-2.253.912-3.478 0-.999-.209-2.548-1.358-2.855-1.179-.316-2.08.847-2.563 1.761-.544 1.031-.773 2.198-.956 3.34-.092.581-.162 1.169-.208 1.76-.212-.489-.428-.975-.65-1.458-.36-.779-.732-1.551-1.118-2.317-.398-.788-.756-1.652-1.399-2.274-.581-.563-1.713-.21-1.533.712.273 1.395 1.203 2.706 1.81 3.984.411.865.803 1.739 1.18 2.619-.87-.808-1.762-1.692-2.767-2.301C3.779 5.146.69 5.423.32 7.767c-.404 2.564 3.07 2.998 4.805 3.39 1.254.284 2.544.599 3.669 1.244.46.264.9.58 1.267.965.031.033.06.07.09.105.177.509.35 1.019.517 1.53-.578-.522-1.224-.973-1.93-1.334-1.76-.9-4.18-1.316-5.485.565-.47.677-.641 1.672-.148 2.388.557.809 1.968.833 2.849.91 1.191.106 2.35-.064 3.54-.078.585-.007 1.22.035 1.751.308.122.064.227.138.321.22.041.147.084.295.124.443.278 1.023.535 2.054.774 3.09-.7-.615-1.485-1.12-2.368-1.434-1.73-.616-4.48-.813-5.578 1.003-.44.725-.487 1.726-.009 2.444.58.871 1.619.959 2.573.84 1.923-.24 4.53-1.226 6.032.268.237 1.26.444 2.526.62 3.797-.482-.546-1.078-.996-1.767-1.329-1.31-.632-3.446-.95-4.554.25-1.198 1.297.268 2.687 1.6 2.923 1.036.184 2.03-.076 3.054-.178.675-.067 1.407.011 1.923.395.2 1.808.336 3.62.403 5.433.124 3.315.271 6.876-.76 10.072-.215.668.767 1.04 1.026.383 1.107-2.808 1.239-5.855 1.299-8.838.051-2.556-.042-5.12-.26-7.669.314-.504.67-.965 1.159-1.382.812-.694 1.747-1.223 2.625-1.826.637-.436 1.405-1.012 1.468-1.855" mask="url(#ede85w42eb)"/>
                </g>
                <path fill="#FFF" d="M173.074 45.94c-.1-2.202-1.396-4.308-3.48-5.244-2.057-.924-4.257-.468-6.02.72-.479-2.772-2.574-5.41-5.682-4.877-2.552.437-3.712 2.837-3.83 5.202-2.83.009-5.08 2.136-5.047 4.911-1.167.21-2.2 1.02-2.592 2.23-.588 1.811.397 3.796 1.925 4.804 3.226 2.13 7.851 1.23 10.366-1.539 2.96 2.033 7.39 1.996 9.954-.623 1.605 1.039 3.274 2.01 5.295 1.618 1.567-.304 3.23-1.43 3.654-3.035.784-2.969-2.075-4.678-4.543-4.167M66.22 8.289c-.665-.265-1.34-.295-2.05-.21-.244.03-.485.079-.714.104.318-2.112-.793-4.307-2.945-5.233-1.59-.685-3.744-.519-5.182.431.638-.421-2.683-2.53-3.066-2.646-1.517-.462-3.37-.326-4.783.405-1.81.938-3.09 2.797-3.254 4.822-.037.452.006 1.012.135 1.566-1.049.142-2.056.46-2.937 1.07-1.865 1.288-2.629 3.54-1.78 5.67 1.563 3.912 6.861 4.509 10.08 2.3 2.374 2.504 7.39 1.068 10.264-.494 2.613 1.33 5.934 1.343 7.867-1.183 1.654-2.161 1.01-5.547-1.635-6.602" transform="translate(-54 -84) translate(54 84)"/>
                <path fill="#C6EBBD" d="M206.921 121.4h35.5c.276 0 .5-.223.5-.5V34.685c0-.276-.224-.5-.5-.5h-35.5c-.552 0-1 .448-1 1V120.4c0 .552.448 1 1 1z" transform="translate(-54 -84) translate(54 84)"/>
                <g>
                    <g transform="translate(-54 -84) translate(54 84) translate(192 46) translate(0 11.064)">
                        <mask id="xxa36vpczd" fill="#fff">
                            <use xlink:href="#ljknwlxg6c"/>
                        </mask>
                        <path fill="#E8945B" d="M1.13 21.579l3.144-8.116c.255-.658 1.71-10.906 1.71-10.906L12.169.085s-3.484 13.17-4.164 14.826c-1.124 2.735-5.377 6.962-5.377 6.962.273.549-.016 1.262-.665 1.73-.648.469-.407.4-.856.742-.45.342-.868-.38-.868-.38-.863-1.782.89-2.386.89-2.386" mask="url(#xxa36vpczd)"/>
                    </g>
                    <g transform="translate(-54 -84) translate(54 84) translate(192 46) translate(11.32 9.775)"/>
                    <path fill="#2B478B" d="M2.324 36.265s.35 4.37.761 9.623c.56 7.135 2.69 24.916 2.69 24.916s-.452.709 1.74.247c0 0 2.685-6.056 3.243-13.023l.026-.344c.519-7.092 1.326-22.025 1.326-22.025l-9.786.606z" transform="translate(-54 -84) translate(54 84) translate(192 46)"/>
                    <path fill="#233862" d="M2.204 34.755s.47 5.88.881 11.133l7.673 12.14.026-.344c.519-7.092 1.326-22.025 1.326-22.025l-9.906-.904z" transform="translate(-54 -84) translate(54 84) translate(192 46)"/>
                    <path fill="#2B478B" d="M3.915 33.648l13.189 37.945s1.379-.26 1.688-.87c0 0 .38-16.047-1.855-19.918-1.262-2.188-2.143-8.324-1.993-10.396.295-4.06-.915-7.84-.915-7.84l-10.114 1.08z" transform="translate(-54 -84) translate(54 84) translate(192 46)"/>
                    <path fill="#424242" d="M7.829 73.911H6.755c-.36-.056-.625-.16-.994-.209-.56-.073-.818.157-.87.21l-.01.01H.322c-.115-.164-.005-.543.103-.823.073-.19.231-.333.427-.39.484-.14 1.437-.265 2.31-1.055.492-.444 2.373-1.633 2.373-1.633l.01-.002c.041 0 .238.061 1.094.784.442.372 1.196-.527 1.196-.527s.141.117.247.335c.085.173.147.41.098.7-.068.412.151 1.175.327 1.692.106.313.195.535.195.535s.052.258-.872.373" transform="translate(-54 -84) translate(54 84) translate(192 46)"/>
                    <path fill="#424242" d="M7.827 73.927h-1.07c-.359-.057-.627-.176-.996-.225-.56-.073-.818.157-.87.21l-.01.01H.322c-.115-.164-.005-.543.103-.823.139-.123.178.535.254.64.077.105 3.72.039 3.931-.115.21-.153.842-.42 1.722-.21.766.183 1.895-.286 2.175-.411.106.313.195.535.195.535s.05.273-.874.389M18.793 73.911h-1.074c-.36-.056-.625-.16-.994-.209-.56-.073-.818.157-.87.21l-.01.01h-4.56c-.115-.164-.005-.543.103-.823.073-.19.231-.333.427-.39.483-.14 1.437-.265 2.31-1.055.492-.444 2.373-1.633 2.373-1.633l.01-.002c.041 0 .238.061 1.093.784.443.372 1.197-.527 1.197-.527s.141.117.247.335c.085.173.147.41.098.7-.068.412.151 1.175.326 1.692.107.313.196.535.196.535s.052.258-.872.373" transform="translate(-54 -84) translate(54 84) translate(192 46)"/>
                    <path fill="#424242" d="M18.791 73.927h-1.07c-.359-.057-.627-.176-.996-.225-.56-.073-.818.157-.87.21l-.01.01h-4.56c-.115-.164-.005-.543.103-.823.138-.123.177.535.254.64.076.105 3.72.039 3.931-.115.21-.153.842-.42 1.722-.21.766.183 1.895-.286 2.174-.411.107.313.196.535.196.535s.05.273-.874.389" transform="translate(-54 -84) translate(54 84) translate(192 46)"/>
                    <path fill="#FFB27D" d="M12.02 11.018s-4.273 2.103-6.743 1.324c0 0 .608-.777 1.668-1.36-.06-.36-.109-.688-.147-.981-.137-1.059-.142-1.662-.142-1.662l2.62-2.11.587-.474c-.017.5.014.965.08 1.393l.015.1c.426 2.541 2.063 3.77 2.063 3.77" transform="translate(-54 -84) translate(54 84) translate(192 46)"/>
                    <path fill="#E7A164" d="M14.46 33.392c.013.272-.548.571-.792.68-1.08.485-2.117.883-3.18 1.165-.743.197-1.499.339-2.29.415-2.289.235-4.993-.281-5.921-.268-.099 0-.185-.038-.26-.099-.062-.05-.11-2.845-.062-6.37 0-.136 0-.285.012-.42v-.05c.013-1.373.063-2.82.125-4.255.136-3.166.383-6.221.804-7.916.494-1.99 1.632-3.302 2.671-4.267l.738-.734c.047-.046.113-.066.177-.054.826.152 1.73.14 2.598-.288.977-.482 2.04-1.002 2.213-.878 2.029 1.515 3.038 5.993 3.02 11.084l-.005.483c-.01.526-.028 1.058-.058 1.593-.221 3.755.005 7.011.135 8.904.037.545.066.977.075 1.275" transform="translate(-54 -84) translate(54 84) translate(192 46)"/>
                    <path fill="#CF7528" d="M14.46 33.392c.013.272-.548.571-.792.68-1.08.485-2.117.883-3.18 1.165-2.952-9.535.582-18.777.582-18.777l3.238 5.16c-.01.526-.028 1.058-.058 1.593-.221 3.755.005 7.011.135 8.904.037.545.066.977.075 1.275" transform="translate(-54 -84) translate(54 84) translate(192 46)"/>
                    <path fill="#CF7528" d="M9.92 17.946c1.059-.627 3.183-1.765 4.938-1.944.385-.04.62-.443.465-.797-.555-1.267-2.122-3.92-4.03-5.152-.179-.116-.314-.015-.5.09-.704.394-2.22 1.563-2.313 2.94-.083 1.226.337 3.351.591 4.495.084.38.515.566.85.368" transform="translate(-54 -84) translate(54 84) translate(192 46)"/>
                    <path fill="#E8945B" d="M9.98 7.21l-.022.038c-.165.297-1.294 2.206-3.16 2.753-.137-1.059-.142-1.662-.142-1.662l2.62-2.11c.345.404.58.776.667.919l.036.062" transform="translate(-54 -84) translate(54 84) translate(192 46)"/>
                    <path fill="#FFB27D" d="M5.9 8.28s4.08.678 4.463-1.869 1.168-4.175-1.421-4.715S5.7 2.05 5.365 2.87c-.334.82-.516 5.169.535 5.41" transform="translate(-54 -84) translate(54 84) translate(192 46)"/>
                    <g transform="translate(-54 -84) translate(54 84) translate(192 46) translate(3.866 .019)">
                        <mask id="81lf1dz9qg" fill="#fff">
                            <use xlink:href="#ei0ixg9oqf"/>
                        </mask>
                        <path fill="#2C3A64" d="M7.96 1.259c.037-.158.125-.348.334-.447 0 0-.292.031-.45.22C7.818.79 7.761.449 7.632.216c0 0 .007.325-.026.598-1.769-1.786-5.893.172-6.74.563-1.488.686-.653 1.958.299 2.27.952.312 3.321-.69 3.354-.033.033.656.476 1.379.722 1.395.247.017.427-.509.739-.164s-.23.892-.23.892c-.324.592.343 1.493.343 1.493s.215.126.593-.3c.366-.414 3.026-3.065 1.274-5.67" mask="url(#81lf1dz9qg)"/>
                    </g>
                    <path fill="#FFB27D" d="M4.463 28.454c.757-.19 2.201.055 2.492.107 0 0 5.218-3.66 6.133-4.575.662-.662-1.994-3.647-3.378-5.965.072-.01.143-.035.21-.074 1.058-.628 3.183-1.766 4.938-1.945.067-.007.13-.025.186-.052 1.198 2.588 2.433 5.983 2.69 9.379 0 0-4.407 4.302-9.978 5.059 0 0-3.328.845-3.856.81-.528-.036-.739-.74-.809-1.126-.07-.387.528-1.407 1.372-1.618" transform="translate(-54 -84) translate(54 84) translate(192 46)"/>
                </g>
                <path fill="#82B378" d="M218.836 121.426h1.983V29.032h-1.983c-.276 0-.5.224-.5.5v91.394c0 .276.224.5.5.5z" transform="translate(-54 -84) translate(54 84)"/>
                <path fill="#A5DD98" d="M220.816 29.034l-.017 92.355h22.482c.276 0 .5-.224.5-.5V34.53c0-.234-.163-.437-.392-.488l-22.573-5.007z" transform="translate(-54 -84) translate(54 84)"/>
                <path fill="#82B378" d="M240.15 65.315c-1.15.22-2.085 1.056-2.446 2.151l-11.229-1.38c-.253-.996-.976-1.815-1.933-2.193l.107-23.928c1.214-.152 2.22-.989 2.62-2.11l11.239 2.385c.223.945.87 1.747 1.748 2.166l-.106 22.91zm-.835-25.814l-12.753-2.706c-.006 1.3-1.07 2.305-2.313 2.305-.16 0-.323-.017-.487-.051l-.115 25.53c1.166.142 2.04 1.134 2.035 2.307l12.754 1.567c.006-1.289 1.059-2.304 2.314-2.304.095 0 .19.005.288.017l.113-24.39c-1.075-.228-1.842-1.178-1.836-2.275zM240.17 114.525c-1.055.304-1.89 1.134-2.197 2.185l-1.803-.003c-.305-1.051-1.135-1.883-2.188-2.189V86.751c1.125-.247 2.03-1.086 2.371-2.173l1.856.16c.272 1.006 1.03 1.831 2.01 2.19l-.05 27.597zm-1.178-30.613l-3.384-.291c0 1.288-1.05 2.314-2.315 2.314-.067 0-.135-.003-.203-.008v29.354c1.28.003 2.314 1.038 2.314 2.315l3.333.006c.003-1.277 1.04-2.31 2.318-2.31h.005l.05-29.07c-1.2-.103-2.12-1.107-2.118-2.31zM230.713 114.505c-1.056.304-1.89 1.135-2.196 2.188l-1.197-.002c-.31-1.043-1.141-1.868-2.188-2.172l-.218-28.532c.594-.13 1.14-.43 1.58-.872.373-.376.64-.826.791-1.317l1.415.122c.267 1.019 1.019 1.838 2.013 2.19v28.395zm-1.227-31.411l-2.953-.254c.01 1.295-1.043 2.332-2.314 2.332-.068 0-.135-.003-.203-.009l.23 30.12c1.272.003 2.305 1.027 2.314 2.297l2.722.005c0-1.278 1.039-2.314 2.319-2.314h.003V85.4c-1.198-.103-2.118-1.105-2.118-2.306z" transform="translate(-54 -84) translate(54 84)"/>
                <path fill="#FFE823" d="M227 75.26c0 1.001-.42 1.813-.936 1.813-.517 0-.936-.812-.936-1.813s.419-1.814.936-1.814c.517 0 .936.813.936 1.814" transform="translate(-54 -84) translate(54 84)"/>
                <path fill="#F47458" d="M227.877 74.622v1.43h-1.962c-.058-.237-.09-.501-.09-.78 0-.228.022-.448.063-.65h1.989z" transform="translate(-54 -84) translate(54 84)"/>
                <path fill="#FAE0B2" d="M229.228 75.26c0 1.51-.632 2.732-1.411 2.732-.78 0-1.41-1.223-1.41-2.732 0-1.51.63-2.733 1.41-2.733.78 0 1.411 1.224 1.411 2.733" transform="translate(-54 -84) translate(54 84)"/>
                <path fill="#F6E552" d="M229.607 75.26c0 1.51-.632 2.732-1.411 2.732-.78 0-1.411-1.223-1.411-2.732 0-1.51.631-2.733 1.41-2.733.78 0 1.412 1.224 1.412 2.733" transform="translate(-54 -84) translate(54 84)"/>
            </g>
        </g>
    </g>
</svg>
