<svg xmlns="http://www.w3.org/2000/svg" width="284" height="150" viewBox="0 0 284 150">
    <g fill="none" fill-rule="evenodd">
        <g>
            <g>
                <path fill="#DBEDFC" d="M278.968 118.05c-4.491 13.203-11.366 23.13-15.246 28.066-.153.195-.302.384-.446.564-1.054 1.316-1.839 2.207-2.22 2.629-.17.187-.26.283-.26.283l-247.872.075-.24-.37c-3.804-5.906-5.64-10.834-6.126-15.118l-.001-.01c-.09-.802-.135-1.58-.135-2.336 0-.188 0-.373.008-.555 0-.074.003-.14.006-.211.075-2.03.461-3.92 1.074-5.706.644-1.888 1.543-3.663 2.593-5.38.093-.153.185-.301.28-.45l.04-.067c.954-1.504 2.018-2.968 3.131-4.427.595-.78 1.205-1.56 1.815-2.348 2.466-3.157 4.982-6.387 6.885-10.05.054-.105.109-.21.163-.318.701-1.382 1.313-2.826 1.8-4.351.408-1.276.73-2.606.944-4.007.053-.347.1-.699.14-1.056.046-.419.083-.843.111-1.274.023-.354.037-.712.045-1.074.003-.114.004-.228.006-.343v-.013c.004-.365 0-.733-.01-1.105-.006-.247-.017-.492-.03-.741-.095-1.748-.349-3.594-.793-5.558l-.077-.332c-.093-.404-.196-.81-.307-1.222-.099-.367-.204-.737-.314-1.11-.076-.26-.156-.52-.24-.782-.13-.41-.255-.82-.374-1.226-.278-.94-.531-1.87-.758-2.793-.128-.52-.25-1.037-.36-1.552-.219-1.004-.406-1.998-.566-2.983l-.004-.022c-.11-.677-.206-1.347-.289-2.013l-.04-.334c-.654-5.579-.418-10.862.586-15.836.19-.941.408-1.873.653-2.792 2.474-9.314 7.693-17.469 14.788-24.336.988-.956 2.012-1.887 3.071-2.792C55.922 9.387 78.771 1.54 101.581.204c6.011-.351 12.02-.251 17.891.32 17.08 1.665 32.996 7.325 44.427 17.462 26.355 23.37 44.32-20.635 89.153 12.998.818.613 1.63 1.252 2.431 1.92.225.185.448.373.67.564 6.031 5.149 11.592 11.842 16.517 20.456 2.637 4.615 4.71 9.165 6.298 13.63.195.547.384 1.095.564 1.642 5.864 17.704 4.185 33.953 0 47.14-.182.576-.37 1.148-.564 1.714z" transform="translate(-38 -87) translate(38 87)"/>
                <path fill="#D5E5FB" d="M147.142 49.802v2.792H21.887c.19-.941.408-1.873.653-2.792h124.602M147.142 22.674v2.792H37.328c.988-.956 2.012-1.887 3.071-2.792h106.743M147.142 75.334v2.793H23.318c-.278-.94-.531-1.87-.758-2.793h124.582" transform="translate(-38 -87) translate(38 87)"/>
                <path fill="#D5E5FB" d="M143.844 89.456L147.036 89.456 147.036 18.179 143.844 18.179z" transform="translate(-38 -87) translate(38 87)"/>
                <path fill="#FFF" d="M154.43 93.963v55.335H12.684c-3.804-5.907-5.64-10.835-6.126-15.119l-.001-.01c-.09-.802-.135-1.58-.135-2.336 0-.188.003-.373.008-.555v-.001c0-.073.003-.14.006-.21.075-2.03.461-3.92 1.074-5.706.644-1.888 1.543-3.663 2.593-5.38.093-.153.185-.301.28-.45l.04-.067c.954-1.504 2.018-2.968 3.131-4.427.595-.78 1.205-1.56 1.815-2.348 2.466-3.157 4.982-6.387 6.885-10.05.054-.105.109-.21.163-.318.701-1.382 1.313-2.826 1.8-4.351.408-1.276.73-2.606.944-4.007H154.43" transform="translate(-38 -87) translate(38 87)"/>
                <path fill="#FFB27D" d="M104.91 87.42c-.385-.385-2.015-.728-2.615-.728h-.012c-.583-.002-1.088-.406-1.226-.974-2.048-8.453-4.733-8.52-5.807-16.623-1.132-8.55-4.32-12.073-4.32-12.073l-1.99 9.018s2.526 9.376 3.571 11.05c.896 1.435 5.542 7.84 6.846 9.634.183.25.328.53.398.833.218.945.868.85.868.85h5.189s-.516-.6-.902-.987" transform="translate(-38 -87) translate(38 87)"/>
                <path fill="#212121" d="M79.837 45.402s-1.261 4.17-5.117 4.438c0 0-3.735.801-3.614 3.456.12 2.655-.06 3.872-1.325 4.83-1.265.957 1.27 5.116 5.481 3.43 4.212-1.685 7.276-6.46 7.343-6.544.067-.085-2.768-9.61-2.768-9.61" transform="translate(-38 -87) translate(38 87)"/>
                <path fill="#F9DDBF" d="M88.964 55.937s2.878.943 3.735 2.572c.858 1.63 4.03 11.25 4.03 11.25s-.678 3.154-4.397 2.712c-3.72-.442-3.368-16.534-3.368-16.534" transform="translate(-38 -87) translate(38 87)"/>
                <path fill="#212121" d="M89.576 41.542s-.346-3.074-8.011-2.526c-1.303.093-3.027 1.616-3.622 2.779-.862 1.685-.39 2.185 2.396 6.942l9.237-7.195" transform="translate(-38 -87) translate(38 87)"/>
                <path fill="#FFB27D" d="M76.629 75.37c.02-.875.027-1.76.01-2.645-.051-2.902-.439-5.183-.888-7.076-.357-1.51-.755-2.768-1.053-3.9-.497-1.876-.724-3.4-.048-5.1 0 0 .274-.124.775-.299.45-.158 1.08-.36 1.863-.556.295-.075.614-.15.953-.22.272-.056.832-.152 1.25-.22.342-.057.616-.306.71-.64.096-.337.19-.792.256-1.39.1-.936.123-2.225-.052-3.964-.02-.2-.04-.408-.068-.621l.535.161 2.16.659 3.544 1.077s-.1.57-.12 1.43v.127c-.004.26.003.552.02.857.031.574.103 1.21.253 1.856.062.265.269.472.536.524h.004c.092.018.185.035.278.056.017 0 .03.007.044.01.038.007.076.017.117.027.367.107.69.302 1.08.405.062.017.124.055.179.117.243.243.46.833.71 1.66.25.833.531 1.914.902 3.125 0 .013.003.024.01.037.34 1.129.758 2.37 1.29 3.636 0 0 .367 1.633.528 3.763 0 .024.003.051.007.075.02.316.038.645.051.978.034 1.022.01 2.11-.133 3.152 0 .01 0 .02-.007.027-.08.625-.206 1.228-.385 1.798-.236.754-.346 1.804-.373 3.011-.07 3.526.603 8.383 1.035 11.086H75.24c.39-2.158.964-5.817 1.245-9.954.068-.998.117-2.024.144-3.063.003 0 .003-.003 0-.007" transform="translate(-38 -87) translate(38 87)"/>
                <path fill="#F9DDBF" d="M73.517 60.621c.16 3.918 1.8 9.591 2.17 16.58.032.624.41 1.064 1.033 1.36 3.778 1.797 16.608-1.7 16.608-1.7s-.185-2.468-.06-4.066c.036-.451-1.35-12.662-3.769-15.307 0 0-.534-1.55-1.909-1.991-.105-.034-.22-.058-.325-.072 0 0 1.381 2.128-1.63 2.147-3.013.019-5.534-1.722-5.983-2.264 0 0-4.662.026-5.528 1.63-.517.959-.669 2.194-.607 3.683" transform="translate(-38 -87) translate(38 87)"/>
                <path fill="#2A4282" d="M78.1 55.383s2.04 2.681 2.873 5.486H79.49s-1.374-4.211-2.414-5.338l1.023-.148M87.59 55.497c1.036 1.242 2.452 5.59 2.452 5.59l1.429-.219c-.607-2.127-1.847-3.982-2.507-4.93-.425-.145-.938-.353-1.373-.44" transform="translate(-38 -87) translate(38 87)"/>
                <path fill="#2A4282" d="M93.557 75.81l-.312-3.626v-.003l-.004-.035v-.003l-.199-2.322v-.004l-.13-1.509-.007-.092-.051-.59-.511-5.975c-.045-.508-.44-.889-.913-.923h-.003c-.072-.003-.144-.003-.22.01l-.15.024c-.148.024-.306.045-.477.069-.086.014-.179.024-.271.038-.32.04-.676.082-1.064.12h-.003c-2.02.192-4.912.298-8.215-.11-.034-.004-.072-.007-.106-.007l-.47-.003h-.01l-.926-.007h-.025c-.686.007-1.241.576-1.241 1.286-.004 1.461-.048 3.962-.292 6.544v.007c-.226 2.429-.624 4.926-1.327 6.672.003.003.003.006 0 .006-.233.587-.504 1.088-.81 1.475-.058.069-.102.144-.14.227-.041.085-.065.178-.08.274l-1.512 11.041h19.644c.024-4.016.038-11.048-.175-12.584" transform="translate(-38 -87) translate(38 87)"/>
                <path fill="#E8945B" d="M86.456 52.12c-.004.283 0 .597.022.93-5.944-1.437-5.838-3.622-5.838-3.622l5.935 1.207s-.097.571-.119 1.432v.054" transform="translate(-38 -87) translate(38 87)"/>
                <path fill="#FFB27D" d="M87.789 52.221s-7.608.348-7.751-4.393c-.144-4.74-1.222-7.889 3.629-8.311 4.85-.423 5.85 1.358 6.282 2.929.433 1.57-.185 9.563-2.16 9.775" transform="translate(-38 -87) translate(38 87)"/>
                <path fill="#212121" d="M88.359 41.042s1.99 2.383 1.628 5.009c0 0 1.992-1.04 1.256-3.41-.45-1.45-1.992-2.857-4.076-2.857-2.084 0 1.192 1.258 1.192 1.258" transform="translate(-38 -87) translate(38 87)"/>
                <path fill="#FFF" d="M88.809 49.49s-.181.881-1.348.877c-.61-.002-1.453-.366-1.484-.884 0 0 1.491-.388 2.832.007" transform="translate(-38 -87) translate(38 87)"/>
                <path fill="#212121" d="M88.35 40.733s-1.415 3.84-4.934 4.164c-3.52.324-3.425 3.193-3.425 3.193l-.911-6.77s1.988-2.01 2.169-2.055c.18-.046 3.71-.046 3.71-.046l3.392 1.514" transform="translate(-38 -87) translate(38 87)"/>
                <path fill="#2A4282" d="M86.312 35.468s1.883.898 3.277 5.032l-2.092-.004-1.185-5.028" transform="translate(-38 -87) translate(38 87)"/>
                <path fill="#466EB6" d="M87.497 40.496s-5.904.091-7.941-.579c0 0 .015-2.376 2.435-4.756l4.32.307s1.479 3.54 1.186 5.028" transform="translate(-38 -87) translate(38 87)"/>
                <path fill="#FFB27D" d="M76.332 66.026l-1.953-9.403s-3.225 3.907-4.357 12.457c-1.077 8.13-2.163 6.6-5.667 16.665-.146.422-.495.744-.928.849-.197.047-.411.084-.611.084-.6 0-2.23.343-2.616.728-.386.386-.9.987-.9.987h5.188s.857.196 1.086-1.216c0 0 6.142-8.428 7.187-10.102 1.045-1.674 3.571-11.049 3.571-11.049" transform="translate(-38 -87) translate(38 87)"/>
                <path fill="#F9DDBF" d="M75.625 55.905s-1.576-.012-4.02 3.847c-2.444 3.859-3.43 7.846-3.43 7.846s1.137 3.13 7.45 3.859l1.64-3.816-1.64-11.736" transform="translate(-38 -87) translate(38 87)"/>
                <path fill="#FCECDB" d="M40.684 103.818H37.46c-2.473 0-4.478-2.004-4.478-4.477v-9.138h12.18v9.138c0 2.473-2.005 4.477-4.478 4.477" transform="translate(-38 -87) translate(38 87)"/>
                <path fill="#EE9849" d="M32.983 90.203v9.138c0 2.473-2.006 4.477-4.478 4.477H25.28c-1.167 0-2.228-.446-3.026-1.179.054-.105.109-.21.163-.318.701-1.382 1.313-2.826 1.8-4.351.408-1.276.73-2.606.944-4.007.053-.347.1-.699.14-1.056.046-.419.083-.843.111-1.274.023-.354.037-.712.045-1.074.003-.114.004-.228.006-.343v-.013h7.52M52.863 103.818h-3.225c-2.472 0-4.477-2.004-4.477-4.477v-9.138h12.18v9.138c0 2.473-2.006 4.477-4.478 4.477" transform="translate(-38 -87) translate(38 87)"/>
                <path fill="#FCECDB" d="M64.72 103.818h-3.225c-2.472 0-4.477-2.004-4.477-4.477v-9.138h12.18v9.138c0 2.473-2.005 4.477-4.478 4.477" transform="translate(-38 -87) translate(38 87)"/>
                <path fill="#EE9849" d="M76.899 103.818h-3.225c-2.472 0-4.477-2.004-4.477-4.477v-9.138h12.179v9.138c0 2.473-2.005 4.477-4.477 4.477" transform="translate(-38 -87) translate(38 87)"/>
                <path fill="#FCECDB" d="M89.078 103.818h-3.225c-2.473 0-4.477-2.004-4.477-4.477v-9.138h12.179v9.138c0 2.473-2.005 4.477-4.477 4.477" transform="translate(-38 -87) translate(38 87)"/>
                <path fill="#EE9849" d="M101.256 103.818h-3.224c-2.473 0-4.477-2.004-4.477-4.477v-9.138h12.178v9.138c0 2.473-2.004 4.477-4.477 4.477" transform="translate(-38 -87) translate(38 87)"/>
                <path fill="#FCECDB" d="M113.435 103.818h-3.225c-2.471 0-4.477-2.004-4.477-4.477v-9.138h12.18v9.138c0 2.473-2.005 4.477-4.478 4.477" transform="translate(-38 -87) translate(38 87)"/>
                <path fill="#EE9849" d="M125.614 103.818h-3.224c-2.473 0-4.477-2.004-4.477-4.477v-9.138h12.178v9.138c0 2.473-2.004 4.477-4.477 4.477" transform="translate(-38 -87) translate(38 87)"/>
                <path fill="#FCECDB" d="M137.792 103.818h-3.224c-2.472 0-4.477-2.004-4.477-4.477v-9.138h12.18v9.138c0 2.473-2.006 4.477-4.479 4.477" transform="translate(-38 -87) translate(38 87)"/>
                <path fill="#EE9849" d="M149.972 103.818h-3.225c-2.473 0-4.477-2.004-4.477-4.477v-9.138h12.179v9.138c0 2.473-2.004 4.477-4.477 4.477" transform="translate(-38 -87) translate(38 87)"/>
                <path fill="#82B378" d="M83.444 142.446l-.135-.08c.022-.038 2.253-3.763 6.094-7.992 3.546-3.905 9.23-9.05 16.17-11.39l.05.15c-6.906 2.327-12.568 7.453-16.101 11.343-3.831 4.217-6.056 7.933-6.078 7.97" transform="translate(-38 -87) translate(38 87)"/>
                <path fill="#82B378" d="M94.26 122.452s-1.03 2.651-.966 3.762c.065 1.109 1.68 3.097 1.68 3.097s1.224-2.378 1.202-3.257c-.021-.878-1.916-3.602-1.916-3.602" transform="translate(-38 -87) translate(38 87)"/>
                <path fill="#82B378" d="M101.077 132.083s-1.728-2.26-2.71-2.783c-.98-.521-3.519-.179-3.519-.179s1.393 2.284 2.155 2.723c.762.439 4.074.239 4.074.239M99.224 120.582s-1.882 2.133-2.205 3.197c-.322 1.063.507 3.488.507 3.488s1.97-1.81 2.253-2.641c.283-.834-.555-4.044-.555-4.044" transform="translate(-38 -87) translate(38 87)"/>
                <path fill="#82B378" d="M104.029 129.398s-1.954-2.069-2.984-2.486c-1.03-.417-3.519.189-3.519.189s1.623 2.126 2.427 2.483c.803.358 4.076-.186 4.076-.186M104.011 119.626s-2.374 1.44-2.983 2.338c-.61.897-.543 3.397-.543 3.397s2.363-1.113 2.868-1.806c.506-.694.658-3.93.658-3.93" transform="translate(-38 -87) translate(38 87)"/>
                <path fill="#82B378" d="M107.08 126.18s-2.296-1.563-3.366-1.745c-1.07-.183-3.316.916-3.316.916s1.992 1.688 2.833 1.86c.84.172 3.848-1.032 3.848-1.032M110.066 120.315s-2.776.063-3.753.537c-.976.473-2.164 2.673-2.164 2.673s2.602.215 3.386-.134c.785-.35 2.531-3.076 2.531-3.076M91.337 125.075s-1.013 2.657-.948 3.765c.065 1.109 1.657 3.08 1.657 3.08s1.205-2.386 1.183-3.264c-.022-.879-1.892-3.581-1.892-3.581" transform="translate(-38 -87) translate(38 87)"/>
                <path fill="#82B378" d="M98.553 133.533s-2.146-1.866-3.208-2.188c-1.063-.32-3.462.495-3.462.495s1.825 1.954 2.657 2.236c.832.281 4.013-.543 4.013-.543M87.901 127.619s-1.171 3.027-1.103 4.292c.068 1.264 1.874 3.525 1.874 3.525s1.389-2.717 1.368-3.72c-.02-1.001-2.139-4.097-2.139-4.097" transform="translate(-38 -87) translate(38 87)"/>
                <path fill="#FCECDB" d="M96.367 135.96s-2.763-1.704-4.018-1.869c-1.256-.164-3.808 1.198-3.808 1.198s2.417 1.863 3.406 2.025c.99.164 4.42-1.353 4.42-1.353" transform="translate(-38 -87) translate(38 87)"/>
                <path fill="#82B378" d="M84.163 130.309s-1.073 3.519-.892 4.943c.18 1.424 2.409 3.828 2.409 3.828s1.345-3.185 1.24-4.317c-.106-1.13-2.757-4.454-2.757-4.454" transform="translate(-38 -87) translate(38 87)"/>
                <path fill="#FCECDB" d="M94.522 138.572s-3.364-1.49-4.8-1.482c-1.435.009-4.09 1.931-4.09 1.931s3 1.72 4.136 1.75c1.135.032 4.754-2.199 4.754-2.199" transform="translate(-38 -87) translate(38 87)"/>
                <path fill="#82B378" d="M78.419 140.875l.142.067c.018-.039 1.868-3.969 3.237-9.515 1.265-5.121 2.368-12.709.442-19.773l-.152.04c1.917 7.032.818 14.59-.442 19.692-1.365 5.532-3.209 9.45-3.227 9.489" transform="translate(-38 -87) translate(38 87)"/>
                <path fill="#82B378" d="M88.988 120.748s-1.627 2.335-2.584 2.9c-.958.564-3.508.333-3.508.333s1.29-2.343 2.033-2.816c.741-.472 4.06-.417 4.06-.417" transform="translate(-38 -87) translate(38 87)"/>
                <path fill="#82B378" d="M77.192 120.458s2.84.175 3.82.699c.98.522 2.11 2.821 2.11 2.821s-2.671.117-3.46-.27c-.79-.388-2.47-3.25-2.47-3.25M87.772 115.585s-.72 2.752-1.424 3.613c-.704.86-3.178 1.523-3.178 1.523s.403-2.644.937-3.343c.533-.7 3.665-1.793 3.665-1.793" transform="translate(-38 -87) translate(38 87)"/>
                <path fill="#82B378" d="M77.775 116.51s2.806.47 3.726 1.092c.921.623 1.806 3.026 1.806 3.026s-2.67-.161-3.414-.63c-.745-.467-2.118-3.488-2.118-3.488M85.897 111.077s.128 2.774-.277 3.781c-.406 1.006-2.518 2.345-2.518 2.345s-.393-2.582-.1-3.389c.294-.807 2.895-2.737 2.895-2.737" transform="translate(-38 -87) translate(38 87)"/>
                <path fill="#82B378" d="M78.746 112.184s2.577 1.035 3.325 1.822c.747.785 1.088 3.263 1.088 3.263s-2.512-.714-3.124-1.316c-.612-.602-1.29-3.769-1.29-3.769M81.95 106.434s1.495 2.34 1.646 3.415c.151 1.075-1.012 3.288-1.012 3.288s-1.629-2.041-1.777-2.886c-.148-.846 1.143-3.817 1.143-3.817M88.44 124.637s-1.642 2.323-2.598 2.886c-.956.565-3.48.341-3.48.341s1.31-2.33 2.05-2.802c.741-.47 4.028-.425 4.028-.425" transform="translate(-38 -87) translate(38 87)"/>
                <path fill="#82B378" d="M77.395 123.362s2.746.74 3.604 1.444c.859.703 1.52 3.15 1.52 3.15s-2.64-.426-3.337-.96c-.698-.534-1.787-3.634-1.787-3.634M98.24 116.246s-1.44 2.375-2.337 2.985c-.897.61-3.396.545-3.396.545s1.11-2.363 1.804-2.87c.693-.506 3.929-.66 3.929-.66" transform="translate(-38 -87) translate(38 87)"/>
                <path fill="#82B378" d="M91.684 113.182s1.564 2.295 1.747 3.365c.183 1.07-.914 3.317-.914 3.317s-1.689-1.992-1.862-2.833c-.173-.84 1.029-3.849 1.029-3.849M97.547 110.191s-.061 2.777-.534 3.753c-.473.977-2.672 2.168-2.672 2.168s-.216-2.603.132-3.387c.347-.785 3.074-2.534 3.074-2.534" transform="translate(-38 -87) translate(38 87)"/>
                <path fill="#EE9849" d="M102.02 143.577c-1.79 1.093-33.163 1.823-32.665-.999 0 0 .636-5.181 7.303-7.92 1.175-.48 2.538-.887 4.12-1.177 1.637-.297 3.507-.47 5.643-.47h.003c.143 0 .287 0 .433.004 1.98.022 3.732.177 5.274.439 1.488.249 2.786.596 3.908 1.011 0 0 0-.002.002 0 .788.293 1.489.618 2.115.968 5.17 2.882 5.077 7.402 3.863 8.144" transform="translate(-38 -87) translate(38 87)"/>
                <path fill="#FFBDA7" fill-rule="nonzero" d="M92.13 133.454c-1.852.383-8.319 1.855-11.782 4.41.069-.13 2.031-3.749 6.073-4.853h.003c.143 0 .287 0 .433.004 1.98.022 3.732.177 5.274.439M98.156 135.433c-2.565.431-6.255 1.218-8.59 2.454 0 0 2.216-2.957 6.473-3.422 0 0 0-.002.002 0 .788.293 1.489.618 2.115.968M80.777 133.481c-2.117 1.227-4.707 2.913-6.198 4.586 0 0 .462-1.744 2.079-3.408 1.175-.481 2.538-.888 4.12-1.178" transform="translate(-38 -87) translate(38 87)"/>
                <path fill="#ED9B64" d="M127.266 19.583c-1.184.723-21.93 1.206-21.6-.66 0 0 .42-3.427 4.828-5.237.778-.318 1.68-.588 2.725-.779 1.083-.197 2.32-.31 3.732-.31h.002l.286.001c1.31.014 2.468.117 3.488.29.984.165 1.842.395 2.584.67 0 0 0-.002.002 0 .52.193.984.408 1.398.64 3.419 1.905 3.357 4.894 2.555 5.385" transform="translate(-38 -87) translate(38 87)"/>
                <path fill="#93542A" d="M120.727 12.889c-1.225.253-5.502 1.227-7.792 2.916.045-.087 1.343-2.479 4.016-3.209h.002c.095 0 .19 0 .286.002 1.31.014 2.468.117 3.488.29M124.71 14.197c-1.695.286-4.135.806-5.68 1.623 0 0 1.466-1.955 4.28-2.263h.003c.52.194.984.409 1.398.64M113.22 12.907c-1.402.811-3.114 1.926-4.1 3.032 0 0 .306-1.153 1.374-2.253.778-.318 1.68-.588 2.725-.779" transform="translate(-38 -87) translate(38 87)"/>
                <path fill="#DB7B33" d="M110.389 19.95c-1.185.722-21.93 1.204-21.6-.662 0 0 .42-3.426 4.828-5.237.777-.318 1.679-.587 2.724-.778 1.083-.197 2.32-.311 3.732-.311h.002c.095 0 .19 0 .286.002 1.31.014 2.468.117 3.488.29.984.165 1.843.395 2.584.67 0 0 0-.003.001 0 .522.192.985.407 1.4.639 3.418 1.906 3.357 4.895 2.555 5.386" transform="translate(-38 -87) translate(38 87)"/>
                <path fill="#ED9B64" d="M103.85 13.255c-1.226.253-5.503 1.226-7.793 2.916.046-.087 1.344-2.48 4.016-3.21h.002c.095 0 .19 0 .286.003 1.31.014 2.468.117 3.488.29M107.833 14.563c-1.696.285-4.136.806-5.68 1.622 0 0 1.465-1.955 4.28-2.262 0 0 0-.002.001 0 .522.193.985.408 1.4.64M96.341 13.273c-1.4.811-3.112 1.926-4.099 3.032 0 0 .306-1.153 1.375-2.254.777-.318 1.679-.587 2.724-.778M108.43 48.243h-5.256c-.807 0-1.46-.654-1.46-1.46v-7.056c0-.806.653-1.46 1.46-1.46h5.256c.806 0 1.46.654 1.46 1.46v7.056c0 .806-.654 1.46-1.46 1.46" transform="translate(-38 -87) translate(38 87)"/>
                <path fill="#DB7B33" d="M116.383 48.243h-7.501c-.93 0-1.683-.754-1.683-1.683v-6.61c0-.929.753-1.683 1.683-1.683h7.501c.93 0 1.684.754 1.684 1.684v6.609c0 .93-.754 1.683-1.684 1.683" transform="translate(-38 -87) translate(38 87)"/>
                <path fill="#93542A" d="M107.396 39.535l10.59.192s1.593-.397 1.47-1.841c-.127-1.503-1.144-1.745-4.523-2.017-3.38-.273-12.197-1.159-13.465.886-.741 1.195-.981 2.743.245 2.972 0 0 1.962-2.114 5.683-.192" transform="translate(-38 -87) translate(38 87)"/>
                <path fill="#ED9B64" d="M118.537 48.243h-5.257c-.806 0-1.46-.654-1.46-1.46v-7.056c0-.806.654-1.46 1.46-1.46h5.257c.806 0 1.46.654 1.46 1.46v7.056c0 .806-.654 1.46-1.46 1.46" transform="translate(-38 -87) translate(38 87)"/>
                <path fill="#DB7B33" d="M126.49 48.243h-7.5c-.93 0-1.685-.754-1.685-1.683v-6.61c0-.929.754-1.683 1.684-1.683h7.501c.93 0 1.683.754 1.683 1.684v6.609c0 .93-.753 1.683-1.683 1.683" transform="translate(-38 -87) translate(38 87)"/>
                <path fill="#A05C35" d="M117.502 39.535l10.59.192s1.594-.397 1.472-1.841c-.128-1.503-1.146-1.745-4.525-2.017-3.38-.273-12.197-1.159-13.464.886-.742 1.195-.982 2.743.245 2.972 0 0 1.963-2.114 5.682-.192" transform="translate(-38 -87) translate(38 87)"/>
                <path fill="#DB7B33" d="M76.744 19.95c-1.184.722-21.93 1.204-21.6-.662 0 0 .42-3.426 4.829-5.237.777-.318 1.679-.587 2.724-.778 1.083-.197 2.32-.311 3.732-.311h.002c.095 0 .19 0 .286.002 1.31.014 2.468.117 3.488.29.984.165 1.842.395 2.584.67 0 0 0-.003.002 0 .52.192.984.407 1.398.639 3.419 1.906 3.358 4.895 2.555 5.386" transform="translate(-38 -87) translate(38 87)"/>
                <path fill="#ED9B64" d="M70.205 13.255c-1.225.253-5.502 1.226-7.792 2.916.045-.087 1.343-2.48 4.016-3.21h.002c.095 0 .19 0 .286.003 1.31.014 2.468.117 3.488.29M74.19 14.563c-1.697.285-4.137.806-5.682 1.622 0 0 1.466-1.955 4.28-2.262 0 0 0-.002.003 0 .52.193.984.408 1.398.64M62.697 13.273c-1.4.811-3.113 1.926-4.099 3.032 0 0 .306-1.153 1.375-2.254.777-.318 1.679-.587 2.724-.778" transform="translate(-38 -87) translate(38 87)"/>
                <path fill="#DB7B33" d="M122.434 75.772c-1.468-.304-14.311-14.07-12.343-17.816 0 0 2.551-1.67 7.166.188.362.146.73.319 1.104.522.464.253.938.552 1.417.906.22.163.441.338.665.524.388.326.779.686 1.172 1.088.295.3.59.623.887.97l.001.002c.06.073.123.145.184.22.252.304.487.604.706.9.377.509.706 1.005.992 1.489.099.169.195.338.284.504.224.415.418.818.58 1.213.187.448.337.883.451 1.304l.001.002c.15.555.243 1.086.288 1.593.375 4.174-2.558 6.595-3.555 6.39" transform="translate(-38 -87) translate(38 87)"/>
                <path fill="#ED9B64" d="M123.393 63.277c-2.55.302-5.448.907-7.67 2.102.099-.126 2.48-3.149 5.892-4.195.295.3.59.623.887.97l.001.002c.06.073.123.145.184.22.252.304.487.604.706.9M120.443 60.096c-2.054.352-4.177.924-5.893 1.848.076-.1 1.545-1.967 3.81-3.278.465.253.94.552 1.418.906.22.163.441.338.665.524M125.25 66.482c-1.707.357-3.407.881-4.828 1.646.078-.102 1.611-2.05 3.963-3.363.099.169.195.338.284.504.224.415.418.818.58 1.213" transform="translate(-38 -87) translate(38 87)"/>
                <path fill="#ED9B64" d="M127.393 77.204c-1.318-.715-9.633-17.607-6.664-20.623 0 0 2.924-.862 6.804 2.25.304.245.607.517.906.82.371.376.739.8 1.095 1.277.164.22.325.45.486.694.277.424.546.882.806 1.38.196.373.385.768.57 1.186v.001c.037.088.076.175.111.263.154.365.293.72.418 1.068.213.595.384 1.165.518 1.71.046.191.089.38.126.566.095.462.163.903.206 1.329.049.482.065.942.053 1.378l.001.002c-.016.576-.081 1.11-.185 1.609-.848 4.104-4.356 5.574-5.251 5.09" transform="translate(-38 -87) translate(38 87)"/>
                <path fill="#AF643A" d="M131.925 65.52c-2.53-.449-5.48-.707-7.952-.205.131-.093 3.284-2.298 6.853-2.313.196.373.385.768.57 1.186v.001c.037.088.076.175.111.263.154.365.293.72.418 1.068M130.02 61.622c-2.068-.257-4.266-.323-6.178.065.103-.073 2.048-1.436 4.597-2.036.371.376.739.8 1.095 1.277.164.22.325.45.486.694M132.775 69.125c-1.738-.152-3.516-.141-5.098.18.104-.076 2.135-1.496 4.766-2.074.046.19.089.38.126.565.095.462.163.903.206 1.329" transform="translate(-38 -87) translate(38 87)"/>
                <path fill="#ED9B64" d="M94.02 19.583c-1.183.723-21.929 1.206-21.6-.66 0 0 .42-3.427 4.83-5.237.777-.318 1.678-.588 2.724-.779 1.082-.197 2.32-.31 3.732-.31h.002l.286.001c1.31.014 2.467.117 3.487.29.984.165 1.843.395 2.584.67 0 0 0-.002.002 0 .521.193.985.408 1.399.64 3.418 1.905 3.357 4.894 2.554 5.385" transform="translate(-38 -87) translate(38 87)"/>
                <path fill="#93542A" d="M87.481 12.889c-1.225.253-5.501 1.227-7.791 2.916.045-.087 1.343-2.479 4.016-3.209h.002c.094 0 .189 0 .286.002 1.31.014 2.467.117 3.487.29M91.466 14.197c-1.697.286-4.137.806-5.681 1.623 0 0 1.465-1.955 4.28-2.263h.002c.521.194.985.409 1.399.64M79.974 12.907c-1.401.811-3.113 1.926-4.1 3.032 0 0 .306-1.153 1.375-2.253.778-.318 1.68-.588 2.725-.779" transform="translate(-38 -87) translate(38 87)"/>
                <path fill="#ED9B64" d="M129.086 48.243h-5.256c-.806 0-1.46-.654-1.46-1.46v-7.056c0-.806.654-1.46 1.46-1.46h5.256c.807 0 1.46.654 1.46 1.46v7.056c0 .806-.653 1.46-1.46 1.46" transform="translate(-38 -87) translate(38 87)"/>
                <path fill="#DB7B33" d="M137.04 48.243h-7.501c-.93 0-1.684-.754-1.684-1.683v-6.61c0-.929.754-1.683 1.684-1.683h7.5c.93 0 1.684.754 1.684 1.684v6.609c0 .93-.753 1.683-1.683 1.683" transform="translate(-38 -87) translate(38 87)"/>
                <path fill="#AF643A" d="M128.053 39.535l10.588.192s1.595-.397 1.472-1.841c-.127-1.503-1.144-1.745-4.524-2.017-3.38-.273-12.197-1.159-13.465.886-.74 1.195-.981 2.743.246 2.972 0 0 1.962-2.114 5.683-.192" transform="translate(-38 -87) translate(38 87)"/>
                <path fill="#AAC9F5" d="M52.757 22.688L135.548 22.688 135.548 18.986 52.757 18.986zM100.252 49.828L139.938 49.828 139.938 46.282 100.252 46.282z" transform="translate(-38 -87) translate(38 87)"/>
                <path fill="#ED9B64" d="M62.083 48.243h5.256c.807 0 1.46-.654 1.46-1.46v-7.056c0-.806-.653-1.46-1.46-1.46h-5.256c-.807 0-1.46.654-1.46 1.46v7.056c0 .806.653 1.46 1.46 1.46" transform="translate(-38 -87) translate(38 87)"/>
                <path fill="#DB7B33" d="M54.13 48.243h7.5c.93 0 1.684-.754 1.684-1.683v-6.61c0-.929-.754-1.683-1.683-1.683h-7.502c-.93 0-1.683.754-1.683 1.684v6.609c0 .93.754 1.683 1.683 1.683" transform="translate(-38 -87) translate(38 87)"/>
                <path fill="#93542A" d="M63.117 39.535l-10.59.192s-1.594-.397-1.471-1.841c.128-1.503 1.145-1.745 4.524-2.017 3.38-.273 12.197-1.159 13.465.886.741 1.195.981 2.743-.246 2.972 0 0-1.962-2.114-5.682-.192" transform="translate(-38 -87) translate(38 87)"/>
                <path fill="#ED9B64" d="M51.976 48.243h5.257c.806 0 1.46-.654 1.46-1.46v-7.056c0-.806-.654-1.46-1.46-1.46h-5.257c-.806 0-1.46.654-1.46 1.46v7.056c0 .806.654 1.46 1.46 1.46" transform="translate(-38 -87) translate(38 87)"/>
                <path fill="#DB7B33" d="M44.023 48.243h7.501c.93 0 1.684-.754 1.684-1.683v-6.61c0-.929-.754-1.683-1.684-1.683h-7.501c-.93 0-1.683.754-1.683 1.684v6.609c0 .93.753 1.683 1.683 1.683" transform="translate(-38 -87) translate(38 87)"/>
                <path fill="#A05C35" d="M53.01 39.535l-10.589.192s-1.594-.397-1.471-1.841c.127-1.503 1.144-1.745 4.524-2.017 3.38-.273 12.197-1.159 13.464.886.741 1.195.981 2.743-.245 2.972 0 0-1.963-2.114-5.683-.192" transform="translate(-38 -87) translate(38 87)"/>
                <path fill="#ED9B64" d="M41.426 48.243h5.257c.806 0 1.46-.654 1.46-1.46v-7.056c0-.806-.654-1.46-1.46-1.46h-5.257c-.806 0-1.46.654-1.46 1.46v7.056c0 .806.654 1.46 1.46 1.46" transform="translate(-38 -87) translate(38 87)"/>
                <path fill="#DB7B33" d="M33.473 48.243h7.501c.93 0 1.684-.754 1.684-1.683v-6.61c0-.929-.754-1.683-1.684-1.683h-7.501c-.93 0-1.683.754-1.683 1.684v6.609c0 .93.753 1.683 1.683 1.683" transform="translate(-38 -87) translate(38 87)"/>
                <path fill="#AF643A" d="M42.46 39.535l-10.589.192s-1.594-.397-1.471-1.841c.127-1.503 1.144-1.745 4.524-2.017 3.38-.273 12.197-1.159 13.464.886.742 1.195.981 2.743-.245 2.972 0 0-1.962-2.114-5.683-.192" transform="translate(-38 -87) translate(38 87)"/>
                <path fill="#AAC9F5" d="M30.575 49.828L70.261 49.828 70.261 46.282 30.575 46.282z" transform="translate(-38 -87) translate(38 87)"/>
                <path fill="#ED9B64" d="M28.638 69.398c0-.956.56-1.523 1.732-1.73.941-.168 1.807.887 1.807 1.844 0 .956-.85 1.617-1.807 1.617-.956 0-1.732-.775-1.732-1.73zm1.68-4.134c-2.806.496-4.147 1.856-4.147 4.147 0 2.29 1.856 4.146 4.147 4.146 2.29 0 4.326-1.586 4.326-3.876s-2.071-4.815-4.326-4.417z" transform="translate(-38 -87) translate(38 87)"/>
                <path fill="#93542A" d="M30.37 71.129c-.956 0-1.732-.775-1.732-1.73 0-.957.56-1.524 1.732-1.731.941-.168 1.807.887 1.807 1.844 0 .956-.85 1.617-1.807 1.617zm-.089-4.678c-1.992.396-2.927 1.386-2.892 3.018.034 1.632 1.384 2.927 3.018 2.892 1.632-.034 3.058-1.196 3.024-2.827-.035-1.632-1.55-3.4-3.15-3.083z" transform="translate(-38 -87) translate(38 87)"/>
                <path fill="#ED9B64" d="M40.74 69.398c0-.956.56-1.523 1.732-1.73.94-.168 1.806.887 1.806 1.844 0 .956-.85 1.617-1.806 1.617-.956 0-1.732-.775-1.732-1.73zm1.679-4.134c-2.806.496-4.147 1.856-4.147 4.147 0 2.29 1.856 4.146 4.147 4.146 2.29 0 4.326-1.586 4.326-3.876s-2.071-4.815-4.326-4.417z" transform="translate(-38 -87) translate(38 87)"/>
                <path fill="#93542A" d="M42.472 71.129c-.956 0-1.732-.775-1.732-1.73 0-.957.56-1.524 1.732-1.731.94-.168 1.806.887 1.806 1.844 0 .956-.85 1.617-1.806 1.617zm-.09-4.678c-1.991.396-2.927 1.386-2.892 3.018.034 1.632 1.385 2.927 3.018 2.892 1.632-.034 3.058-1.196 3.025-2.827-.036-1.632-1.55-3.4-3.15-3.083z" transform="translate(-38 -87) translate(38 87)"/>
                <path fill="#ED9B64" d="M33.891 69.398c0-.956.56-1.523 1.732-1.73.941-.168 1.806.887 1.806 1.844 0 .956-.85 1.617-1.806 1.617-.956 0-1.732-.775-1.732-1.73zm1.68-4.134c-2.806.496-4.147 1.856-4.147 4.147 0 2.29 1.856 4.146 4.146 4.146s4.327-1.586 4.327-3.876-2.072-4.815-4.327-4.417z" transform="translate(-38 -87) translate(38 87)"/>
                <path fill="#683112" d="M35.623 71.129c-.956 0-1.732-.775-1.732-1.73 0-.957.56-1.524 1.732-1.731.941-.168 1.806.887 1.806 1.844 0 .956-.85 1.617-1.806 1.617zm-.09-4.678c-1.99.396-2.926 1.386-2.891 3.018.034 1.632 1.384 2.927 3.018 2.892 1.631-.034 3.058-1.196 3.024-2.827-.035-1.632-1.55-3.4-3.15-3.083z" transform="translate(-38 -87) translate(38 87)"/>
                <path fill="#ED9B64" d="M47.056 69.398c0-.956.56-1.523 1.732-1.73.941-.168 1.806.887 1.806 1.844 0 .956-.85 1.617-1.806 1.617-.956 0-1.732-.775-1.732-1.73zm1.68-4.134c-2.806.496-4.147 1.856-4.147 4.147 0 2.29 1.856 4.146 4.146 4.146s4.327-1.586 4.327-3.876-2.071-4.815-4.327-4.417z" transform="translate(-38 -87) translate(38 87)"/>
                <path fill="#683112" d="M48.788 71.129c-.956 0-1.732-.775-1.732-1.73 0-.957.56-1.524 1.732-1.731.941-.168 1.806.887 1.806 1.844 0 .956-.85 1.617-1.806 1.617zm-.09-4.678c-1.99.396-2.926 1.386-2.891 3.018.034 1.632 1.384 2.927 3.018 2.892 1.632-.034 3.058-1.196 3.024-2.827-.035-1.632-1.55-3.4-3.15-3.083z" transform="translate(-38 -87) translate(38 87)"/>
                <path fill="#ED9B64" d="M51.156 69.398c0-.956.56-1.523 1.732-1.73.941-.168 1.807.887 1.807 1.844 0 .956-.85 1.617-1.807 1.617-.956 0-1.732-.775-1.732-1.73zm1.68-4.134c-2.806.496-4.147 1.856-4.147 4.147 0 2.29 1.856 4.146 4.147 4.146 2.29 0 4.326-1.586 4.326-3.876s-2.071-4.815-4.326-4.417z" transform="translate(-38 -87) translate(38 87)"/>
                <path fill="#93542A" d="M52.888 71.129c-.956 0-1.732-.775-1.732-1.73 0-.957.56-1.524 1.732-1.731.941-.168 1.807.887 1.807 1.844 0 .956-.85 1.617-1.807 1.617zM52.8 66.45c-1.991.396-2.927 1.386-2.892 3.018.034 1.632 1.385 2.927 3.018 2.892 1.632-.034 3.058-1.196 3.024-2.827-.035-1.632-1.55-3.4-3.15-3.083z" transform="translate(-38 -87) translate(38 87)"/>
                <path fill="#ED9B64" d="M57.473 69.398c0-.956.56-1.523 1.732-1.73.941-.168 1.806.887 1.806 1.844 0 .956-.85 1.617-1.806 1.617-.956 0-1.732-.775-1.732-1.73zm1.68-4.134c-2.806.496-4.147 1.856-4.147 4.147 0 2.29 1.856 4.146 4.146 4.146s4.327-1.586 4.327-3.876-2.072-4.815-4.327-4.417z" transform="translate(-38 -87) translate(38 87)"/>
                <path fill="#683112" d="M59.205 71.129c-.956 0-1.732-.775-1.732-1.73 0-.957.56-1.524 1.732-1.731.941-.168 1.806.887 1.806 1.844 0 .956-.85 1.617-1.806 1.617zm-.09-4.678c-1.99.396-2.926 1.386-2.891 3.018.034 1.632 1.384 2.927 3.018 2.892 1.631-.034 3.058-1.196 3.024-2.827-.035-1.632-1.55-3.4-3.15-3.083z" transform="translate(-38 -87) translate(38 87)"/>
                <path fill="#AAC9F5" d="M24.434 75.344L64.119 75.344 64.119 71.798 24.434 71.798z" transform="translate(-38 -87) translate(38 87)"/>
                <path fill="#FFE0CB" fill-rule="nonzero" d="M201.082 54.382s-2.188.796-3.122 4.392c-.935 3.596-3.273 17.645-1.198 17.645 2.076 0 4.402-5.197 4.402-5.197l-.082-16.84" transform="translate(-38 -87) translate(38 87)"/>
                <path fill="#FFB27D" d="M174.629 71.222L166.637 85.89 167.876 87.164 177.013 78.593 174.629 71.222" transform="translate(-38 -87) translate(38 87)"/>
                <path fill="#F99746" d="M201.955 54.017s-2.007-.01-3.409 2.687c-1.402 2.697-2.28 7.025-2.28 7.025s1.38 3.763 4.266 3.136c2.884-.627 1.423-12.848 1.423-12.848" transform="translate(-38 -87) translate(38 87)"/>
                <path fill="#2B478B" d="M173.965 83.827s.053 10.264.732 18.928c.922 11.769 3.598 41.298 3.598 41.298s-.745 1.169 2.87.407c0 0 4.428-9.99 5.348-21.479l.043-.568c.856-11.696 2.187-36.326 2.187-36.326l-14.778-2.26" transform="translate(-38 -87) translate(38 87)"/>
                <path fill="#233862" d="M179.683 82.94s.053 1.71.732 10.373l6.098 29.668.043-.568c.856-11.696 2.187-36.326 2.187-36.326l-9.06-3.147" transform="translate(-38 -87) translate(38 87)"/>
                <path fill="#2B478B" d="M177.42 83.493l17.956 61.97s2.387-.492 2.88-1.506c0 0 2.014-26.137-1.775-32.462-2.14-3.573-1.932-12.2-1.971-15.626-.113-9.617-2.023-14.198-2.023-14.198l-15.067 1.822" transform="translate(-38 -87) translate(38 87)"/>
                <path fill="#212121" d="M181.683 149.302h-1.772c-.593-.095-1.03-.27-1.64-.35-.923-.124-1.349.261-1.433.35l-.016.018H169.3c-.19-.275-.008-.913.17-1.382.12-.32.381-.562.705-.657.797-.236 2.37-.445 3.81-1.774.811-.746 3.913-2.745 3.913-2.745l.017-.003c.068 0 .392.102 1.804 1.317.73.626 1.972-.885 1.972-.885s.234.196.408.564c.14.29.242.686.162 1.176-.112.691.25 1.976.538 2.844.176.526.323.899.323.899s.085.434-1.438.628M198.305 149.302h-1.77c-.594-.095-1.032-.27-1.64-.35-.925-.124-1.35.261-1.434.35l-.017.018h-7.523c-.19-.275-.007-.913.17-1.382.12-.32.382-.562.705-.657.798-.236 2.37-.445 3.811-1.774.81-.746 3.913-2.745 3.913-2.745l.016-.003c.068 0 .393.102 1.804 1.317.73.626 1.973-.885 1.973-.885s.233.196.407.564c.141.29.242.686.162 1.176-.112.691.25 1.976.54 2.844.174.526.322.899.322.899s.084.434-1.439.628" transform="translate(-38 -87) translate(38 87)"/>
                <path fill="#FFB27D" d="M189.172 47.066s-6.733 3.314-10.624 2.086c0 0 .957-1.224 2.628-2.143-.096-.566-.172-1.084-.232-1.545-.216-1.668-.224-2.618-.224-2.618l5.053-4.072c-.028.79.022 1.52.125 2.195l.024.158c.672 4.003 3.25 5.939 3.25 5.939" transform="translate(-38 -87) translate(38 87)"/>
                <path fill="#F9DDBF" d="M193.57 82.69c.02.43-1.352.874-1.736 1.046-1.702.764-3.401 1.043-5.078 1.488-1.17.311-2.359.534-3.607.654-3.606.37-7.866-.443-9.328-.423-.155 0-.292-.058-.41-.155-.097-.078-.174-4.483-.097-10.036 0-.214 0-.45.018-.663v-.078c.021-2.163.1-4.443.197-6.703.214-4.989.604-9.803 1.267-12.473.78-3.136 2.57-5.202 4.208-6.722l1.164-1.157c.072-.073.177-.104.278-.085 1.301.24 2.726.22 4.093-.454 1.538-.759 3.215-1.578 3.487-1.383 3.196 2.387 4.787 9.442 4.757 17.462-.001.253-.003.508-.007.763-.014.828-.045 1.666-.092 2.508-.348 5.918.39 10.481.593 13.463.058.859.28 2.479.293 2.948" transform="translate(-38 -87) translate(38 87)"/>
                <path fill="#E8945B" d="M185.956 41.066s-.01.021-.034.061c-.26.467-2.039 3.475-4.978 4.337-.216-1.668-.224-2.618-.224-2.618l4.127-3.326c.544.638.915 1.224 1.051 1.449.039.063.058.097.058.097" transform="translate(-38 -87) translate(38 87)"/>
                <path fill="#FFB27D" d="M179.53 42.753s6.428 1.068 7.03-2.945c.604-4.013 1.84-6.578-2.239-7.43-4.077-.85-5.107.56-5.635 1.851-.527 1.29-.813 8.143.843 8.524" transform="translate(-38 -87) translate(38 87)"/>
                <path fill="#2C3A64" d="M185.383 38.774s.854-.862.362-1.405c-.49-.544-.776.284-1.163.258-.389-.026-1.086-1.164-1.138-2.198-.052-1.035-3.785.544-5.285.053-1.5-.492-2.815-2.497-.47-3.578 1.378-.635 8.267-3.907 10.882-.587 3.333 4.23-1.118 8.664-1.713 9.336-.596.673-.936.474-.936.474s-1.048-1.42-.539-2.353" transform="translate(-38 -87) translate(38 87)"/>
                <path fill="#FFE0CB" fill-rule="nonzero" d="M188.364 74.278s8.896 2.924 10.252 1.937c1.354-.986 1.213-4.59 1.213-4.59l-11 .607-.465 2.046" transform="translate(-38 -87) translate(38 87)"/>
                <path fill="#FFE0CB" fill-rule="nonzero" d="M192.052 70.467s-3.19.495-4.055 1.676c-.866 1.182 2.855.22 3.315-.073.46-.292.74-1.603.74-1.603" transform="translate(-38 -87) translate(38 87)"/>
                <path fill="#2C3A64" d="M188.711 31.705c-.02-.31-.086-1.13-.362-1.63 0 0 .018.845-.104 1.276-.12.431.466.354.466.354" transform="translate(-38 -87) translate(38 87)"/>
                <path fill="#2C3A64" d="M189.392 31.016s-.81.087-.861.725l.293.379s-.052-.81.568-1.104" transform="translate(-38 -87) translate(38 87)"/>
                <path fill="#FFB27D" d="M192.274 50.899s7.699 18.608 7.143 21.583c-.556 2.974-14.76 6.433-14.76 6.433l-.255-2.113 8.538-7.07s-8.126-11.99-7.073-14.303c1.053-2.314 5.924-5.714 6.407-4.53" transform="translate(-38 -87) translate(38 87)"/>
                <path fill="#F9DDBF" d="M185.863 57.982c2.606.126 5.114-.462 7.78-3.064.435-.425.977-.697.732-1.255-.873-1.996-3.342-6.175-6.349-8.117-.281-.182-.495-.024-.787.14-1.11.623-3.499 2.464-3.645 4.635-.13 1.93.531 5.28.93 7.08.134.6.727.551 1.339.58" transform="translate(-38 -87) translate(38 87)"/>
                <path fill="#FFB27D" d="M166.637 85.89s-2.356 2.007-2.46 3.344c-.057.713-.377 3.407.166 3.282.544-.126 1.088-2.216 1.84-2.425.752-.209 1.693-2.927 1.693-2.927l-1.24-1.274" transform="translate(-38 -87) translate(38 87)"/>
                <path fill="#FFB27D" d="M167.876 87.164s-.502 2.488-.92 3.283c-.417.793-.689.962-.804.804-.115-.156.22-2.602.22-2.602l1.504-1.485M184.402 76.802s-3.125.495-3.585 1.122c-.46.627.376 2.34 1.255 2.508.878.167 2.585-1.517 2.585-1.517l-.255-2.113" transform="translate(-38 -87) translate(38 87)"/>
                <path fill="#F2A36D" d="M240.59 109.124s-5.154-3.96-5.705-5.272c-.55-1.31-2.916-6.11-3.527-6.598 0 0-1.282-.166-1.465.721-.183.887 1.22 6.151 2.198 7.74.978 1.59 5.664 6.978 7.203 7.76l1.295-4.351" transform="translate(-38 -87) translate(38 87)"/>
                <path fill="#F2A36D" d="M228.064 94.828c.085.459.272.952.493 1.207.289.34.748 1.02 1.037 1.462.187.272.306.475.306.475l1.461-.714s.035-2.48-.935-3.008c-.034-.016-.05-.034-.085-.034-.407-.221-.799-.374-1.138-.475-.459-.12-.816-.137-1.02-.018-.187.102-.221.595-.119 1.105" transform="translate(-38 -87) translate(38 87)"/>
                <path fill="#FFB27D" d="M235.324 146.823l2.37 1.228s1.418-1.847 2.685-4.077c.886-1.563 1.7-3.315 1.9-4.75.484-3.486 4.174-9.214 3.79-10.189-.384-.976-7.7-2.663-7.7-2.663s-1.431 9.792-2.382 16.123c-.277 1.847-.514 3.4-.663 4.328" transform="translate(-38 -87) translate(38 87)"/>
                <path fill="#FFF" d="M235.324 146.823l2.37 1.228s1.418-1.847 2.685-4.077c-.986-.075-2.7-.371-4.392-1.48-.277 1.848-.514 3.401-.663 4.329" transform="translate(-38 -87) translate(38 87)"/>
                <path fill="#FFB27D" d="M240.71 128.61s2.996 4.225 4.81 10.165c.427 1.4 1.881 3.142 3.352 4.69 1.427 1.502 2.868 2.82 3.401 3.47l2.415-1.16s-.849-2.435-2.104-4.644c-.466-.822-.987-1.611-1.543-2.234-.77-.86-.516-11.73-1.281-12.446-.767-.716-9.05 2.158-9.05 2.158M247.506 109.225l-.012.007c.01.005.012-.007.012-.007M241.316 112.96l6.178-3.728c-.034-.014-.159-.2-.62-1.537-.198-.57-.302-1.064-.353-1.456-.006-.04-.011-.077-.014-.114-.063-.57-.017-.898-.017-.898l-1.353.488-2.504.907c.03.635-.06 1.082-.195 1.388-.327.744-.935.75-.953.75l-.17 4.2" transform="translate(-38 -87) translate(38 87)"/>
                <path fill="#ED985F" d="M242.438 108.01c2.419.206 3.781-1.372 4.083-1.77l.066-.091-.08-.024c-.197-.059-.731-.22-1.37-.41l-2.504.907c.03.635-.06 1.082-.195 1.388" transform="translate(-38 -87) translate(38 87)"/>
                <path fill="#FFB27D" d="M242.317 107.142s5.375.59 5.485-3.044c.11-3.635.905-5.298-2.814-5.622-3.72-.323-4.598 1.016-4.817 2.245-.684 3.841.632 6.257 2.146 6.42" transform="translate(-38 -87) translate(38 87)"/>
                <path fill="#D35C2B" d="M252.342 94.803c.074-.168.128-.277.128-.277-.056.077-.098.172-.128.277" transform="translate(-38 -87) translate(38 87)"/>
                <path fill="#2B478B" d="M244.699 100.251c1.901-.482 1.174 2.888 1.655 2.658.538-.259 1.461-.254 1.316.395-.146.648-.357.88-.467 1.287-.109.405.001 1.208.444 1.046.442-.163 4.555-4.859 1.65-8.517-2.904-3.659-11.564-1.405-8.837 2.422.48.673 2.885 1.053 4.239.71" transform="translate(-38 -87) translate(38 87)"/>
                <path fill="#EE9849" d="M235.648 135.638s5.288 1.109 7.808.767c3.394-.46 6.403-.537 9.579-2.25 0 0-1.687-8.385-1.792-8.792-.148-.587-1.228-5.092-2.226-9.261l-1.755-7.343s-2.517 1.789-3.984 1.158c-1.467-.632-1.279-1.345-1.279-1.345s-.96-.387-1.41-.244c-.45.142-1.728-.582-1.728-.582s-1.41 1.09-1.463 3.432c-.01.346.012.721.072 1.123l1.02 1.174s-2.3 14.04-2.842 22.163" transform="translate(-38 -87) translate(38 87)"/>
                <path fill="#AA443E" d="M231.399 149.734h7.077s.136-1.153-.027-2.136c-.02-.12-.082-.227-.175-.323-.414.141-1.024.24-1.7-.003-.555-.2-.967-.503-1.253-.78-.073.071-1.535 1.465-2.21 1.465-.694 0-1.753.334-1.712 1.777" transform="translate(-38 -87) translate(38 87)"/>
                <path fill="#FFF" d="M248.872 143.464c1.427 1.503 2.868 2.822 3.401 3.471l2.415-1.16s-.849-2.435-2.104-4.644c-.432.672-1.565 2.055-3.712 2.333" transform="translate(-38 -87) translate(38 87)"/>
                <path fill="#AA443E" d="M251.75 146.311s.088 1.536-.424 1.74c-.512.204-1.467.708-1.467 1.683h3.546s2.444-1.203 2.77-1.714c.327-.51-1.63-2.692-1.63-2.692s-1.2 1.329-2.795.983" transform="translate(-38 -87) translate(38 87)"/>
                <path fill="#FFB27D" d="M245.884 121.338s-1.552-.29-2.16.108c-.607.397-.786 1.02-.35 1.273 1.37.797 2.76-.084 2.76-.084l-.25-1.297" transform="translate(-38 -87) translate(38 87)"/>
                <path fill="#FFB27D" d="M247.199 109.246s4.782 1.012 6.667 8.445c.185.728-.006 1.503-.509 2.06-.867.962-2.778 2.366-7.223 2.884-.486.057-.55-1.175-.55-1.175.048.098 3.02-1.919 4.284-3.004.229-.196.219-.607.054-.86-.427-.652-1.145-1.779-1.386-2.358-.351-.844-2.673-5.61-1.337-5.992" transform="translate(-38 -87) translate(38 87)"/>
                <path fill="#EE9849" d="M247.262 108.76s2.81.2 5.103 3.256c0 0-.776 2.812-4.418 3.562 0 0-2.244-5.062-.685-6.819" transform="translate(-38 -87) translate(38 87)"/>
                <path fill="#2B478B" d="M247.947 96.003s2.705-.736 4.523 1.238c1.818 1.975-.83 5.594 1.713 7.575 2.542 1.982 1.537 3.461.505 3.943-2.323 1.086-5.872-.265-5.15-2.096 1.387-3.52-.666-6.201-.666-6.201l-.925-4.459M210.96 126.048l-.008.067c-.005.04-.01.077-.01.108-.28 2.609-.375 5.353-1.073 7.81-1.82 6.41-4.542 6.99-5.252.334-.599-5.61-1.02-11.179-2.812-16.499-1.049-3.112-1.88-6.076-2.538-8.853-2.143-9.063-2.43-16.126-2.388-19.804.02-1.815.123-2.806.123-2.806l12.322 1.654.574.077c-.07 5.488-.092 12.94-.096 18.768v3.883c0 1.616.003 2.956.005 3.881 0 .896.002 1.404.002 1.404.706 1.558 1.093 3.305 1.24 5.152.125 1.556.08 3.183-.089 4.824" transform="translate(-38 -87) translate(38 87)"/>
                <path fill="#233862" d="M210.96 125.857c.19-2.174-3.68-9.671-3.68-9.671l2.527-1.658c0 .893.002 1.399.002 1.399.706 1.55 1.093 3.29 1.24 5.127.125 1.55.08 3.169-.089 4.803" transform="translate(-38 -87) translate(38 87)"/>
                <path fill="#FFB27D" d="M208.296 143.585c.288-1.469 1.263-6.19 1.726-10.132-1.906.602-4.845.626-5.491.108.177 2.76 1.515 9.023-.605 11.111-1.179 1.162-2.311 2.16-3.864 2.567-.174.045-.347.09-.52.133-1.378.346-2.666.643-2.54.972.141.37 1.094 1.221 3.785 1.15 2.69-.073 2.166-.538 4.094-.348 1.93.19 3.623.155 3.677-1.01.018-.412-.072-.816-.163-1.21-.17-.727-.261-2.515-.1-3.34" transform="translate(-38 -87) translate(38 87)"/>
                <path fill="#F99746" d="M204.88 149.146c-1.927-.19-1.402.275-4.093.348-2.69.071-3.644-.78-3.786-1.15-.125-.33 1.163-.625 2.54-.972l.018.024s1.76.88 3.97.633c1.8-.2 3.623-.956 4.866-1.104.091.395.181.8.163 1.21-.054 1.166-1.748 1.201-3.677 1.011" transform="translate(-38 -87) translate(38 87)"/>
                <path fill="#233862" d="M209.898 88.118c-.07 5.463-.092 12.882-.096 18.682 0 1.4-2.522 8.226-2.522 9.386-2.058-2.809-3.875-22.257-6.725-27.172.02-1.807-3.553-2.62-3.553-2.62l12.322 1.647.574.077" transform="translate(-38 -87) translate(38 87)"/>
                <path fill="#212121" d="M211.908 35.335c.072-.256 1-3.134 5.49-2.179 0 0-2.248-.283-2.865.583 0 0 1.782-.816 2.898-.133 1.116.683 1.299 2.981 1.133 3.68-.167.7-1.4 2.782-2.216 2.782-.309 0-.64-.103-.93-.23.125.37.237.772.33 1.213.868 4.078-1.845 7.178-3.247 6.412-.9-.492-1.58 1.082-1.58 1.082l-7.463-9.893s5.2-6.25 8.45-3.317" transform="translate(-38 -87) translate(38 87)"/>
                <path fill="#FFE0CB" fill-rule="nonzero" d="M200.182 83.415c3.386-10.826-.325-13.18.028-18.596.352-5.418 4.546-11.242 4.546-11.242s.214-.022.576-.054c.282-.149.357-1.326.353-2.57-.003-1.49-.117-3.073-.117-3.073l5.03-.997.298-.058c-.012 3.5.91 5.8 1.578 6.334.629.072 3.307.41 4.96 1.1.621.26 1.097.57 1.263.934 1.38 3.037 2.76 10.702 3.73 16.17.539 3.047.951 5.413 1.166 5.914.6 1.399 2.432 9.094 3.998 12.89l-2 .6s-6.595-10.942-7.195-13.79c-.195-.927-.674-2.782-1.235-4.86-.084-.314-.17-.634-.258-.956-.988 2.68-1.492 3.92-1.465 5.078.039 1.648 1.157 3.128 3.492 8.365 1.29 2.895-22.206 9.866-18.748-1.19" transform="translate(-38 -87) translate(38 87)"/>
                <path fill="#EEC8AF" fill-rule="nonzero" d="M205.568 48.677s.114 1.583.117 3.074c2.815-.08 4.303-2.647 4.913-4.07l-5.03.996" transform="translate(-38 -87) translate(38 87)"/>
                <path fill="#212121" d="M211.117 47.133s1.475-2.33 1.83-4.323c.252-1.423-.473-6.697-5.773-5.937 0 0-1.54.151-2.985 1.129-1.152.777-2.812 2.454-.956 7.057l.484 1.554 7.4.52" transform="translate(-38 -87) translate(38 87)"/>
                <path fill="#FFE0CB" fill-rule="nonzero" d="M204.628 50.089s6.659.11 6.663-4.038c.006-4.149.868-6.928-3.384-7.174-4.252-.245-5.08 1.337-5.418 2.72-.339 1.385.407 8.356 2.139 8.492" transform="translate(-38 -87) translate(38 87)"/>
                <path fill="#2B478B" d="M207.961 118.033c.425.767 4.626 5.63 8.847 11.014.361.461.736.958 1.12 1.48 2.488 3.373 5.353 7.771 7.065 9.912 1.555 1.947 2.944-.499 2.158-2.238-1.242-2.744-2.298-7.546-3.5-11.078-.278-.817-.564-1.566-.861-2.207-1.295-2.781-3.81-5.826-6.865-8.84-.53-.522 4.395-13.035 4.044-22.675-.138-3.821-.695-7.18-1.958-9.225l-12.528.63s-1.659 25.755 2.478 33.227" transform="translate(-38 -87) translate(38 87)"/>
                <path fill="#212121" d="M202.688 39.291c1.027-1.245 1.804-.974 2.24-.6 3.571-1.981 5.988.96 5.988.96.446 2.976 2.592 4.68 2.592 4.68s-1.214.75-4.013.03c-.853-.219-1.616-.825-2.265-1.56 1.133 1.896 2.672 3.263 2.672 3.263-3.342-1.546-4.683-6.194-4.818-6.686-.406.365-1.207 1.158-1.451 1.936-.332 1.056-.482 3.23-1.116 3.157 0 0-1.373-3.308.17-5.18" transform="translate(-38 -87) translate(38 87)"/>
                <path fill="#FFE0CB" fill-rule="nonzero" d="M227.426 89.81s.609 1.433 1.241 1.832c.633.4 1.532 1.366 1.366 2.132-.167.767-.333 1.965-1.132 1.965-.8 0-2.666-3.53-2.9-4.196-.231-.667-.432-.8-.432-.8l1.857-.932" transform="translate(-38 -87) translate(38 87)"/>
                <path fill="#EE9849" d="M220.5 89.123c.021.431-.002.777-.078 1.023-.267.857-1.182 1.247-3.396 1.013-1.352-.143-1.955-2.459-2.224-4.434-.812 2.826-1.95 4.412-3.42 4.745-2.146.488-13.74 1.307-14.45-3.947-.778-5.78 2.326-15.49 2.454-21.007-.318-1.956-.427-3.654-.393-5.113.09-3.93 1.22-6.134 2.089-7.02.246-.193.492-.314 1.48-.487.504-.087 1.203-.189 2.194-.322 0 0 .426-.056.418-.04-.183.333-2.153 3.295-1.963 4.27.2 1.02 7.775.873 8.375.312.599-.56 2.164-4.792 2.164-4.792s3.08.343 4.585 1.462l-.017.02c.183.133.32.274.396.425 1.607 3.124 3.212 11.008 4.34 16.632-2.735 1.54-5.124 1.081-5.866.878.97 6.477 3.167 13.431 3.311 16.382" transform="translate(-38 -87) translate(38 87)"/>
                <path fill="#FFF" d="M206.542 47.64s-.127.51-1.4.416c0 0-1.069-.078-1.03-.64 0 0 1.042-.389 2.43.224" transform="translate(-38 -87) translate(38 87)"/>
                <path fill="#FFB27D" d="M217.929 130.526c2.487 3.374 5.352 7.772 7.064 9.913 1.555 1.947 2.944-.499 2.158-2.238-1.242-2.744-2.298-7.546-3.5-11.078-.802 1.183-2.44 2.711-5.722 3.403" transform="translate(-38 -87) translate(38 87)"/>
                <path fill="#FFE0CB" fill-rule="nonzero" d="M226.002 91.543s.219 1.611.644 1.983c.425.372.486 1.041.922.681.436-.36-1.566-2.664-1.566-2.664" transform="translate(-38 -87) translate(38 87)"/>
                <path fill="#FFB27D" d="M230.211 139.007c1.012.634.206 2.079-.916 3.608-1.123 1.528-.45 1.321-1.715 3.625-1.264 2.303-2.494 2.677-2.894 2.608-.356-.06.017-1.295.39-2.63.047-.168.093-.337.138-.507.405-1.513-.123-2.938-.375-4.551-.24-1.528-2.527-4.549-2.527-4.549l1.626-3.2s2.012 2.779 2.92 3.905c.535.66 1.464.993 2.196 1.217.396.123.8.25 1.157.474" transform="translate(-38 -87) translate(38 87)"/>
                <path fill="#F99746" d="M229.295 142.615c-1.123 1.528-.45 1.321-1.715 3.625-1.264 2.303-2.494 2.677-2.894 2.608-.356-.06.017-1.295.39-2.63l.03-.003s1.653-1.039 2.526-3.025c.712-1.619.939-3.536 1.422-4.657.396.123.8.25 1.157.474 1.012.634.206 2.079-.916 3.608" transform="translate(-38 -87) translate(38 87)"/>
                <path fill="#FFE0CB" fill-rule="nonzero" d="M187.712 72.69c-.176.635-.234 1.354.197 2.627.431 1.273.769 1.351 1.206.515.437-.836.658-1.668 1.188-2.637.296-.54-.2-1.353-.948-1.524-.593-.136-1.41.18-1.643 1.019" transform="translate(-38 -87) translate(38 87)"/>
                <path fill="#FFE0CB" fill-rule="nonzero" d="M189.313 71.662s1.308.251 1.529.816c.219.564-.126 1.38-.158 1.85-.03.47-.313.306-.368.102-.054-.204-.25-1.56-.25-1.56l-.753-1.208" transform="translate(-38 -87) translate(38 87)"/>
                <path fill="#2E3552" d="M266.719 149.881H.28c-.155 0-.281-.127-.281-.283v-.05c0-.154.126-.282.281-.282h266.438c.155 0 .281.128.281.282v.05c0 .156-.126.283-.281.283" transform="translate(-38 -87) translate(38 87)"/>
                <path fill="#F9DDBF" d="M115.386 64.721L117.513 88.459 135.599 88.459 132.54 64.986 115.386 64.721" transform="translate(-38 -87) translate(38 87)"/>
                <path fill="#F2CFAF" d="M111.463 64.39L113.524 65.451 115.386 64.721 117.513 88.459 110 88.459 111.463 64.39" transform="translate(-38 -87) translate(38 87)"/>
                <path fill="#A05C35" d="M157.058 89.213v.145c0 .474-.384.858-.857.858H25.463v-.013c.004-.365 0-.733-.01-1.105v-.001c-.006-.246-.017-.491-.03-.74H156.2c.473 0 .857.383.857.856" transform="translate(-38 -87) translate(38 87)"/>
                <path fill="#FFA561" d="M123.586 81.7l-.043-.025c.007-.012.713-1.191 1.928-2.53 1.123-1.234 2.92-2.862 5.115-3.602l.017.047c-2.185.736-3.976 2.358-5.094 3.589-1.212 1.335-1.916 2.51-1.923 2.521" transform="translate(-38 -87) translate(38 87)"/>
                <path fill="#FFA561" d="M127.007 75.374s-.325.84-.304 1.19c.02.351.53.98.53.98s.388-.752.38-1.03c-.006-.278-.606-1.14-.606-1.14" transform="translate(-38 -87) translate(38 87)"/>
                <path fill="#FFA561" d="M129.164 78.422s-.547-.716-.857-.88c-.31-.166-1.114-.057-1.114-.057s.442.722.683.86c.24.14 1.288.077 1.288.077M128.578 74.783s-.596.675-.697 1.011c-.102.337.16 1.104.16 1.104s.624-.573.713-.836c.09-.263-.176-1.28-.176-1.28" transform="translate(-38 -87) translate(38 87)"/>
                <path fill="#FFA561" d="M130.099 77.572s-.619-.654-.944-.786c-.326-.132-1.114.06-1.114.06s.514.672.768.785c.254.113 1.29-.06 1.29-.06M130.093 74.48s-.751.456-.944.74c-.193.284-.172 1.075-.172 1.075s.748-.352.908-.572c.16-.219.208-1.243.208-1.243" transform="translate(-38 -87) translate(38 87)"/>
                <path fill="#FFA561" d="M131.064 76.554s-.726-.494-1.065-.552c-.338-.058-1.05.29-1.05.29s.631.534.897.588c.266.055 1.218-.326 1.218-.326M132.008 74.698s-.878.02-1.186.17c-.31.15-.686.846-.686.846s.823.068 1.072-.043c.248-.11.8-.973.8-.973M126.083 76.204s-.32.841-.3 1.192c.02.35.524.974.524.974s.381-.755.375-1.033c-.007-.278-.599-1.133-.599-1.133" transform="translate(-38 -87) translate(38 87)"/>
                <path fill="#FFA561" d="M128.367 78.88s-.68-.59-1.016-.692c-.336-.101-1.095.157-1.095.157s.578.618.84.707c.264.09 1.27-.172 1.27-.172M124.996 77.009s-.37.958-.35 1.359c.023.4.594 1.114.594 1.114s.44-.86.432-1.176c-.005-.318-.676-1.297-.676-1.297" transform="translate(-38 -87) translate(38 87)"/>
                <path fill="#FFA561" d="M127.674 79.649s-.873-.54-1.27-.592c-.398-.052-1.206.38-1.206.38s.765.588 1.079.64c.312.051 1.397-.428 1.397-.428M123.814 77.86s-.34 1.114-.283 1.564c.057.45.763 1.21.763 1.21s.425-1.006.391-1.364c-.033-.358-.871-1.41-.871-1.41" transform="translate(-38 -87) translate(38 87)"/>
                <path fill="#FFA561" d="M127.091 80.474s-1.064-.471-1.519-.468c-.454.002-1.294.61-1.294.61s.95.545 1.309.555c.358.01 1.504-.697 1.504-.697M121.996 81.203l.045.022c.006-.014.59-1.256 1.024-3.011.4-1.62.75-4.02.14-6.256l-.048.013c.606 2.225.258 4.616-.14 6.23-.431 1.75-1.015 2.99-1.021 3.002" transform="translate(-38 -87) translate(38 87)"/>
                <path fill="#FFA561" d="M125.34 74.836s-.515.738-.818.917c-.302.178-1.11.105-1.11.105s.41-.741.644-.89c.234-.15 1.284-.132 1.284-.132" transform="translate(-38 -87) translate(38 87)"/>
                <path fill="#FFA561" d="M121.608 74.744s.898.055 1.209.22c.31.166.668.893.668.893s-.846.037-1.095-.085c-.25-.123-.782-1.028-.782-1.028M124.955 73.202s-.228.87-.45 1.143c-.224.272-1.006.482-1.006.482s.128-.837.296-1.058c.17-.221 1.16-.567 1.16-.567" transform="translate(-38 -87) translate(38 87)"/>
                <path fill="#FFA561" d="M121.792 73.495s.888.148 1.18.345c.29.197.571.958.571.958s-.845-.052-1.08-.2c-.236-.148-.67-1.103-.67-1.103M124.362 71.776s.04.878-.088 1.196c-.128.318-.796.742-.796.742s-.124-.817-.032-1.072c.093-.255.916-.866.916-.866" transform="translate(-38 -87) translate(38 87)"/>
                <path fill="#FFA561" d="M122.1 72.126s.815.327 1.051.576c.237.249.345 1.033.345 1.033s-.795-.226-.989-.416c-.193-.19-.408-1.193-.408-1.193M123.114 70.307s.472.74.52 1.08c.048.34-.32 1.04-.32 1.04s-.515-.645-.562-.913c-.048-.267.362-1.207.362-1.207M125.166 76.066s-.52.735-.822.913c-.301.178-1.1.108-1.1.108s.413-.738.648-.887c.234-.149 1.274-.134 1.274-.134" transform="translate(-38 -87) translate(38 87)"/>
                <path fill="#FFA561" d="M121.672 75.662s.87.235 1.14.457c.272.223.481.997.481.997s-.835-.135-1.055-.304c-.221-.169-.566-1.15-.566-1.15M128.266 73.411s-.454.751-.738.944c-.284.194-1.075.173-1.075.173s.352-.748.57-.908c.22-.16 1.243-.209 1.243-.209" transform="translate(-38 -87) translate(38 87)"/>
                <path fill="#FFA561" d="M126.193 72.442s.494.726.552 1.064c.059.339-.289 1.05-.289 1.05s-.534-.63-.589-.897c-.055-.265.326-1.217.326-1.217M128.047 71.496s-.018.878-.168 1.187c-.15.309-.845.685-.845.685s-.07-.823.042-1.071c.11-.248.971-.801.971-.801" transform="translate(-38 -87) translate(38 87)"/>
            </g>
        </g>
    </g>
</svg>
