<?xml version="1.0" encoding="UTF-8"?>
<svg width="14px" height="14px" viewBox="0 0 14 14" version="1.1" xmlns="http://www.w3.org/2000/svg" xmlns:xlink="http://www.w3.org/1999/xlink">
    <title>1768327 copy</title>
    <g id="Page-1" stroke="none" stroke-width="1" fill="none" fill-rule="evenodd">
        <g id="4.1-my-shop-nav" transform="translate(-168.000000, -611.000000)" fill="#000" fill-rule="nonzero">
            <g id="inventory-bottom" transform="translate(0.000000, 600.000000)">
                <g id="Group-5" transform="translate(147.000000, 11.000000)">
                    <g id="1768327-copy" transform="translate(21.000000, 0.000000)">
                        <path d="M13.9652814,12.5942362 C13.8041688,13.3950337 13.0952736,14 12.2477308,14 L12.2477308,14 L1.75249612,14 C0.904726415,14 0.195831187,13.3950337 0.0344917012,12.5942362 L0.0344917012,12.5942362 Z M3.50476529,-5.5067062e-14 L3.50476529,3.32663382 C3.50476529,3.80792919 3.89483921,4.19800311 4.37613458,4.19800311 L4.37613458,4.19800311 L9.62386542,4.19800311 C10.1049339,4.19800311 10.4952347,3.80792919 10.4952347,3.32663382 L10.4952347,3.32663382 L10.4952347,-5.5067062e-14 L12.2477308,-5.5067062e-14 C13.2139523,-5.5067062e-14 14,0.786047718 14,1.75249612 L14,1.75249612 L14,10.8514977 L0,10.8514977 L0,1.75249612 C0,0.786047718 0.786047718,-5.5067062e-14 1.75249612,-5.5067062e-14 L1.75249612,-5.5067062e-14 L3.50476529,-5.5067062e-14 Z M8.75249612,0 L8.75249612,2.45526452 L5.24750388,2.45526452 L5.24750388,0 L8.75249612,0 Z" id="Combined-Shape"></path>
                    </g>
                </g>
            </g>
        </g>
    </g>
</svg>