<svg xmlns="http://www.w3.org/2000/svg" width="14" height="14" viewBox="0 0 14 14">
    <g fill="none" fill-rule="evenodd">
        <g fill="#424242" fill-rule="nonzero">
            <g>
                <g>
                    <path d="M3.793 3.746L3.617 3.746 3.289 5.387 4.121 5.387zM10.428 7.027c.177.476.413.861.674 1.189.26-.328.523-.713.7-1.189h-1.374z" transform="translate(-20 -441) translate(15 436) translate(5 5)"/>
                    <path d="M12.77 2.488H7.676l1.062 8.523c.019.348-.077.677-.304.933L6.635 14h6.135c.678 0 1.23-.552 1.23-1.23V3.746c0-.678-.552-1.258-1.23-1.258zm0 4.54h-.11c-.233.748-.603 1.334-.988 1.796.301.275.623.501.944.754.176.142.205.4.063.577-.14.177-.4.205-.576.063-.348-.274-.675-.504-1.001-.804-.327.3-.627.53-.975.804-.176.142-.435.114-.576-.063-.142-.177-.113-.435.064-.577.32-.253.615-.479.916-.754-.384-.462-.727-1.048-.96-1.797h-.11c-.227 0-.41-.183-.41-.41 0-.227.183-.41.41-.41h1.23v-.41c0-.227.184-.41.41-.41.227 0 .41.183.41.41v.41h1.259c.226 0 .41.183.41.41 0 .227-.184.41-.41.41z" transform="translate(-20 -441) translate(15 436) translate(5 5)"/>
                    <path d="M6.676 1.078C6.6.463 6.075 0 5.456 0H1.23C.552 0 0 .552 0 1.23v9.079c0 .678.552 1.23 1.23 1.23H7.7c.12-.137.22-.222.224-.4 0-.046-1.241-10.017-1.247-10.061zM5.03 7.84c-.218.044-.438-.097-.483-.322l-.262-1.311h-1.16l-.262 1.311c-.044.222-.258.368-.483.322-.221-.045-.366-.26-.321-.483l.82-4.102c.039-.191.207-.33.402-.33h.848c.195 0 .364.139.402.33l.82 4.102c.045.222-.1.438-.321.483zM4.792 12.36l.07.562c.048.377.298.761.71.953l1.377-1.516H4.792z" transform="translate(-20 -441) translate(15 436) translate(5 5)"/>
                </g>
            </g>
        </g>
    </g>
</svg>
