<svg xmlns="http://www.w3.org/2000/svg" width="9" height="10" viewBox="0 0 9 10">
    <g fill="none" fill-rule="evenodd">
        <g fill="#757575" fill-rule="nonzero">
            <g>
                <path d="M7.22 1.239C6.421.439 5.36 0 4.23 0 3.1 0 2.037.44 1.238 1.239.439 2.038 0 3.099 0 4.229c0 2.286 2.16 4.187 3.322 5.208.161.142.3.264.411.368.14.13.318.195.496.195.179 0 .357-.065.496-.195.111-.104.25-.226.412-.368C6.298 8.416 8.46 6.515 8.46 4.229c0-1.13-.44-2.191-1.239-2.99zM4.23 5.934c-1.028 0-1.864-.837-1.864-1.864 0-1.028.836-1.864 1.863-1.864 1.028 0 1.864.836 1.864 1.864 0 1.027-.836 1.864-1.864 1.864z" transform="translate(-20 -227) translate(20 227)"/>
            </g>
        </g>
    </g>
</svg>
