<?xml version="1.0" encoding="UTF-8"?>
<svg width="24px" height="24px" viewBox="0 0 24 24" version="1.1" xmlns="http://www.w3.org/2000/svg" xmlns:xlink="http://www.w3.org/1999/xlink">
    <title>Group 41</title>
    <g id="Onboarding" stroke="none" stroke-width="1" fill="none" fill-rule="evenodd">
        <g id="6.-Navigation-Drawer" transform="translate(-16.000000, -570.000000)">
            <g id="Group-41" transform="translate(16.000000, 570.000000)">
                <rect id="Rectangle-Copy-11" x="0" y="0" width="24" height="24"></rect>
                <g id="660350" transform="translate(5.000000, 5.000000)" fill="#424242" fill-rule="nonzero">
                    <path d="M9.91703125,-8.8817842e-15 C10.2396055,-8.8817842e-15 10.5003555,0.261324219 10.5003555,0.583351562 L10.5003555,0.583351562 L10.5003555,4.08335156 C10.5003555,4.40535156 10.2396055,4.66667578 9.91703125,4.66667578 C9.59445703,4.66667578 9.33370703,4.40535156 9.33370703,4.08335156 L9.33370703,4.08335156 L9.33370703,1.16667578 L4.55853125,1.16667578 L6.58445703,1.7745 C6.83120703,1.84857422 7.00038281,2.07607422 7.00038281,2.33332422 L7.00038281,2.33332422 L7.00038281,11.6666758 L9.33370703,11.6666758 L9.33370703,8.75 C9.33370703,8.428 9.59445703,8.16667578 9.91703125,8.16667578 C10.2396055,8.16667578 10.5003555,8.428 10.5003555,8.75 L10.5003555,8.75 L10.5003555,12.2500273 C10.5003555,12.5720273 10.2396055,12.8333516 9.91703125,12.8333516 L9.91703125,12.8333516 L7.00035547,12.8333516 L7.00035547,13.4166758 C7.00035547,13.5916758 6.92160547,13.7567773 6.78685547,13.8676016 C6.68185547,13.9539531 6.55060547,14.0000273 6.41703125,14.0000273 C6.37913281,14.0000273 6.34063281,13.9965273 6.30270703,13.9883516 L6.30270703,13.9883516 L0.469382812,12.8216758 C0.196957031,12.7674258 0.000382812499,12.52825 0.000382812499,12.25 L0.000382812499,12.25 L0.000382812499,0.583324219 C0.000382812499,0.571675781 0.007984375,0.561175781 0.00855859375,0.5495 C0.0091328125,0.532574219 0.0038828125,0.51625 0.00680859375,0.49875 C0.0138085937,0.44975 0.0342070312,0.406574219 0.0528828125,0.36225 C0.05928125,0.345925781 0.06103125,0.329 0.0692070312,0.31325 C0.107707031,0.240324219 0.16078125,0.179074219 0.224355469,0.128925781 C0.22903125,0.125425781 0.23078125,0.119 0.235484375,0.115472656 L0.235484375,0.115472656 L0.276308594,0.0973984375 C0.328207031,0.06475 0.383632812,0.0408242187 0.444882812,0.0250742187 C0.471132812,0.0186484375 0.496207031,0.014 0.523632812,0.0110742187 C0.54403125,0.00875 0.562707031,-8.8817842e-15 0.583707031,-8.8817842e-15 L0.583707031,-8.8817842e-15 Z M11.2546328,4.25411328 C11.482707,4.02661328 11.8513828,4.02661328 12.079457,4.25411328 L12.079457,4.25411328 L13.8288828,6.00353906 C13.8831328,6.05778906 13.925707,6.12253906 13.955457,6.19371484 C14.0143555,6.33603906 14.0143555,6.49703906 13.955457,6.63930859 C13.925707,6.71105859 13.8831328,6.77580859 13.8288828,6.82948438 L13.8288828,6.82948438 L12.079457,8.57891016 C11.965707,8.69326172 11.8163828,8.74983594 11.6670312,8.74983594 C11.5176797,8.74983594 11.3683555,8.69323438 11.2546055,8.57891016 C11.0265312,8.35141016 11.0265312,7.98216016 11.2546055,7.75408594 L11.2546055,7.75408594 L12.0088555,6.99983594 L8.75035547,6.99983594 C8.42778125,6.99983594 8.16703125,6.73851172 8.16703125,6.41651172 C8.16703125,6.09451172 8.42778125,5.8331875 8.75035547,5.8331875 L8.75035547,5.8331875 L12.0088828,5.8331875 L11.2546328,5.0789375 C11.0265586,4.8514375 11.0265586,4.4821875 11.2546328,4.25411328 Z" id="Combined-Shape"></path>
                </g>
            </g>
        </g>
    </g>
</svg>