<svg xmlns="http://www.w3.org/2000/svg" width="14" height="14" viewBox="0 0 14 14">
    <g fill="none" fill-rule="evenodd">
        <g fill="#424242" fill-rule="nonzero">
            <g>
                <g>
                    <path d="M13.955 6.194c-.03-.071-.072-.136-.126-.19l-1.75-1.75c-.228-.227-.596-.227-.824 0-.228.228-.228.597 0 .825l.754.754H8.75c-.322 0-.583.262-.583.584 0 .322.26.583.583.583h3.259l-.754.754c-.228.228-.228.597 0 .825.113.114.263.17.412.17.15 0 .299-.056.412-.17l1.75-1.75c.054-.053.097-.118.126-.19.06-.142.06-.303 0-.445z" transform="translate(-20 -561) translate(15 556) translate(5 5)"/>
                    <path d="M9.917 8.167c-.323 0-.583.261-.583.583v2.917H7V2.333c0-.257-.169-.484-.416-.559L4.56 1.167h4.775v2.916c0 .322.26.584.583.584.323 0 .583-.262.583-.584v-3.5C10.5.261 10.24 0 9.917 0H.584c-.021 0-.04.009-.06.011C.496.014.47.02.444.025.385.041.329.065.277.097.263.106.248.107.236.115.23.12.228.125.223.13.161.179.108.24.07.313.061.33.06.346.053.363.034.406.013.45.007.498c-.003.017.002.034.002.05C.008.561 0 .573 0 .584V12.25c0 .278.197.517.47.572l5.833 1.166c.038.009.076.012.114.012.134 0 .265-.046.37-.132.135-.111.213-.276.213-.451v-.584h2.917c.323 0 .583-.261.583-.583v-3.5c0-.322-.26-.583-.583-.583z" transform="translate(-20 -561) translate(15 556) translate(5 5)"/>
                </g>
            </g>
        </g>
    </g>
</svg>
