<svg xmlns="http://www.w3.org/2000/svg" width="18" height="12" viewBox="0 0 18 12">
    <g fill="none" fill-rule="evenodd">
        <g fill="#FFF" fill-rule="nonzero">
            <g>
                <path d="M11.57 6.089L17.455 9.809 17.455 2.212zM0 2.212L0 9.809 5.884 6.089zM16.364 0H1.09C.547 0 .115.406.033.928l8.694 5.729L17.422.928C17.34.406 16.908 0 16.364 0zM10.57 6.748L9.028 7.765c-.091.06-.195.09-.3.09-.104 0-.208-.03-.3-.09L6.884 6.747.034 11.08C.12 11.597.55 12 1.092 12h15.273c.542 0 .972-.403 1.056-.92l-6.85-4.332z" transform="translate(-31 -332) translate(31 332)"/>
            </g>
        </g>
    </g>
</svg>
