<?xml version="1.0" encoding="UTF-8"?>
<svg width="35px" height="55px" viewBox="0 0 35 55" version="1.1" xmlns="http://www.w3.org/2000/svg" xmlns:xlink="http://www.w3.org/1999/xlink">
    <title>Group 2</title>
    <g id="Page-1" stroke="none" stroke-width="1" fill="none" fill-rule="evenodd">
        <g id="1.5.2.4-onboarding-store-details-laction3" transform="translate(-197.000000, -169.000000)">
            <g id="Group-2" transform="translate(197.000000, 169.152381)">
                <g id="Location" transform="translate(6.000000, 31.847619)" fill="#43B02A">
                    <circle id="Oval" fill-opacity="0.2" cx="11" cy="11" r="11"></circle>
                    <circle id="Oval" fill-opacity="0.4" cx="11" cy="11" r="6"></circle>
                    <circle id="Oval" cx="11" cy="11" r="3"></circle>
                </g>
                <g id="map-marker" fill="#5445BD" fill-rule="nonzero">
                    <path d="M17.5,0.847619048 C27.1494141,0.847619048 35,8.57553956 35,18.0741815 C35,25.7328882 29.8733724,32.4472742 22.4628907,34.5977106 L18.6178385,42.1673364 C18.40625,42.5842218 17.9733073,42.847619 17.5,42.847619 C17.0263672,42.847619 16.59375,42.5842218 16.3818359,42.1673364 L12.5367838,34.5973901 C5.12662758,32.4469538 0,25.7325678 0,18.0741815 C0,8.57553956 7.85058592,0.847619048 17.5,0.847619048 Z M17,12.847619 C14.2428385,12.847619 12,15.0904575 12,17.847619 C12,20.6047805 14.2428385,22.847619 17,22.847619 C19.7571615,22.847619 22,20.6047805 22,17.847619 C22,15.0904575 19.7571615,12.847619 17,12.847619 Z" id="Combined-Shape"></path>
                    <path d="M17.5,0.847619048 C27.1494141,0.847619048 35,8.57553956 35,18.0741815 C35,25.7328882 29.8733724,32.4472742 22.4628907,34.5977106 L18.6178385,42.1673364 C18.40625,42.5842218 18,42.847619 17.5,42.847619 L17.5003396,22.8227841 C20.0234412,22.571 22,20.4359397 22,17.847619 C22,15.2592984 20.0234412,13.1242381 17.5003396,12.872454 L17.5,0.847619048 L17.5,0.847619048 Z" id="Combined-Shape"></path>
                </g>
            </g>
        </g>
    </g>
</svg>