<?xml version="1.0" encoding="UTF-8"?>
<svg width="26px" height="26px" viewBox="0 0 26 26" version="1.1" xmlns="http://www.w3.org/2000/svg" xmlns:xlink="http://www.w3.org/1999/xlink">
    <title>Group 7</title>
    <g id="Onboarding" stroke="none" stroke-width="1" fill="none" fill-rule="evenodd">
        <g id="14.2--Track-order---Order-placed" transform="translate(-322.000000, -597.000000)" fill="#43B02A">
            <g id="Group-7" transform="translate(322.000000, 597.000000)">
                <path d="M13,0 C5.8320802,0 0,5.8320802 0,13 C0,20.1679198 5.8320802,26 13,26 C20.1679198,26 26,20.1679198 26,13 C26,5.8320802 20.1679198,0 13,0 Z" id="Shape" fill-opacity="0.2"></path>
                <path d="M19.1679438,10.0343231 L12.1117497,17.0351745 C11.6966794,17.4502448 11.032567,17.4779161 10.5898255,17.0628459 L6.85419327,13.6592699 C6.41145168,13.2441997 6.38378033,12.5524159 6.77117923,12.1096743 C7.18624947,11.6669327 7.87803321,11.6392614 8.3207748,12.0543316 L11.2816092,14.7661239 L17.5906769,8.45705619 C18.0334185,8.0143146 18.7252022,8.0143146 19.1679438,8.45705619 C19.6106854,8.89979779 19.6106854,9.59158152 19.1679438,10.0343231 Z" id="Path"></path>
            </g>
        </g>
    </g>
</svg>