<svg xmlns="http://www.w3.org/2000/svg" width="16" height="16" viewBox="0 0 16 16">
    <g fill="none" fill-rule="evenodd">
        <g fill="#0E492F" fill-rule="nonzero">
            <g>
                <path d="M15.856 15.193c0-.44-.357-.796-.796-.796h-.336V6.689c-.414 0-.804-.135-1.13-.362-.219.154-.47.268-.75.323-.127.026-.258.039-.386.039-.086 0-.169-.012-.252-.023v1.52h-3.71v-1.59c-.181.054-.37.092-.567.092-.198 0-.386-.038-.566-.092v1.59H3.652v-1.52c-.083.011-.166.023-.252.023-.128 0-.258-.013-.388-.039-.279-.055-.53-.169-.749-.323-.325.227-.715.362-1.128.362v7.708H.797c-.44 0-.796.356-.796.796 0 .44.356.796.796.796H15.06c.44 0 .796-.356.796-.796zm-3.65-5.874v1.805c0 .352-.285.636-.636.636H8.495V9.32h3.71zm-4.843 0v2.441H4.288c-.351 0-.636-.284-.636-.636V9.32h3.71zM.81 5.792c.109.032.218.047.325.047.487 0 .938-.317 1.084-.809l.06-.199c.04.362.252.68.568.858.102.057.21.104.331.128.075.015.15.022.222.022.53 0 1.003-.373 1.11-.912l.027-.138c.029.385.249.723.576.906.131.073.28.122.439.138.038.004.076.006.113.006.575 0 1.068-.436 1.126-1.02l.008-.084c.01.412.242.766.58.956.163.091.35.148.55.148.2 0 .386-.057.55-.148.338-.19.569-.544.58-.956l.008.084c.058.584.55 1.02 1.125 1.02.038 0 .076-.002.114-.006.16-.016.307-.065.44-.138.326-.183.546-.521.574-.906l.028.138c.107.54.58.912 1.11.912.073 0 .147-.007.222-.022.12-.024.23-.07.33-.128.317-.178.528-.496.569-.858l.06.2c.146.49.596.808 1.084.808.107 0 .216-.015.324-.047.6-.18.94-.81.762-1.41l-.969-3.24C14.638.463 14.015 0 13.308 0H2.55c-.707 0-1.33.464-1.532 1.141L.049 4.382c-.179.6.162 1.23.762 1.41z" transform="translate(-85 -242) translate(85 242)"/>
            </g>
        </g>
    </g>
</svg>
