<svg xmlns="http://www.w3.org/2000/svg" width="17" height="16" viewBox="0 0 17 16">
    <g fill="none" fill-rule="evenodd">
        <g fill="#0E492F" fill-rule="nonzero">
            <g>
                <path d="M16.14 6.96l-.001-.002L9.612.432C9.334.153 8.964 0 8.571 0c-.394 0-.764.153-1.042.432L1.006 6.955l-.007.006c-.571.575-.57 1.507.003 2.08.262.262.608.414.977.43l.046.002h.26v4.803c0 .95.773 1.724 1.724 1.724h2.553c.26 0 .47-.21.47-.469v-3.765c0-.434.352-.787.786-.787h1.506c.433 0 .786.353.786.787v3.765c0 .26.21.469.469.469h2.553c.951 0 1.724-.773 1.724-1.724V9.473h.242c.393 0 .763-.153 1.041-.431.574-.574.574-1.508.001-2.083z" transform="translate(-296 -104) translate(296 104)"/>
            </g>
        </g>
    </g>
</svg>
