<svg xmlns="http://www.w3.org/2000/svg" xmlns:xlink="http://www.w3.org/1999/xlink" width="18" height="12" viewBox="0 0 18 12">
    <defs>
        <path id="c6xmb0oosa" d="M1 12h8c.552 0 1-.448 1-1s-.448-1-1-1H1c-.552 0-1 .448-1 1s.448 1 1 1zm0-5h16c.552 0 1-.448 1-1s-.448-1-1-1H1c-.552 0-1 .448-1 1s.448 1 1 1zM0 1c0 .552.448 1 1 1h16c.552 0 1-.448 1-1s-.448-1-1-1H1C.448 0 0 .448 0 1z"/>
    </defs>
    <g fill="none" fill-rule="evenodd">
        <g>
            <g transform="translate(-20 -46) translate(20 46)">
                <use fill="#1A1A1A" fill-rule="nonzero" xlink:href="#c6xmb0oosa"/>
            </g>
        </g>
    </g>
</svg>
