<svg xmlns="http://www.w3.org/2000/svg" width="24" height="24" viewBox="0 0 24 24">
    <g fill="none" fill-rule="evenodd">
        <g>
            <g>
                <g fill="#424242" fill-rule="nonzero">
                    <path d="M11.094 11.545l-.625-7.878c-.039-.508-.468-.905-.977-.905H8.257v1.83c0 .226-.183.41-.41.41-.226 0-.41-.184-.41-.41v-1.83H3.665v1.83c0 .226-.184.41-.41.41-.227 0-.41-.184-.41-.41v-1.83H1.61c-.51 0-.939.397-.977.904l-.626 7.88c-.048.631.17 1.26.6 1.723.43.464 1.04.731 1.673.731h6.542c.632 0 1.242-.267 1.672-.73.43-.465.649-1.093.6-1.725zM7.398 7.533l-2.12 2.12c-.08.08-.186.12-.29.12-.105 0-.21-.04-.29-.12l-.994-.993c-.16-.16-.16-.42 0-.58.16-.16.42-.16.58 0l.704.704 1.83-1.831c.16-.16.42-.16.58 0 .16.16.16.42 0 .58z" transform="translate(-16 -220) translate(16 220) translate(6 5)"/>
                    <path d="M5.55 0C4.06 0 2.846 1.214 2.846 2.706v.056h.82v-.056C3.665 1.666 4.51.82 5.55.82s1.886.846 1.886 1.886v.056h.82v-.056C8.257 1.214 7.043 0 5.551 0z" transform="translate(-16 -220) translate(16 220) translate(6 5)"/>
                </g>
            </g>
        </g>
    </g>
</svg>
