<svg xmlns="http://www.w3.org/2000/svg" width="124" height="67" viewBox="0 0 124 67">
    <g fill="none" fill-rule="evenodd">
        <g>
            <g>
                <path fill="#DBEDFC" d="M66.763.01c-8.059-.289-13.55 6.336-17.06 12.8-3.584 6.595-4.671 3.643-10.27 8.8-2.442 2.248-5.77 3.277-9.05 3.787-5.325.83-10.592.818-15.626 2.98C6.57 31.896-1.253 38.977.167 48.676c1.762 12.03 15.284 18.833 26.384 15.298 6.313-2.01 11.19-6.78 17.175-9.455 6.897-3.083 14.094-1.974 20.692 1.36 6.456 3.26 13.076 6.302 20.093 8.145 13.519 3.551 31.202 2.574 37.216-12.268 5.34-13.18-2.824-24.362-15.28-28.353-5.661-1.815-11.637-3.033-16.636-6.252-5.419-2.177-7.796-3.394-9.124-4.975-3.366-4.446-3.154-5.158-6.65-8.95-1.716-1.862-4.009-3.1-7.274-3.216z" transform="translate(-202 -541) translate(202 541)"/>
                <g>
                    <path fill="#466EB6" d="M84.982 10.578l-.825.824-.824-.824c-.105-.105-.276-.105-.382 0-.106.106-.106.277 0 .383l.824.824-.824.824c-.106.105-.106.277 0 .382.106.106.277.106.382 0l.824-.824.825.824c.105.106.277.106.382 0 .106-.105.106-.277 0-.382l-.824-.824.824-.824c.106-.106.106-.277 0-.383-.105-.105-.277-.105-.382 0" transform="translate(-202 -541) translate(202 541) translate(16 7)"/>
                    <path fill="#EA6478" d="M38.836 53.609l-.824.824-.824-.824c-.105-.106-.277-.106-.382 0-.106.105-.106.277 0 .382l.824.825-.824.824c-.106.105-.106.277 0 .382.105.106.277.106.382 0l.824-.824.824.824c.106.106.277.106.383 0 .105-.105.105-.277 0-.382l-.824-.824.824-.825c.105-.105.105-.277 0-.382-.106-.106-.277-.106-.383 0" transform="translate(-202 -541) translate(202 541) translate(16 7)"/>
                    <path fill="#74C1BD" fill-rule="nonzero" d="M2.11 24.843l-.824.824-.824-.824c-.106-.106-.277-.106-.383 0-.105.106-.105.277 0 .382l.824.824-.824.825c-.105.105-.105.276 0 .382.106.106.277.106.383 0l.824-.824.824.824c.106.106.277.106.382 0 .106-.106.106-.277 0-.382l-.824-.825.824-.824c.106-.105.106-.277 0-.382-.105-.106-.276-.106-.382 0" transform="translate(-202 -541) translate(202 541) translate(16 7)"/>
                    <path fill="#FEC94F" d="M33.33 4.086l-.824.824-.824-.824c-.106-.106-.277-.106-.383 0-.105.106-.105.277 0 .382l.824.824-.824.825c-.105.105-.105.277 0 .382.106.106.277.106.383 0l.824-.824.824.824c.105.106.277.106.382 0 .106-.105.106-.277 0-.382l-.824-.825.824-.824c.106-.105.106-.276 0-.382-.105-.106-.277-.106-.382 0" transform="translate(-202 -541) translate(202 541) translate(16 7)"/>
                    <path fill="#FFFFFE" d="M9.978 46.997c-.438 0-.794.356-.794.794 0 .438.356.794.794.794.438 0 .794-.356.794-.794 0-.438-.356-.794-.794-.794zm0 2.076c-.707 0-1.282-.575-1.282-1.282 0-.707.575-1.282 1.282-1.282.707 0 1.282.575 1.282 1.282 0 .707-.575 1.282-1.282 1.282zM53.305 1.015c-.438 0-.794.356-.794.794 0 .437.356.794.794.794.438 0 .794-.357.794-.794 0-.438-.356-.794-.794-.794zm0 2.075c-.707 0-1.282-.575-1.282-1.281 0-.707.575-1.282 1.282-1.282.707 0 1.282.575 1.282 1.282 0 .706-.575 1.281-1.282 1.281zM69.278 51.321c-.438 0-.794.356-.794.794 0 .438.356.794.794.794.438 0 .794-.356.794-.794 0-.438-.356-.794-.794-.794zm0 2.076c-.707 0-1.282-.575-1.282-1.282 0-.707.575-1.282 1.282-1.282.707 0 1.282.575 1.282 1.282 0 .707-.575 1.282-1.282 1.282z" transform="translate(-202 -541) translate(202 541) translate(16 7)"/>
                    <path fill="#466EB6" d="M86.115 52.115c0-.197-.16-.356-.356-.356-.197 0-.357.16-.357.356 0 .197.16.356.357.356.196 0 .356-.16.356-.356M88.85 52.115c0-.197-.16-.356-.356-.356-.197 0-.356.16-.356.356 0 .197.159.356.356.356.197 0 .356-.16.356-.356M91.586 52.115c0-.197-.16-.356-.357-.356-.197 0-.356.16-.356.356 0 .197.16.356.356.356.197 0 .357-.16.357-.356M94.32 52.115c0-.197-.159-.356-.355-.356-.197 0-.357.16-.357.356 0 .197.16.356.357.356.196 0 .356-.16.356-.356M97.056 52.115c0-.197-.16-.356-.356-.356-.197 0-.357.16-.357.356 0 .197.16.356.357.356.197 0 .356-.16.356-.356M86.115 54.182c0-.197-.16-.356-.356-.356-.197 0-.357.16-.357.356 0 .197.16.356.357.356.196 0 .356-.159.356-.356M88.85 54.182c0-.197-.16-.356-.356-.356-.197 0-.356.16-.356.356 0 .197.159.356.356.356.197 0 .356-.159.356-.356M91.586 54.182c0-.197-.16-.356-.357-.356-.197 0-.356.16-.356.356 0 .197.16.356.356.356.197 0 .357-.159.357-.356M94.32 54.182c0-.197-.159-.356-.355-.356-.197 0-.357.16-.357.356 0 .197.16.356.357.356.196 0 .356-.159.356-.356M97.056 54.182c0-.197-.16-.356-.356-.356-.197 0-.357.16-.357.356 0 .197.16.356.357.356.197 0 .356-.159.356-.356M86.115 56.25c0-.198-.16-.357-.356-.357-.197 0-.357.16-.357.356 0 .197.16.357.357.357.196 0 .356-.16.356-.357M88.85 56.25c0-.198-.16-.357-.356-.357-.197 0-.356.16-.356.356 0 .197.159.357.356.357.197 0 .356-.16.356-.357M91.586 56.25c0-.198-.16-.357-.357-.357-.197 0-.356.16-.356.356 0 .197.16.357.356.357.197 0 .357-.16.357-.357M94.32 56.25c0-.198-.159-.357-.355-.357-.197 0-.357.16-.357.356 0 .197.16.357.357.357.196 0 .356-.16.356-.357M97.056 56.25c0-.198-.16-.357-.356-.357-.197 0-.357.16-.357.356 0 .197.16.357.357.357.197 0 .356-.16.356-.357M11.225 9.614c.197 0 .356-.16.356-.356 0-.197-.16-.357-.356-.357-.197 0-.357.16-.357.357 0 .196.16.356.357.356M11.225 12.35c.197 0 .356-.16.356-.357 0-.197-.16-.357-.356-.357-.197 0-.357.16-.357.357 0 .197.16.356.357.356M11.225 15.084c.197 0 .356-.16.356-.356 0-.197-.16-.356-.356-.356-.197 0-.357.16-.357.356 0 .197.16.356.357.356M11.225 17.82c.197 0 .356-.16.356-.356 0-.198-.16-.357-.356-.357-.197 0-.357.16-.357.357 0 .196.16.356.357.356M11.225 20.555c.197 0 .356-.16.356-.356 0-.197-.16-.357-.356-.357-.197 0-.357.16-.357.357 0 .196.16.356.357.356M9.158 9.614c.196 0 .356-.16.356-.356 0-.197-.16-.357-.356-.357-.197 0-.357.16-.357.357 0 .196.16.356.357.356M9.158 12.35c.196 0 .356-.16.356-.357 0-.197-.16-.357-.356-.357-.197 0-.357.16-.357.357 0 .197.16.356.357.356M9.158 15.084c.196 0 .356-.16.356-.356 0-.197-.16-.356-.356-.356-.197 0-.357.16-.357.356 0 .197.16.356.357.356M9.158 17.82c.196 0 .356-.16.356-.356 0-.198-.16-.357-.356-.357-.197 0-.357.16-.357.357 0 .196.16.356.357.356M9.158 20.555c.196 0 .356-.16.356-.356 0-.197-.16-.357-.356-.357-.197 0-.357.16-.357.357 0 .196.16.356.357.356M7.09 9.614c.197 0 .357-.16.357-.356 0-.197-.16-.357-.356-.357-.197 0-.357.16-.357.357 0 .196.16.356.357.356M7.09 12.35c.197 0 .357-.16.357-.357 0-.197-.16-.357-.356-.357-.197 0-.357.16-.357.357 0 .197.16.356.357.356M7.09 15.084c.197 0 .357-.16.357-.356 0-.197-.16-.356-.356-.356-.197 0-.357.16-.357.356 0 .197.16.356.357.356M7.09 17.82c.197 0 .357-.16.357-.356 0-.198-.16-.357-.356-.357-.197 0-.357.16-.357.357 0 .196.16.356.357.356M7.09 20.555c.197 0 .357-.16.357-.356 0-.197-.16-.357-.356-.357-.197 0-.357.16-.357.357 0 .196.16.356.357.356" transform="translate(-202 -541) translate(202 541) translate(16 7)"/>
                    <path fill="#B34A4E" d="M35.401 14.254c.045.284.115.997-.13 1.89l-.405.944s-.041 5.548-1.556 8.318c-.472.86-1.494 1.266-2.422.95-.835-.286-1.97-.89-3.214-2.149 0 0 .301-1.14 1.362-1.96.398-.31.903-.572 1.538-.714.211.29.439.598.65.882l.035.008c.031-.146.064-.294.1-.44v-.001c.228-.962.522-1.845.522-1.845.178-.622.388-1.259.611-1.872.14-.393.288-.775.432-1.14l.005-.014c-.194-.093-.386-.196-.545-.297-.404-.256-.554-.878-.765-1.297-.13-.26-.614-.833-.344-1.117.332-.35.621.148.77.394.205.336.368.65.81.618l.01.037c.045.147.204.229.352.177.11-.04.18-.144.18-.257 0-.025-.003-.052-.011-.077-.093-.3-.206-.773-.016-.851l.035-.012c.054.165.119.344.188.507.065.148.241.212.385.136.097-.048.151-.146.151-.247 0-.035-.005-.067-.017-.1-.116-.31-.256-.842.068-.99.035.135.087.286.161.455l.086.167c.035.07.108.111.182.111.035 0 .07-.008.101-.027.086-.05.123-.154.088-.247-.072-.2-.152-.534.066-.658l.28-.486.04.024c.169.097.274.277.27.474-.002.13-.016.289-.05.456-.014.07-.014.18-.003.25" transform="translate(-202 -541) translate(202 541) translate(16 7)"/>
                    <path fill="#B34A4E" d="M34.18 13.736c-.08-.29-.076-.5-.037-.65.012-.041.027-.08.05-.113.115-.189.368-.259.57-.142l.38.22-.28.485c-.217.124-.137.458-.065.658.035.093-.002.196-.088.247-.03.02-.066.027-.1.027-.075 0-.148-.04-.183-.11l-.086-.168c-.074-.169-.126-.32-.161-.454" transform="translate(-202 -541) translate(202 541) translate(16 7)"/>
                    <path fill="#B34A4E" d="M34.192 12.97l.002.003c-.024.033-.04.072-.05.112-.04.152-.044.362.036.65-.324.148-.184.68-.068.99.012.033.017.065.017.1 0 .101-.054.199-.151.247-.144.076-.32.012-.385-.136-.07-.163-.134-.342-.188-.507-.097-.299-.159-.546-.159-.546-.018-.095-.02-.178-.006-.256.093-.577.952-.656.952-.656" transform="translate(-202 -541) translate(202 541) translate(16 7)"/>
                    <path fill="#B34A4E" d="M32.856 15.412c-.129-.435-.266-1.055-.266-1.055-.125-.648.65-.73.65-.73-.013.078-.012.161.006.256 0 0 .062.247.16.546l-.036.012c-.19.078-.077.551.016.85.007.026.011.053.011.078 0 .113-.07.218-.18.257-.148.052-.307-.03-.352-.177l-.01-.037" transform="translate(-202 -541) translate(202 541) translate(16 7)"/>
                    <path fill="#FEC94F" d="M30.574 21.533c-2.329.519-2.9 2.674-2.9 2.674-.42-.423-.85-.922-1.287-1.509-.587.748-1.195 1.558-1.727 2.346-.188.28-.375.567-.555.859l-.064.103c-.412-1.202-1.301-2.253-2.41-2.86-1.105-.603-2.405-.747-3.436-1.494-.338-.245-.621-.505-.856-.789-.447-.538-.727-1.157-.901-1.92-.076-.325-.233-1.067-.206-1.677l.103-.087c.322-.27.662-.542 1.049-.693.438-.17.963-.187 1.427-.253.095-.013.194-.025.295-.036l.097-.01c.004.53.078 1.015.325 1.58.326.75.73 1.412 1.384 1.906 1.27.955 2.767 1.196 4.308.802 1.042-.268 1.986-.804 3.056-.995.222-.038.464-.062.719-.064l.081.097c.377.449.707.94 1.053 1.414.132.181.283.389.445.606" transform="translate(-202 -541) translate(202 541) translate(16 7)"/>
                    <path fill="#0F0D16" d="M28.927 10.72c-.093.26.085.501.072.767-.016.309-.226.443-.402.664-.173.216-.148.552-.295.793-.098.157-.282.345-.476.374-.053.008-.101.008-.15.002-.143-.017-.272-.083-.425-.089-.052-.002-.095.004-.142-.021l-.006-.002c.027-.15.04-.237.04-.237-.034-.703.25-1.39.25-1.39-.36 0-.424-.403-.424-.403-.37-.213-.359-.738-.359-.738-.783.163-1.292-.369-1.292-.369-.407.406-1.26.086-1.26.086-.206.518-.934.522-.934.522.227.554-.305 1.119-.305 1.119l-.066.386s-.445-.186-.693.24c-.012.02-.024.042-.033.063l-.076-.039c-.182.095-.357-.24-.369-.384-.011-.134.006-.276-.029-.408-.039-.15-.128-.29-.183-.435-.09-.254-.075-.468 0-.722.05-.171.113-.311.103-.494-.03-.507.066-.955.433-1.33.21-.212.4-.468.535-.734.114-.23.277-.497.483-.656.186-.144.441-.16.67-.146.204.013.377.148.573.153.346.008.575-.367.942-.295.44.086.73.443 1.212.394.225-.023.47-.083.685.014.196.087.416.214.522.408.107.194.098.338.28.487.195.161.41.18.637.28.323.142.43.353.365.693-.023.123-.046.258-.013.379.035.126.136.225.18.351.095.264.04.465-.05.717" transform="translate(-202 -541) translate(202 541) translate(16 7)"/>
                    <path fill="#88D2D0" fill-rule="nonzero" d="M26.165 39.542c-.14-.583-.39-1.228-.794-1.645-.497-.515-1.091-.781-1.713-1.111-.553-.295-1.142-.562-1.684-.88-.163-.415-.37-.808-.596-1.16-.513-.8-1.202-1.547-1.802-2.29-.262-.325-.577-.688-.752-1.083l.185.094c.575.287 1.113.65 1.588 1.083.28.253.556.5.688.606l.027.022c1.132.88 2.504 1.388 3.8 1.951.99.43 1.968.938 2.708 1.719 1.082 1.142 1.328 2.694.548 4.076-.453.804-1.127 1.435-1.78 2.076-1.776 1.744-3.683 3.362-5.34 5.224l-.072-.077-1.328-1.416c.695-1.293 1.676-2.533 2.732-3.48.69-.622 1.511-1.13 2.13-1.824.37-.413.696-.79.702-1.369 0-.037 0-.074-.002-.113.248-.14.499-.273.755-.403" transform="translate(-202 -541) translate(202 541) translate(16 7)"/>
                    <path fill="#FEC94F" d="M28.995 19.416c-.255.002-.497.026-.719.064-1.07.19-2.014.727-3.056.995-1.54.394-3.038.153-4.308-.802-.654-.494-1.058-1.156-1.384-1.905-.247-.566-.321-1.051-.325-1.581l.097-.01c.402-.04.835-.076 1.247-.148 0 0-.15 1.562 1.126 2.558.53.414 1.195.627 1.867.62.827-.012 2.004-.313 2.606-1.783.225.109.427.208.548.27.446.233.858.48 1.272.765.359.247.668.544.947.862l.082.095" transform="translate(-202 -541) translate(202 541) translate(16 7)"/>
                    <path fill="#B34A4E" d="M27.25 13.231c.154.006.283.072.426.09-.148.81-.705.69-.75.679.086-.328.142-.608.175-.792h.002l.006.002c.047.025.09.02.142.021" transform="translate(-202 -541) translate(202 541) translate(16 7)"/>
                    <path fill="#B34A4E" d="M23.96 12.676c0-.123-.1-.222-.22-.222-.123 0-.222.1-.222.222 0 .12.1.22.222.22.12 0 .22-.1.22-.22zm1.308 2.361c.056-.283.062-.5.062-.5-.633-.368-1.709-.39-1.709-.39-.064.177-.114.339-.153.486-.1.387-.113.684-.078.91.103.665.866.937 1.373.496.293-.256.435-.674.505-1.002zm.81-2.008c0-.12-.1-.22-.22-.22-.122 0-.22.1-.22.22 0 .122.098.221.22.221.12 0 .22-.099.22-.221zm.848.971c-.166.633-.438 1.449-.852 2.107-.24.383-.586.672-.98.84-.461.193-.987.218-1.48.02-.273-.108-.546-.28-.795-.543 0 0 .068 1.08 1.802 1.606-.157.09-.318.147-.471.186-.632.157-1.296-.02-1.807-.42-1.165-.908-.975-1.988-.975-1.988.098-.04.193-.085.28-.136.534-.309.903-2.233.903-2.233-.365-.115-.51-.315-.565-.486-.046-.153-.027-.32.04-.466.01-.021.022-.042.034-.064.248-.425.693-.239.693-.239l.066-.386s.532-.565.305-1.119c0 0 .728-.004.934-.522 0 0 .853.32 1.26-.086 0 0 .51.532 1.292.37 0 0-.012.524.36.737 0 0 .063.402.423.402 0 0-.284.688-.25 1.39 0 0-.013.088-.04.238h-.002c-.033.184-.089.464-.175.792z" transform="translate(-202 -541) translate(202 541) translate(16 7)"/>
                    <path fill="#FCD884" d="M25.478 17.111c.21.095.45.208.668.313-.602 1.47-1.779 1.771-2.606 1.783-.672.007-1.336-.206-1.867-.62-1.276-.996-1.126-2.558-1.126-2.558.291-.05.571-.12.821-.22 0 0-.19 1.079.975 1.988.511.4 1.175.576 1.807.42.153-.04.314-.098.471-.187.315-.173.62-.459.857-.919" transform="translate(-202 -541) translate(202 541) translate(16 7)"/>
                    <path fill="#74C1BD" fill-rule="nonzero" d="M26.165 39.542c-.256.13-.507.264-.755.403-.123.07-.245.14-.367.212-.301.18-.596.371-.884.571v-.002l-.03-.017c-.799-.463-2.285-1.319-2.285-1.319l-.005-.006c.141-.188.258-.404.343-.65.225-.649.208-1.362.04-2.051v-.002c-.063-.264-.147-.522-.248-.775.542.318 1.13.585 1.684.88.622.33 1.216.596 1.713 1.11.404.418.655 1.063.794 1.646" transform="translate(-202 -541) translate(202 541) translate(16 7)"/>
                    <path fill="#0A090B" d="M25.859 12.81c.12 0 .219.099.219.219 0 .122-.1.221-.22.221-.122 0-.22-.099-.22-.221 0-.12.098-.22.22-.22" transform="translate(-202 -541) translate(202 541) translate(16 7)"/>
                    <path fill="#74C1BD" fill-rule="nonzero" d="M25.41 39.945c.002.04.002.076.002.113-.006.579-.332.956-.701 1.37-.62.692-1.441 1.201-2.13 1.823-1.057.947-2.038 2.187-2.733 3.48l-.484-.515-.13-.14c1.002-1.516 2.142-2.94 3.474-4.183.46-.429.944-.815 1.451-1.165.404-.282.822-.542 1.25-.783" transform="translate(-202 -541) translate(202 541) translate(16 7)"/>
                    <path fill="#FFFFFE" d="M25.33 14.536s-.006.218-.062.501h-.002c-.63-.365-1.798-.404-1.798-.404.039-.147.09-.309.153-.485 0 0 1.076.021 1.71.388" transform="translate(-202 -541) translate(202 541) translate(16 7)"/>
                    <path fill="#0F0D16" d="M25.266 15.037h.002c-.07.328-.212.746-.505 1.002-.507.441-1.27.17-1.373-.497-.035-.225-.021-.522.078-.909 0 0 1.169.039 1.798.404" transform="translate(-202 -541) translate(202 541) translate(16 7)"/>
                    <path fill="#0B0D11" d="M25.093 16.946c.097.039.233.097.385.165-.237.46-.542.746-.857.919-1.734-.527-1.802-1.606-1.802-1.606.249.264.522.435.795.543.493.198 1.019.173 1.48-.02" transform="translate(-202 -541) translate(202 541) translate(16 7)"/>
                    <path fill="#0A090B" d="M23.74 12.454c.12 0 .22.1.22.222 0 .12-.1.22-.22.22-.123 0-.222-.1-.222-.22 0-.123.1-.222.222-.222" transform="translate(-202 -541) translate(202 541) translate(16 7)"/>
                    <path fill="#FEC94F" d="M24.04 26.006l-.065.108c-.431.698-.833 1.42-1.19 2.14l-.057.113c-.336-.802-.93-1.484-1.746-1.87-.92-.433-1.882-.408-2.865-.524-.854-.1-1.716-.272-2.266-.882-.134-.148-.25-.322-.342-.528-.13-.292-.18-.59-.221-.89.03-.033.056-.068.084-.1.271-.325.537-.651.792-.985.291-.379.569-.767.83-1.171.1-.154.197-.309.292-.468.02-.03.035-.057.053-.086.235.284.518.544.856.789 1.031.747 2.33.891 3.436 1.495 1.109.606 1.998 1.657 2.41 2.859" transform="translate(-202 -541) translate(202 541) translate(16 7)"/>
                    <path fill="#FEC94F" d="M22.728 28.367l-.056.117v.002c-.377.773-.777 1.633-1.018 2.448l-.04.142-.04.132c-.128-.246-.291-.475-.522-.672-.522-.446-1.167-.82-1.81-1.062-1.297-.491-2.758-.384-4.014-1.008-.43-.213-.8-.47-1.101-.784-.356-.368-.616-.812-.77-1.358-.036-.132-.056-.266-.065-.4l.093-.09c.184-.178.363-.364.53-.559.435-.506.868-1.002 1.288-1.5.029-.034.056-.069.085-.102.04.3.091.598.221.89.092.206.208.38.342.528.55.61 1.412.783 2.266.882.983.116 1.944.09 2.865.524.816.386 1.41 1.068 1.746 1.87" transform="translate(-202 -541) translate(202 541) translate(16 7)"/>
                    <path fill="#88D2D0" fill-rule="nonzero" d="M18.623 36.364v-.002c-.428-.124-.863-.219-1.304-.281.026-.445-.221-1.101-.374-1.426-.387-.819-1.08-1.363-1.874-1.755-.946-.468-2.036-.715-2.634-1.663-.153-.242-.28-.76-.124-1.068v-.002c.94-.402 1.967-.578 2.983-.435.714.103 1.505.35 2.231.865.3.213.606.415.93.586.117.06.241.126.367.19.175.395.49.758.752 1.082.6.744 1.29 1.492 1.802 2.292.225.351.433.744.596 1.159.365.913.52 1.93.208 2.828-.085.246-.202.462-.343.65-.76 1.016-2.234 1.257-3.467 1.26-2.204.008-4.403-.285-6.607-.124-.446.033-.891.082-1.332.154-.025-.041-.049-.082-.07-.123-.377-.683-.423-1.374-.363-1.922.11-.06.225-.113.345-.162.298-.118.595-.232.892-.349.596-.233 1.2-.402 1.841-.447 1.142-.077 2.25.189 3.385.198.713.008 1.58.012 1.96-.726.087-.167.176-.481.2-.779" transform="translate(-202 -541) translate(202 541) translate(16 7)"/>
                    <path fill="#FEC94F" d="M21.285 33.156c-.132-.107-.408-.353-.688-.606-.475-.433-1.013-.796-1.588-1.083l-.185-.094c-.126-.064-.25-.13-.367-.19-.324-.17-.63-.373-.93-.586-.726-.515-1.517-.762-2.231-.865-.587-.083-1.18-.058-1.754.055-.42.081-.833.211-1.23.38v.002l-.098.043c-.439.198-.761.286-.967.326-.111.022-.189.027-.233.03-.02 0-.032-.022-.018-.038 1.095-1.454 1.532-3.915 1.532-3.915.259-.227.517-.452.764-.69.01.133.029.267.066.4.153.545.413.99.769 1.357.3.314.672.57 1.1.784 1.257.624 2.718.517 4.015 1.008.643.243 1.288.616 1.81 1.062.23.197.394.426.522.672-.173.616-.334 1.338-.289 1.948" transform="translate(-202 -541) translate(202 541) translate(16 7)"/>
                    <path fill="#64AFAB" fill-rule="nonzero" d="M21.176 48.147l-.639.705-.128-.092c-.472-.34-.814-.687-1.06-.996l.015-.012c.14-.341.301-.683.484-1.021l1.328 1.416" transform="translate(-202 -541) translate(202 541) translate(16 7)"/>
                    <path fill="#B34A4E" d="M20.41 48.76l-.632.996s-1.239.115-1.63-1.215c0 0-.209-.37-.213-1.066l.915-.529c.083.195.237.486.499.818.246.309.588.656 1.06.996" transform="translate(-202 -541) translate(202 541) translate(16 7)"/>
                    <path fill="#0B0C12" d="M19.778 49.756c.856.496.39 1.102.39 1.102-.36.877-.685 1.821-.876 2.4-.116.35-.141.72-.085 1.084.117.734.115 1.202.076 1.497-.008.058-.025.11-.053.157-.42-.293-.747-.81-1.008-1.196-.35-.515-.592-1.072-.893-1.616-.363-.658-.608-1.272-.767-2.012-.167-.77-.148-1.57-.295-2.346-.064-.34-.19-.687-.334-1-.01-.023-.033-.064-.062-.114l1.707-.503c.176-.053.357.08.357.266.004.697.214 1.066.214 1.066.39 1.33 1.629 1.215 1.629 1.215" transform="translate(-202 -541) translate(202 541) translate(16 7)"/>
                    <path fill="#64AFAB" fill-rule="nonzero" d="M19.364 46.216l.484.515c-.183.338-.344.68-.484 1.021l-.015.012c-.262-.332-.416-.623-.5-.818-.071-.167-.094-.266-.094-.266l.61-.464" transform="translate(-202 -541) translate(202 541) translate(16 7)"/>
                    <path fill="#FFFFFE" d="M18.222 54.8c.26.386.589.903 1.008 1.196-.122.218-.42.3-.639.138-.427-.312-.953-.944-1.338-1.443-.332-.429-.615-.891-.85-1.38-.24-.496-.523-1.092-.68-1.424-.082-.17-.169-.332-.26-.495-.406-.74-.75-1.573-.987-2.199-.196-.52.093-1.097.626-1.254l.769-.227c.029.05.052.091.062.114.143.313.27.66.334 1 .147.775.128 1.575.295 2.346.16.74.404 1.354.767 2.012.301.544.544 1.101.893 1.616" transform="translate(-202 -541) translate(202 541) translate(16 7)"/>
                    <path fill="#74C1BD" fill-rule="nonzero" d="M17.32 36.08c.44.063.875.158 1.303.282v.002c-.024.298-.113.612-.2.78-.38.737-1.247.733-1.96.725-1.134-.01-2.243-.275-3.385-.198-.64.045-1.245.214-1.841.447-.297.117-.594.231-.892.35-.12.048-.234.1-.345.16.04-.395.14-.718.21-.904.042-.117.074-.18.074-.18.514-.191 1.035-.45 1.553-.646.907-.343 1.837-.656 2.797-.807.174-.028.35-.051.526-.066.732-.066 1.452-.047 2.16.056" transform="translate(-202 -541) translate(202 541) translate(16 7)"/>
                    <path fill="#74C1BD" fill-rule="nonzero" d="M16.945 34.655c.153.325.4.981.374 1.426-.707-.103-1.427-.122-2.16-.056-.176.015-.35.038-.525.066v-.002c-.268-.024-.744-.28-1.03-.422-.73-.365-1.35-.775-1.85-1.437-.434-.573-.659-1.256-.7-1.973-.033-.575.245-1.13.198-1.69l-.005-.029c.206-.04.528-.128.967-.326.033-.015.066-.03.099-.043-.156.307-.03.826.124 1.068.598.948 1.688 1.195 2.634 1.663.794.392 1.487.936 1.874 1.755" transform="translate(-202 -541) translate(202 541) translate(16 7)"/>
                    <path fill="#FEC94F" d="M16.438 18.943c.174.763.454 1.382.9 1.92-.358.608-.753 1.177-1.174 1.725-1.936-.713-2.465-2.451-2.465-2.451.707-.989 1.463-1.985 2.383-2.746.049-.04.1-.082.15-.125-.027.61.13 1.352.206 1.677" transform="translate(-202 -541) translate(202 541) translate(16 7)"/>
                    <path fill="#B34A4E" d="M16.164 22.588c-.222.29-.449.573-.684.854-.062.078-.128.154-.192.231l-.231.274c-.373.441-.758.88-1.142 1.328-.196.228-.406.443-.623.65-.247.238-.505.463-.764.69-.59.513-1.186 1.018-1.687 1.618-.7.843-1.278 1.589-1.734 2.595-.173.382-.406.736-.618 1.095-.155.264-.223.571-.192.878l.046.476c.012.12.014.184.01.248l-.046.789c-.008.122-.101.22-.222.235l-.03.001c-.114 0-.215-.077-.244-.19l-.217-.86c-.025-.105-.11-.184-.218-.206-.017-.004-.035-.004-.05-.004-.097 0-.19.05-.241.134l-.188.23c-.125.153-.193.343-.193.541l.132.952c0 .151-.112.277-.262.297l-.037.002c-.126 0-.242-.078-.285-.202-.053-.156-.179-.55-.259-.804-.046-.15-.052-.309-.013-.462.056-.224.138-.55.18-.707.016-.06-.048-.11-.102-.082l-.078.039c-.128.064-.227.177-.272.313l-.058.17c-.035.107-.05.218-.047.329l.035 1.048c.006.165-.12.303-.283.315h-.02c-.151 0-.28-.109-.303-.26l-.136-.956c-.02-.13-.008-.264.033-.388l.237-.722.42-.634c.085-.13 0-.304-.156-.316h-.015c-.049 0-.095.017-.13.048l-.194.162c-.146.122-.253.283-.307.466l-.228.767c-.019.066-.029.134-.029.202v.054c0 .13-.105.235-.235.235-.124 0-.227-.097-.233-.221l-.017-.325c-.008-.124.006-.248.037-.369l.151-.582c.033-.128.1-.245.189-.34.186-.198.565-.52 1.21-.755 0 0 1.153-.474 1.32-.738.17-.274.344-.566.517-.832.1-.155.244-.421.322-.59.573-1.221 1.286-2.26 2.004-3.4.61-.97 1.27-1.906 1.962-2.816.477-.63.8-1.348 1.258-1.987.227-.317.454-.643.687-.969 0 0 .529 1.738 2.465 2.45" transform="translate(-202 -541) translate(202 541) translate(16 7)"/>
                    <path fill="#64AFAB" fill-rule="nonzero" d="M9.3 37.957l.91-.233c-.07.186-.17.509-.21.905-.402.21-.734.49-1.055.821-.005-.646.208-1.182.305-1.394h.002c.03-.064.049-.1.049-.1" transform="translate(-202 -541) translate(202 541) translate(16 7)"/>
                    <path fill="#64AFAB" fill-rule="nonzero" d="M10 38.629c-.06.548-.014 1.239.363 1.922-.188.11-1.014.282-1.014.282-.299-.468-.4-.95-.404-1.383.32-.332.653-.611 1.055-.821" transform="translate(-202 -541) translate(202 541) translate(16 7)"/>
                    <path fill="#B34A4E" d="M8.945 39.45c.004.433.105.915.404 1.383l-1.738.713H7.61c-.01-.053-.023-.11-.04-.17 0 0-.981-.764-.352-2 0 0 .099-.413.575-.924l1.458-.396c-.097.212-.31.748-.305 1.394" transform="translate(-202 -541) translate(202 541) translate(16 7)"/>
                    <path fill="#0B0C12" d="M7.712 38.015c.165.084.206.303.08.437-.476.51-.575.924-.575.924-.63 1.236.352 2 .352 2 .017.06.03.117.04.17.154.796-.51.9-.51.9-.865.393-1.746.86-2.282 1.149-.325.176-.599.429-.806.732-.418.613-.74.953-.971 1.142-.045.036-.093.062-.144.08-.105-.502.01-1.102.083-1.562.101-.616.303-1.189.459-1.789.186-.73.427-1.344.82-1.992.405-.676.966-1.245 1.392-1.911.186-.292.332-.631.442-.958.008-.023.02-.07.032-.126l1.588.804" transform="translate(-202 -541) translate(202 541) translate(16 7)"/>
                    <path fill="#FFFFFE" d="M5.409 36.85l.715.361c-.012.056-.024.103-.032.126-.11.327-.256.666-.442.958-.426.666-.987 1.235-1.393 1.91-.392.65-.633 1.263-.82 1.993-.155.6-.357 1.173-.458 1.789-.073.46-.188 1.06-.083 1.561-.239.076-.51-.068-.561-.338-.097-.52-.049-1.34.013-1.967.053-.542.164-1.072.327-1.59l.48-1.502c.058-.178.104-.357.153-.538.21-.817.528-1.66.786-2.278.214-.514.82-.736 1.315-.485" transform="translate(-202 -541) translate(202 541) translate(16 7)"/>
                    <path fill="#0A090B" d="M24.66 25.044c.386-.707.85-1.365 1.337-2.003l.371-.47c.12-.155.229-.321.341-.486.22-.333.437-.672.684-.99-.183.357-.354.72-.555 1.07-.098.175-.205.347-.322.515l-.365.48c-.49.632-.979 1.264-1.49 1.884M32.675 14.722c.105.219.184.442.26.667l.002.011c.024.103.134.167.229.141.096-.023.16-.127.132-.228-.04-.147-.07-.298-.079-.453-.003-.077-.003-.156.014-.235.013-.075.058-.166.137-.184-.063.047-.067.122-.064.19.004.071.018.142.035.212.035.14.08.279.13.417.073.189-.057.43-.261.467-.098.023-.206.003-.287-.056-.083-.058-.134-.149-.148-.248l.002.012c-.045-.236-.087-.472-.102-.713" transform="translate(-202 -541) translate(202 541) translate(16 7)"/>
                    <path fill="#0A090B" d="M33.24 13.627c-.001.07.008.138.023.203.014.064.05.129.073.192.05.129.097.257.141.386.057.125.106.251.158.377l.037.095c.013.034.021.045.037.064.03.034.074.057.118.061.09.014.188-.05.206-.14.006-.023.008-.047.006-.071-.002-.023-.01-.047-.023-.084-.022-.067-.041-.136-.055-.206-.03-.14-.047-.285-.027-.432.017-.143.104-.3.246-.337l.004-.001-.004.003c-.119.08-.161.211-.15.341.003.13.038.26.078.386.02.064.044.126.069.189.01.028.03.068.037.114.008.044.008.09 0 .135-.034.186-.223.321-.41.296-.093-.012-.18-.06-.239-.13-.029-.033-.055-.083-.065-.115l-.035-.099c-.044-.133-.09-.265-.13-.4-.034-.136-.063-.273-.091-.409-.028-.133-.053-.284-.004-.418" transform="translate(-202 -541) translate(202 541) translate(16 7)"/>
                    <path fill="#0A090B" d="M34.864 13.536c-.094.077-.11.193-.094.299.013.107.05.213.092.315.029.053.044.154.011.227-.031.078-.09.138-.174.17-.082.027-.17.016-.244-.027-.037-.02-.07-.05-.094-.086-.027-.041-.033-.06-.049-.088-.111-.212-.186-.44-.227-.677-.02-.119-.028-.241-.016-.362.016-.118.04-.246.125-.334-.045.108-.04.224-.03.335.01.11.037.22.069.327.067.214.145.428.253.625.03.062.036.08.066.097.026.018.062.021.091.015.062-.02.108-.083.077-.172-.033-.117-.054-.24-.045-.364.007-.122.07-.263.189-.3" transform="translate(-202 -541) translate(202 541) translate(16 7)"/>
                    <path fill="#74C1BD" fill-rule="nonzero" d="M17.32 36.13h-.003c-.027-.002-.048-.025-.046-.052.025-.436-.221-1.087-.37-1.402-.339-.718-.944-1.284-1.852-1.733-.223-.11-.458-.21-.685-.306-.74-.313-1.504-.638-1.968-1.374-.157-.248-.292-.788-.127-1.116.013-.023.042-.033.066-.021s.033.041.021.065c-.144.285-.026.786.122 1.02.449.71 1.165 1.015 1.924 1.336.228.098.465.198.69.31.928.457 1.548 1.04 1.896 1.778.154.323.406.993.38 1.448-.002.026-.023.046-.049.046M10 38.678c-.017 0-.034-.01-.043-.026-.013-.023-.004-.053.02-.066.105-.057.22-.11.35-.163l.607-.239.285-.111c.681-.266 1.27-.41 1.856-.45.658-.045 1.314.025 1.948.092.471.05.958.102 1.44.106.69.008 1.548.017 1.916-.7.077-.146.17-.447.195-.76.002-.027.025-.048.052-.045.027.002.047.026.045.052-.022.28-.107.608-.206.798-.395.77-1.285.76-2.003.752-.487-.004-.976-.056-1.449-.106-.63-.067-1.281-.136-1.932-.092-.574.04-1.155.18-1.826.443l-.286.112c-.202.078-.403.157-.605.238-.128.051-.24.103-.34.158l-.024.007M26.165 39.59c-.022 0-.042-.015-.047-.037-.118-.494-.35-1.176-.782-1.623-.42-.435-.913-.69-1.435-.962l-.266-.14c-.21-.111-.428-.221-.64-.327-.348-.175-.708-.355-1.045-.553-.023-.014-.03-.044-.017-.067.013-.023.043-.03.066-.017.334.197.693.376 1.04.55.212.107.431.216.642.329l.265.139c.529.275 1.028.534 1.46.98.447.463.685 1.163.806 1.668.007.026-.01.052-.036.059l-.01.001M19.848 46.78l-.023-.006c-.024-.013-.033-.043-.02-.066.692-1.286 1.666-2.527 2.743-3.493.268-.242.56-.47.842-.69.446-.348.907-.708 1.285-1.13.35-.394.682-.766.688-1.338 0-.035 0-.071-.002-.11 0-.026.02-.049.046-.05.027 0 .05.02.051.046.002.04.002.078.002.115-.006.609-.365 1.012-.713 1.402-.383.428-.848.79-1.297 1.141-.281.22-.572.447-.837.686-1.07.959-2.036 2.19-2.722 3.467-.009.016-.026.025-.043.025" transform="translate(-202 -541) translate(202 541) translate(16 7)"/>
                    <path fill="#0A090B" d="M23.19 11.941c.05-.105.131-.19.225-.257.094-.068.206-.113.323-.136.117-.021.241-.016.353.023.114.033.212.103.288.188-.116-.014-.216-.037-.317-.039-.1-.005-.195-.001-.29.019-.192.032-.375.11-.582.202M25.686 11.825c.114-.036.235-.036.352-.015.118.02.232.067.335.133.102.067.19.157.25.264.065.103.093.225.094.342-.078-.091-.138-.179-.215-.251-.073-.074-.15-.14-.236-.193-.17-.115-.362-.193-.58-.28M24.245 13.557c.14.087.245.136.355.145.055.006.114.001.18-.006.065-.008.134-.023.218-.03-.038.073-.095.132-.167.173-.072.042-.16.062-.25.056-.09-.01-.177-.052-.237-.114-.06-.061-.098-.14-.1-.224" transform="translate(-202 -541) translate(202 541) translate(16 7)"/>
                    <path fill="#8E3235" d="M31.358 21.984l-.213 1.085c-.872.206-1.67-.394-2.11-.821.399-.31.904-.573 1.539-.715.211.29.439.598.65.882l.035.008c.031-.146.064-.294.1-.44" transform="translate(-202 -541) translate(202 541) translate(16 7)"/>
                    <path fill="#0A090B" d="M31.09 23.716c-.035-.307-.018-.62.022-.926.037-.307.1-.609.171-.909.149-.597.336-1.184.598-1.744-.116.606-.267 1.197-.41 1.79-.073.296-.143.592-.21.889-.064.298-.131.594-.17.9" transform="translate(-202 -541) translate(202 541) translate(16 7)"/>
                    <path fill="#8E3235" d="M33.267 17.27s-.22.907-.775.995c.14-.393.288-.775.432-1.14.093.021.207.066.343.145" transform="translate(-202 -541) translate(202 541) translate(16 7)"/>
                    <path fill="#0A090B" d="M33.413 17.335c-.143-.022-.28-.062-.415-.109-.136-.04-.26-.114-.388-.178l-.185-.107c-.058-.036-.125-.074-.178-.133-.107-.11-.178-.243-.214-.384.106.1.204.196.312.268.027.017.054.033.082.048l.094.044.184.095c.122.065.236.142.358.211.12.071.238.149.35.245M13.912 36.234c.247-.07.497-.133.749-.195.254-.04.51-.088.768-.11.515-.049 1.036-.04 1.552.012.515.057 1.027.155 1.521.31.494.168.969.358 1.427.597-.243-.084-.486-.163-.733-.236-.243-.074-.49-.16-.733-.217-.496-.119-.996-.21-1.502-.261-.505-.056-1.014-.07-1.523-.056-.256.004-.509.034-.763.055-.254.03-.506.073-.763.101" transform="translate(-202 -541) translate(202 541) translate(16 7)"/>
                    <path fill="#74C1BD" fill-rule="nonzero" d="M25.043 40.157l-.915.552c-.798-.463-2.284-1.319-2.284-1.319l-.005-.006c.141-.188.258-.404.343-.65.225-.649.208-1.362.04-2.051 0 0 1.95 1.746 2.82 3.474" transform="translate(-202 -541) translate(202 541) translate(16 7)"/>
                    <path fill="#0A090B" d="M22.708 41.893c.287-.322.606-.614.94-.887.335-.275.69-.521 1.054-.753.184-.114.37-.224.559-.329.19-.101.382-.199.577-.292.383-.198.788-.349 1.19-.502-.185.112-.374.213-.56.32l-.284.151-.277.163c-.37.215-.743.422-1.102.653-.362.225-.716.464-1.067.707-.35.245-.688.506-1.03.77M18.824 31.373c.201.393.498.717.785 1.048l.861.994c.572.664 1.117 1.376 1.484 2.19.177.408.32.833.402 1.272.08.438.11.893.03 1.337-.077.44-.242.874-.528 1.222-.284.347-.661.604-1.068.767.388-.202.744-.472.993-.825.258-.345.399-.763.456-1.187.109-.854-.106-1.722-.463-2.506-.34-.797-.875-1.493-1.42-2.175-.272-.343-.552-.682-.82-1.03-.261-.348-.55-.695-.712-1.107" transform="translate(-202 -541) translate(202 541) translate(16 7)"/>
                    <path fill="#CE9F33" d="M15.851 25.091c-.57.86-1.237 1.697-1.724 2.59-.232.428-.422.869-.542 1.33-.05.191-.04.48-.043.776-.42.081-.833.211-1.23.38v.002l-.098.043c-.439.198-.761.286-.967.326-.111.022-.189.027-.233.03-.02 0-.032-.022-.018-.038 1.095-1.454 1.532-3.915 1.532-3.915.259-.227.517-.452.764-.69l.093-.09c.184-.179.363-.365.53-.56.435-.506.868-1.002 1.288-1.5.029-.034.056-.069.085-.102.03-.033.056-.068.084-.1.271-.325.537-.651.792-.985.291-.379.569-.767.83-1.171.19 1.386-.395 2.551-1.143 3.674" transform="translate(-202 -541) translate(202 541) translate(16 7)"/>
                    <path fill="#E9AE32" d="M21.023 26.41c-.723-.34-1.482-.406-2.216-.468-.223-.02-.45-.04-.678-.066-.983-.115-2.07-.323-2.53-1.352-.128-.288-.177-.585-.216-.864l-.011-.088c-.028.033-.055.068-.084.101l-.085.101c.04.268.093.55.217.828.503 1.122 1.65 1.345 2.686 1.468.229.027.458.046.685.066.75.064 1.459.124 2.15.448.752.358 1.356 1.004 1.698 1.82.011.027.023.052.033.08l.056-.117.056-.112c-.367-.828-.988-1.48-1.761-1.845zm.654-3.349c-.483-.264-1.008-.442-1.515-.615-.656-.225-1.336-.457-1.91-.872-.334-.243-.608-.495-.84-.773-.423-.51-.702-1.109-.88-1.88-.106-.454-.226-1.11-.203-1.65l.006-.092-.103.087-.1.084c-.009.542.108 1.171.21 1.614.185.802.478 1.425.923 1.961l.021.024c.233.28.513.538.853.78.598.435 1.291.672 1.961.9.5.17 1.016.347 1.484.604 1.097.6 1.96 1.621 2.365 2.804.01.025.018.052.026.077l.066-.108.064-.103c-.427-1.199-1.311-2.23-2.428-2.842zm7.318-3.645l-.082-.095c-.223.006-.44.025-.654.064-.612.11-1.187.33-1.744.546-.427.163-.87.334-1.319.45-1.553.397-3.014.125-4.226-.786-.557-.42-.975-.996-1.353-1.866-.218-.497-.313-.96-.317-1.542v-.01l-.097.01-.097.01c.006.607.107 1.087.332 1.61.394.902.83 1.503 1.416 1.943.883.665 1.895 1.002 2.975 1.002.46 0 .934-.06 1.414-.184.462-.118.909-.29 1.342-.456.547-.212 1.115-.43 1.709-.536.225-.04.462-.06.703-.063h.08l-.082-.097zm-7.879 11.047c-.52-.445-1.173-.828-1.84-1.08-.593-.224-1.224-.326-1.836-.426-.732-.118-1.492-.242-2.17-.578-.978-.488-1.557-1.148-1.82-2.08-.03-.115-.051-.239-.061-.38-.002-.028-.004-.055-.004-.084l-.093.09c.01.133.029.267.066.4.285 1.013.938 1.677 1.87 2.141 1.256.624 2.717.517 4.014 1.008.643.243 1.288.616 1.81 1.062.23.197.394.426.522.672l.04-.132c-.139-.246-.304-.448-.498-.613z" transform="translate(-202 -541) translate(202 541) translate(16 7)"/>
                    <path fill="#8E3235" d="M16.164 22.588c-.222.29-.449.573-.684.854-.062.078-.128.154-.192.231l-.231.274c-1.589-1.798-1.358-3.81-1.358-3.81s.529 1.738 2.465 2.45" transform="translate(-202 -541) translate(202 541) translate(16 7)"/>
                    <path fill="#0A090B" d="M15.67 23.212c.328-.586.7-1.138 1.082-1.685.194-.271.388-.542.59-.807.198-.268.41-.525.611-.793-.136.308-.31.596-.487.879-.176.284-.364.56-.555.833-.387.543-.79 1.076-1.24 1.573" transform="translate(-202 -541) translate(202 541) translate(16 7)"/>
                    <path fill="#EFA579" d="M51.936 16.725c-.788.376-1.913.856-3.15 1.196l-.011-.045c0-1.713-.83-2.553-.83-2.553v-.002c.138-.031.282-.066.424-.11 0 0 .602-.22 1.421-.21h.012c.08-.908-.033-1.805-.223-2.607-.243-1.027-.614-1.895-.87-2.424-.167-.347-.286-.547-.286-.547l-.014-.008c-.687-.402-.9-1.03-.967-1.32-.027-.117-.087-.222-.17-.306l-.27-.273c-.047-.047-.068-.105-.068-.165 0-.059.019-.115.062-.16.073-.081.194-.099.29-.044l.364.21.053.011c-.008.043-.016.09-.022.138v.15c0 .244.19.446.433.46l.043.002.056-.006c.012.134.115.244.251.258l.037.002c.138 0 .258-.101.28-.243l.071-.468h.002c.004-.128.031-.254.086-.373.087-.194.198-.273.31-.289.078-.014.156.006.228.039.196.091.33.28.378.49.072.308.171.86.094 1.304 0 0 1.81 3.987 2.676 6.09.285.688-.018 1.48-.69 1.803" transform="translate(-202 -541) translate(202 541) translate(16 7)"/>
                    <path fill="#FFFFFE" d="M50.039 58.066s.12.567-.286.567c0 0-2.087.59-3.952-1.135 0 0-.973-.973-1.643-1.195 0 0-.289-.091-.553-.276-.354-.248-.453-.732-.231-1.105l.068-.114c.594.204 1.243.654 1.676.977.763.565 1.338 1.365 2.21 1.784.514.247 1.062.418 1.635.418.34 0 .63-.047.903-.13.06.074.116.143.173.21" transform="translate(-202 -541) translate(202 541) translate(16 7)"/>
                    <path fill="#EFA579" d="M49.243 6.962L49.25 7c-.112.016-.223.095-.31.29-.055.118-.082.244-.086.372h-.002l-.072.468c-.02.142-.141.243-.28.243l-.036-.002c-.136-.014-.239-.124-.25-.258-.003-.02-.003-.04 0-.062l.042-.327c.082-.528.266-.747.455-.825.264-.107.532.064.532.064" transform="translate(-202 -541) translate(202 541) translate(16 7)"/>
                    <path fill="#212121" d="M49.866 57.857c-.274.083-.563.13-.903.13-.573 0-1.12-.171-1.635-.418-.872-.42-1.447-1.22-2.21-1.784-.433-.323-1.082-.773-1.676-.977.266-.443.703-1.13 1.122-1.628 0 0-.182 1.434 1.501 1.636 0 0 .867-.074 1.183-.682 0 0 1.589 2.445 2.618 3.723" transform="translate(-202 -541) translate(202 541) translate(16 7)"/>
                    <path fill="#88D2D0" fill-rule="nonzero" d="M47.227 19.574c.691 1.24.048 1.934.048 1.934-.13.212-.332.324-.553.377l.008.033-.474 2.179c-.035.165-.074.326-.117.487-.359 1.389-.623 6.06-.623 6.06-.058-.036-.122-.061-.192-.079-.498-.135-1.21.078-1.21.078-.117.04-.227.07-.332.095-1.125.268-1.633-.19-1.633-.19-.52-.386-1.115-.649-1.66-.827-.96-.313-1.772-.361-1.772-.361 1.6-2.99 1.303-5.36 1.286-5.479v-.004c-.589-1.212-1.222-2.262-1.438-2.612l-.064-.105c-.314.286-.648.577-.963.845-1.688-.392-1.858-1.703-1.858-1.703l1.691-2.074.443-.542c.903-1.26 2.777-2.295 2.777-2.295l.04.159c.05.2.191.361.377.446.24.11.599.333 1.006.785 0 0 1.859 2.02 2.791 1.482 0 0 .732-.358-.392-1.841-.274-.36-.509-.746-.684-1.164-.035-.081-.07-.168-.107-.258-.04-.099-.08-.202-.118-.307 0 0 1.835.554 2.975.729.214.033.404.052.552.052 0 0 .425-.043.914-.153v.002s.707.716.814 2.177c.012.12.016.246.016.376l.011.045c-.664.183-1.361.324-2.052.387l-.107.01c.08.186.153.36.217.506.113.258.245.505.383.75" transform="translate(-202 -541) translate(202 541) translate(16 7)"/>
                    <path fill="#EFA579" d="M48.708 6.879l.003.02c-.189.077-.373.296-.455.824l-.043.327c-.002.021-.002.042 0 .062l-.056.006-.043-.002c-.242-.014-.433-.216-.433-.46v-.15c.006-.049.014-.095.022-.138h.002c.19-.928 1.003-.49 1.003-.49" transform="translate(-202 -541) translate(202 541) translate(16 7)"/>
                    <path fill="#466EB6" d="M47.555 43.32c-.217 2.042-.606 5.829-.792 8.78 0 0-1.27.66-2.102-.17 0 0-.196-1.32-.367-2.055-.17-.732-.586-2.81-.318-4.791 0 0 .046-1.66-.17-2.763-.007-.041-.017-.082-.024-.12-.35-.77-.787-1.617-1.257-2.471-1.34-2.431-2.938-4.908-3.472-5.723v-.002l-.185-.278c-1.833-3.024-.151-4.367-.151-4.367s.76.044 1.68.332c.569.176 1.2.448 1.752.856 0 0 .508.458 1.633.19 0 0 .19.612.485 1.529v.002c.664 2.056 1.857 5.647 2.626 7.348.112.253.213.511.307.771l.021.064c.324.919.439 1.9.334 2.869" transform="translate(-202 -541) translate(202 541) translate(16 7)"/>
                    <path fill="#EFA579" d="M46.763 52.1l.485 2.034c-.316.608-1.183.682-1.183.682-1.683-.202-1.5-1.636-1.5-1.636l.096-1.25c.832.83 2.102.17 2.102.17" transform="translate(-202 -541) translate(202 541) translate(16 7)"/>
                    <path fill="#943535" d="M46.864 12.633c.17.215.225.476.095.732-.092.179-.348.297-.383.495-.029.154.132.336.177.503.097.36.064.831-.274 1.059-1.14-.175-2.975-.729-2.975-.729-.115-.308-.218-.625-.276-.899.293-.454.3-1.099.255-1.623-.064-.713-.301-1.488-.622-2.129-.2-.402-.487-.874-.919-1.049l-.071.115c-.134.24-.738-.012-.923-.146-.27.478-.561.655-1.12.688-.022.38-.055.792-.375 1.05-.198.158-.233.104-.198.329.027.165.138.31.112.495-.058.417-.417.408-.668.64-.246.23-.316.754-.002.96.259.167.653.033.768-.246l.044-.026c.305.534.808 1.513 1.082 2.539 0 0-1.874 1.035-2.777 2.295l-.443.542-.014-.012c-.174.161-.506.105-.712-.004-.352-.186-.327-.472-.363-.784-.026-.212-.177-.313-.259-.55-.066-.194-.068-.384-.029-.583.023-.114.126-.283.124-.396-.003-.244-.485-.52-.621-.75-.361-.61-.091-1.126.258-1.63.183-.267.035-.329-.143-.573-.399-.54-.303-1.127.122-1.605.126-.143.223-.207.278-.38.128-.406.064-.84.237-1.243.236-.555.656-.864 1.2-.987.192-.505.98-.975 1.495-1.029.167-.02.334.066.497.03.227-.055.43-.337.647-.453.377-.2.757-.185 1.144-.027.322.132.396.435.658.594.231.14.606-.078.864-.117.496-.073 1.012.23 1.303.626.171.233.144.29.39.357.399.105.679.198.82.627.07.206.092.69.23.833.04.043.172.047.229.084.124.08.233.225.31.347.163.255.241.542.278.84.022.186-.07.49.01.658.09.19.4.355.54.532" transform="translate(-202 -541) translate(202 541) translate(16 7)"/>
                    <path fill="#355389" d="M45.324 30.565l-1.057 1.702c-.295-.917-.485-1.529-.485-1.529.105-.025.215-.056.332-.095 0 0 .712-.213 1.21-.078" transform="translate(-202 -541) translate(202 541) translate(16 7)"/>
                    <path fill="#EFA579" d="M40.54 11.687c.107-.033.166-.145.134-.25-.033-.107-.145-.167-.252-.134-.107.033-.165.145-.132.252.031.105.144.165.25.132zm1.851-.569c.107-.033.165-.146.134-.252-.033-.105-.145-.165-.252-.132-.107.033-.165.145-.132.25.03.107.143.167.25.134zm-2.882 1.734l-.044.026c-.115.28-.51.413-.768.246-.314-.206-.244-.73.002-.96.25-.232.61-.223.668-.64.026-.185-.085-.33-.112-.495-.035-.225 0-.171.198-.328.32-.259.353-.67.375-1.051.559-.033.85-.21 1.12-.688.185.134.789.385.923.146l.071-.115c.432.175.719.647.92 1.05.32.64.557 1.415.62 2.128.045.524.04 1.169-.254 1.623-.044.07-.095.136-.155.196-.26.264-.52.397-.884.463-.324.06-.714.066-.99-.132.044.071.998 1.5 2.423.68.037.089.072.176.107.257.175.418.41.805.684 1.164 1.124 1.483.392 1.84.392 1.84-.932.539-2.79-1.481-2.79-1.481-.408-.452-.768-.676-1.007-.785-.186-.085-.328-.246-.376-.446l-.041-.16c-.274-1.025-.777-2.004-1.082-2.538z" transform="translate(-202 -541) translate(202 541) translate(16 7)"/>
                    <path fill="#0B0D11" d="M43.504 14.693c.039.105.078.208.118.307-1.425.822-2.379-.608-2.423-.68.276.199.666.193.99.133.363-.066.624-.199.884-.463.06-.06.11-.126.155-.196.058.274.161.59.276.9" transform="translate(-202 -541) translate(202 541) translate(16 7)"/>
                    <path fill="#0A090B" d="M42.525 10.866c.031.106-.027.22-.134.252-.107.033-.22-.027-.25-.134-.033-.105.025-.217.132-.25.107-.033.22.027.252.132" transform="translate(-202 -541) translate(202 541) translate(16 7)"/>
                    <path fill="#466EB6" d="M42.525 39.73l-1.183 2.775c-.128.3-.343.552-.62.724-.607.381-1.391.31-1.922-.175l-6.958-6.363s.394-1.241 1.789-1.698l1.415 1.092c.208.16.432.305.665.427.621.326 2.025 1.157 2.845 2.395l.09.137c.05-.244.083-.49.1-.74l.307-4.297c.278.423.84 1.293 1.507 2.373v.002c.618.998 1.32 2.179 1.965 3.348" transform="translate(-202 -541) translate(202 541) translate(16 7)"/>
                    <path fill="#0A090B" d="M40.674 11.437c.032.105-.027.217-.133.25-.107.033-.22-.027-.251-.132-.033-.107.025-.22.132-.252.107-.033.22.027.252.134" transform="translate(-202 -541) translate(202 541) translate(16 7)"/>
                    <path fill="#EFA579" d="M37.538 22.005c-.307.26-.596.5-.827.68l-.08.062c-.274.213-.513.468-.703.757l-.584.888c-.144.22-.319.417-.52.586l-4.405 3.716-.086.09c-.142.146-.23.335-.256.539-.053.44-.276.842-.62 1.122l-.36.293-.71.523.303.318c.045.045.066.103.066.163 0 .053-.017.107-.054.15-.064.076-.17.105-.262.07l-.548-.198c-.282-.101-.513-.303-.652-.565-.094-.173-.115-.375-.064-.563l.201-.758c.057-.21.16-.402.301-.56.14-.159.317-.287.517-.368.555-.32 1.297-1.327 1.297-1.327l4.306-5.282c.062-.076.128-.148.202-.214l.58-.534c.127-.116.245-.242.352-.374l.377-.463.37-.454s.171 1.31 1.859 1.703M32.37 33.842l1.26 1.151c-1.394.457-1.788 1.698-1.788 1.698l-1.293-1.129c.118-2.025 1.821-1.72 1.821-1.72" transform="translate(-202 -541) translate(202 541) translate(16 7)"/>
                    <path fill="#212121" d="M32.37 33.842s-1.703-.305-1.821 1.72c-1.31.177-3.176.834-3.176.834-.215.066-.401.083-.557.073.253-.312.447-.7.75-.969.417-.367.91-.687 1.351-1.03.42-.323.756-.745 1.152-1.1.447-.398 1.138-.69 1.612-1.129.017.022.033.047.047.072.322.61.642 1.529.642 1.529" transform="translate(-202 -541) translate(202 541) translate(16 7)"/>
                    <path fill="#FFFFFE" d="M30.986 32.078c.244-.122.538-.05.695.163-.474.44-1.165.73-1.612 1.129-.396.355-.732.777-1.152 1.1-.44.343-.934.663-1.351 1.03-.303.268-.497.657-.75.97-.412-.03-.615-.25-.615-.25.357-.74 1.425-1.633 2.017-2.09.25-.195.488-.405.715-.626.715-.692 1.552-1.173 2.053-1.426" transform="translate(-202 -541) translate(202 541) translate(16 7)"/>
                    <path fill="#0A090B" d="M40.917 12.909c.34.098.683.144.97.015.141-.063.27-.16.379-.284.057-.06.102-.132.157-.198.047-.072.092-.146.147-.219-.015.088-.037.175-.062.263-.038.08-.068.17-.121.245-.096.16-.248.29-.424.37-.179.078-.38.091-.562.05-.181-.04-.35-.121-.484-.242" transform="translate(-202 -541) translate(202 541) translate(16 7)"/>
                    <path fill="#943535" d="M39.581 11.29c.019-.114.072-.216.14-.306.069-.091.159-.167.26-.225.102-.057.22-.09.337-.091.117-.006.232.031.327.089-.113.021-.212.03-.306.061-.093.029-.182.061-.265.11-.169.092-.32.22-.493.361M41.694 10.367c.054-.098.133-.175.22-.24.088-.065.188-.113.295-.146.109-.027.225-.038.337-.017.113.02.218.077.292.158-.112-.009-.207-.015-.301-.007-.094.011-.184.027-.275.053-.183.051-.361.128-.568.199" transform="translate(-202 -541) translate(202 541) translate(16 7)"/>
                    <path fill="#0A090B" d="M41.242 12.13c.16-.024.285-.03.4-.061.059-.012.11-.035.166-.061.058-.026.11-.067.183-.11-.001.081-.028.164-.086.227-.054.065-.133.111-.215.132-.083.019-.168.018-.245-.004-.077-.022-.15-.06-.203-.123M41.974 21.038c.04.33.097.659.242.939.075.138.166.265.281.369.116.104.243.195.383.237.282.099.604.017.895-.11.146-.065.295-.14.432-.224.14-.082.268-.19.406-.285-.109.127-.222.249-.35.362-.133.108-.27.2-.42.283-.294.161-.664.277-1.024.159-.35-.127-.602-.404-.74-.727-.136-.325-.14-.674-.105-1.003M48.572 6.986c-.127.171-.172.37-.206.569-.015.1-.028.199-.035.304-.008.1-.033.22-.016.276.016.068.072.125.14.14.073.02.148 0 .205-.054.028-.028.046-.063.058-.104l.04-.152c.029-.102.057-.203.094-.304.006.107.002.213 0 .318l-.008.158c-.004.062-.028.127-.067.18-.076.111-.229.163-.36.139-.14-.025-.255-.138-.29-.273-.016-.065-.01-.147-.002-.191l.024-.157c.018-.102.036-.212.07-.315.062-.203.166-.42.353-.534" transform="translate(-202 -541) translate(202 541) translate(16 7)"/>
                    <path fill="#0A090B" d="M49.427 7.52c-.082.061-.1.16-.117.251-.015.094-.018.19-.02.287.001.019.001.06-.01.095-.01.035-.03.067-.055.095-.053.056-.127.084-.203.081-.076-.002-.15-.043-.197-.106-.05-.06-.054-.155-.055-.192-.006-.19-.03-.412.045-.619.035-.102.087-.195.157-.278.07-.08.174-.145.278-.135-.192.075-.247.28-.289.453-.034.18-.008.364.003.568.002.061.002.072.015.092.012.018.033.03.056.034.053.005.096-.017.105-.1.015-.102.04-.203.079-.301.04-.092.102-.202.208-.225M43.782 30.738c.228.489.41.992.576 1.5l.005.027v.004l-.005-.03c.102.299.194.6.28.904.042.152.082.305.12.46.033.154.072.307.099.464-.071-.142-.131-.288-.196-.434-.06-.145-.118-.292-.174-.44-.111-.296-.216-.594-.31-.895l-.001-.001-.004-.028v-.002l.004.029c-.157-.511-.3-1.027-.394-1.558M28.735 30.01c-.142.154-.291.298-.437.447l-.225.216c-.068.07-.166.146-.203.21-.087.142-.018.343.135.393.072.028.152.023.219-.016.027-.016.077-.056.117-.084l.124-.093c.335-.242.674-.486.995-.738.309-.251.528-.615.617-1.022-.003.209-.057.417-.143.613-.09.193-.219.37-.375.52-.158.145-.315.278-.479.408l-.5.375-.126.092c-.045.03-.076.058-.138.094-.114.065-.262.074-.381.02-.119-.05-.216-.157-.25-.28-.038-.125-.013-.263.061-.365.037-.053.088-.091.125-.121l.122-.098.243-.195c.166-.125.329-.255.499-.376M47.942 6.9c-.097.158-.127.319-.151.486-.006.038-.037.067-.075.07h-.013l.086-.072c-.003.045-.007.09-.014.133v-.01c.005.071 0 .154.006.206.008.058.025.117.057.169.03.054.074.1.126.142.054.041.118.068.193.094-.073.023-.158.025-.238 0-.08-.025-.154-.073-.212-.139-.055-.066-.1-.148-.113-.237-.015-.094-.008-.16-.007-.236v-.011c.008-.048.018-.096.029-.143l.002-.01c.01-.04.046-.065.085-.062h.002l-.087.07c.025-.09.06-.18.114-.26.052-.081.124-.152.21-.19" transform="translate(-202 -541) translate(202 541) translate(16 7)"/>
                    <path fill="#355389" d="M43.807 42.32c-.008-.04-.018-.081-.025-.12-.35-.769-.787-1.616-1.257-2.47-1.34-2.431-2.938-4.908-3.472-5.723v-.002l-.185-.278c-1.833-3.024-.151-4.367-.151-4.367s.76.044 1.68.332c-.101.499-.171.992-.08 1.534.163.969.542 1.986.919 2.891.813 1.954 2.206 3.747 2.73 5.817.18.72.326 1.753-.16 2.387" transform="translate(-202 -541) translate(202 541) translate(16 7)"/>
                    <path fill="#355389" d="M40.56 36.38v.002c-.109.386-.286.765-.466 1.138-.171.355-.408.65-.594.994-.243.45-.655.713-.921 1.13-.01-.271-.015-.512-.023-.737l.09.137c.05-.244.083-.49.1-.74l.307-4.297c.278.423.84 1.293 1.507 2.373" transform="translate(-202 -541) translate(202 541) translate(16 7)"/>
                    <path fill="#0A090B" d="M38.78 37.816c.013.314.028.63-.008.946-.035.32-.104.62-.145.929-.05.306-.09.614-.12.922-.027.308-.05.617-.02.93-.105-.298-.134-.622-.132-.937 0-.318.033-.633.08-.945.026-.156.054-.311.087-.465.035-.156.07-.304.1-.456.06-.302.097-.614.159-.924M39.053 34.007c.46.642.9 1.298 1.328 1.96.434.66.843 1.336 1.25 2.013.41.676.79 1.368 1.164 2.065.375.695.714 1.41 1.028 2.136l-.002-.003c.098.177.224.347.365.498.14.153.3.289.475.404-.185-.098-.359-.222-.51-.369-.154-.146-.292-.306-.409-.489l-.002-.003c-.34-.71-.722-1.4-1.097-2.092-.377-.692-.78-1.369-1.171-2.053-.395-.682-.807-1.354-1.206-2.035l-1.213-2.032" transform="translate(-202 -541) translate(202 541) translate(16 7)"/>
                    <path fill="#74C1BD" fill-rule="nonzero" d="M42.836 23.098c-.278.49-1.053.43-1.4.837-.237.276-.266.744-.44 1.07-.63 1.189-.448 2.413-.393 3.737.017.449.087.767-.113.979-.961-.313-1.773-.361-1.773-.361 1.6-2.99 1.303-5.36 1.286-5.479v-.004c-.589-1.212-1.222-2.262-1.438-2.612.298-.544.964-.948 1.315-1.573.278.538.69.989.95 1.544.147.317.24.62.384.93.354.762.833.888 1.622.932" transform="translate(-202 -541) translate(202 541) translate(16 7)"/>
                    <path fill="#0A090B" d="M37.286 22.217c.286-.284.566-.574.86-.846.297-.272.58-.556.87-.831.297-.27.56-.561.792-.883.23-.322.435-.666.573-1.045-.065.4-.231.783-.447 1.13-.212.348-.487.664-.782.937-.296.275-.587.555-.905.804-.312.255-.627.507-.961.734" transform="translate(-202 -541) translate(202 541) translate(16 7)"/>
                    <path fill="#0A090B" d="M38.488 21.14c.16.209.304.427.449.644.14.22.278.443.414.666.263.452.512.913.737 1.386v.001l.01.04v.004l-.01-.042c.172.358.33.723.468 1.097.14.371.262.751.348 1.14-.15-.368-.308-.73-.472-1.088-.168-.358-.34-.712-.514-1.065l-.01-.04v-.006l.01.041c-.234-.464-.468-.928-.71-1.388l-.72-1.39" transform="translate(-202 -541) translate(202 541) translate(16 7)"/>
                    <path fill="#74C1BD" fill-rule="nonzero" d="M48.786 17.921c-.664.183-1.361.324-2.052.387-.059-.057-.096-.121-.138-.208-.136-.286-.27-.57-.459-.907.688.378 1.59.443 2.364.353.087-.01.173-.027.258-.046.012.12.016.246.016.376l.011.045" transform="translate(-202 -541) translate(202 541) translate(16 7)"/>
                    <path fill="#0A090B" d="M45.516 21.8c.155.036.312.06.47.076.156.016.315.016.469-.001.153-.016.306-.05.44-.115.133-.066.243-.167.315-.293l.009-.011c.118-.157.196-.367.222-.573.028-.208.01-.422-.042-.629-.054-.207-.137-.407-.238-.598l-.303-.604c-.2-.404-.346-.827-.507-1.245-.16-.418-.31-.84-.455-1.263.197.404.387.808.567 1.217l.274.61c.095.202.177.412.286.603l.306.59c.112.202.198.419.255.645.11.45.067.969-.252 1.351l.009-.012c-.095.147-.237.261-.394.327-.157.066-.323.09-.486.098-.327.003-.647-.06-.945-.174" transform="translate(-202 -541) translate(202 541) translate(16 7)"/>
                    <path fill="#DD7F50" d="M37.538 22.005c-.307.26-.596.5-.827.68-1.13-.744-1.37-1.505-1.402-1.929l.37-.454s.171 1.31 1.859 1.703M49.215 9.314c-.046.272-.22.563-.507.656-.166-.347-.285-.547-.285-.547l-.014-.008c.286 0 .544-.04.806-.101M50.383 15.004c-.148.062-.375.05-.593-.004h.012c.08-.907-.033-1.804-.223-2.606.446.814.854 1.666.804 2.61" transform="translate(-202 -541) translate(202 541) translate(16 7)"/>
                    <path fill="#0A090B" d="M47.676 15.376c.235-.083.464-.168.693-.244.237-.093.482-.148.73-.185.496-.064 1.014-.042 1.482.137-.496-.027-.977-.01-1.455.055-.239.032-.477.077-.709.136-.245.054-.493.092-.74.101" transform="translate(-202 -541) translate(202 541) translate(16 7)"/>
                    <path fill="#E37961" d="M40.85 12.037c.044.112-.085.268-.289.347-.203.08-.403.054-.447-.059-.044-.112.085-.267.288-.347.203-.08.404-.053.448.059M43.111 11.303c.023.119-.133.248-.348.288-.214.04-.406-.023-.428-.142-.023-.118.133-.247.348-.287.214-.04.406.023.428.141" transform="translate(-202 -541) translate(202 541) translate(16 7)"/>
                    <path fill="#212121" d="M75.196 46.926s.476 2.41.476 3c0 0-.64.296-1.082-.343l-2.167-3.48c.994-.993-.42-3.32-.42-3.32l.705-.38c.21-.113.472-.058.616.133.495.66 1.55 2.27 1.872 4.39" transform="translate(-202 -541) translate(202 541) translate(16 7)"/>
                    <path fill="#F4B879" d="M72.003 42.784s1.414 2.326.42 3.319l-1.311-.688c.14-.064.25-.19.287-.353.07-.307.152-.715.184-1.113.032-.334.028-.662-.038-.918l.458-.247" transform="translate(-202 -541) translate(202 541) translate(16 7)"/>
                    <path fill="#CF7528" d="M63.74 18.394c.005.51-.039 1.097-.173 1.748-.427.169-.88.26-1.344.208-.47-.05-.862-.259-1.284-.453-.31-.142-.598-.28-.922-.307.122-.44.239-.876.346-1.27.108.033.213.08.312.14.536.322.962.497 1.606.412.536-.07 1.037-.212 1.459-.478" transform="translate(-202 -541) translate(202 541) translate(16 7)"/>
                    <path fill="#E7A164" d="M63.74 18.394c-.422.266-.923.408-1.459.478-.644.085-1.07-.09-1.606-.412-.099-.06-.204-.107-.312-.14.153-.573.281-1.068.365-1.394.305.004.615.076.926.245.373.203.775.388 1.212.343.278-.027.542-.124.777-.272.054.319.095.705.097 1.152" transform="translate(-202 -541) translate(202 541) translate(16 7)"/>
                    <path fill="#0D0D14" d="M58.714 6.954c-.022-.082-.035-.171-.035-.272 0 0 2.13-1.162 3.154 1.132 0 0 .608 1.693.798 2.709.054.283.142.56.272.816.17.338.423.78.703 1.07.058.06.015.159-.068.159-.23.002-.575.033-.91.17-.207.086-.42.154-.642.187-.551.086-1.468.138-1.755-.365.132-.182.25-.41.347-.69 0 0 .154-.345.284-.955h.002s.52-.075.52-.59c0 0 .008-.431-.37-.431.022-.253.034-.526.03-.818-.002-.062-.033-.12-.085-.153-.11-.074-.3-.268-.305-.763 0-.12-.055-.24-.152-.311-.14-.103-.363-.222-.646-.204-.2.014-.402 0-.585-.084-.22-.099-.466-.281-.557-.607" transform="translate(-202 -541) translate(202 541) translate(16 7)"/>
                    <path fill="#CF7528" d="M60.728 16.926c-1.063-.018-2.094.773-3.03 1.2-.845.388-2.014.501-2.762-.185-.168-.155-.36-.442-.466-.741.197-.233.428-.441.686-.612.577-.377 1.2-.728 1.633-.961 0 0 .231 1.658 2.138 1.272 0 0 1.614-.26 2.022-2.152.503.163 1.214.468 1.919 1.031.361.287.614.693.712 1.146.022.097.043.204.063.318-.235.148-.5.245-.777.272-.437.045-.84-.14-1.212-.343-.31-.17-.621-.241-.926-.245" transform="translate(-202 -541) translate(202 541) translate(16 7)"/>
                    <path fill="#E7A164" d="M62.856 27.104l.519 1.579s-.668-.237-1.756 0c-.21.045-.433.107-.672.192-.07.025-.138.053-.206.082-.411.18-2.066.883-2.565.792.602-.979 1.561-2.418 1.983-3.049.202.052.398.116.59.192.707.282 1.43.377 2.107.212M63.567 20.142c-.09.447-.221.92-.406 1.421-1.315-.759-3.42-.998-3.42-.998l.276-.975c.324.028.612.165.922.307.422.194.814.402 1.284.453.464.052.917-.04 1.344-.208" transform="translate(-202 -541) translate(202 541) translate(16 7)"/>
                    <path fill="#FFFFFE" d="M59.62 20.977l.121-.412s2.105.239 3.42.998c-.084.231-.18.466-.29.707-1.16-.714-3.355-.946-3.355-.946.033-.112.068-.229.105-.347" transform="translate(-202 -541) translate(202 541) translate(16 7)"/>
                    <path fill="#CF7528" d="M62.856 27.104c-.178.043-.361.07-.546.078-.512.023-1.04-.082-1.561-.29-.192-.076-.388-.14-.59-.192l.213-.316.674-1.102c.124.08.253.158.38.228.096.054.193.104.286.15.245.116.507.168.775.174.045.237.107.474.183.705l.186.565" transform="translate(-202 -541) translate(202 541) translate(16 7)"/>
                    <path fill="#E15D38" d="M62.582 22.777l-.155 1.272c-.008.058-.014.115-.02.173-.213-.023-.425-.064-.63-.132l.805-1.313" transform="translate(-202 -541) translate(202 541) translate(16 7)"/>
                    <path fill="#E7A164" d="M62.487 25.834c-.268-.006-.53-.058-.775-.175-.093-.045-.19-.095-.285-.15-.128-.07-.257-.147-.38-.227l.314-.514.415-.678c.206.068.418.109.632.132-.05.538-.022 1.082.08 1.612" transform="translate(-202 -541) translate(202 541) translate(16 7)"/>
                    <path fill="#F4B879" d="M61.013 9.894c.379 0 .371.431.371.431 0 .515-.52.59-.52.59h-.002c.062-.285.118-.629.151-1.021" transform="translate(-202 -541) translate(202 541) translate(16 7)"/>
                    <path fill="#F4B879" d="M58.056 9.985c.11-.002.198-.095.194-.206-.004-.112-.098-.198-.208-.194-.11.002-.198.095-.194.206.004.113.097.198.208.194zm1.936-.064c.11-.004.198-.097.194-.208-.004-.11-.097-.198-.208-.194-.11.004-.198.097-.194.208.004.11.095.198.208.194zm-2.888 3.377l-.255-2.206c-.765.109-.833-.491-.833-.491-.068-.711.505-.67.505-.67.156 0 .25-.115.303-.21.037-.064.049-.142.039-.216-.058-.49.004-.877.076-1.136.06-.213.227-.373.439-.435.988-.293 1.316-.94 1.336-.98.091.326.338.508.557.607.183.084.385.098.585.084.283-.018.507.1.646.204.097.072.152.19.152.31.006.496.194.69.305.764.052.033.083.091.085.153.004.292-.008.565-.03.818-.034.392-.09.736-.152 1.021-.13.61-.284.956-.284.956-.097.28-.215.507-.347.69-.035.05-.072.096-.11.139-.824.967-2.042.458-2.081.443.033.052.734 1.087 2.148.55l.06.881c.002.018.002.037 0 .056-.02.35-.148.622-.305.828-.307.402-.802.607-1.307.613-1.01.016-1.274-.542-1.274-.542l-.021-.192-.237-2.039z" transform="translate(-202 -541) translate(202 541) translate(16 7)"/>
                    <path fill="#E7A164" d="M57.698 18.126c.936-.427 1.967-1.218 3.03-1.2-.084.326-.212.821-.365 1.394-.802-.246-1.789.187-2.47.589-.647.382-1.125.773-1.912.802-.433.015-1.023.046-1.42-.177-.015-.006-.028-.014-.044-.023-.307-.193-.577-.52-.748-.88l.01-.045c.119-.512.356-.988.691-1.386.105.299.298.586.466.741.748.686 1.917.573 2.762.185" transform="translate(-202 -541) translate(202 541) translate(16 7)"/>
                    <path fill="#FFFFFE" d="M60.248 14.574s.276.035.701.173c-.408 1.891-2.022 2.152-2.022 2.152-1.907.386-2.138-1.272-2.138-1.272.332-.18.552-.29.552-.29l.021.192s.264.558 1.274.542c.505-.006 1-.211 1.307-.613.157-.206.286-.478.305-.828.002-.019.002-.038 0-.056" transform="translate(-202 -541) translate(202 541) translate(16 7)"/>
                    <path fill="#0B0D11" d="M60.122 12.7l.066.992c-1.414.538-2.115-.497-2.148-.55.039.016 1.257.525 2.082-.442" transform="translate(-202 -541) translate(202 541) translate(16 7)"/>
                    <path fill="#0A090B" d="M60.186 9.713c.004.11-.084.204-.194.208-.113.004-.204-.084-.208-.194-.004-.11.083-.204.194-.208.11-.004.204.083.208.194" transform="translate(-202 -541) translate(202 541) translate(16 7)"/>
                    <path fill="#CF7528" d="M60.363 18.32c-.107.394-.224.83-.346 1.27-.109-.011-.22-.01-.336.008-.493.078-.983.272-1.424.5-1.006.516-2.05 1.219-3.192 1.349-.233.027-.45.029-.655.004-.16-.903.125-1.867.125-1.867l.027-.05c.396.223.986.192 1.42.177.786-.03 1.264-.42 1.91-.802.682-.402 1.669-.835 2.47-.589" transform="translate(-202 -541) translate(202 541) translate(16 7)"/>
                    <path fill="#E7A164" d="M60.017 19.59l-.276.975-.12.412c-.905-.383-1.911.252-2.606.874-.278.246-.437.573-.692.837-.138.142-.299.283-.476.406-.023.017-.046.033-.07.048l-.103-.175-.038-.066c-.319-.09-.561-.242-.744-.43l-.002-.005c-.101-.105-.185-.221-.252-.345h-.002c-.113-.208-.185-.437-.226-.67.204.025.422.023.655-.004 1.142-.13 2.186-.833 3.192-1.35.441-.227.93-.421 1.424-.499.116-.017.227-.02.336-.008" transform="translate(-202 -541) translate(202 541) translate(16 7)"/>
                    <path fill="#CF7528" d="M59.62 20.977l-.104.347c-.171.564-.336 1.072-.478 1.447-.95.049-1.831.74-2.453 1.402-.068.072-.136.14-.208.204l-.06.053c-.264.225-.553.384-.86.447-.006-.035-.012-.07-.02-.105-.096-.501-.201-.964-.295-1.342.218-.05.433-.156.635-.288l.043-.029.027-.02c.177-.122.338-.263.476-.405.255-.264.414-.59.692-.837.695-.622 1.7-1.257 2.606-.874" transform="translate(-202 -541) translate(202 541) translate(16 7)"/>
                    <path fill="#F4B879" d="M59.516 21.324c-.074.245-.148.478-.218.696-.09.283-.18.54-.26.751-.039.105-.076.2-.11.284l-.595 1.352c-.03.066-.056.13-.083.196-.216.505-.396 1.023-.544 1.551l-.186.74-.472 1.869c-.199.782-.84 1.372-1.614 1.499-.12.021-.243.029-.37.025h-.032s-.105.002-.274.016c-.34.023-.942.087-1.492.246-.273.08-.534.185-.741.32-.164.11-.129.36.064.405.124.029.304.032.565-.02l.15-.021h.001c.616-.09 2.935-.377 3.457.145.039.04.084.053.132.047.15-.012.336-.198.488-.38.138-.166.25-.35.351-.543.093-.176.249-.442.44-.753h.003c.602-.979 1.561-2.418 1.983-3.049l.213-.316 1.404-2.294.806-1.313v-.002l.156-.252c.048-.082.095-.167.134-.253-1.162-.714-3.356-.946-3.356-.946" transform="translate(-202 -541) translate(202 541) translate(16 7)"/>
                    <path fill="#E7A164" d="M59.038 22.771c-.039.105-.076.2-.11.284l-.595 1.352c-.03.066-.056.13-.083.196-.62.134-1.187.442-1.704.903l-.015.011-.045.041c-.107.097-.481.336-.866.491-.035-.392-.09-.784-.163-1.172.307-.063.596-.222.86-.447l.06-.053c.072-.064.14-.132.208-.204.622-.662 1.503-1.353 2.453-1.402" transform="translate(-202 -541) translate(202 541) translate(16 7)"/>
                    <path fill="#0D0D14" d="M58.679 6.682c0 .1.013.19.035.272-.02.04-.348.687-1.336.98-.212.062-.379.222-.44.435-.071.259-.133.645-.075 1.136.01.074-.002.152-.039.216-.052.095-.147.21-.303.21 0 0-.573-.041-.505.67 0 0 .068.6.833.491l.255 2.206c-.542.257-1.243.196-1.618.134-.307-.05-.617-.066-.928-.035l-.035.004c-.105.01-.185-.091-.15-.19l.573-1.606c.113-.313.17-.641.17-.973v-1c0-1.45.667-2.337.667-2.337 1.107-1.61 2.896-.613 2.896-.613" transform="translate(-202 -541) translate(202 541) translate(16 7)"/>
                    <path fill="#FC7287" d="M71.583 43.949c-.033.398-.114.806-.184 1.113-.037.163-.148.29-.288.353-.097.047-.207.06-.32.037-1.963-.406-6.552-.753-9.126-.926-1.225-.082-2.26-.92-2.608-2.098-.406-1.374-.648-2.909-.79-4.39l-.06.157-1.414 3.76-.025.065c-.18.476-.272.981-.265 1.488.04 2.436-.703 4.21-1.159 5.067-.252.472-.429.977-.538 1.501l-.648 3.14-.4.022-.346.02-.06.001-1.993.107 1.965-14.82c.133-.996.346-1.979.636-2.94l1.015-3.358.002-.077c.113 0 .233-.006.361-.02 0 0 1.674-.108 1.556-.724v-.002c.15-.012.336-.198.487-.38.04-.047.074-.094.11-.142.09-.127.168-.26.242-.4.093-.177.248-.443.44-.754h.003c.499.091 2.153-.612 2.565-.792.068-.03.136-.057.206-.082.239-.085.462-.147.672-.192.099-.022.194-.039.287-.055.917-.141 1.468.055 1.468.055s.16.324.278.88c.189.89.274 2.38-.575 4.078-.05.103-.09.21-.116.322-.04.167-.1.453-.171.822-.26 1.365-.639 3.9-.383 6.088l.024-.002c1.736-.233 3.352.087 4.633.53 1.076.371 1.915.827 2.395 1.119.32.194.674.318 1.043.369l1.043.142c.065.256.07.584.038.918" transform="translate(-202 -541) translate(202 541) translate(16 7)"/>
                    <path fill="#0A090B" d="M58.25 9.78c.004.11-.084.203-.194.205-.111.004-.204-.081-.208-.194-.004-.11.083-.204.194-.206.11-.004.204.082.208.194" transform="translate(-202 -541) translate(202 541) translate(16 7)"/>
                    <path fill="#CF7528" d="M58.25 24.603c-.216.505-.396 1.023-.544 1.551l-.186.74c-.26.165-.502.367-.752.558l-.006.004c-.188.145-.385.281-.6.388-.153.076-.328.138-.51.175.04-.657.028-1.315-.032-1.97.385-.155.76-.394.866-.49l.045-.042.015-.011c.517-.46 1.084-.77 1.704-.903" transform="translate(-202 -541) translate(202 541) translate(16 7)"/>
                    <path fill="#E7A164" d="M57.52 26.894l-.472 1.869c-.055.217-.144.419-.263.601-.058.092-.124.177-.194.257-.299.336-.705.567-1.157.64l.18-1.755c.016-.163.03-.324.037-.487.183-.037.358-.1.511-.175.215-.107.412-.243.6-.388l.006-.004c.25-.19.491-.393.752-.558" transform="translate(-202 -541) translate(202 541) translate(16 7)"/>
                    <path fill="#D68741" d="M56.894 31.427c.119.616-1.555.724-1.555.724-.129.014-.249.02-.362.02-1.344-.004-1.654-.882-1.672-.938.616-.09 2.935-.377 3.457.145.039.04.084.053.132.047v.002" transform="translate(-202 -541) translate(202 541) translate(16 7)"/>
                    <path fill="#E98238" d="M55.777 23.142c-.202.132-.417.237-.635.288-.064-.266-.122-.488-.167-.653v-.002L54.9 22.5v-.002l-.008-.027c.023.024.047.047.072.068l.007.006c.142.128.315.235.527.313.045.015.09.03.138.044l.054.094.087.147" transform="translate(-202 -541) translate(202 541) translate(16 7)"/>
                    <path fill="#FFFFFE" d="M54.975 22.775v.002c-.002.01-.021.09-.048.224-.379-.168-.773-.228-1.119-.237-.578-.02-1.02.102-1.02.102l.174-.745s1.07-.14 1.674 0h.002c.067.124.15.24.252.345l.002.004.083.305" transform="translate(-202 -541) translate(202 541) translate(16 7)"/>
                    <path fill="#F4B879" d="M54.476 25.995s-.054.895-.021 1.936c.023.824.1 1.738.303 2.37v.002c-.34.023-.942.087-1.492.246l-.02-.085c-.35-.845-.67-4.034-.793-5.378-.037-.394-.004-.792.095-1.177l.24-1.043s.442-.122 1.02-.102c.346.01.74.07 1.119.237-.025.116-.058.275-.093.466-.04.205-.084.446-.129.71-.03.189-.064.39-.093.599-.048.345-.093.712-.124 1.073l-.012.146" transform="translate(-202 -541) translate(202 541) translate(16 7)"/>
                    <path fill="#212121" d="M54.585 54.391c.091.126.083.301-.021.418-.727.8-2.758 2.375-2.758 2.375L48.8 59.897c-.175.157-.462.074-.515-.157-.147-.635.326-1.418.326-1.418.636-1.064 1.529-3.168 1.568-3.274h.002l.466-.123s2.017-.103 2.765-1.668l.346-.02.827 1.154" transform="translate(-202 -541) translate(202 541) translate(16 7)"/>
                    <path fill="#CF7528" d="M54.562 19.534l-.027.05s-.286.964-.125 1.867c-.448-.05-.833-.225-1.17-.534l.53-2.286c.17.36.44.687.747.88.016.01.03.017.045.023" transform="translate(-202 -541) translate(202 541) translate(16 7)"/>
                    <path fill="#E7A164" d="M54.41 21.45c.041.234.113.463.226.67-.604-.14-1.674 0-1.674 0l.277-1.203c.338.309.723.483 1.171.534" transform="translate(-202 -541) translate(202 541) translate(16 7)"/>
                    <path fill="#F4B879" d="M53.352 53.26l.06-.003c-.748 1.565-2.765 1.668-2.765 1.668l.712-1.56 1.993-.106" transform="translate(-202 -541) translate(202 541) translate(16 7)"/>
                    <path fill="#0A090B" d="M58.098 11.263c.302.183.622.318.932.269.154-.024.303-.083.44-.175.072-.042.134-.1.205-.15.063-.057.126-.117.198-.173-.037.08-.081.159-.128.237-.058.068-.11.146-.181.206-.134.129-.315.216-.507.247-.193.028-.391-.013-.555-.1-.165-.087-.307-.209-.404-.361M57.234 9.35c.048-.104.126-.189.216-.258.09-.07.196-.12.31-.15.113-.027.236-.028.349.002.114.026.215.092.292.173-.115-.01-.213-.027-.312-.022-.097.003-.192.01-.284.037-.188.043-.366.127-.571.218M59.514 9.014c.078-.08.174-.134.275-.173.102-.04.211-.06.323-.064.112.001.227.021.33.07.104.05.19.132.241.23-.106-.038-.196-.07-.289-.086-.093-.013-.185-.022-.28-.02-.19.002-.382.03-.6.043M58.617 10.597c.16.019.283.046.402.047.059.004.115-.005.176-.015.062-.01.123-.036.204-.057-.022.077-.07.15-.141.195-.07.049-.158.073-.243.07-.085-.003-.166-.026-.235-.068-.068-.042-.128-.097-.163-.172M53.305 31.233c.237-.056.477-.095.718-.135.24-.034.483-.062.726-.083.486-.038.978-.056 1.473.034.062.011.123.024.185.045.061.019.123.035.183.067l.09.042c.03.016.057.04.086.06l.041.033.021.016.009.008.032.014c.065.008.17-.06.251-.134.085-.076.167-.164.244-.252.156-.178.269-.387.4-.594.138-.202.269-.407.41-.605-.104.22-.218.434-.326.65-.113.212-.216.44-.367.641-.074.1-.152.197-.246.285-.046.044-.096.087-.155.124-.059.037-.132.07-.223.069-.048-.002-.1-.022-.135-.051l-.026-.022-.015-.012-.031-.022c-.021-.014-.039-.032-.062-.044l-.076-.033c-.047-.026-.104-.04-.159-.055-.054-.018-.11-.03-.168-.04-.229-.046-.468-.063-.707-.07-.24-.014-.48-.006-.721-.006-.483.01-.966.041-1.452.07M56.68 29.515c-.17.278-.422.516-.725.666-.149.079-.312.13-.477.166-.162.04-.35.035-.5.04-.315.012-.639.04-.957.075-.319.039-.638.082-.957.152.295-.142.612-.237.933-.301.323-.067.645-.104.978-.12.173-.002.313.003.47-.027.154-.022.303-.065.448-.122.29-.117.557-.297.787-.529M54.535 19.584c-.064.43-.097.859-.086 1.282.015.421.077.844.264 1.213l-.077-.046h.006c.032.001.059.02.072.046.063.12.138.235.227.338l.005.006.008.012.001.004-.012-.018c.091.104.196.197.313.277.116.082.246.144.38.203-.287-.046-.573-.172-.795-.381l-.01-.012-.002-.006-.003-.004.013.018c-.11-.103-.203-.223-.278-.353l.077.045h-.002c-.032.001-.06-.016-.075-.04l-.002-.006c-.115-.196-.187-.413-.232-.632-.04-.22-.06-.443-.052-.664.004-.22.031-.44.074-.654.043-.215.103-.426.186-.628" transform="translate(-202 -541) translate(202 541) translate(16 7)"/>
                    <path fill="#E89449" d="M58.305 10.322c.009.12-.16.231-.378.248-.218.016-.401-.068-.41-.188-.01-.12.16-.231.377-.248.218-.016.402.068.41.188M60.682 10.287c-.013.12-.2.197-.417.172-.217-.025-.382-.142-.368-.261.013-.12.2-.197.417-.173.217.025.382.142.368.262" transform="translate(-202 -541) translate(202 541) translate(16 7)"/>
                    <path fill="#E7A164" d="M54.927 23c-.025.117-.058.276-.093.467-.04.205-.084.446-.129.71l-.077-.035c-.624-.273-1.325-.53-1.938-.846l.099-.43s.44-.122 1.02-.102c.345.01.74.07 1.118.237M62.872 22.27c-.04.086-.086.171-.134.253l-.156.252v.002l-.456.744c-.552-.268-1.053-.631-1.59-.926-.364-.199-.851-.366-1.238-.575.07-.218.144-.45.218-.696 0 0 2.194.232 3.356.946" transform="translate(-202 -541) translate(202 541) translate(16 7)"/>
                    <path fill="#0A090B" d="M60.834 16.512c-.079.47-.182.933-.287 1.396-.1.464-.226.922-.347 1.38-.125.459-.261.914-.407 1.366l-.229.674c-.086.222-.166.446-.257.666.103-.465.228-.922.343-1.382.111-.461.242-.917.363-1.375.126-.457.255-.913.39-1.367l.207-.681c.076-.225.144-.453.224-.677" transform="translate(-202 -541) translate(202 541) translate(16 7)"/>
                    <path fill="#F7CBA7" d="M55.777 23.142l-.087-.147.087.147" transform="translate(-202 -541) translate(202 541) translate(16 7)"/>
                    <path fill="#E36538" d="M55.777 23.142l-.086-.147c.046.037.089.076.13.118l-.044.03" transform="translate(-202 -541) translate(202 541) translate(16 7)"/>
                    <path fill="#CF7528" d="M55.457 24.877c-.006-.035-.012-.07-.02-.105-.096-.501-.201-.964-.295-1.342.218-.05.433-.156.635-.288l.043-.029c.097.101.177.22.226.365.106.313.196.631.271.952-.264.225-.553.384-.86.447" transform="translate(-202 -541) translate(202 541) translate(16 7)"/>
                    <path fill="#E7A164" d="M55.62 26.05c-.035-.393-.09-.785-.163-1.173.307-.063.596-.222.86-.447.086.359.156.722.214 1.087l-.045.041c-.107.097-.481.336-.866.491" transform="translate(-202 -541) translate(202 541) translate(16 7)"/>
                    <path fill="#CF7528" d="M55.651 28.019c.017-.262.024-.524.024-.786 0-.395-.019-.79-.055-1.184.385-.155.76-.394.866-.49l.045-.042c.103.64.173 1.288.237 1.935l-.006.004c-.188.145-.385.281-.6.388-.153.076-.328.138-.51.175" transform="translate(-202 -541) translate(202 541) translate(16 7)"/>
                    <path fill="#E7A164" d="M55.443 30.167l.171-1.66c.016-.164.03-.325.037-.488.183-.037.358-.1.511-.175.215-.107.412-.243.6-.388l.006-.004c.006.05.01.1.015.151.031.317.035.635.03.954-.006.248.005.536-.028.807-.034.054-.071.106-.11.156-.228.23-.495.408-.782.524-.145.057-.294.1-.448.122h-.002M55.142 23.43c-.064-.266-.122-.488-.167-.653v-.002l-.035-.13-.014-.052c.18.145.394.24.612.29.053.035.104.071.152.112l.087.147c-.202.132-.417.237-.635.288" transform="translate(-202 -541) translate(202 541) translate(16 7)"/>
                    <path fill="#FFFFFE" d="M54.975 22.775l-.035-.13.035.13" transform="translate(-202 -541) translate(202 541) translate(16 7)"/>
                    <path fill="#0A090B" d="M55.434 30.262l.01-.095c.155-.023.304-.066.449-.123.287-.116.554-.295.782-.524-.027.035-.055.068-.084.1-.299.337-.705.568-1.157.642M55.538 22.883c-.218-.05-.432-.145-.612-.29L54.9 22.5c.02.014.042.028.064.04l.007.005c.175.109.36.204.527.313l.04.026" transform="translate(-202 -541) translate(202 541) translate(16 7)"/>
                    <path fill="#EA6478" d="M58.267 38.038l-.06.157-1.414 3.76c-1.039.22-1.016-1.19-1.016-1.19.152-3.252 2.321-7.757 2.321-7.757l.17 5.03" transform="translate(-202 -541) translate(202 541) translate(16 7)"/>
                    <path fill="#0A090B" d="M58.174 31.254c-.003.348-.01.694-.007 1.042-.003.346-.004.693 0 1.04.007.692.014 1.385.037 2.077.018.692.051 1.384.09 2.076.016.346.045.69.08 1.036.025.346.056.69.076 1.039-.116-.684-.24-1.371-.305-2.063-.074-.692-.113-1.387-.135-2.082-.018-.695-.02-1.391.008-2.086.027-.694.069-1.389.156-2.079" transform="translate(-202 -541) translate(202 541) translate(16 7)"/>
                    <path fill="#EA6478" d="M67.086 41.494c.037.315-.338.2-.542.187-.513-.037-.998-.161-1.517-.136-.503.023-1.023.087-1.52.169-.23.037-.447.075-.682.083-.076.004-.196.018-.249-.038-.033-.035-.071-.23-.083-.284-.04-.18-.054-.4-.062-.604 1.736-.233 3.352.087 4.634.53.011.031.017.062.02.093" transform="translate(-202 -541) translate(202 541) translate(16 7)"/>
                    <path fill="#0A090B" d="M62.495 36.67c-.016.467-.043.93-.057 1.393-.012.464-.024.926-.017 1.388 0 .462.024.923.057 1.383.017.23.043.46.075.69.027.23.07.457.11.687-.164-.437-.265-.897-.333-1.36-.07-.463-.098-.931-.104-1.398-.002-.468.016-.935.064-1.4.024-.231.051-.463.083-.694.037-.23.073-.46.122-.688" transform="translate(-202 -541) translate(202 541) translate(16 7)"/>
                    <path fill="#EA6478" d="M63.652 29.563c-.264.042-.586.027-.905.054-.757.068-1.507.074-2.243.369-.697.282-1.22.697-1.98.856-.327.07-.696.086-1.034.06.092-.126.17-.26.243-.4.093-.176.249-.442.44-.753h.003c.499.091 2.154-.612 2.565-.792.068-.03.136-.057.206-.082.24-.085.462-.147.672-.192 1.088-.237 1.756 0 1.756 0s.159.324.277.88" transform="translate(-202 -541) translate(202 541) translate(16 7)"/>
                    <path fill="#CF7528" d="M62.31 27.182c-.347-.426-.63-.917-.732-1.162-.066-.16-.116-.332-.151-.51.095.054.192.104.285.15.245.116.507.168.775.174.045.237.107.474.183.705l.186.565c-.088.021-.178.039-.268.052-.09.013-.18.021-.27.025h-.008M62.408 24.222c-.214-.023-.426-.064-.632-.132l.806-1.313-.155 1.272c-.008.058-.014.115-.02.173" transform="translate(-202 -541) translate(202 541) translate(16 7)"/>
                    <path fill="#E7A164" d="M62.487 25.834c-.268-.006-.53-.058-.775-.175-.093-.045-.19-.095-.285-.15-.052-.24-.074-.49-.066-.74l.415-.68c.206.069.418.11.632.133-.016.172-.024.345-.024.518 0 .367.034.733.103 1.094" transform="translate(-202 -541) translate(202 541) translate(16 7)"/>
                    <path fill="#EE9E39" d="M61.36 24.769v-.001l.573-.678-.572.679m.572-.68l.48-.568-.48.569" transform="translate(-202 -541) translate(202 541) translate(16 7)"/>
                    <path fill="#E05631" d="M62.126 23.521L62.126 23.521 62.582 22.777 62.126 23.521" transform="translate(-202 -541) translate(202 541) translate(16 7)"/>
                    <path fill="#EA6478" d="M63.077 33.64c-.05.104-.09.21-.116.323-.04.167-.1.453-.171.822-.025-.02-.053-.041-.078-.066-.34-.32-.322-1.014-.196-1.41.183-.581.379-1.062.352-1.702-.047-1.124-.643-1.852-1.004-2.876.01-.033.025-.068.042-.103.917-.141 1.468.055 1.468.055s.16.324.278.88c.189.89.274 2.38-.575 4.078" transform="translate(-202 -541) translate(202 541) translate(16 7)"/>
                    <path fill="#EFA579" d="M98.05 35.265c.16.045.25.212.198.37-.04.122-.153.201-.276.201-.027 0-.052-.004-.08-.012l-1.262-.363.156-.551 1.264.355" transform="translate(-202 -541) translate(202 541) translate(16 7)"/>
                    <path fill="#EFA579" d="M97.849 37.411c-.072.084-.175.128-.278.128-.072 0-.144-.021-.206-.064l-1.712-1.163c-.045-.03-.098.021-.07.066l.976 1.65c.11.183.047.42-.138.527-.06.035-.126.05-.192.05-.106 0-.211-.044-.287-.13l-1.89-2.167c-.103-.118-.295-.066-.324.087l-.249 1.31c-.05.26-.295.434-.557.394-.231-.035-.406-.228-.418-.463l-.09-1.922c-.012-.237-.102-.466-.255-.649l-.847-1.008-2.488-2.635c-.312-.33-.574-.701-.784-1.103-.354-.684-.835-1.29-1.422-1.785l-1.188-1.008s-.34-.375-.804-1.062c-.253-.373-.542-.839-.833-1.387 1.755-.708 2.913-2.81 2.913-2.81l3.23 4.354 3.732 6.339c.151.256.394.443.681.524.546.158 1.478.525 1.997 1.302l.44.124-.155.551c-.105-.029-.18.101-.103.177l1.3 1.272c.14.134.147.355.02.501" transform="translate(-202 -541) translate(202 541) translate(16 7)"/>
                    <path fill="#466EB6" d="M93.892 45.364L94 47.657c0 2.152-.534 2.88-.534 2.88-.165.016-.315-.006-.449-.054.459-1.459.218-4.694.218-4.694l-.218-3.804c.138.03.249.071.336.11.146.066.245.206.26.365l.28 2.904" transform="translate(-202 -541) translate(202 541) translate(16 7)"/>
                    <path fill="#FFFFFE" d="M90.832 45.505c.21-.528.588-.889.588-.889.29-.623.074-1.818-.035-2.317-.031-.142-.054-.227-.054-.227.76-.208 1.316-.177 1.685-.087l.218 3.804s.24 3.235-.218 4.694c-.794-.282-1.08-1.491-1.08-1.491-.23-1.051-1.033-2.046-1.033-2.046-.295-.52-.235-1.03-.071-1.44" transform="translate(-202 -541) translate(202 541) translate(16 7)"/>
                    <path fill="#EFA579" d="M91.385 42.3c.109.498.324 1.693.035 2.316 0 0-.379.361-.588.89l-.758.054c.076-.445.173-1.29.031-2.084-.046-.26-.118-.515-.227-.75h.002l1.505-.427" transform="translate(-202 -541) translate(202 541) translate(16 7)"/>
                    <path fill="#E7A164" d="M78.995 36.881c-.214-.34-.37-.722-.488-1.128.37.085.771.2 1.204.345.529.179 1.111.092 1.554-.246.113-.086.237-.175.371-.27.903-.633 2.266-1.395 3.597-1.397.182.255.378.498.572.746-.003.587-.12 1.44-.623 2.274-.091.154-.184.305-.262.466-.37.768-1.338 3.007-1.11 4.978v.002c0 .058.042.945 2.8.658 0 0 2.668-.31 3.495.167.142.794.045 1.64-.03 2.084-.032.198-.061.318-.061.318-2.655 0-5.267.35-7.25.707-1.874.338-3.63-1.017-3.777-2.917l-.233-3.02-.272-3.497.513-.27" transform="translate(-202 -541) translate(202 541) translate(16 7)"/>
                    <path fill="#CF7528" d="M85.058 42.01c.449-.066.885-.01 1.216.064.559.124 1.122.223 1.691.274l1.796.155c.043.072.082.146.117.223.109.235.18.49.227.75-.827-.478-3.495-.167-3.495-.167-2.758.287-2.8-.6-2.8-.658v-.002c.366-.393.813-.573 1.248-.64" transform="translate(-202 -541) translate(202 541) translate(16 7)"/>
                    <path fill="#355389" d="M87.314 34.467c-.12-.056-.25-.103-.383-.14-.41-.116-.854-.15-1.187-.153-.021 0-.042 0-.062-.002-.264-.002-.443.013-.443.013h-.005c-.175-.238-.337-.485-.476-.753-.259-.491-.48-.973-.793-1.433-.516-.76-.889-1.496-1.16-2.377-.506-1.645-.704-3.339-.624-5.055.027-.589.087-1.175.15-1.764l.496.05c.173.508.367.981.565 1.416.133.286.266.556.4.808.826 1.554 1.638 2.45 1.638 2.45.62 1.31 1.74 4.992 2.231 6.645.062.21-.151.39-.347.295" transform="translate(-202 -541) translate(202 541) translate(16 7)"/>
                    <path fill="#CF7528" d="M85.805 34.931c.003-.439-.056-.728-.061-.757.332.004.776.037 1.186.153 0 0 .482 1.61-.117 3.513-.135.431-.332.841-.58 1.218-.396.602-1.173 1.917-1.175 2.952-.435.066-.882.246-1.249.639-.227-1.971.742-4.21 1.11-4.978.079-.16.172-.312.263-.466.503-.835.62-1.687.623-2.274" transform="translate(-202 -541) translate(202 541) translate(16 7)"/>
                    <path fill="#355389" d="M86.705 22.267s-1.158 2.102-2.913 2.81c-.338-.637-.678-1.382-.966-2.223l-.497-.05c.101-.95.204-1.902.18-2.853-.013-.585-.038-1.286-.19-1.939.696.237 1.323.641 1.836 1.171.852.89 2.12 2.274 2.55 3.084" transform="translate(-202 -541) translate(202 541) translate(16 7)"/>
                    <path fill="#E15E37" d="M85.744 34.174c.005.029.064.318.061.757-.194-.248-.39-.491-.572-.746h.006s.205-.017.505-.011" transform="translate(-202 -541) translate(202 541) translate(16 7)"/>
                    <path fill="#466EB6" d="M84.757 33.432c.14.268.3.515.476.753-1.33.002-2.694.764-3.597 1.397-1.208-1.38-1.398-3.298-1.643-5.102-.227-1.67.319-3.301.266-4.97-.054-1.773-.685-3.109-1.726-4.474.612-.666 1.068-1.785.965-3.655.72.13 1.668.317 2.501.534.109.03.216.06.32.097.152.653.177 1.354.19 1.939.024.95-.079 1.903-.18 2.852-.062.589-.122 1.175-.15 1.764-.079 1.716.12 3.41.624 5.055.272.881.645 1.617 1.162 2.377.312.46.534.942.792 1.433M81.873 50.32c.136.087.183.26.109.404l-1.707 3.379c-.022.04-.041.081-.059.124l-1.05 2.589c-.34.751-.65 1.06-.853 1.186-.142.09-.326.078-.458-.025-.064-.05-.122-.115-.171-.186.173-.276 1.464-3.209 1.944-4.3.118-.272.249-.538.392-.798l1.441-2.618c.171.095.307.179.412.245" transform="translate(-202 -541) translate(202 541) translate(16 7)"/>
                    <path fill="#FFFFFE" d="M77.927 51.411c.396-.338.916-.452 1.318-.577.7-.22 1.158-1.256 1.158-1.256.431.173.786.348 1.058.497l-1.44 2.618c-.144.26-.275.526-.393.798-.48 1.091-1.771 4.024-1.944 4.3-.501-.723-.324-2.402-.256-2.929.017-.12.023-.24.021-.361-.013-.458-.058-1.231-.082-1.625-.013-.22 0-.443.059-.657.103-.365.283-.62.5-.808" transform="translate(-202 -541) translate(202 541) translate(16 7)"/>
                    <path fill="#355389" d="M81.636 35.582c-.134.095-.258.184-.371.27-.443.338-1.025.425-1.554.246-.433-.145-.834-.26-1.204-.345-.357-1.255-.312-2.73-.217-3.851.134-1.552.332-3.07.216-4.632-.136-1.833-.802-3.729-1.873-5.23l-.006-.052c.52-.064 1.29-.28 1.906-.952 1.04 1.365 1.672 2.701 1.726 4.474.053 1.669-.493 3.3-.266 4.97.245 1.804.435 3.723 1.643 5.102" transform="translate(-202 -541) translate(202 541) translate(16 7)"/>
                    <path fill="#EFA579" d="M77.836 47.39l2.567 2.188s-.459 1.037-1.158 1.256c-.402.125-.922.24-1.318.577l-1.896-1.899s1.03-.719 1.608-1.725v-.002c.074-.128.14-.26.195-.396h.002" transform="translate(-202 -541) translate(202 541) translate(16 7)"/>
                    <path fill="#FFFFFE" d="M78.533 21.036c-.616.672-1.387.888-1.906.952-.345.044-.578.02-.578.02-2.847-.347-2.653-3.433-2.653-3.433l.715-.227h.004v.245c0 .42.085.839.281 1.21.286.54.85 1.115 1.96 1.058 0 0 2.398.022 2.173-2.785l-.043-.868c.18.03.548.09 1.012.173.103 1.87-.353 2.989-.965 3.655" transform="translate(-202 -541) translate(202 541) translate(16 7)"/>
                    <path fill="#EFA579" d="M74.647 12.167c0-.113-.092-.202-.202-.202-.11 0-.202.09-.202.202 0 .11.091.2.202.2.11 0 .202-.09.202-.2zm2.134-.097c0-.111-.09-.2-.2-.2-.113 0-.202.089-.202.2 0 .11.09.202.202.202.11 0 .2-.092.2-.202zm-1.3 3.253c1.294-.059 1.238-1.517 1.238-1.517-1.626.938-2.482.107-2.482.107.037 1.052.687 1.32 1 1.388.08.018.163.025.245.022zm3.005 1.885l.043.868c.225 2.807-2.173 2.785-2.173 2.785-1.11.057-1.674-.518-1.96-1.058-.196-.371-.281-.79-.281-1.21V18.1c2.602.196 3.225-2.482 3.225-2.482s-1.113.95-2.284.9c-.357-.015-.687-.156-.941-.382-.25-.221-.43-.524-.498-.87-.062-.32-.13-.747-.186-1.272-.037-.34-.068-.72-.087-1.138-.024-.507-.03-1.068-.01-1.682.006-.188.068-.372.188-.541l.058-.082c.183-.258.42-.476.704-.612 1.347-.643 2.897-.095 3.285.062.06.024.113.064.144.123.26.49.064 1.2.064 1.2.69.517.317 1.35.317 1.35-.068.468.394.28.394.28.062.005.12.015.171.027.56.145.483.722.483.722 0 .625-.776 1.074-.776 1.074l.12 2.431z" transform="translate(-202 -541) translate(202 541) translate(16 7)"/>
                    <path fill="#E7A164" d="M71.5 42.761c.335.152.711.276 1.11.329 0 0 .08.825 1.79 1.84.787.467 1.527 1.009 2.171 1.657.36.36.736.77 1.068 1.198v.002c-.578 1.006-1.608 1.725-1.608 1.725-2.996-1.73-5.841-3.826-7.677-5.261-1.324-1.033-1.508-2.985-.372-4.224 3.023-3.301 7.774-4.68 7.774-4.68.099.093.233.147.382.142.103-.004.22-.008.348-.004.497.004 1.175.066 2.021.268.117.406.274.788.488 1.128l-.513.27.103 1.326s-7.88 1.944-7.084 4.284" transform="translate(-202 -541) translate(202 541) translate(16 7)"/>
                    <path fill="#DB334A" d="M78.793 10.223c.788 1.548-.078 2.688-.134 2.758-.05-.012-.109-.022-.171-.028 0 0-.462.189-.394-.28 0 0 .373-.832-.317-1.349 0 0 .196-.71-.064-1.2-.03-.059-.083-.1-.144-.123-.388-.157-1.938-.705-3.285-.062-.284.136-.52.354-.704.612l-.058.082c-.12.169-.182.353-.188.541-.02.614-.014 1.175.01 1.682 0 0-.082-.011-.175.018l-.41-1.053c-.334-.996.44-1.303.44-1.303-.257-.67-.03-1.445-.03-1.445.35-1.662 2.75-1.577 3.575-1.5.237.024.472.086.678.207.983.575.891 1.854.891 1.854.175.101.48.589.48.589" transform="translate(-202 -541) translate(202 541) translate(16 7)"/>
                    <path fill="#CF7528" d="M73.81 42.994c-.406.132-.812.15-1.2.096-.399-.053-.775-.177-1.11-.329-.796-2.34 7.085-4.284 7.085-4.284l.17 2.171-3.654 1.715c-.305.144-.596.307-.893.465-.132.07-.264.124-.398.166" transform="translate(-202 -541) translate(202 541) translate(16 7)"/>
                    <path fill="#466EB6" d="M78.506 27.27c.116 1.561-.082 3.08-.216 4.632-.095 1.12-.14 2.596.217 3.85-.846-.201-1.524-.263-2.021-.267.163-1.335.406-2.669.497-4.005.14-2.06-.425-4.158-1.556-5.88-.493-.752-.95-1.435-1.559-2.1-.606-.656-1.282-1.386-1.713-2.173-.34-.621-.65-1.345-.742-2.056.154-.094.317-.167.49-.222l1.493-.474s-.194 3.086 2.653 3.434c0 0 .233.023.578-.021l.006.052c1.07 1.501 1.737 3.397 1.873 5.23" transform="translate(-202 -541) translate(202 541) translate(16 7)"/>
                    <path fill="#CF7528" d="M77.983 46.896c-.033.169-.083.334-.15.493-.054.136-.12.268-.194.396-.332-.429-.709-.839-1.068-1.198-.644-.648-1.384-1.19-2.17-1.656-1.712-1.016-1.791-1.841-1.791-1.841.388.054.794.036 1.2-.096 2.223.94 4.173 3.902 4.173 3.902" transform="translate(-202 -541) translate(202 541) translate(16 7)"/>
                    <path fill="#355389" d="M72.778 25.244l-.617.713c-1.998 0-3.426-2.377-3.426-2.377l1.779-3.37c.208-.394.52-.718.9-.94.09.712.401 1.436.741 2.057.431.787 1.107 1.517 1.713 2.174.61.664 1.066 1.347 1.56 2.099 1.13 1.722 1.695 3.82 1.555 5.88-.091 1.336-.334 2.67-.497 4.005-.128-.004-.245 0-.348.004-.15.005-.283-.049-.382-.142-.115-.105-.181-.262-.164-.435.375-3.886-2.814-9.668-2.814-9.668" transform="translate(-202 -541) translate(202 541) translate(16 7)"/>
                    <path fill="#FFFFFE" d="M76.719 13.806s.056 1.458-1.237 1.517c-.082.003-.165-.004-.245-.022-.313-.068-.963-.336-1-1.388 0 0 .856.83 2.482-.107" transform="translate(-202 -541) translate(202 541) translate(16 7)"/>
                    <path fill="#0A090B" d="M76.58 11.87c.112 0 .201.089.201.2 0 .11-.09.202-.2.202-.113 0-.202-.092-.202-.202 0-.111.09-.2.202-.2" transform="translate(-202 -541) translate(202 541) translate(16 7)"/>
                    <path fill="#0B0D11" d="M75.056 16.519c1.171.048 2.284-.901 2.284-.901s-.623 2.678-3.225 2.482v-1.964c.254.226.584.367.941.383" transform="translate(-202 -541) translate(202 541) translate(16 7)"/>
                    <path fill="#0A090B" d="M74.445 11.965c.11 0 .202.09.202.202 0 .11-.092.2-.202.2-.11 0-.202-.09-.202-.2 0-.113.091-.202.202-.202" transform="translate(-202 -541) translate(202 541) translate(16 7)"/>
                    <path fill="#EFA579" d="M73.431 13.994c-.569.096-.522-.687-.522-.687 0-.29.14-.395.26-.433.093-.03.175-.018.175-.018.019.418.05.798.087 1.138M72.162 25.957c-.192.389-.416.75-.66 1.082-.762 1.04-1.737 1.82-2.702 2.396-1.658.993-3.748-.31-3.616-2.239l.486-7.04c-.834-1.637.015-3.394.015-3.394l-.639-1.766c-.017-.046-.025-.093-.025-.14 0-.143.078-.281.212-.353.198-.109.446-.033.551.167l.905 1.728c.022.041.084.022.078-.023l-.257-2.402-.001-.043c0-.18.126-.344.306-.382.22-.05.433.093.474.312l.464 2.51c.014.067.111.071.128.003l.457-1.726c.04-.152.177-.257.332-.257l.031.002c.196.02.338.2.307.395l-.519 3.322c-.025.162.146.282.292.204l1.231-.664c.056-.03.116-.045.177-.045.143 0 .28.082.342.224.067.153.027.336-.107.44-.418.323-.837.843-1.055 1.13-.105.143-.246.251-.41.317l-.85.35c-.225.13-.377.738-.39.796l-.003.004c.032.179.059.37.084.565.187 1.412.266 3.164.272 3.311v.01l.035-.062.105-.185v-.002l.08-.137.12-.212.002-.006.322-.567s1.427 2.377 3.426 2.377" transform="translate(-202 -541) translate(202 541) translate(16 7)"/>
                    <path fill="#0A090B" d="M73.468 26.62c-.41-.608-.76-1.25-1.086-1.906-.16-.328-.314-.66-.451-1-.14-.34-.264-.687-.347-1.045.154.333.323.655.485.982l.487.978c.319.655.636 1.312.912 1.992M86.671 42.158c-.255-.025-.509-.069-.758-.088-.25-.02-.501-.017-.746.015-.244.034-.483.097-.702.202-.222.102-.42.247-.593.42l.023-.058v.006c0 .021-.01.04-.024.055-.162.162-.3.349-.417.551-.118.202-.214.42-.301.642.078-.47.26-.941.594-1.312l-.024.06v-.002c0-.021.007-.04.02-.055l.004-.004c.175-.2.394-.362.635-.477.242-.113.502-.183.766-.203.262-.023.525-.005.78.043.128.022.254.055.376.093.123.036.245.071.367.112M78.482 37.15c.085.57.148 1.141.208 1.712.062.571.109 1.144.156 1.716.042.572.084 1.145.11 1.719l.04.86.01.431c.005.144.02.285.027.43-.122-.565-.157-1.14-.226-1.71-.062-.57-.108-1.143-.155-1.715-.042-.573-.084-1.145-.11-1.72-.03-.573-.055-1.147-.06-1.722M70.137 41.893c.185.133.372.259.568.37.192.118.39.224.593.318.405.189.826.34 1.262.403.436.073.88.048 1.3-.085.21-.062.408-.17.617-.265.208-.09.414-.186.624-.27-.191.124-.388.236-.581.355-.196.109-.39.235-.61.32-.432.177-.92.21-1.379.137-.46-.072-.901-.237-1.3-.463-.402-.223-.775-.494-1.094-.82M74.903 13.128c.101.022.191.035.28.043.088.005.174.009.26 0 .084-.007.17-.02.258-.039.09-.018.179-.044.282-.062-.116.171-.315.274-.526.295-.21.014-.436-.061-.554-.237" transform="translate(-202 -541) translate(202 541) translate(16 7)"/>
                    <path fill="#DB334A" d="M73.631 11.726c.026-.122.088-.232.166-.33.078-.097.179-.177.291-.238.114-.06.243-.094.37-.093.129-.005.254.035.36.096-.125.018-.236.024-.342.055-.104.027-.205.061-.298.114-.191.097-.36.238-.547.396M76.101 10.978c.117-.054.243-.077.37-.083.126-.007.254.008.38.04.124.038.244.095.346.178.103.083.18.195.219.316-.105-.075-.199-.14-.301-.19-.104-.046-.208-.086-.317-.117-.22-.061-.448-.094-.697-.144" transform="translate(-202 -541) translate(202 541) translate(16 7)"/>
                    <path fill="#0A090B" d="M65.97 17.622c.115-.147.262-.266.42-.365.16-.1.334-.174.517-.226.182-.05.376-.067.565-.05.19.011.373.078.534.168-.187-.014-.361-.034-.537-.017-.173.015-.345.037-.512.087-.337.09-.658.235-.987.403" transform="translate(-202 -541) translate(202 541) translate(16 7)"/>
                    <path fill="#E7A164" d="M83.81 42.748c-.055 0-.098-.044-.098-.097 0-.054.043-.098.097-.098.054 0 .097.042.097.096v.002c0 .053-.043.097-.097.097" transform="translate(-202 -541) translate(202 541) translate(16 7)"/>
                    <path fill="#0A090B" d="M77.64 47.885c-.054 0-.098-.044-.098-.098 0-.053.044-.098.097-.098.054 0 .097.043.097.096v.002c0 .054-.043.098-.097.098" transform="translate(-202 -541) translate(202 541) translate(16 7)"/>
                    <path fill="#E08354" d="M67.575 25.624c-.253.1-.348-.974-.375-1.178-.054-.38-.074-.755-.107-1.142-.029-.355-.109-.695-.08-1.052.034-.398.088-.96.418-1.23.087-.071.187-.118.288-.16l-.003.003c.032.179.059.37.084.565.187 1.412.266 3.164.272 3.311v.01s-.222.764-.497.873M72.162 25.957c-.192.389-.416.75-.66 1.082-2.152-.428-2.995-1.826-3.29-2.535v-.002l.08-.137.12-.212.002-.006.322-.567s1.427 2.377 3.426 2.377" transform="translate(-202 -541) translate(202 541) translate(16 7)"/>
                    <path fill="#0A090B" d="M69.079 22.974c-.248.561-.528 1.104-.822 1.64-.294.534-.603 1.06-.986 1.545.22-.577.515-1.112.823-1.638.308-.527.63-1.046.985-1.547" transform="translate(-202 -541) translate(202 541) translate(16 7)"/>
                    <path fill="#E08354" d="M87.296 23.063c-.179.701-.771 2.205-2.67 3.4-.253-.372-.542-.838-.833-1.386 1.755-.708 2.913-2.81 2.913-2.81l.59.796" transform="translate(-202 -541) translate(202 541) translate(16 7)"/>
                    <path fill="#0A090B" d="M84.948 26.924c-.517-.573-.94-1.228-1.3-1.91-.356-.686-.645-1.41-.823-2.16.323.7.638 1.394.995 2.07.35.678.734 1.337 1.128 2" transform="translate(-202 -541) translate(202 541) translate(16 7)"/>
                </g>
            </g>
        </g>
    </g>
</svg>
