<svg xmlns="http://www.w3.org/2000/svg" xmlns:xlink="http://www.w3.org/1999/xlink" width="216" height="141" viewBox="0 0 216 141">
    <defs>
        <path id="tgve7oml1a" d="M0.448 0.543L46.144 0.543 46.144 37.903 0.448 37.903z"/>
        <path id="bu4656t68c" d="M0 0.24L45.696 0.24 45.696 37.6 0 37.6z"/>
        <path id="zc6fjf8due" d="M0 0.24L45.696 0.24 45.696 37.6 0 37.6z"/>
    </defs>
    <g fill="none" fill-rule="evenodd">
        <g>
            <g>
                <path fill="#EBF3FA" d="M13.242 140.029s-26.53-33.362-4.487-69.482c19.558-32.048 42.36-29.857 59.09-16.852 7.126 5.54 27.67.683 45.155-31.927 23.845-44.47 106.5-17.5 91.43 50.92-7.294 33.11 22.195 34.314 7.17 67.411l-198.358-.07z" transform="translate(-72 -244) translate(72 244)"/>
                <g transform="translate(-72 -244) translate(72 244) translate(19 7)">
                    <g transform="translate(22)">
                        <path fill="#82B378" d="M93.799 115.786s-5.86-6.837-.362-11.18c0 0 4.017-2.432 7.292-2.234 0 0-4.64 7.782-3.14 8.556 1.502.774 4.547-9.044 4.547-9.044s9.14-.887 12.08.527c0 0-7.813 6.394-6.168 6.775 1.646.38 10.086-5.896 10.086-5.896s8.508 1.448 8.054 6.638c-.453 5.19-3.385 6.792-4.673 6.654-1.288-.138-8.825-3.015-8.99-1.96-.164 1.057 4.373 4.507 7.55 4.668 0 0-5.998 6.615-9.984 4.706-3.986-1.91-4.327-4.936-6.811-6.07-2.485-1.135-4.607-1.133-3.58.025 1.025 1.157 5.522 2.282 6.943 4.796 1.422 2.514 2.697 4.209-1.428 3.588-4.124-.62-10.828-3.638-11.122-7.094l-.294-3.455z"/>
                        <path fill="#82B378" d="M122.008 110.068s-23.107-.89-28.21 5.718c0 0-1.128 3.38-4.6 6.457l-.542 1.476s4.004-4.222 5.437-4.478c0 0-2.24-8.187 27.915-9.173"/>
                        <path fill="#82B378" d="M89.197 122.243s-4.96 3.668-5.304 10.222l.9.08s1.584-6.776 4.447-9.426c2.864-2.65-.043-.876-.043-.876"/>
                        <path fill="#A8D29F" d="M33.419 59.937s8.964-5.02 4.78-11.833c0 0-3.346-4.184-6.932-5.26 0 0 1.913 10.16 0 10.4-1.912.238-1.315-11.475-1.315-11.475s-9.442-4.542-13.147-4.184c0 0 5.856 9.921 3.944 9.682-1.912-.24-8.486-10.28-8.486-10.28S2.58 35.196 1.027 40.933c-1.554 5.737.957 8.606 2.39 8.964 1.435.359 10.639.24 10.4 1.435-.24 1.195-6.455 3.107-9.921 2.032 0 0 3.825 9.442 8.845 8.964 5.02-.478 6.574-3.586 9.681-3.825 3.108-.239 5.379.598 3.825 1.435-1.554.836-6.813.274-9.323 2.408-2.51 2.134-4.542 3.448.12 4.405 4.661.956 13.028.358 14.701-3.228l1.674-3.585z"/>
                        <path fill="#82B378" d="M5.45 42.725s25.1 8.128 27.969 17.212c0 0-.12 4.063 2.39 8.725v1.793s-2.63-6.096-4.064-6.933c0 0 5.618-7.888-26.295-20.797"/>
                        <path fill="#82B378" d="M35.81 68.662s3.87 5.878 1.663 13.033l-.996-.267s.967-7.881-1.058-11.845c-2.025-3.964.39-.921.39-.921"/>
                        <path fill="#A8D29F" d="M88.14 99.988s-12.289-6.882-6.554-16.221c0 0 4.588-5.735 9.503-7.21 0 0-2.622 13.927 0 14.255 2.622.328 1.802-15.73 1.802-15.73s12.944-6.226 18.024-5.734c0 0-8.029 13.6-5.407 13.272 2.621-.328 11.633-14.091 11.633-14.091s13.272-2.458 15.402 5.407c2.13 7.864-1.311 11.797-3.277 12.288-1.966.492-14.583.328-14.255 1.967.328 1.638 8.848 4.26 13.6 2.785 0 0-5.244 12.944-12.125 12.289-6.882-.656-9.012-4.916-13.272-5.243-4.26-.328-7.373.819-5.243 1.966s9.339.375 12.78 3.3c3.44 2.926 6.226 4.728-.164 6.039-6.39 1.31-17.86.492-20.153-4.424l-2.294-4.915z"/>
                        <path fill="#82B378" d="M126.48 76.393S92.072 87.535 88.14 99.988c0 0 .164 5.57-3.277 11.96v2.458s3.605-8.356 5.57-9.503c0 0-7.7-10.814 36.047-28.51"/>
                        <path fill="#82B378" d="M84.863 111.949s-5.307 8.058-2.281 17.866l1.365-.366s-1.325-10.804 1.45-16.238c2.777-5.433-.534-1.262-.534-1.262"/>
                        <path fill="#FCECDB" d="M96.126 100.374h-11.62c-.322 0-.585-.263-.585-.584 0-.321.263-.584.584-.584h11.621c.321 0 .584.263.584.584 0 .321-.263.584-.584.584M96.126 102.663h-11.62c-.322 0-.585-.263-.585-.584 0-.322.263-.584.584-.584h11.621c.321 0 .584.262.584.584 0 .321-.263.584-.584.584"/>
                        <path fill="#AFCDFB" d="M102.278 3.863v125.822c0 1.971-1.615 3.585-3.588 3.585H35.772c-1.973 0-3.586-1.614-3.586-3.585V3.863c0-1.973 1.613-3.587 3.586-3.587H98.69c1.973 0 3.588 1.614 3.588 3.587"/>
                        <path fill="#5E92DD" d="M77.503 5.31h-18.22c-.39 0-.709-.319-.709-.709 0-.39.319-.709.709-.709h18.22c.39 0 .709.32.709.71 0 .39-.319.708-.709.708M56.047 5.31c-.39 0-.709-.319-.709-.709 0-.39.32-.709.709-.709.39 0 .709.32.709.71 0 .39-.32.708-.709.708"/>
                        <path fill="#95C0F4" d="M72.672 125.922c0 1.255-.507 2.393-1.326 3.219-.829.837-1.978 1.354-3.247 1.354-2.525 0-4.572-2.048-4.572-4.573 0-1.623.846-3.048 2.121-3.86.708-.45 1.55-.711 2.451-.711 2.525 0 4.573 2.046 4.573 4.571"/>
                        <path fill="#D2E3FC" d="M36.383 119.103L98.537 119.103 98.537 8.469 36.383 8.469z"/>
                        <rect width="55" height="11" x="40" y="11" fill="#C2D5F1" rx="3"/>
                        <rect width="55" height="8" x="40" y="109" fill="#C2D5F1" rx="3"/>
                        <rect width="55" height="2" x="40" y="24" fill="#C2D5F1" rx="1" transform="matrix(1 0 0 -1 0 50)"/>
                        <path fill="#8CBAF1" d="M71.346 129.14c-.829.838-1.978 1.355-3.247 1.355-2.525 0-4.572-2.048-4.572-4.573 0-1.623.846-3.048 2.121-3.86.449 1.947 1.777 5.203 5.698 7.079"/>
                    </g>
                    <rect width="26" height="24" x="62" y="29" fill="#C2D5F1" rx="1"/>
                    <rect width="27" height="24" x="90" y="29" fill="#C2D5F1" rx="1"/>
                    <rect width="26" height="24" x="62" y="55" fill="#C2D5F1" rx="1"/>
                    <rect width="27" height="24" x="90" y="55" fill="#C2D5F1" rx="1"/>
                    <rect width="26" height="24" x="62" y="82" fill="#C2D5F1" rx="1"/>
                    <rect width="27" height="24" x="90" y="82" fill="#C2D5F1" rx="1"/>
                    <g>
                        <path fill="#E47501" d="M57.773 86.866l36.435-45.429L45.696.811l-32.167 36.79-4.761 9.202c-1 1.144-.862 2.749.324 3.742L52.87 87.206c1.412 1.182 3.711 1.023 4.903-.34" transform="translate(0 46)"/>
                        <path fill="#FFF" d="M32.784 53.366L27.539 61.794 29.648 62.246 30.364 64.201 31.77 64.283 32.417 65.95 34.135 66.452 35.459 68.543 40.704 60.116z" transform="translate(0 46)"/>
                        <path fill="#FFCA9E" d="M92.622 40.109L59.945 76.47 13.529 37.6 45.696 0.812z" transform="translate(0 46)"/>
                        <g transform="translate(0 46) translate(59.497 39.566)">
                            <mask id="vrggpwjeob" fill="#fff">
                                <use xlink:href="#tgve7oml1a"/>
                            </mask>
                            <path fill="#FFE0C6" d="M33.125 0.543L0.448 36.904 13.978 37.903 46.144 1.114z" mask="url(#vrggpwjeob)"/>
                        </g>
                        <g transform="translate(0 46)">
                            <mask id="e0zliuxd3d" fill="#fff">
                                <use xlink:href="#bu4656t68c"/>
                            </mask>
                            <path fill="#407BFF" d="M32.677 0.24L0 36.601 13.529 37.6 45.696 0.811z" mask="url(#e0zliuxd3d)"/>
                        </g>
                        <g transform="translate(0 46)">
                            <mask id="8zgxk1burf" fill="#fff">
                                <use xlink:href="#zc6fjf8due"/>
                            </mask>
                            <path fill="#F6B885" d="M32.677 0.24L0 36.601 13.529 37.6 45.696 0.811z" mask="url(#8zgxk1burf)"/>
                        </g>
                        <path fill="#F6B279" d="M82.559 51.306L92.622 40.108 45.696 0.811 39.686 15.245z" transform="translate(0 46)"/>
                        <path fill="#FCE0C7" d="M13.529 37.6L45.696 0.811 39.686 15.245 17.038 40.539z" transform="translate(0 46)"/>
                    </g>
                </g>
            </g>
        </g>
    </g>
</svg>
