<svg xmlns="http://www.w3.org/2000/svg" xmlns:xlink="http://www.w3.org/1999/xlink" width="241" height="217" viewBox="0 0 241 217">
    <defs>
        <path id="tkwzbt7zpa" d="M0.183 0.286L40.063 0.286 40.063 48.155 0.183 48.155z"/>
    </defs>
    <g fill="none" fill-rule="evenodd">
        <g>
            <g>
                <g>
                    <path fill="#A2C7EA" d="M115.479 32.813c0 .427-.173.813-.453 1.093-.279.28-.666.454-1.093.454h-6.16v-3.093h6.16c.854 0 1.546.692 1.546 1.546M115.479 43.81c0 .427-.173.814-.453 1.094-.279.279-.666.452-1.093.452h-6.16v-3.093h6.16c.854 0 1.546.692 1.546 1.546" transform="translate(-55 -107) translate(55.9 107) translate(0 165.037)"/>
                    <path fill="#0E492F" d="M107.772 34.36L110.582 34.36 110.582 31.267 107.772 31.267zM107.772 45.355L110.582 45.355 110.582 42.263 107.772 42.263zM83.242 38.948c-25.532-.895-45.334-2.757-58.852-5.534-11.593-2.38-18.853-5.441-22.196-9.355C.477 22.05-.238 19.763.07 17.264.586 13.054 4.327 9.947 11.207 8c3.892-1.037 6.82-2.062 11.892-3.037 11.177-2.15 25.948-4.248 26-4 .02.09 2 1 2 1 3 0-15 2-27 5-6.863 1.715-11 3-12.366 3.436-4.619 1.331-8.788 3.534-9.233 7.164-.223 1.813.286 3.419 1.556 4.906 2.933 3.436 9.941 6.31 20.827 8.546 13.385 2.75 33.048 4.596 58.444 5.487l-.085 2.446z" transform="translate(-55 -107) translate(55.9 107) translate(0 165.037)"/>
                    <path fill="#71A7DC" d="M106.773 50.876H91.48c-6.94 0-12.565-5.626-12.565-12.565 0-6.94 5.625-12.565 12.565-12.565h15.292c.552 0 1 .448 1 1v23.13c0 .552-.448 1-1 1z" transform="translate(-55 -107) translate(55.9 107) translate(0 165.037)"/>
                </g>
                <g>
                    <path fill="#ECF6FF" d="M101.196 58.078C93.264 29.306 57.523 20.037 37.04 41.54c-.294.309-.589.623-.882.942C6.792 74.404 20.665 153.068 81.95 173.007c61.286 19.938 125.031-16.472 128.612-49.018 3.581-32.547-24.693-42.774-68.57-33.673-24.791 5.142-35.859-14.327-40.796-32.238" transform="translate(-55 -107) translate(55.9 107) translate(2.1) rotate(-21 116.113 104.213)"/>
                    <g fill="#0E492F">
                        <g>
                            <path d="M80.468 35.231c-.998.396-1.963.664-2.792.845l.087-.116c.587-.81 1.086-1.688 1.482-2.62 2.493-.905 5.324-2.689 6.222-6.189.863-3.364-.528-8.398-3.544-12.822-2.391-3.506-7.817-9.561-17.307-10.734C56.33 2.57 50.948 3.829 46.2 4.94c-4.036.943-7.848 1.833-12.512 1.017-3.426-.6-6.056-1.47-8.375-2.238-4.268-1.412-7.088-2.344-11.566-.51C6.196 6.304 2.827 19.129 2.795 19.258l-2.122-.543c.146-.57 3.67-14.02 12.244-17.533 5.227-2.141 8.695-.994 13.084.458 2.249.745 4.797 1.588 8.064 2.16 4.226.74 7.66-.063 11.635-.993C50.627 1.655 56.212.349 64.883 1.42c4.05.5 7.826 1.89 11.223 4.131 2.955 1.953 5.593 4.56 7.626 7.543 3.407 4.997 4.885 10.591 3.857 14.6-.88 3.436-3.343 6.042-7.12 7.536z" transform="translate(-55 -107) translate(55.9 107) translate(2.1) scale(1 -1) rotate(52 312.19 78.917)"/>
                        </g>
                    </g>
                    <path fill="#CCE1F7" d="M169.03 20.702c-8.2 1.335-10.473 8.6-4.142 13.753 2.092 1.704 5.081 3.119 9.339 3.826 16.218 2.69 24.823-4.485 18.323-13.789-4.012-5.742-15.394-5.113-23.52-3.79" transform="translate(-55 -107) translate(55.9 107) translate(2.1)"/>
                    <g>
                        <path fill="#6CD654" d="M19.517 4.12C14.419-2.438 6.953-.955 5.46 7.07c-.494 2.652-.306 5.953 1.113 10.03 5.402 15.527 15.822 19.647 20.877 9.485 3.12-6.271-2.88-15.964-7.933-22.464" transform="translate(-55 -107) translate(55.9 107) translate(2.1) translate(29.47 120.134)"/>
                        <path fill="#43B02A" d="M9.872.536c-1.042.471.658-.67 4.658 2.33s8.418 10.545 9 12c4 10 1.582 2.924 3 7 5.402 15.527-4.135 14.88.92 4.72 3.12-6.272-2.88-15.965-7.933-22.465C16.557.31 12.797-.786 9.872.536z" transform="translate(-55 -107) translate(55.9 107) translate(2.1) translate(29.47 120.134)"/>
                        <path fill="#54CD38" d="M42.57 55.572C37.85 50.814 27.539 39.662 21.043 27 11.72 8.829 2.371 10.453.537 16.877c-4.744 16.612 23.198 34.668 34.785 41.336l7.249-2.64z" transform="translate(-55 -107) translate(55.9 107) translate(2.1) translate(29.47 120.134)"/>
                        <path fill="#43B02A" d="M42.57 55.572C37.85 50.814 27.539 39.662 21.043 27 14.084 13.437 7.112 10.902 3.26 13.16c-1.308.767.254.698 2.271 1.706 4 2 18.088 24.527 23 29 7.643 6.962 1.27 11.17 6.792 14.347l7.249-2.64z" transform="translate(-55 -107) translate(55.9 107) translate(2.1) translate(29.47 120.134)"/>
                        <path fill="#0E492F" d="M41.402 49.177c-2.187-4.363-6.332-13.505-7.87-22.82-2.296-13.919-8.787-14.823-11.35-10.986-7.036 10.54 9.827 29.928 15.205 35.666l4.015-1.86z" transform="translate(-55 -107) translate(55.9 107) translate(2.1) translate(29.47 120.134)"/>
                    </g>
                    <path fill="#CCE1F7" d="M95.193 33.276c-1.015.682-2.395.411-3.077-.603-.682-1.016-.41-2.396.604-3.077 1.015-.682 2.395-.41 3.077.604.682 1.015.41 2.394-.604 3.076zm5.961.951l.466-2.374-2.224-.436c-.001-.584-.101-1.17-.294-1.737l1.832-1.231-1.349-2.009-1.753 1.179c-.523-.53-1.136-.938-1.8-1.211l.436-2.225-2.374-.465-.45 2.292c-.487.027-.972.12-1.444.281l-1.23-1.833-2.009 1.35 1.178 1.753c-.53.522-.938 1.136-1.211 1.8l-1.944-.38-.466 2.373 2.013.395c.034.62.173 1.24.427 1.831l-1.755 1.178 1.35 2.008 1.833-1.23c.525.457 1.126.801 1.768 1.027l-.44 2.237 2.374.466.476-2.426c.522-.057 1.04-.191 1.537-.405l1.178 1.754 2.008-1.35-1.231-1.832c.327-.375.596-.79.806-1.23l2.292.45zM214.557 45.403c-1.015.682-2.395.411-3.077-.603-.682-1.016-.412-2.396.603-3.077 1.016-.682 2.396-.41 3.078.604.681 1.015.41 2.395-.604 3.076zm5.96.951l.467-2.374-2.224-.436c-.002-.584-.101-1.17-.295-1.737l1.833-1.231-1.35-2.009-1.753 1.179c-.522-.53-1.136-.938-1.8-1.211l.437-2.225-2.374-.465-.45 2.292c-.487.027-.972.12-1.445.281l-1.23-1.833-2.008 1.35 1.177 1.754c-.53.521-.937 1.135-1.21 1.8l-1.945-.382-.466 2.374 2.013.395c.035.62.173 1.24.427 1.831l-1.754 1.178 1.349 2.008 1.833-1.23c.526.457 1.126.801 1.768 1.027l-.44 2.237 2.374.466.477-2.426c.521-.057 1.039-.191 1.536-.405l1.179 1.754 2.007-1.35-1.23-1.832c.327-.375.596-.79.806-1.23l2.292.45zM11.632 74.899c-1.015.682-2.395.41-3.077-.604-.682-1.015-.41-2.395.604-3.077 1.015-.681 2.395-.41 3.077.604.682 1.015.411 2.395-.604 3.077zm5.962.95l.465-2.373-2.224-.436c-.001-.585-.1-1.171-.294-1.738l1.832-1.23-1.349-2.01-1.753 1.18c-.522-.53-1.136-.938-1.8-1.212l.436-2.224-2.374-.466-.45 2.292c-.486.028-.971.12-1.444.282L7.41 66.08 5.4 67.43l1.179 1.754c-.53.522-.939 1.136-1.212 1.8l-1.944-.381-.466 2.373 2.013.395c.034.621.174 1.24.427 1.832L3.642 76.38l1.35 2.008 1.833-1.231c.526.458 1.126.802 1.768 1.027l-.44 2.238 2.374.466.476-2.426c.522-.058 1.04-.192 1.537-.406l1.178 1.754 2.008-1.349-1.23-1.832c.326-.376.595-.79.805-1.23l2.293.45z" transform="translate(-55 -107) translate(55.9 107) translate(2.1)"/>
                    <g transform="translate(-55 -107) translate(55.9 107) translate(2.1) translate(190.423 51.995)"/>
                    <path fill="#0E492F" d="M69.465 94.784c.811-7.598.179-14.94-3.602-13.13-3.784 1.813-2.458 14.429 2.688 22.75l1.073 3.249c-3.644-6.13-10.915-11.323-13.9-9.382-2.965 1.93 2.19 4.946 7.356 6.917 3.934 1.5 6.165 3.384 7.2 4.45l5.07 15.347c-5.798-9.69-17.283-17.875-22.005-14.804-4.706 3.06 3.472 7.848 11.67 10.976 6.197 2.363 9.733 5.327 11.392 7.026l1.011 3.06c.558-.092 1.116-.187 1.672-.286L73.058 112.7c.406-1.568 1.21-3.714 2.803-6.21 2.976-4.66 5.318-10.154 1.787-9.937-3.064.189-5.53 6.538-5.684 12.832l-2.086-6.314c-.313-2.064-.764-5.009-.413-8.287" transform="translate(-55 -107) translate(55.9 107) translate(2.1)"/>
                    <path fill="#43B02A" d="M123.09 24.247c0 1.29 1.049 2.339 2.339 2.339 1.289 0 2.338-1.05 2.338-2.339 0-1.29-1.05-2.339-2.338-2.339-1.29 0-2.339 1.05-2.339 2.34m-1.069 0c0-1.88 1.529-3.409 3.408-3.409s3.407 1.53 3.407 3.408c0 1.879-1.528 3.407-3.407 3.407-1.88 0-3.408-1.528-3.408-3.407" transform="translate(-55 -107) translate(55.9 107) translate(2.1)"/>
                    <path fill="#0E492F" d="M130.699 55.96c.295 0 .535-.239.535-.534v-2.358c0-.295-.24-.534-.535-.534-.295 0-.535.239-.535.534v2.358c0 .295.24.534.535.534M130.699 60.085c.295 0 .535-.24.535-.534v-2.358c0-.295-.24-.534-.535-.534-.295 0-.535.239-.535.534v2.358c0 .295.24.534.535.534M127.39 56.844h2.118c.295 0 .535-.24.535-.534 0-.296-.24-.535-.535-.535h-2.118c-.295 0-.534.24-.534.535 0 .295.24.534.534.534M131.89 56.844h2.118c.295 0 .535-.24.535-.534 0-.296-.24-.535-.535-.535h-2.118c-.295 0-.534.24-.534.535 0 .295.24.534.534.534" transform="translate(-55 -107) translate(55.9 107) translate(2.1)"/>
                    <path fill="#6FA9DD" d="M145.085 40.256c.295 0 .535-.24.535-.535v-2.357c0-.295-.24-.535-.535-.535-.295 0-.534.24-.534.535v2.357c0 .295.24.535.534.535M145.085 44.38c.295 0 .535-.239.535-.534v-2.357c0-.296-.24-.535-.535-.535-.295 0-.534.24-.534.535v2.357c0 .295.24.535.534.535M141.776 41.14h2.118c.295 0 .535-.24.535-.535 0-.295-.24-.535-.535-.535h-2.118c-.294 0-.534.24-.534.535 0 .295.24.535.534.535M146.276 41.14h2.118c.295 0 .535-.24.535-.535 0-.295-.24-.535-.535-.535h-2.118c-.295 0-.534.24-.534.535 0 .295.24.535.534.535" transform="translate(-55 -107) translate(55.9 107) translate(2.1)"/>
                    <path fill="#0E492F" d="M50.489 37.313c0 1.289 1.049 2.338 2.338 2.338 1.29 0 2.339-1.05 2.339-2.338 0-1.29-1.049-2.34-2.339-2.34s-2.338 1.05-2.338 2.34m-1.07 0c0-1.88 1.53-3.408 3.408-3.408 1.88 0 3.407 1.529 3.407 3.408 0 1.878-1.528 3.407-3.407 3.407s-3.407-1.529-3.407-3.407" transform="translate(-55 -107) translate(55.9 107) translate(2.1)"/>
                    <path fill="#43B02A" d="M27.459 46.485c.295 0 .535-.24.535-.535v-2.357c0-.295-.24-.535-.535-.535-.295 0-.535.24-.535.535v2.357c0 .296.24.535.535.535M27.459 50.61c.295 0 .535-.24.535-.535v-2.357c0-.295-.24-.534-.535-.534-.295 0-.535.239-.535.534v2.357c0 .296.24.535.535.535M24.15 47.369h2.118c.295 0 .535-.24.535-.535 0-.295-.24-.534-.535-.534h-2.117c-.296 0-.535.24-.535.534 0 .295.24.535.535.535M28.65 47.369h2.118c.295 0 .534-.24.534-.535 0-.295-.24-.534-.534-.534H28.65c-.295 0-.534.24-.534.534 0 .295.239.535.534.535" transform="translate(-55 -107) translate(55.9 107) translate(2.1)"/>
                    <path fill="#6FA9DD" d="M37.04 24.437c.296 0 .535-.239.535-.534v-2.357c0-.296-.239-.535-.534-.535-.295 0-.535.24-.535.535v2.357c0 .295.24.534.535.534M37.04 28.562c.296 0 .535-.239.535-.534V25.67c0-.296-.239-.535-.534-.535-.295 0-.535.24-.535.535v2.357c0 .295.24.534.535.534M33.732 25.321h2.118c.295 0 .534-.239.534-.534 0-.296-.24-.535-.534-.535h-2.118c-.295 0-.534.24-.534.535 0 .295.24.534.534.534M38.232 25.321h2.118c.295 0 .534-.239.534-.534 0-.296-.24-.535-.534-.535h-2.118c-.295 0-.534.24-.534.535 0 .295.239.534.534.534" transform="translate(-55 -107) translate(55.9 107) translate(2.1)"/>
                </g>
                <path fill="#0E492F" d="M135.844 125.169h8.688l8.81-5.739c2.166-3.404 4.062-7.125 3.707-9.29-.779-4.745-5.543-9.82-1.817-13.44 3.726-3.622 7.325-9.762 1.44-15.43-5.885-5.667-3.559-19.686-3.559-19.686s-8.164 6.766-6.869 17.405c1.296 10.64-1.576 9.985-7.099 15.13-5.524 5.145-9.305 7.424-3.616 18.51 2.126 4.142 1.708 8.629.315 12.54" transform="translate(-55 -107) translate(55.9 107)"/>
                <path fill="#43B02A" d="M168.562 125.169c1.018-.847 2.167-1.611 3.463-2.272 16.518-8.419 13.94-14.463 11.756-25.48-2.183-11.018-6.218-12.729 4.612-24.436 10.828-11.707 6.87-26.98 6.87-26.98s-9.401 18.938-21.438 20.65c-12.037 1.714-13.041 12.255-11.7 19.87 1.341 7.613-8.824 9.586-13.897 14.633-3.669 3.65-3.914 16.94-3.77 24.015h24.104z" transform="translate(-55 -107) translate(55.9 107)"/>
                <path fill="#58C33F" d="M168.1 125c.81-.792 7.79-4.337 8.822-4.954 13.14-7.87 11.089-13.52 9.352-23.817-1.737-10.299-4.947-11.898 3.668-22.84 8.614-10.944 5.465-25.22 5.465-25.22s-7.478 17.702-17.054 19.303c-9.575 1.601-10.374 11.455-9.307 18.572 1.067 7.116-7.02 8.96-11.055 13.678-2.918 3.411-3.113 15.834-2.998 22.447L168.099 125zM167.705 174.06c4.35-5.098 13.797-16.993 19.325-30.106 7.934-18.82 17.377-17.9 19.689-11.633 5.976 16.21-20.534 36.31-31.588 43.83l-7.426-2.09z" transform="translate(-55 -107) translate(55.9 107)"/>
                <path fill="#43B02A" d="M167.705 174.06c4.35-5.098 13.797-16.993 19.325-30.106 7.163-16.99 14.49-19.06 18.51-13.854.33.428.676 1.082.96 1.684.087.187.136.369.219.537.347.703-5.723-3.414-9.62 5.679-3 7-8.794 19.534-11 23-7 11-4.507 10.756-10.968 15.15l-7.426-2.09z" transform="translate(-55 -107) translate(55.9 107)"/>
                <path fill="#0E492F" d="M169.391 167.596c1.853-4.515 5.302-13.942 6.136-23.346 1.246-14.052 7.651-15.441 10.494-11.806 7.807 9.982-7.555 30.58-12.488 36.706l-4.142-1.554z" transform="translate(-55 -107) translate(55.9 107)"/>
                <g transform="translate(-55 -107) translate(55.9 107) translate(55.1 55)">
                    <path fill="#F6E552" d="M76.797 14.329c15.6 18.698 26.429 33.961 32.483 45.789 5.86 11.447 11.14 27.276 15.836 47.486 1.876 8.07-3.145 16.131-11.215 18.007-1.113.258-2.252.389-3.395.389H20.23c-8.284 0-15-6.716-15-15 0-1.545.24-3.08.708-4.552 6.397-20.086 12.36-35.53 17.889-46.33 5.747-11.228 15.536-26.249 29.365-45.064 4.906-6.675 14.295-8.109 20.97-3.202.974.716 1.859 1.548 2.634 2.477z"/>
                    <circle cx="66" cy="103" r="8" fill="#FFF"/>
                    <path fill="#FFF" d="M55.721 40.172c6.886-1.703 12.843-1.55 17.87.458 0 0 1.633 27.713-1.632 45.645 0 0-8.163 1.63-12.245 0l-5.497-43.913c-.126-1.006.52-1.947 1.504-2.19z"/>
                </g>
                <path fill="#71A7DC" d="M172.956 211.13h-15.292c-6.94 0-12.565-5.626-12.565-12.566 0-6.939 5.626-12.564 12.565-12.564h15.292c.552 0 1 .448 1 1v23.13c0 .552-.448 1-1 1z" transform="translate(-55 -107) translate(55.9 107) scale(-1 1) rotate(-21 0 1059.299)"/>
            </g>
        </g>
    </g>
</svg>
