<svg xmlns="http://www.w3.org/2000/svg" xmlns:xlink="http://www.w3.org/1999/xlink" width="28" height="28" viewBox="0 0 28 28">
    <defs>
        <circle id="p9r6nlcjca" cx="14" cy="14" r="14"/>
        <mask id="oyltzw7mtb" width="28" height="28" x="0" y="0" fill="#fff" maskContentUnits="userSpaceOnUse" maskUnits="objectBoundingBox">
            <use xlink:href="#p9r6nlcjca"/>
        </mask>
    </defs>
    <g fill="none" fill-rule="evenodd">
        <g>
            <g>
                <g transform="translate(-16 -80) translate(0 74) translate(16 6)">
                    <circle cx="14" cy="14" r="11" fill="#43B02A"/>
                    <g fill="#FFF" fill-rule="nonzero" transform="translate(8 8)">
                        <circle cx="5.99" cy="5.993" r="2.484" transform="rotate(-9.208 5.99 5.993)"/>
                        <path d="M5.895 2.316c.349 0 .631-.27.631-.602V.602C6.526.269 6.244 0 5.895 0c-.35 0-.632.27-.632.602v1.112c0 .332.283.602.632.602zM2.601 3.411c.224.224.586.224.81 0 .224-.224.224-.586 0-.81l-.749-.749c-.224-.224-.586-.224-.81 0-.224.224-.224.586 0 .81l.75.75zM2.316 5.895c0-.35-.27-.632-.602-.632H.602c-.333 0-.602.283-.602.632 0 .349.27.631.602.631h1.112c.332 0 .602-.282.602-.631zM2.601 8.589l-.749.749c-.224.224-.224.586 0 .81.224.224.586.224.81 0l.75-.75c.223-.223.223-.585 0-.81-.225-.223-.587-.223-.81 0zM5.895 9.684c-.35 0-.632.27-.632.602v1.112c0 .333.283.602.632.602.349 0 .631-.27.631-.602v-1.112c0-.332-.282-.602-.631-.602zM10.148 10.148c.224-.224.224-.586 0-.81l-.75-.75c-.223-.223-.585-.223-.81 0-.223.224-.223.587 0 .81l.75.75c.224.224.586.224.81 0zM9.684 5.895c0 .349.27.631.602.631h1.112c.333 0 .602-.282.602-.631 0-.35-.27-.632-.602-.632h-1.112c-.332 0-.602.283-.602.632zM9.399 3.411l.749-.749c.224-.224.224-.586 0-.81-.224-.224-.586-.224-.81 0l-.75.75c-.223.223-.223.585 0 .81.224.223.587.223.81 0z"/>
                    </g>
                    <use stroke="#43B02A" stroke-dasharray="1" mask="url(#oyltzw7mtb)" xlink:href="#p9r6nlcjca"/>
                </g>
            </g>
        </g>
    </g>
</svg>
