<?xml version="1.0" encoding="UTF-8"?>
<svg width="16px" height="14px" viewBox="0 0 16 14" version="1.1" xmlns="http://www.w3.org/2000/svg" xmlns:xlink="http://www.w3.org/1999/xlink">
    <title>1671073</title>
    <g id="Page-1" stroke="none" stroke-width="1" fill="none" fill-rule="evenodd">
        <g id="4.1-my-shop-nav" transform="translate(-54.000000, -611.000000)" fill-rule="nonzero">
            <g id="inventory-bottom" transform="translate(0.000000, 600.000000)">
                <g id="Group-11" transform="translate(40.000000, 11.000000)">
                    <g id="1671073" transform="translate(14.000000, 0.000000)">
                        <path d="M11.1168125,0 L2.25,0 C1.01015625,0 0,1.01015625 0,2.25 L0,13.53125 C0,13.790125 0.20990625,14 0.46875,14 L9.69028125,14 C9.94846875,14 10.1590313,13.7894375 10.1590313,13.53125 C10.1588438,9.11975 10.15625,6.708375 10.15625,2.296875 C10.15625,1.42803125 10.5107813,0.60234375 11.1168125,0 Z M1.87603125,7.5 C1.61784375,7.5 1.40728125,7.2894375 1.40728125,7.03125 C1.40728125,6.7730625 1.617875,6.5625 1.87603125,6.5625 C2.1341875,6.5625 2.34478125,6.7730625 2.34478125,7.03125 C2.3448125,7.28940625 2.13421875,7.5 1.87603125,7.5 Z M1.87603125,5.625 C1.61784375,5.625 1.40728125,5.41440625 1.40728125,5.15625 C1.40728125,4.89809375 1.617875,4.6875 1.87603125,4.6875 C2.1341875,4.6875 2.34478125,4.8980625 2.34478125,5.15625 C2.34478125,5.4144375 2.13421875,5.625 1.87603125,5.625 Z M1.87603125,3.75 C1.61784375,3.75 1.40728125,3.53940625 1.40728125,3.28125 C1.40728125,3.02309375 1.617875,2.8125 1.87603125,2.8125 C2.1341875,2.8125 2.34478125,3.0230625 2.34478125,3.28125 C2.34478125,3.5394375 2.13421875,3.75 1.87603125,3.75 Z M8.28228125,7.5 L3.75103125,7.5 C3.49215625,7.5 3.28228125,7.290125 3.28228125,7.03125 C3.28228125,6.772375 3.49215625,6.5625 3.75103125,6.5625 L8.28228125,6.5625 C8.54115625,6.5625 8.75103125,6.772375 8.75103125,7.03125 C8.75103125,7.290125 8.54115625,7.5 8.28228125,7.5 Z M8.28228125,5.625 L3.75103125,5.625 C3.49215625,5.625 3.28228125,5.415125 3.28228125,5.15625 C3.28228125,4.897375 3.49215625,4.6875 3.75103125,4.6875 L8.28228125,4.6875 C8.54115625,4.6875 8.75103125,4.897375 8.75103125,5.15625 C8.75103125,5.415125 8.54115625,5.625 8.28228125,5.625 Z M8.28228125,3.75 L3.75103125,3.75 C3.49215625,3.75 3.28228125,3.540125 3.28228125,3.28125 C3.28228125,3.022375 3.49215625,2.8125 3.75103125,2.8125 L8.28228125,2.8125 C8.54115625,2.8125 8.75103125,3.022375 8.75103125,3.28125 C8.75103125,3.540125 8.54115625,3.75 8.28228125,3.75 Z" id="Shape" fill="#000"></path>
                        <path d="M15.013125,0.67434375 C14.5970625,0.25828125 14.02275,0 13.390625,0 C12.7585,0 12.1841563,0.25825 11.7680938,0.67434375 C11.352,1.09040625 11.09375,1.66475 11.09375,2.296875 L11.09375,8.1874375 C11.09375,8.4463125 11.303625,8.6561875 11.5625,8.6561875 L15.21875,8.6561875 C15.477625,8.6561875 15.6875,8.4463125 15.6875,8.1874375 L15.6875,2.296875 C15.6875,1.66478125 15.4292188,1.0904375 15.013125,0.67434375 Z" id="Path" fill="#000"></path>
                        <path d="M1.87603125,10.275 C2.1341875,10.275 2.34478125,10.4855625 2.34478125,10.74375 C2.34478125,11.0019375 2.13421875,11.2125 1.87603125,11.2125 C1.61784375,11.2125 1.40728125,11.0019062 1.40728125,10.74375 C1.40728125,10.4855937 1.617875,10.275 1.87603125,10.275 Z M8.28228125,10.275 C8.54115625,10.275 8.75103125,10.484875 8.75103125,10.74375 C8.75103125,11.002625 8.54115625,11.2125 8.28228125,11.2125 L3.75103125,11.2125 C3.49215625,11.2125 3.28228125,11.002625 3.28228125,10.74375 C3.28228125,10.484875 3.49215625,10.275 3.75103125,10.275 L8.28228125,10.275 Z M1.87603125,8.4 C2.1341875,8.4 2.34478125,8.6105625 2.34478125,8.86875 C2.34478125,9.1269375 2.13421875,9.3375 1.87603125,9.3375 C1.61784375,9.3375 1.40728125,9.12690625 1.40728125,8.86875 C1.40728125,8.61059375 1.617875,8.4 1.87603125,8.4 Z M8.28228125,8.4 C8.54115625,8.4 8.75103125,8.609875 8.75103125,8.86875 C8.75103125,9.127625 8.54115625,9.3375 8.28228125,9.3375 L3.75103125,9.3375 C3.49215625,9.3375 3.28228125,9.127625 3.28228125,8.86875 C3.28228125,8.609875 3.49215625,8.4 3.75103125,8.4 L8.28228125,8.4 Z" id="Combined-Shape" fill="#000"></path>
                    </g>
                </g>
            </g>
        </g>
    </g>
</svg>