<svg xmlns="http://www.w3.org/2000/svg" width="14" height="14" viewBox="0 0 14 14">
    <g fill="none" fill-rule="evenodd">
        <g fill="#9E9E9E" fill-rule="nonzero">
            <g>
                <path d="M8.443 0L.001 0 .151 2.276 8.299 2.276zM3.26 10.63c-.34-1.504-.113-3.03.623-4.19.57-.897 1.414-1.508 2.378-1.72.253-.055.512-.084.77-.084.263 0 .528.03.792.088v-.515c0-.388.063-.762.18-1.11H.207l.722 10.9h4.471c-.087-.062-.172-.128-.256-.198-.925-.767-1.593-1.894-1.883-3.172z" transform="translate(-292 -1045) translate(292 1045)"/>
                <path d="M11.466 5.495c-.147-.033-.295-.053-.443-.061-.567.4-1.259.635-2.005.635H7.823v-.528c-.467-.131-.934-.147-1.391-.046-.756.166-1.424.653-1.88 1.37-.623.982-.812 2.29-.518 3.59.25 1.108.824 2.08 1.615 2.736.82.68 1.774.944 2.688.743.211-.046.416-.117.612-.212.195.095.4.166.612.212.2.044.401.066.603.066.721 0 1.444-.277 2.085-.809.79-.656 1.364-1.628 1.615-2.737.294-1.298.104-2.607-.52-3.589-.455-.717-1.122-1.204-1.878-1.37zM8.697 5.168h.24c1.483 0 2.686-1.203 2.686-2.686v-.85h-.24c-1.484 0-2.686 1.202-2.686 2.686v.85z" transform="translate(-292 -1045) translate(292 1045)"/>
            </g>
        </g>
    </g>
</svg>
