<svg xmlns="http://www.w3.org/2000/svg" width="16" height="16" viewBox="0 0 16 16">
    <g fill="none" fill-rule="evenodd">
        <g>
            <g>
                <g fill="#E4DEFF">
                    <path d="M7.992 0C3.585 0 0 3.585 0 7.992c0 4.406 3.585 7.991 7.992 7.991 4.406 0 7.991-3.585 7.991-7.991C15.983 3.585 12.398 0 7.992 0z" transform="translate(-16 -556) translate(16 556)"/>
                </g>
                <path fill="#5445BD" d="M12.458 5.889l-5.107 5.067c-.3.3-.781.32-1.102.02L3.545 8.512c-.32-.3-.34-.8-.06-1.121.3-.32.801-.34 1.122-.04L6.75 9.314l4.567-4.567c.32-.32.82-.32 1.141 0 .32.32.32.821 0 1.142z" transform="translate(-16 -556) translate(16 556)"/>
            </g>
        </g>
    </g>
</svg>
