<svg xmlns="http://www.w3.org/2000/svg" width="12" height="12" viewBox="0 0 12 12">
    <g fill="none" fill-rule="evenodd">
        <g fill="#43B02A" fill-rule="nonzero">
            <g>
                <g>
                    <path d="M11.34 8.253c-.82 0-1.613-.133-2.353-.373-.237-.08-.498-.018-.674.16L7.267 9.353c-1.887-.9-3.654-2.6-4.594-4.553l1.3-1.107c.18-.186.234-.446.16-.68C3.887 2.273 3.76 1.48 3.76.66 3.76.3 3.46 0 3.1 0H.793C.433 0 0 .16 0 .66 0 6.853 5.153 12 11.34 12c.473 0 .66-.42.66-.787v-2.3c0-.36-.3-.66-.66-.66z" transform="translate(-333 -573) translate(17 562) translate(316 11)"/>
                </g>
            </g>
        </g>
    </g>
</svg>
