<svg xmlns="http://www.w3.org/2000/svg" width="244" height="180" viewBox="0 0 244 180">
    <g fill="none" fill-rule="evenodd">
        <g>
            <g>
                <g>
                    <path fill="#ECF6FF" d="M19.01 148.966s-30.072-35.491-5.086-73.917c22.17-34.093 48.018-31.762 66.982-17.927 8.078 5.893 31.364.726 51.185-33.965C159.12-24.152 252.814 4.541 235.73 77.327c-8.267 35.224 8.92 47.964 7.26 70.076-4.42 18.777-33.075 37.929-67.728 11.02-22.18-17.222-54.897 21.94-102.292 21.574-15.296-.005-30.781-7.758-46.457-23.26" transform="translate(-58 -150) translate(58 150)"/>
                    <g>
                        <g>
                            <path fill="#82B378" d="M123.094 93.944s-4.374 3.252-5.226 3.054c-.853-.197 3.196-3.51 3.196-3.51-1.523-.733-6.26-.273-6.26-.273s-1.577 5.087-2.355 4.686c-.778-.401 1.626-4.434 1.626-4.434-1.697-.102-3.778 1.158-3.778 1.158-2.85 2.25.187 5.793.187 5.793s-.585 1.751-2.383 3.346c0 0-2.57 1.9-2.75 5.295l.468.043s.74-3.163 2.082-4.66l.223-.226c.218-.202.372-.355.475-.468.668-.642 1.593-1.46 2.038-1.54 0 0-.022-.082-.02-.224l.02.225c.152 1.79 3.626 3.353 5.763 3.674 2.136.323 1.476-.556.74-1.859-.736-1.302-3.067-1.884-3.599-2.484-.53-.6.568-.601 1.856-.013 1.287.588 1.463 2.155 3.529 3.145 2.065.989 5.173-2.438 5.173-2.438-1.646-.084-3.996-1.872-3.912-2.419.085-.546 3.99.944 4.658 1.015.668.072 2.186-.759 2.421-3.447.235-2.689-4.172-3.44-4.172-3.44" transform="translate(-58 -150) translate(58 150) translate(0 50)"/>
                            <path fill="#A8D29F" d="M99.868 95.963s4.83-2.705 2.576-6.376c0 0-1.803-2.254-3.735-2.834 0 0 1.03 5.474 0 5.603-1.031.129-.709-6.183-.709-6.183s-5.088-2.447-7.085-2.254c0 0 3.156 5.346 2.126 5.217-1.03-.13-4.573-5.538-4.573-5.538s-5.216-.966-6.054 2.124c-.837 3.092.515 4.637 1.289 4.831.772.193 5.731.129 5.603.772-.129.645-3.479 1.675-5.346 1.096 0 0 2.061 5.087 4.766 4.83 2.705-.258 3.542-1.933 5.216-2.061 1.675-.129 2.898.322 2.062.773-.838.45-3.671.148-5.024 1.297-1.352 1.15-2.448 1.859.065 2.374 2.51.515 7.02.193 7.92-1.739l.903-1.932" transform="translate(-58 -150) translate(58 150) translate(0 50)"/>
                            <path fill="#82B378" d="M101.156 100.664c-1.353-2.512-1.288-4.7-1.288-4.7-1.546-4.896-15.07-9.276-15.07-9.276 17.195 6.957 14.168 11.207 14.168 11.207.463.27 1.159 1.559 1.64 2.548.07.169.178.402.34.717.065.143.118.26.153.342.886 2.216.417 6.04.417 6.04l.537.145c1.188-3.855-.897-7.023-.897-7.023" transform="translate(-58 -150) translate(58 150) translate(0 50)"/>
                            <path fill="#A8D29F" d="M107.552 92.233s-6.367-3.567-3.396-8.405c0 0 2.377-2.972 4.924-3.736 0 0-1.358 7.216 0 7.386 1.358.17.934-8.15.934-8.15s6.707-3.226 9.339-2.972c0 0-4.16 7.047-2.801 6.877 1.358-.17 6.026-7.3 6.026-7.3s6.877-1.274 7.981 2.8c1.103 4.076-.679 6.114-1.698 6.368-1.018.255-7.555.17-7.386 1.018.17.85 4.584 2.208 7.047 1.444 0 0-2.717 6.707-6.283 6.367-3.566-.34-4.669-2.547-6.876-2.716-2.207-.17-3.82.424-2.716 1.019 1.103.593 4.838.194 6.621 1.71 1.782 1.516 3.226 2.449-.085 3.128-3.31.68-9.254.255-10.442-2.292l-1.189-2.546" transform="translate(-58 -150) translate(58 150) translate(0 50)"/>
                            <path fill="#82B378" d="M127.418 80.007s-17.829 5.773-19.866 12.226c0 0 .085 2.886-1.698 6.196 0 0-2.749 4.176-1.182 9.258l.707-.19s-.617-5.043.55-7.963c.047-.107.116-.262.202-.45.213-.417.357-.724.447-.946.636-1.303 1.551-3.003 2.163-3.359 0 0-3.99-5.603 18.677-14.772" transform="translate(-58 -150) translate(58 150) translate(0 50)"/>
                            <path fill="#F1A34F" d="M94.865 106.235c0 6.889 5.585 12.473 12.473 12.473 6.888 0 12.472-5.584 12.472-12.473H94.865" transform="translate(-58 -150) translate(58 150) translate(0 50)"/>
                            <path fill="#F1A34F" d="M118.443 117.941h-22.21c-.85 0-1.54.69-1.54 1.54h25.29c0-.85-.69-1.54-1.54-1.54" transform="translate(-58 -150) translate(58 150) translate(0 50)"/>
                            <path fill="#D86713" d="M119.902 106.618H94.647c-.106 0-.191-.085-.191-.19 0-.107.085-.193.19-.193h25.256c.106 0 .192.086.192.192 0 .106-.086.191-.192.191" transform="translate(-58 -150) translate(58 150) translate(0 50)"/>
                            <path fill="#4A75CB" d="M146.982 119.48h48.508c1.521 0 2.765-1.245 2.765-2.765V19.71c0-1.52-1.244-2.765-2.765-2.765h-48.508c-1.52 0-2.765 1.245-2.765 2.765v97.005c0 1.52 1.245 2.766 2.765 2.766" transform="translate(-58 -150) translate(58 150) translate(0 50)"/>
                            <path fill="#699FF0" d="M141.744 119.48h48.508c1.52 0 2.765-1.245 2.765-2.765V19.71c0-1.52-1.244-2.765-2.765-2.765h-48.508c-1.52 0-2.766 1.245-2.766 2.765v97.005c0 1.52 1.246 2.766 2.766 2.766" transform="translate(-58 -150) translate(58 150) translate(0 50)"/>
                            <path fill="#4A75CB" d="M158.079 21.92h14.047c.3 0 .546-.246.546-.547 0-.3-.245-.547-.546-.547h-14.047c-.3 0-.547.246-.547.547 0 .3.246.547.547.547M174.62 21.92c.3 0 .547-.246.547-.547 0-.3-.246-.547-.546-.547-.3 0-.547.246-.547.547 0 .3.246.547.547.547M168.854 113.814c0-1.946-1.578-3.524-3.525-3.524-1.947 0-3.525 1.578-3.525 3.524 0 1.948 1.578 3.526 3.525 3.526 1.947 0 3.525-1.578 3.525-3.526" transform="translate(-58 -150) translate(58 150) translate(0 50)"/>
                            <path fill="#FFF" d="M143.591 108.01L188.519 108.01 188.519 25.076 143.591 25.076z" transform="translate(-58 -150) translate(58 150) translate(0 50)"/>
                            <path fill="#4A75CB" d="M54.324 27.562H97.81c1.364 0 2.479 1.115 2.479 2.479V117c0 1.364-1.115 2.48-2.479 2.48H54.324c-1.363 0-2.479-1.116-2.479-2.48v-86.96c0-1.364 1.116-2.479 2.48-2.479" transform="translate(-58 -150) translate(58 150) translate(0 50)"/>
                            <path fill="#699FF0" d="M59.02 27.562h43.486c1.363 0 2.478 1.115 2.478 2.479V117c0 1.364-1.115 2.48-2.478 2.48H59.02c-1.363 0-2.479-1.116-2.479-2.48v-86.96c0-1.364 1.116-2.479 2.479-2.479" transform="translate(-58 -150) translate(58 150) translate(0 50)"/>
                            <path fill="#FFF" d="M58.274 109.393L103.149 109.393 103.149 34.911 58.274 34.911z" transform="translate(-58 -150) translate(58 150) translate(0 50)"/>
                            <path fill="#4A75CB" d="M75.27 31.041h12.592c.27 0 .49.22.49.49s-.22.49-.49.49H75.269c-.27 0-.49-.22-.49-.49s.22-.49.49-.49M73.032 31.041c.27 0 .49.22.49.49s-.22.49-.49.49c-.268 0-.49-.22-.49-.49s.222-.49.49-.49M80.712 112.543c1.385 0 2.508 1.124 2.508 2.509 0 1.386-1.123 2.51-2.508 2.51-1.386 0-2.51-1.124-2.51-2.51 0-1.385 1.124-2.509 2.51-2.509" transform="translate(-58 -150) translate(58 150) translate(0 50)"/>
                            <path fill="#163560" d="M6.188 119.42s-4.05.147-4.65 0c-.025-.112-.773-4.835-.773-4.835l-.622-4.368c-.087-.61.643-1.014 1.096-.595.222.206.429.504.572.937.51 1.537 2.012 4.016 4.24 4.663 2.346.68.137 4.198.137 4.198" transform="translate(-58 -150) translate(58 150) translate(0 50)"/>
                            <path fill="#E49963" d="M27.308 97.525l-.398.14s-1.043-1.762-3.175-1.05c0 0-.851.357-.346.822.505.467.38.226 1.077.895.698.67 1.65 1.008 2.305.781l.727-.256-.19-1.332" transform="translate(-58 -150) translate(58 150) translate(0 50)"/>
                            <path fill="#163560" d="M45.267 112.295s-14.86-11.354-19.086-11.478c-4.228-.124-17.94 18.643-17.94 18.643h5.135s9.048-4.814 12.23-9.39c.32-.46 1.005-.44 1.302.035 1.646 2.63 5.947 9.078 8.729 9.355 2.986.299 9.63-7.165 9.63-7.165" transform="translate(-58 -150) translate(58 150) translate(0 50)"/>
                            <path fill="#FFB27D" d="M43.845 81.4s.094.743.214 1.662c.161 1.194.376 2.675.516 3.137l4.471 1.133.329-3.25s-1.12-2.247-1.113-5.423L43.845 81.4" transform="translate(-58 -150) translate(58 150) translate(0 50)"/>
                            <path fill="#82B378" d="M47.733 88.166L39.16 98.67s-3.98.745-6.068.927c-1.508.13-6.32-.484-6.32-.484l.139-1.447s2.986-1.27 4.404-1.568c1.448-.303 5.104-1.128 5.104-1.128 1.382-.502 6.635-7.294 6.635-7.294l4.68.49" transform="translate(-58 -150) translate(58 150) translate(0 50)"/>
                            <path fill="#A8D29F" d="M51.878 115.955l-12.992-1.06-.096-.697c-.02-.135-.03-.277-.033-.424-.03-1.298.48-3.048.7-4.768.145-1.135.164-2.257-.184-3.228-.4-1.12-.584-3.246-.665-5.268-.102-2.53-.043-4.896-.045-4.913-.13-1.612.253-3.403.896-5.104 1.267-3.357 3.63-5.257 4.74-6.384 0 0 1.357.335 4.881-.722.105-.032.407.411.542.67 0 0 1.525 1.93 2.152 6.637.561 4.213.104 25.261.104 25.261" transform="translate(-58 -150) translate(58 150) translate(0 50)"/>
                            <path fill="#82B378" d="M48.627 92.626c-.025.59-5.253 17.232-4.612 18.46 3.1 5.938-4.715 3.263-5.14 1.73.146-1.134.746-6.067.398-7.038-.4-1.12-.584-3.246-.665-5.268.13-.737.437-1.498.85-2.234 1.943-.304 9.364-10.232 9.17-5.65" transform="translate(-58 -150) translate(58 150) translate(0 50)"/>
                            <path fill="#373480" d="M22.642 95.871l1.611-1.107c.014-.009.029-.016.044-.021v-.001l.305-.124 1.482 4.682-1.296 1.05-.233.101-.004.001c-.106.043-.24-.025-.296-.162l-1.678-4.114c-.048-.117-.02-.247.065-.305" transform="translate(-58 -150) translate(58 150) translate(0 50)"/>
                            <path fill="#575B9F" d="M26.416 99.023l-1.538 1.287c-.109.09-.277.024-.342-.135l-1.679-4.113c-.048-.118-.02-.247.065-.305l1.612-1.107c.11-.076.267-.006.328.145l1.605 3.933c.045.11.024.232-.051.295" transform="translate(-58 -150) translate(58 150) translate(0 50)"/>
                            <path fill="#E2E7F2" d="M26.166 98.518L24.651 99.787 23.129 96.056 24.716 94.966 26.166 98.518" transform="translate(-58 -150) translate(58 150) translate(0 50)"/>
                            <path fill="#373480" d="M25.568 99.376c-.02-.075.01-.154.067-.178.059-.024.123.018.144.093.02.074-.01.154-.067.178-.058.024-.122-.017-.144-.093" transform="translate(-58 -150) translate(58 150) translate(0 50)"/>
                            <path fill="#CED4EA" d="M23.359 96.125L24.647 95.216 25.984 98.42 24.671 99.442 23.359 96.125" transform="translate(-58 -150) translate(58 150) translate(0 50)"/>
                            <path fill="#BCC5DD" d="M23.696 96.318L24.599 95.681 25.535 97.926 24.615 98.642 23.696 96.318" transform="translate(-58 -150) translate(58 150) translate(0 50)"/>
                            <path fill="#E49963" d="M27.12 99.794l-.817-.027s-.814-1.689-2.679-.888c0 0-.747.39-.335.826.412.436.316.203.884.832.568.627 1.37.915 1.945.662l.636-.286.367-1.119" transform="translate(-58 -150) translate(58 150) translate(0 50)"/>
                            <path fill="#A8D29F" d="M47.42 84.138s-3.19 1.346-4.847 4.225c-1.103 1.919-3.005 5.182-4.15 7.145-.61 1.046-1.63 1.788-2.812 2.048l-3.87.852-5.438 1.36s-.128.23-.097.607c.045.534.395.642.395.642s5.076 1.221 6.883 1.358c4.452.334 6.562-.249 7.216-.49.146-.053.277-.131.398-.23.681-.553 3.297-2.745 4.675-4.84 1.34-2.036 5.034-7.33 5.034-7.33l-3.387-5.347" transform="translate(-58 -150) translate(58 150) translate(0 50)"/>
                            <path fill="#1C468A" d="M51.967 110.929s1.282 8.531-2.647 8.531H6.08s-1.195-.805-1.279-2.342c-.088-1.629.426-2.206.426-2.206s15.48-.54 18.622-1.593c15.753-5.278 28.118-2.39 28.118-2.39" transform="translate(-58 -150) translate(58 150) translate(0 50)"/>
                            <path fill="#E8945B" d="M43.845 81.4s.094.743.214 1.662c4.131-1.204 4.203-4.403 4.203-4.403L43.845 81.4" transform="translate(-58 -150) translate(58 150) translate(0 50)"/>
                            <path fill="#FFB27D" d="M43.195 81.638s5.02.149 5.065-2.98c.045-3.128.723-5.216-2.48-5.442-3.205-.228-3.845.957-4.114 1.998-.268 1.04.224 6.305 1.529 6.424" transform="translate(-58 -150) translate(58 150) translate(0 50)"/>
                            <path fill="#2B478B" d="M48.35 79.883s-.53-.088-.445-.819c.086-.73.085-1.685-.51-1.508-.594.179-.623.655-.867.376-.245-.278-.249-1.448-2.017-1.53-1.767-.08-2.486.535-3.308.173-.822-.362-.865-1.606-.865-1.606s.233.444.587.586c0 0-1.372-1.876.216-3.162 1.588-1.287 3.207-.444 4.126-.389 2.024.123 3.332.244 3.994 1.574.661 1.33.388 5.025-.911 6.305" transform="translate(-58 -150) translate(58 150) translate(0 50)"/>
                            <path fill="#82B378" d="M174.651 6.794L188.124 10.747 179.895 3.204 179.142 5.131 175.709 5.253 174.651 6.794" transform="translate(-58 -150) translate(58 150) translate(0 50)"/>
                            <path fill="#A8D29F" d="M188.124 10.747L177.53 3.188 166.392 1.001 188.124 10.747M179.895 3.204L188.124 10.747 182.463 0 179.895 3.204" transform="translate(-58 -150) translate(58 150) translate(0 50)"/>
                            <path fill="#233862" d="M212.37 27.256c.89-.544 2.31.106 2.31.106-.491-.69-2.284-.464-2.284-.464 3.571-.76 4.317 1.523 4.378 1.736 2.59-2.337 6.736 2.645 6.736 2.645l-5.95 7.887s-.543-1.255-1.26-.863c-1.118.61-3.28-1.86-2.589-5.112.075-.351.164-.672.264-.967-.232.102-.496.184-.742.184-.65 0-1.633-1.66-1.766-2.218-.133-.557.013-2.39.903-2.934" transform="translate(-58 -150) translate(58 150) translate(0 50)"/>
                            <path fill="#F7C9B0" d="M229.389 61.59c3.769-1.388 7.399-7.837 7.399-7.837l-1.19-.832c-.989 1.448-5.443 4.228-5.443 4.228-.101-1.22-.249-2.327-.431-3.33-1.237-6.816-4.065-8.835-4.824-9.263-.122-.07-.191-.097-.191-.097l.008.145c.011.205.035.618.074 1.185.295 4.22 1.449 16.962 4.598 15.8" transform="translate(-58 -150) translate(58 150) translate(0 50)"/>
                            <path fill="#F7C9B0" d="M211.175 68.55c1.862-4.176 2.753-5.357 2.784-6.67.025-1.04-.488-2.16-1.482-4.909-.235-.647-.396-1.313-.496-1.987-.788-5.298 2.277-11.026 4.181-11.416.53-.14 1.428-2.054 1.417-5.138l.239.047 4.01.794s-.092 1.262-.095 2.45c-.002.992.058 1.93.282 2.049.29.026.459.043.459.043s3.344 4.644 3.625 8.962c.28 4.319-2.677 6.195.023 14.825 2.756 8.815-15.975 3.256-14.947.95" transform="translate(-58 -150) translate(58 150) translate(0 50)"/>
                            <path fill="#E8945B" d="M221.827 39.271s-.09 1.262-.094 2.45c-2.243-.062-3.429-2.11-3.915-3.244l4.01.794" transform="translate(-58 -150) translate(58 150) translate(0 50)"/>
                            <path fill="#233862" d="M217.403 38.04s-1.176-1.858-1.458-3.446c-.201-1.135.376-5.34 4.602-4.734 0 0 1.227.121 2.38.9.918.62 2.241 1.958.761 5.626l-.384 1.24-5.9.414" transform="translate(-58 -150) translate(58 150) translate(0 50)"/>
                            <path fill="#F7C9B0" d="M222.577 40.397s-5.309.087-5.313-3.22c-.004-3.307-.691-5.523 2.699-5.718 3.39-.196 4.05 1.065 4.319 2.169.27 1.103-.324 6.66-1.705 6.769" transform="translate(-58 -150) translate(58 150) translate(0 50)"/>
                            <path fill="#163560" d="M215.876 108.613c1.336 5.315 3.347 9.387 3.347 9.387l1.75-.12s-.858-4.085-.809-9.603c.035-3.86.512-8.418 2.036-12.772 5.239-14.962 4.393-25.85 4.393-25.85l-9.852 1.152-.459.054c-.04 4.524-.157 10.667-.26 15.47-.09 4.32-.17 7.556-.17 7.556-1.893 4.079-1.205 9.837.024 14.726" transform="translate(-58 -150) translate(58 150) translate(0 50)"/>
                            <path fill="#1C468A" d="M210.224 107.765c.567 6.046 3.061 9.954 3.061 9.954l.836.609s.792-4.26 1.352-9.326c.534-4.816 1.266-9.913 2.092-11.469 3.286-6.168 4.275-29.457 4.275-29.457l-9.988-.496c-1.004 1.689-1.442 4.459-1.546 7.608-.263 7.948 1.606 18.313 1.885 19.811v.004c.022.116-.012.23-.065.335-1.988 3.933-2.275 8.434-1.902 12.427" transform="translate(-58 -150) translate(58 150) translate(0 50)"/>
                            <path fill="#233862" d="M218.696 35.831c-2.23.574-3.199-.024-3.199-.024s1.712-1.36 2.067-3.732c0 0 .98-3.093 4.774-.765.347-.298.967-.514 1.786.479 1.23 1.491.136 4.129.136 4.129-.506.059-.625-1.675-.89-2.517-.194-.62-.833-1.252-1.157-1.543-.107.392-1.177 4.098-3.842 5.33 0 0 1.228-1.09 2.13-2.602-.516.587-1.125 1.07-1.805 1.245" transform="translate(-58 -150) translate(58 150) translate(0 50)"/>
                            <path fill="#F7C9B0" d="M203.395 74.179c.404-.255.795-1.039.935-1.34 1.235-3.074 2.657-9.034 3.127-10.132.172-.4.5-2.285.93-4.714.774-4.36 1.873-10.47 2.974-12.892.133-.29.511-.537 1.007-.744 1.5-.627 4.062-.889 4.062-.889l-1.73 7.496s-1.192 4.198-2.116 7.63c-.446 1.656-.828 3.135-.984 3.874-.478 2.27-5.735 10.994-5.735 10.994h-.002s-.158.106-.345.637c-.185.532-1.672 3.346-2.31 3.346-.637 0-.77-.955-.902-1.566-.133-.611.584-1.382 1.089-1.7M235.598 52.92c0-.163-.137-2.535.285-3.033.422-.498 1.284-1.207 1.555-1.185.271.022 1.331 1.43 1.013 2.51-.319 1.08-1.663 2.54-1.663 2.54l-1.19-.831" transform="translate(-58 -150) translate(58 150) translate(0 50)"/>
                            <path fill="#575B9F" d="M233.662 50.02l2.458.736c.081.025.168-.022.192-.103l1.405-4.686c.024-.082-.022-.168-.104-.192l-2.457-.737c-.082-.024-.168.022-.192.104l-1.404 4.686c-.025.081.02.167.102.192" transform="translate(-58 -150) translate(58 150) translate(0 50)"/>
                            <path fill="#373480" d="M234.301 50.211l2.23.668c.144.044.297-.039.34-.183l1.336-4.458c.043-.144-.04-.297-.184-.34l-2.23-.668c-.143-.044-.296.038-.339.183l-1.336 4.458c-.043.144.038.297.183.34" transform="translate(-58 -150) translate(58 150) translate(0 50)"/>
                            <path fill="#F7C9B0" d="M210.224 107.765c.567 6.046 3.061 9.954 3.061 9.954l.851.776s.777-4.426 1.337-9.493c-.59.042-3.192.137-5.249-1.237" transform="translate(-58 -150) translate(58 150) translate(0 50)"/>
                            <path fill="#FFB93F" d="M212.564 58.775c-.592.16-2.497.517-4.677-.685.9-4.39 2.178-10.544 3.46-12.983.061-.118.17-.228.315-.332l-.013-.016c1.2-.873 3.656-1.141 3.656-1.141s.755 3.355 1.233 3.793c.479.438 7.41 1.155 7.57.359.152-.761-1.803-3.72-1.949-3.981-.007-.012.315.024.315.024.79.104 1.348.184 1.75.252.787.135 1.269.472 1.314.524.933.706 3.126 2.876 3.983 8.105 0 0-1.085 1.487-2.612 1.925-.04.012-.08.022-.121.032.265 4.431 1.896 11.806 1.309 16.072-.565 4.101-9.193 3.053-10.905 2.672-1.172-.26-2.078-1.498-2.726-3.703-.215 1.541-.695 3.348-1.773 3.46-1.765.183-2.495-.121-2.707-.79-.062-.193-.08-.462-.063-.799.115-2.303 1.868-7.732 2.641-12.788" transform="translate(-58 -150) translate(58 150) translate(0 50)"/>
                            <path fill="#F7C9B0" d="M215.876 108.613c1.336 5.315 3.347 9.387 3.347 9.387l1.75-.12s-.858-4.085-.809-9.603c-.594.299-1.82.602-4.288.336" transform="translate(-58 -150) translate(58 150) translate(0 50)"/>
                            <path fill="#233862" d="M218.215 119.47h1.117c.374-.06.65-.169 1.035-.219.584-.076.851.162.905.218l.01.012h4.749c.119-.171.004-.566-.108-.857-.076-.198-.24-.347-.445-.407-.503-.146-1.495-.275-2.405-1.098-.51-.462-2.47-1.7-2.47-1.7l-.01-.002c-.042.001-.248.064-1.138.816-.46.388-1.245-.548-1.245-.548s-.148.122-.258.35c-.088.177-.152.424-.102.728.071.427-.157 1.222-.34 1.76-.11.326-.204.558-.204.558s-.053.267.909.388" transform="translate(-58 -150) translate(58 150) translate(0 50)"/>
                            <path fill="#466AA5" d="M217.952 116.034c.268.188.83.558 1.204.606.504.066 1.447-1.22 1.447-1.22l-.01-.003c-.042.001-.248.064-1.138.816-.46.388-1.245-.548-1.245-.548s-.148.122-.258.35M218.215 119.47h1.117c.374-.06.65-.169 1.035-.219.584-.076.851.162.905.218l.01.012h4.749c.119-.171.004-.566-.108-.857-.145-.129-.185.556-.264.666-.08.109-3.874.039-4.093-.12-.22-.16-.876-.438-1.792-.219-.798.19-1.973-.298-2.264-.428-.11.326-.204.558-.204.558s-.053.267.909.388" transform="translate(-58 -150) translate(58 150) translate(0 50)"/>
                            <path fill="#233862" d="M212.25 119.47h1.118c.374-.06.65-.169 1.035-.219.582-.076.85.162.904.218l.011.012h4.748c.12-.171.005-.566-.107-.857-.076-.198-.241-.347-.445-.407-.504-.146-1.497-.275-2.405-1.098-.511-.462-2.47-1.7-2.47-1.7l-.01-.002c-.043.001-.248.064-1.138.816-.46.388-1.245-.548-1.245-.548s-.148.122-.258.35c-.089.177-.153.424-.102.728.07.427-.157 1.222-.34 1.76-.111.326-.204.558-.204.558s-.054.267.907.388" transform="translate(-58 -150) translate(58 150) translate(0 50)"/>
                            <path fill="#466AA5" d="M211.988 116.034c.266.188.83.558 1.203.606.505.066 1.448-1.22 1.448-1.22l-.01-.003c-.043.001-.248.064-1.138.816-.46.388-1.245-.548-1.245-.548s-.148.122-.258.35M212.25 119.47h1.118c.374-.06.65-.169 1.035-.219.582-.076.85.162.904.218l.011.012h4.748c.12-.171.005-.566-.107-.857-.145-.129-.185.556-.265.666-.08.109-3.873.039-4.093-.12-.219-.16-.876-.438-1.792-.219-.798.19-1.973-.298-2.264-.428-.11.326-.203.558-.203.558s-.054.267.907.388" transform="translate(-58 -150) translate(58 150) translate(0 50)"/>
                            <path fill="#F49242" d="M209.923 71.563c1.186-.396 2.706-1.448 4.533-3.809 4.835-6.25.41-13.593-.183-13.73-.592-.137-1.709 4.751-1.709 4.751-.773 5.056-2.526 10.485-2.64 12.788" transform="translate(-58 -150) translate(58 150) translate(0 50)"/>
                            <path fill="#F7C9B0" d="M237.65 48.863s-.775-.704-1.408-.039c-.634.666.24 1.855.878 2.138.64.283.851.444.851.444l-.32-2.543" transform="translate(-58 -150) translate(58 150) translate(0 50)"/>
                            <path fill="#FFF" d="M221.54 38.434s.092.39 1.061.33c0 0 .814-.051.789-.48 0 0-.789-.304-1.85.15" transform="translate(-58 -150) translate(58 150) translate(0 50)"/>
                            <path fill="#699FF0" d="M181.17 89.66l.007-15.524c0-.537-.438-.978-.977-.978l-28.282-.012c-.539-.001-.978.44-.978.976l-.008 15.524c0 .537.44.977.977.977l28.284.012c.537.001.977-.438.977-.975" transform="translate(-58 -150) translate(58 150) translate(0 50)"/>
                            <path fill="#365DA4" d="M181.177 75.758L150.939 75.743 150.937 79.202 181.175 79.216 181.177 75.758" transform="translate(-58 -150) translate(58 150) translate(0 50)"/>
                            <path fill="#AFCDFB" d="M171.714 80.178L153.213 80.169 153.212 82.889 171.713 82.896 171.714 80.178M156.984 87.778l.001-1.983c0-.407-.33-.737-.738-.738l-2.298-.001c-.408 0-.738.33-.738.738l-.001 1.982c0 .408.33.738.737.739h2.299c.407 0 .738-.33.738-.737" transform="translate(-58 -150) translate(58 150) translate(0 50)"/>
                            <path fill="#77A8F2" d="M178.61 85.416l-18.175-.008c-.157 0-.285-.129-.285-.286v-.28c0-.158.128-.285.286-.285l18.174.008c.158 0 .286.128.286.285v.28c0 .158-.128.286-.286.286M178.613 87.012l-18.181-.008c-.157 0-.282-.126-.282-.282v-.267c0-.156.126-.283.282-.283l18.181.009c.156 0 .283.126.283.283v.266c-.001.156-.127.282-.283.282M178.603 88.56l-18.163-.009c-.16 0-.291-.13-.291-.292v-.302c0-.16.13-.291.29-.291h.001l18.163.008c.162 0 .292.13.292.292v.302c0 .161-.131.292-.292.292" transform="translate(-58 -150) translate(58 150) translate(0 50)"/>
                            <path fill="#4A75CB" d="M93.655 79.484H67.769c-.958 0-1.734-.776-1.734-1.733V61.734c0-.957.776-1.733 1.734-1.733h25.886c.957 0 1.733.776 1.733 1.733v16.017c0 .957-.776 1.733-1.733 1.733" transform="translate(-58 -150) translate(58 150) translate(0 50)"/>
                            <path fill="#82B378" d="M67.284 66.415L90.929 66.415 90.929 54.339 67.284 54.339z" transform="translate(-58 -150) translate(58 150) translate(0 50)"/>
                            <path fill="#82B378" d="M67.158 66.235L90.804 66.235 90.804 54.16 67.158 54.16z" transform="translate(-58 -150) translate(58 150) translate(0 50)"/>
                            <path fill="#82B378" d="M66.99 66.079L90.636 66.079 90.636 54.004 66.99 54.004z" transform="translate(-58 -150) translate(58 150) translate(0 50)"/>
                            <path fill="#A8D29F" d="M66.829 65.931L90.474 65.931 90.474 53.856 66.829 53.856z" transform="translate(-58 -150) translate(58 150) translate(0 50)"/>
                            <path fill="#82B378" d="M68.58 64.23h20.143v-8.673H68.58v8.673zm-.826.795h21.795V54.762H67.754v10.263z" transform="translate(-58 -150) translate(58 150) translate(0 50)"/>
                            <path fill="#82B378" d="M67.754 54.762v2.334c.167.048.344.076.527.076 1.05 0 1.903-.852 1.903-1.903 0-.176-.026-.346-.071-.507h-2.36M89.55 54.751h-2.336c-.048.168-.075.345-.075.528 0 1.05.851 1.902 1.903 1.902.175 0 .345-.025.507-.07v-2.36M89.55 65.025h-2.336c-.048-.167-.075-.344-.075-.527 0-1.051.851-1.903 1.903-1.903.175 0 .345.026.507.07v2.36M67.754 65.015v-2.334c.167-.048.344-.076.527-.076 1.05 0 1.903.852 1.903 1.903 0 .176-.026.345-.071.507h-2.36M81.21 59.893c0 1.413-1.146 2.558-2.559 2.558-1.413 0-2.558-1.145-2.558-2.558 0-1.412 1.145-2.558 2.558-2.558 1.413 0 2.559 1.146 2.559 2.558" transform="translate(-58 -150) translate(58 150) translate(0 50)"/>
                            <path fill="#E2810E" d="M87.133 56.407c-2.663.332-4.553 2.76-4.22 5.424.333 2.663 2.762 4.552 5.425 4.219 2.662-.333 4.551-2.761 4.218-5.424-.332-2.663-2.76-4.552-5.423-4.22" transform="translate(-58 -150) translate(58 150) translate(0 50)"/>
                            <path fill="#FFB93E" d="M86.712 56.46c-2.663.332-4.552 2.76-4.219 5.423.333 2.663 2.76 4.552 5.424 4.22 2.663-.334 4.552-2.762 4.22-5.425-.334-2.663-2.762-4.552-5.425-4.219" transform="translate(-58 -150) translate(58 150) translate(0 50)"/>
                            <path fill="#FFA412" d="M86.806 57.207c-2.278.284-3.9 2.369-3.616 4.647.285 2.277 2.37 3.9 4.648 3.615 2.278-.285 3.9-2.37 3.614-4.648-.285-2.278-2.369-3.899-4.646-3.614zm1.065 8.523c-2.423.303-4.64-1.422-4.942-3.844-.304-2.422 1.422-4.638 3.844-4.941 2.422-.303 4.638 1.421 4.941 3.843.303 2.423-1.421 4.64-3.843 4.942z" transform="translate(-58 -150) translate(58 150) translate(0 50)"/>
                            <path fill="#FFA412" d="M88.085 62.537c0-.096-.014-.18-.042-.254-.027-.073-.072-.139-.134-.198-.062-.06-.142-.114-.239-.163-.098-.05-.218-.099-.358-.146-.242-.083-.462-.17-.66-.262-.197-.091-.367-.197-.508-.318-.141-.12-.251-.262-.33-.424-.079-.162-.118-.355-.12-.58-.001-.194.033-.371.1-.532.068-.16.166-.3.293-.42.128-.12.28-.218.459-.294.178-.075.378-.124.6-.146l-.005-.735.591-.003.005.745c.212.026.405.08.578.164.173.084.32.193.442.327.122.135.216.294.282.478.066.183.1.39.102.619l-1.07.006c0-.274-.062-.48-.185-.615s-.287-.202-.491-.201c-.112 0-.207.017-.287.048-.08.031-.145.074-.197.128-.05.054-.089.118-.113.192-.024.073-.036.152-.035.237 0 .084.013.161.038.23.025.068.068.131.128.19.06.057.142.112.242.163.1.05.224.103.372.157.24.088.458.178.655.27.196.093.365.2.506.322.141.122.251.263.33.425.079.163.118.355.12.577 0 .201-.033.382-.102.543-.07.16-.168.3-.295.417-.128.118-.281.213-.463.285-.18.072-.381.119-.603.14l.005.684-.588.004-.004-.68c-.205-.02-.403-.063-.595-.13-.191-.068-.361-.166-.51-.294-.149-.129-.268-.291-.358-.487-.09-.197-.135-.432-.137-.707l1.069-.007c0 .163.024.299.07.407.047.108.108.195.185.26s.164.11.26.135c.099.026.198.039.3.038.115 0 .217-.016.304-.046s.16-.072.219-.126c.058-.052.102-.115.132-.187.029-.073.043-.151.042-.236" transform="translate(-58 -150) translate(58 150) translate(0 50)"/>
                            <path fill="#699FF0" d="M91.736 81.008H67.77c-.958 0-1.734-.776-1.734-1.734V63.258c0-.957.776-1.733 1.734-1.733h23.967c.958 0 1.734.776 1.734 1.733v16.016c0 .958-.776 1.734-1.734 1.734" transform="translate(-58 -150) translate(58 150) translate(0 50)"/>
                            <path fill="#4A75CB" d="M94.285 73.929h-8.513c-1.47 0-2.662-1.193-2.662-2.662 0-1.47 1.191-2.663 2.662-2.663h8.513v5.325" transform="translate(-58 -150) translate(58 150) translate(0 50)"/>
                            <path fill="#E9F3FE" d="M87.858 71.267c0 1.152-.934 2.086-2.086 2.086-1.153 0-2.087-.934-2.087-2.086 0-1.153.934-2.087 2.087-2.087 1.152 0 2.086.934 2.086 2.087" transform="translate(-58 -150) translate(58 150) translate(0 50)"/>
                            <path fill="#FF4249" d="M171.81 47.315c0 3.58-2.902 6.48-6.481 6.48-3.58 0-6.481-2.9-6.481-6.48 0-3.579 2.902-6.48 6.48-6.48 3.58 0 6.481 2.901 6.481 6.48" transform="translate(-58 -150) translate(58 150) translate(0 50)"/>
                            <path fill="#A8D29F" d="M49.081 37.304c-.194.024-.376-.105-.414-.3-.04-.202.092-.398.295-.438.624-.123.984-.184.999-.187.2-.035.396.102.43.306.036.203-.101.396-.305.431-.003 0-.366.063-.98.183l-.025.005zm-1.96.412c-.189.024-.368-.1-.41-.289-.046-.201.08-.401.282-.446.328-.074.658-.146.983-.214.202-.043.4.087.442.289.043.202-.086.4-.288.442-.322.068-.65.14-.974.212-.011.003-.023.005-.034.006zm-1.945.461c-.186.024-.364-.094-.41-.28-.05-.2.072-.403.272-.453.32-.08.65-.16.976-.238.2-.047.402.077.45.278.047.2-.077.402-.278.45-.324.076-.649.155-.967.235-.014.004-.029.006-.043.008zm-1.933.511c-.18.023-.356-.09-.407-.27-.055-.199.06-.405.26-.46.318-.09.645-.178.969-.264.2-.053.404.066.457.266.053.2-.066.404-.266.457-.32.085-.644.172-.96.26-.017.005-.035.009-.053.011zm-1.916.567c-.176.023-.348-.083-.403-.259-.062-.197.047-.406.244-.468.313-.098.636-.197.962-.293.198-.059.406.054.464.252.059.198-.054.406-.252.465-.322.095-.641.192-.95.29-.022.006-.043.01-.065.013zm-1.895.633c-.17.022-.339-.077-.399-.245-.07-.195.032-.408.227-.478.308-.11.628-.22.951-.328.197-.065.408.04.473.236.066.196-.04.408-.236.473-.319.106-.634.215-.937.323-.026.01-.053.016-.079.02zm-1.865.715c-.163.02-.327-.069-.393-.228-.078-.191.012-.41.203-.488.302-.125.617-.25.937-.373.193-.073.41.023.483.216.074.192-.023.409-.216.482-.314.12-.623.243-.918.366-.032.012-.064.02-.096.025zm75.788-9.578c-.174.022-.346-.082-.402-.255-.064-.196.044-.407.24-.471l.901-.294c.196-.065.408.042.472.238.064.196-.042.407-.238.472l-.904.295c-.023.007-.046.012-.069.015zm-1.906.616c-.175.023-.347-.082-.402-.256-.064-.197.044-.407.24-.47l.953-.307c.195-.064.407.044.47.24.063.197-.044.408-.24.471l-.953.307c-.023.007-.046.012-.068.015zm-75.702 9.783c-.154.02-.31-.058-.383-.205-.091-.185-.015-.41.17-.5.291-.145.6-.29.915-.433.189-.084.41 0 .494.188.085.188.001.41-.187.494-.308.138-.607.28-.89.42-.039.019-.079.03-.119.036zm73.798-9.173c-.175.022-.347-.083-.403-.258-.063-.196.046-.407.243-.47.333-.105.65-.207.95-.303.197-.063.408.045.47.242.064.197-.044.407-.241.47l-.952.304c-.023.007-.045.012-.067.015zm-1.904.604c-.175.023-.347-.083-.403-.258-.062-.197.047-.407.244-.469l.952-.302c.196-.062.406.047.469.244.062.196-.046.406-.243.469l-.953.302c-.022.007-.044.011-.066.014zm-73.64 9.537c-.139.018-.283-.044-.363-.171-.11-.175-.057-.406.117-.516.276-.173.571-.347.879-.517.18-.1.408-.034.508.147.1.18.034.408-.147.508-.295.163-.579.33-.842.495-.047.03-.099.048-.151.054zm71.736-8.937c-.175.023-.348-.083-.404-.259-.061-.196.048-.406.245-.468l.952-.3c.197-.062.407.048.469.245s-.047.406-.244.468l-.953.3c-.022.007-.043.011-.065.014zm-1.905.596c-.176.023-.348-.084-.404-.26-.061-.196.05-.406.246-.467l.952-.298c.198-.061.407.048.468.245.063.197-.047.407-.244.469l-.954.297c-.02.007-.042.011-.064.014zm-1.906.592c-.176.023-.349-.084-.404-.26-.06-.197.05-.407.247-.468l.952-.295c.197-.06.407.049.468.246.062.197-.048.407-.245.468l-.954.295c-.02.007-.042.011-.064.014zM32.403 43.58c-.118.015-.24-.025-.326-.12-.138-.153-.126-.39.028-.528.242-.218.512-.437.802-.651.167-.122.4-.087.523.08.122.166.087.4-.08.522-.27.2-.521.403-.745.604-.059.053-.13.084-.202.093zm67.617-8.349c-.177.023-.35-.084-.405-.26-.06-.198.05-.407.248-.468l.953-.293c.198-.06.407.05.467.247.06.197-.05.406-.247.467l-.954.294c-.02.006-.042.01-.062.013zm-1.908.584c-.177.023-.35-.085-.405-.261-.06-.198.051-.407.249-.467l.953-.291c.198-.06.407.05.467.248.06.197-.05.406-.248.466l-.954.292c-.02.006-.042.01-.062.013zm-1.909.58c-.178.023-.35-.085-.404-.262-.06-.197.051-.406.249-.466l.954-.29c.197-.06.406.052.467.25.06.197-.052.406-.25.466l-.954.29c-.021.006-.041.01-.062.013zm-1.91.577c-.178.023-.352-.086-.405-.264-.059-.197.053-.406.25-.465l.956-.287c.197-.06.405.052.465.25.06.197-.052.406-.25.465l-.955.288c-.02.006-.04.01-.06.013zm-63.149 8.135c-.075.01-.154-.003-.226-.042-.181-.1-.248-.326-.149-.508.161-.294.365-.588.606-.875.133-.158.368-.179.526-.046.158.133.179.369.046.526-.21.25-.385.503-.522.754-.06.109-.166.177-.28.191zm61.238-7.563c-.179.023-.352-.086-.405-.264-.06-.198.054-.406.251-.465.32-.096.64-.19.956-.286.197-.059.405.054.465.251.06.198-.053.406-.251.465l-.956.286c-.02.006-.04.01-.06.013zm-1.912.568c-.18.022-.353-.087-.406-.265-.058-.198.055-.406.253-.465l.956-.283c.198-.058.406.054.464.252.059.198-.054.406-.252.465l-.956.283c-.02.006-.04.01-.059.013zm-1.914.563c-.179.023-.353-.087-.405-.266-.059-.198.055-.405.253-.463l.956-.281c.2-.059.406.055.464.253.059.198-.054.405-.252.464l-.957.281c-.02.006-.04.01-.059.012zm-1.914.56c-.18.022-.354-.088-.406-.267-.058-.199.056-.406.254-.464l.957-.278c.199-.058.406.056.464.254.057.198-.056.405-.254.463l-.959.28c-.018.005-.037.009-.056.011zm-1.917.553c-.18.024-.354-.087-.406-.267-.057-.198.058-.405.256-.462l.958-.277c.198-.057.406.057.462.255.058.199-.056.406-.255.463l-.958.277c-.02.005-.038.01-.057.011zm-54.002 7.216l-.014.002c-.205.018-.387-.133-.406-.338-.034-.367-.008-.736.075-1.097.046-.202.247-.327.448-.28.201.046.327.246.28.447-.065.284-.085.574-.059.862.019.2-.126.379-.324.404zm52.085-6.666c-.18.023-.355-.088-.406-.268-.057-.199.058-.405.256-.462l.96-.274c.197-.057.404.058.46.256.058.199-.057.405-.255.462l-.96.275c-.018.005-.036.009-.055.011zm-1.919.544c-.18.024-.356-.088-.407-.269-.055-.198.06-.405.259-.461l.959-.271c.198-.057.405.059.461.257.057.199-.058.405-.257.462l-.96.271c-.018.005-.037.01-.055.011zm-1.92.54c-.181.023-.357-.09-.407-.27-.056-.2.06-.406.26-.461l.96-.269c.197-.056.404.06.46.26.056.198-.06.404-.26.46l-.96.269c-.018.005-.035.008-.053.01zm-1.922.533c-.182.023-.357-.09-.407-.271-.055-.2.061-.405.26-.46l.96-.266c.2-.054.406.061.461.26.055.2-.061.405-.26.46-.32.09-.64.178-.962.267-.017.005-.034.008-.052.01zm-1.924.528c-.181.023-.358-.09-.407-.273-.054-.199.063-.404.262-.459l.962-.262c.2-.055.404.062.459.261.055.2-.062.405-.262.46l-.962.263c-.017.004-.034.008-.052.01zm-1.928.522c-.182.023-.359-.091-.407-.274-.054-.199.064-.404.263-.458l.965-.26c.2-.054.405.064.459.263.054.2-.063.404-.263.458l-.967.261c-.016.005-.033.008-.05.01zm-1.93.515c-.183.024-.36-.091-.408-.275-.053-.2.066-.404.266-.457l.963-.256c.2-.053.404.065.458.265.054.199-.065.404-.265.457l-.965.257-.049.01zm-39.84 5.327c-.131.017-.267-.037-.35-.151-.022-.03-.043-.061-.063-.093-.184-.288-.335-.58-.449-.867-.076-.192.018-.41.21-.485.192-.076.41.018.485.21.096.243.225.492.384.74l.038.056c.12.167.084.4-.083.522-.053.038-.112.06-.172.068zm37.914-4.82c-.184.024-.361-.092-.409-.276-.052-.2.067-.404.267-.456l.963-.252c.2-.052.404.067.456.266.053.2-.067.404-.266.457l-.964.252-.047.01zm-1.928.5c-.185.023-.362-.094-.41-.278-.05-.2.07-.404.27-.455l.965-.249c.2-.052.403.068.455.268.052.2-.068.404-.268.456l-.967.249-.045.009zm-1.933.491c-.185.024-.363-.094-.41-.28-.05-.2.071-.403.271-.453l.966-.245c.2-.05.404.07.455.27.05.2-.07.404-.27.455l-.968.245-.044.008zm-1.936.483c-.185.024-.364-.095-.41-.281-.049-.2.073-.403.274-.453l.967-.24c.2-.05.403.072.453.273.05.2-.072.403-.272.452l-.97.24c-.013.004-.028.007-.042.009zm-1.937.473c-.187.024-.366-.096-.41-.284-.05-.2.074-.402.275-.45l.968-.235c.2-.05.403.074.452.274.049.2-.074.403-.275.452l-.97.235-.04.008zm-28.492 3.855c-.047.006-.097.003-.146-.01-.383-.105-.72-.235-1.005-.386-.182-.096-.251-.323-.155-.505.097-.182.324-.252.506-.155.235.125.522.234.852.325.199.055.316.26.261.46-.04.15-.168.252-.313.271zm26.551-3.393c-.187.024-.366-.097-.41-.285-.048-.201.077-.403.278-.45.322-.075.645-.152.97-.23.2-.047.401.077.45.278.047.2-.077.402-.278.45l-.971.23-.039.007zm-1.943.45c-.189.024-.368-.098-.411-.287-.046-.202.08-.402.28-.448.323-.073.647-.148.971-.223.202-.047.402.078.449.28.046.2-.079.401-.28.448l-.973.224-.036.006zm-1.946.437c-.19.025-.37-.1-.412-.29-.045-.202.083-.401.284-.445l.972-.217c.203-.045.402.081.447.283.045.201-.081.401-.283.446-.326.074-.651.146-.975.217-.01.003-.022.005-.033.006zM35.08 50.138c-.025.003-.05.004-.076.002-.361-.027-.704-.064-1.018-.111-.204-.03-.345-.221-.314-.425.03-.204.22-.345.425-.315.295.045.62.08.962.105.206.016.36.195.345.4-.013.18-.152.322-.324.344zm18.745-2.392c-.19.024-.372-.102-.412-.294-.043-.201.086-.4.288-.443.322-.068.647-.138.973-.209.2-.043.4.085.445.287.043.201-.085.4-.286.444l-.977.21-.03.005zm-1.953.405c-.192.025-.374-.103-.413-.296-.041-.203.09-.4.292-.44l.975-.2c.204-.043.4.087.442.289.042.202-.088.4-.29.442-.328.068-.655.135-.979.2-.009.003-.018.004-.027.005zm-1.957.386c-.194.025-.377-.105-.414-.3-.039-.203.094-.398.297-.437l.977-.19c.204-.04.399.091.439.294.04.202-.092.399-.295.439-.33.065-.656.128-.98.19l-.024.004zm-12.843 1.649l-.042.003c-.35.006-.69.005-1.01-.002-.207-.004-.371-.175-.366-.382.004-.206.175-.37.381-.365.312.007.642.007.983.002.206-.004.376.16.38.367.003.193-.14.353-.326.377zm10.881-1.285c-.196.025-.38-.108-.415-.305-.036-.203.1-.397.302-.433.324-.058.65-.118.98-.179.203-.038.397.097.435.3.038.202-.096.397-.3.435-.33.062-.658.121-.983.18l-.019.002zm-8.89 1.195l-.022.002c-.344.024-.682.044-1.004.06-.206.009-.38-.15-.39-.357-.01-.206.15-.38.356-.39.316-.015.648-.035.986-.058.206-.015.384.14.399.346.014.199-.13.372-.325.397zm6.924-.858c-.199.026-.384-.111-.416-.31-.033-.204.105-.396.309-.43.323-.052.65-.107.98-.164.2-.035.397.102.432.305.035.204-.102.397-.305.432-.333.057-.662.112-.987.165l-.013.002zm-4.939.68l-.008.002c-.339.036-.675.07-.998.098-.206.019-.387-.133-.406-.339-.018-.205.135-.385.34-.405.318-.03.65-.062.985-.097.205-.022.39.127.411.332.022.202-.123.384-.324.41zm2.967-.375c-.202.025-.388-.115-.417-.318-.03-.204.112-.393.316-.423.324-.047.651-.096.983-.147.208-.033.395.108.427.312.031.204-.108.395-.312.426-.335.052-.665.102-.99.149h-.007zm-1.437.196c-.182.023-.363.046-.542.067-.205.025-.391-.12-.416-.326-.025-.204.12-.39.323-.415h.003c.322-.04.65-.081.984-.126h.002c.204-.026.39.117.418.321.027.204-.116.392-.32.42l-.452.059z" transform="translate(-58 -150) translate(58 150) translate(0 50)"/>
                            <path fill="#82B378" d="M118.611 36.054L131.635 26.297 118.921 28.695 120.186 30.732 117.916 34.002 118.611 36.054" transform="translate(-58 -150) translate(58 150) translate(0 50)"/>
                            <path fill="#A8D29F" d="M131.635 26.297L117.264 30.879 107.499 39.695 131.635 26.297M118.921 28.695L131.635 26.297 117.731 24.086 118.921 28.695M96.57 101.453H64.847c-.803 0-1.454-.651-1.454-1.455v-5.593c0-.804.651-1.455 1.454-1.455h31.725c.803 0 1.454.651 1.454 1.455v5.593c0 .804-.651 1.455-1.454 1.455" transform="translate(-58 -150) translate(58 150) translate(0 50)"/>
                        </g>
                        <path fill="#FFF" fill-rule="nonzero" d="M70.817 98.705v-1.157h.505c.777 0 1.088-.466 1.088-.924 0-.522-.363-.932-1.088-.932h-1.11v3.013h.605zm.479-1.645h-.48v-.876h.48c.34 0 .492.164.492.44 0 .268-.151.436-.492.436zm2.182 1.645l.198-.574h1.2l.199.574h.639l-1.084-3.017h-.703l-1.084 3.017h.635zm1.234-1.058h-.872l.436-1.26.436 1.26zm2.976 1.058v-1.049l1.019-1.964h-.673l-.644 1.377-.647-1.377h-.682l1.023 1.964v1.049h.604zm2.165 0v-1.96l.811 1.96h.458l.807-1.96v1.96h.604v-3.013h-.682l-.958 2.24-.958-2.24h-.687v3.013h.605zm5.216 0v-.492h-1.144v-.799h1.015v-.479h-1.015v-.755h1.144v-.492h-1.748v3.017h1.748zm1.344 0v-2.068l1.369 2.068h.604v-3.017h-.604v2.072l-1.369-2.072h-.604v3.017h.604zm4.008 0V96.18h.803v-.488h-2.21v.488h.803v2.525h.604z" transform="translate(-58 -150) translate(58 150) translate(0 50)"/>
                    </g>
                </g>
                <path fill="#FFF" d="M168.335 95.881L167.454 95 165.668 96.786 163.881 95 163 95.881 164.786 97.668 163 99.454 163.881 100.335 165.668 98.549 167.454 100.335 168.335 99.454 166.549 97.668z" transform="translate(-58 -150) translate(58 150)"/>
            </g>
        </g>
    </g>
</svg>
