<svg xmlns="http://www.w3.org/2000/svg" width="16" height="16" viewBox="0 0 16 16">
    <g fill="none" fill-rule="evenodd">
        <g fill="#FFF" fill-rule="nonzero">
            <g>
                <path d="M15.537 11.734l-2.231-2.231c-.797-.797-2.152-.478-2.47.558-.24.717-1.037 1.115-1.754.956-1.594-.398-3.745-2.47-4.144-4.144-.239-.717.24-1.514.957-1.753 1.035-.319 1.354-1.673.557-2.47L4.221.418c-.637-.557-1.594-.557-2.152 0L.555 1.932C-.959 3.526.715 7.75 4.46 11.495c3.745 3.745 7.969 5.499 9.563 3.905l1.514-1.514c.558-.638.558-1.594 0-2.152z" transform="translate(-32 -170) translate(32 170)"/>
            </g>
        </g>
    </g>
</svg>
