<svg xmlns="http://www.w3.org/2000/svg" width="24" height="24" viewBox="0 0 24 24">
    <g fill="none" fill-rule="evenodd">
        <g>
            <g>
                <g fill="#424242" fill-rule="nonzero">
                    <path d="M11.475 2.267L6.115.042c-.133-.056-.284-.056-.418 0L.337 2.267C.133 2.352 0 2.551 0 2.772v2.705c0 3.725 2.251 7.075 5.7 8.482.132.055.28.055.413 0 3.448-1.407 5.7-4.757 5.7-8.482V2.772c0-.221-.134-.42-.338-.505zM5.302 7.32l2.35-2.35c.214-.214.56-.214.774 0 .213.213.213.56 0 .773L5.688 8.48c-.213.214-.56.214-.773 0L3.387 6.952c-.214-.213-.214-.56 0-.773.213-.214.56-.214.773 0L5.302 7.32z" transform="translate(-16 -508) translate(16 508) translate(6 5)"/>
                </g>
            </g>
        </g>
    </g>
</svg>
