<svg xmlns="http://www.w3.org/2000/svg" xmlns:xlink="http://www.w3.org/1999/xlink" width="81" height="71" viewBox="0 0 81 71">
    <defs>
        <path id="6olm9fg8ga" d="M3.069 6.069c-.158 0-.315-.013-.47-.037-.148-1.66-.425-2.698-.425-2.698s-.772.117-1.981.462C-.058 2.73.295 1.568 1.199.83 1.747.382 2.409.164 3.065.164c.856 0 1.705.37 2.288 1.085 1.032 1.262.844 3.122-.418 4.154-.549.448-1.21.666-1.866.666"/>
        <path id="9ldyll5x2c" d="M.177 37.757S1.67 25.132 11.14 14.295C20.613 3.457 23.261 1.689 23.33.139c0 0 4.913 24.473-18.533 39.092l-4.62-1.474"/>
        <path id="mncgyktzhe" d="M22.81 36.37s-1.442-12.187-10.584-22.648C3.083 3.26.526 1.553.46.057c0 0-4.743 23.624 17.89 37.736l4.459-1.423"/>
        <path id="vz7tmaselg" d="M11.52 17.508s-5.663 1.037-9.246-4.7C-1.31 7.068.617.188.617.188S7.53 1.316 11.111 7.337s.408 10.171.408 10.171"/>
        <path id="lfozpzlcoi" d="M31.22 18.165s-7.57 6.393-17.832.887C3.124 13.546.117 1.619.117 1.619s11.29-4.228 21.79 1.702C32.41 9.25 31.22 18.165 31.22 18.165"/>
        <path id="aq6p34w1tk" d="M1.818 21.774s-4.141-5.995.617-13.114c4.758-7.119 13.7-8.472 13.7-8.472s2.292 8.561-2.793 15.825c-5.085 7.265-11.524 5.76-11.524 5.76"/>
        <path id="z1052u27xm" d="M4.084 6.064s-1.947.357-3.18-1.616C-.328 2.475.334.108.334.108s2.377.388 3.609 2.459c1.232 2.07.141 3.497.141 3.497"/>
        <path id="78xc2jsxwo" d="M17.35 1.895l-1.269 4.83c-.155.59.088 1.212.6 1.541l4.202 2.7c1.217.781.723 2.664-.721 2.746l-4.986.286c-.608.035-1.125.458-1.28 1.048l-1.269 4.83c-.367 1.399-2.31 1.51-2.835.162l-1.813-4.653c-.221-.568-.783-.929-1.392-.894l-4.985.286c-1.445.083-2.15-1.73-1.031-2.646l3.865-3.162c.472-.386.642-1.032.42-1.6L3.044 2.716C2.519 1.368 4.025.136 5.242.917l4.201 2.7c.513.329 1.18.29 1.652-.095L14.96.36c1.12-.916 2.757.136 2.39 1.535"/>
        <path id="bz15tet75q" d="M31.012 0.131L0.11 0.131 0.11 44.045 31.854 44.045 31.854 0.131 31.012 0.131"/>
        <path id="myn6ff9dss" d="M15.156 1.792l-.37 4.98c-.045.608.307 1.176.871 1.407l4.622 1.89c1.34.548 1.195 2.489-.21 2.833l-4.85 1.187c-.592.145-1.024.655-1.069 1.263l-.37 4.98c-.106 1.442-1.997 1.905-2.758.675l-2.628-4.246c-.321-.518-.94-.77-1.532-.626l-4.85 1.188c-1.405.344-2.43-1.311-1.495-2.415l3.226-3.812c.394-.465.444-1.132.123-1.65L1.238 5.2c-.762-1.23.495-2.715 1.834-2.168l4.622 1.89c.565.231 1.214.072 1.607-.393L12.527.717c.935-1.104 2.736-.367 2.63 1.075"/>
        <path id="u6jst6g0nu" d="M3.023 1.133L1.537 3.556l.248 1.929s1.365.296.87.593c-.497.297-1.49.297-1.614 0C.917 5.781-.076 2.963.172 2.814c.248-.148.869-.445.869-.445L1.909.144l1.114.99"/>
        <path id="1ljldkhxiw" d="M1.603.092v4.302s2.854 1.187 2.605 1.484c0 0-3.598 0-3.598-.297 0-.296.124-1.335.124-1.335L.15.33 1.603.092"/>
        <path id="r8xbtyf1sy" d="M6.79.128L2.321 2.057s-1.24 4.599-1.117 5.637c.124 1.038.496 6.527.248 6.973-.248.445-1.365 5.192-1.365 5.192s1.738.742 1.613.742c-.124 0 3.227-4.6 3.351-6.38.124-1.78.248-2.67.248-2.67s2.11 4.896 2.606 8.16l1.737-.297s-.124-10.236-.868-13.5C8.03 2.65 6.789.128 6.789.128"/>
        <path id="mzjc0ifquA" d="M4.898 6.444s-.7-.366-.908-.59c-.208-.225-.929-1.118-.8-1.654 0 0 .927.351 1.205-.384C4.758 2.856 3.008.625 2.581.5 2.153.375 1.203-.204.309.518c-.893.721.39 3.8 1.357 3.946 0 0 1.038 1.714.68 2.27 0 0 1.476.627 2.033.217.557-.41.519-.507.519-.507"/>
        <path id="j67h24suyC" d="M2.456 10.889s.956-2.104 1.147-2.486C3.794 8.02.161 3.432.161 2.858c0-.574.574-2.868 2.486-2.677 1.912.191 4.78 1.53 4.398 2.677-.382 1.147-.382 4.207 0 6.119.239 1.193-1.011 2.088-1.986 2.592-.614.319-1.355.256-1.908-.16l-.695-.52"/>
        <path id="nbidz25knE" d="M8.706 18.402c-.375-.652-.928-1.784-1.27-3.27-.557-2.41-2.783-4.822-2.783-4.822-.186-2.226-1.484-8.904-1.484-9.09 0 0-1.67-3.153-2.783.742-1.113 3.896 2.226 7.42 2.226 8.533 0 1.113 5.38 8.533 5.38 8.533l-.004.01c.24-.075.52-.248.718-.636"/>
        <path id="wrgtpm5jkG" d="M.044 7.917s.863-.45 1.118-.726c.255-.276 1.143-1.377.984-2.036 0 0-1.14.432-1.483-.473C.217 3.502 2.371.752 2.897.599 3.423.445 4.593-.267 5.693.62c1.1.888-.48 4.678-1.67 4.859 0 0-1.278 2.11-.836 2.794 0 0-1.818.773-2.504.267-.686-.505-.639-.624-.639-.624"/>
        <path id="4ttj1n77kI" d="M2.325 10.28c1.444.227 2.448.35 2.736-.533.184-.565.243-2.056 1.443-3.267.864-.872 2.503-3.24 1.647-4.671-.855-1.43-2.69-.692-3.089-.676-.398.016.357-1.08.357-1.08-1.978.479-3.034 1.38-3.882 2.818C.32 4.934-.073 9.5.273 10.05l2.052.228"/>
        <path id="mawweolceK" d="M9.407.8l2.975 4.01c.363.49 1 .69 1.579.495l4.733-1.59c1.371-.461 2.53 1.102 1.693 2.28l-2.895 4.07c-.353.496-.347 1.164.017 1.654l2.976 4.01c.861 1.162-.267 2.748-1.647 2.314l-4.764-1.495c-.582-.182-1.215.03-1.568.527l-2.895 4.07c-.838 1.178-2.695.596-2.71-.85l-.05-4.994c-.006-.61-.404-1.146-.986-1.329l-4.764-1.495c-1.38-.433-1.4-2.38-.029-2.84l4.733-1.59c.579-.195.966-.74.96-1.35l-.05-4.992C6.7.258 8.544-.362 9.406.8"/>
    </defs>
    <g fill="none" fill-rule="evenodd">
        <g>
            <g>
                <g transform="translate(-259 -41) translate(259 41)">
                    <ellipse cx="41" cy="57" fill="#D0E3F4" rx="39.5" ry="1.5"/>
                    <g>
                        <g transform="translate(66.334 20.843)">
                            <mask id="rpgz0gzojb" fill="#fff">
                                <use xlink:href="#6olm9fg8ga"/>
                            </mask>
                            <path d="M3.069 6.069c-.158 0-.315-.013-.47-.037-.148-1.66-.425-2.698-.425-2.698s-.772.117-1.981.462C-.058 2.73.295 1.568 1.199.83 1.747.382 2.409.164 3.065.164c.856 0 1.705.37 2.288 1.085 1.032 1.262.844 3.122-.418 4.154-.549.448-1.21.666-1.866.666" mask="url(#rpgz0gzojb)"/>
                        </g>
                        <path fill="#B1B4D0" d="M46.258 37.757s1.493-12.625 10.964-23.462C66.694 3.457 69.342 1.689 69.41.139c0 0 4.913 24.473-18.533 39.092l-4.62-1.474"/>
                        <g transform="translate(46.08)">
                            <mask id="dd3zmkjl5d" fill="#fff">
                                <use xlink:href="#9ldyll5x2c"/>
                            </mask>
                            <use fill="#82B378" xlink:href="#9ldyll5x2c"/>
                            <path fill="#FFFFFE" stroke="#FFF" stroke-width=".2" d="M.739 39.921l.04.035.014.035c-.028.139-.205.215-.294.083-.097-.144.08-.326.158-.417.325-.376.714-.71 1.057-1.072 1.337-1.412 2.57-2.92 3.73-4.48 2.333-3.142 4.402-6.484 6.407-9.842 2.038-3.412 3.969-6.888 5.789-10.421 1.696-3.293 3.455-6.635 4.567-10.18.622-1.98.913-3.991 1.105-6.051.177-1.883.349-3.774.92-5.587.015-.046.084-.017.07.028-.998 3.165-.776 6.542-1.513 9.76-.758 3.308-2.247 6.392-3.746 9.417-3.258 6.574-6.877 12.992-10.904 19.127-1.121 1.707-2.29 3.384-3.55 4.992-.619.79-1.26 1.562-1.926 2.312-.354.398-.716.79-1.085 1.174-.174.18-.35.36-.527.537-.126.127-.571.426-.358.61-.036-.031.01-.09.046-.06M15.025 19.725c3.949-.975 7.666-2.733 10.925-5.168.038-.028.083.03.045.06-3.27 2.442-6.999 4.204-10.961 5.182-.047.011-.055-.063-.01-.074M18.524 16.29c2.158-.697 4.129-1.839 5.806-3.365.036-.032.08.028.045.06-1.682 1.53-3.658 2.675-5.823 3.374-.045.015-.073-.055-.028-.07" mask="url(#dd3zmkjl5d)"/>
                            <path fill="#FFFFFE" d="M20.062 27.02c-1.407.102-2.788.363-4.136.781-.045.014-.074-.055-.028-.069 1.353-.42 2.741-.683 4.155-.786.047-.004.057.07.009.074" mask="url(#dd3zmkjl5d)"/>
                            <path fill="#FFFFFE" stroke="#FFF" stroke-width=".2" d="M13.547 15.651c-.428-2.553.06-5.111.56-7.616.01-.047.084-.038.075.01-.5 2.498-.988 5.05-.561 7.597.008.047-.066.056-.074.01" mask="url(#dd3zmkjl5d)"/>
                            <path fill="#FFFFFE" d="M7.477 26.933c-1.168-3.21-1.423-6.695-.735-10.042.01-.047.084-.037.074.01-.686 3.335-.434 6.804.73 10.004.017.045-.052.073-.069.028M2.692 32.824c-.877-1.596-1.233-3.404-1.03-5.213.005-.048.079-.037.073.01-.201 1.799.155 3.59 1.027 5.175.023.042-.047.07-.07.028" mask="url(#dd3zmkjl5d)"/>
                            <path fill="#FFFFFE" stroke="#FFF" stroke-width=".2" d="M17.022 10.69c-1.138-1.878-1.174-4.109-1.175-6.24 0-.047.074-.057.074-.01 0 2.115.031 4.34 1.16 6.206.025.04-.034.086-.059.045" mask="url(#dd3zmkjl5d)"/>
                        </g>
                        <path fill="#B1B4D0" d="M30.351 40.892s-1.44-12.186-10.584-22.648C10.624 7.783 8.068 6.076 8.003 4.58c0 0-4.743 23.624 17.89 37.735l4.458-1.423"/>
                        <g transform="translate(7.542 4.522)">
                            <mask id="07b9hlrunf" fill="#fff">
                                <use xlink:href="#mncgyktzhe"/>
                            </mask>
                            <use fill="#82B378" xlink:href="#mncgyktzhe"/>
                            <path fill="#FFFFFE" stroke="#FFF" stroke-width=".2" d="M22.267 38.46l-.038.033-.014.033c.027.134.197.208.284.08.094-.138-.077-.314-.153-.402-.314-.363-.69-.686-1.02-1.035-1.291-1.362-2.481-2.818-3.6-4.324-2.253-3.033-4.25-6.259-6.186-9.5-1.967-3.294-3.83-6.65-5.587-10.06-1.638-3.179-3.335-6.405-4.41-9.827-.6-1.911-.88-3.852-1.066-5.84C.307-4.202.14-6.027-.411-7.777c-.014-.045-.08-.017-.067.027.963 3.055.749 6.315 1.46 9.42.732 3.194 2.169 6.171 3.616 9.091 3.145 6.346 6.639 12.542 10.526 18.464 1.082 1.648 2.21 3.267 3.427 4.819.597.762 1.215 1.508 1.859 2.231.342.385.69.763 1.047 1.134.168.174.337.347.508.519.123.122.552.41.346.588.035-.03-.008-.088-.044-.058M8.477 18.964c-3.812-.941-7.4-2.64-10.546-4.988-.037-.028-.08.03-.044.057 3.157 2.357 6.756 4.058 10.581 5.002.045.011.053-.06.009-.071M5.099 15.648c-2.083-.673-3.985-1.775-5.605-3.248-.034-.031-.077.026-.043.057 1.624 1.478 3.531 2.583 5.62 3.257.045.015.072-.052.028-.066" mask="url(#07b9hlrunf)"/>
                            <path fill="#FFFFFE" d="M3.615 26.005c1.358.1 2.691.351 3.992.755.044.013.071-.053.027-.067-1.306-.405-2.646-.66-4.01-.759-.047-.004-.056.068-.01.071M9.904 15.031c.413-2.464-.06-4.934-.542-7.352-.009-.045-.08-.036-.071.01.481 2.411.954 4.875.541 7.333-.007.046.064.055.072.01M15.763 25.922c1.127-3.1 1.374-6.463.71-9.694-.01-.045-.081-.036-.072.01.662 3.22.418 6.568-.705 9.657-.016.043.05.07.067.027M20.381 31.608c.847-1.54 1.191-3.285.996-5.032-.006-.046-.077-.036-.072.01.195 1.736-.15 3.465-.99 4.995-.023.04.044.067.066.027" mask="url(#07b9hlrunf)"/>
                            <path fill="#FFFFFE" stroke="#FFF" stroke-width=".2" d="M6.55 10.243C7.646 8.43 7.682 6.276 7.682 4.218c0-.045-.071-.055-.071-.008 0 2.041-.03 4.19-1.12 5.99-.024.038.033.082.057.043" mask="url(#07b9hlrunf)"/>
                        </g>
                        <path fill="#C7C4D8" d="M28.5 27.143s-5.663 1.037-9.247-4.7c-3.583-5.739-1.656-12.62-1.656-12.62s6.912 1.128 10.493 7.15c3.583 6.02.41 10.17.41 10.17"/>
                        <g transform="translate(16.98 9.635)">
                            <mask id="wui6ws5roh" fill="#fff">
                                <use xlink:href="#vz7tmaselg"/>
                            </mask>
                            <use fill="#A5DD98" xlink:href="#vz7tmaselg"/>
                            <path fill="#FAECEA" d="M-.734 4.404l-.075-.022c-.021-.007-.045.006-.05.028-.007.021.006.044.027.05l.075.022c.021.007.044-.006.05-.028.007-.021-.006-.044-.027-.05" mask="url(#wui6ws5roh)"/>
                            <path fill="#FFFFFE" stroke="#FFF" stroke-width=".2" d="M1.14 1.388c1.205 1.298 2.308 2.69 3.328 4.138C5.48 6.965 6.41 8.458 7.296 9.978c.89 1.53 1.733 3.086 2.567 4.647.835 1.566 1.661 3.137 2.514 4.694.85 1.552 1.728 3.091 2.669 4.592.115.184.232.367.35.55.02.034.075.004.054-.03-.96-1.496-1.854-3.035-2.716-4.59-.86-1.554-1.687-3.124-2.521-4.69-.836-1.571-1.678-3.14-2.563-4.683-.88-1.534-1.802-3.045-2.803-4.503-.99-1.443-2.057-2.835-3.224-4.139-.145-.162-.291-.322-.44-.481-.026-.03-.07.013-.043.043" mask="url(#wui6ws5roh)"/>
                            <path fill="#FFFFFE" stroke="#FFF" stroke-width=".2" d="M4.447 5.391l.804-3.366c.009-.039-.05-.056-.06-.017l-.803 3.366c-.01.039.05.056.059.017" mask="url(#wui6ws5roh)"/>
                            <path fill="#FAECEA" d="M6.578 8.675c1.017-.997 1.687-2.325 1.898-3.732.062-.411.083-.827.064-1.242-.001-.04-.063-.042-.061-.002.062 1.417-.354 2.837-1.16 4.003-.23.334-.494.644-.784.929-.028.027.015.072.043.044" mask="url(#wui6ws5roh)"/>
                            <path fill="#FFFFFE" stroke="#FFF" stroke-width=".2" d="M5.302 6.785C3.753 7.608 1.919 8.1.205 7.503c-.43-.15-.834-.366-1.193-.648-.03-.024-.062.029-.032.053 1.383 1.085 3.267 1.108 4.875.574.51-.17 1.002-.39 1.476-.642.035-.019.006-.073-.03-.055M7.859 11.103c-2.16.683-4.46.896-6.71.624-.65-.08-1.296-.2-1.932-.358-.039-.01-.056.05-.017.059 2.212.553 4.538.624 6.78.208.64-.118 1.272-.277 1.893-.473.038-.012.024-.072-.014-.06" mask="url(#wui6ws5roh)"/>
                            <path fill="#FAECEA" d="M9.243 13.52c1.281-1.076 2.569-2.177 3.573-3.526.867-1.163 1.496-2.526 1.633-3.982.074-.783-.006-1.576-.268-2.318-.013-.037-.073-.024-.06.014.472 1.338.331 2.803-.164 4.114-.558 1.479-1.566 2.727-2.688 3.82-.66.644-1.363 1.24-2.069 1.833-.03.026.013.07.043.045" mask="url(#wui6ws5roh)"/>
                        </g>
                        <path fill="#C7C4D8" d="M31.29 51.788s-7.57 6.393-17.833.887C3.195 47.17.188 35.243.188 35.243s11.29-4.228 21.79 1.701c10.502 5.93 9.312 14.844 9.312 14.844"/>
                        <g transform="translate(.07 33.624)">
                            <mask id="nksqohff0j" fill="#fff">
                                <use xlink:href="#lfozpzlcoi"/>
                            </mask>
                            <use fill="#A5DD98" xlink:href="#lfozpzlcoi"/>
                            <path fill="#FAECEA" d="M1.705 9.07l-.13.032c-.037.009-.061.048-.052.086.009.037.048.06.085.052l.13-.031c.038-.01.062-.049.053-.086-.01-.037-.048-.061-.086-.052" mask="url(#nksqohff0j)"/>
                            <path fill="#FFFFFE" stroke="#FFF" stroke-width=".2" d="M1.924 2.963c2.912.908 5.75 2.043 8.512 3.335 2.742 1.283 5.412 2.717 8.033 4.23 2.639 1.524 5.23 3.127 7.81 4.747 2.588 1.624 5.165 3.265 7.77 4.86 2.6 1.592 5.227 3.14 7.916 4.576.33.176.662.351.994.524.06.032.116-.059.055-.09-2.715-1.416-5.366-2.95-7.984-4.536-2.613-1.585-5.193-3.221-7.778-4.849-2.593-1.631-5.192-3.254-7.835-4.803-2.626-1.54-5.296-3.006-8.038-4.328C8.665 5.32 5.88 4.154 3.022 3.204c-.355-.118-.711-.232-1.068-.343-.066-.02-.095.081-.03.102" mask="url(#nksqohff0j)"/>
                            <path fill="#FAECEA" d="M10.29 6.115L8.611.398c-.02-.066-.123-.041-.103.025l1.679 5.716c.019.066.122.041.103-.024M16.283 9.196c.666-2.359.53-4.915-.358-7.198-.26-.667-.584-1.306-.966-1.91-.037-.059-.13-.008-.094.05 1.305 2.061 1.899 4.54 1.692 6.971-.06.697-.187 1.385-.377 2.058-.018.066.084.095.103.03" mask="url(#nksqohff0j)"/>
                            <path fill="#FFFFFE" stroke="#FFF" stroke-width=".2" d="M12.76 7.466c-1.61 2.554-3.93 4.855-7 5.432-.772.145-1.56.166-2.336.052-.068-.01-.07.097-.002.106 2.994.439 5.827-1.139 7.772-3.312.618-.69 1.163-1.44 1.656-2.223.037-.058-.054-.113-.09-.055M20.272 11.728c-2.642 2.867-5.896 5.154-9.488 6.67-1.04.44-2.107.812-3.194 1.12-.066.018-.04.121.025.102 3.778-1.066 7.313-2.95 10.308-5.489.855-.724 1.663-1.502 2.422-2.326.046-.05-.027-.128-.073-.077" mask="url(#nksqohff0j)"/>
                            <path fill="#FAECEA" d="M24.408 14.154c.993-2.703 1.975-5.449 2.322-8.323.299-2.48.072-5.054-.969-7.346-.559-1.232-1.356-2.349-2.382-3.234-.052-.044-.13.028-.078.073 1.85 1.596 2.892 3.904 3.275 6.286.431 2.686-.007 5.414-.748 8.006-.435 1.526-.975 3.02-1.522 4.508-.024.064.078.094.102.03" mask="url(#nksqohff0j)"/>
                        </g>
                        <path fill="#C7C4D8" d="M54.19 45.763s-4.14-5.995.618-13.114c4.758-7.119 13.7-8.472 13.7-8.472s2.292 8.561-2.793 15.825c-5.085 7.264-11.524 5.76-11.524 5.76"/>
                        <g transform="translate(52.373 23.989)">
                            <mask id="mgl2h4df5l" fill="#fff">
                                <use xlink:href="#aq6p34w1tk"/>
                            </mask>
                            <use fill="#A5DD98" xlink:href="#aq6p34w1tk"/>
                            <path fill="#FAECEA" d="M10.568.82l-.013-.098c-.004-.028-.031-.048-.059-.044-.028.004-.048.03-.045.059l.014.097c.004.028.031.048.059.045.028-.004.049-.031.044-.06" mask="url(#mgl2h4df5l)"/>
                            <path fill="#FFFFFE" stroke="#FFF" stroke-width=".2" d="M15.023 1.414c-.872 2.067-1.903 4.062-3.045 5.992-1.134 1.916-2.373 3.767-3.666 5.578-1.303 1.823-2.66 3.605-4.028 5.379C2.91 20.14 1.527 21.91.174 23.704c-1.35 1.79-2.668 3.602-3.91 5.468-.153.23-.304.46-.454.69-.027.042.035.09.062.047 1.229-1.886 2.54-3.718 3.887-5.52 1.344-1.8 2.726-3.572 4.1-5.349 1.378-1.781 2.75-3.568 4.071-5.392 1.313-1.813 2.576-3.663 3.739-5.576 1.15-1.892 2.201-3.847 3.1-5.872.11-.251.22-.504.326-.757.02-.047-.052-.076-.072-.03" mask="url(#mgl2h4df5l)"/>
                            <path fill="#FFFFFE" stroke="#FFF" stroke-width=".2" d="M12.122 7.312l4.303-.823c.05-.01.039-.086-.01-.077l-4.303.823c-.05.01-.04.087.01.077" mask="url(#mgl2h4df5l)"/>
                            <path fill="#FAECEA" d="M9.442 11.479c1.679.655 3.559.737 5.293.25.507-.143.997-.335 1.467-.572.044-.023.015-.095-.03-.072-1.602.808-3.458 1.067-5.223.743-.505-.093-1-.235-1.479-.422-.046-.018-.075.055-.028.073M10.958 9.024C9.203 7.664 7.684 5.803 7.48 3.515c-.052-.575-.01-1.153.128-1.713.012-.049-.066-.058-.078-.01-.534 2.161.42 4.346 1.872 5.925.461.5.971.952 1.509 1.369.04.03.087-.032.047-.062M7.306 14.219C5.395 12.08 3.953 9.538 3.098 6.8c-.248-.792-.445-1.6-.592-2.416-.01-.05-.086-.039-.078.01.512 2.842 1.64 5.562 3.286 7.934.469.677.98 1.323 1.53 1.937.033.038.095-.01.062-.047" mask="url(#mgl2h4df5l)"/>
                            <path fill="#FFFFFE" stroke="#FFF" stroke-width=".2" d="M5.237 17.073c1.907.919 3.846 1.832 5.926 2.29 1.793.395 3.693.412 5.445-.187.94-.321 1.814-.826 2.535-1.514.036-.034-.011-.097-.048-.062-1.299 1.24-3.062 1.84-4.832 1.95-1.997.125-3.962-.39-5.807-1.115-1.085-.427-2.14-.929-3.19-1.435-.046-.021-.075.051-.03.073" mask="url(#mgl2h4df5l)"/>
                        </g>
                        <path fill="#C7C4D8" d="M74.744 21.402s-1.948.356-3.18-1.617c-1.233-1.973-.57-4.339-.57-4.339s2.377.387 3.609 2.458c1.232 2.07.14 3.498.14 3.498"/>
                        <g transform="translate(70.66 15.337)">
                            <mask id="lzwbqhcybn" fill="#fff">
                                <use xlink:href="#z1052u27xm"/>
                            </mask>
                            <use fill="#82B378" xlink:href="#z1052u27xm"/>
                            <path fill="#FAECEA" d="M-0.13 1.558L-0.156 1.551 -0.174 1.56 -0.164 1.578 -0.138 1.585 -0.121 1.576 -0.13 1.558" mask="url(#lzwbqhcybn)"/>
                            <path fill="#FFF" stroke="#FFF" stroke-width=".1" d="M.514.521c.415.447.794.925 1.145 1.423.347.495.668 1.008.972 1.53.306.527.596 1.062.883 1.599.288.538.572 1.079.865 1.614.293.534.594 1.063.918 1.579l.12.19.019-.01c-.33-.516-.638-1.045-.934-1.58-.296-.534-.58-1.074-.868-1.612-.287-.54-.576-1.08-.881-1.61-.302-.528-.62-1.048-.964-1.549C1.45 1.6 1.082 1.12.68.672L.53.506.514.521" mask="url(#lzwbqhcybn)"/>
                            <path fill="#FFF" stroke="#FFF" stroke-width=".1" d="M1.651 1.898L1.928.74l-.02-.006-.277 1.158.02.006M2.384 3.027c.35-.343.58-.8.653-1.284.021-.141.028-.284.022-.427h-.021c.022.487-.122.975-.399 1.376-.08.115-.17.222-.27.32l.015.015M1.945 2.377c-.532.283-1.163.452-1.753.247-.147-.051-.286-.126-.41-.223l-.01.019c.475.373 1.123.38 1.676.197.175-.058.344-.135.507-.221l-.01-.019M2.825 3.862c-.743.235-1.534.308-2.307.215-.224-.027-.446-.069-.665-.124l-.006.02c.761.191 1.56.215 2.332.072.22-.04.437-.095.65-.163l-.004-.02M3.301 4.693c.44-.37.883-.749 1.229-1.213.298-.4.514-.869.561-1.37.025-.268-.002-.541-.092-.796l-.02.005c.162.46.113.963-.057 1.414-.192.509-.539.938-.924 1.314-.227.221-.47.427-.712.63l.015.016" mask="url(#lzwbqhcybn)"/>
                        </g>
                        <path fill="#282654" d="M53.723 57.017H24.797c-1.728 0-3.129-1.4-3.129-3.129V4.808c0-1.727 1.401-3.128 3.13-3.128h28.925c1.728 0 3.129 1.4 3.129 3.129v49.08c0 1.727-1.401 3.128-3.13 3.128"/>
                        <path fill="#DFDAE5" d="M54.021 7.267L23.414 7.267 23.414 51.283 54.855 51.283 54.855 7.267 54.021 7.267"/>
                        <path fill="#465695" d="M41.104 54.504c0 1.061-.86 1.922-1.921 1.922-1.062 0-1.922-.86-1.922-1.922 0-1.06.86-1.921 1.922-1.921 1.06 0 1.92.86 1.92 1.921M34.391 4.55c0 .325-.263.588-.588.588-.325 0-.589-.263-.589-.588 0-.325.264-.589.589-.589.325 0 .588.264.588.589M46.113 4.968H35.695c-.247 0-.449-.202-.449-.449 0-.246.202-.448.449-.448h10.418c.247 0 .448.202.448.448 0 .247-.201.449-.448.449"/>
                        <path fill="#E05766" d="M7.155 41.126l-.125-.018c.004-.027.41-2.79 2.46-2.918l.007.126c-1.946.121-2.338 2.783-2.342 2.81"/>
                        <path fill="#465695" d="M9.118 38.312s.599.481 1.46.24c.86-.242 1.617.474 1.617.474s-.752-2.016-3.077-.714"/>
                        <path fill="#D0A85A" d="M74.442 39.845l-1.269 4.83c-.154.589.088 1.211.601 1.54l4.201 2.7c1.217.782.723 2.664-.721 2.747l-4.985.286c-.61.035-1.126.458-1.281 1.048l-1.269 4.83c-.367 1.398-2.31 1.51-2.835.162l-1.813-4.653c-.221-.568-.783-.93-1.392-.895l-4.985.287c-1.444.082-2.15-1.731-1.031-2.647l3.865-3.162c.472-.386.642-1.032.42-1.6l-1.812-4.653c-.525-1.348.981-2.58 2.198-1.798l4.201 2.699c.513.33 1.18.291 1.652-.095l3.865-3.162c1.12-.915 2.757.137 2.39 1.536"/>
                        <g transform="translate(57.092 37.95)">
                            <mask id="pjinb0nw5p" fill="#fff">
                                <use xlink:href="#78xc2jsxwo"/>
                            </mask>
                            <path fill="#F2BF4C" d="M17.219 1.43l-1.268 4.83c-.155.59.087 1.212.6 1.541l4.201 2.7c1.217.781.723 2.663-.721 2.746l-4.985.286c-.61.035-1.126.458-1.281 1.048l-1.269 4.83c-.367 1.398-2.31 1.51-2.835.162L7.848 14.92c-.221-.568-.783-.929-1.392-.894l-4.985.286c-1.444.083-2.15-1.73-1.031-2.647l3.865-3.161c.472-.386.642-1.032.42-1.6L2.913 2.25C2.388.903 3.894-.33 5.11.452l4.202 2.7c.513.329 1.18.29 1.651-.096L14.83-.105c1.12-.916 2.757.136 2.389 1.535" mask="url(#pjinb0nw5p)"/>
                        </g>
                        <path fill="#F9DF9F" d="M69.387 41.819c.1-.18.217-.36.354-.536.129-.096.26-.191.393-.283-.24.283-.49.554-.747.819M62.923 39.963c-.235-.12-.467-.252-.698-.388l-.084-.048-.04-.023-.042-.02c-.054-.028-.11-.049-.163-.067-.107-.037-.212-.055-.308-.055h-.017c-.094 0-.18.017-.254.052-.039.018-.076.038-.107.065l-.024.02-.024.022-.05.045c-.131.118-.267.232-.416.333.096-.152.204-.293.317-.429.03-.034.053-.068.088-.101.033-.034.073-.061.115-.085.085-.047.19-.068.305-.068.115.002.239.024.365.072.063.024.126.052.188.086l.046.026.046.028.087.058c.225.153.45.31.67.477M57.89 51.622c-.085-.159-.153-.323-.215-.489-.015-.042-.032-.08-.043-.127-.013-.045-.017-.093-.017-.141.003-.098.037-.2.094-.299.06-.098.14-.195.244-.28.053-.042.109-.083.17-.12l.045-.027.047-.025.094-.047c.245-.119.492-.235.748-.342-.222.144-.452.279-.685.41l-.084.05-.04.023-.038.026c-.05.033-.097.07-.14.108-.086.075-.155.158-.203.243-.05.085-.082.172-.089.257-.003.042-.004.085.004.125l.005.03.007.033.014.065c.036.173.067.348.081.527"/>
                        <path fill="#C6BFD4" d="M33.804 33.005c-.92 0-1.748-.882-1.439-1.925l1.421-4.787c.128-.43.041-.884-.213-1.231l13.026-6.31 1.915-.048h.043c1.416 0 2.04 1.806.904 2.677l-3.964 3.038c-.484.37-.674 1.011-.47 1.586l1.536 4.348-2.618 1.75-3.623-2.493c-.24-.166-.52-.248-.797-.248-.303 0-.605.097-.857.29l-3.963 3.038c-.285.218-.598.315-.901.315m11.475-.294c-.191 0-.387-.038-.578-.122l2.079-1.301c-.034.799-.73 1.423-1.5 1.423m-14.088-9.384l-2.07-1.425c-1.192-.82-.639-2.686.807-2.723l4.992-.127c.61-.016 1.14-.422 1.314-1.007l1.284-4.328 2.513-1.199c.2.162.363.384.463.667l1.664 4.708c.013.039.028.076.045.112l-11.012 5.322"/>
                        <path fill="#C1BBD2" d="M51.442 43.64h-5.986l2.051-1.4h3.935c.296 0 .538.315.538.7 0 .385-.242.7-.538.7m-9.12 0h-1.59l2.108-1.4h1.967l-2.484 1.4m-10.298 0h-3.247c-.26 0-.48-.245-.528-.566l1.024-.834h4.7l-1.95 1.4m-3.745-.96c.08-.258.274-.44.499-.44h.006l-.505.44M51.442 45.645h-9.808l2.051-1.4h7.757c.296 0 .538.314.538.7 0 .385-.242.7-.538.7m-13.75 0h-.889l2.108-1.4h1.266l-2.485 1.4m-9.176-.09c-.164-.12-.276-.349-.276-.61 0-.386.242-.7.538-.7h1.563l-1.825 1.31M33.288 47.227L33.067 47.227 35.175 46.151 35.773 46.151 33.288 47.227"/>
                        <path fill="#F9C65D" d="M29.178 38.904l.271.55.607.09c.141.02.198.193.096.292l-.44.428.104.605c.024.14-.123.248-.25.181l-.542-.285-.543.285c-.126.067-.274-.04-.25-.18l.104-.606-.44-.428c-.101-.1-.045-.273.096-.293l.607-.088.272-.55c.063-.128.245-.128.308 0"/>
                        <path fill="#C8C5D9" d="M28.4 42.165c.025 0 .05-.025.074-.078-.024.053-.05.078-.073.078m1.247 0c.099-.003.186-.408.169-.91.017.502-.07.907-.169.91m-1.173-.079l.006-.013.543-1.308.543 1.308.001.003-.001-.003-.543-1.308-.543 1.308-.006.013"/>
                        <path fill="#F1BB50" d="M29.647 41.07c-.026 0-.053-.006-.079-.02h-.001l-.543-.285-.543.285-.006.003c-.025.012-.05.017-.074.017h-.002c-.098 0-.184-.088-.168-.196v-.005l.002-.012c.022.01.045.015.069.015.026 0 .053-.007.08-.02l.542-.286.543.286c.027.013.054.02.08.02.1 0 .189-.09.17-.202l-.104-.604.44-.428c.024-.025.04-.053.047-.083.108.046.142.193.052.281l-.44.428.104.605v.003c.018.11-.07.198-.168.198h-.001"/>
                        <path fill="#FACF72" d="M28.74 39.454c-.018 0-.04-.021-.028-.045l.22-.477c.006-.01.014-.015.023-.015.02 0 .04.021.03.045l-.222.477c-.005.01-.013.015-.022.015M28.408 40.135c-.007 0-.014-.003-.02-.008l-.386-.358c-.022-.02 0-.048.024-.048.007 0 .014.003.02.009l.386.357c.022.02 0 .048-.024.048"/>
                        <path fill="#F9C65D" d="M32.282 38.904l.272.55.607.09c.141.02.197.193.095.292l-.439.428.104.605c.024.14-.124.248-.25.181l-.543-.285-.543.285c-.126.067-.273-.04-.25-.18l.105-.606-.44-.428c-.102-.1-.045-.273.096-.293l.607-.088.271-.55c.063-.128.245-.128.308 0"/>
                        <path fill="#C8C5D9" d="M31.505 42.272h-.001.001c.026 0 .053-.043.079-.137-.026.094-.053.137-.079.137m1.248 0c.099-.004.185-.629.168-1.4.017.771-.07 1.396-.168 1.4"/>
                        <path fill="#F1BB50" d="M31.505 41.07h-.001c-.075 0-.143-.05-.164-.123l.19-.119.499-.262.543.286c.026.013.054.02.08.02.1 0 .189-.09.17-.202l-.101-.587.587-.367c0 .042-.016.086-.052.12l-.439.428.104.605v.003c.017.11-.07.198-.168.198h-.002c-.026 0-.053-.006-.08-.02l-.543-.285-.543.285h-.001c-.026.014-.053.02-.079.02"/>
                        <path fill="#FACF72" d="M31.846 39.454c-.02 0-.04-.021-.03-.045l.222-.477c.005-.01.013-.015.022-.015.02 0 .04.021.029.045l-.221.477c-.005.01-.014.015-.022.015M31.513 40.135c-.007 0-.014-.003-.02-.008l-.386-.358c-.022-.02 0-.048.023-.048.008 0 .015.003.021.009l.386.357c.022.02 0 .048-.024.048"/>
                        <path fill="#F9C65D" d="M35.387 38.953l.272.55.607.089c.14.02.197.194.095.293l-.44.428.105.605c.023.14-.124.247-.25.181l-.543-.285-.543.285c-.126.066-.274-.04-.25-.181l.104-.605-.439-.428c-.102-.1-.046-.273.095-.293l.607-.088.272-.55c.063-.128.245-.128.308 0"/>
                        <path fill="#C8C5D9" d="M34.61 41.27c.026 0 .053-.007.079-.022-.026.015-.053.022-.078.022m1.246 0c.099-.001.186-.1.17-.222.016.122-.071.221-.17.222m-.08-.022l-.544-.32-.543.32.543-.32.543.32h.002m.144-.881l.44-.48v-.001l-.44.48"/>
                        <path fill="#F1BB50" d="M34.61 41.12h-.001c-.097-.001-.182-.086-.17-.192l.002-.01.002-.012c.021.01.044.014.068.014.026 0 .054-.006.08-.02l.543-.285.543.285c.026.014.053.02.08.02.1 0 .188-.09.17-.2l-.104-.605.439-.429c.024-.024.04-.052.047-.082.102.043.139.177.066.266v.001h-.001v.001h-.001l-.004.004v.001l-.001.001-.001.002h-.002v.001l-.001.001-.001.001-.002.002-.44.428.105.605v.003c.017.11-.07.198-.169.198h-.001c-.026 0-.053-.006-.078-.02h-.002l-.543-.285-.543.285h-.001c-.026.014-.053.02-.078.02h-.001"/>
                        <path fill="#FACF72" d="M34.95 39.503c-.019 0-.04-.021-.029-.045l.221-.477c.005-.01.014-.015.023-.015.019 0 .04.021.029.045l-.221.477c-.005.01-.014.015-.023.015M34.618 40.184c-.007 0-.014-.003-.02-.009l-.386-.357c-.022-.02 0-.048.023-.048.007 0 .015.003.021.009l.386.357c.021.02 0 .048-.024.048"/>
                        <path fill="#A4A5B2" d="M37.672 40.258l-.321-.328c-.102-.104-.046-.284.095-.306l.607-.092.271-.574c.032-.067.093-.1.154-.1.062 0 .123.033.155.1l.271.574.022.003-1.076.62-.348-.336c-.007-.006-.014-.009-.021-.009-.024 0-.046.03-.024.05l.338.327-.123.07m.738-1.287c-.009 0-.017.005-.022.016l-.221.498c-.011.025.01.048.029.048.009 0 .017-.005.022-.016l.221-.498c.011-.025-.01-.048-.029-.048"/>
                        <path fill="#A4A5B2" d="M38.196 39.503c-.02 0-.04-.021-.03-.045l.222-.477c.005-.01.013-.015.022-.015.02 0 .04.021.03.045l-.222.477c-.005.01-.013.015-.022.015M37.795 40.131l-.338-.313c-.022-.02 0-.048.024-.048.007 0 .014.003.02.009l.349.322-.055.03"/>
                        <g transform="translate(23.272 7.079)">
                            <mask id="je241yomur" fill="#fff">
                                <use xlink:href="#bz15tet75q"/>
                            </mask>
                            <path fill="#46436F" d="M.11 13.385V3.043l.033-.015V13.37l-.033.015M27.764.19H6.375L6.501.13h21.383l-.12.058" mask="url(#je241yomur)"/>
                            <path fill="#CCC6D9" d="M14.248 6.639l.136-.46c.21-.708.821-1.068 1.433-1.068.336 0 .673.109.943.329l-2.512 1.199" mask="url(#je241yomur)"/>
                            <path fill="#46436F" d="M.143 20.923l-.033-.014v-.887l.033-.016v.917m31.44-13.247V4.813l.27-.131v2.862l-.27.132" mask="url(#je241yomur)"/>
                            <path fill="#CCC6D9" d="M10.301 17.983c-.091-.126-.205-.237-.338-.329L7.92 16.248l11.012-5.322c.227.501.727.827 1.282.827h.036l3.078-.079L10.3 17.983" mask="url(#je241yomur)"/>
                            <path fill="#46436F" d="M0.143 44.045L0.11 44.045 0.11 41.006 0.143 40.989 0.143 44.045" mask="url(#je241yomur)"/>
                            <path fill="#C9C4D7" d="M22.184 36.561h-3.133l2.484-1.4h2.7l-2.05 1.4m-4.725 0H8.753l1.949-1.4h8.866l-2.108 1.4M18.362 38.566H14.42l2.485-1.4h3.508l-2.051 1.4m-4.83 0H5.505c-.095 0-.184-.032-.262-.09l1.825-1.31h8.57l-2.108 1.4M13.476 40.473h-3.46l2.485-1.4h.975c.295 0 .537.315.537.7 0 .385-.242.7-.537.7m-3.681 0H5.506c-.296 0-.538-.315-.538-.7 0-.385.242-.7.538-.7h6.397l-2.108 1.4" mask="url(#je241yomur)"/>
                            <path fill="#AFB0B9" d="M15.83 34.04c-.027 0-.053-.005-.079-.019.026.014.052.02.078.02m-1.247 0c-.098-.001-.184-.088-.168-.197-.016.109.07.196.168.197M16 33.845l-.001-.006-.104-.605.104.605v.006m-.268-.003c-.027 0-.054-.006-.08-.02l-.544-.286-.543.286c-.026.014-.053.02-.08.02-.023 0-.046-.005-.068-.015l.102-.593-.117-.114.122-.068.048.045c.006.006.014.008.02.008.024 0 .046-.028.024-.048l-.037-.035 1.076-.594.585.085c.141.02.197.193.097.292.09-.088.054-.234-.053-.28-.008.03-.023.059-.048.083l-.439.428.104.605c.019.11-.07.2-.17.2" mask="url(#je241yomur)"/>
                            <path fill="#D9D7E3" d="M14.584 34.205c.026 0 .052-.007.078-.022-.026.015-.052.022-.078.022m1.246 0c.097 0 .182-.096.17-.216.012.12-.073.216-.17.216m-.079-.022h-.001l-.543-.324-.543.323.543-.323.543.323.001.001m.144-.891l.44-.485v-.002.002l-.44.485" mask="url(#je241yomur)"/>
                            <path fill="#AEADB7" d="M15.83 34.04c-.027 0-.053-.005-.079-.019h-.001l-.543-.286-.543.285-.002.001c-.026.014-.052.02-.078.02h-.002c-.098-.001-.184-.088-.168-.197v-.005l.002-.012c.021.01.045.015.069.015.026 0 .053-.006.08-.02l.542-.286.544.286c.026.014.053.02.08.02.1 0 .188-.09.169-.201l-.104-.605.44-.428c.024-.024.04-.053.047-.083.107.046.142.192.053.28l-.001.001-.44.428.104.605v.006l.001.004c.012.107-.073.191-.17.192" mask="url(#je241yomur)"/>
                            <path fill="#AFB0B9" d="M14.592 33.105c-.007 0-.015-.002-.021-.008l-.048-.045.055-.03.037.035c.022.02 0 .048-.023.048M19.278 34.04c-.026 0-.053-.005-.079-.019.026.014.053.02.079.02m-1.247 0c-.099-.001-.185-.089-.17-.198-.015.11.071.197.17.198m1.417-.199v-.003l-.104-.605.103.605.001.003m-.27 0c-.026 0-.053-.006-.08-.02l-.542-.286-.543.286c-.027.014-.054.02-.08.02-.024 0-.047-.005-.068-.015l-.002.012.103-.605-.44-.428c-.101-.1-.045-.272.096-.293l.607-.088.272-.55c.031-.064.093-.096.154-.096s.123.032.154.096l.272.55.607.088c.14.02.197.194.095.293.09-.088.056-.235-.052-.28-.007.029-.023.058-.047.082l-.44.428.104.605c.02.11-.07.2-.17.2m-1.52-1.15c-.025 0-.046.029-.024.049l.385.357c.007.006.014.008.02.008.025 0 .046-.028.025-.048l-.386-.357c-.007-.006-.014-.008-.02-.008m.929-.805c-.01 0-.018.004-.023.015l-.22.477c-.012.024.009.046.028.046.01 0 .018-.005.023-.016l.22-.477c.012-.023-.01-.045-.028-.045" mask="url(#je241yomur)"/>
                            <path fill="#D9D7E3" d="M18.032 35.135c.026-.001.053-.028.079-.09-.026.062-.053.089-.079.09m1.247 0c.096-.004.18-.384.17-.864.01.48-.074.86-.17.864m-.08-.09v-.003l-.544-1.307-.543 1.307.543-1.307.543 1.307.001.004" mask="url(#je241yomur)"/>
                            <path fill="#AEADB7" d="M18.032 34.04h-.001c-.099 0-.185-.088-.17-.197l.002-.004.002-.012c.021.01.044.015.068.015.026 0 .053-.006.08-.02l.543-.286.543.286c.026.014.053.02.08.02.1 0 .188-.09.169-.201l-.104-.605.44-.428c.024-.024.04-.053.047-.083.108.046.143.193.052.281l-.44.428.104.605.001.003v.007h.001v.003c.01.105-.074.188-.17.189h-.001c-.026 0-.053-.006-.079-.02l-.544-.286-.543.285-.001.001c-.026.014-.053.02-.079.02" mask="url(#je241yomur)"/>
                            <path fill="#AFB0B9" d="M18.372 32.425c-.019 0-.04-.022-.029-.046l.221-.477c.005-.01.014-.015.023-.015.019 0 .04.022.029.045l-.221.477c-.005.011-.014.016-.023.016M18.04 33.105c-.007 0-.014-.002-.02-.008l-.386-.357c-.022-.02 0-.048.023-.048.007 0 .014.002.02.008l.387.357c.021.02 0 .048-.024.048" mask="url(#je241yomur)"/>
                            <path fill="#46436F" d="M0.11 38.848L0.11 38.773 0.143 38.751 0.143 38.827 0.11 38.848" mask="url(#je241yomur)"/>
                            <path fill="#CCC6D9" d="M21.429 25.51c-.09-.039-.178-.088-.265-.148l-.49-.338 2.617-1.75.128.36c.07.198.096.391.089.575l-2.08 1.3" mask="url(#je241yomur)"/>
                            <path fill="#C9C4D7" d="M4.978 35.802c-.006-.033-.01-.068-.01-.103 0-.07.014-.138.039-.2l.505-.338h.49l-1.024.64" mask="url(#je241yomur)"/>
                            <path fill="#FACD6F" d="M8.068 33.869c-.006-.023-.009-.048-.005-.074-.004.026-.001.051.005.074m.067-.076c-.024 0-.048-.005-.069-.015l-.002.013.065-.38 1.478-.988.282.041c.092.014.149.092.148.173 0-.067-.039-.132-.105-.16-.007.03-.022.058-.047.082l-.44.428.004.018-1.19.745-.045.023c-.026.014-.053.02-.08.02" mask="url(#je241yomur)"/>
                            <path fill="#F4C466" d="M8.068 33.877c-.006-.023-.009-.048-.005-.074l.001-.005.002-.012c.021.01.045.015.069.015.026 0 .053-.007.079-.02l.044-.024-.19.12m1.38-.87l-.002-.017.44-.43c.024-.025.04-.054.046-.083.066.028.105.094.105.161l-.588.37" mask="url(#je241yomur)"/>
                        </g>
                        <path fill="#D0A85A" d="M19.158 20.079l-.369 4.98c-.045.608.306 1.176.87 1.407l4.623 1.89c1.338.547 1.195 2.488-.21 2.832l-4.85 1.188c-.593.145-1.024.654-1.07 1.263l-.37 4.98c-.106 1.442-1.997 1.905-2.758.675l-2.628-4.246c-.32-.519-.94-.771-1.531-.626l-4.85 1.187c-1.406.344-2.43-1.31-1.496-2.415l3.227-3.812c.393-.465.443-1.131.122-1.65L5.24 23.487c-.762-1.23.496-2.716 1.834-2.168l4.622 1.89c.565.23 1.214.072 1.608-.394l3.226-3.811c.934-1.104 2.735-.368 2.628 1.075"/>
                        <g transform="translate(4.002 18.287)">
                            <mask id="oc97yd26at" fill="#fff">
                                <use xlink:href="#myn6ff9dss"/>
                            </mask>
                            <path fill="#F2BF4C" d="M14.943 1.359l-.37 4.98c-.045.608.307 1.176.871 1.406l4.622 1.89c1.34.548 1.195 2.489-.21 2.833l-4.85 1.187c-.592.145-1.024.655-1.07 1.263l-.368 4.98c-.108 1.443-1.998 1.906-2.76.676l-2.627-4.246c-.321-.519-.94-.772-1.532-.627L1.8 16.89c-1.405.344-2.43-1.31-1.495-2.415l3.226-3.812c.394-.465.443-1.131.122-1.65L1.024 4.766c-.761-1.23.496-2.715 1.835-2.168l4.622 1.89c.564.231 1.213.073 1.607-.393L12.314.284c.934-1.105 2.736-.368 2.629 1.075" mask="url(#oc97yd26at)"/>
                        </g>
                        <path fill="#F9DF9F" d="M12.396 24.427c-.036 0-.073 0-.11-.003-.136-.01-.271-.027-.403-.062l-.099-.025-.096-.033c-.066-.022-.124-.047-.182-.07-.473-.193-.941-.395-1.399-.628.503.106.994.243 1.482.39.062.018.123.037.18.05l.086.023.088.017c.116.023.235.03.353.033h.033c.225 0 .449-.04.66-.115.223-.074.434-.187.617-.337.092-.073.18-.153.258-.243l.059-.067.06-.074.124-.146c.327-.39.663-.775 1.025-1.14-.254.447-.535.874-.824 1.293-.075.107-.137.208-.226.316-.082.108-.178.206-.28.297-.206.18-.45.315-.707.407-.225.074-.462.117-.699.117M5.651 22.632c.067-.168.148-.326.234-.48.022-.04.04-.077.068-.116.026-.04.06-.073.097-.104.076-.061.176-.101.288-.123.054-.009.111-.014.17-.014.065 0 .133.006.202.019.066.012.133.028.2.051l.05.016.05.02.097.041c.25.11.498.223.746.348-.253-.076-.505-.164-.757-.255-.031-.012-.063-.024-.092-.033l-.044-.015-.044-.012c-.058-.017-.116-.028-.173-.036-.053-.008-.105-.012-.155-.012-.056 0-.11.005-.162.015-.097.016-.184.05-.253.1-.034.024-.067.05-.093.083l-.02.024-.02.026-.04.053c-.108.14-.22.277-.349.404M5.022 34.67c-.112-.142-.208-.29-.299-.442-.022-.04-.046-.073-.066-.118-.02-.042-.033-.088-.042-.136-.015-.096 0-.203.038-.31.04-.108.103-.217.19-.32.044-.051.09-.101.144-.148l.04-.035.042-.034.083-.063c.22-.161.442-.32.674-.473-.192.182-.394.357-.599.528l-.074.064-.035.031-.033.032c-.044.042-.082.087-.117.132-.071.09-.124.183-.156.276-.034.092-.049.184-.04.268.004.043.01.084.026.123l.01.029.013.03.026.062c.067.163.129.33.175.503"/>
                        <path fill="#ED9D9E" d="M12.335 64.448l-1.487 2.423.249 1.928s1.365.297.868.594c-.496.296-1.489.296-1.613 0-.124-.297-1.117-3.116-.869-3.264.249-.148.869-.445.869-.445l.869-2.225 1.114.989"/>
                        <g transform="translate(9.311 63.315)">
                            <mask id="jwojsbhkwv" fill="#fff">
                                <use xlink:href="#u6jst6g0nu"/>
                            </mask>
                            <path fill="#5E6AA3" d="M1.661 4.15l-.124-.594s-.496 0-.496-.445.124-1.038-.497-1.038c-.62 0-.868 1.78-.868 1.78l.62 1.928.62.742h1.738l.496-.89L1.661 4.15" mask="url(#jwojsbhkwv)"/>
                        </g>
                        <path fill="#ED9D9E" d="M20.155 63.014v4.302s2.855 1.187 2.606 1.483c0 0-3.598 0-3.598-.296 0-.297.124-1.335.124-1.335l-.584-3.917 1.452-.237"/>
                        <g transform="translate(18.553 62.921)">
                            <mask id="5dula4ayox" fill="#fff">
                                <use xlink:href="#1ljldkhxiw"/>
                            </mask>
                            <path fill="#5E6AA3" d="M.486 4.394s.496-.148.62.149c.124.296.745-.445.745-.445l3.226 1.335L3.96 6.916-.63 5.878.486 4.394" mask="url(#5dula4ayox)"/>
                        </g>
                        <path fill="#3A3981" d="M17.674 44.173l-4.468 1.929s-1.24 4.599-1.117 5.637c.125 1.038.497 6.527.249 6.973-.249.444-1.365 5.192-1.365 5.192s1.737.742 1.613.742c-.124 0 3.226-4.6 3.35-6.38.124-1.78.248-2.67.248-2.67s2.11 4.896 2.606 8.16l1.738-.297s-.124-10.236-.87-13.5c-.744-3.264-1.984-5.786-1.984-5.786"/>
                        <g transform="translate(10.884 44.045)">
                            <mask id="in9naeci4z" fill="#fff">
                                <use xlink:href="#r8xbtyf1sy"/>
                            </mask>
                            <use fill="#F99746" xlink:href="#r8xbtyf1sy"/>
                            <path fill="#ED7D2B" d="M6.014 13.326C5.607 12.264 5.3 11.55 5.3 11.55l.248-4.154s.248 1.78.497 1.93c.248.147.248.74 0 1.038-.249.296-.249 1.483-.249 1.483s.193.863.218 1.478" mask="url(#in9naeci4z)"/>
                            <path fill="#33337D" d="M1.78 4.212l.03-.123c.373-.11.702-.45.91-.875.102-.206.177-.425.235-.652.026.02.053.039.08.057-.114.436-.284.845-.57 1.167-.199.223-.436.37-.684.426M7.585 2.013c-.296-.051-.568-.16-.82-.31l-.06-.12c-.01-.018-.023-.026-.037-.026-.024 0-.048.023-.05.052-.051-.035-.101-.072-.15-.11l.06-.08c.304.23.637.399 1.011.473l.046.12M2.162 2.668l.03-.118c.194-.037.387-.079.58-.125l.114.085c-.24.06-.482.112-.724.158M6.822.825c.014-.048.025-.097.034-.146L7 .586l.044.098-.222.141M.204 19.909l-.09-.04c.528-.85 1.019-1.732 1.467-2.647.777-1.584 1.473-3.143 1.358-5.032-.1-1.643-.264-3.25-.214-4.903.046-1.539.21-3.064.476-4.57.029.015.058.03.088.043-.303 1.721-.471 3.47-.483 5.23-.007.892.025 1.783.095 2.67.07.876.2 1.757.137 2.64-.104 1.47-.816 2.85-1.432 4.092-.43.869-.9 1.707-1.402 2.517" mask="url(#in9naeci4z)"/>
                            <path fill="#33337D" d="M9.347 11.114C8.976 7.784 8.12 4.62 6.625 1.64c-.005-.01-.007-.021-.007-.031.048.033.097.064.147.094 1.249 2.52 2.044 5.175 2.48 7.95.037.474.07.964.102 1.461" mask="url(#in9naeci4z)"/>
                            <path fill="#2C2F77" d="M6.765 1.703c-.05-.03-.099-.061-.147-.094.002-.03.026-.052.05-.052.014 0 .028.008.037.027l.06.119" mask="url(#in9naeci4z)"/>
                        </g>
                        <path fill="#ED7D2B" d="M18.542 63.904L20.776 63.904 20.776 63.014 18.542 63.31 18.542 63.904M10.688 63.766L12.62 65.108 12.994 64.338 10.938 63.253 10.688 63.766"/>
                        <path fill="#ED9D9E" d="M14.406 36.528s-.701-.365-.908-.59c-.208-.224-.929-1.118-.8-1.654 0 0 .927.352 1.205-.384.363-.959-1.387-3.19-1.814-3.316-.428-.125-1.378-.703-2.272.018-.893.721.39 3.8 1.357 3.946 0 0 1.038 1.715.68 2.27 0 0 1.476.627 2.032.217.557-.41.52-.507.52-.507"/>
                        <g transform="translate(9.508 30.084)">
                            <mask id="zem5poyadB" fill="#fff">
                                <use xlink:href="#mzjc0ifquA"/>
                            </mask>
                            <path fill="#CA837D" d="M3.195 4.516c-.41-.094-.855-.674-.855-.674.207.225.85.358.85.358-.01.044-.015.09-.015.139 0 .056.007.116.02.177" mask="url(#zem5poyadB)"/>
                        </g>
                        <path fill="#E472A2" d="M13.144 46.085s.956-2.103 1.147-2.485c.191-.383-3.442-4.972-3.442-5.545 0-.574.574-2.869 2.486-2.677 1.912.19 4.78 1.53 4.398 2.677-.383 1.147-.383 4.206 0 6.118.238 1.193-1.012 2.088-1.986 2.593-.614.318-1.355.255-1.909-.16l-.694-.52"/>
                        <g transform="translate(10.688 35.197)">
                            <mask id="0ac0e69jdD" fill="#fff">
                                <use xlink:href="#j67h24suyC"/>
                            </mask>
                            <use fill="#2B478B" xlink:href="#j67h24suyC"/>
                            <path fill="#233862" d="M2.54 6.548c-.115-.17-.236-.343-.359-.52l-.065-.094C1.42 4.936.675 3.884.34 3.288c.041-.452.079-.745.079-.745l3.688-1.476 2.11.411c.083.06.162.119.235.18-.771.264-3.15.99-3.995.99-.082 0-.15-.007-.2-.022 0 0 .828 2.244.283 3.922M1.97 2.54l.287.085-.287-.085" mask="url(#0ac0e69jdD)"/>
                        </g>
                        <path fill="#ED9D9E" d="M23.469 27.92c-.382-.19.191 1.53-.382 1.913-.574.382-4.59 3.824-4.59 3.824-1.462.445-2.739.942-3.794 1.408-.116.5-.122 1.327.75 2.043 1.657-.558 3.398-1.238 3.618-1.348.383-.191 5.163-5.545 5.545-5.927.383-.383-.765-1.721-1.147-1.912"/>
                        <path fill="#2B478B" d="M14.703 35.065c-2.118.935-3.337 1.743-3.337 1.743-.63.856.057 1.056 1.204 1.056.487 0 1.662-.345 2.883-.756-.872-.716-.866-1.544-.75-2.043"/>
                        <path fill="#212121" d="M11.232 30.597s-.574 0-.574.574 3.442 7.075 1.53 9.752c-1.912 2.677-6.119 2.485-6.501.573-.383-1.912 2.294-1.53 1.53-2.868-.766-1.338-1.34-2.103.573-2.868 1.912-.765 1.72-1.338.956-2.485-.765-1.148-.191-3.633 2.103-3.251 0 0 .574-.191 1.147-.191.574 0 .707 1.3.707 1.3s-1.089-1.11-1.471-.536"/>
                        <path fill="#2B2757" d="M73.86 63.233c-.375-.652-.928-1.784-1.27-3.269-.557-2.411-2.783-4.823-2.783-4.823-.186-2.226-1.484-8.904-1.484-9.09 0 0-1.67-3.153-2.783.743-1.113 3.895 2.226 7.42 2.226 8.533 0 1.113 5.38 8.533 5.38 8.533l-.004.009c.24-.075.52-.248.718-.636"/>
                        <g transform="translate(65.154 44.831)">
                            <mask id="1yi16p9gdF" fill="#fff">
                                <use xlink:href="#nbidz25knE"/>
                            </mask>
                            <path fill="#202047" d="M1.163 7.444C.633 6.331.16 5.015.159 3.605c0-.536.068-1.085.227-1.643C.811.475 1.317.015 1.781.015c.75 0 1.388 1.205 1.388 1.205 0 .065.16.926.374 2.114-.1.091-.213.178-.34.258-.723.452-1.446 2.137-2.04 3.852" mask="url(#1yi16p9gdF)"/>
                        </g>
                        <path fill="#0E1D2C" d="M73.86 63.233c-.198.388-.479.561-.718.636l-.367.918s-.557.371-.928.557c-.37.185.928.37 1.299 0 .37-.371 1.113-1.484 1.113-1.484s-.165-.22-.399-.627"/>
                        <path fill="#2B2757" d="M68.186 43.55c-1.585 0-3.268-1.976-3.268-1.976s-.76.532-1.132 3.155c-.175 1.232-.742 8.162-1.113 9.831-.365 1.642-1.626 10.276-1.669 10.566.242.154.592.241 1.058.04.225-1.108.738-3.231 1.538-4.299 1.113-1.484.742-4.452 1.113-5.38.371-.927 1.856-7.047 3.34-7.976 1.956-1.226.513-3.962.133-3.962"/>
                        <path fill="#0E1D2C" d="M61.004 65.126v.008l-1.485.37c-.742.557 2.412.372 2.412.372s.044-.278.131-.71c-.466.201-.816.114-1.058-.04"/>
                        <path fill="#F0B57C" d="M58.333 38s4.065-.717 6.311-1.216c0 0 1.49-1.758 3.01-1.594.979.106 2.56.927.696 1.727-1.865.8-3.288 1.431-3.288 1.431l-6.534.32s-.246.838-.587.878c-.34.041-2.187.032-1.987-.223.2-.255 1.31-.618 1.31-.618s-1.137.136-1.164-.091c-.027-.228 2.233-.613 2.233-.613"/>
                        <path fill="#2A4E96" d="M62.562 37.166s.53.826.114 1.25c0 0 .215-.014.44.183.223.197.439.188.508.117.07-.071.21-.146.21-.146s1.757.686 3.94-.568 2.587-1.957 2.278-2.494c-.31-.537-.414-1.356-1.986-1.02-1.571.338-3.243 1.778-3.666 2-.423.223-.903.377-.903.377s-.148-.194-.336-.12c-.189.075-.466.141-.599.42"/>
                        <path fill="#D9896A" d="M67.558 35.838s.862-.45 1.118-.726c.255-.276 1.143-1.377.984-2.036 0 0-1.141.433-1.483-.473-.447-1.18 1.707-3.929 2.233-4.083.527-.154 1.697-.866 2.797.022s-.48 4.679-1.67 4.859c0 0-1.279 2.11-.837 2.794 0 0-1.818.773-2.503.268-.686-.506-.64-.625-.64-.625"/>
                        <g transform="translate(67.514 27.921)">
                            <mask id="3y04rjze4H" fill="#fff">
                                <use xlink:href="#wrgtpm5jkG"/>
                            </mask>
                            <use fill="#CC8A5E" xlink:href="#wrgtpm5jkG"/>
                            <path fill="#B57257" d="M2.14 5.544c.016-.076.025-.149.025-.218 0-.06-.006-.117-.019-.171 0 0 .792-.165 1.048-.441 0 0-.549.714-1.053.83" mask="url(#3y04rjze4H)"/>
                        </g>
                        <path fill="#DE4B68" d="M65.906 44.69c1.444.227 2.448.35 2.736-.533.184-.565.243-2.056 1.443-3.267.864-.872 2.503-3.24 1.647-4.67-.856-1.431-2.69-.693-3.089-.677-.398.016.357-1.079.357-1.079-1.978.478-3.034 1.38-3.882 2.817-1.217 2.063-1.61 6.629-1.264 7.18l2.052.228"/>
                        <g transform="translate(63.58 34.41)">
                            <mask id="epb2kkx3bJ" fill="#fff">
                                <use xlink:href="#4ttj1n77kI"/>
                            </mask>
                            <use fill="#2A4E96" xlink:href="#4ttj1n77kI"/>
                            <path fill="#233862" d="M1.614 6.42c-.43 0-.833-.02-1.191-.047.064-.369.14-.741.23-1.106l1.865.585c.16.05.315.073.465.073 1.149 0 1.944-1.36 1.181-2.387l-.705-.95c.374-.25.614-.44.614-.44l3.534 1.38C6.606 5.925 3.782 6.42 1.614 6.42m5.998-2.902l.636-1.52-.636 1.52" mask="url(#epb2kkx3bJ)"/>
                        </g>
                        <path fill="#212121" d="M69.557 29.312s-.86-.541-.556-1.073c.304-.532 1.14 0 1.14 0s-1.14-1.064-.456-1.444c.684-.38 2.052.684 2.052.684s-.228-.76.304-.988c.532-.228 2.128 1.52 1.748 2.584 0 0 1.672.608.152 2.431-1.52 1.825-2.432 1.9-2.432 1.9s-.212-.638.152-1.367c0 0 .152.304.456.152.304-.152.684-.608.608-.836-.076-.228-.988.076-.988.076s-.38-.836 0-1.216 0-.532 0-.532-1.44.05-1.784-.735c0 0-.144.07-.396.364"/>
                        <path fill="#D0A85A" d="M56.667 23.019l2.976 4.01c.363.49 1 .69 1.579.495l4.733-1.59c1.37-.461 2.53 1.102 1.692 2.28l-2.894 4.07c-.354.496-.347 1.164.017 1.654l2.975 4.01c.862 1.162-.266 2.748-1.646 2.315l-4.764-1.496c-.582-.182-1.215.03-1.569.528l-2.894 4.069c-.838 1.178-2.695.596-2.71-.85l-.05-4.994c-.006-.61-.404-1.146-.986-1.329l-4.764-1.495c-1.38-.433-1.4-2.38-.03-2.84l4.734-1.59c.578-.195.965-.74.96-1.35l-.051-4.992c-.015-1.447 1.83-2.067 2.692-.905"/>
                        <g transform="translate(47.26 22.22)">
                            <mask id="b6orkcrocL" fill="#fff">
                                <use xlink:href="#mawweolceK"/>
                            </mask>
                            <path fill="#F2BF4C" d="M8.962.61l2.975 4.011c.364.49 1.001.69 1.579.495l4.733-1.59c1.371-.461 2.531 1.102 1.693 2.28l-2.895 4.07c-.353.496-.346 1.164.017 1.654l2.976 4.01c.862 1.162-.266 2.748-1.646 2.315l-4.765-1.496c-.582-.182-1.215.03-1.568.528l-2.895 4.069c-.838 1.178-2.695.596-2.71-.85l-.05-4.994c-.006-.61-.404-1.146-.986-1.329L.656 12.288c-1.38-.433-1.4-2.38-.029-2.84l4.734-1.59c.578-.195.965-.74.959-1.349l-.05-4.993C6.255.069 8.1-.551 8.962.61" mask="url(#b6orkcrocL)"/>
                        </g>
                        <path fill="#F9DF9F" d="M52.123 31.605c.45-.248.91-.467 1.376-.674.059-.026.118-.053.17-.08l.08-.039.077-.044c.103-.059.198-.13.288-.206.182-.152.334-.336.45-.54.12-.202.206-.425.247-.658.021-.116.037-.234.036-.353l.001-.089-.003-.095-.002-.191c-.008-.51-.004-1.02.032-1.533.099.504.165 1.01.22 1.517.014.13.033.247.036.387.009.135 0 .272-.018.407-.037.271-.134.533-.269.77-.14.235-.32.45-.537.616-.11.081-.223.157-.346.216l-.09.046-.095.038c-.064.026-.124.045-.185.065-.483.164-.97.317-1.468.44M48.114 33.78c-.06-.17-.101-.342-.137-.516-.008-.044-.02-.084-.024-.132-.005-.047-.002-.095.006-.143.017-.095.067-.19.137-.28.074-.089.169-.171.285-.24.058-.034.12-.065.185-.092l.049-.02.05-.018c.035-.013.067-.022.1-.032.26-.08.523-.158.792-.225-.242.108-.49.207-.74.302-.03.012-.063.024-.09.036l-.043.017-.042.02c-.055.025-.106.054-.154.085-.097.062-.177.133-.238.21-.063.075-.107.157-.126.24-.01.041-.018.083-.016.124v.031l.003.033.003.066c.01.177.014.354 0 .534M55.507 43.301c-.177-.033-.347-.083-.515-.139-.043-.014-.083-.024-.127-.046-.043-.017-.083-.044-.12-.075-.075-.063-.133-.154-.175-.26-.04-.108-.064-.231-.065-.366 0-.067.002-.136.012-.206l.007-.052.01-.054.022-.102c.06-.265.125-.531.2-.798-.026.263-.064.527-.107.791l-.015.097-.006.046-.004.045c-.006.061-.005.12-.003.177.005.114.027.22.063.31.034.093.083.172.145.23.03.03.063.057.1.076l.027.015.03.015.059.03c.158.08.313.165.462.266"/>
                        <path fill="#CC8A5E" d="M58.264 39.018s4.775-.456 7.423-.828c0 0 3.222-2.657 4.966-2.327 1.124.213 1.547 2.068-.687 2.823-2.233.754-3.94 1.354-3.94 1.354l-7.597-.23s-.362.946-.76.962c-.4.016-2.536-.165-2.281-.442.255-.276 1.574-.595 1.574-.595s-1.33.053-1.34-.213c-.01-.266 2.642-.504 2.642-.504"/>
                        <path fill="#2A4E96" d="M64.006 38.381s.502 1.132.064 1.6c0 0 .228-.014.464.204.237.22.465.21.538.131.073-.079.222-.16.222-.16s1.855.762 4.158-.622c2.303-1.385 2.728-2.162 2.4-2.758-.328-.595-.44-1.503-2.098-1.133-1.659.37-3.42 1.961-3.867 2.207-.447.246-.954.415-.954.415s-.156-.215-.354-.133c-.2.082-.433-.06-.573.249"/>
                    </g>
                </g>
            </g>
        </g>
    </g>
</svg>
