<svg xmlns="http://www.w3.org/2000/svg" width="16" height="16" viewBox="0 0 16 16">
    <g fill="none" fill-rule="evenodd">
        <g fill="#E96C76" fill-rule="nonzero">
            <g>
                <g>
                    <path d="M8 0C3.582 0 0 3.582 0 8s3.582 8 8 8 8-3.582 8-8c0-2.122-.843-4.157-2.343-5.657S10.122 0 8 0zm.8 11.2c0 .442-.358.8-.8.8-.442 0-.8-.358-.8-.8v-4c0-.442.358-.8.8-.8.442 0 .8.358.8.8v4zM8 5.6c-.442 0-.8-.358-.8-.8 0-.442.358-.8.8-.8.442 0 .8.358.8.8 0 .442-.358.8-.8.8z" transform="translate(-16 -172) translate(16 165) translate(0 7)"/>
                </g>
            </g>
        </g>
    </g>
</svg>
