<svg xmlns="http://www.w3.org/2000/svg" width="58" height="50" viewBox="0 0 58 50">
    <g fill="none" fill-rule="evenodd">
        <g>
            <g>
                <g transform="translate(-286 -98) translate(286 98) translate(3.602 26.843)">
                    <path fill="#E0E0E0" fill-rule="nonzero" d="M3.384 17.902L.24 16.136c-.275-.16-.275-.417 0-.577l15.768-9.136c.314-.159.685-.159.998 0l3.143 1.762c.276.16.276.417 0 .577L4.382 17.898c-.313.16-.684.162-.998.004z"/>
                    <ellipse cx="23.076" cy="18.062" fill="#DFEAF3" rx="7.672" ry="4.739"/>
                    <path fill="#E0E0E0" fill-rule="nonzero" d="M52.673 7.56L39.827.142c-.279-.14-.608-.14-.887 0l-8.682 5.014c-.11.037-.184.14-.184.256 0 .116.074.22.184.256l12.844 7.415c.28.142.609.142.888 0l8.683-5.013c.103-.046.173-.143.183-.255 0-.122-.133-.233-.183-.257z"/>
                    <path fill="#DFEAF3" d="M40.317 17.87c-.676-.16-1.618-.044-2.528-.021 1.381-1.148 1.186-2.736-.586-3.76-1.992-1.15-5.223-1.15-7.215 0s-1.992 3.016 0 4.166c1.926 1.115 5.026 1.15 7.027.103l.12.017c1.136.126 2.242-.361 3.22 0 .977.36.571 1.103.672 1.3.101.198.383.061.383-.523 0-.584-.385-1.113-1.093-1.282z"/>
                </g>
                <g fill-rule="nonzero">
                    <g>
                        <path fill="#90CAF9" d="M6.1 5.734C5.35 2.623 3.023-.852.713.371c-2.31 1.223 1.673 3.954 2.827 6.523 1.01 2.252 2.142 5.307 2.408 6.028l.864-.403c-.005-.768-.072-4.109-.714-6.785z" transform="translate(-286 -98) translate(286 98) translate(.11 29.611)"/>
                        <path fill="#047C34" d="M6.1 5.734C5.35 2.623 3.023-.852.713.371c-2.31 1.223 1.673 3.954 2.827 6.523 1.01 2.252 2.142 5.307 2.408 6.028l.864-.403c-.005-.768-.072-4.109-.714-6.785z" transform="translate(-286 -98) translate(286 98) translate(.11 29.611)"/>
                        <path fill="#FFF" d="M6.139 12.157c.044 0 .08-.036.08-.08C6.2 6.023 3.647 2.263 1.468.882 1.43.86 1.38.87 1.355.908c-.023.037-.012.087.026.11 2.145 1.358 4.657 5.07 4.677 11.058 0 .021.008.042.023.057.016.016.036.024.058.024z" transform="translate(-286 -98) translate(286 98) translate(.11 29.611)"/>
                        <path fill="#62AD41" d="M5.618 9.455C3.833 5.844 1.34 5.461.418 6.281-.32 6.935.235 7.93.92 8.355c.893.552 3.929 1.997 4.952 4.602l.674-.317c-.024-.466-.167-1.642-.93-3.185z" transform="translate(-286 -98) translate(286 98) translate(.11 29.611)"/>
                        <path fill="#FFF" d="M6.171 12.511h.018c.047-.01.076-.055.067-.1-.59-2.93-3.38-4.962-4.778-5.278-.044-.006-.085.023-.094.066-.01.043.015.087.057.1 1.358.307 4.072 2.287 4.647 5.145.008.04.043.068.083.067z" transform="translate(-286 -98) translate(286 98) translate(.11 29.611)"/>
                    </g>
                </g>
                <g fill-rule="nonzero">
                    <g>
                        <g>
                            <path fill="#37474F" d="M14.856.24L.784 8.363c-.458.264-.748.746-.767 1.274v32.153c0 .523.321 1.13.722 1.36.4.23 1.083.205 1.537-.056l14.021-8.094c.482-.315.786-.841.819-1.417V1.541c0-.521-.323-1.13-.723-1.36-.4-.23-1.085-.204-1.537.06z" transform="translate(-286 -98) translate(286 98) translate(5.528 .24)"/>
                            <path fill="#263238" d="M2.078 43.186c-.437.17-.998.162-1.341-.037-.398-.228-.723-.842-.723-1.36V9.636c.009-.248.08-.489.207-.7l1.325.748c-.23.267-.363.602-.38.953v31.815c-.003.629.399.926.912.734z" transform="translate(-286 -98) translate(286 98) translate(5.528 .24)"/>
                            <path fill="#455A64" d="M1.884 9.389c-.426.278-.694.742-.722 1.25v31.815c0 .704.5.993 1.11.64l14.021-8.095c.483-.315.787-.841.819-1.417V1.541c0-.52-.368-.732-.819-.472l-14.41 8.32z" transform="translate(-286 -98) translate(286 98) translate(5.528 .24)"/>
                            <path fill="#37474F" d="M2.624 11.406L1.846 11.855 1.846 40.894 2.624 40.445 15.805 32.836 16.582 32.387 16.582 3.349 15.806 3.797z" transform="translate(-286 -98) translate(286 98) translate(5.528 .24)"/>
                            <path fill="#90CAF9" d="M15.598 31.736V3.916l-12.974 7.49-.778.45v27.822l12.974-7.49c.429-.248.778-.452.778-.452z" transform="translate(-286 -98) translate(286 98) translate(5.528 .24)"/>
                            <path fill="#DCE8FD" d="M15.598 31.736V3.916l-12.974 7.49-.778.45v27.822l12.974-7.49c.429-.248.778-.452.778-.452z" transform="translate(-286 -98) translate(286 98) translate(5.528 .24)"/>
                            <path fill="#000" d="M8.185 6.648l2.367-1.366c.14-.082.255-.024.255.129-.013.174-.108.331-.255.425L8.185 7.202c-.14.08-.256.023-.256-.13.013-.174.108-.332.256-.424zM12.247 4.3c.132-.076.24-.015.24.138-.009.17-.098.323-.24.415-.133.077-.241.015-.241-.138.01-.169.099-.323.24-.415zM13.206 3.747c.132-.077.24-.014.24.139-.009.168-.098.323-.24.415-.132.076-.24.014-.24-.139.008-.169.098-.323.24-.415zM5.537 8.177c.132-.077.24-.015.24.138-.009.17-.098.323-.24.416-.132.077-.24.014-.24-.139.008-.169.098-.323.24-.415zM6.493 7.623c.132-.076.24-.014.24.139-.009.169-.098.323-.24.415-.133.077-.24.014-.24-.139.009-.168.098-.323.24-.415z" transform="translate(-286 -98) translate(286 98) translate(5.528 .24)"/>
                        </g>
                        <g>
                            <path fill="#000" d="M.502 10.537c-.127-.002-.247-.056-.333-.148-.086-.093-.13-.218-.123-.344V3.576c.002-.138.041-.273.112-.391.066-.12.163-.219.28-.289L5.125.194C5.206.146 5.3.12 5.393.119c.184-.002.35.111.416.283.022.069.034.14.034.212v6.47c-.01.276-.157.53-.39.679l-4.684 2.7c-.027.015-.055.028-.084.04-.058.022-.12.034-.183.034z" opacity=".1" transform="translate(-286 -98) translate(286 98) translate(5.528 .24) translate(2.167 13.843)"/>
                            <g>
                                <path fill="#FAFAFA" d="M5.887.602C5.88.442 5.794.295 5.66.207L5.473.1c-.142-.074-.312-.074-.455 0L.332 2.805c-.134.087-.219.234-.227.394v6.47c.008.16.093.306.227.394l.186.107c.143.072.312.072.455 0l4.684-2.707c.134-.088.219-.234.228-.394L5.887.602z" transform="translate(-286 -98) translate(286 98) translate(5.528 .24) translate(2.167 13.843) translate(.24 .361)"/>
                                <path fill="#E0E0E0" d="M.105 9.668c.008.16.093.307.227.395l.186.107c.13.065.281.072.416.018-.107.041-.189-.02-.189-.15V3.569c.003-.08.026-.156.068-.224l-.642-.37c-.04.068-.063.145-.066.224v6.47z" transform="translate(-286 -98) translate(286 98) translate(5.528 .24) translate(2.167 13.843) translate(.24 .361)"/>
                                <path fill="#F0F0F0" d="M5.88.54C5.854.443 5.76.413 5.66.473L.973 3.175c-.068.042-.123.1-.16.17l-.64-.37c.037-.069.092-.127.16-.17L5.017.105c.143-.073.312-.073.455 0L5.66.21c.115.075.195.194.22.33z" transform="translate(-286 -98) translate(286 98) translate(5.528 .24) translate(2.167 13.843) translate(.24 .361)"/>
                            </g>
                            <g fill="#90CAF9">
                                <path d="M.067 6.26c-.01-.001-.019-.004-.027-.01-.017-.009-.028-.027-.028-.046V2.82c0-.019.01-.037.028-.046L2.713 1.23c.017-.01.038-.01.056 0 .017.01.027.028.027.048v3.38c0 .02-.01.038-.027.049L.094 6.25c-.008.005-.017.008-.027.01zM.12 2.853v3.25l2.564-1.48v-3.25L.12 2.853z" transform="translate(-286 -98) translate(286 98) translate(5.528 .24) translate(2.167 13.843) translate(2.167 2.769)"/>
                                <path d="M1.17 5.62c-.03 0-.055-.024-.055-.054v-3.37l-.482-.694-.513 1.34c-.01.028-.042.042-.07.031-.014-.005-.025-.015-.031-.029-.006-.013-.006-.028 0-.042l.553-1.43c.007-.019.024-.032.044-.035.02-.002.04.007.052.023l.55.793c.006.01.01.02.01.032v3.381c0 .015-.007.029-.018.04-.01.01-.025.015-.04.014z" transform="translate(-286 -98) translate(286 98) translate(5.528 .24) translate(2.167 13.843) translate(2.167 2.769)"/>
                                <path d="M1.17 2.24c-.018 0-.035-.009-.045-.024l-.55-.793C.567 1.41.563 1.394.567 1.379c.004-.014.013-.027.026-.034l1.574-.91c.024-.014.056-.007.072.016l.55.794c.009.012.012.028.008.043-.003.015-.012.028-.026.036l-1.567.909c-.01.006-.022.008-.034.007zM.7 1.41l.48.703 1.479-.855-.481-.702-1.479.854z" transform="translate(-286 -98) translate(286 98) translate(5.528 .24) translate(2.167 13.843) translate(2.167 2.769)"/>
                                <path d="M.62 1.444c-.015 0-.029-.005-.039-.016-.01-.01-.016-.024-.015-.039v-.37c0-.02.01-.038.027-.048L2.167.065c.017-.01.038-.01.055 0s.027.028.028.048v.368c0 .031-.025.056-.056.056-.03 0-.055-.025-.055-.056V.207L.675 1.05v.338c.001.015-.005.03-.015.04-.01.01-.025.017-.04.016zM1.531 4.784l.107-.309.007-.015c.003-.008.01-.015.017-.018L1.7 4.42c.003-.002.007-.002.01 0 .002.004.002.008 0 .012v.482c.002.005.002.01 0 .016-.001.006-.005.01-.01.012l-.045.027h-.01c-.003-.004-.003-.008 0-.012v-.291l-.073.209s0 .01-.008.017c-.003.006-.008.01-.014.013l-.029.017c-.003.003-.009.003-.013 0l-.007-.007-.073-.127v.31l-.011.012-.046.026c-.003.002-.008.002-.01 0-.002-.004-.002-.008 0-.012v-.481c-.002-.006-.002-.012 0-.017.002-.005.006-.009.01-.012l.039-.022h.015l.009.007.097.185zM1.82 4.874c-.004.002-.009.002-.012 0-.002-.004-.002-.008 0-.012v-.499l.011-.012.048-.026c.002-.003.007-.003.01 0 .002.004.002.008 0 .012v.481c-.001.012-.007.022-.015.03l-.043.026zM2.226 4.545h.01c.002.004.002.008 0 .012v.053c.002.006.002.012 0 .017-.002.005-.006.01-.01.012l-.241.14c-.003.003-.007.003-.01 0v-.508c.002-.005.006-.01.01-.012l.046-.027c.003-.002.007-.002.01 0 .002.004.002.008 0 .012v.41l.185-.109zM2.593 4.396v.017c-.002.005-.006.01-.011.012l-.053.031c-.006.003-.012.003-.018 0h-.007l-.133-.12V4.546c-.002.006-.006.01-.01.014l-.046.025c-.003.003-.008.003-.011 0-.002-.004-.002-.007 0-.01v-.499c.003-.005.006-.01.01-.012l.046-.027c.004-.002.008-.002.011 0 .002.004.002.008 0 .012v.176l.12-.25c.003-.007.007-.013.012-.018.003-.006.008-.01.014-.014l.05-.029h.011c.002.004.002.009 0 .013v.013l-.15.305.165.151z" transform="translate(-286 -98) translate(286 98) translate(5.528 .24) translate(2.167 13.843) translate(2.167 2.769)"/>
                            </g>
                        </g>
                        <g>
                            <path fill="#000" d="M.494 10.52c-.127-.002-.248-.055-.334-.148-.086-.093-.13-.217-.123-.344V3.56c.003-.138.042-.272.112-.39.066-.12.163-.22.28-.29L5.118.177c.08-.049.172-.075.266-.076.184-.002.35.11.416.283.022.069.034.14.034.212v6.469c-.01.276-.156.53-.39.678L.75 10.446c-.027.015-.055.028-.083.04-.055.021-.114.033-.172.034z" opacity=".1" transform="translate(-286 -98) translate(286 98) translate(5.528 .24) translate(8.667 10.111)"/>
                            <g>
                                <path fill="#FAFAFA" d="M5.898.584C5.89.424 5.805.276 5.67.189L5.484.082c-.143-.074-.312-.074-.455 0L.343 2.783c-.135.087-.22.234-.229.395v6.469c.01.16.094.307.23.394l.184.107c.143.073.312.073.455 0L5.67 7.446c.136-.087.22-.234.23-.395V.584z" transform="translate(-286 -98) translate(286 98) translate(5.528 .24) translate(8.667 10.111) translate(.24 .361)"/>
                                <path fill="#E0E0E0" d="M.11 9.647c.008.16.093.307.228.394l.186.107c.13.065.281.072.416.019-.107.04-.189-.02-.189-.15v-6.47c.003-.079.026-.156.066-.224l-.64-.37c-.04.068-.064.145-.067.225v6.469z" transform="translate(-286 -98) translate(286 98) translate(5.528 .24) translate(8.667 10.111) translate(.24 .361)"/>
                                <path fill="#F0F0F0" d="M5.885.519C5.858.42 5.77.39 5.665.45L.98 3.154c-.068.041-.123.1-.16.17l-.642-.37c.038-.07.094-.128.161-.17L5.023.082c.144-.072.313-.072.456 0l.187.107c.115.075.194.194.219.33z" transform="translate(-286 -98) translate(286 98) translate(5.528 .24) translate(8.667 10.111) translate(.24 .361)"/>
                            </g>
                            <g fill="#90CAF9">
                                <path d="M1.12 5.838c-.264 0-.51-.144-.732-.429-.636-.816-.293-2.591.42-3.179.481-.394.733-.339.907-.222.155-.087.288-.208.388-.354.215-.302.514-.535.86-.668.18-.074.388-.026.517.12.351.369.434 1.434-.035 2.58C2.778 5.31 2.1 5.384 1.937 5.378c-.08.1-.396.455-.81.46H1.12zm.324-3.805c-.133 0-.31.07-.566.282-.664.547-.996 2.266-.404 3.027.202.259.426.388.653.386.415-.006.738-.435.741-.44.013-.017.035-.025.056-.022.006 0 .71.105 1.419-1.622.454-1.104.385-2.119.057-2.462-.099-.114-.26-.151-.4-.093-.327.127-.61.348-.813.635-.1.143-.227.265-.373.36l.02.019c.087.072.145.12.216.106.099-.015.26-.139.384-.375.01-.017.027-.028.046-.028.02 0 .038.009.049.026.01.016.01.037.001.054-.12.241-.306.407-.463.431-.116.005-.227-.043-.304-.13-.082-.09-.197-.145-.319-.154z" transform="translate(-286 -98) translate(286 98) translate(5.528 .24) translate(8.667 10.111) translate(1.685 2.769)"/>
                                <path d="M2.08 2.302c-.03 0-.054-.023-.055-.052-.03-.738.417-1.867.854-2.16.026-.016.06-.01.076.016.017.025.01.06-.016.076-.404.27-.833 1.37-.805 2.063 0 .014-.004.028-.014.039-.01.01-.023.017-.038.018H2.08z" transform="translate(-286 -98) translate(286 98) translate(5.528 .24) translate(8.667 10.111) translate(1.685 2.769)"/>
                                <path d="M2.122 1.857h-.014c-.158-.007-.298-.08-.366-.188C1.51 1.34 1.63.8 1.634.779c.007-.025.027-.046.055-.058.023-.01.55-.23.928-.03.34.181.262.64.059.888-.113.157-.32.26-.554.278zm-.28-1.01c-.02.126-.07.512.093.743.031.056.101.095.181.1.16-.016.3-.09.374-.2.171-.208.204-.551 0-.662-.203-.112-.528-.022-.648.02z" transform="translate(-286 -98) translate(286 98) translate(5.528 .24) translate(8.667 10.111) translate(1.685 2.769)"/>
                            </g>
                        </g>
                        <g>
                            <path fill="#000" d="M.502 10.472c-.127-.002-.247-.055-.333-.148-.086-.093-.13-.217-.123-.343V3.51c.003-.138.041-.273.112-.391.066-.12.163-.219.28-.29L5.125.129C5.206.08 5.3.054 5.393.053c.184-.002.35.11.416.283.022.068.034.14.034.212v6.47c-.01.276-.157.53-.39.679l-4.684 2.7c-.027.014-.055.028-.084.04-.058.023-.12.035-.183.035z" opacity=".1" transform="translate(-286 -98) translate(286 98) translate(5.528 .24) translate(2.167 22.75)"/>
                            <g>
                                <path fill="#FAFAFA" d="M5.887.656C5.878.496 5.794.35 5.66.262L5.473.155c-.142-.073-.312-.073-.455 0L.332 2.856c-.134.088-.219.234-.227.394v6.469c.009.16.093.305.227.392l.186.107c.143.073.312.073.455 0L5.657 7.52c.135-.088.22-.235.228-.395L5.887.656z" transform="translate(-286 -98) translate(286 98) translate(5.528 .24) translate(2.167 22.75) translate(.24 .24)"/>
                                <path fill="#E0E0E0" d="M.105 9.72c.01.159.094.304.227.391l.186.107c.13.065.281.072.416.018-.107.041-.189-.02-.189-.15V3.62c.003-.08.026-.157.068-.224l-.642-.37c-.04.067-.063.145-.066.224V9.72z" transform="translate(-286 -98) translate(286 98) translate(5.528 .24) translate(2.167 22.75) translate(.24 .24)"/>
                                <path fill="#F0F0F0" d="M5.88.592C5.854.495 5.76.465 5.66.525L.973 3.227c-.068.042-.123.1-.16.17l-.64-.37c.037-.07.092-.128.16-.17L5.017.156c.143-.072.312-.072.455 0l.187.107c.115.076.195.195.22.33z" transform="translate(-286 -98) translate(286 98) translate(5.528 .24) translate(2.167 22.75) translate(.24 .24)"/>
                            </g>
                            <g fill="#90CAF9">
                                <path d="M1.463 4.927c-.01 0-.02-.003-.03-.009-.016-.01-.026-.028-.026-.048.041-2.4 1.708-4.617 3.06-4.852.015-.003.03 0 .043.01.012.01.02.024.022.04 0 .052.089 1.313-1.236 3.109C2.34 4.469 1.523 4.903 1.49 4.92c-.008.004-.018.006-.027.006zM4.423.138C3.143.418 1.602 2.5 1.52 4.774c.233-.145.922-.626 1.685-1.662C4.343 1.572 4.422.412 4.424.138z" transform="translate(-286 -98) translate(286 98) translate(5.528 .24) translate(2.167 22.75) translate(1.204 2.287)"/>
                                <path d="M3.842 2.276c-.563-.035-.86-.522-.816-1.34 0-.014.007-.028.018-.038.011-.01.025-.014.04-.013.03.002.053.027.052.058-.041.747.22 1.194.713 1.222.03.003.053.03.051.06 0 .014-.007.028-.018.038-.01.01-.025.014-.04.013zM.438 5.647c-.115.001-.227-.042-.312-.12-.018-.018-.022-.045-.01-.067.405-.768 1.012-1.076 1.377-.977.029.008.046.038.038.067-.003.014-.012.027-.025.034-.013.007-.028.009-.042.005-.322-.087-.865.219-1.23.883.08.054.18.073.275.054.302-.042.692-.337.907-.688.017-.023.048-.029.073-.014.024.015.033.046.02.071-.23.376-.653.694-.985.74-.029.006-.057.01-.086.012z" transform="translate(-286 -98) translate(286 98) translate(5.528 .24) translate(2.167 22.75) translate(1.204 2.287)"/>
                                <path d="M1.672 6.547c-.01 0-.02-.003-.03-.008-.429-.28-.44-1.077-.23-1.686.004-.013.014-.025.027-.031.013-.007.028-.008.042-.004.028.01.044.041.034.07-.19.552-.182 1.25.138 1.52.308-.636.24-1.444.014-1.65-.01-.01-.016-.024-.016-.038 0-.015.006-.029.016-.039.01-.01.024-.016.039-.016.014 0 .028.006.038.016.287.27.334 1.171-.02 1.84-.008.014-.02.024-.035.027l-.017-.001zM3.24 2.74c-.341-.014-.586-.47-.601-.887-.001-.03.022-.056.052-.057.015-.001.03.004.04.014.011.01.017.024.017.039.012.361.226.77.495.781.027.004.047.027.047.055 0 .027-.02.05-.047.055H3.24zM2.817 3.23h-.009c-.218-.035-.46-.433-.497-.723-.004-.02.004-.04.02-.054.016-.013.038-.016.057-.007.019.008.031.026.033.047.033.261.252.602.405.625.028.005.047.03.044.059-.002.028-.025.05-.053.05v.003zM2.431 3.71h-.01c-.18-.033-.394-.389-.426-.588-.003-.014 0-.029.01-.04.008-.012.02-.02.035-.022.015-.003.03 0 .041.009.012.008.02.021.022.035.031.19.226.482.338.498.028.005.046.03.044.059-.003.027-.025.05-.054.05V3.71zM2.011 4.158H2c-.141-.044-.249-.16-.283-.305-.006-.03.012-.059.041-.066.03-.007.06.011.067.04.024.104.099.187.198.223.03.007.048.036.042.065-.005.025-.027.043-.053.043zM3.91 1.961c-.07 0-.139-.014-.2-.04-.165-.087-.255-.233-.238-.384.004-.307.206-.594.54-.77.139-.069.317-.075.463-.016.168.086.26.233.242.385-.005.307-.208.592-.544.767-.08.035-.17.055-.263.058zm.351-1.01c-.036.002-.072.011-.102.027-.236.131-.377.338-.382.559 0 .102.042.16.08.176.04.016.106 0 .141-.018.236-.132.377-.338.382-.559 0-.105-.042-.16-.08-.176-.008-.004-.016-.007-.025-.008h-.014zM1.944 2.724c-.022 0-.041-.013-.05-.033-.074-.163-.413-.077-.417-.077-.02.006-.04 0-.054-.015-.015-.014-.02-.036-.012-.054.098-.294.67-.94 1.129-1.026.014-.003.029 0 .04.008.013.009.021.021.024.035.003.015 0 .03-.008.042-.008.012-.021.02-.036.022-.373.071-.842.57-1.005.862.136-.018.361-.017.44.159.006.013.006.028 0 .042-.004.013-.015.024-.028.03-.007.004-.015.005-.023.005z" transform="translate(-286 -98) translate(286 98) translate(5.528 .24) translate(2.167 22.75) translate(1.204 2.287)"/>
                            </g>
                        </g>
                        <g>
                            <path fill="#000" d="M.494 10.44c-.127-.002-.248-.056-.334-.149-.086-.093-.13-.217-.123-.344V3.48C.04 3.34.08 3.206.15 3.088c.066-.12.163-.22.28-.29L5.118.097c.08-.048.172-.074.266-.074.184-.003.35.11.416.281.022.069.033.14.034.212v6.467c-.01.276-.156.53-.39.678L.75 10.363c-.027.015-.055.029-.083.04-.055.022-.113.034-.172.037z" opacity=".1" transform="translate(-286 -98) translate(286 98) translate(5.528 .24) translate(8.667 19.019)"/>
                            <g>
                                <path fill="#FAFAFA" d="M5.898.634C5.89.474 5.804.328 5.67.241L5.484.134C5.341.06 5.172.06 5.03.134l-4.686 2.7c-.135.088-.22.235-.229.396v6.468c.01.16.094.307.23.395l.184.107c.143.073.312.073.455 0L5.67 7.498c.136-.088.221-.235.23-.396V.634z" transform="translate(-286 -98) translate(286 98) translate(5.528 .24) translate(8.667 19.019) translate(.24 .24)"/>
                                <path fill="#E0E0E0" d="M.11 9.698c.009.16.094.307.228.395l.186.107c.13.065.281.072.416.018-.107.04-.189-.02-.189-.15V3.599c.003-.079.026-.156.066-.224l-.64-.366c-.041.068-.064.146-.067.225v6.464z" transform="translate(-286 -98) translate(286 98) translate(5.528 .24) translate(8.667 19.019) translate(.24 .24)"/>
                                <path fill="#F0F0F0" d="M5.885.57C5.858.474 5.77.444 5.665.504L.98 3.205c-.067.04-.122.097-.16.165l-.642-.36c.038-.07.094-.13.161-.172l4.685-2.7c.144-.073.313-.073.456 0l.187.106c.114.075.194.192.219.327z" transform="translate(-286 -98) translate(286 98) translate(5.528 .24) translate(8.667 19.019) translate(.24 .24)"/>
                            </g>
                            <g fill="#90CAF9">
                                <path d="M1.06 4.268c-.249.003-.494-.057-.715-.173-.012-.006-.022-.017-.026-.03-.005-.014-.004-.028.002-.041L2.143.052c.006-.017.021-.029.04-.032.017-.003.036.003.049.016l1.822 1.87c.017.017.02.045.007.066-.515.869-1.168 1.565-1.841 1.948-.35.216-.75.336-1.16.348zm-.617-.246c.481.24 1.094.166 1.721-.197.648-.373 1.279-1.037 1.782-1.874L2.209.17.443 4.022z" transform="translate(-286 -98) translate(286 98) translate(5.528 .24) translate(8.667 19.019) translate(1.324 3.37)"/>
                                <path d="M.912 4.802c-.279.002-.554-.065-.801-.195-.013-.007-.023-.018-.027-.03-.005-.014-.004-.029.003-.041L2.143.052c.006-.017.021-.029.04-.032.017-.003.036.003.049.016l2.056 2.109c.017.018.02.046.007.067-.58.979-1.317 1.759-2.075 2.197-.394.243-.845.378-1.308.393zm-.704-.269c.55.27 1.242.193 1.956-.219C2.9 3.89 3.61 3.138 4.18 2.192L2.21.17l-2 4.363z" transform="translate(-286 -98) translate(286 98) translate(5.528 .24) translate(8.667 19.019) translate(1.324 3.37)"/>
                                <path d="M.136 4.613H.113C.1 4.607.09 4.596.085 4.582.08 4.568.08 4.553.087 4.54L2.143.057c.006-.017.021-.03.04-.032.017-.003.036.002.049.016L4.288 2.15c.021.021.021.056 0 .078-.01.01-.024.016-.039.016-.014 0-.028-.006-.038-.016L2.21.176.188 4.587c-.012.017-.031.027-.052.026z" transform="translate(-286 -98) translate(286 98) translate(5.528 .24) translate(8.667 19.019) translate(1.324 3.37)"/>
                                <path d="M2.507 2.07c-.098.002-.193-.016-.267-.049-.291-.125-.22-.497.202-1.108.036-.05.123-.085.225-.092.106-.005.207.021.262.068.303.24.433.528.368.813-.067.13-.234.242-.463.307-.096.036-.21.057-.327.062zm.232-.705c-.073.13-.119.264-.137.399.086-.031.147-.077.172-.13.03-.09.017-.182-.035-.27zM2.507 4.075c-.097 0-.191-.018-.267-.05-.291-.125-.22-.5.202-1.107.035-.05.123-.086.226-.092.104-.008.208.018.262.064.3.242.43.53.368.816-.069.13-.236.24-.464.307-.097.035-.21.056-.327.062zm.232-.71c-.072.131-.118.265-.136.4.086-.03.148-.077.172-.13.029-.09.017-.182-.036-.27zM3.618 3.287c-.046 0-.092-.005-.134-.018-.382-.1-.42-.637-.387-1.076.006-.05.043-.095.102-.124.058-.03.134-.04.204-.026.075 0 .736.136.903.468.083.204.001.423-.215.575-.105.112-.279.186-.473.2zm-.037-.838c-.003.158.022.315.075.468l.054-.04c.118-.106.16-.19.128-.256-.054-.076-.145-.136-.257-.172z" transform="translate(-286 -98) translate(286 98) translate(5.528 .24) translate(8.667 19.019) translate(1.324 3.37)"/>
                                <path d="M1.49 4.39h-.054c-.163-.005-.308-.059-.378-.14-.216-.258.46-.824.756-1.055.062-.046.17-.066.27-.05s.172.064.179.121c0 .13.065.803-.378 1.037-.105.057-.247.088-.395.086zm.249-.614c-.13.108-.21.232-.232.362 0-.018 0-.021.037-.033.119-.098.186-.212.195-.329z" transform="translate(-286 -98) translate(286 98) translate(5.528 .24) translate(8.667 19.019) translate(1.324 3.37)"/>
                                <path d="M2.028 3.296c-.142.002-.278-.032-.36-.092-.282-.204.16-.704.573-1.089.055-.048.161-.075.27-.068.108.009.194.051.217.106.029.069.27.681-.115.974-.106.087-.28.146-.476.163-.035.004-.072.006-.109.006zm.281-.634c-.104.113-.175.232-.212.356.037-.01.067-.024.086-.042.097-.096.141-.205.126-.314z" transform="translate(-286 -98) translate(286 98) translate(5.528 .24) translate(8.667 19.019) translate(1.324 3.37)"/>
                                <path d="M3.01 2.804c-.06 0-.122-.009-.175-.027-.312-.097-.374-.462-.193-1.092.017-.05.074-.093.153-.114.075-.023.164-.023.238 0 .38.134.653.352.755.606.027.184-.098.363-.335.483-.109.08-.268.132-.442.144zm.103-.794c-.028.15-.028.3 0 .449.117-.057.184-.142.181-.231-.028-.084-.1-.16-.204-.218h.023z" transform="translate(-286 -98) translate(286 98) translate(5.528 .24) translate(8.667 19.019) translate(1.324 3.37)"/>
                            </g>
                        </g>
                        <g>
                            <path fill="#000" d="M.56 7.952C.434 7.95.314 7.897.227 7.805c-.086-.093-.13-.216-.123-.342V4.959c.009-.278.156-.533.392-.68L7.78.09c.08-.048.173-.075.267-.076.184-.001.35.111.415.283h.006c.022.069.033.14.034.212v2.501c-.01.277-.155.532-.39.68L.826 7.878c-.027.015-.055.028-.083.04-.059.022-.12.033-.183.033z" opacity=".1" transform="translate(-286 -98) translate(286 98) translate(5.528 .24) translate(4.694 28.648)"/>
                            <g>
                                <path fill="#90CAF9" d="M8.426.618C8.417.457 8.332.31 8.197.223L8.012.116c-.143-.073-.312-.073-.455 0L.273 4.306c-.135.087-.22.234-.228.394v2.5c.008.161.093.308.228.395l.186.108c.143.072.312.072.455 0l7.284-4.19c.135-.089.22-.235.228-.395v-2.5z" transform="translate(-286 -98) translate(286 98) translate(5.528 .24) translate(4.694 28.648) translate(.361 .24)"/>
                                <path fill="#A2CEF6" d="M8.426.618C8.417.457 8.332.31 8.197.223L8.012.116c-.143-.073-.312-.073-.455 0L.273 4.306c-.135.087-.22.234-.228.394v2.5c.008.161.093.308.228.395l.186.108c.143.072.312.072.455 0l7.284-4.19c.135-.089.22-.235.228-.395v-2.5z" opacity=".15" transform="translate(-286 -98) translate(286 98) translate(5.528 .24) translate(4.694 28.648) translate(.361 .24)"/>
                                <path fill="#000" d="M.04 7.2c.01.161.095.308.23.395l.185.108c.13.064.281.071.416.018-.107.04-.188-.02-.188-.15v-2.5c.002-.08.025-.157.066-.225l-.64-.37c-.042.068-.065.145-.068.224v2.5z" opacity=".3" transform="translate(-286 -98) translate(286 98) translate(5.528 .24) translate(4.694 28.648) translate(.361 .24)"/>
                                <path fill="#000" d="M8.415.553c-.028-.097-.12-.128-.22-.067L.91 4.676c-.067.042-.123.1-.16.17l-.642-.37c.039-.069.094-.127.162-.17L7.553.12c.143-.072.312-.072.455 0l.187.109c.114.074.193.19.22.324z" opacity=".15" transform="translate(-286 -98) translate(286 98) translate(5.528 .24) translate(4.694 28.648) translate(.361 .24)"/>
                            </g>
                            <path fill="#FAFAFA" d="M1.772 6.907c-.01.006-.027.006-.038 0-.013-.01-.02-.023-.017-.036V5.44c0-.017.006-.034.017-.048.008-.014.02-.026.038-.034l.671-.267c.07-.032.15-.05.234-.052.057 0 .113.016.153.044.043.035.07.076.082.12.018.051.026.103.026.155 0 .04-.004.08-.014.12-.007.032-.018.064-.033.094-.01.025-.023.048-.038.071-.01.015-.02.03-.032.045.055.019.096.053.113.094.024.057.035.116.032.175 0 .063-.008.125-.025.187-.016.064-.044.127-.081.187-.039.06-.088.117-.149.168-.063.052-.139.096-.224.13l-.715.277zm.78-1.39c.004-.027-.008-.056-.034-.077-.02-.015-.052-.014-.094 0l-.322.128v.253l.322-.129c.042-.016.074-.042.094-.072.022-.032.034-.067.033-.102zm-.45.917l.348-.137c.044-.019.078-.046.1-.079.024-.035.037-.073.038-.112.003-.029-.01-.058-.039-.08-.024-.016-.057-.016-.099 0l-.348.137v.27z" transform="translate(-286 -98) translate(286 98) translate(5.528 .24) translate(4.694 28.648)"/>
                            <path fill="#FAFAFA" d="M3.564 4.315c.008-.006.019-.006.027 0 .009.01.013.023.012.036v.883c0 .096-.01.193-.032.287-.02.087-.05.17-.09.25-.037.072-.083.14-.138.2-.052.056-.111.104-.177.143-.054.033-.115.054-.178.062-.05.005-.099-.01-.138-.04-.043-.04-.074-.09-.089-.146-.023-.082-.034-.167-.032-.252v-.882c0-.017.004-.034.012-.05.006-.013.015-.025.028-.033l.187-.109c.008-.006.02-.006.028 0 .008.01.012.023.01.035v.874c-.005.064.01.128.043.183.029.034.071.035.129 0 .058-.034.104-.086.129-.15.029-.073.043-.152.042-.231V4.5c0-.017.004-.034.012-.048.005-.014.014-.026.026-.034l.19-.104zM4.319 5.367c0 .017-.004.033-.01.048s-.016.026-.029.034l-.187.109c-.008.006-.02.006-.028 0-.008-.01-.012-.024-.01-.037v-.465l-.333-.75c-.002-.007-.002-.016 0-.024 0-.014.003-.028.01-.04.004-.011.011-.02.021-.027l.198-.12c.019-.01.033-.012.043 0 .007.006.013.014.017.023l.18.44.183-.65c.005-.014.01-.029.017-.043.01-.02.024-.036.043-.047l.198-.113c.006-.005.015-.005.022 0 .006.008.01.018.01.029-.001.011-.004.022-.007.032l-.332 1.132-.006.47zM5.698 4.63c-.016.01-.03.01-.04 0-.007-.005-.014-.012-.019-.02l-.328-.566v.748c0 .017-.004.033-.012.048-.006.014-.015.025-.027.034l-.189.108c-.01.006-.019.006-.026 0-.01-.01-.013-.022-.012-.035V3.52c0-.017.004-.034.012-.048.005-.014.014-.026.026-.034l.15-.087c.016-.008.03-.01.04 0 .007.005.013.012.019.02l.328.566V3.19c0-.017.005-.034.012-.05.006-.013.015-.024.028-.032L5.848 3c.007-.008.02-.008.027 0 .008.01.012.022.011.035v1.428c0 .017-.004.034-.01.05-.007.013-.016.024-.028.032l-.15.086zM6.056 3.455c.004-.086.02-.171.048-.254.028-.084.069-.165.122-.241.052-.075.116-.145.191-.208.074-.062.162-.115.261-.156.078-.036.167-.056.26-.06.07-.002.138.016.192.048.058.038.1.086.122.14.03.069.047.14.05.213v.394c-.005.085-.022.17-.05.254-.028.083-.069.164-.122.24-.051.076-.116.146-.193.209-.075.061-.164.114-.262.155-.078.036-.168.057-.261.061-.07.002-.138-.015-.191-.048-.057-.038-.1-.087-.122-.14-.03-.07-.047-.141-.049-.214v-.194c0-.073 0-.136.004-.2zm.876.018v-.09-.1-.098-.084c-.002-.032-.009-.063-.021-.093-.009-.022-.025-.043-.047-.06-.021-.014-.048-.022-.077-.023-.039.002-.076.01-.109.025-.04.017-.077.04-.107.065-.032.026-.058.055-.077.086-.022.032-.038.066-.049.1-.011.037-.018.074-.02.11v.372c-.002.056.022.111.069.156.04.03.102.03.184 0 .082-.034.147-.087.184-.15.042-.068.065-.142.07-.216z" transform="translate(-286 -98) translate(286 98) translate(5.528 .24) translate(4.694 28.648)"/>
                            <path fill="#FAFAFA" d="M7.802 2.675l.093-.8c.002-.02.008-.04.017-.057.007-.012.016-.021.026-.03l.19-.108c.006-.005.015-.005.021 0 .008.008.011.019.01.03v.019l-.186 1.504c-.003.025-.01.048-.022.07-.01.023-.028.043-.05.055l-.12.069c-.02.01-.035.01-.046 0-.013-.01-.022-.026-.025-.042L7.6 2.947l-.107.562c-.005.025-.013.05-.025.072-.01.022-.026.04-.047.053l-.12.07c-.015.01-.035.01-.05 0-.013-.011-.021-.027-.023-.045l-.185-1.29v-.017c0-.014.004-.027.01-.04.004-.01.012-.02.021-.027l.19-.109c.008-.004.018-.004.026 0 .01 0 .014.016.018.036l.091.695.085-.449c0-.01.007-.028.013-.047.006-.019.02-.035.036-.046l.135-.077c.017-.01.029-.01.036 0 .006.01.01.021.013.033l.084.354z" transform="translate(-286 -98) translate(286 98) translate(5.528 .24) translate(4.694 28.648)"/>
                        </g>
                        <g>
                            <path fill="#DCE8FD" d="M0.041 8.605L3.167 12.989 17.904 4.481 14.776 0.099z" transform="translate(-286 -98) translate(286 98) translate(5.528 .24) translate(1.806 3.25)"/>
                            <path fill="#FAFAFA" d="M1.378 7.833L2.718 7.059 5.845 11.442 4.505 12.215zM4.059 6.286L5.399 5.512 8.527 9.896 7.187 10.668zM6.741 4.739L8.081 3.965 11.208 8.348 9.868 9.122zM9.421 3.192L10.761 2.418 13.888 6.801 12.549 7.575zM12.102 1.645L13.442.871 16.569 5.254 15.229 6.028z" transform="translate(-286 -98) translate(286 98) translate(5.528 .24) translate(1.806 3.25)"/>
                            <path fill="#E0E0E0" d="M4.505 12.215c0 .428.3.602.671.387.395-.258.643-.689.67-1.16l-1.34.773zM7.185 10.668c0 .428.3.602.67.387.395-.258.643-.688.67-1.16l-1.34.773zM9.863 9.122c0 .427.3.602.67.387.396-.258.644-.689.67-1.16l-1.34.773zM12.543 7.575c0 .427.3.602.669.388.395-.259.644-.69.67-1.16l-1.34.772zM15.22 6.03c0 .426.3.601.67.386.396-.258.645-.689.67-1.16l-1.34.773z" transform="translate(-286 -98) translate(286 98) translate(5.528 .24) translate(1.806 3.25)"/>
                            <path fill="#90CAF9" d="M3.167 12.988c0 .427.3.602.67.388.394-.258.643-.69.668-1.16l-1.338.772zM5.845 11.442c0 .427.3.602.67.387.395-.258.644-.689.67-1.16l-1.34.773zM8.523 9.896c0 .427.301.602.67.386.396-.258.645-.689.67-1.16l-1.34.774zM11.203 8.349c0 .427.3.602.67.386.395-.257.644-.688.67-1.16l-1.34.774zM13.881 6.802c0 .427.3.602.67.387.396-.258.644-.689.67-1.16l-1.34.773zM16.56 5.255c0 .428.3.602.67.387.395-.258.644-.688.67-1.16l-1.34.773z" transform="translate(-286 -98) translate(286 98) translate(5.528 .24) translate(1.806 3.25)"/>
                            <g fill="#DCE8FD" opacity=".15">
                                <path d="M.037 8.534c0 .428.3.602.67.388.395-.258.643-.69.669-1.16l-1.339.772zM2.716 6.989c0 .426.3.602.669.386.396-.258.645-.689.67-1.16l-1.34.774zM5.394 5.442c0 .427.3.602.67.386.396-.258.644-.689.67-1.16l-1.34.774zM8.073 3.895c0 .428.3.602.67.387.396-.258.645-.69.67-1.16l-1.34.773zM10.752 2.348c0 .428.3.602.67.387.395-.258.644-.688.67-1.16l-1.34.773zM13.431.802c0 .427.3.602.67.386.395-.257.643-.688.669-1.16L13.43.803z" transform="translate(-286 -98) translate(286 98) translate(5.528 .24) translate(1.806 3.25) translate(3.13 4.454)"/>
                            </g>
                            <path fill="#90CAF9" d="M3.167 12.988L0.041 10.668 0.041 8.605z" transform="translate(-286 -98) translate(286 98) translate(5.528 .24) translate(1.806 3.25)"/>
                            <path fill="#A6CCF7" d="M3.167 12.988L0.041 10.668 0.041 8.605z" opacity=".2" transform="translate(-286 -98) translate(286 98) translate(5.528 .24) translate(1.806 3.25)"/>
                        </g>
                    </g>
                </g>
                <g fill-rule="nonzero">
                    <g transform="translate(-286 -98) translate(286 98) translate(33.574 13.482)">
                        <path fill="#90CAF9" d="M2.339 18.624L13.573 25.111 20.647 21.026 9.412 14.538z"/>
                        <path fill="#000" d="M2.339 18.624L13.573 25.111 20.647 21.026 9.412 14.538z" opacity=".5"/>
                        <path fill="#000" d="M19.566 20.285l-9.495-5.487c-.271-.138-.593-.138-.865 0l-3.338 1.926c-.861-.087-1.73.071-2.505.458-1.167.623-1.331 1.619-.36 2.223.928.58 2.568.586 3.73.03l7.15 4.13c.271.139.593.139.865 0l4.815-2.78c.243-.139.243-.363.003-.5z" opacity=".15"/>
                        <path fill="#90CAF9" d="M9.412 4.449L9.412 14.538 2.339 18.624 0.673 9.495z"/>
                        <path fill="#000" d="M0.673 9.495L9.412 4.449 9.412 14.538 2.339 18.624 0.673 9.495" opacity=".4"/>
                        <path fill="#90CAF9" d="M22.312 11.897L20.647 21.026 9.412 14.538 9.412 4.449z"/>
                        <path fill="#000" d="M22.312 11.897L20.647 21.026 9.412 14.538 9.412 4.449z" opacity=".3"/>
                        <path fill="#455A64" d="M22.884 11.897h-.572l-12.9-7.443L.672 9.5l.13.073-.7-.073c.01-.113.08-.21.183-.257l8.683-5.018c.279-.14.608-.14.887 0L22.7 11.641c.05.027.183.135.183.256z"/>
                        <path fill="#90CAF9" d="M15.823.693L15.517.14c.214-.11.469-.108.681.006h-.006c.192.13.287.362.241.59-.335 1.39-1.507 6.357-1.535 6.407l-.511-.299 1.436-6.15z"/>
                        <path fill="#000" d="M15.823.693L15.517.14c.214-.11.469-.108.681.006h-.006c.192.13.287.362.241.59-.335 1.39-1.507 6.357-1.535 6.407l-.511-.299 1.436-6.15z" opacity=".25"/>
                        <path fill="#90CAF9" d="M16.645.41c.2.135.337.345.381.582l1.133 8.026-.57-.328L16.4.794 15.973.42c.21-.109.459-.112.67-.009zM6.543 5.326L6.726 5.974 15.823.693 15.517.14z"/>
                        <path fill="#000" d="M6.543 5.326L6.726 5.974 15.823 0.693 15.517 0.14z" opacity=".25"/>
                        <path fill="#90CAF9" d="M15.974 0.419L16.398 0.794 7.062 6.235 6.726 5.714z"/>
                        <path fill="#000" d="M6.935 14.028c1.247.722 3.268.722 4.515 0 1.247-.722 1.247-1.887 0-2.607-1.247-.72-3.268-.722-4.515 0-1.247.722-1.247 1.887 0 2.607z" opacity=".05"/>
                        <path fill="#EBEBEB" d="M12.204 12.706V7.323H6.818v5.383c-.023.414.24.833.786 1.15 1.052.608 2.759.608 3.812 0 .551-.317.811-.736.788-1.15z"/>
                        <path fill="#FAFAFA" d="M7.607 8.426c1.052.608 2.76.608 3.813 0 1.053-.608 1.052-1.593 0-2.2-1.052-.608-2.76-.602-3.813 0-1.052.601-1.053 1.59 0 2.2z"/>
                        <path fill="#EBEBEB" d="M7.723 8.334c.988.558 2.592.558 3.58 0 .988-.557.988-1.463 0-2.022-.988-.558-2.592-.557-3.58 0-.988.558-.982 1.464 0 2.022z"/>
                        <path fill="#F5F5F5" d="M11.303 6.575c-.988-.559-2.592-.559-3.58 0-.435.24-.678.558-.73.88.052.32.295.633.73.88.988.557 2.592.557 3.58 0 .436-.247.678-.56.73-.88-.052-.322-.294-.635-.73-.88z"/>
                        <path fill="#90CAF9" d="M6.818 11.796c0 .401.259.803.79 1.109 1.051.602 2.758.602 3.812 0 .526-.305.79-.702.79-1.1V8.2c0 .398-.264.797-.79 1.1-1.054.602-2.76.602-3.813 0-.53-.306-.793-.708-.79-1.109v3.604z"/>
                        <path fill="#FFF" d="M6.818 11.796c0 .401.259.803.79 1.109 1.051.602 2.758.602 3.812 0 .526-.305.79-.702.79-1.1V8.2c0 .398-.264.797-.79 1.1-1.054.602-2.76.602-3.813 0-.53-.306-.793-.708-.79-1.109v3.604z" opacity=".5"/>
                        <path fill="#000" d="M10.617 14.175c-.99.255-2.196.152-3.01-.32-.547-.314-.807-.733-.786-1.15V7.323c0 .399.265.797.791 1.102.084.049.17.092.26.13v4.806c-.005.45 1.498.985 2.745.814z" opacity=".05"/>
                        <path fill="#E0E0E0" d="M10.128 8.284l-.285-.166c-.233-.134-.295-.316-.139-.405.157-.089.47-.054.702.08l.285.165c.233.135.295.315.139.405-.157.09-.47.055-.702-.08z"/>
                        <circle cx="9.982" cy="7.875" r="1" fill="#F5F5F5"/>
                        <path fill="#F5F5F5" d="M10.396 8.27c.097.048.21.048.307 0 .039-.013.065-.05.065-.09 0-.04-.026-.076-.065-.089-.096-.048-.21-.048-.307 0-.038.013-.064.049-.064.09 0 .04.026.076.064.088z"/>
                        <g>
                            <path fill="#E88223" d="M.08 11.965c.48-2.967 1.39-6.728 3.213-9.532C5.117-.372 6.83-.723 7.291 1.424c.462 2.147-1.204 8.185-2.341 10.688-2.99 6.595-5.404 3.156-4.87-.147z" transform="translate(15.889 3.972)"/>
                            <g fill="#FFBDA7" opacity=".8">
                                <path d="M3.573.13s-.056.026-.156.067c-.1.041-.24.096-.404.154-.082.033-.172.065-.266.098-.094.032-.192.073-.294.106l-.63.235-.317.12c-.104.042-.21.08-.308.12l-.29.12c-.09.04-.179.077-.262.108-.16.07-.302.12-.4.16-.1.04-.16.055-.16.055s.036-.05.104-.133c.095-.114.199-.22.31-.318C.57.963.647.902.733.838.82.77.912.71 1.006.655c.1-.062.205-.12.31-.171.108-.057.222-.099.335-.147.114-.048.23-.083.347-.113.117-.03.232-.055.344-.08.205-.04.413-.062.622-.066.204-.006.408.011.609.052z" transform="translate(15.889 3.972) translate(3.13 1.565)"/>
                            </g>
                            <g fill="#FFBDA7" opacity=".8">
                                <path d="M3.602.08s-.057.027-.156.067c-.098.04-.24.096-.404.155-.083.031-.172.064-.266.096-.094.033-.192.074-.295.106l-.63.241-.316.12c-.105.043-.21.079-.308.12l-.29.121c-.09.04-.179.076-.262.107-.161.07-.303.12-.402.16-.098.04-.159.056-.159.056s.035-.05.104-.134c.095-.114.2-.22.312-.316C.6.919.674.859.76.793.848.724.94.661 1.035.602c.099-.058.2-.12.31-.171.11-.05.221-.099.334-.146.113-.047.231-.083.348-.12.117-.037.232-.054.343-.08.205-.04.413-.061.621-.065.205-.004.41.016.61.06z" transform="translate(15.889 3.972) translate(.481 12.398)"/>
                            </g>
                            <g fill="#FFBDA7" opacity=".8">
                                <path d="M4.44.16s-.07.035-.193.087c-.123.052-.292.127-.496.212-.408.174-.951.379-1.493.581L.76 1.583l-.507.182c-.12.045-.2.067-.2.067s.045-.064.132-.166c.052-.063.107-.122.168-.176.075-.075.156-.144.24-.208.438-.344.929-.615 1.453-.8.522-.2 1.07-.321 1.628-.362.185-.014.37-.014.556 0 .133.023.21.04.21.04z" transform="translate(15.889 3.972) translate(2.167 3.37)"/>
                            </g>
                            <g fill="#FFBDA7" opacity=".8">
                                <path d="M4.503.185s-.07.041-.193.1c-.122.057-.286.141-.488.24-.405.185-.942.402-1.48.602l-.404.144c-.13.052-.265.092-.391.139l-.704.23-.52.166c-.128.04-.207.056-.207.056.038-.061.08-.12.125-.177.048-.066.102-.128.161-.185.072-.078.15-.152.231-.22.433-.362.927-.643 1.458-.832C2.615.25 3.168.139 3.728.117c.188-.006.376.004.562.029.135.018.213.04.213.04z" transform="translate(15.889 3.972) translate(1.444 5.537)"/>
                            </g>
                            <g fill="#FFBDA7" opacity=".8">
                                <path d="M4.02.166s-.063.036-.173.088c-.11.052-.259.128-.44.213-.362.166-.843.361-1.325.54l-.36.132c-.121.045-.241.082-.353.12l-.635.21-.464.144c-.12.036-.187.052-.187.052s.037-.06.113-.158c.044-.06.093-.115.146-.167.065-.07.134-.136.207-.198.39-.323.833-.576 1.31-.747.47-.177.967-.277 1.47-.297.17-.005.338.003.506.025.114.024.184.043.184.043z" transform="translate(15.889 3.972) translate(.602 10.111)"/>
                            </g>
                            <g fill="#FFBDA7" opacity=".8">
                                <path d="M4.412.137s-.069.041-.192.099-.287.14-.49.24c-.403.186-.94.403-1.48.603l-.402.144c-.132.052-.266.091-.393.138l-.705.234-.518.16c-.127.04-.208.058-.208.058s.042-.068.126-.176c.05-.068.104-.133.163-.193.072-.078.149-.151.23-.22C.976.864 1.47.582 2 .392 2.525.196 3.078.084 3.638.062c.188-.006.376.003.563.028.07.012.141.028.21.047z" transform="translate(15.889 3.972) translate(.963 7.824)"/>
                            </g>
                        </g>
                        <g transform="translate(11.435 .481)">
                            <ellipse cx="3.047" cy="17.228" fill="#000" opacity=".1" rx="2.971" ry="1.715"/>
                            <g>
                                <path fill="#90CAF9" d="M3.408 3.283V.817L2.61.85 1.813.817v2.466c.005.983-.353 1.933-1.007 2.668C.404 6.4.03 7.121.012 8.268v8.306c0 .56.549 1.129 1.632 1.393.635.155 1.298.155 1.933 0 1.084-.265 1.625-.833 1.63-1.393V8.268c-.018-1.147-.391-1.87-.793-2.317-.654-.734-1.013-1.685-1.006-2.668z" transform="translate(.602)"/>
                                <path fill="#60B246" d="M3.408 3.283V.817L2.61.85 1.813.817v2.466c.005.983-.353 1.933-1.007 2.668C.404 6.4.03 7.121.012 8.268v8.306c0 .56.549 1.129 1.632 1.393.635.155 1.298.155 1.933 0 1.084-.265 1.625-.833 1.63-1.393V8.268c-.018-1.147-.391-1.87-.793-2.317-.654-.734-1.013-1.685-1.006-2.668z" opacity=".5" transform="translate(.602)"/>
                                <path fill="#37474F" d="M3.409.544v-.02c-.004-.15-.094-.285-.231-.345C2.823 0 2.404 0 2.048.18 1.96.226 1.888.3 1.844.391c-.005.008-.01.016-.012.024v.016c-.007.017-.011.035-.012.053v1.204c.012.144.101.27.233.328.355.18.774.18 1.13 0 .112-.054.195-.156.226-.277.004-.008.006-.016.008-.025L3.41.544z" transform="translate(.602)"/>
                                <path fill="#455A64" d="M3.174.832c-.355.18-.774.18-1.129 0-.313-.18-.313-.472 0-.653C2.4 0 2.82 0 3.175.18c.316.182.316.473 0 .653z" transform="translate(.602)"/>
                                <path fill="#FFF" d="M5.207 8.522v4.52c0 .387-.253.77-.76 1.06-.797.46-1.99.56-2.954.292V9.87c.963.269 2.157.171 2.954-.29.507-.289.76-.673.76-1.058z" transform="translate(.602)"/>
                            </g>
                        </g>
                        <g>
                            <path fill="#F28F8F" d="M1.995 1.716c-.506.081-1.385.241-1.822 1.43-.498 1.356.293 2.9 1.324 3.482 1.298.73 3.202.59 4.213-.542 1.123-1.252 1-3.398.06-4.247-.938-.848-2.21-.452-2.534-.274-.48.266-.847.089-1.241.151z" transform="translate(1.565 11.676)"/>
                            <path fill="#000" d="M4.99 5.898c-1.246.855-3.07.811-4.245.087.21.26.465.48.754.647 1.297.731 3.201.59 4.213-.541.852-.95.984-2.408.59-3.433.085.284.058 2.296-1.313 3.24z" opacity=".1" transform="translate(1.565 11.676)"/>
                            <g fill="#FFF" opacity=".2">
                                <path d="M1.271.055C.941.061.492.4.29.873c-.254.586-.214 1.374-.06 1.935.31 1.13 1.484 1.622 1.581 1.513.098-.108-.786-.778-.456-1.968.331-1.207.46-2.305-.083-2.298z" transform="translate(1.565 11.676) translate(.24 2.167)"/>
                            </g>
                            <g fill="#FFF" opacity=".2">
                                <path d="M.796.147C.473.294.14.869.073 1.257c-.066.387.012.64.069.68.1.07.713-.662.903-.982C1.325.5 1.317-.09.795.147z" transform="translate(1.565 11.676) translate(.481 2.287)"/>
                            </g>
                            <path fill="#B16668" d="M2.624 2.648c-.194-.12-.368-.18-.436.045-.067.224.442.511.954.304.511-.207.658-.57.63-.741 0 0-.2.4-.55.481-.203.042-.415.01-.598-.089z" transform="translate(1.565 11.676)"/>
                            <path fill="#37474F" d="M3.13 2.861c-.058-.489-.187-.966-.386-1.417C2.438.794 1.97.361 1.85.323c-.191-.05-.39-.06-.586-.028-.27.03-.573.24-.474.34.098.098.496.133 1.013.527.518.393 1.056 1.203 1.108 1.72.07.035.155.027.219-.02z" transform="translate(1.565 11.676)"/>
                            <path fill="#455A64" d="M1.828.318L1.802.31C1.626.275 1.445.27 1.268.297 1.082.313.91.4.786.538c-.014.041.05.088.295.098.242.011.484-.036.704-.139.102-.046.134-.136.043-.18z" transform="translate(1.565 11.676)"/>
                            <path fill="#000" d="M2.69 2.046C2.416 1.46 1.72 1.017 1.254.843c.195.087.38.196.55.326.517.395 1.055 1.204 1.107 1.72.07.033.154.025.216-.022 0 0-.018-.184-.072-.449.01.245-.112.169-.365-.372z" opacity=".1" transform="translate(1.565 11.676)"/>
                            <path fill="#90CAF9" d="M2.889 1.814c.453.021.884-.2 1.131-.58.323-.527.016-1.14.016-1.14-.385-.028-.76.132-1.005.43-.294.367-.273 1.017-.142 1.29z" transform="translate(1.565 11.676)"/>
                            <path fill="#000" d="M2.889 1.814c.453.021.884-.2 1.131-.58.323-.527.016-1.14.016-1.14-.385-.028-.76.132-1.005.43-.294.367-.273 1.017-.142 1.29z" opacity=".3" transform="translate(1.565 11.676)"/>
                            <path fill="#90CAF9" d="M4.04.094c-.385-.028-.76.132-1.005.43-.298.367-.277 1.017-.142 1.29C3.1.843 4.04.094 4.04.094z" transform="translate(1.565 11.676)"/>
                        </g>
                        <g>
                            <path fill="#000" d="M1.37 7.406c.963.602 2.7.588 3.873-.037 1.174-.625 1.338-1.619.361-2.223-.976-.604-2.707-.588-3.873.037-1.166.625-1.328 1.62-.361 2.223z" opacity=".15" transform="translate(1.083 7.343)"/>
                            <path fill="#DF4438" d="M2.005 1.638C1.5 1.718.62 1.88.183 3.068c-.497 1.354.294 2.9 1.324 3.481 1.298.731 3.202.59 4.213-.542 1.123-1.252.998-3.397.06-4.246-.937-.849-2.211-.453-2.535-.276-.476.268-.846.09-1.24.153z" transform="translate(1.083 7.343)"/>
                            <path fill="#000" d="M5 5.815c-1.246.855-3.07.81-4.244.086.209.26.464.48.753.648 1.298.731 3.202.59 4.213-.542.853-.949.985-2.408.591-3.432.085.289.058 2.3-1.313 3.24z" opacity=".1" transform="translate(1.083 7.343)"/>
                            <g fill="#FFF" opacity=".2">
                                <path d="M1.282.098C.951.098.503.442.299.915.045 1.5.085 2.289.239 2.85.55 3.98 1.725 4.472 1.822 4.363c.098-.108-.786-.778-.457-1.968.334-1.207.46-2.306-.082-2.297z" transform="translate(1.083 7.343) translate(.24 2.046)"/>
                            </g>
                            <g fill="#FFF" opacity=".2">
                                <path d="M.806.069C.483.215.15.79.084 1.177c-.065.387.014.642.069.68.101.071.714-.662.904-.982C1.33.421 1.324-.169.807.07z" transform="translate(1.083 7.343) translate(.481 2.287)"/>
                            </g>
                            <path fill="#C83C32" d="M2.634 2.569c-.193-.12-.367-.18-.436.044-.069.224.443.512.953.305.51-.207.66-.57.631-.742 0 0-.2.4-.549.482-.204.041-.416.01-.6-.09z" transform="translate(1.083 7.343)"/>
                            <path fill="#37474F" d="M3.138 2.783c-.057-.489-.186-.966-.383-1.417C2.448.716 1.98.283 1.86.246c-.191-.05-.39-.06-.585-.03C1.005.249.7.458.799.558c.099.1.497.134 1.015.528.518.393 1.054 1.203 1.107 1.72.071.033.154.025.217-.022z" transform="translate(1.083 7.343)"/>
                            <path fill="#455A64" d="M1.84.24L1.811.233c-.176-.035-.357-.04-.535-.014C1.092.234.92.32.796.458.78.5.845.547 1.09.557c.242.01.483-.037.704-.138.103-.045.13-.142.044-.177z" transform="translate(1.083 7.343)"/>
                            <path fill="#000" d="M2.701 1.967C2.427 1.379 1.73.937 1.265.763c.195.087.38.197.549.326.516.394 1.054 1.204 1.107 1.72.071.034.154.026.217-.021 0 0-.018-.184-.073-.45.012.245-.111.17-.364-.371z" opacity=".1" transform="translate(1.083 7.343)"/>
                            <path fill="#90CAF9" d="M2.903 1.735c.454.021.885-.2 1.132-.58.322-.528.015-1.14.015-1.14-.384-.027-.759.133-1.005.43-.297.368-.276 1.018-.142 1.29z" transform="translate(1.083 7.343)"/>
                            <path fill="#000" d="M2.903 1.735c.454.021.885-.2 1.132-.58.322-.528.015-1.14.015-1.14-.384-.027-.759.133-1.005.43-.297.368-.276 1.018-.142 1.29z" opacity=".3" transform="translate(1.083 7.343)"/>
                            <path fill="#90CAF9" d="M4.05.016c-.384-.028-.759.132-1.005.43-.297.367-.276 1.017-.142 1.289C3.11.762 4.05.015 4.05.015z" transform="translate(1.083 7.343)"/>
                        </g>
                        <g>
                            <path fill="#90CAF9" d="M4.22 4.632c0 .768-.623 1.635-1.391 1.635S1.444 5.4 1.444 4.632c.023-.752.639-1.35 1.391-1.35.753 0 1.37.598 1.391 1.35H4.22z" transform="translate(3.611 12.157)"/>
                            <path fill="#000" d="M4.22 4.632c0 .768-.623 1.635-1.391 1.635S1.444 5.4 1.444 4.632c.023-.752.639-1.35 1.391-1.35.753 0 1.37.598 1.391 1.35H4.22z" opacity=".6" transform="translate(3.611 12.157)"/>
                            <path fill="#90CAF9" d="M6.713 6.073c0 .768-.622 1.634-1.39 1.634-.768 0-1.39-.866-1.39-1.634 0-.497.265-.956.695-1.204.43-.249.96-.249 1.39 0 .43.248.695.707.695 1.204z" transform="translate(3.611 12.157)"/>
                            <path fill="#000" d="M6.713 6.073c0 .768-.622 1.634-1.39 1.634-.768 0-1.39-.866-1.39-1.634 0-.497.265-.956.695-1.204.43-.249.96-.249 1.39 0 .43.248.695.707.695 1.204z" opacity=".6" transform="translate(3.611 12.157)"/>
                            <path fill="#90CAF9" d="M9.206 7.514c0 .768-.622 1.634-1.39 1.634-.768 0-1.39-.866-1.39-1.634 0-.768.622-1.39 1.39-1.39.768 0 1.39.622 1.39 1.39z" transform="translate(3.611 12.157)"/>
                            <path fill="#000" d="M9.206 7.514c0 .768-.622 1.634-1.39 1.634-.768 0-1.39-.866-1.39-1.634 0-.768.622-1.39 1.39-1.39.768 0 1.39.622 1.39 1.39z" opacity=".6" transform="translate(3.611 12.157)"/>
                            <path fill="#90CAF9" d="M11.7 8.957c0 .768-.622 1.634-1.39 1.634-.768 0-1.392-.866-1.392-1.634.022-.752.639-1.35 1.391-1.35.753 0 1.369.598 1.391 1.35z" transform="translate(3.611 12.157)"/>
                            <path fill="#000" d="M11.7 8.957c0 .768-.622 1.634-1.39 1.634-.768 0-1.392-.866-1.392-1.634.022-.752.639-1.35 1.391-1.35.753 0 1.369.598 1.391 1.35z" opacity=".6" transform="translate(3.611 12.157)"/>
                            <path fill="#90CAF9" d="M14.452 7.343c0 .768-.623 1.634-1.39 1.634-.769 0-1.386-.868-1.386-1.634.022-.753.638-1.35 1.39-1.35.753 0 1.37.597 1.392 1.35h-.006z" transform="translate(3.611 12.157)"/>
                            <path fill="#000" d="M14.452 7.343c0 .768-.623 1.634-1.39 1.634-.769 0-1.386-.868-1.386-1.634.022-.753.638-1.35 1.39-1.35.753 0 1.37.597 1.392 1.35h-.006z" opacity=".6" transform="translate(3.611 12.157)"/>
                            <path fill="#90CAF9" d="M16.015 6.5c-.009-.112-.08-.21-.183-.256L6.09.615c-.28-.142-.609-.142-.888 0L.26 3.47c-.103.046-.173.144-.183.256v.482c.01.112.08.21.183.256l9.743 5.63c.279.14.609.14.888 0l4.942-2.854c.104-.045.174-.144.183-.256V6.5z" transform="translate(3.611 12.157)"/>
                            <path fill="#000" d="M16.015 6.5c-.009-.112-.08-.21-.183-.256L6.09.615c-.28-.142-.609-.142-.888 0L.26 3.47c-.103.046-.173.144-.183.256v.482c.01.112.08.21.183.256l9.743 5.63c.279.14.609.14.888 0l4.942-2.854c.104-.045.174-.144.183-.256V6.5z" opacity=".2" transform="translate(3.611 12.157)"/>
                            <path fill="#000" d="M10.454 9.719v.481c-.157.004-.312-.033-.451-.107L.26 4.465C.156 4.419.086 4.32.076 4.208v-.481c.01.112.081.21.184.256l9.743 5.63c.139.073.294.11.451.106z" opacity=".1" transform="translate(3.611 12.157)"/>
                            <path fill="#90CAF9" d="M.259 3.47L5.202.616c.28-.142.609-.142.888 0l9.742 5.629c.241.142.241.372 0 .513L10.89 9.612c-.28.142-.61.142-.888 0L.259 3.983c-.245-.142-.245-.372 0-.513z" transform="translate(3.611 12.157)"/>
                            <path fill="#000" d="M11.272 8.566c.53-.307.532-.803 0-1.108-.532-.304-1.39-.304-1.926 0-.536.305-.537.802 0 1.108.605.306 1.32.306 1.926 0zM14.023 6.982c.531-.307.532-.803 0-1.11-.532-.305-1.39-.304-1.926 0-.535.305-.537.803 0 1.108.537.306 1.395.302 1.926.002zM8.777 7.125c.531-.307.534-.803 0-1.108-.533-.304-1.39-.304-1.925 0-.536.305-.537.802 0 1.108.536.306 1.395.307 1.925 0zM11.53 5.537c.53-.306.532-.802 0-1.107-.534-.306-1.391-.305-1.927 0-.535.304-.537.801 0 1.108.606.307 1.321.306 1.926 0zM6.285 5.684c.53-.307.533-.803 0-1.107-.534-.305-1.39-.305-1.926 0-.536.304-.537.801 0 1.107.536.306 1.395.307 1.926 0zM9.036 4.093c.531-.306.534-.802 0-1.108-.533-.306-1.391-.304-1.926 0-.534.305-.537.802 0 1.108.537.305 1.395.308 1.926 0zM3.79 4.243c.531-.307.534-.803 0-1.107-.533-.305-1.39-.306-1.925 0-.536.305-.537.801 0 1.107.605.306 1.32.306 1.925 0zM6.542 2.648c.532-.306.533-.802 0-1.107-.533-.306-1.39-.305-1.926 0-.535.304-.537.801 0 1.107.537.306 1.395.312 1.926 0z" opacity=".1" transform="translate(3.611 12.157)"/>
                            <path fill="#FAFAFA" d="M14.352 6.399v.066c-.005.09-.02.18-.043.269-.078.098-.175.18-.286.24-.53.308-1.392.308-1.926 0-.11-.06-.206-.142-.283-.24-.025-.09-.04-.182-.045-.275v-.066-.065c0-.058 0-.12.01-.171.058-.598.321-1.157.746-1.583.296-.295.775-.295 1.07 0 .424.423.687.98.742 1.577.006.063.011.12.014.185V6.4zM11.859 4.957v.065c-.003.091-.018.182-.043.27-.078.098-.174.18-.284.24-.606.307-1.321.307-1.926 0-.11-.06-.206-.142-.283-.24-.026-.09-.042-.183-.046-.276V4.95v-.066c0-.057 0-.115.01-.17.057-.599.32-1.16.745-1.585.295-.296.774-.296 1.07 0 .424.422.687.98.743 1.577.006.06.01.12.012.184.002.022.002.044.002.066zM11.6 7.989v.065c-.004.09-.019.18-.043.268-.077.1-.175.182-.285.241-.531.308-1.393.308-1.926 0-.11-.06-.206-.142-.283-.24-.026-.09-.041-.183-.046-.276v-.065-.066c0-.057 0-.115.01-.17.056-.601.32-1.164.745-1.591.296-.296.775-.296 1.071 0 .424.423.686.98.742 1.576.006.062.01.12.013.185.002.028.002.05.002.073zM9.107 6.546c.002.022.002.044 0 .066-.003.09-.018.181-.043.268-.078.099-.174.18-.284.241-.605.308-1.321.308-1.926 0-.11-.06-.207-.142-.284-.24-.025-.09-.04-.182-.045-.275V6.54v-.065c0-.058 0-.12.011-.171.055-.601.318-1.164.744-1.591.296-.296.775-.296 1.07 0 .424.422.687.98.743 1.576 0 .063.01.12.012.186.002.023.003.047.002.07zM9.366 3.514v.066c-.004.09-.019.18-.043.268-.078.1-.175.181-.286.241-.53.308-1.392.308-1.925 0-.11-.06-.206-.142-.283-.24-.026-.09-.04-.182-.045-.275v-.066-.065c0-.058 0-.115.01-.17.055-.6.319-1.162.745-1.588.295-.295.774-.295 1.07 0 .424.423.687.98.743 1.577.006.061.01.12.012.184.002.023.003.045.002.068zM6.872 2.072v.066c-.004.09-.018.18-.042.268-.078.099-.175.18-.285.241-.531.307-1.393.307-1.926 0-.11-.06-.206-.142-.283-.24-.026-.09-.041-.182-.046-.275v-.066V2c0-.058 0-.12.01-.171.056-.6.32-1.162.745-1.59.295-.295.774-.295 1.07 0 .424.424.686.981.743 1.578 0 .061.01.12.012.185.002.023.003.046.002.069zM6.62 5.107c.002.022.002.044 0 .065-.003.091-.017.181-.042.269-.077.099-.174.181-.285.24-.53.309-1.393.309-1.926 0-.11-.06-.206-.141-.283-.24-.025-.09-.04-.182-.046-.275v-.065-.066c0-.058 0-.114.011-.17.055-.6.318-1.164.744-1.59.296-.296.775-.296 1.07 0 .425.422.687.98.743 1.576.006.061.01.12.012.184.002.024.003.048.002.072zM4.122 3.665v.067c-.004.09-.018.18-.044.268-.078.099-.175.18-.285.24-.53.309-1.392.309-1.926 0-.11-.06-.206-.142-.283-.24-.025-.09-.04-.182-.044-.275V3.66v-.065c0-.057 0-.12.01-.17.055-.602.319-1.164.744-1.592.296-.295.775-.295 1.07 0 .424.423.687.982.743 1.578.006.062.01.12.012.184l.003.071z" transform="translate(3.611 12.157)"/>
                        </g>
                        <path fill="#90CAF9" d="M13.574 16.942L.673 9.495l.749 8.108c.087.628.44 1.188.971 1.536l10.294 5.944c.44.255 1.134.28 1.625.07l.037-.014.022-.01c.031-.014.061-.03.09-.046l6.13-3.54c.53-.348.885-.906.973-1.534l.748-8.108-8.738 5.041zm-8.907 1.439c.002.098-.018.195-.06.284-.098-.008-.192-.038-.276-.09l-.335-.192c-.392-.257-.64-.685-.665-1.153V14.3c-.003-.098.018-.196.059-.285.098.008.193.039.278.09L4 14.3c.394.256.641.684.666 1.153v2.929zm3.328 1.926c.003.098-.018.196-.059.285-.098-.008-.193-.039-.277-.09l-.333-.193c-.393-.256-.64-.684-.666-1.152v-2.935c-.002-.098.018-.195.058-.285.099.007.194.038.278.09l.335.194c.393.256.64.684.664 1.152v2.934zm3.33 1.926c.002.098-.019.196-.06.285-.098-.008-.192-.039-.276-.09l-.335-.192c-.392-.257-.64-.685-.666-1.153v-2.94c-.002-.097.018-.195.06-.284.098.008.193.039.277.09l.334.193c.393.257.64.685.666 1.153v2.938zm5.664-1.054c-.026.469-.273.897-.665 1.153l-.335.193c-.084.05-.178.081-.276.09-.042-.09-.063-.187-.06-.285v-2.937c.025-.469.272-.897.666-1.153l.333-.194c.084-.052.18-.082.278-.089.041.089.062.186.06.284v2.938zm2.913-1.685c-.026.468-.273.896-.667 1.152l-.332.193c-.084.052-.18.083-.278.09-.041-.09-.062-.187-.059-.285V17.71c.026-.468.273-.896.666-1.152l.333-.192c.083-.053.179-.084.277-.09.042.088.063.185.06.283v2.935z"/>
                        <path fill="#A3CDF7" d="M13.574 16.942L.673 9.495l.749 8.108c.087.628.44 1.188.971 1.536l10.294 5.944c.44.255 1.134.28 1.625.07l.037-.014.022-.01c.031-.014.061-.03.09-.046l6.13-3.54c.53-.348.885-.906.973-1.534l.748-8.108-8.738 5.041zm-8.907 1.439c.002.098-.018.195-.06.284-.098-.008-.192-.038-.276-.09l-.335-.192c-.392-.257-.64-.685-.665-1.153V14.3c-.003-.098.018-.196.059-.285.098.008.193.039.278.09L4 14.3c.394.256.641.684.666 1.153v2.929zm3.328 1.926c.003.098-.018.196-.059.285-.098-.008-.193-.039-.277-.09l-.333-.193c-.393-.256-.64-.684-.666-1.152v-2.935c-.002-.098.018-.195.058-.285.099.007.194.038.278.09l.335.194c.393.256.64.684.664 1.152v2.934zm3.33 1.926c.002.098-.019.196-.06.285-.098-.008-.192-.039-.276-.09l-.335-.192c-.392-.257-.64-.685-.666-1.153v-2.94c-.002-.097.018-.195.06-.284.098.008.193.039.277.09l.334.193c.393.257.64.685.666 1.153v2.938zm5.664-1.054c-.026.469-.273.897-.665 1.153l-.335.193c-.084.05-.178.081-.276.09-.042-.09-.063-.187-.06-.285v-2.937c.025-.469.272-.897.666-1.153l.333-.194c.084-.052.18-.082.278-.089.041.089.062.186.06.284v2.938zm2.913-1.685c-.026.468-.273.896-.667 1.152l-.332.193c-.084.052-.18.083-.278.09-.041-.09-.062-.187-.059-.285V17.71c.026-.468.273-.896.666-1.152l.333-.192c.083-.053.179-.084.277-.09.042.088.063.185.06.283v2.935z" opacity=".45"/>
                        <path fill="#DCE8FD" d="M13.574 16.942v7.625c0 .504.32.742.738.583l.037-.014.022-.01c.031-.015.061-.03.09-.047l6.13-3.54c.53-.347.885-.906.973-1.533l.748-8.109-8.738 5.045zm3.416 4.229c-.026.468-.273.896-.665 1.153l-.335.193c-.084.05-.178.081-.276.089-.042-.089-.062-.186-.06-.284v-2.929c.025-.469.272-.897.666-1.153l.333-.194c.084-.052.18-.082.278-.089.042.089.062.186.06.284v2.93zm2.913-1.685c-.025.468-.273.896-.666 1.152l-.333.192c-.084.052-.18.083-.278.09-.041-.089-.061-.186-.059-.285V17.71c.026-.468.273-.896.666-1.152l.333-.192c.084-.053.179-.084.277-.09.043.088.063.185.06.283v2.927z" opacity=".4"/>
                        <path fill="#455A64" d="M17.318 18.431v2.93c-.025.468-.272.896-.665 1.152l-.333.193c-.27.155-.5.104-.602-.1.098-.008.192-.039.276-.09l.334-.192c.393-.257.64-.685.666-1.153v-2.93c.002-.098-.018-.195-.059-.284.225-.012.383.165.383.474zM20.232 16.75v2.928c-.026.469-.273.897-.666 1.153l-.333.193c-.27.155-.5.105-.602-.1.099-.007.194-.038.278-.09l.332-.193c.394-.255.641-.683.667-1.152v-2.93c.003-.098-.018-.195-.06-.284.225-.01.384.165.384.475z"/>
                        <path fill="#37474F" d="M22.885 11.897v.963c-.01.113-.081.21-.184.257l-8.684 5.01c-.136.073-.289.11-.443.107v-.963c.155.003.307-.033.443-.106l8.684-5.008c.11-.046.181-.153.182-.273l.002.013z"/>
                        <path fill="#263238" d="M13.574 17.272v.963c-.154.003-.307-.034-.444-.106L.285 10.713c-.103-.046-.173-.144-.184-.256v-.963-.02c.001.12.073.228.183.276l12.845 7.415c.137.073.29.11.445.107z"/>
                        <path fill="#455A64" d="M22.884 11.897c-.01.112-.08.21-.183.256l-8.684 5.013c-.278.142-.608.142-.887 0L.285 9.75c-.103-.046-.173-.144-.184-.256h.572l8.739 5.043 4.162 2.408 8.738-5.045.572-.003z"/>
                        <path fill="#37474F" d="M9.662 18.334v2.93c.026.468.272.896.665 1.153l.334.192c.269.154.5.104.602-.1-.098-.007-.193-.038-.277-.09l-.334-.192c-.393-.256-.64-.684-.666-1.152v-2.93c-.003-.099.018-.196.059-.286-.224-.01-.383.165-.383.475zM6.333 16.411v2.93c.025.469.272.897.664 1.153l.335.193c.27.154.5.105.602-.1-.099-.007-.193-.038-.277-.09l-.334-.193c-.393-.255-.64-.683-.666-1.152v-2.93c-.003-.098.017-.196.06-.285-.225-.01-.384.165-.384.474zM3.01 14.49v2.93c.025.468.272.896.665 1.152l.333.193c.27.155.501.104.602-.1-.098-.008-.192-.039-.277-.09L4 18.384c-.393-.256-.64-.685-.666-1.153V14.3c-.002-.098.018-.195.06-.284-.232-.012-.385.165-.385.474z"/>
                        <path fill="#90CAF9" d="M4.377 12.113v.083c0 .323.066.481.346.643.147.084.227-.022.227-.193v-.203l-.573-.33z"/>
                        <path fill="#000" d="M4.377 12.113v.083c0 .323.066.481.346.643.147.084.227-.022.227-.193v-.203l-.573-.33z" opacity=".25"/>
                        <path fill="#90CAF9" d="M6.109 5.91c.07-.24.225-.447.434-.584l.183.648-1.778 6.469-.571-.331L6.109 5.91z"/>
                        <path fill="#000" d="M6.109 5.91c.07-.24.225-.447.434-.584l.183.648-1.778 6.469-.571-.331L6.109 5.91z" opacity=".25"/>
                        <path fill="#90CAF9" d="M6.74 5.704l.321.531 1.204 8.125-.662-.381L6.439 6.3c-.018-.24.098-.47.302-.597z"/>
                        <path fill="#90CAF9" d="M7.607 13.979v.083c0 .322.05.549.33.709.068.04.152.039.221 0 .069-.04.111-.114.111-.193v-.218l-.662-.381z"/>
                    </g>
                </g>
                <g fill-rule="nonzero">
                    <g>
                        <path fill="#B28973" d="M1.127 2.813s-.469-.17-.589-.162c-.12.008-.31.074-.35.24 0 0 .296.283.65.257.354-.027.289-.335.289-.335zM4.597 2.211c.277-.88.27-1.468.078-1.805-.129-.227-.53-.317-.7-.331-.169-.015-.228.12-.073.27.156.149.1.295.015.48-.103.211-.224.413-.361.603l1.041.783z" transform="translate(-286 -98) translate(286 98) translate(31.889 31.658)"/>
                        <path fill="#D3AB95" d="M1.048 2.808c-.088.018-.177.027-.267.027-.154-.01-.303-.057-.436-.137-.093-.06-.166-.149-.208-.252-.023-.083-.03-.17-.019-.255 0-.07.01-.138.029-.205.072-.171.204-.31.37-.393.35-.212.723-.028 1.24.062.393.068 1.146-.554 2.068-.221.898.323.91 1.289 1.09 2.063.295 1.262.521.947 1.267 2.215.602 1.02.81.842 1.484 1.836.334.495.991 1.367 1.325 2.45.416 1.337-.087 2.32-.951 2.825-.766.446-1.179.602-2.242.523-.593-.043-.947-.295-1.183-.431-.481.275-1.502-.467-1.863-.744-.676-.518-.298-.981.297-.843.239.054.471.135.692.24-.213-.427-.382-.875-.505-1.336-.132-.56-.055-1.032.158-1.152-.097-.1-.19-.205-.276-.315-.044.501-.217 1.982-.252 2.097-.047.154-.361.452-.648.373-.286-.078-.887-.346-.975-.601-.12-.345.226-.398.818-.241v-.013c-.017-.628-.08-1.54-.087-2.167 0-.374-.008-.83-.031-1.134-.018-.2-.025-.401-.022-.602.011-.507.072-1.058.068-1.297-.009-.37-.06-.755-.33-1.018-.271-.262-.621-.394-.934-.585C.61 3.51.502 3.431.4 3.344c-.094-.086-.28-.306-.213-.447.163.105.359.148.551.12.121-.017.235-.07.326-.151.009-.008.018-.018.016-.03 0-.008-.004-.016-.01-.021-.006-.005-.015-.008-.023-.007z" transform="translate(-286 -98) translate(286 98) translate(31.889 31.658)"/>
                        <path fill="#B28973" d="M8.014 12.125c-.133.113-.187.294-.137.461 0 0 .254.41 1.445.54 1.133.127 2.24-.36 3.217 0 .977.362.572 1.104.674 1.302.102.197.382.06.382-.524 0-.584-.393-1.113-1.1-1.282-.706-.168-1.705-.034-2.647-.018-.963.016-1.196-.377-1.349-.534-.18-.183-.357-.065-.485.055zM.595 1.753l.012-.015c.015-.02.023-.044.04-.064.028-.024.063-.04.1-.047.055-.015.106-.043.086-.107-.007-.016-.021-.028-.039-.033-.056-.031-.118-.05-.181-.056-.077.005-.152.028-.217.069-.132.067-.243.17-.319.297-.035.071.053.288.053.288-.002-.034.004-.068.018-.099.042-.12.24-.147.352-.182.035-.01.067-.027.095-.051zM5.125 4.18l-.257.17s-.506.591-1.636.642c-.405.023-.811.019-1.216-.013.008-.034.025-.064.05-.088.23-.257.298-.912 0-1.125-.299-.213-.922.032-1.463-.275l.12.078c.313.19.668.326.935.585.222.215.296.515.318.82h-.025c.004.034.015.065.032.094v.106c0 .062 0 .142-.009.24l.253.039c1.12.174 2.263-.137 3.142-.855-.1-.127-.182-.268-.244-.418zM3.189 2.275c-.182.178-.434.407-.623.625-.161.184-.285.048-.42-.802-.12-.728-.182-.843-.308-.886-.095-.031-.261-.01-.292-.08-.058-.13.143-.375.613-.452.715-.118 1.315 1.317 1.03 1.595z" transform="translate(-286 -98) translate(286 98) translate(31.889 31.658)"/>
                        <path fill="#3B1815" d="M4.997 3.813c.024.075.035.115.035.115s-.344.488-1.505.722c-1.162.233-1.584.059-1.584.059-.011-.057-.026-.113-.045-.167 0 0-.059.044-.036.315.016.195.042.278.147.302.327.075.982.068 1.623-.076.987-.221 1.474-.602 1.564-.693.09-.092.06-.169-.025-.367-.084-.199-.127-.224-.174-.21z" transform="translate(-286 -98) translate(286 98) translate(31.889 31.658)"/>
                        <path fill="#B28973" d="M3.394 9.083c.34-.197 1.134-.031 1.85.851 0 0-.03-.558-.706-.95-.676-.393-1.168-.26-1.35-.13l.206.23zM3.52 11.468c.14.054.225.097.225.097.18.361.416.766.416.766s-.48-.44-.641-.863zM2.588 11.355c.044-.02.09-.035.138-.044.042.012.083.029.12.05.038.02.073.046.105.074.014.011.084.078.06.095-.022.017-.015 0-.021 0-.089-.063-.187-.113-.291-.147-.037-.011-.074-.021-.111-.028zM2.417 11.528c.01-.026.023-.05.041-.071.17.03.361.085.4.24 0 0 0 .026-.011.02-.07-.05-.144-.094-.222-.129-.067-.028-.136-.048-.208-.06zM1.283 10.378c.04-.03.085-.05.133-.057h.026c.071.015.136.05.188.103v.015c-.087-.037-.179-.059-.272-.065-.025 0-.05 0-.075.004zM1.223 10.49c.003-.026.011-.05.024-.072.02.002.04.005.06.01.063.015.143.044.158.12 0 0 0 .013-.006.011-.06-.025-.12-.045-.182-.061-.018-.008-.036-.008-.054-.009z" transform="translate(-286 -98) translate(286 98) translate(31.889 31.658)"/>
                    </g>
                </g>
                <g fill-rule="nonzero">
                    <g>
                        <path fill="#FFE0CB" d="M11.246 6.861c.89-.06 1.457.058 1.897 1.083.56 1.298 1.277 3.732 1.469 4.535.089.377.088.693-.284 1.12-.796.908-1.843 1.969-1.843 1.969l-.568-1.99.692-1.018-.834-2.259-.529-3.44z" transform="translate(-286 -98) translate(286 98) translate(18.167 12.278)"/>
                        <path fill="#EEC8AF" d="M12.61 12.56c.138.239.3.464.482.671-.252-.092-.461-.273-.59-.508l.108-.163z" transform="translate(-286 -98) translate(286 98) translate(18.167 12.278)"/>
                        <path fill="#171724" d="M3.403 34.142c-.046.151-.05.313-.01.466.044.094.323.402.893.514.571.112 1.353 0 1.686-.02.332-.021 1.397.108 1.733.153.53.073.936-.044 1.134-.24.064-.078.093-.18.08-.28-.002-.127-.021-.254-.057-.376l-5.46-.217z" transform="translate(-286 -98) translate(286 98) translate(18.167 12.278)"/>
                        <path fill="#90CAF9" d="M8.779 33.81l.029.132c.051.225.068.457.049.688-.086.155-.234.267-.407.307-.398.126-.702.105-1.143.022-.444-.064-.893-.092-1.341-.083-.348.024-.826.09-1.174.06-.295-.014-.586-.073-.863-.176-.232-.1-.468-.228-.525-.466-.069-.502.142-.723.382-.865.24-.142.575-.13.937-.154.328-.021.566-.021.857-.044.25-.024.498-.072.74-.141.219-.07.454-.312.548-.323 0 0 1.458-.01 1.598 0 .16.014.21.513.23.622.015.084.018.175.04.257.015.058.03.108.043.164z" transform="translate(-286 -98) translate(286 98) translate(18.167 12.278)"/>
                        <g fill="#3E4152" opacity=".4">
                            <path d="M5.408 1.069l.03.132c.051.225.068.457.049.688-.086.155-.234.267-.407.307-.399.126-.702.105-1.144.022-.444-.064-.892-.092-1.34-.083-.349.024-.827.09-1.174.06-.295-.014-.587-.073-.863-.176-.233-.1-.469-.228-.525-.466C-.035 1.05.176.83.415.689c.24-.143.576-.13.938-.155.327-.021.566-.021.857-.044.25-.024.498-.071.74-.14.218-.07.454-.313.548-.324 0 0 1.458-.01 1.597 0 .16.014.21.513.23.622.016.084.018.175.041.257.015.058.029.109.042.164z" transform="translate(-286 -98) translate(286 98) translate(18.167 12.278) translate(3.37 32.74)"/>
                        </g>
                        <path fill="#FAFAFA" d="M4.286 34.868c-.045-.361-.106-1.147.56-1.6h.086c-.302-.087-.621-.087-.922 0-.534.142-.77.573-.637 1.03-.003-.005.118.435.913.57z" transform="translate(-286 -98) translate(286 98) translate(18.167 12.278)"/>
                        <path fill="#FFE0CB" d="M9.31 26.128c-.047.833-.823 6.515-.89 6.82-.041.182-.27.376-.87.355-.42-.013-.75.022-.733-.308l-.423-7.216 2.915.349z" transform="translate(-286 -98) translate(286 98) translate(18.167 12.278)"/>
                        <path fill="#171724" d="M9.448 29.49c-.022.256-.055.482.05.769.149.404.466.59.653.749.197.194.378.403.543.626.182.221.221.36.505.601.177.146.672.266.977.138.24-.102.32-.182.305-.547-.014-.365-1.178-.49-1.178-.49l-1.855-1.845z" transform="translate(-286 -98) translate(286 98) translate(18.167 12.278)"/>
                        <path fill="#90CAF9" d="M12.33 30.738c.1.035.121.215.14.573.011.27.13.666-.26.837-.317.137-.822.045-1.036-.21-.259-.342-.534-.671-.826-.986-.33-.337-.674-.45-.82-1.123-.095-.433-.02-.613.286-.737.421-.17 1.083.388 1.413.475.284.076 1.004 1.135 1.104 1.171z" transform="translate(-286 -98) translate(286 98) translate(18.167 12.278)"/>
                        <path fill="#000" d="M12.33 30.738c.1.035.121.215.14.573.011.27.13.666-.26.837-.317.137-.822.045-1.036-.21-.259-.342-.534-.671-.826-.986-.33-.337-.674-.45-.82-1.123-.095-.433-.02-.613.286-.737.421-.17 1.083.388 1.413.475.284.076 1.004 1.135 1.104 1.171z" opacity=".4" transform="translate(-286 -98) translate(286 98) translate(18.167 12.278)"/>
                        <path fill="#FFE0CB" d="M12.841 24.337c.056 2.28-.303 4.574-.47 6.54-.028.194-1 .592-1.323.026-.02-.042-.907-6.46-.907-6.46l2.7-.106z" transform="translate(-286 -98) translate(286 98) translate(18.167 12.278)"/>
                        <path fill="#FAFAFA" d="M9.721 30.326s.033-.776 1.12-.906l-.018-.137c-.118-.117-.265-.2-.425-.241-.378-.098-.677 0-.875.24-.2.241.002.889.198 1.044z" transform="translate(-286 -98) translate(286 98) translate(18.167 12.278)"/>
                        <path fill="#3E4152" d="M12.79 22.87s-.062-1.596-.023-3.312c.024-1.077.045-1.695 0-2.448-.04-.842-.14-1.68-.303-2.508 0 0-5.971-1.138-6.043 1.005-.088 2.569-.171 7.663-.177 8.335-.006.671.036 1.12.104 2.55.951.232 2.296.086 3.046-.195.026-.722.043-1.13.043-1.13l.294-4.6s.076.9.127 1.842c.052.943.037 1.17.182 2.909.602.278 2.376.26 2.853-.264.008-.73-.026-1.458-.102-2.183z" transform="translate(-286 -98) translate(286 98) translate(18.167 12.278)"/>
                        <path fill="#263238" d="M6.27 20.393c.843.2 2.241.148 2.241.148s-.019 3.02-.174 3.416c-.155.396-1.949.331-2.167 0 .003-1.614.1-3.564.1-3.564zM11.917 17.574s-.78 1.07-1.718 1.471l-.351 3.13-.115-1.565.217-1.892s1.19-.52 1.967-1.144z" transform="translate(-286 -98) translate(286 98) translate(18.167 12.278)"/>
                        <path fill="#FFE0CB" d="M8.821 5.998L8.834 7.955 10.812 7.935 10.844 5.662z" transform="translate(-286 -98) translate(286 98) translate(18.167 12.278)"/>
                        <path fill="#90CAF9" d="M12.836 7.85c-.162-.534-.722-.972-1.437-.994h-.572c-.08.33-1.138.482-2 .28-.26.07-1.275.258-1.492.33-.62.206-.745.836-.842 2.858 0 0-.164 3.356-.1 5.876 1.083.575 2.87.566 4.068.445 1.883-.19 2.248-.878 2.248-.878-.083-.87-.11-1.744-.083-2.618.023-.822.26-1.693.333-2.626.108-1.392-.012-2.308-.123-2.674z" transform="translate(-286 -98) translate(286 98) translate(18.167 12.278)"/>
                        <path fill="#F4821E" d="M12.836 7.85c-.162-.534-.722-.972-1.437-.994h-.572c-.08.33-1.138.482-2 .28-.26.07-1.275.258-1.492.33-.62.206-.745.836-.842 2.858 0 0-.164 3.356-.1 5.876 1.083.575 2.87.566 4.068.445 1.883-.19 2.248-.878 2.248-.878-.083-.87-.11-1.744-.083-2.618.023-.822.26-1.693.333-2.626.108-1.392-.012-2.308-.123-2.674z" transform="translate(-286 -98) translate(286 98) translate(18.167 12.278)"/>
                        <path fill="#EEC8AF" d="M7.343 3.49s-.525.793-.476.864c.05.07.46.12.46.12l.016-.983z" transform="translate(-286 -98) translate(286 98) translate(18.167 12.278)"/>
                        <path fill="#FFE0CB" d="M8.763.963c-.941.158-1.29.722-1.428 2.36-.03.526-.033 1.055-.007 1.582.06.714.194.893.337 1.053.143.16 1.008.209 1.398.12.488-.112 1.593-.453 2.136-1.211.64-.894.723-2.008.227-2.667C10.277.655 9.148.894 8.763.963z" transform="translate(-286 -98) translate(286 98) translate(18.167 12.278)"/>
                        <path fill="#EEC8AF" d="M7.665 5.955c.109.12.754.184 1.157.153v-.233c-.377.102-.77.129-1.157.08z" transform="translate(-286 -98) translate(286 98) translate(18.167 12.278)"/>
                        <path fill="#3A1714" d="M8.099 2.407c-.054.39.167.765.533.908-.054.132-.083.274-.086.417-.009.07.004.141.036.204.02.049.067.08.119.082.052.002.1-.028.122-.076.058-.118.128-.229.21-.33.107-.118.253-.19.41-.207.589-.04.63.731.383 1.04-.406.503-.722.138-.722.138s-.101.635.568 1.266c.154.112.337.178.527.189.17.021.474.044.636-.046.328-.533 1.026-1.425 1.276-1.896.24-.452.52-.978.4-1.506-.05-.232-.192-.434-.394-.558.073-.147.114-.309.12-.473-.01-.29-.303-.537-.59-.408.069-.22-.015-.457-.206-.584-.19-.127-.443-.114-.618.034.038-.258-.128-.502-.382-.561-.253-.059-.51.087-.589.336-.137-.212-.38-.331-.632-.31-.252.021-.472.18-.571.412-.2-.128-.439-.18-.673-.146-.236.037-.437.192-.532.412-.09.224-.021.48.168.63-.215.011-.383.298-.384.515.004.166.115.722.87.518z" transform="translate(-286 -98) translate(286 98) translate(18.167 12.278)"/>
                        <path fill="#FFE0CB" d="M.584 9.08c.151.285 1.83 3.356 2.317 3.82.348.331.885.556 1.444.078 1.038-.89 2.649-2.295 2.649-2.295 1.237-.98 1.408-2.763.842-3.334-.291.015-1.182.082-1.758.756C4.895 9.484 3.635 10.9 3.635 10.9c-.31-.41-.585-.732-.918-1.197-.266-.372-.682-.76-.698-1.244-.009-.253.083-.505.12-.753.05-.322.095-.641.148-.963.019-.063.013-.13-.017-.19-.072-.071-.186-.075-.262-.008-.083.074-.146.168-.184.272l-.15.33c-.024.051-.059.11-.115.112-.178 0-.207-.376-.253-.493-.049-.154-.078-.313-.088-.474l-.077-.577c-.007-.055-.02-.12-.07-.145-.051-.026-.136.021-.18.076-.069.088-.118.19-.143.3-.06.255.014.543-.12.77-.058.085-.123.163-.196.234-.084.1-.16.204-.23.315-.12.185-.197.337-.14.557.125.438.3.86.522 1.257z" transform="translate(-286 -98) translate(286 98) translate(18.167 12.278)"/>
                        <path fill="#EEC8AF" d="M3.628 10.9c-.317.347-.503 1.035-.503 1.035s-.034-.728.336-1.252l.167.218z" transform="translate(-286 -98) translate(286 98) translate(18.167 12.278)"/>
                    </g>
                </g>
                <g fill-rule="nonzero">
                    <g>
                        <g>
                            <path fill="#90CAF9" d="M.437 17.242l-.232-.134c-.079-.05-.128-.136-.133-.23V7.433c.005-.094.054-.18.133-.23L12.45.131c.083-.042.182-.042.265 0l.232.134c.078.05.128.136.133.23V9.94c-.006.093-.055.178-.133.23L.702 17.241c-.084.042-.182.042-.265 0z" transform="translate(-286 -98) translate(286 98) translate(32.852) translate(1.444)"/>
                            <path fill="#FFF" d="M.437 17.242l-.232-.134c-.079-.05-.128-.136-.133-.23V7.433c.005-.094.054-.18.133-.23L12.45.131c.083-.042.182-.042.265 0l.232.134c.078.05.128.136.133.23V9.94c-.006.093-.055.178-.133.23L.702 17.241c-.084.042-.182.042-.265 0z" opacity=".5" transform="translate(-286 -98) translate(286 98) translate(32.852) translate(1.444)"/>
                            <path fill="#A1CFF4" d="M.702 7.49L12.947.417c.074-.042.133-.008.133.077V9.94c-.006.093-.055.178-.133.23L.702 17.241c-.074.042-.133.008-.133-.076V7.72c.005-.093.054-.178.133-.23z" transform="translate(-286 -98) translate(286 98) translate(32.852) translate(1.444)"/>
                            <path fill="#FAFAFA" d="M12.947.418c-1.005.617-2.017 1.219-3.032 1.818L6.861 4.02l-3.07 1.758-1.54.865-1.55.851 1.513-.916 1.518-.906 3.055-1.784 3.07-1.753c1.026-.579 2.06-1.155 3.09-1.717z" transform="translate(-286 -98) translate(286 98) translate(32.852) translate(1.444)"/>
                            <path fill="#90CAF9" d="M.608 7.583L.11 7.297c-.024.04-.037.084-.039.13v9.447c.005.093.054.178.133.23l.23.133c.076.038.163.042.241.012-.06.02-.105-.015-.105-.089V7.72c0-.049.012-.096.037-.137z" transform="translate(-286 -98) translate(286 98) translate(32.852) translate(1.444)"/>
                            <path fill="#000" d="M.608 7.583L.11 7.297c-.024.04-.037.084-.039.13v9.447c.005.093.054.178.133.23l.23.133c.076.038.163.042.241.012-.06.02-.105-.015-.105-.089V7.72c0-.049.012-.096.037-.137z" opacity=".3" transform="translate(-286 -98) translate(286 98) translate(32.852) translate(1.444)"/>
                            <path fill="#3E4152" d="M0.569 8.798L13.08 1.577 13.08 4.042 0.569 11.263z" transform="translate(-286 -98) translate(286 98) translate(32.852) translate(1.444)"/>
                            <g>
                                <path fill="#90CAF9" d="M11.104 2.81v1.615c-.007.133-.078.255-.19.328l-1.695.992c-.105.06-.19.011-.19-.11V4.02c.007-.133.077-.255.189-.327.462-.267 1.233-.722 1.695-.992.106-.06.191-.012.191.11z" transform="translate(-286 -98) translate(286 98) translate(32.852) translate(1.444) translate(1.204 5.056)"/>
                                <g>
                                    <path fill="#000" d="M2.558.163v1.614c-.008.133-.078.255-.19.328l-1.695.992c-.105.06-.19.011-.19-.11V1.373c.006-.133.077-.255.189-.327C1.134.778 1.904.323 2.366.053c.106-.06.192-.012.192.11z" opacity=".2" transform="translate(-286 -98) translate(286 98) translate(32.852) translate(1.444) translate(1.204 5.056) translate(8.546 2.648)"/>
                                    <path fill="#FFF" d="M2.891 0.415L2.935 0.291 0.149 1.913 0.106 2.037z" transform="translate(-286 -98) translate(286 98) translate(32.852) translate(1.444) translate(1.204 5.056) translate(8.546 2.648)"/>
                                    <path fill="#FFF" d="M1.804 1.842L1.894 1.743 1.894.92 1.805 1.02zM1.151 2.233L1.241 2.134 1.241 1.313 1.151 1.412z" transform="translate(-286 -98) translate(286 98) translate(32.852) translate(1.444) translate(1.204 5.056) translate(8.546 2.648)"/>
                                    <path fill="#FFF" d="M2.891 1.24L2.935 1.116 0.149 2.737 0.106 2.861z" transform="translate(-286 -98) translate(286 98) translate(32.852) translate(1.444) translate(1.204 5.056) translate(8.546 2.648)"/>
                                </g>
                                <path fill="#90CAF9" d="M.158 4.775c-.07-.048-.105-.155-.105-.321-.003-.154.032-.306.102-.442.067-.125.167-.23.29-.3.046-.027.094-.048.145-.062.036-.01.073-.01.11 0 .007.002.011.009.01.017 0 .01-.003.02-.007.028l-.037.11c-.003.01-.008.019-.016.025-.006.002-.012.002-.018 0-.058-.005-.117.01-.165.042-.075.044-.135.109-.173.187-.044.09-.065.19-.063.291 0 .12.022.188.065.22.043.03.102.026.177-.016.067-.04.125-.09.172-.152.005-.008.01-.014.018-.02 0 0 .01 0 .016.008l.042.072v.016c-.002.01-.006.02-.012.029-.068.096-.158.176-.262.232-.123.076-.22.085-.29.036zM.835 4.53c-.015 0-.022-.02-.022-.043v-.89c-.001-.02.006-.039.022-.056.018-.017.045-.03.078-.039l.575-.165c.385-.11.576-.053.574.169.001.068-.022.136-.067.2-.046.063-.114.12-.201.171l.238.277c.002.006.002.013 0 .019.002.017-.017.033-.047.041l-.251.072c-.014.005-.03.008-.048.01 0 0-.02 0-.028-.017l-.208-.27-.269.077v.294c.002.02-.006.038-.022.056-.019.016-.047.03-.08.039l-.171.048c-.033.01-.058.013-.073.007zm.597-.694c.165-.044.263-.132.251-.224 0-.051-.02-.084-.057-.098-.038-.013-.1-.007-.178.015l-.269.078v.3l.253-.07z" transform="translate(-286 -98) translate(286 98) translate(32.852) translate(1.444) translate(1.204 5.056)"/>
                                <path fill="#90CAF9" d="M1.513 4.093c-.008 0-.012-.02-.012-.041v-.863c0-.02.003-.038.012-.055.008-.016.021-.03.037-.038l.452-.26c.017-.01.029-.012.036-.007.008.012.011.027.01.042v.053c0 .018-.003.037-.01.054-.009.014-.021.026-.036.035l-.317.185v.229l.224-.13c.018-.01.03-.012.036 0 .006.012.01.02.01.04v.051c0 .019-.002.038-.01.055-.008.015-.02.027-.036.035l-.224.122v.231l.32-.184c.017-.01.03-.012.036-.007.008.013.012.027.01.042v.05c0 .018-.003.036-.01.052-.008.015-.02.026-.036.034l-.45.26c-.023.015-.035.015-.042.015zM2.147 3.787c-.017-.012-.025-.027-.02-.042v-.904c-.002-.02.006-.039.02-.057.016-.016.04-.03.07-.039l.436-.137c.229-.076.415-.09.538-.047.124.044.183.155.183.333.01.156-.055.31-.185.448-.125.125-.31.227-.536.296l-.435.139c-.032.01-.057.01-.071.01zm.522-.333c.12-.037.216-.094.275-.162.069-.091.1-.189.091-.287 0-.126-.03-.197-.091-.227-.062-.03-.151-.026-.275.013l-.202.064v.664l.202-.065z" transform="translate(-286 -98) translate(286 98) translate(32.852) translate(1.444) translate(1.204 5.056)"/>
                                <path fill="#90CAF9" d="M2.889 3.298c-.009-.006-.012-.02-.012-.04v-.86c-.001-.019.003-.038.012-.054.008-.017.021-.03.037-.039l.082-.047c.018-.01.03-.012.037-.006.008.006.011.02.011.042v.86c0 .018-.003.036-.01.053-.01.015-.022.028-.038.037l-.082.047c-.024.01-.037.012-.037.007zM3.354 3.026c-.009 0-.012-.02-.012-.04v-.747l-.179.102c-.017.011-.029.014-.036.007-.006 0-.01-.019-.01-.04v-.055c0-.018.003-.036.01-.053.009-.014.021-.026.036-.035l.537-.31c.018-.01.03-.012.038 0 .007.012.01.02.01.04v.055c0 .018-.003.035-.01.052-.009.015-.022.028-.038.036l-.178.102v.748c0 .018-.003.036-.01.053-.01.016-.023.028-.04.037l-.08.047c-.022.005-.031.007-.038.001zM4.288 2.39c-.069-.048-.104-.156-.104-.322-.003-.153.032-.305.102-.44.065-.128.165-.233.288-.304.045-.028.094-.049.145-.063.035-.01.073-.01.11 0 .006.003.01.01.01.017 0 .01-.003.02-.007.028l-.038.11c-.003.01-.008.019-.015.026-.006.002-.012.002-.018 0-.059-.005-.117.01-.165.043-.076.044-.136.109-.174.187-.044.09-.065.19-.062.291 0 .12.022.187.065.22.043.032.102.026.177-.018.067-.037.125-.089.17-.15.006-.008.013-.014.02-.02 0 0 .01 0 .014.007l.044.073v.015c-.002.01-.006.02-.013.029-.068.097-.157.177-.262.233-.121.075-.218.087-.287.039zM4.896 2.156c-.002-.009-.002-.017 0-.026l.478-1.083c.007-.016.017-.03.029-.045.013-.01.029-.02.047-.026L5.586.93c.018 0 .033-.008.043 0 .01.009.018.011.029.025l.486.75v.022c.001.015-.011.03-.033.037l-.224.078c-.01.005-.025.007-.039.006 0 0-.014-.007-.02-.017l-.086-.145-.45.156-.084.204c-.004.011-.01.022-.02.032-.01.008-.024.015-.04.02l-.223.077c-.019.004-.029 0-.029-.018zm.78-.617l-.154-.267-.156.37.31-.103z" transform="translate(-286 -98) translate(286 98) translate(32.852) translate(1.444) translate(1.204 5.056)"/>
                                <path fill="#90CAF9" d="M5.745 1.695c-.017 0-.025-.02-.025-.042v-.89c-.002-.02.007-.039.025-.056.016-.017.044-.03.078-.039l.57-.164c.385-.11.577-.055.577.168 0 .068-.022.136-.068.2-.045.063-.114.121-.203.172l.238.276c.003.006.003.013 0 .019.002.017-.016.033-.047.041l-.25.072c-.014.006-.031.008-.048.008 0 0-.02 0-.028-.015l-.208-.27-.27.077v.294c.001.02-.007.038-.023.056-.018.016-.045.029-.077.037l-.17.05c-.03.01-.056.013-.07.006zm.596-.693c.08-.021.146-.052.193-.09C6.58.87 6.602.824 6.6.777c0-.052-.02-.085-.06-.097-.037-.013-.098-.008-.175.015l-.27.077v.3l.247-.07z" transform="translate(-286 -98) translate(286 98) translate(32.852) translate(1.444) translate(1.204 5.056)"/>
                                <path fill="#90CAF9" d="M6.43 1.31c-.013 0-.02-.02-.02-.042v-.9c-.001-.02.006-.04.02-.057.018-.017.043-.03.074-.04l.433-.137c.23-.075.415-.09.539-.046.123.044.183.155.183.332.009.156-.055.31-.186.449-.124.124-.31.227-.536.296l-.433.138c-.035.01-.058.013-.074.007zm.523-.333c.12-.037.217-.094.277-.162.067-.091.098-.189.09-.286C7.32.403 7.29.33 7.23.3s-.153-.027-.277.012l-.202.065v.663l.202-.064z" transform="translate(-286 -98) translate(286 98) translate(32.852) translate(1.444) translate(1.204 5.056)"/>
                                <g fill="#90CAF9" opacity=".15">
                                    <path d="M.158 4.775c-.07-.048-.105-.155-.105-.321-.003-.154.032-.306.102-.442.067-.125.167-.23.29-.3.046-.027.094-.048.145-.062.036-.01.073-.01.11 0 .007.002.011.009.01.017 0 .01-.003.02-.007.028l-.037.11c-.003.01-.008.019-.016.025-.006.002-.012.002-.018 0-.058-.005-.117.01-.165.042-.075.044-.135.109-.173.187-.044.09-.065.19-.063.291 0 .12.022.188.065.22.043.03.102.026.177-.016.067-.04.125-.09.172-.152.005-.008.01-.014.018-.02 0 0 .01 0 .016.008l.042.072v.016c-.002.01-.006.02-.012.029-.068.096-.158.176-.262.232-.123.076-.22.085-.29.036zM.835 4.53c-.015 0-.022-.02-.022-.043v-.89c-.001-.02.006-.039.022-.056.018-.017.045-.03.078-.039l.575-.165c.385-.11.576-.053.574.169.001.068-.022.136-.067.2-.046.063-.114.12-.201.171l.238.277c.002.006.002.013 0 .019.002.017-.017.033-.047.041l-.251.072c-.014.005-.03.008-.048.01 0 0-.02 0-.028-.017l-.208-.27-.269.077v.294c.002.02-.006.038-.022.056-.019.016-.047.03-.08.039l-.171.048c-.033.01-.058.013-.073.007zm.597-.694c.165-.044.263-.132.251-.224 0-.051-.02-.084-.057-.098-.038-.013-.1-.007-.178.015l-.269.078v.3l.253-.07z" transform="translate(-286 -98) translate(286 98) translate(32.852) translate(1.444) translate(1.204 5.056)"/>
                                    <path d="M1.513 4.093c-.008 0-.012-.02-.012-.041v-.863c0-.02.003-.038.012-.055.008-.016.021-.03.037-.038l.452-.26c.017-.01.029-.012.036-.007.008.012.011.027.01.042v.053c0 .018-.003.037-.01.054-.009.014-.021.026-.036.035l-.317.185v.229l.224-.13c.018-.01.03-.012.036 0 .006.012.01.02.01.04v.051c0 .019-.002.038-.01.055-.008.015-.02.027-.036.035l-.224.122v.231l.32-.184c.017-.01.03-.012.036-.007.008.013.012.027.01.042v.05c0 .018-.003.036-.01.052-.008.015-.02.026-.036.034l-.45.26c-.023.015-.035.015-.042.015zM2.147 3.787c-.017-.012-.025-.027-.02-.042v-.904c-.002-.02.006-.039.02-.057.016-.016.04-.03.07-.039l.436-.137c.229-.076.415-.09.538-.047.124.044.183.155.183.333.01.156-.055.31-.185.448-.125.125-.31.227-.536.296l-.435.139c-.032.01-.057.01-.071.01zm.522-.333c.12-.037.216-.094.275-.162.069-.091.1-.189.091-.287 0-.126-.03-.197-.091-.227-.062-.03-.151-.026-.275.013l-.202.064v.664l.202-.065z" transform="translate(-286 -98) translate(286 98) translate(32.852) translate(1.444) translate(1.204 5.056)"/>
                                    <path d="M2.889 3.298c-.009-.006-.012-.02-.012-.04v-.86c-.001-.019.003-.038.012-.054.008-.017.021-.03.037-.039l.082-.047c.018-.01.03-.012.037-.006.008.006.011.02.011.042v.86c0 .018-.003.036-.01.053-.01.015-.022.028-.038.037l-.082.047c-.024.01-.037.012-.037.007zM3.354 3.026c-.009 0-.012-.02-.012-.04v-.747l-.179.102c-.017.011-.029.014-.036.007-.006 0-.01-.019-.01-.04v-.055c0-.018.003-.036.01-.053.009-.014.021-.026.036-.035l.537-.31c.018-.01.03-.012.038 0 .007.012.01.02.01.04v.055c0 .018-.003.035-.01.052-.009.015-.022.028-.038.036l-.178.102v.748c0 .018-.003.036-.01.053-.01.016-.023.028-.04.037l-.08.047c-.022.005-.031.007-.038.001zM4.288 2.39c-.069-.048-.104-.156-.104-.322-.003-.153.032-.305.102-.44.065-.128.165-.233.288-.304.045-.028.094-.049.145-.063.035-.01.073-.01.11 0 .006.003.01.01.01.017 0 .01-.003.02-.007.028l-.038.11c-.003.01-.008.019-.015.026-.006.002-.012.002-.018 0-.059-.005-.117.01-.165.043-.076.044-.136.109-.174.187-.044.09-.065.19-.062.291 0 .12.022.187.065.22.043.032.102.026.177-.018.067-.037.125-.089.17-.15.006-.008.013-.014.02-.02 0 0 .01 0 .014.007l.044.073v.015c-.002.01-.006.02-.013.029-.068.097-.157.177-.262.233-.121.075-.218.087-.287.039zM4.896 2.156c-.002-.009-.002-.017 0-.026l.478-1.083c.007-.016.017-.03.029-.045.013-.01.029-.02.047-.026L5.586.93c.018 0 .033-.008.043 0 .01.009.018.011.029.025l.486.75v.022c.001.015-.011.03-.033.037l-.224.078c-.01.005-.025.007-.039.006 0 0-.014-.007-.02-.017l-.086-.145-.45.156-.084.204c-.004.011-.01.022-.02.032-.01.008-.024.015-.04.02l-.223.077c-.019.004-.029 0-.029-.018zm.78-.617l-.154-.267-.156.37.31-.103z" transform="translate(-286 -98) translate(286 98) translate(32.852) translate(1.444) translate(1.204 5.056)"/>
                                    <path d="M5.745 1.695c-.017 0-.025-.02-.025-.042v-.89c-.002-.02.007-.039.025-.056.016-.017.044-.03.078-.039l.57-.164c.385-.11.577-.055.577.168 0 .068-.022.136-.068.2-.045.063-.114.121-.203.172l.238.276c.003.006.003.013 0 .019.002.017-.016.033-.047.041l-.25.072c-.014.006-.031.008-.048.008 0 0-.02 0-.028-.015l-.208-.27-.27.077v.294c.001.02-.007.038-.023.056-.018.016-.045.029-.077.037l-.17.05c-.03.01-.056.013-.07.006zm.596-.693c.08-.021.146-.052.193-.09C6.58.87 6.602.824 6.6.777c0-.052-.02-.085-.06-.097-.037-.013-.098-.008-.175.015l-.27.077v.3l.247-.07z" transform="translate(-286 -98) translate(286 98) translate(32.852) translate(1.444) translate(1.204 5.056)"/>
                                    <path d="M6.43 1.31c-.013 0-.02-.02-.02-.042v-.9c-.001-.02.006-.04.02-.057.018-.017.043-.03.074-.04l.433-.137c.23-.075.415-.09.539-.046.123.044.183.155.183.332.009.156-.055.31-.186.449-.124.124-.31.227-.536.296l-.433.138c-.035.01-.058.013-.074.007zm.523-.333c.12-.037.217-.094.277-.162.067-.091.098-.189.09-.286C7.32.403 7.29.33 7.23.3s-.153-.027-.277.012l-.202.065v.663l.202-.064z" transform="translate(-286 -98) translate(286 98) translate(32.852) translate(1.444) translate(1.204 5.056)"/>
                                </g>
                                <path fill="#90CAF9" d="M1.187 8.095l.481-.28c.063-.035.113-.007.113.066v.148c-.004.08-.046.153-.113.197l-.481.28c-.063.036-.114.005-.114-.067v-.148c.004-.08.047-.153.114-.196zM.12 8.71l.482-.28c.062-.035.113-.006.113.067v.148c-.004.08-.046.153-.113.196l-.482.28c-.062.036-.113.007-.113-.065v-.149c.004-.08.046-.153.113-.197zM6.226 6.211L.207 9.686c-.112.073-.182.195-.189.329v.178c0 .12.084.17.189.11l6.019-3.476c.11-.073.18-.195.189-.328V6.32c0-.12-.086-.17-.19-.11z" transform="translate(-286 -98) translate(286 98) translate(32.852) translate(1.444) translate(1.204 5.056)"/>
                                <path fill="#455A64" d="M1.187 8.095l.481-.28c.063-.035.113-.007.113.066v.148c-.004.08-.046.153-.113.197l-.481.28c-.063.036-.114.005-.114-.067v-.148c.004-.08.047-.153.114-.196zM.12 8.71l.482-.28c.062-.035.113-.006.113.067v.148c-.004.08-.046.153-.113.196l-.482.28c-.062.036-.113.007-.113-.065v-.149c.004-.08.046-.153.113-.197zM6.226 6.211L.207 9.686c-.112.073-.182.195-.189.329v.178c0 .12.084.17.189.11l6.019-3.476c.11-.073.18-.195.189-.328V6.32c0-.12-.086-.17-.19-.11z" transform="translate(-286 -98) translate(286 98) translate(32.852) translate(1.444) translate(1.204 5.056)"/>
                                <path fill="#FAFAFA" d="M.13 7.024l.023-.014c.067-.04.12 0 .12.093v.48c-.001.095-.045.183-.12.241l-.02.012c-.068.042-.12 0-.12-.088v-.481c-.003-.095.04-.186.117-.243zM.766 6.659l.022-.013c.068-.04.12 0 .12.092v.475c0 .094-.044.183-.12.24l-.019.012c-.068.043-.12 0-.12-.087v-.482c0-.093.042-.18.117-.237zM1.401 6.294l.023-.013c.067-.04.12 0 .12.093v.474c0 .094-.045.183-.12.24l-.018.013c-.07.042-.12 0-.12-.088V6.53c-.001-.092.041-.18.115-.237zM2.037 5.93l.023-.014c.067-.04.12 0 .12.093v.474c-.001.095-.046.183-.12.24l-.02.013c-.07.042-.12 0-.12-.088v-.481c0-.093.043-.181.117-.238zM3.103 5.306l.027-.01c.067-.038.12 0 .12.094v.474c-.001.095-.046.184-.12.241l-.02.011c-.07.043-.12 0-.12-.088v-.481c-.002-.094.04-.183.113-.241zM3.739 4.941l.023-.013c.068-.039.12 0 .12.094v.474c-.001.095-.046.183-.12.24l-.02.012c-.068.043-.12 0-.12-.088v-.482c0-.093.043-.18.117-.237zM4.375 4.574l.022-.013c.069-.039.12 0 .12.094v.474c0 .094-.045.183-.12.24l-.02.012c-.068.043-.12 0-.12-.088V4.81c0-.093.044-.181.118-.237zM5.011 4.213l.022-.013c.068-.039.12 0 .12.094v.474c-.001.094-.046.183-.12.24l-.02.011c-.068.044-.12 0-.12-.087V4.45c0-.093.043-.181.118-.237zM6.078 3.588l.021-.012c.069-.04.12 0 .12.093v.474c0 .095-.045.183-.12.24l-.02.013c-.068.042-.12 0-.12-.088v-.481c0-.094.044-.182.119-.239zM6.713 3.224l.022-.012c.068-.04.12 0 .12.092v.474c-.001.095-.046.183-.12.241l-.02.012c-.068.042-.12 0-.12-.088v-.481c0-.094.043-.182.118-.238zM7.349 2.859l.023-.012c.067-.04.12 0 .12.092v.475c-.001.094-.045.183-.12.24l-.02.013c-.068.042-.12 0-.12-.088v-.482c-.001-.093.042-.182.117-.238zM7.984 2.494l.023-.012c.067-.04.12 0 .12.093v.474c0 .094-.045.183-.12.24l-.018.013c-.07.042-.12 0-.12-.088v-.482c-.001-.093.042-.18.115-.238zM9.05 1.872l.024-.013c.067-.04.12 0 .12.093v.473c0 .095-.045.184-.12.241l-.018.012c-.07.042-.12 0-.12-.088V2.11c-.002-.093.041-.18.115-.237zM9.686 1.507l.023-.013c.068-.04.12 0 .12.094v.473c-.001.094-.045.183-.12.24l-.02.011c-.069.042-.12 0-.12-.088v-.481c0-.093.043-.18.117-.236zM10.322 1.142l.023-.013c.068-.04.12 0 .12.094v.473c-.001.094-.045.183-.12.24l-.02.013c-.068.042-.12 0-.12-.088v-.482c0-.093.043-.18.117-.237zM10.954.778l.021-.014c.069-.04.12 0 .12.094v.473c0 .095-.045.183-.12.241l-.019.012c-.068.042-.12 0-.12-.088v-.481c-.001-.094.043-.182.118-.237z" transform="translate(-286 -98) translate(286 98) translate(32.852) translate(1.444) translate(1.204 5.056)"/>
                            </g>
                            <path fill="#263238" d="M0.569 8.798L0.072 8.511 0.072 10.98 0.569 11.263z" transform="translate(-286 -98) translate(286 98) translate(32.852) translate(1.444)"/>
                        </g>
                        <path fill="#90CAF9" d="M2.015 12.266l-.496-.29-1.444 1.392c-.047.045-.07.11-.062.173.008.064.046.12.103.152.006 0 .402.235.481.277.049.026.104.037.159.034l1.266-.24c.036-.498.036-.997 0-1.495l-.007-.003z" transform="translate(-286 -98) translate(286 98) translate(32.852)"/>
                        <path fill="#FFF" d="M.589 13.97c-.075-.043-.471-.275-.482-.278-.056-.031-.094-.088-.102-.152-.009-.064.014-.128.061-.173l1.445-1.392.497.29-1.445 1.391c-.043.043-.065.102-.06.162.005.06.036.116.086.151z" opacity=".5" transform="translate(-286 -98) translate(286 98) translate(32.852)"/>
                    </g>
                </g>
            </g>
        </g>
    </g>
</svg>
