<svg xmlns="http://www.w3.org/2000/svg" width="24" height="24" viewBox="0 0 24 24">
    <g fill="none" fill-rule="evenodd">
        <g>
            <g>
                <g fill-rule="nonzero">
                    <path fill="#424242" d="M14 7c0 3.866-3.134 7-7 7s-7-3.134-7-7 3.134-7 7-7 7 3.134 7 7z" transform="translate(-16 -308) translate(16 308) translate(5 5)"/>
                    <g fill="#FFF">
                        <path d="M4.53 4.959l.091.001.084-.001c.626.014 1.24.18 1.784.481.198.11.448.04.558-.158.11-.198.04-.448-.159-.558-.227-.127-.464-.233-.709-.32.554-.452.909-1.14.909-1.91C7.088 1.134 5.98.027 4.62.027S2.154 1.133 2.154 2.494c0 .77.355 1.458.91 1.911-.509.18-.986.447-1.406.793C.837 5.873.266 6.815.05 7.85c-.07.337.014.683.23.95.216.264.536.416.877.416H3.93c.226 0 .41-.183.41-.41 0-.226-.184-.41-.41-.41H1.158c-.128 0-.205-.072-.24-.114-.035-.044-.09-.136-.064-.264C1.217 6.273 2.755 5 4.531 4.959zM2.976 2.494c0-.908.738-1.647 1.646-1.647.908 0 1.647.739 1.647 1.647 0 .884-.7 1.607-1.576 1.644l-.07-.001H4.54c-.87-.041-1.565-.763-1.565-1.643z" transform="translate(-16 -308) translate(16 308) translate(5 5) translate(2.379 2.05)"/>
                        <path d="M8.936 6.009l-.658-.651c-.161-.16-.42-.158-.58.003-.16.161-.158.42.003.58l.313.31H6.172c-.817 0-1.482.664-1.482 1.482 0 .817.66 1.482 1.474 1.482.226 0 .41-.183.41-.41 0-.226-.184-.41-.41-.41-.36 0-.654-.297-.654-.662 0-.365.297-.663.662-.663h1.875l-.347.345c-.16.16-.16.42-.001.58.08.08.185.121.29.121.105 0 .21-.04.29-.12l.66-.655c.178-.178.277-.415.276-.666 0-.252-.099-.489-.279-.666z" transform="translate(-16 -308) translate(16 308) translate(5 5) translate(2.379 2.05)"/>
                    </g>
                </g>
            </g>
        </g>
    </g>
</svg>
