<svg xmlns="http://www.w3.org/2000/svg" xmlns:xlink="http://www.w3.org/1999/xlink" width="248" height="130" viewBox="0 0 248 130">
    <defs>
        <path id="nqou46koxa" d="M0.022 0.216L222.041 0.216 222.041 121.501 0.022 121.501z"/>
        <path id="7f6urn9xlc" d="M.81.32L.302.305.81.32z"/>
    </defs>
    <g fill="none" fill-rule="evenodd">
        <g>
            <g>
                <g>
                    <g>
                        <g transform="translate(-56 -141) translate(20 91) translate(36 50) translate(0 6.9)">
                            <mask id="l5d38892ib" fill="#fff">
                                <use xlink:href="#nqou46koxa"/>
                            </mask>
                            <path fill="#A6CCF7" d="M40.766 121.5h-10.7c-5.441-7.49-9.292-12.074-9.702-26.812-.413-14.795 16.306-34.244 18.595-40.594 2.258-6.26-4.895-17.899-4.191-24.504C36.32 15.01 49.342 4.022 65.223 1.113c3.34-.612 6.741-.897 10.166-.897 10.932 0 22.085 2.911 32.117 7.401 9.679 4.331 19.043 10.24 29.673 11.102.957.078 1.908.113 2.857.113 6.284 0 12.425-1.539 18.609-2.46 3.83-.57 7.778-.871 11.749-.871 13.648 0 27.524 3.567 37.455 12.047 8.227 7.026 12.976 16.856 13.964 26.67.723 7.19-.253 15.123-3.218 21.72-1.384 3.078-3.676 6.008-5.658 8.953l-2.92-7.958c-.657-3.301-3.265-5.974-6.685-6.968.321-1.268.63-2.551.9-3.86 1.402-6.774.935-14.446-.824-21.104-.82-3.105-2.007-6.132-3.53-8.977l.176-.943c.244-1.308-.202-2.586-1.082-3.458-.416-2.865-2.874-4.962-5.722-4.962-.118 0-.236.003-.355.01-1.644-1.605-3.444-3.053-5.389-4.305-6.35-4.088-13.784-5.84-21.366-5.84-7.245 0-14.625 1.598-21.327 4.286-5.745 2.303-11.31 5.368-17.462 6.143-1.104.14-2.204.202-3.3.203-7.823 0-15.483-3.226-23.15-5.26-5.447-1.447-11.139-2.28-16.786-2.28-6.689 0-13.314 1.168-19.402 3.872-12.73 5.653-21.781 18.412-20.724 32.467.48 6.368 2.93 12.652 2.063 18.979-.88 6.416-4.692 11.783-6.71 17.826-1.925 5.765-2.627 13.423-1.363 20.369l-.045.197c-.696 3.033.446 6.06 2.695 7.912.045.087.09.174.137.26" mask="url(#l5d38892ib)"/>
                        </g>
                        <path fill="#DCE8FD" d="M40.965 128.4h-.2l-.136-.261c.11.09.222.177.336.261m-2.986-8.37c-1.264-6.946-.562-14.603 1.363-20.368 2.018-6.043 5.83-11.41 6.71-17.827.867-6.326-1.584-12.61-2.063-18.979-1.057-14.054 7.994-26.814 20.724-32.467 6.088-2.703 12.713-3.872 19.402-3.872 5.647 0 11.34.834 16.787 2.28 7.666 2.035 15.326 5.26 23.148 5.26 1.097 0 2.197-.063 3.301-.203 6.152-.775 11.717-3.84 17.462-6.143 6.702-2.687 14.082-4.286 21.327-4.286 7.582 0 15.017 1.752 21.366 5.84 1.945 1.252 3.745 2.7 5.39 4.306-.102.006-.202.015-.304.026-.827.094-1.592.36-2.268.755-.907-1.485-2.54-2.45-4.352-2.45-.19 0-.384.01-.578.033-1.165.131-2.19.649-2.972 1.406-.912-.458-1.935-.714-3.005-.714-.25 0-.503.014-.758.043-3.693.417-6.348 3.75-5.93 7.442.195 1.727 1.03 3.225 2.239 4.29l-1.368 7.305c-.169.902-.01 1.79.394 2.54l-.757 4.047c-.344 1.839.033 3.642.923 5.13l.005.013c.888 2.186 2.788 3.91 5.235 4.472v8.388l-16.866.064c-3.138-1.928-6.756-3.125-10.51-3.705l2.08-7.237.002-.002 2.116-7.363v-.003l.001-.002.001-.003v-.001l.002-.006.001-.004v-.002l.002-.004.004-.016-.022-.018c.237-.463.85-1.455 2.103-2.329 2.167-1.512 2.426-4.016 2.426-4.016 1.158-1.12 2.462-2.076 3.644-3.17.123-.115.252-.24.288-.404.04-.183-.046-.37-.15-.525-.393-.583-1-.844-1.63-.844-.348 0-.702.079-1.033.227-.546.244-1.034.592-1.492.975-.218.18-.958.68-1.183 1.011l4.182-8.929c.371-.793.128-1.698-.54-2.01-.156-.074-.322-.109-.49-.109-.19 0-.384.046-.567.13-.217.1-.415.261-.581.463l.02-.104c-.627-.527-1.274-.758-1.923-.758-4.424 0-9.018 10.658-9.018 10.658l-1.715 4.047-11.29 20.933c-2.124.39-4.252.756-6.413.756-.486 0-.974-.018-1.463-.06-5.447-.456-10.244-3.587-15.202-5.882-.806-.373-1.627-.726-2.458-1.055l-6.199-11.494-1.715-4.047S99.217 40.8 94.793 40.8c-.65 0-1.295.23-1.923.758l.02.104c-.166-.202-.364-.363-.581-.464-.183-.084-.376-.129-.567-.129-.168 0-.333.035-.49.108-.668.313-.911 1.218-.54 2.01l4.182 8.93c-.225-.332-.965-.83-1.183-1.011-.457-.383-.945-.73-1.492-.975-.33-.148-.685-.228-1.032-.228-.631 0-1.237.262-1.63.845-.105.155-.19.342-.15.525.036.164.164.29.288.404 1.181 1.094 2.486 2.05 3.643 3.17 0 0 .259 2.504 2.426 4.016.623.434 1.087.898 1.426 1.31l.002.003c.131.16.244.313.339.453.118.198.233.431.345.69l.813 2.828c-.32-.01-.64-.015-.96-.015-1.754 0-3.496.151-5.208.476-3.64.69-6.985 2.235-9.643 4.425l-1.587-10.8c-.27-1.838-.804-3.57-1.553-5.17l1.338-.215s-.75-10.865-11.795-10.865c-1.32 0-2.784.155-4.413.502-.628-.065-1.263-.098-1.904-.098-.895 0-1.8.064-2.711.198-7.418 1.09-12.548 7.987-11.458 15.404l1.437 9.777c.944 6.426 6.245 11.134 12.468 11.57v.308h-6.123c-3.857 0-7.146 2.422-8.435 5.827l-.002-.001-.027.074-7.568 20.629.6.073-2.175 9.47-.092.042s.03-.01.088-.026l-.987 4.297m.78-3.668l-.022.112.022-.112.007-.034-.007.034m.048-.241l-.041.207.04-.207m.072-.362l-.071.362.071-.362M74.6 79.652c-.087-.002-.172-.007-.26-.007h-.537v-1.62l3.508-.516c-.179.691-.309 1.401-.386 2.128l-2.326.008.001.007m128.732-2.788c-.932-.27-1.925-.417-2.954-.417l-8.124-.064v-9.667c.903-.99 1.552-2.233 1.816-3.646l.455-2.43.355.066c.24.044.477.066.713.066 1.833 0 3.478-1.31 3.827-3.175l.04-.213c.286-1.528-.374-3.024-1.564-3.88l1.981-10.58c1.524 2.844 2.71 5.871 3.53 8.977 1.76 6.657 2.227 14.33.826 21.103-.271 1.31-.58 2.592-.901 3.86" transform="translate(-56 -141) translate(20 91) translate(36 50)"/>
                        <path fill="#DCE8FD" d="M162.083 128.4H85.848l1.486-18.53c1.605-1.463 2.6-3.178 1.754-4.956-.09-.188-.231-.337-.401-.441-.031-.045-.056-.09-.089-.136l-.171.022c-.101-.03-.206-.046-.313-.046-.026 0-.052 0-.078.003l-.258.02.804-10.029h23.855c1.445 0 2.799-.388 3.966-1.063.056-.025.113-.049.169-.076 3.974-1.937 5.559-6.776 3.502-10.69L111.726 67c.831.33 1.652.682 2.458 1.055 4.958 2.295 9.755 5.426 15.202 5.883.49.04.977.06 1.463.06 2.161 0 4.289-.368 6.412-.757l-3.257 6.039c-2.057 3.913-.471 8.753 3.503 10.69.057.028.115.053.172.079 1.166.674 2.52 1.06 3.962 1.06h23.877l-3.435 37.291M95.42 79.645v-.072l-.197.001-18.297.063c.077-.727.207-1.437.386-2.128l5.145-.756c.841-.123 1.423-.905 1.3-1.746l-.878-5.973c2.658-2.19 6.004-3.736 9.643-4.425 1.712-.325 3.454-.476 5.208-.476.32 0 .64.005.96.015l4.413 15.353c-1.81 0-2.553.058-3.732.091l-1.857.025h-.008l-2.086.028m63.26-3.27l-2.082-.008h-.013l-1.11-.004c-1.683-.015-2.433-.058-4.498-.06l-.012.041.012-.04 1.048-3.648c3.754.58 7.372 1.777 10.51 3.705l-3.854.015" transform="translate(-56 -141) translate(20 91) translate(36 50)"/>
                        <path fill="#9FBFFF" d="M246.74 129.538H10.658c-.317 0-.574-.257-.574-.574 0-.317.257-.574.574-.574H246.74c.317 0 .574.257.574.574 0 .317-.257.574-.574.574" transform="translate(-56 -141) translate(20 91) translate(36 50)"/>
                        <path fill="#F6E552" d="M239.367 75.202c0 .902-.73 1.634-1.634 1.634-.902 0-1.634-.732-1.634-1.634 0-.903.732-1.634 1.634-1.634.903 0 1.634.731 1.634 1.634" transform="translate(-56 -141) translate(20 91) translate(36 50)"/>
                        <path fill="#FF5353" d="M227.384 120.593c0 .702-.569 1.271-1.27 1.271-.702 0-1.272-.57-1.272-1.27 0-.703.57-1.272 1.271-1.272.702 0 1.271.57 1.271 1.271" transform="translate(-56 -141) translate(20 91) translate(36 50)"/>
                        <path fill="#9013FE" d="M30.569 18.554c0 .902-.732 1.634-1.635 1.634-.902 0-1.634-.732-1.634-1.634 0-.903.732-1.634 1.634-1.634.903 0 1.635.731 1.635 1.634" transform="translate(-56 -141) translate(20 91) translate(36 50)"/>
                        <path fill="#5B69C7" d="M13.555 115.846c0 .958-.777 1.735-1.736 1.735-.958 0-1.735-.777-1.735-1.735 0-.959.777-1.736 1.735-1.736.96 0 1.736.777 1.736 1.736" transform="translate(-56 -141) translate(20 91) translate(36 50)"/>
                        <g>
                            <path fill="#0FF" d="M1.155 26.543c0 .3-.244.544-.545.544-.3 0-.544-.243-.544-.544 0-.301.244-.545.544-.545.301 0 .545.244.545.545" transform="translate(-56 -141) translate(20 91) translate(36 50) translate(17.793)"/>
                            <path fill="#4E69FF" d="M139.873 5.46c-.503 2.357-2.821 3.859-5.178 3.356-2.356-.504-3.858-2.821-3.355-5.178.503-2.356 2.821-3.858 5.178-3.355 2.356.503 3.858 2.821 3.355 5.177" transform="translate(-56 -141) translate(20 91) translate(36 50) translate(17.793)"/>
                        </g>
                        <path fill="#F2AE50" d="M226.479 11.997c-.153.716-.857 1.172-1.573 1.019-.716-.153-1.172-.857-1.019-1.572.153-.716.857-1.172 1.573-1.019.715.153 1.171.857 1.019 1.572M55.858 3.567c-.153.716-.857 1.172-1.573 1.02-.716-.154-1.172-.858-1.019-1.573.153-.716.857-1.172 1.573-1.02.715.154 1.171.858 1.019 1.573" transform="translate(-56 -141) translate(20 91) translate(36 50)"/>
                        <path fill="#0FF" d="M237.395 41.824c-.153.716-.857 1.172-1.572 1.02-.716-.154-1.172-.858-1.02-1.573.153-.716.857-1.172 1.573-1.02.716.154 1.172.858 1.02 1.573" transform="translate(-56 -141) translate(20 91) translate(36 50)"/>
                        <path fill="#FF5353" d="M142.018 9.613c-.12.56-.672.918-1.233.799-.561-.12-.919-.672-.799-1.233.12-.562.672-.92 1.233-.8s.919.673.8 1.234" transform="translate(-56 -141) translate(20 91) translate(36 50)"/>
                        <path fill="#16171B" d="M146.225 30.911c0 11.526-9.343 20.87-20.869 20.87-11.525 0-20.869-9.344-20.869-20.87 0-11.525 9.344-20.868 20.87-20.868 11.525 0 20.868 9.343 20.868 20.868" transform="translate(-56 -141) translate(20 91) translate(36 50)"/>
                        <path fill="#F2AE50" d="M144.024 28.71c0 11.526-9.343 20.87-20.869 20.87-11.525 0-20.869-9.344-20.869-20.87 0-11.525 9.344-20.869 20.87-20.869 11.525 0 20.868 9.344 20.868 20.87" transform="translate(-56 -141) translate(20 91) translate(36 50)"/>
                        <path fill="#FDF1E0" d="M123.155 13.033c-8.667 0-15.718 7.05-15.718 15.718 0 8.667 7.051 15.718 15.718 15.718s15.718-7.05 15.718-15.718c0-8.667-7.05-15.718-15.718-15.718zm0 32.526c-9.267 0-16.807-7.54-16.807-16.808s7.54-16.808 16.807-16.808c9.268 0 16.808 7.54 16.808 16.808s-7.54 16.808-16.808 16.808z" transform="translate(-56 -141) translate(20 91) translate(36 50)"/>
                        <path fill="#16171B" d="M124.322 33.31c1.144-.177 1.717-.693 1.717-1.548v-.048c0-.42-.12-.762-.363-1.028-.242-.266-.693-.52-1.354-.762v3.387zm-2.274-10.86c-.58.08-1.004.254-1.27.52s-.4.592-.4.98v.047c0 .372.113.69.34.956.225.266.668.52 1.33.762v-3.266zm-.121 13.836c-1.048-.129-2.06-.391-3.036-.786s-1.867-.9-2.673-1.512l1.887-2.758c.66.5 1.302.916 1.923 1.246.62.33 1.294.568 2.02.714v-3.847c-.87-.242-1.633-.508-2.286-.798-.653-.29-1.194-.637-1.621-1.04-.427-.403-.75-.875-.967-1.415-.218-.54-.327-1.165-.327-1.875v-.048c0-.677.121-1.29.363-1.839.242-.548.584-1.024 1.028-1.427.443-.403.98-.73 1.609-.98s1.322-.414 2.08-.495v-1.403h2.516v1.451c.87.13 1.672.343 2.406.641.734.299 1.431.682 2.093 1.15l-1.62 2.83c-.484-.323-.977-.61-1.477-.86-.5-.25-1.007-.439-1.523-.568v3.653c1.838.5 3.172 1.153 4.003 1.959.83.807 1.246 1.887 1.246 3.241v.049c0 .677-.125 1.29-.375 1.838-.25.549-.597 1.024-1.04 1.427-.444.404-.98.734-1.609.992s-1.33.428-2.104.508v2.395h-2.516v-2.443z" transform="translate(-56 -141) translate(20 91) translate(36 50)"/>
                        <path fill="#16171B" d="M146.225 30.911c0 11.526-9.343 20.87-20.869 20.87-11.525 0-20.869-9.344-20.869-20.87 0-11.525 9.344-20.868 20.87-20.868 11.525 0 20.868 9.343 20.868 20.868" transform="translate(-56 -141) translate(20 91) translate(36 50)"/>
                        <path fill="#F2AE50" d="M144.024 28.71c0 11.526-9.343 20.87-20.869 20.87-11.525 0-20.869-9.344-20.869-20.87 0-11.525 9.344-20.869 20.87-20.869 11.525 0 20.868 9.344 20.868 20.87" transform="translate(-56 -141) translate(20 91) translate(36 50)"/>
                        <path fill="#FDF1E0" d="M123.155 13.033c-8.667 0-15.718 7.05-15.718 15.718 0 8.667 7.051 15.718 15.718 15.718s15.718-7.05 15.718-15.718c0-8.667-7.05-15.718-15.718-15.718zm0 32.526c-9.267 0-16.807-7.54-16.807-16.808s7.54-16.808 16.807-16.808c9.268 0 16.808 7.54 16.808 16.808s-7.54 16.808-16.808 16.808z" transform="translate(-56 -141) translate(20 91) translate(36 50)"/>
                        <path fill="#16171B" d="M111.804 19.052c0 5.215-4.227 9.442-9.442 9.442s-9.443-4.227-9.443-9.442 4.228-9.443 9.443-9.443 9.442 4.228 9.442 9.443" transform="translate(-56 -141) translate(20 91) translate(36 50)"/>
                        <path fill="#F2AE50" d="M110.809 18.056c0 5.215-4.228 9.443-9.443 9.443s-9.443-4.228-9.443-9.443 4.228-9.443 9.443-9.443 9.443 4.228 9.443 9.443" transform="translate(-56 -141) translate(20 91) translate(36 50)"/>
                        <path fill="#FDF1E0" d="M101.366 10.962c-3.922 0-7.112 3.19-7.112 7.112s3.19 7.113 7.112 7.113 7.112-3.191 7.112-7.113c0-3.921-3.19-7.112-7.112-7.112zm0 14.717c-4.194 0-7.605-3.411-7.605-7.605 0-4.193 3.411-7.605 7.605-7.605 4.193 0 7.605 3.412 7.605 7.605 0 4.194-3.412 7.605-7.605 7.605z" transform="translate(-56 -141) translate(20 91) translate(36 50)"/>
                        <path fill="#FFFFFE" d="M90.702 35.012c0-2.265-1.836-4.1-4.1-4.1 2.264 0 4.1-1.837 4.1-4.101 0 2.264 1.835 4.1 4.1 4.1-2.265 0-4.1 1.836-4.1 4.1M138.873 55.628c0-1.663-1.348-3.012-3.011-3.012 1.663 0 3.011-1.348 3.011-3.011 0 1.663 1.349 3.011 3.012 3.011-1.663 0-3.012 1.349-3.012 3.012M119.19 70.131c0-3.058-2.48-5.538-5.538-5.538 3.059 0 5.538-2.479 5.538-5.537 0 3.058 2.479 5.537 5.537 5.537-3.058 0-5.537 2.48-5.537 5.538" transform="translate(-56 -141) translate(20 91) translate(36 50)"/>
                        <path fill="#FDF1E0" d="M138.307 27.406c0-2.866-2.323-5.19-5.189-5.19 2.866 0 5.19-2.323 5.19-5.189 0 2.866 2.323 5.19 5.189 5.19-2.866 0-5.19 2.323-5.19 5.189" transform="translate(-56 -141) translate(20 91) translate(36 50)"/>
                        <path fill="#FFFFFE" d="M155.654 30.911c0-1.58-1.281-2.862-2.862-2.862 1.58 0 2.862-1.282 2.862-2.862 0 1.58 1.282 2.862 2.863 2.862-1.581 0-2.863 1.282-2.863 2.862M164.387 96.832h-35.6c-.1 0-.18-.081-.18-.181 0-.1.08-.182.18-.182h35.6c.1 0 .182.081.182.182 0 .1-.082.181-.182.181M164.387 105.186h-30.076c-.1 0-.182-.082-.182-.182 0-.1.081-.182.182-.182h30.076c.1 0 .182.081.182.182 0 .1-.082.182-.182.182M164.387 101.273h-21.886c-.1 0-.182-.081-.182-.182 0-.1.082-.181.182-.181h21.886c.1 0 .182.081.182.181 0 .1-.082.182-.182.182M139.772 101.273h-10.984c-.1 0-.182-.081-.182-.182 0-.1.081-.181.182-.181h10.984c.1 0 .181.081.181.181 0 .1-.081.182-.181.182M124.124 110.082h-35.6c-.1 0-.18-.08-.18-.181 0-.1.08-.182.18-.182h35.6c.1 0 .182.082.182.182 0 .1-.082.181-.182.181M118.601 118.435H88.525c-.1 0-.182-.08-.182-.181 0-.1.082-.182.182-.182H118.6c.1 0 .182.082.182.182 0 .1-.081.181-.182.181M110.41 114.523H88.526c-.1 0-.182-.08-.182-.181 0-.1.082-.182.182-.182h21.886c.1 0 .181.081.181.182 0 .1-.081.181-.181.181M124.124 114.523H113.14c-.1 0-.181-.08-.181-.181 0-.1.08-.182.181-.182h10.984c.1 0 .182.081.182.182 0 .1-.082.181-.182.181" transform="translate(-56 -141) translate(20 91) translate(36 50)"/>
                        <path fill="#F4BE99" d="M150.964 76.344l.012-.04 5.257-18.29-.022-.018c.236-.463.849-1.455 2.103-2.33 2.167-1.512 2.426-4.016 2.426-4.016 1.158-1.12 2.462-2.076 3.644-3.17.123-.115.252-.24.288-.404.04-.183-.046-.37-.15-.525-.61-.904-1.731-1.035-2.663-.617-.546.244-1.034.592-1.492.975-.218.18-.958.68-1.183 1.011l4.182-8.929c.371-.793.128-1.698-.54-2.01-.334-.158-.714-.137-1.057.02-.217.101-.415.262-.581.464l.02-.104c-4.898-4.119-10.941 9.9-10.941 9.9l-1.715 4.047-14.548 26.972c-2.057 3.913-.471 8.753 3.503 10.69.057.028.115.053.172.079 1.166.674 2.52 1.06 3.962 1.06h28.63l6.168-14.662-25.475-.103" transform="translate(-56 -141) translate(20 91) translate(36 50)"/>
                        <g transform="translate(-56 -141) translate(20 91) translate(36 50) translate(145.251 90.782)">
                            <mask id="gl5ifzay4d" fill="#fff">
                                <use xlink:href="#7f6urn9xlc"/>
                            </mask>
                            <path fill="#F2B292" d="M0.302 0.32L0.81 0.32 0.81 0.305 0.302 0.305z" mask="url(#gl5ifzay4d)"/>
                        </g>
                        <path fill="#F2B292" d="M146.766 91.123l-.66-.02.66.02" transform="translate(-56 -141) translate(20 91) translate(36 50)"/>
                        <path fill="#BBBAD2" d="M155.475 76.48l-4.51-.053.011-.124c2.065.006 2.815.136 4.499.178" transform="translate(-56 -141) translate(20 91) translate(36 50)"/>
                        <path fill="#F2B292" d="M146.3 91.11s.716-1.988 1.582-4.58c.207-.403.383-.829.522-1.278l1.007-3.502c.265-.881.516-1.745.732-2.55l.821-2.856 4.51.019c.33.003.693.004 1.11.004h.013L146.3 91.11M146.066 91.102L146.061 91.102 146.066 91.102" transform="translate(-56 -141) translate(20 91) translate(36 50)"/>
                        <path fill="#E98772" d="M155.121 49.833c-.037 0-.075-.012-.107-.036-.08-.059-.098-.173-.039-.254 1.828-2.478 4.284-1.139 4.308-1.125.088.05.118.16.07.247-.05.087-.16.118-.248.07-.089-.05-2.203-1.192-3.837 1.024-.036.048-.09.074-.147.074M161.292 38.43c-.755.95-1.458 1.951-2.08 2.991-.31.521-.59 1.058-.826 1.61-.232.547-.419 1.135-.39 1.69l.002.011c.005.1-.072.186-.172.191-.1.006-.185-.071-.191-.171v-.005c-.02-.675.202-1.278.45-1.845.256-.567.554-1.108.879-1.63.653-1.044 1.378-2.033 2.16-2.98.039-.046.107-.053.153-.015s.053.105.016.151l-.001.002M160.029 37.912c-.48.33-.91.767-1.294 1.22-.385.459-.724.956-1.028 1.472-.298.52-.561 1.061-.785 1.618-.12.275-.207.563-.313.844l-.26.862-.003.01c-.029.096-.13.15-.227.121-.095-.029-.15-.13-.12-.226v-.003l.284-.877c.112-.285.208-.577.335-.857.24-.566.52-1.115.836-1.642.322-.524.679-1.027 1.084-1.49.41-.463.845-.895 1.374-1.245.052-.034.122-.02.156.032.034.051.02.12-.03.155l-.01.006M158.05 38.052c-.696.727-1.343 1.513-1.902 2.349-.276.42-.542.848-.75 1.3-.21.45-.383.918-.458 1.395l-.001.004c-.016.1-.108.167-.207.152-.1-.016-.167-.11-.151-.209v-.004c.097-.528.295-1.016.525-1.48.23-.467.512-.9.804-1.32.594-.84 1.264-1.614 1.99-2.339.042-.04.11-.04.15 0 .04.041.041.107.002.149l-.003.003" transform="translate(-56 -141) translate(20 91) translate(36 50)"/>
                        <path fill="#F6E552" d="M217.04 102.976l-7.023-19.144c-.836-4.2-4.832-7.385-9.64-7.385l-19.616-.156-22.102.085v14.733h6.86l-3.54 38.429 48.666.275-.272-26.022 6.667-.815" transform="translate(-56 -141) translate(20 91) translate(36 50)"/>
                        <path fill="#EBDC5B" d="M165.518 91.11h-6.859V76.375l20.741-.08v.238c-7.784.766-13.846 6.823-13.846 14.186l-.036.39" transform="translate(-56 -141) translate(20 91) translate(36 50)"/>
                        <path fill="#CAC4D8" d="M154.105 65.419l2.117-7.365-2.116 7.363-.001.002" transform="translate(-56 -141) translate(20 91) translate(36 50)"/>
                        <path fill="#F2B292" d="M154.102 65.422c-.1 0-1.31-10.287-1.31-10.287l3.42 2.86-.001.001.022.017-.004.016-.001.004v.002l-.002.004c0 .002 0 .004-.002.006v.004l-.001.002-.001.003-2.117 7.365c0 .002-.002.003-.003.003" transform="translate(-56 -141) translate(20 91) translate(36 50)"/>
                        <path fill="#16171B" d="M181.761 108.475l-3.29-16.583c-.169-.85-1.002-1.407-1.851-1.238l-7.174 1.423c-.85.169-1.407 1.002-1.238 1.852l3.29 16.583c.168.85 1.001 1.406 1.851 1.238l4.237-.84 2.937-.584c.85-.168 1.407-1.001 1.238-1.85" transform="translate(-56 -141) translate(20 91) translate(36 50)"/>
                        <path fill="#F4BE99" d="M219.947 117.102l-3.235-14.086-14.709 1.8.808 3.583-.075-.019-15.988-3.958-.014.02c-.441-.222-1.27-.75-2-1.838-1.34-2.004-3.592-2.06-3.592-2.06-.434-.454-.838-.94-1.238-1.43l.374 1.888-.093.05c-1.017.539-2.163.778-3.31.688l-7.03-.549c-.44-.034-.863.2-1.052.598-2.058 4.325 6.777 8.283 8.794 9.12l.07.03.083.033.076.031.065.026.06.024.023.009.03.012 3.458 1.296 27.374 13.474c.255.122.512.228.771.32 1.328.608 2.855.806 4.388.454 4.274-.982 6.943-5.242 5.962-9.516" transform="translate(-56 -141) translate(20 91) translate(36 50)"/>
                        <path fill="#62639D" d="M202.81 108.399l-.074-.019c-.438-1.93-.235-1.319-.566-2.826l.64 2.845" transform="translate(-56 -141) translate(20 91) translate(36 50)"/>
                        <path fill="#F2B292" d="M218.904 112.56c-.067-.022-10.167-3.568-15.018-3.896l-1.15-.284.075.019-.641-2.845c-.045-.201-.098-.441-.165-.73l.014-.001 16.885 7.738" transform="translate(-56 -141) translate(20 91) translate(36 50)"/>
                        <path fill="#3C4A8D" d="M200.638 104.997c-.085 0-.16-.06-.178-.145l-2.112-10.228c-.02-.099.044-.195.141-.215.013-.003.026-.004.039-.004.082 0 .158.06.176.145l2.078 10.064 7.112-.905.025-.002c.088 0 .166.068.178.159.013.1-.058.19-.157.203l-4.023.512-1.914.234.002.01-1.344.17-.023.002" transform="translate(-56 -141) translate(20 91) translate(36 50)"/>
                        <path fill="#A4816D" d="M202.019 105.302L202.003 105.279 203.917 104.581 202.019 105.302" transform="translate(-56 -141) translate(20 91) translate(36 50)"/>
                        <path fill="#A37A69" d="M202.005 104.824l-.002-.009.016.008-.014.001" transform="translate(-56 -141) translate(20 91) translate(36 50)"/>
                        <path fill="#F2B292" d="M219.047 113.288l-.028-.145.028.145" transform="translate(-56 -141) translate(20 91) translate(36 50)"/>
                        <path fill="#FDEAE6" d="M218.906 112.57l-.002-.009.002.01" transform="translate(-56 -141) translate(20 91) translate(36 50)"/>
                        <path fill="#F2B292" d="M218.98 112.949l-.074-.379.075.379" transform="translate(-56 -141) translate(20 91) translate(36 50)"/>
                        <path fill="#F2B292" d="M219.094 113.529c-.03-.158-.066-.336-.103-.524.043.212.077.388.103.524" transform="translate(-56 -141) translate(20 91) translate(36 50)"/>
                        <path fill="#16171B" d="M198.972 38.523c-.447-3.084-3.261-5.278-6.38-4.926-.827.094-1.592.36-2.268.755-1.003-1.642-2.892-2.648-4.93-2.417-1.165.131-2.19.649-2.972 1.406-1.125-.564-2.42-.823-3.763-.671-3.693.417-6.348 3.75-5.93 7.442.195 1.727 1.03 3.225 2.239 4.29l-1.368 7.305c-.392 2.097.99 4.115 3.086 4.508l16.205 3.033c2.097.393 4.115-.989 4.508-3.086l2.655-14.181c.244-1.309-.202-2.587-1.082-3.458" transform="translate(-56 -141) translate(20 91) translate(36 50)"/>
                        <path fill="#FDF1E0" d="M175.354 42.517c-.06 0-.118-.03-.153-.084-2.894-4.58 1.092-7.518 1.133-7.547.081-.06.194-.04.253.042.058.08.04.194-.042.253-.154.111-3.746 2.77-1.037 7.058.053.085.028.197-.056.25-.03.02-.064.028-.098.028" transform="translate(-56 -141) translate(20 91) translate(36 50)"/>
                        <path fill="#F4BE99" d="M196.351 52.844l-.354-.066-3.577-7.689c-.88-.127-1.705-.451-2.42-.935-.687.742-1.63 1.254-2.714 1.377-1.305.148-2.537-.299-3.436-1.12-.997.877-2.26 1.47-3.68 1.631-1.622.184-3.175-.227-4.442-1.058l-2.491 13.31c-.344 1.839.033 3.642.923 5.13.886 2.19 2.79 3.91 5.24 4.475v8.79c0 3.053 2.498 5.551 5.552 5.551h1.75c3.054 0 5.552-2.498 5.552-5.551v-9.98c.9-.99 1.552-2.228 1.816-3.64l.455-2.43.355.067c2.103.393 4.146-1.005 4.54-3.109l.04-.213c.393-2.103-1.006-4.146-3.109-4.54" transform="translate(-56 -141) translate(20 91) translate(36 50)"/>
                        <path fill="#D0B8C9" d="M179.4 67.909c-2.447-.563-4.347-2.286-5.235-4.472.888 2.185 2.79 3.899 5.235 4.462v.01m12.854-1.193v-.008c.9-.989 1.552-2.227 1.816-3.638l.455-2.43-.455 2.43c-.264 1.413-.913 2.656-1.816 3.646" transform="translate(-56 -141) translate(20 91) translate(36 50)"/>
                        <path fill="#EFA88D" d="M186.7 71.171h-1.774c-2.196 0-4.1-1.295-4.998-3.157l-.225-.043c-.102-.018-.203-.04-.303-.062v-.01c-2.445-.563-4.347-2.277-5.235-4.462l-.005-.012c1.046 1.75 2.802 3.063 4.964 3.468l5.654 1.059c.459.085.914.127 1.364.127 3.477 0 6.572-2.473 7.234-6.014l.325-1.734.824.308-.455 2.43c-.264 1.412-.915 2.65-1.816 3.64v.007c-.05.055-.102.11-.154.164-.574 2.45-2.78 4.291-5.4 4.291" transform="translate(-56 -141) translate(20 91) translate(36 50)"/>
                        <path fill="#E98772" d="M196.662 58.057c-.039 0-.078-.012-.111-.038l-1.413-1.096c-.042-.033-.067-.082-.07-.135-.003-.053.018-.104.057-.141l1.742-1.644c.073-.069.189-.066.257.007.069.073.065.188-.008.257l-1.588 1.499 1.246.966c.079.062.093.176.031.255-.035.046-.089.07-.143.07" transform="translate(-56 -141) translate(20 91) translate(36 50)"/>
                        <path fill="#16171B" d="M187.678 51.301c-.273-.008-.554-.173-.835-.317-.28-.151-.564-.296-.815-.414-.252-.117-.546-.242-.842-.359-.29-.122-.599-.232-.777-.434-.174-.192-.14-.495.267-.698.387-.201 1.174-.25 2.009.138.832.39 1.291 1.02 1.376 1.44.095.437-.122.655-.383.644M176.123 50.305c.236.13.56.147.874.18.316.028.634.062.908.101.276.038.59.092.902.153.31.054.63.127.887.066.249-.056.38-.296.142-.648-.221-.34-.863-.767-1.774-.896-.91-.126-1.63.11-1.925.379-.31.275-.24.543-.014.665M185.007 54.405l.024.005c.243.045.479-.116.525-.36l.107-.575c.046-.243-.116-.479-.359-.524l-.024-.005c-.243-.045-.48.117-.525.36l-.107.575c-.046.243.116.479.359.524M177.18 53.133l.024.005c.243.045.48-.117.525-.36l.107-.574c.046-.243-.116-.48-.359-.525l-.024-.004c-.243-.046-.48.115-.525.358l-.107.576c-.046.243.116.479.359.524" transform="translate(-56 -141) translate(20 91) translate(36 50)"/>
                        <path fill="#F2B292" d="M186.999 56.67c-.02 0-.042 0-.062-.003l-1.607-.18c-.304-.035-.526-.312-.491-.616l.003-.03c.032-.285.274-.495.554-.495l.061.003 1.607.181c.304.034.526.311.491.615l-.003.031c-.032.283-.275.494-.553.494M176.4 55c-.02 0-.04 0-.061-.003l-1.607-.18c-.304-.035-.525-.311-.49-.615l.002-.031c.033-.283.275-.495.554-.495.02 0 .04.001.062.004l1.607.18c.304.035.525.312.49.616l-.003.03c-.032.284-.275.495-.553.495" transform="translate(-56 -141) translate(20 91) translate(36 50)"/>
                        <path fill="#E98772" d="M179.415 63.037c-.056 0-.111-.025-.147-.074-.059-.081-.041-.195.04-.254.76-.556 1.613-.244 1.957-.002.082.058.102.17.045.253-.058.081-.17.1-.253.045-.032-.023-.797-.542-1.535-.003-.032.024-.07.035-.107.035" transform="translate(-56 -141) translate(20 91) translate(36 50)"/>
                        <path fill="#FFFFFE" d="M180.643 57.876l4.246-.607-.464 1.475c-.299.945-1.174 1.587-2.164 1.587-.77 0-1.417-.58-1.499-1.347l-.119-1.108" transform="translate(-56 -141) translate(20 91) translate(36 50)"/>
                        <path fill="#E98772" d="M181.74 56.37l-.045-.006-1.317-.342c-.558-.146-1.009-.533-1.236-1.064-.227-.53-.197-1.124.083-1.628l2.006-3.61c.049-.088.16-.118.246-.07.088.049.12.16.071.247l-2.005 3.61c-.225.405-.25.882-.067 1.308.183.427.545.739.994.855l1.316.343c.098.025.156.124.13.221-.02.082-.094.136-.175.136" transform="translate(-56 -141) translate(20 91) translate(36 50)"/>
                        <path fill="#F4BE99" d="M120.074 82.478l-14.547-26.972-1.715-4.047s-6.044-14.019-10.942-9.9l.02.104c-.166-.202-.364-.363-.581-.464-.343-.157-.723-.177-1.057-.021-.668.313-.911 1.218-.54 2.01l4.182 8.93c-.225-.332-.965-.83-1.183-1.011-.457-.383-.945-.73-1.492-.975-.932-.418-2.053-.287-2.663.617-.104.155-.19.342-.15.525.037.164.165.29.289.404 1.181 1.094 2.486 2.05 3.643 3.17 0 0 .259 2.504 2.426 4.016 1.254.875 1.867 1.867 2.103 2.33l-.022.017 5.269 18.332-7.695.102v14.662h17.018c1.445 0 2.799-.388 3.966-1.063.056-.025.113-.049.169-.076 3.974-1.937 5.559-6.776 3.502-10.69" transform="translate(-56 -141) translate(20 91) translate(36 50)"/>
                        <path fill="#BBBAD2" d="M99.37 79.592c1.18-.033 1.921-.09 3.732-.091l.012.042-3.744.05" transform="translate(-56 -141) translate(20 91) translate(36 50)"/>
                        <path fill="#F2B292" d="M107.777 94.307l-10.272-14.69h.008c.775 0 1.355-.01 1.857-.025l3.744-.05-.012-.041h.041c.68 4.167 4.634 14.806 4.634 14.806m.104-.003l.043-.001-.043.001m.132-.004l.04-.001-.04.001m.059-.002l.052-.001-.052.001m.057-.002l.398-.012-.398.012" transform="translate(-56 -141) translate(20 91) translate(36 50)"/>
                        <path fill="#E98772" d="M98.957 53.03c-.056 0-.11-.025-.146-.073-1.634-2.216-3.75-1.074-3.838-1.025-.088.05-.198.018-.247-.07-.05-.087-.018-.197.07-.246.024-.014 2.48-1.352 4.307 1.125.06.08.042.195-.039.254-.032.024-.07.036-.107.036M92.946 41.482c.44.44.841.907 1.223 1.394.38.488.735.996 1.052 1.528.313.536.592 1.094.814 1.68.21.589.359 1.204.409 1.839.008.1-.068.188-.167.195-.1.008-.188-.067-.195-.167v-.002l-.001-.008c-.035-.591-.163-1.178-.353-1.748-.202-.566-.462-1.114-.757-1.643-.3-.527-.64-1.033-1.003-1.52-.365-.486-.755-.959-1.174-1.394l-.002-.003c-.042-.043-.04-.111.003-.153.042-.04.11-.04.151.002M94.174 40.783c.592.306 1.026.762 1.432 1.241.399.485.746 1.008 1.044 1.556.308.543.562 1.113.804 1.687l.33.872.294.886c.031.095-.02.198-.115.23-.096.03-.198-.02-.23-.116v-.002l-.003-.008-.272-.877-.31-.864c-.226-.567-.466-1.131-.757-1.667-.281-.541-.61-1.057-.987-1.532-.374-.467-.814-.926-1.318-1.198l-.017-.01c-.055-.029-.075-.097-.046-.152.03-.053.097-.074.15-.046M96.169 41.09c.407.33.768.694 1.108 1.082.34.387.654.798.933 1.232.282.432.537.884.748 1.357.223.468.386.961.535 1.458.03.097-.025.198-.121.227-.096.028-.198-.026-.227-.122v-.003l-.003-.01c-.132-.48-.277-.961-.482-1.419-.193-.462-.429-.907-.692-1.334-.262-.43-.557-.838-.88-1.224-.322-.386-.672-.756-1.05-1.076l-.004-.004c-.045-.038-.05-.105-.013-.15.038-.043.103-.05.148-.013" transform="translate(-56 -141) translate(20 91) translate(36 50)"/>
                        <path fill="#CAC4D8" d="M98.273 61.32c-.177-.259-.359-.492-.545-.69.243.226.416.42.531.564l-.035.017.049.11" transform="translate(-56 -141) translate(20 91) translate(36 50)"/>
                        <path fill="#F2B292" d="M99.335 66.395s-.643-3.194-1.46-5.075l-.03-.109.022-.017c-.073-.143-.183-.338-.336-.564-.112-.187-.225-.341-.339-.453l-.002-.002 5.621-.694-3.476 6.914" transform="translate(-56 -141) translate(20 91) translate(36 50)"/>
                        <path fill="#FFFFFE" d="M74.6 79.645v.007c-.087-.002-.172-.007-.26-.007H56.577c-3.857 0-7.146 2.422-8.435 5.827l-.002-.001-.027.074-7.568 20.629 7.014.857v22.87h38.169l2.854-35.594h6.64V79.573l-20.623.072" transform="translate(-56 -141) translate(20 91) translate(36 50)"/>
                        <path fill="#AABBD6" d="M95.419 94.307L88.779 94.307 95.222 94.307 95.222 79.574 95.419 79.573 95.419 94.307" transform="translate(-56 -141) translate(20 91) translate(36 50)"/>
                        <path fill="#F5F5F3" d="M95.222 94.307h-6.443l.031-.389c0-7.68-6.067-13.94-13.67-14.257v-.003l20.082-.084v14.733" transform="translate(-56 -141) translate(20 91) translate(36 50)"/>
                        <path fill="#16171B" d="M88.336 95.275l-7.174-1.423c-.849-.169-1.682.389-1.85 1.238l-3.29 16.583c-.17.85.388 1.683 1.237 1.851l2.937.583 4.237.84c.85.17 1.683-.388 1.851-1.238l3.29-16.583c.169-.849-.388-1.682-1.238-1.85" transform="translate(-56 -141) translate(20 91) translate(36 50)"/>
                        <path fill="#F4BE99" d="M89.088 104.914c-.09-.188-.231-.337-.401-.441-.031-.045-.056-.09-.089-.136l-.171.022c-.125-.037-.257-.054-.39-.043l-7.031.548c-1.147.09-2.294-.149-3.31-.687l-.17-.09.352-1.774c-.38.465-.764.924-1.173 1.358-.208.012-1.391.117-2.498.942-.41.29-.815.674-1.16 1.188-.431.646-.898 1.092-1.299 1.396-.235.17-.443.29-.601.369l-.014-.02-15.99 3.959-.073.018.811-3.6-14.712-1.783-3.235 14.087c-.981 4.274 1.688 8.534 5.961 9.516 1.533.351 3.061.154 4.388-.454.26-.092.517-.199.771-.32l27.065-13.322 3.669-1.376s.149-.056.408-.164l-.054-.01c1.674-.683 11.06-4.74 8.946-9.183" transform="translate(-56 -141) translate(20 91) translate(36 50)"/>
                        <path fill="#CAC5D8" d="M38.737 116.764c.01-.056.032-.164.066-.334l-.066.334M38.878 115.759l.092-.042-.004.016-.088.026" transform="translate(-56 -141) translate(20 91) translate(36 50)"/>
                        <path fill="#F2B292" d="M38.966 115.733l.004-.016 16.787-7.71.022.003c-.498 2.174-.404 2.047-.734 3.568l-11.521 2.852c-.226.06-.444.133-.659.211-2.001.531-3.526.98-3.899 1.092" transform="translate(-56 -141) translate(20 91) translate(36 50)"/>
                        <path fill="#CAC5D8" d="M38.766 116.328l.04-.207-.04.207M38.807 116.12l.071-.361-.071.362" transform="translate(-56 -141) translate(20 91) translate(36 50)"/>
                        <path fill="#A8A8A8" d="M57.144 108.177l-.022-.001-1.263-.156.022-.097-2.115-.256c-.011-.028-.015-.058-.011-.09.01-.091.09-.159.179-.159.007 0 .015 0 .023.002l3.035.374 1.69-10.783c.014-.09.092-.153.18-.153.01 0 .019 0 .028.002.098.015.166.108.15.207l-1.716 10.957c-.014.09-.091.153-.18.153" transform="translate(-56 -141) translate(20 91) translate(36 50)"/>
                        <path fill="#A4816D" d="M55.86 108.02l-.08-.01.003-.014-.026.011-1.844-.227c-.069-.008-.124-.054-.147-.113l2.115.256-.022.097" transform="translate(-56 -141) translate(20 91) translate(36 50)"/>
                        <path fill="#A37A69" d="M55.78 108.01l-.023-.003.026-.011-.004.014" transform="translate(-56 -141) translate(20 91) translate(36 50)"/>
                        <path fill="#FFF7F5" d="M60.894 110.069L64.384 109.217 60.947 110.068 60.894 110.069" transform="translate(-56 -141) translate(20 91) translate(36 50)"/>
                        <path fill="#F3B795" d="M60.947 110.068l3.437-.85 7.01-1.712c.234 1.252-1.63 2.4-2.978 2.4-.095 0-.187-.007-.276-.018l-7.193.18" transform="translate(-56 -141) translate(20 91) translate(36 50)"/>
                        <path fill="#16171B" d="M83.755 75.007l-2.464-16.773c-.27-1.838-.804-3.57-1.553-5.17l1.338-.215s-.94-13.614-16.208-10.363c-1.504-.156-3.05-.13-4.615.1-7.418 1.09-12.548 7.987-11.458 15.404l1.437 9.777c1.09 7.418 7.986 12.548 15.404 11.458l16.82-2.472c.841-.123 1.423-.905 1.3-1.746" transform="translate(-56 -141) translate(20 91) translate(36 50)"/>
                        <path fill="#FDF1E0" d="M73.626 52.315c-.09 0-.167-.066-.18-.157-.013-.1.056-.19.156-.204l4.91-.671c.039-.005.075-.027.098-.06.013-.017.033-.055.025-.103-.794-4.426-4.87-6.468-4.912-6.488-.09-.043-.127-.152-.083-.242s.153-.128.242-.084c.043.021 4.283 2.139 5.11 6.75.024.134-.007.27-.088.381-.082.112-.206.187-.343.206l-4.91.67-.025.002" transform="translate(-56 -141) translate(20 91) translate(36 50)"/>
                        <path fill="#F4BE99" d="M78.356 53.286l-13.44 2.16-3.262-4.825c.64 5.383-3.329 8.86-3.329 8.86l-.11-.158-.112.02c-2.104.395-3.502 2.438-3.109 4.54.394 2.104 2.437 3.503 4.54 3.11l.257-.049c.46 2.017 1.496 3.764 2.909 5.09v8.615c0 3.053 2.498 5.551 5.551 5.551 3.054 0 5.552-2.498 5.552-5.551v-6.803c2.211-1.018 3.942-2.795 4.93-4.945l.007-.01c1.201-2.012 1.704-4.452 1.239-6.937l-1.623-8.668" transform="translate(-56 -141) translate(20 91) translate(36 50)"/>
                        <path fill="#563939" d="M62.7 72.035c-1.397-1.31-2.432-3.029-2.9-5.015-.001-.006 0-.011.005-.017.466 1.992 1.495 3.718 2.895 5.032m14.686-.97c.537-.66.99-1.386 1.346-2.16l.008-.013c-.358.779-.813 1.51-1.354 2.172" transform="translate(-56 -141) translate(20 91) translate(36 50)"/>
                        <path fill="#EFA88D" d="M68.251 77.1c-2.88 0-5.265-2.225-5.525-5.04l-.026-.025c-1.4-1.314-2.43-3.04-2.895-5.032.05-.072.474-.182.722-.182.095 0 .165.016.178.057 1.334 4.11 5.185 6.879 9.466 6.878.608 0 1.225-.055 1.845-.172 2.92-.547 5.301-2.316 6.716-4.68-.356.775-.809 1.5-1.346 2.16-1.092 1.34-2.533 2.406-4.217 3.045-.93 1.773-2.787 2.99-4.918 2.99" transform="translate(-56 -141) translate(20 91) translate(36 50)"/>
                        <path fill="#E98772" d="M57.696 64.44c-.054 0-.107-.024-.143-.07-.062-.08-.048-.193.032-.255l1.207-.937-1.541-1.454c-.073-.069-.076-.184-.007-.257.069-.073.183-.076.256-.007l1.695 1.6c.039.036.06.088.057.14-.003.053-.028.103-.07.135l-1.374 1.067c-.034.026-.073.038-.112.038" transform="translate(-56 -141) translate(20 91) translate(36 50)"/>
                        <path fill="#16171B" d="M67.367 57.82c.161-.004.328-.103.495-.188.165-.09.334-.176.484-.245.15-.07.324-.144.5-.214.172-.072.355-.137.46-.257.104-.114.083-.294-.158-.415-.23-.12-.697-.147-1.192.082-.494.232-.767.605-.818.856-.056.258.073.387.229.381M77 56.145c-.158.04-.345-.008-.529-.044-.184-.04-.37-.076-.533-.102-.163-.026-.351-.049-.539-.067-.186-.022-.38-.034-.515-.12-.13-.081-.16-.26.038-.442.187-.178.63-.335 1.169-.251.539.086.904.37 1.022.596.126.233.037.393-.114.43" transform="translate(-56 -141) translate(20 91) translate(36 50)"/>
                        <path fill="#E98772" d="M71.557 65.333c-1.49 0-2.483-1.169-2.496-1.184-.064-.077-.053-.191.024-.255s.191-.054.255.023c.058.069 1.436 1.678 3.36.79.092-.043.2-.003.242.088.042.091.002.2-.089.241-.461.213-.897.297-1.296.297M72.641 62.799c-.085 0-.16-.06-.178-.147-.02-.098.045-.194.143-.213l1.277-.251c.794-.157 1.312-.929 1.156-1.722-.056-.287-.335-.474-.622-.418-.671.131-1.324-.306-1.456-.977l-.308-1.567c-.02-.098.044-.194.143-.213.098-.02.194.045.213.143L73.317 59c.093.475.556.785 1.03.691.235-.045.472.003.67.135.198.133.333.335.379.57.194.99-.452 1.953-1.443 2.148l-1.276.251-.036.004" transform="translate(-56 -141) translate(20 91) translate(36 50)"/>
                        <path fill="#16171B" d="M69.024 60.884c-.243.046-.48-.116-.525-.359l-.1-.535c-.045-.243.116-.48.359-.525.243-.045.479.116.524.359l.101.536c.045.243-.116.479-.36.524M76.639 59.647c-.243.046-.48-.116-.525-.359l-.1-.536c-.046-.243.116-.479.359-.524.243-.046.479.116.524.359l.1.535c.046.243-.116.48-.358.525" transform="translate(-56 -141) translate(20 91) translate(36 50)"/>
                        <path fill="#F2B292" d="M67.111 63.084c-.279 0-.521-.21-.553-.494-.034-.304.187-.581.49-.615l1.534-.173.062-.003c.28 0 .521.21.553.494.035.304-.186.58-.49.615l-1.534.173c-.02.002-.041.003-.062.003M77.422 61.46c-.28 0-.522-.211-.554-.494-.034-.304.187-.581.491-.615l1.534-.173c.02-.002.041-.003.062-.003.278 0 .52.21.552.494.035.304-.186.581-.49.615l-1.533.173-.062.003" transform="translate(-56 -141) translate(20 91) translate(36 50)"/>
                        <path fill="#E98772" d="M74.475 69.285c-.037 0-.074-.011-.106-.035-.715-.522-1.457-.02-1.488.002-.082.058-.195.037-.252-.044-.058-.082-.038-.195.044-.253.336-.237 1.168-.54 1.91.002.08.06.098.173.04.254-.036.048-.091.074-.148.074" transform="translate(-56 -141) translate(20 91) translate(36 50)"/>
                    </g>
                    <path fill="#212121" fill-rule="nonzero" d="M127.55 24.745c.19 0 .344-.157.344-.35v-1.168c0-.193-.154-.35-.343-.35h-8.465c-.19 0-.343.157-.343.35v1.306c0 .193.154.35.343.35h2.439c.78 0 1.38.29 1.743.795h-4.182c-.19 0-.343.157-.343.35v1.168c0 .193.154.35.343.35h4.54c-.178 1.053-.943 1.71-2.138 1.71h-2.402c-.19 0-.343.158-.343.35v1.548c0 .098.04.19.11.257l4.72 4.446c.064.06.147.093.233.093h2.361c.312 0 .462-.392.233-.608l-4.315-4.064c2.188-.068 3.75-1.558 3.955-3.732h1.51c.19 0 .344-.157.344-.35v-1.167c0-.194-.154-.35-.343-.35h-1.679c-.1-.337-.236-.65-.407-.934h2.086zM103.412 16.081c.084 0 .152-.07.152-.155v-.519c0-.086-.068-.156-.152-.156H99.65c-.085 0-.153.07-.153.156v.58c0 .086.068.156.153.156h1.084c.347 0 .613.13.774.353H99.65c-.085 0-.153.07-.153.156v.519c0 .086.068.155.153.155h2.017c-.079.468-.418.76-.95.76H99.65c-.085 0-.153.07-.153.156v.688c0 .043.018.085.05.114l2.097 1.976c.028.027.065.041.103.041h1.05c.139 0 .205-.173.103-.27l-1.917-1.806c.972-.03 1.666-.692 1.758-1.659h.67c.085 0 .153-.07.153-.155v-.519c0-.086-.068-.156-.152-.156h-.746c-.044-.15-.105-.288-.181-.415h.927z" transform="translate(-56 -141) translate(20 91) translate(36 50)"/>
                </g>
            </g>
        </g>
    </g>
</svg>
