<svg xmlns="http://www.w3.org/2000/svg" width="14" height="14" viewBox="0 0 14 14">
    <g fill="none" fill-rule="evenodd">
        <g fill="#424242" fill-rule="nonzero">
            <g>
                <g>
                    <path d="M7.481 3.962L6.524 5.478 8.004 8.016 8.938 6.459z" transform="translate(-20 -401) translate(15 396) translate(5 5)"/>
                    <path d="M11.997 0H1.999C.895 0 0 .895 0 2v9.997c0 1.104.895 2 2 2h9.997c1.104 0 2-.896 2-2V1.999c0-1.104-.896-1.999-2-1.999zm.95 6.222l-1.5 2.999c-.082.164-.248.27-.432.276-.185.008-.358-.089-.45-.25L9.513 7.444l-1.086 1.81c-.09.151-.253.243-.428.243h-.003c-.177-.001-.34-.096-.43-.25L5.923 6.43 1.923 12.76c-.147.234-.456.304-.69.156-.233-.147-.303-.456-.156-.69l4.278-6.772-.862-1.474-2.565 4.274c-.138.24-.444.321-.683.184-.239-.138-.321-.444-.183-.683l.01-.016L4.07 2.742c.09-.15.253-.243.429-.243h.003c.177.002.34.097.429.25l1.025 1.758 1.119-1.773c.147-.233.456-.303.69-.156.068.043.124.102.165.171l1.594 2.734 2.544-4.239c.147-.234.455-.305.689-.158.228.142.302.44.168.673l-2.828 4.708.866 1.48 1.086-2.172c.124-.247.424-.347.671-.224.247.124.347.424.224.671h.002z" transform="translate(-20 -401) translate(15 396) translate(5 5)"/>
                </g>
            </g>
        </g>
    </g>
</svg>
