<svg xmlns="http://www.w3.org/2000/svg" width="179" height="150" viewBox="0 0 179 150">
    <g fill="none" fill-rule="evenodd">
        <g>
            <g>
                <g fill="#ECF6FF">
                    <path d="M11.222 110.923S-11.143 84.503 7.44 55.9C23.927 30.52 43.15 32.255 57.254 42.554c6.008 4.386 23.326.54 38.067-25.284 20.102-35.217 89.783-13.858 77.077 40.325-6.148 26.221 6.634 35.704 5.4 52.165-3.287 13.978-24.599 28.235-50.37 8.204-16.495-12.821-40.828 16.331-76.076 16.06-11.375-.004-22.892-5.776-34.55-17.315" transform="translate(-90 -152) translate(90 152) translate(.845 14.582)"/>
                </g>
                <path fill="#A8D29F" d="M103.322 41.442l-.011.19-.062-.184c-.333-.997-1.961-5.918-3.444-11.398-2.05-7.581-3.819-16.23-1.49-17.03 4.41-1.515 5.223 10.597 5.235 19.536.007 4.403-.18 8.035-.228 8.886" transform="translate(-90 -152) translate(90 152)"/>
                <path fill="#A8D29F" d="M107.527 31.527c-1.579 3.462-2.95 6.374-3.736 8.118-.342.761-.574 1.299-.663 1.564l.577-3.233v-.002c.441-2.465 1.083-6.026 1.786-9.893 1.708-9.398 3.786-20.597 4.271-22.198.857-2.824 4.802-8.836 7.457-3.605 1.725 3.4-4.932 18.815-9.692 29.249M107.894 36.727c-1.602 1.697-2.948 3.073-3.7 3.833-.41.417-.644.649-.644.649s.41-.878 1.109-2.279c.66-1.324 1.576-3.115 2.648-5.075 3.512-6.424 8.682-14.658 11.889-14.182 3.658.542-5.498 10.904-11.302 17.054" transform="translate(-90 -152) translate(90 152)"/>
                <path fill="#82B378" d="M103.319 41.626l-.074.005c-.34-.998-1.993-5.925-3.499-11.411.703 1.006 1.972 2.354 3.804 2.508.007 4.41-.183 8.045-.231 8.898M107.354 31.507c-1.571 3.416-2.935 6.29-3.718 8.011-.06-.48-.086-1.038-.086-1.647v-.002c.44-2.433 1.078-5.947 1.778-9.762.273 1.332.843 2.808 2.026 3.4M107.777 36.498c-1.647 1.711-3.03 3.099-3.804 3.865.075-.44.249-1.012.478-1.644.678-1.335 1.62-3.141 2.723-5.118.025.829.145 2.063.603 2.897" transform="translate(-90 -152) translate(90 152)"/>
                <path fill="#A8D29F" d="M103.182 41.54l-.053.183c-.025-.008-.008-.07.053-.183" transform="translate(-90 -152) translate(90 152)"/>
                <path fill="#ED7D2B" d="M105.438 53.59c-2.713 7.624-6.09 15.937-6.09 15.937l-7.632-2.269s.893-5.647 2.205-11.93c1.53-7.326 2.403-14.718 5.54-16.641.864-.53 1.797-.775 2.709-.841.46-.035.919-.02 1.366.04.107.013.211.03.317.048.265.047.525.108.78.183.099.028.197.059.294.093.338.114.665.25.976.407 1.321.667 2.385 1.67 2.802 2.753 1.254 3.258-1.216 6.46-3.267 12.22" transform="translate(-90 -152) translate(90 152)"/>
                <path fill="#FFB93E" d="M101.866 62.899c-1.99 6.028-2.58 12.643-1.764 19.701.137 1.177.793 2.2 1.741 2.826.425.28.908.483 1.43.584 1.168-.006 3.474-2.128 4.792-4.836.362-.745.651-1.534.82-2.336 1.322-6.265 3.77-13.808 6.806-17.663 3.105-3.943 7.288-8.656 13.04-11.897h.001c.555-.318 13.604-9.811 13.604-9.811 1.299-1.371-.24-2.907-.24-2.907s-1.239 1.085-5.02 3.26c-3.78 2.174-10.419-.374-10.421-.374-1.86-.84-4.068-.755-5.896.353-2.82 1.71-6.576 4.408-10.138 8.29-4.007 4.37-6.953 9.352-8.755 14.81" transform="translate(-90 -152) translate(90 152)"/>
                <path fill="#FFA412" d="M108.646 79.028c1.32-6.257 3.766-13.792 6.8-17.643 3.101-3.938 7.28-8.645 13.025-11.882l.002-.001c.1-.073 3.986-2.936-.321-5.528-4.216-2.537-21.424 16.362-20.325 37.387.362-.744.65-1.532.82-2.333" transform="translate(-90 -152) translate(90 152)"/>
                <path fill="#A8D29F" d="M92.933 54.422c-.553.852-1.23 1.676-2.03 2.45-3.03 2.929-7.788 5.102-13.912 5.046 0 0-2.571-2.406-3.818-5.467h.001c-.864-2.124-1.495-5.25-.001-7.57.963-1.495 2.202-2.203 3.458-2.576 2.133-.637 4.314-.309 5.267-1.24.94-.92 2.277-1.714 3.746-2.17.24-.076.484-.143.73-.197h.001c.102-.024.204-.046.307-.066h.007c2.264-.435 4.682-.01 6.365 1.972.39.459.744 1.014 1.045 1.681 1.078 2.377.615 5.392-1.166 8.137" transform="translate(-90 -152) translate(90 152)"/>
                <path fill="#D1F2C9" d="M75.027 48.48s-1.975 1.508-1.37 3.177c.606 1.668 2.167.897 2.655-.258.489-1.156.014-3.48-1.285-2.92" transform="translate(-90 -152) translate(90 152)"/>
                <path fill="#95C38B" d="M92.884 44.59c.388.467.74 1.032 1.04 1.71 1.07 2.417 2.541 8.828.771 11.619l-2.375 2.18c-3.012 2.979-9.317 2.152-15.405 2.094 0 0-2.556-2.445-3.796-5.557l.002-.001s7.53 2.99 14.624-3.253c3.222-2.836 4.597-6.087 5.139-8.792" transform="translate(-90 -152) translate(90 152)"/>
                <path fill="#A8D29F" d="M81.572 41.45c-1.213-.75-2.44.304-3.864.882-1.425.58-4.166.567-4.166.567s1.128-1.684 2.976-3.358c1.848-1.674 5.054 1.91 5.054 1.91" transform="translate(-90 -152) translate(90 152)"/>
                <path fill="#82B378" d="M81.572 41.45c-1.14-.97-3.247-1.527-4.276-1.09-1.028.437-3.754 2.54-3.754 2.54s1.128-1.685 2.976-3.36c1.848-1.673 5.054 1.91 5.054 1.91" transform="translate(-90 -152) translate(90 152)"/>
                <path fill="#95C38B" d="M81.687 45.133c.926-.946 2.243-1.763 3.69-2.234-2.46.947-3.817 4.145-4.75 3.775-1-.399-4.012-.269-4.127-.263 2.101-.656 4.249-.318 5.187-1.278M86.644 42.445c-.108.036-.248.072-.423.108.141-.04.281-.075.423-.108" transform="translate(-90 -152) translate(90 152)"/>
                <path fill="#82B378" d="M81.137 46.61c-.741-1.76-.34-3.944.126-5.466.371-1.212 1.083-2.847 1.432-3.625.074-.164.295-.148.349.026l.141.459c.14.46.09.962-.144 1.377-.716 1.273-2.153 4.25-1.506 6.7.073.275-.267.845-.398.53" transform="translate(-90 -152) translate(90 152)"/>
                <path fill="#2B478B" d="M97.463 54.311l-.253-.094c1.117-1.546 2.85-2.606 4.213-3.096 1.194-.43 2.15-.57 2.492-.612.083-.01.166.02.22.079l.211.23c.105.112.033.294-.126.315-1.22.162-5.07.843-6.757 3.178" transform="translate(-90 -152) translate(90 152)"/>
                <path fill="#699DEE" d="M92.879 54.86c1.228-3.055 2.958-2.366 5.092-1.516 2.133.85 3.863 1.538 2.634 4.593-.881 2.189-3.325 3.274-5.458 2.424-2.134-.85-3.15-3.313-2.268-5.502" transform="translate(-90 -152) translate(90 152)"/>
                <path fill="#92BEFF" d="M94.261 54.06c.072-.529.898-1.084 1.412-1.01.513.074.751.663.68 1.19-.072.529-.779.982-1.293.908-.512-.073-.87-.561-.799-1.089" transform="translate(-90 -152) translate(90 152)"/>
                <path fill="#FCECDB" d="M122.9 55.579l6.757 47.92c.838 5.943-3.798 11.252-9.826 11.252h-10.18c-5.141 0-9.143-4.445-8.584-9.533l5.718-44.576L122.9 55.58" transform="translate(-90 -152) translate(90 152)"/>
                <path fill="#FCECDB" d="M87.755 55.579s16.263 5.545 35.237 0l-5.59 59.172H81.995l5.76-59.172" transform="translate(-90 -152) translate(90 152)"/>
                <path fill="#EFCBAB" d="M87.82 55.579l6.756 47.92c.839 5.943-3.797 11.252-9.825 11.252H74.57c-5.142 0-9.144-4.444-8.585-9.532l4.84-49.64s2.385.462 8.186.462c5.744 0 8.807-.462 8.807-.462" transform="translate(-90 -152) translate(90 152)"/>
                <path fill="#ED7D2B" d="M117.92 61.08c0-.704-.564-1.274-1.26-1.274-.696 0-1.26.57-1.26 1.273 0 .47.252.88.628 1.101.535 4.289-.309 7.794-2.413 9.941-1.913 1.952-4.815 2.675-8.39 2.092-3.145-.513-5.214-4.029-6.396-6.888-.85-2.057-1.376-4.082-1.646-5.284.267-.234.435-.577.435-.962 0-.703-.564-1.273-1.26-1.273-.696 0-1.26.57-1.26 1.273 0 .475.256.888.637 1.107.678 3.143 3.187 12.474 9.26 13.465.884.144 1.733.215 2.545.215 2.912 0 5.336-.922 7.099-2.72 2.412-2.462 3.4-6.37 2.826-11.086.278-.234.456-.586.456-.98M139.164 73.546c.853.282 1.776.477 2.753.569 3.702.35 8.149-.775 12.266-4.19 0 0 .389-3.075-.488-5.873h-.001c-.61-1.94-1.94-4.443-4.258-5.219-1.493-.5-2.73-.304-3.791.13-1.804.738-3.097 2.166-4.267 2.048-1.154-.115-2.507.075-3.76.57-.205.08-.407.169-.605.267-.084.04-.164.081-.245.124l-.005.003c-1.779.95-3.178 2.576-3.204 4.87-.006.53.066 1.109.238 1.734.606 2.233 2.616 4.056 5.367 4.967" transform="translate(-90 -152) translate(90 152)"/>
                <path fill="#FFB583" d="M148.053 59.806s2.187-.04 2.722 1.444c.535 1.484-.955 1.806-1.939 1.275-.984-.532-1.977-2.396-.783-2.72" transform="translate(-90 -152) translate(90 152)"/>
                <path fill="#EA6C2D" d="M133.56 67.225c-.007.527.066 1.102.237 1.723.606 2.216 3.15 7.339 5.901 8.242 0 0 5.457 2.484 8.576 1.329 3.483-1.29 5.627-4.018 5.909-8.236 0 0 .389-3.052-.488-5.828h-.001s-3.479 6.156-11.768 5.858c-3.766-.136-6.501-1.566-8.367-3.088" transform="translate(-90 -152) translate(90 152)"/>
                <path fill="#A8D29F" d="M139.899 58.538c.431-1.213 1.852-1.203 3.15-1.63 1.3-.429 3.19-2.02 3.19-2.02s-1.695-.5-3.882-.576c-2.186-.076-2.458 4.226-2.458 4.226" transform="translate(-90 -152) translate(90 152)"/>
                <path fill="#82B378" d="M139.899 58.538c.26-1.322 1.416-2.92 2.364-3.217.949-.295 3.975-.434 3.975-.434s-1.694-.5-3.88-.575c-2.187-.076-2.46 4.226-2.46 4.226" transform="translate(-90 -152) translate(90 152)"/>
                <path fill="#EA6C2D" d="M141.546 61.287c-1.154-.108-2.508.07-3.76.53 2.21-.692 4.892.593 5.332-.123.471-.77 2.615-2.255 2.698-2.311-1.805.685-3.099 2.013-4.27 1.904" transform="translate(-90 -152) translate(90 152)"/>
                <path fill="#95C38B" d="M136.517 61.98c.114-.028.254-.069.423-.123-.143.04-.283.08-.423.124" transform="translate(-90 -152) translate(90 152)"/>
                <path fill="#82B378" d="M142.85 61.766c-.427-1.66-1.908-2.924-3.074-3.692-.929-.61-2.334-1.308-3.01-1.632-.142-.069-.293.077-.237.228l.149.402c.15.402.46.717.855.862 1.21.445 3.87 1.628 4.74 3.707.098.234.654.422.577.125" transform="translate(-90 -152) translate(90 152)"/>
                <path fill="#233862" d="M133.49 110.524s-1.657 1.246-4.197.588c0 0-2.048-.469-2.497.556 0 0 3.14 1.6 3.936 2.038.599.33 1.224.851 1.666 1.254.35.318.894.275 1.192-.093.138-.17.296-.373.47-.609.484-.657 1.612-2.784 1.612-2.784l-2.182-.95" transform="translate(-90 -152) translate(90 152)"/>
                <path fill="#2B478B" d="M132.713 109.858s1.002 2.306 3.314 1.882c0 0 4.718-3.89 7.954-7.93 1.05-1.313 1.946-2.642 2.471-3.857 2.146-4.96 7.938-12.36 11.62-16.11l-9.212-3.327s-2.952 5.926-6.878 13.207c-2.83 5.246-6.165 11.194-9.269 16.135" transform="translate(-90 -152) translate(90 152)"/>
                <path fill="#233862" d="M142.012 93.696l1.995 10.066c1.049-1.31 1.942-2.636 2.467-3.85 2.142-4.95 7.923-12.333 11.599-16.076l-9.196-3.32s-2.946 5.914-6.865 13.18M149.247 111.94s.101 1.811-2.145 2.053c0 0-1.283.007-1.286 1.16l6.525.02s.19-.465.236-1.461c.036-.766-.758-2.765-.758-2.765l-2.572.992" transform="translate(-90 -152) translate(90 152)"/>
                <path fill="#2B478B" d="M151.603 80.503s-4.131 4.519-6.753 12.661c-1.427 4.43 2.615 15.568 3.402 19.438 0 0 2.712.23 4.565-.484 0 0 .141-7.993-.944-14.154-.606-3.447 5.44-7.373 8.08-13.603 1.797-4.238-.389-4.166-3.075-4.268l-5.275.41" transform="translate(-90 -152) translate(90 152)"/>
                <path fill="#FFB07B" d="M156.382 60.456c2.357 1.326 7.185.104 7.185.104s-1.96-2.232-1.07-5.826l-3.84 1.942s-.128.634-.217 1.774c-.023.294-.043.622-.058.98-1.21.366-2 1.026-2 1.026" transform="translate(-90 -152) translate(90 152)"/>
                <path fill="#2A4E96" d="M147.929 80.098c0 .404.47.597.57.617.935.17 3.549 1.177 5.904 1.408 1.981.206 3.822.011 5.844-.392.268-.053.896-.22.94-.475.057-.278 7.8-15.649 1.78-22.251-.14-.155-1.33.124-2.415.38-1.004.235-1.925.104-2.747-.223l-1.019.532c-1.251.69-3.619 3.147-3.896 5.074-.14.98-.706 1.706-.87 2.568-.06.32-.123.63-.186.934-.123.596-.25 1.162-.381 1.7-.354 1.458-.728 2.713-1.095 3.797-.39 1.15-.774 2.109-1.115 2.91-.445 1.037-.82 1.814-1.053 2.408-.166.418-.261.746-.261 1.013" transform="translate(-90 -152) translate(90 152)"/>
                <path fill="#1E3D70" d="M148.352 79.248c10.674-5.066 14.37-14.793 14.37-14.793s-8.672 3.222-10.811 4.061c-.121.591-.245 1.153-.373 1.688-.345 1.446-.71 2.692-1.069 3.767-.381 1.142-.755 2.092-1.089 2.887-.434 1.03-.8 1.8-1.028 2.39" transform="translate(-90 -152) translate(90 152)"/>
                <path fill="#FFB07B" d="M140.79 76.447s-1.457-.588-1.791-.541c-.334.047-1.26-.181-1.208.117.036.206 1.231.424 1.231.424s-1.334-.296-1.231.011c.07.212.354 1.054.796 1.33.528.328 1.484.17 2.604.01 2.057-.293-.401-1.351-.401-1.351" transform="translate(-90 -152) translate(90 152)"/>
                <path fill="#2A4E96" d="M141.249 77.467l-.505-1.294s7.079-5.684 7.8-6.171c.491-.333 5.385-3.936 7.77-6.744 1.184-1.393 3.05-2.03 4.854-1.657l1.486.307c1.795.37 2.377 2.608.985 3.784-3.92 3.31-10.532 7.15-11.764 7.95-3.06 1.982-9.83 4.76-9.83 4.76s-.524-.236-.796-.935" transform="translate(-90 -152) translate(90 152)"/>
                <path fill="#EA8E50" d="M158.495 58.11c2.305.117 3.804-1.618 3.804-1.618s-1.042-.526-1.61-.913l-1.977.915s-.128.578-.217 1.615" transform="translate(-90 -152) translate(90 152)"/>
                <path fill="#FFB07B" d="M157.43 56.115s3.509 2.39 5.043.293c1.534-2.097 3.02-3.201.845-4.816-2.174-1.614-3.2-1.104-3.891-.523-.692.582-2.869 4.37-1.996 5.046" transform="translate(-90 -152) translate(90 152)"/>
                <path fill="#233862" d="M158.93 48.987c.123-.844.404-1.438.404-1.438s.218.906 1.87.781c1.65-.125 4.267.163 5.14 2.052.054.12.104.244.148.37.158-.419.197-1.046.197-1.046.313.813 0 1.83 0 1.83h-.001l.013.089c.364.31.67 1.27.67 1.27-.11-.267-.378-.442-.617-.55.007 1.47-.586 2.906-1.628 3.333-1.524.626-1.512.149-3.044 1.169 0 0-.412-.512-.131-.856.28-.344 1.34-.844.747-1.344-.591-.5-.81.062-1.028-.282-.218-.344.873-1.344-.53-2.282-1.401-.939-2.336-2.252-2.21-3.096" transform="translate(-90 -152) translate(90 152)"/>
                <path fill="#2C3A64" d="M58.189 8.578c-.007-.164-.134-1.934-2.833-2.027 0 0 1.327.158 1.557.741 0 0-.904-.72-1.64-.488-.737.231-1.169 1.52-1.173 1.943-.005.424.404 1.79.872 1.906.177.044.38.032.565 0-.124.194-.246.408-.362.647-1.077 2.208.034 4.367.945 4.128.585-.153.75.844.75.844l5.683-4.594s-2.087-4.314-4.364-3.1" transform="translate(-90 -152) translate(90 152)"/>
                <path fill="#2B478B" d="M60.017 72.467l-1.182.44s-5.136-7.125-5.768-13.393c-.113-1.12-.075-2.204.169-3.205l-.138-.794c-.04-.237-.09-.522-.148-.848-.167-.957-.396-2.266-.659-3.757-.604-3.431-1.387-7.817-1.995-11.042l.318-.102 3.447-1.112.713-2.264 2.566-.676s.574 1.122 1.086 6.423c.095.695.18 1.462.245 2.293.2 2.538.215 5.686-.244 9.285-.118.921-.266 1.872-.45 2.85-.136.716-.156 1.692-.1 2.813.26 5.125 2.14 13.09 2.14 13.09" transform="translate(-90 -152) translate(90 152)"/>
                <path fill="#233862" d="M58.749 44.458L53.124 55.58c-.04-.237-.092-.523-.15-.85-.168-.96-.4-2.274-.665-3.77-.61-3.442-1.4-7.842-2.013-11.077l.321-.103 3.48-1.116.718-2.27 2.59-.679s.58 1.126 1.096 6.444c.096.697.183 1.466.248 2.3" transform="translate(-90 -152) translate(90 152)"/>
                <path fill="#2B478B" d="M56.213 37.18l-.128-1.116c-2.145.58-7.875-1.618-7.875-1.618s-2.078 1.857-1.805 6.306c.133 2.172.376 11.4.63 14.131.092.99.172 1.694.205 1.976v.002c.01.086-.019.167-.062.242-.374.645-.683 1.317-.937 2.004-2.494 6.753.384 15.069.384 15.069l.746-.306s1.638-9.255 2.968-13.343c.226-.694.443-1.239.641-1.564.578-.95 1.115-2.5 1.603-4.343.92-3.487 1.662-8.022 2.155-11.523.068.004 1.475-5.917 1.475-5.917" transform="translate(-90 -152) translate(90 152)"/>
                <path fill="#FFB27D" d="M73.425 35.633c-.492.446-1.798-1.083-1.978-1.287-.01-.019-.018-.029-.018-.029l.397-1.132s1.712-.067 1.996.223c.283.29.141 1.751-.397 2.225" transform="translate(-90 -152) translate(90 152)"/>
                <path fill="#FFB27D" d="M71.851 33.348l-.16 1.098s-.072 0-.197-.009c-.393-.027-1.348-.081-2.427-.2-1.625-.163-3.553-.454-4.32-.935-1.17-.726-3.088-2.95-4.338-5.176-.035-.054-.062-.109-.089-.163-.651-1.18-1.107-2.352-1.142-3.287-.027-.572.035-1.063.151-1.49.152-.562.402-1.007.66-1.343.037-.055.072-.11.126-.155.428-.517.848-.735.848-.735.214-.091.446.018.687.281v.01c.197.208.41.526.616.926.009.009.018.018.018.027l.143.272c.017.019.026.046.035.064.098.209.197.427.294.654 1.098 2.433 2.267 6.12 3.24 7.219.42.472 2.339 1.398 3.865 2.088 1.097.49 1.99.854 1.99.854" transform="translate(-90 -152) translate(90 152)"/>
                <path fill="#FFB27D" d="M60.44 23.694c-.677.323-1.495.544-2.484.6-3.707.209-4.548-3.14-4.702-5.36.535-.2 1.003-.181 1.272-.167.263.015.538.043.764.072.453-.244 1.268-1.43 1.739-3.412l.16.076 2.675 1.296s-.284.896-.494 1.754c-.164.672-.281 1.32-.183 1.502.21.088.337.144.337.144v.003c.028.07.61 1.597.916 3.492" transform="translate(-90 -152) translate(90 152)"/>
                <path fill="#F99746" d="M61.813 26.142c-.029.075-.06.147-.094.222-.96 2.036-2.734 10.467-2.734 10.467.252 1.516-11.558-.297-11.589-1.678-.416-1.463 1.476-3.815 2.543-4.994.134-.149.254-.308.358-.475.263-.42.43-.896.484-1.392.21-1.957.13-3.79.147-4.905.209-.153.41-.293.598-.427.287-.206.54-.4.728-.595.205-.213.334-.431.349-.678.01-.186.005-.377-.015-.568-.009-.09-.02-.18-.034-.27-.148-.947-.549-1.806-.549-1.806 1.016-.405 2.822-.164 2.822-.164l-.003.261c-.006.65 0 2.32.212 2.637.264.393 5.103 2.117 5.359 1.583.252-.525-.438-2.986-.463-3.079l-.001-.003c1.62.627 2.2 1.154 2.2 1.154-.977.624.437 2.736-.318 4.71" transform="translate(-90 -152) translate(90 152)"/>
                <path fill="#ED985F" d="M60.017 17.106s-.27.869-.468 1.702c-1.483-.436-1.933-2.078-2.068-2.958l2.536 1.256" transform="translate(-90 -152) translate(90 152)"/>
                <path fill="#FFB27D" d="M60.221 17.958s-3.667-.86-3.104-3.166c.564-2.305.47-3.969 2.836-3.517 2.365.451 2.603 1.445 2.6 2.26-.004.816-1.363 4.587-2.332 4.423" transform="translate(-90 -152) translate(90 152)"/>
                <path fill="#2C3A64" d="M63.225 12.184c-.417-.813-.909-.77-1.216-.625-1.824-1.57-3.614-.288-3.614-.288-.69 1.548-2.182 2.18-2.182 2.18s.597.569 2.326.556c.528-.004 1.059-.23 1.542-.54-.932.873-2.025 1.405-2.025 1.405 2.165-.385 3.616-2.716 3.765-2.964.183.252.534.788.563 1.241.04.615-.187 1.81.191 1.855 0 0 1.277-1.602.65-2.82" transform="translate(-90 -152) translate(90 152)"/>
                <path fill="#F99746" d="M61.912 21.344s.926 1.643 1.063 2.066c0 0-1.2-.047-1.683.893 0 0-.117-2.738.62-2.959" transform="translate(-90 -152) translate(90 152)"/>
                <path fill="#ED7D2B" d="M55.622 34.024c-2.253-.025-4.16-2.45-5.326-4.39.255-.427.416-.91.468-1.415.202-1.99.125-3.856.142-4.99.202-.155.397-.298.578-.434.278-.21.523-.406.704-.606 1.845 3.233 6.488 11.868 3.434 11.835" transform="translate(-90 -152) translate(90 152)"/>
                <path fill="#233862" d="M51.141 74.598h-5.885s-.14-.914.167-1.607c.294-.666.756-.968.645-1.774.374.392.983.832 1.834.715.104.173.673 1.095 1.021 1.35.385.282 2.1.18 2.218 1.316M63.82 74.598h-5.854s-.22-.909.165-1.528c.34-.548.21-.86-.042-1.313.265.106.608.202.986.18.292-.016.6-.145.87-.297.253.28 1.332 1.47 1.67 1.707.382.268 2.088.172 2.206 1.251" transform="translate(-90 -152) translate(90 152)"/>
                <path fill="#2B478B" d="M70.024 31.91l-.286-.072c.95-1.998 2.637-3.517 4.022-4.307 1.212-.69 2.215-1.004 2.575-1.105.088-.025.18-.003.25.06l.263.237c.131.118.083.344-.085.393-1.283.38-5.306 1.776-6.739 4.794" transform="translate(-90 -152) translate(90 152)"/>
                <path fill="#F46C0F" d="M64.816 33.29c.916-3.788 3.01-3.261 5.593-2.612 2.582.649 4.675 1.175 3.76 4.962-.658 2.714-3.284 4.388-5.866 3.738-2.583-.649-4.144-3.375-3.487-6.089" transform="translate(-90 -152) translate(90 152)"/>
                <path fill="#FF9045" d="M66.357 32.049c0-.625.9-1.407 1.527-1.407.627 0 1.009.644 1.009 1.268s-.774 1.268-1.4 1.268c-.628 0-1.136-.506-1.136-1.13" transform="translate(-90 -152) translate(90 152)"/>
                <path fill="#FFB27D" d="M64.243 34.991l-.319 1.146-1.04-.188c-.191-.036-.3-.063-.3-.063-.511-.098-1.122-.232-1.788-.376h-.009c-1.14-.268-2.417-.59-3.493-.949-.757-.26-1.413-.537-1.86-.814-.046-.027-.082-.054-.128-.09-1.067-.76-2.334-3-3.32-5.399-.136-.33-.264-.662-.391-.984-.456-1.2-.821-2.382-1.04-3.402-.137-.61-.228-1.164-.246-1.62-.01-.162-.018-.314-.01-.458.019-2.596 1.332-2.954 1.332-2.954.027-.009.055-.018.091-.027.228-.036.465.117.712.412.31.367.638.967.975 1.692.52 1.155 1.067 2.65 1.578 4.136.283.815.556 1.63.83 2.382.155.456.31.886.456 1.28.283.752.538 1.36.766 1.746.146.25.565.6 1.122.994.966.689 2.38 1.522 3.61 2.202.512.286.995.546 1.396.761.647.35 1.076.573 1.076.573" transform="translate(-90 -152) translate(90 152)"/>
                <path fill="#F99746" d="M53.677 20.902c-1.67-.472-2.958.865-2.958.865.02-2.575 1.27-2.927 1.27-2.927.504-.214 1.087.679 1.688 2.062" transform="translate(-90 -152) translate(90 152)"/>
                <path fill="#FFB27D" d="M64.132 35.441s.558.012.874-.173c.316-.185 1.21-.436 1.614-.394 0 0 .15.058.096.193-.052.134-.71.243-.71.495 0 0 .825-.025 1.07-.126.246-.1 1.193.13 1.377.235.185.104-1.201.903-1.815 1.225-.615.323-2.817-.366-2.817-.366l.31-1.089" transform="translate(-90 -152) translate(90 152)"/>
                <path fill="#EFCBAB" d="M63.952 115.173c-.2 0-.371-.167-.406-.395l-5.642-37.997 2.035-.07 4.302 38.081c.022.202-.113.381-.29.381M42.688 76.78l-.906 6.098v.001l-4.737 31.9c-.034.227-.205.394-.405.394-.176 0-.312-.18-.29-.38l4.303-38.081 2.035.069" transform="translate(-90 -152) translate(90 152)"/>
                <path fill="#EFCBAB" d="M65.901 76.712H34.268c-.483 0-.878-.397-.878-.881v-.35c0-.486.395-.883.878-.883H65.9c.483 0 .878.397.878.882v.35c0 .485-.395.882-.878.882" transform="translate(-90 -152) translate(90 152)"/>
                <path fill="#82B378" d="M168.687 114.75h-7.535c-.404-.346.28-1.132.993-1.184.31-.024.702.042 1.15.137.104-1.392.696-7.65 2.928-7.398 2.509.281 0 2.756-.71 4.22-.525 1.086-1.08 2.641-1.333 3.376.204.045.415.088.63.128.333-1.032 1.57-4.504 3.144-4.302 1.848.237 1.105 1.63-.205 2.456-.96.608-2.14 1.471-2.7 1.889.474.078.97.13 1.473.118 1.29-.03 1.92.354 2.165.56M21.085 114.75h7.535c.404-.346-.28-1.132-.993-1.184-.31-.024-.702.042-1.15.137-.104-1.392-.696-7.65-2.928-7.398-2.51.281 0 2.756.71 4.22.525 1.086 1.08 2.641 1.333 3.376-.204.045-.415.088-.63.128-.333-1.032-1.57-4.504-3.144-4.302-1.848.237-1.105 1.63.204 2.456.961.608 2.141 1.471 2.702 1.889-.475.078-.971.13-1.474.118-1.29-.03-1.92.354-2.165.56" transform="translate(-90 -152) translate(90 152)"/>
                <path fill="#FFB93E" d="M91.888 103.094c.329 1.66.733 3.097 1.201 4.34 3.635 9.627 11.213 7.55 18.61 7.55 8.351 0 8.335-5.621 8.335-13.222 0-7.6-4.626-13.639-12.977-13.639-8.35 0-16.646 7.518-15.17 14.971" transform="translate(-90 -152) translate(90 152)"/>
                <path fill="#FFA412" d="M125.105 104.539c.052-7.702-5.475-13.89-12.855-15.943-7.53-2.096-13.784 3.03-13.772 10.5.012 7.503 6.395 14.935 14.034 15.934 7.387.966 12.543-3 12.593-10.491" transform="translate(-90 -152) translate(90 152)"/>
                <path fill="#FFDA9F" d="M124.26 104.358c.05-7.22-5.215-13.021-12.242-14.947-7.172-1.964-13.127 2.841-13.117 9.844.011 7.035 6.091 14.003 13.365 14.939 7.036.905 11.946-2.813 11.994-9.836" transform="translate(-90 -152) translate(90 152)"/>
                <path fill="#FFB93E" d="M111.612 99.752l2.052-7.735c.153-.576-.295-1.254-.918-1.39-.76-.165-1.806-.342-2.917-.38-1.287-.044-2.368.064-3.114.18-.58.09-.811.74-.47 1.317l4.735 7.994c.169.286.558.295.632.014M113.066 102.226l7.854 4.747c.584.353 1.252.134 1.367-.45.14-.71.283-1.708.283-2.819 0-1.286-.146-2.417-.288-3.212-.11-.617-.773-1.076-1.341-.93l-7.884 2.028c-.281.073-.277.464.009.636M112.937 100.792l7.786-2.075c.579-.154.762-.856.373-1.438-.475-.71-1.168-1.662-2.024-2.6-.99-1.086-1.94-1.928-2.627-2.49-.533-.436-1.234-.31-1.421.254l-2.581 7.819c-.092.28.212.606.494.53M112.018 102.884l2.401 8.438c.179.628.879 1.04 1.434.843.677-.24 1.583-.618 2.468-1.164 1.024-.63 1.81-1.3 2.331-1.8.405-.389.249-1.13-.315-1.5l-7.819-5.136c-.28-.184-.587.012-.5.319M110.238 100.27l-5.137-7.787c-.383-.58-1.123-.738-1.517-.322-.482.506-1.103 1.242-1.646 2.143-.629 1.043-1.042 2.032-1.296 2.748-.197.555.208 1.26.82 1.427l8.473 2.31c.304.084.49-.235.303-.518M109.952 101.418l-8.405-1.446c-.625-.107-1.078.39-.926 1.019.185.768.489 1.82.957 2.927.541 1.28 1.137 2.346 1.588 3.079.35.569 1.082.749 1.485.365l5.575-5.314c.2-.19.031-.578-.274-.63M110.764 102.607l-4.524 6.27c-.336.466-.099 1.225.49 1.555.716.401 1.718.91 2.83 1.314 1.288.468 2.416.731 3.209.876.614.112 1.054-.395.89-1.028l-2.26-8.764c-.08-.314-.471-.45-.635-.223" transform="translate(-90 -152) translate(90 152)"/>
                <path fill="#2C3A64" d="M92.13 63.648c.035-.143-3.089 1.421-3.248 1.598-1.465 1.636-1.047 3.77-.209 3.79.538.013.434.913.434.913l5.99-2.55s-.721-4.233-2.967-3.751" transform="translate(-90 -152) translate(90 152)"/>
                <path fill="#2C3A64" d="M92.557 64.183s.206-2.264-2.299-2.264c0 0 .759.208 1.152.623 0 0-1.598-.946-3.336.509-1.738 1.456-.658 5.105-1.187 5.8-.528.692-2.587.831-2.335 3.072.252 2.24 6.533 5.048 6.13 6.902 0 0 2.46-3.655.701-5.323 0 0 .858.816.945 1.787 0 0 .233-1.895-.96-2.502-1.057-.536-1.921-2.496-1.83-2.847.091-.35 3.02-5.757 3.02-5.757" transform="translate(-90 -152) translate(90 152)"/>
                <path fill="#ED985F" d="M90.295 74.718c-.399-1.884-2.892-2.468-4.071-.93-.212.277-.361.604-.41.99-.27 2.139 3.22 10.849 3.72 11.637.91 1.436 6.266 6.358 6.266 6.358l.988-.587s-3.8-6.303-4.389-6.893c-.68-.682-1.346-6.998-2.104-10.575" transform="translate(-90 -152) translate(90 152)"/>
                <path fill="#ED985F" d="M95.52 92.45s1.475-1.008 2.033-.942c.558.064 2.173.548 2.193.796.02.247-1.8.402-1.922.537-.122.135-1.358.994-1.806.725-.448-.27-.498-1.116-.498-1.116" transform="translate(-90 -152) translate(90 152)"/>
                <path fill="#F99746" d="M85.799 113.483l-1.262-.187s-4.242-3.4-4.874-9.747c-.064-.646-.077-1.302-.03-1.963.006-.076-.003-.152-.044-.216l-.001-.002c-.136-.21-.474-.736-.932-1.484-.451-.737-1.223-2.13-2.072-3.694-1.53-2.816-3.31-6.184-3.921-7.257-1.947-3.419-1.008-5.717-1.008-5.717s5.43-.542 6.917-1.855l.536.833s1.177 5.254 1.121 5.278l.177.546c.928 2.891 1.996 6.505 2.578 9.448.328 1.655.5 3.098.408 4.081-.032.337.007.855.096 1.495.525 3.771 2.31 10.44 2.31 10.44" transform="translate(-90 -152) translate(90 152)"/>
                <path fill="#233862" d="M88.335 114.75H82.87s-.13-.81.154-1.424c.274-.59.664-.61.05-1.534.347.348 1.464.492 2.254.388.096.153.624 1.178.947 1.404.357.249 1.95.16 2.06 1.167" transform="translate(-90 -152) translate(90 152)"/>
                <path fill="#ED7D2B" d="M80.304 88.002c-.454 2.552-1.528 6.8-3.778 8.152-1.513-2.81-3.273-6.17-3.877-7.24-1.925-3.41-.997-5.703-.997-5.703s5.368-.54 6.84-1.85l.53.831s1.163 5.241 1.108 5.266l.174.544" transform="translate(-90 -152) translate(90 152)"/>
                <path fill="#2A4E96" d="M89.83 73.753s.714.768 1.04 1.688c0 0-1.14 3.382-3.803 3.807 0 0 2.107-5.496 2.762-5.495" transform="translate(-90 -152) translate(90 152)"/>
                <path fill="#F99746" d="M76.483 83.836l.017-.982c-1.942.247-6.698-2.338-6.698-2.338s-2.032 1.361-2.31 5.248c-.136 1.898-.994 9.923-1.09 12.32-.034.868-.046 1.488-.05 1.736v.002c0 .075-.036.142-.082.202-.402.515-.75 1.06-1.053 1.625-2.964 5.555-1.414 13.102-1.414 13.102l.689-.177s2.506-7.823 4.144-11.207c.278-.575.531-1.02.742-1.28.616-.753 1.265-2.032 1.906-3.572 1.21-2.911 2.384-6.753 3.222-9.727.06.01 1.977-4.952 1.977-4.952" transform="translate(-90 -152) translate(90 152)"/>
                <path fill="#FFB27D" d="M87.966 77.126c-3.13-.74-1.13-5.272-.949-5.192.434-.091 1.387-.875 2.238-2.407l.116.102 1.922 1.737s-.445.675-.818 1.337c-.292.518-.54 1.028-.501 1.203.154.125-1.173 3.417-2.008 3.22" transform="translate(-90 -152) translate(90 152)"/>
                <path fill="#ED985F" d="M91.716 71.198s-.48.65-.883 1.287c-1.29-.73-1.292-2.198-1.192-2.958l2.075 1.671" transform="translate(-90 -152) translate(90 152)"/>
                <path fill="#FFB27D" d="M91.38 72.45s-3.052-1.707-1.966-3.6c1.087-1.894 1.425-3.389 3.42-2.38 1.993 1.01 1.954 1.95 1.744 2.67-.21.721-2.377 3.704-3.199 3.31" transform="translate(-90 -152) translate(90 152)"/>
                <path fill="#2C3A64" d="M95.078 67.716c-.132-.78-.534-.855-.814-.803-1.066-1.738-2.808-1.06-2.808-1.06-.93 1.151-2.276 1.347-2.276 1.347s.336.615 1.716.995c.421.116.9.046 1.361-.107-.957.526-1.959.728-1.959.728 1.82.164 3.55-1.475 3.73-1.65.083.253.23.786.142 1.174-.12.529-.595 1.486-.305 1.61 0 0 1.411-1.064 1.213-2.234" transform="translate(-90 -152) translate(90 152)"/>
                <path fill="#233862" d="M68.047 114.75h-5.464s-.131-.8.154-1.406c.274-.583.702-.847.6-1.552.347.343.912.728 1.702.626.097.15.625.957.949 1.18.357.247 1.95.16 2.06 1.153" transform="translate(-90 -152) translate(90 152)"/>
                <path fill="#2A4E96" d="M88.298 80.821c-.677.237-1.625.366-2.595.471-1.381.152-2.807.255-3.554.554-.272.108-.455.243-.511.415-.324.976-1.751 2.481-1.751 2.481-9.145-.417-10.149-4.25-10.149-4.25 6.153-7.171 16.57-9.247 16.57-9.247s.745-.316 2.619 1.177c1.25.996 1.086 1.379 1.086 1.379s.273 6.325-1.715 7.02" transform="translate(-90 -152) translate(90 152)"/>
                <path fill="#1E3D70" d="M85.799 81.229c-1.466.152-2.98.255-3.773.555-.324-4.583 1.962-8.03 1.962-8.03s1.49 5.741 1.81 7.475" transform="translate(-90 -152) translate(90 152)"/>
                <path fill="#FFB27D" d="M87.046 72.908s-3.488.343-3.768 2.596c-.279 2.253 3.344 11.43 3.863 12.261.945 1.513 6.508 6.698 6.508 6.698l1.026-.617s-3.946-6.642-4.558-7.263c-.959-.975-1.89-12.894-3.07-13.675" transform="translate(-90 -152) translate(90 152)"/>
                <path fill="#2A4E96" d="M83.556 76.65c.01.052 3.15 1.064 5.171 0 0 0 .433-4.84-1.98-4.577-2.414.262-3.842 1.051-3.903 2.25-.06 1.199.712 2.326.712 2.326" transform="translate(-90 -152) translate(90 152)"/>
                <path fill="#FFB27D" d="M93.407 93.514s1.19-1.135 1.704-1.161c.515-.028 2.045.16 2.098.381.053.22-1.571.638-1.663.779-.091.14-1.087 1.104-1.53.93-.444-.175-.61-.929-.61-.929" transform="translate(-90 -152) translate(90 152)"/>
            </g>
        </g>
    </g>
</svg>
