<svg xmlns="http://www.w3.org/2000/svg" width="24" height="24" viewBox="0 0 24 24">
    <g fill="none" fill-rule="evenodd">
        <g>
            <g>
                <g fill="#424242" fill-rule="nonzero">
                    <path d="M13.912 5.786c-.048-.064-.112-.102-.19-.114l-1.667-.255c-.091-.291-.216-.588-.373-.892.109-.152.273-.366.491-.642.219-.276.373-.478.464-.605.049-.067.073-.137.073-.21 0-.085-.021-.151-.064-.2-.218-.31-.719-.825-1.502-1.548-.072-.06-.149-.09-.227-.09-.091 0-.164.026-.219.081l-1.293.974c-.249-.127-.522-.24-.82-.337L8.332.273C8.325.194 8.29.13 8.226.077 8.162.026 8.088 0 8.003 0H5.982c-.176 0-.285.085-.328.255-.079.303-.167.868-.264 1.693-.285.092-.561.207-.829.346L3.305 1.32c-.079-.06-.158-.09-.237-.09-.133 0-.42.216-.86.65-.44.434-.739.76-.897.979-.055.079-.082.149-.082.21 0 .072.03.145.091.218.407.492.732.91.974 1.256-.151.28-.27.559-.355.838l-1.693.255c-.067.012-.124.052-.173.118-.049.067-.073.137-.073.21v2.02c0 .08.024.151.073.215.048.064.112.102.191.114l1.666.246c.085.297.21.597.374.9-.11.153-.273.367-.492.643-.218.276-.373.478-.464.605-.049.067-.073.137-.073.21 0 .079.021.148.063.209.237.328.738.838 1.503 1.53.067.066.142.1.227.1.092 0 .167-.027.228-.082L4.58 11.7c.249.127.522.24.82.337l.254 1.675c.006.079.041.144.105.196.064.051.138.077.223.077h2.021c.177 0 .286-.085.328-.255.08-.303.167-.868.264-1.693.286-.091.562-.207.829-.346l1.256.983c.085.055.164.082.237.082.133 0 .419-.216.856-.647.437-.43.737-.758.901-.983.055-.06.082-.13.082-.21 0-.078-.03-.154-.091-.227-.437-.534-.762-.953-.974-1.257.121-.224.24-.5.355-.828l1.684-.255c.073-.012.134-.051.182-.118.049-.067.073-.137.073-.21v-2.02c0-.08-.024-.151-.073-.215zM8.641 8.64c-.455.456-1.005.683-1.648.683-.644 0-1.193-.227-1.648-.683-.456-.455-.683-1.004-.683-1.647 0-.644.227-1.193.683-1.649.455-.455 1.004-.682 1.648-.682.643 0 1.193.227 1.648.682.455.456.683 1.005.683 1.649 0 .643-.228 1.192-.683 1.647z" transform="translate(-16 -364) translate(16 364) translate(5 5)"/>
                </g>
            </g>
        </g>
    </g>
</svg>
