<svg xmlns="http://www.w3.org/2000/svg" xmlns:xlink="http://www.w3.org/1999/xlink" width="63" height="62" viewBox="0 0 63 62">
    <defs>
        <path id="7kbhpf5xoa" d="M0.005 0.021L21.947 0.021 21.947 16.49 0.005 16.49z"/>
    </defs>
    <g fill="none" fill-rule="evenodd">
        <g>
            <g>
                <g>
                    <path fill="#F6C19D" d="M20.818 34.797s-3.136 7.76-2.832 9.227c.304 1.467 2.207 3.429 6.877 2.775 4.67-.654 7.897-1.528 7.897-1.528s.195-10.473 0-11.004c-.195-.53-8.59-4.3-8.921-4.3-.33 0-3.021 4.83-3.021 4.83" transform="translate(-34 -276) translate(20 271) translate(14 5)"/>
                    <path fill="#F6C19D" d="M5.99 60.748h14.912l1.237-3.366c.439-1.192 1.335-2.15 2.482-2.675 1.08-.494 2.533-1.39 3.942-2.989 2.742-3.11 4.197-6.447 4.197-6.447l-9.241-.046S24.35 40 19.757 33.06c-.491-.743-.715-1.634-.638-2.524l.435-5.061s3.121-3.525 1.206-7.9c0 0-1.831-2.562-2.557-1.624 0 0-5.532 13.313-6.036 15.293-.503 1.98-1.175 3.223-.503 9.444.178 1.647.241 3.02.24 4.15-.005 2.168-.484 4.308-1.401 6.268L5.99 60.748z" transform="translate(-34 -276) translate(20 271) translate(14 5)"/>
                    <g transform="translate(-34 -276) translate(20 271) translate(14 5) translate(5.985 44.258)">
                        <mask id="4gfov38c6b" fill="#fff">
                            <use xlink:href="#7kbhpf5xoa"/>
                        </mask>
                        <path fill="#F6C19D" d="M13.914 7.855c-1.385-1.554-3.307-1.308-5.33-2.017C6.564 5.13 5.915.022 5.915.022c.003.192.005.38.004.56-.004 2.167-.483 4.307-1.4 6.267L.005 16.49h14.912l1.237-3.366c.439-1.192 1.335-2.15 2.482-2.675.92-.42 2.109-1.133 3.311-2.32-4.107 1.744-6.65 1.279-8.033-.274" mask="url(#4gfov38c6b)"/>
                    </g>
                    <path fill="#669CDF" d="M13.305.437c3.428 5.467 11.878 10.34 11.878 10.34s-6.717-.552-10.05-4.94l1.208-1.01s-.96.093-1.766.187c-.74-1.243-1.221-2.75-1.27-4.577" transform="translate(-34 -276) translate(20 271) translate(14 5)"/>
                    <path fill="#88B2E7" d="M22.3 2.698c-.521.24-1.293.604-1.293.604l.743-1.08c-.865-.68-1.817-1.133-2.761-1.43-.383.563-.833 1.192-.833 1.192L18.067.548c-2.53-.551-4.762-.11-4.762-.11 3.428 5.466 11.878 10.338 11.878 10.338-.039-4.016-1.249-6.525-2.883-8.078" transform="translate(-34 -276) translate(20 271) translate(14 5)"/>
                    <path fill="#5B99E6" d="M12.046 8.151c1.008-.599 2.031-.921 3.025-1.053.3.345.668.752.668.752l.02-.814c3.821-.185 7.043 2.247 7.043 2.247-2.187 1.345-4.069 1.722-5.62 1.61-.097-.284-.236-.708-.236-.708l-.26.655c-.744-.107-1.403-.325-1.974-.592.137-.34.281-.728.281-.728l-.814.45c-1.399-.8-2.133-1.819-2.133-1.819" transform="translate(-34 -276) translate(20 271) translate(14 5)"/>
                    <path fill="#2671D1" d="M17.183 10.893c-.098-.284-.237-.708-.237-.708l-.26.655c-.744-.107-1.403-.325-1.974-.592.137-.34.281-.728.281-.728l-.814.45c-1.4-.8-2.133-1.819-2.133-1.819 4.446-.513 10.756 1.132 10.756 1.132-2.187 1.345-4.069 1.722-5.62 1.61" transform="translate(-34 -276) translate(20 271) translate(14 5)"/>
                    <path fill="#5CB30B" d="M49.672 7.59l-.322 2.455 1.726-1.274 5.281-2.727-4.085.378s-2.081.511-2.194.614c-.113.103-.406.554-.406.554" transform="translate(-34 -276) translate(20 271) translate(14 5)"/>
                    <path fill="#92CC5C" d="M47.863 6.107L56.357 6.044 49.672 7.59zM52.403 10.06L50.177 8.253 56.357 6.044z" transform="translate(-34 -276) translate(20 271) translate(14 5)"/>
                    <path fill="#141414" d="M48.797 8.869c.325-.124.564-.15.567-.15l-.016-.153c-.01 0-.262.029-.605.16l.054.143zM47.09 10.324c.152-.378.374-.707.658-.978l.104.111c-.268.257-.477.568-.622.925l-.14-.058zm-.19 2.315c-.061-.413-.08-.805-.058-1.164l.151.01c-.021.348-.002.73.056 1.131l.001.01-.15.02v-.007zm.169 1.154l.15-.021c.064.448.109.815.143 1.153l-.151.015c-.034-.336-.079-.7-.142-1.147zm.216 2.298l.151-.003c.01.416-.003.798-.037 1.167l-.151-.015c.034-.363.046-.739.037-1.149zm-.613 3.353c.074-.158.143-.323.203-.49.07-.188.13-.385.181-.585l.147.038c-.053.205-.115.408-.185.6-.062.172-.133.34-.209.503l-.137-.066zm-1.35 1.819c.286-.264.543-.547.764-.844l.12.093c-.226.303-.489.594-.781.864l-.102-.113zm-1.878 1.28c.352-.18.682-.373.984-.576l.084.127c-.306.206-.643.404-1 .586l-.068-.137zM41.884 23.37c.196-.068.388-.14.572-.213l-.055-.143c-.183.073-.373.144-.566.212l.05.144z" transform="translate(-34 -276) translate(20 271) translate(14 5)"/>
                    <path fill="#F19A5E" d="M41.098 7.076s3.159-2.136 3.88-.729c.721 1.408-4.104 6.389-4.104 6.389l.224-5.66zM41.098 16.385s3.159-2.136 3.88-.728c.721 1.407-4.104 6.388-4.104 6.388l.224-5.66zM41.098 22.728s3.159-2.137 3.88-.729c.721 1.408-4.104 6.389-4.104 6.389l.224-5.66z" transform="translate(-34 -276) translate(20 271) translate(14 5)"/>
                    <path fill="#141414" d="M38.916 4.682h-17.34c-1.29 0-2.338 1.058-2.338 2.363v35.817c0 1.315 1.058 2.363 2.338 2.363h17.34c1.291 0 2.339-1.058 2.339-2.363V7.045c0-1.317-1.06-2.363-2.339-2.363" transform="translate(-34 -276) translate(20 271) translate(14 5)"/>
                    <path fill="#FFF" d="M20.372 42.004L40.121 42.004 40.121 7.903 20.372 7.903z" transform="translate(-34 -276) translate(20 271) translate(14 5)"/>
                    <path fill="#DAE7F7" d="M35.104 31.165h-9.715c-.677 0-1.227-.555-1.227-1.24V16.921c0-.684.55-1.24 1.227-1.24h9.715c.677 0 1.226.556 1.226 1.24v13.004c0 .685-.549 1.24-1.226 1.24" transform="translate(-34 -276) translate(20 271) translate(14 5)"/>
                    <g fill-rule="nonzero">
                        <path fill="#40C042" stroke="#FFF" stroke-width=".6" d="M5.731.98C5.101.347 4.263 0 3.37 0 1.53 0 .03 1.498.03 3.339c0 .588.154 1.162.446 1.669L.048 6.57c-.014.053.017.108.07.123.017.004.035.004.052 0l1.603-.42h0c.487.266 1.036.406 1.595.406 1.842 0 3.34-1.498 3.34-3.339 0-.892-.346-1.73-.977-2.362z" transform="translate(-34 -276) translate(20 271) translate(14 5) translate(27 20)"/>
                        <path fill="#FFF" d="M4.892 4.038c-.084-.042-.494-.244-.57-.272-.077-.028-.132-.041-.188.042-.056.084-.215.272-.264.327-.049.056-.097.063-.18.021-.084-.042-.353-.13-.672-.414-.248-.221-.415-.494-.464-.578-.049-.083 0-.124.037-.17.09-.112.18-.23.208-.286.028-.055.014-.104-.007-.146-.02-.041-.187-.452-.257-.62-.068-.162-.136-.14-.188-.142-.048-.003-.104-.003-.16-.003-.055 0-.146.02-.222.104-.077.084-.292.285-.292.696 0 .41.299.807.34.863.042.056.589.898 1.426 1.26.199.086.354.137.475.176.2.063.382.054.526.033.16-.024.493-.202.563-.397.07-.195.07-.362.049-.397-.021-.035-.077-.055-.16-.097z" transform="translate(-34 -276) translate(20 271) translate(14 5) translate(27 20)"/>
                    </g>
                    <path fill="#FFF" d="M34.318 6.831h-8.111c-.094 0-.17-.077-.17-.172v-.084c0-.094.076-.171.17-.171h8.111c.094 0 .17.077.17.171v.084c0 .095-.076.172-.17.172" transform="translate(-34 -276) translate(20 271) translate(14 5)"/>
                    <path fill="#F6C19D" d="M18.845 28.53s.12.448.389.668l.32-3.722s2.296-2.593 1.741-6.091c-.19-1.198-.779-2.3-1.68-3.1-.514-.457-1.08-.763-1.412-.333 0 0-2.602 6.26-4.399 10.834l5.041 1.744z" transform="translate(-34 -276) translate(20 271) translate(14 5)"/>
                    <path fill="#DAE7F7" d="M31.205 43.647c0 .541-.434.98-.97.98s-.97-.439-.97-.98c0-.541.434-.98.97-.98s.97.439.97.98" transform="translate(-34 -276) translate(20 271) translate(14 5)"/>
                    <path fill="#D0E1F5" d="M20.372 42.004L40.121 42.004 40.121 39.987 20.372 39.987zM20.372 9.712L40.121 9.712 40.121 7.903 20.372 7.903z" transform="translate(-34 -276) translate(20 271) translate(14 5)"/>
                    <path fill="#F19A5E" d="M18.67 19.63c.719-.335 1.094-2.225 1.229-3.074-.577-.587-1.3-1.115-1.696-.604 0 0-.573 1.379-1.367 3.315.543.305 1.297.612 1.834.362" transform="translate(-34 -276) translate(20 271) translate(14 5)"/>
                    <path fill="#141414" d="M10.287 51.855c1.578.98 6.657 3.91 11.91 4.534.308.037.524.322.433.568l-.917 2.484c-.061.164-.244.26-.45.235-1.547-.19-7.934-1.162-12.428-4.675-.153-.12-.218-.301-.16-.456l.936-2.535c.088-.239.419-.315.676-.155" transform="translate(-34 -276) translate(20 271) translate(14 5)"/>
                    <path fill="#000" d="M9.826 54.23l-.018-.006c-.092-.035-.139-.139-.104-.232l.282-.764c.035-.094.137-.14.23-.106l.017.006c.092.035.139.139.104.232l-.282.765c-.035.093-.137.14-.23.105M10.77 54.819l-.017-.007c-.092-.035-.139-.138-.104-.231l.282-.765c.035-.093.137-.14.23-.106l.017.007c.092.035.139.138.104.231l-.282.765c-.035.093-.137.14-.23.106M11.717 55.403l-.017-.006c-.093-.035-.14-.139-.105-.232l.282-.764c.035-.094.137-.14.23-.106l.017.006c.092.035.139.139.104.232l-.282.765c-.034.093-.137.14-.23.105M12.69 55.879l-.017-.007c-.092-.035-.139-.138-.104-.231l.282-.765c.035-.093.137-.14.23-.106l.017.007c.092.035.139.138.104.231l-.282.765c-.035.093-.137.14-.23.106M13.649 56.431l-.017-.006c-.093-.035-.14-.139-.105-.232l.282-.765c.035-.093.137-.14.23-.105l.017.006c.092.035.139.139.104.232l-.282.765c-.034.093-.137.14-.23.105M14.65 56.87l-.018-.007c-.092-.035-.139-.139-.105-.232l.283-.764c.034-.094.137-.14.229-.106l.017.006c.092.035.14.139.105.232l-.283.765c-.034.093-.137.14-.229.105M15.67 57.254l-.018-.006c-.092-.035-.139-.139-.105-.232l.283-.764c.034-.094.137-.14.229-.106l.017.006c.093.035.14.139.105.232l-.283.765c-.034.093-.137.14-.229.105M16.71 57.586l-.018-.007c-.092-.034-.14-.138-.105-.231l.283-.765c.034-.093.137-.14.229-.105l.017.006c.092.035.139.138.105.232l-.283.764c-.034.093-.137.14-.229.106M17.791 57.803l-.017-.006c-.092-.035-.14-.139-.105-.232l.283-.765c.034-.093.137-.14.229-.105l.017.006c.092.035.139.139.105.232l-.283.765c-.034.093-.137.14-.229.105M18.845 58.098l-.018-.007c-.092-.035-.139-.138-.104-.231l.282-.765c.034-.093.137-.14.23-.106l.017.007c.092.034.139.138.104.231l-.282.765c-.035.093-.137.14-.23.106M19.938 58.283l-.017-.007c-.092-.034-.139-.138-.105-.231l.283-.765c.034-.093.137-.14.229-.106l.017.007c.093.035.14.138.105.231l-.283.765c-.034.093-.137.14-.229.106M21.034 58.464l-.018-.006c-.092-.035-.139-.139-.104-.232l.282-.765c.035-.093.137-.14.23-.105l.017.006c.092.035.139.139.104.232l-.282.764c-.035.094-.137.14-.23.106" transform="translate(-34 -276) translate(20 271) translate(14 5)"/>
                    <path fill="#AC8CCE" d="M13.405 57.607l.004-.012c-.017-.002-.033-.006-.05-.012l-1.243-.469c-.122-.046-.182-.193-.133-.327l1.121-3.034c.05-.134.19-.206.313-.16l1.243.47c.073.027.123.09.142.165.097.043.195.086.295.128.033-.254-.096-.502-.328-.59l-1.243-.469c-.272-.103-.583.056-.693.353l-1.121 3.035c-.11.297.022.623.295.725l1.243.47c.186.07.39.018.537-.117-.128-.051-.255-.103-.382-.156" transform="translate(-34 -276) translate(20 271) translate(14 5)"/>
                    <path fill="#FFF" d="M13.132 55.2l-.54-.205c-.098-.037-.208.02-.247.125-.04.106.008.222.105.258l.54.204.142-.383z" transform="translate(-34 -276) translate(20 271) translate(14 5)"/>
                    <path fill="#F3A875" d="M36.78 30.362s-2.667.226-2.76.943c-.093.716.112 1.98 2.63 2.224h2.608s-.78-2.187-.743-2.262c.038-.075-1.734-.905-1.734-.905" transform="translate(-34 -276) translate(20 271) translate(14 5)"/>
                    <path fill="#F6C19D" d="M32.5 41.049c-.36.194-.486.655-.281 1.013 1.227 2.14 6.108 10.642 6.548 11.334.504.792 1.735 2.658 5.82 3.62 4.085.96 5.764 3.732 5.764 3.732h12.59s-2.965-4.75-5.428-17.08c0 0-1.902-10.237-5.484-9.897 0 0-2.182-2.319-4.308-1.867 0 0-4.03-2.431-6.324-2.431l-5.51-6.583c-.546-.651-1.508-.78-2.178-.26-.216.166-.38.387-.426.678-.168 1.074 1.231 3.79 3.47 7.07 2.238 3.28 7.778 13.686 5.372 18.267 0 0-2.463-1.866-4.589-4.864-1.78-2.51-3.875-3.354-5.035-2.732" transform="translate(-34 -276) translate(20 271) translate(14 5)"/>
                    <path fill="#F19A5E" d="M41.418 29.475c.73.633 1.416 1.319 2.064 2.04.874.961 1.977 2.387 2.626 3.488.817 1.36 1.356 2.554 1.611 4.053l-.016.004c-.294-1.408-1.061-2.925-1.73-3.973-.5-.819-1.425-2.12-2.591-3.484-.586-.683-1.33-1.49-1.976-2.116l.012-.012zM47.685 31.887c.595.307 1.125.737 1.594 1.222.475.483.869 1.03 1.208 1.629.332.593.586 1.23.757 1.887.144.615.238 1.032.253 2.005l-.017.002c-.055-.667-.176-1.328-.363-1.97-.189-.62-.454-1.288-.776-1.84-.322-.585-.714-1.128-1.16-1.623-.42-.466-.972-.969-1.505-1.297l.009-.015zM51.983 33.723c.526.402 1.06 1.114 1.317 1.595.325.565.583 1.221.752 1.94.125.459.156.905.176 1.372l-.017.002c-.077-.452-.126-.79-.285-1.338-.245-.831-.437-1.259-.765-1.899-.195-.395-.704-1.177-1.185-1.66l.007-.012zM35.042 43.682c.112-.573-.548-1.48-1.147-2.166-.374-.428-.965-.588-1.484-.409-.29.218-.379.629-.192.955l1.624 2.828c.524-.27 1.096-.678 1.2-1.208M35.571 25.473c.319-.064 1.763-.55 1.675-.815l-1.425-1.702c-.283-.338-.678-.534-1.086-.573l-.007-.001c-.011-.001-.037-.003-.074-.003-.19 0-.661.055-.765.578-.102.516.744 1.77 1.117 2.292.128.18.35.268.565.224" transform="translate(-34 -276) translate(20 271) translate(14 5)"/>
                    <path fill="#F6C19D" d="M50.35 60.748h12.591s-1.944-3.115-3.991-10.846c-.899 5.693-5.855 5.365-7.822 5.68-2.265.364-11.056-1.489-12.288-2.072.548.845 1.847 2.587 5.747 3.505 4.085.962 5.764 3.733 5.764 3.733M37.418 31.41c2.469 4.008 6.898 13.217 4.707 17.235l1.454 1.451s3.675-4.114-2.173-13.188c-1.36-2.112-2.713-3.938-3.988-5.499" transform="translate(-34 -276) translate(20 271) translate(14 5)"/>
                    <path fill="#141414" d="M7.521 29.22c-.263-.229-.478-.337-.48-.338l.067-.138c.01.005.235.119.512.36l-.099.117zM8.475 31.187c-.014-.385-.104-.75-.268-1.084l.135-.068c.174.354.27.74.284 1.147l-.151.005zm-.464 2.24l-.134-.071.004-.008c.192-.357.34-.708.44-1.042l.145.044c-.102.344-.254.705-.452 1.072l-.003.006zm-1.076 2.046l-.136-.067c.147-.306.315-.634.528-1.033l.133.073c-.211.397-.378.723-.525 1.027zm-.82 2.145l-.147-.04c.094-.357.213-.72.364-1.107l.141.056c-.149.382-.266.739-.358 1.091zm-.363 2.283c-.017-.179-.025-.362-.025-.544 0-.206.01-.417.031-.628l.151.016c-.02.205-.03.411-.03.612 0 .178.008.356.024.53l-.151.014zm.66 2.235c-.181-.355-.329-.72-.438-1.084l.145-.045c.107.355.25.711.429 1.058l-.135.07zm1.35 1.89c-.273-.295-.52-.597-.737-.898l.122-.09c.213.296.458.593.726.884l-.111.105zM9.054 45.243c-.16-.132-.316-.267-.464-.4l.101-.115c.147.132.301.265.46.397l-.097.118z" transform="translate(-34 -276) translate(20 271) translate(14 5)"/>
                    <path fill="#5283AF" d="M6.523 26.628l-.2 2.468-1.42-1.615-4.588-3.798 3.913 1.246s1.926.946 2.014 1.071c.089.125.28.628.28.628" transform="translate(-34 -276) translate(20 271) translate(14 5)"/>
                    <path fill="#91C5F4" d="M8.602 25.567L.315 23.683 6.523 26.628zM3.336 28.456L5.89 27.168.315 23.683z" transform="translate(-34 -276) translate(20 271) translate(14 5)"/>
                    <path fill="#085FCC" d="M33.409 14.702h-.016c-.866 0-1.568-.71-1.568-1.584V11.93h3.15v1.188c0 .875-.7 1.584-1.566 1.584" transform="translate(-34 -276) translate(20 271) translate(14 5)"/>
                    <path fill="#88B2E7" d="M30.258 14.702h-.016c-.865 0-1.567-.71-1.567-1.584V11.93h3.15v1.188c0 .875-.701 1.584-1.567 1.584" transform="translate(-34 -276) translate(20 271) translate(14 5)"/>
                    <path fill="#085FCC" d="M27.108 14.702h-.016c-.866 0-1.568-.71-1.568-1.584V11.93h3.15v1.188c0 .875-.7 1.584-1.566 1.584" transform="translate(-34 -276) translate(20 271) translate(14 5)"/>
                    <path fill="#88B2E7" d="M23.957 14.702h-.016c-.865 0-1.567-.71-1.567-1.584V11.93h3.15v1.188c0 .875-.701 1.584-1.567 1.584" transform="translate(-34 -276) translate(20 271) translate(14 5)"/>
                    <path fill="#085FCC" d="M20.807 14.702h-.016c-.866 0-1.567-.71-1.567-1.584V11.93h3.15v1.188c0 .875-.702 1.584-1.567 1.584" transform="translate(-34 -276) translate(20 271) translate(14 5)"/>
                    <path fill="#88B2E7" d="M42.853 14.702h-.016c-.866 0-1.568-.71-1.568-1.584V11.93h3.15v1.188c0 .875-.7 1.584-1.566 1.584" transform="translate(-34 -276) translate(20 271) translate(14 5)"/>
                    <path fill="#085FCC" d="M39.702 14.702h-.016c-.865 0-1.567-.71-1.567-1.584V11.93h3.15v1.188c0 .875-.701 1.584-1.567 1.584" transform="translate(-34 -276) translate(20 271) translate(14 5)"/>
                    <path fill="#88B2E7" d="M36.559 14.702h-.016c-.866 0-1.567-.71-1.567-1.584V11.93h3.15v1.188c0 .875-.701 1.584-1.567 1.584M17.656 14.702h-.016c-.865 0-1.567-.71-1.567-1.584V11.93h3.15v1.188c0 .875-.701 1.584-1.567 1.584" transform="translate(-34 -276) translate(20 271) translate(14 5)"/>
                    <path fill="#DAE7F7" d="M31.37 7.903L29.13 7.903 28.675 11.93 31.825 11.93z" transform="translate(-34 -276) translate(20 271) translate(14 5)"/>
                    <path fill="#669CDF" d="M29.13 7.903L26.89 7.903 25.524 11.93 28.675 11.93z" transform="translate(-34 -276) translate(20 271) translate(14 5)"/>
                    <path fill="#DAE7F7" d="M26.89 7.903L24.65 7.903 22.374 11.93 25.524 11.93z" transform="translate(-34 -276) translate(20 271) translate(14 5)"/>
                    <path fill="#669CDF" d="M24.65 7.903L22.41 7.903 19.224 11.93 22.374 11.93z" transform="translate(-34 -276) translate(20 271) translate(14 5)"/>
                    <path fill="#DAE7F7" d="M22.41 7.903L20.17 7.903 16.073 11.93 19.224 11.93zM40.315 7.903L38.075 7.903 41.269 11.93 44.42 11.93z" transform="translate(-34 -276) translate(20 271) translate(14 5)"/>
                    <path fill="#669CDF" d="M38.086 7.903L35.846 7.903 38.119 11.93 41.269 11.93z" transform="translate(-34 -276) translate(20 271) translate(14 5)"/>
                    <path fill="#DAE7F7" d="M35.846 7.903L33.606 7.903 34.976 11.93 38.126 11.93z" transform="translate(-34 -276) translate(20 271) translate(14 5)"/>
                    <path fill="#669CDF" d="M33.606 7.903L31.366 7.903 31.825 11.93 34.976 11.93z" transform="translate(-34 -276) translate(20 271) translate(14 5)"/>
                </g>
            </g>
        </g>
    </g>
</svg>
