<svg xmlns="http://www.w3.org/2000/svg" width="11" height="12" viewBox="0 0 11 12">
    <g fill="none" fill-rule="evenodd">
        <g fill="#43B02A" fill-rule="nonzero">
            <g>
                <g>
                    <path d="M10.625 2c0 .897-.728 1.625-1.625 1.625S7.375 2.897 7.375 2 8.103.375 9 .375s1.625.728 1.625 1.625z" transform="translate(-211 -456) translate(20 91) translate(191 365)"/>
                    <path d="M9 4c-1.103 0-2-.897-2-2s.897-2 2-2 2 .897 2 2-.897 2-2 2zM9 .75c-.69 0-1.25.561-1.25 1.25S8.31 3.25 9 3.25s1.25-.561 1.25-1.25S9.69.75 9 .75zM10.625 10c0 .897-.728 1.625-1.625 1.625S7.375 10.897 7.375 10 8.103 8.375 9 8.375s1.625.728 1.625 1.625z" transform="translate(-211 -456) translate(20 91) translate(191 365)"/>
                    <path d="M9 12c-1.103 0-2-.897-2-2s.897-2 2-2 2 .897 2 2-.897 2-2 2zm0-3.25c-.69 0-1.25.561-1.25 1.25s.56 1.25 1.25 1.25 1.25-.561 1.25-1.25S9.69 8.75 9 8.75zM3.625 6c0 .897-.728 1.625-1.625 1.625S.375 6.897.375 6 1.103 4.375 2 4.375 3.625 5.103 3.625 6z" transform="translate(-211 -456) translate(20 91) translate(191 365)"/>
                    <path d="M2 8C.897 8 0 7.103 0 6s.897-2 2-2 2 .897 2 2-.897 2-2 2zm0-3.25C1.31 4.75.75 5.311.75 6S1.31 7.25 2 7.25 3.25 6.689 3.25 6 2.69 4.75 2 4.75z" transform="translate(-211 -456) translate(20 91) translate(191 365)"/>
                    <path d="M3.18 5.76c-.173 0-.343-.09-.435-.252-.136-.24-.052-.545.188-.683l4.639-2.644c.24-.138.545-.054.682.186s.052.545-.187.683l-4.64 2.644c-.078.045-.163.066-.246.066zM7.82 9.885c-.085 0-.17-.021-.247-.066l-4.64-2.644c-.24-.137-.323-.442-.187-.683.136-.24.442-.324.682-.186l4.64 2.644c.239.137.323.442.186.683-.092.161-.261.252-.434.252z" transform="translate(-211 -456) translate(20 91) translate(191 365)"/>
                </g>
            </g>
        </g>
    </g>
</svg>
