<?xml version="1.0" encoding="UTF-8"?>
<svg width="16px" height="14px" viewBox="0 0 16 14" version="1.1" xmlns="http://www.w3.org/2000/svg" xmlns:xlink="http://www.w3.org/1999/xlink">
    <title>726569</title>
    <g id="Symbols" stroke="none" stroke-width="1" fill="none" fill-rule="evenodd">
        <g id="inventory-bottom" transform="translate(-284.000000, -11.000000)" fill="#000" fill-rule="nonzero">
            <g id="726569" transform="translate(284.000000, 11.000000)">
                <path d="M15.985,4.379 L15.08,0.757 C14.969,0.312 14.569,0 14.11,0 L1.891,0 C1.432,0 1.032,0.312 0.92,0.757 L0.015,4.379 C0.005,4.418 0,4.459 0,4.5 C0,5.878 1.065,7 2.375,7 C3.136,7 3.815,6.621 4.25,6.033 C4.685,6.621 5.364,7 6.125,7 C6.886,7 7.565,6.621 8,6.033 C8.435,6.621 9.113,7 9.875,7 C10.637,7 11.315,6.621 11.75,6.033 C12.185,6.621 12.863,7 13.625,7 C14.935,7 16,5.878 16,4.5 C16,4.459 15.995,4.418 15.985,4.379 Z" id="Path"></path>
                <path d="M13.625,8 C12.944,8 12.297,7.792 11.75,7.412 C10.656,8.173 9.094,8.173 8,7.412 C6.906,8.173 5.344,8.173 4.25,7.412 C3.703,7.792 3.056,8 2.375,8 C1.884,8 1.421,7.885 1,7.689 L1,13 C1,13.552 1.448,14 2,14 L6,14 L6,10 L10,10 L10,14 L14,14 C14.552,14 15,13.552 15,13 L15,7.689 C14.579,7.885 14.116,8 13.625,8 Z" id="Path"></path>
            </g>
        </g>
    </g>
</svg>