<svg xmlns="http://www.w3.org/2000/svg" width="16" height="14" viewBox="0 0 16 14">
    <g fill="none" fill-rule="evenodd">
        <g fill="#9E9E9E" fill-rule="nonzero">
            <g>
                <path d="M15.985 4.379L15.08.757C14.969.312 14.569 0 14.11 0H1.891C1.432 0 1.032.312.92.757L.015 4.379C.005 4.418 0 4.459 0 4.5 0 5.878 1.065 7 2.375 7c.761 0 1.44-.379 1.875-.967.435.588 1.114.967 1.875.967.761 0 1.44-.379 1.875-.967.435.588 1.113.967 1.875.967s1.44-.379 1.875-.967c.435.588 1.113.967 1.875.967C14.935 7 16 5.878 16 4.5c0-.041-.005-.082-.015-.121zM13.625 8c-.681 0-1.328-.208-1.875-.588-1.094.761-2.656.761-3.75 0-1.094.761-2.656.761-3.75 0-.547.38-1.194.588-1.875.588-.491 0-.954-.115-1.375-.311V13c0 .552.448 1 1 1h4v-4h4v4h4c.552 0 1-.448 1-1V7.689c-.421.196-.884.311-1.375.311z" transform="translate(-48 -1045) translate(48 1045)"/>
            </g>
        </g>
    </g>
</svg>
