<?xml version="1.0" encoding="UTF-8"?>
<svg width="288px" height="56px" viewBox="0 0 288 56" version="1.1" xmlns="http://www.w3.org/2000/svg" xmlns:xlink="http://www.w3.org/1999/xlink">
    <title>Combined Shape</title>
    <g id="Page-1" stroke="none" stroke-width="1" fill="none" fill-rule="evenodd">
        <g id="kirana-copy" transform="translate(0.000000, -1.000000)" fill="#FFFFFF" fill-rule="nonzero">
            <path d="M55.9815998,49.533084 C57.3651163,50.1807767 58.2156605,51.6047833 58.13,53.13 C58.0227741,55.1310066 56.3536569,56.6897325 54.35,56.66 C52.8224947,56.6412582 51.4599241,55.6954139 50.9082659,54.2708799 C50.3566077,52.846346 50.7267613,51.2294952 51.8432415,50.1868563 C52.9597216,49.1442174 54.5980833,48.8853912 55.9815998,49.533084 Z M38.35,49.18 C40.415545,49.1523858 42.1123858,50.804455 42.14,52.87 C42.1676142,54.935545 40.515545,56.6323858 38.45,56.66 C37.1138267,56.6778633 35.8696217,55.9815297 35.186065,54.8333013 C34.5025083,53.6850729 34.4834484,52.2593929 35.136065,51.0933013 C35.7886816,49.9272096 37.0138267,49.1978633 38.35,49.18 Z M13.13,1.23 C15.61,2.1 18.05,3.1 20.51,4.03 C21.4124625,4.39304019 22.0957091,5.15384454 22.36,6.09 C22.84,7.36 23.43,8.59 23.79,9.89 C23.8780772,10.4047365 24.1752043,10.8600905 24.6108778,11.1480139 C25.0465513,11.4359373 25.5819383,11.5307664 26.09,11.41 C26.96,11.34 27.84,11.41 28.72,11.41 L61.09,11.41 L61.09,11.41 C64.41,11.56 66.16,13.52 65.58,16.74 C64.65,21.92 63.58,27.09 62.51,32.24 C61.87,35.24 60.01,36.67 56.87,36.68 L35.06,36.68 C34.853913,36.6641853 34.6554131,36.7611747 34.54124,36.9334723 C34.4270669,37.1057699 34.4151131,37.3263742 34.51,37.51 C34.85,38.51 35.21,39.51 35.61,40.42 C36.01,41.33 36.79,41.1 37.48,41.1 L57.14,41.1 C57.7796714,41.054258 58.4220633,41.1358315 59.03,41.34 C59.9697725,41.6668782 60.5890417,42.5654256 60.56,43.56 C60.6057575,44.5560954 60.0098981,45.4700149 59.08,45.83 C58.3986146,46.0610181 57.6770169,46.1495159 56.96,46.09 L46.18,46.14 L35.87,46.14 C32.67,46.14 32.41,45.96 31.29,43.05 C27.09,32.19 22.87,21.33 18.75,10.44 C18.3455023,8.98297456 17.2070254,7.84449774 15.75,7.44 C14.3005018,6.99656736 12.8780885,6.46900564 11.49,5.86 C9.79,5.15 9.16,3.86 9.73,2.48 C10.3,1.1 11.48,0.66 13.13,1.23 Z M21.06,40.44 L25.32,40.44 L25.32,40.44 C25.8963155,40.4173949 26.3829785,40.8638747 26.41,41.44 C26.4839954,41.756172 26.4158353,42.0888906 26.223477,42.3504978 C26.0311188,42.6121051 25.733854,42.7763644 25.41,42.8 C24.6241308,42.8500921 23.8358692,42.8500921 23.05,42.8 L23.05,42.9 L21.15,42.9 L21.15,42.9 C20.7891501,42.9362733 20.4306846,42.8114485 20.1704124,42.558888 C19.9101401,42.3063276 19.7745933,41.9517775 19.8,41.59 C19.7985092,41.2649495 19.9346492,40.9544503 20.174738,40.7353216 C20.4148268,40.5161929 20.7364369,40.4089045 21.06,40.44 Z M193.656025,21.3055516 C197.812304,22.5428012 200.748466,26.2507773 201,30.58 C201.06,31.94 201,33.3 201,34.66 L201,38.97 L201,38.97 C201.098458,39.9597837 200.538216,40.8975804 199.62,41.28 C198.741522,41.7761876 197.631024,41.5403675 197.03,40.73 C196.34,39.73 195.74,40.25 195.03,40.55 C190.03,42.61 185.03,41.19 182.14,36.88 C179.739097,33.2687529 179.857226,28.5405207 182.435465,25.0536708 C185.013704,21.5668209 189.499746,20.068302 193.656025,21.3055516 Z M145.130171,21.0949716 C149.536517,22.1772923 152.725872,26.0009651 153,30.53 C153.06,31.89 153,33.25 153,34.61 L153.05,34.61 L153.05,38.68 L153.05,38.68 C153.223361,39.7416986 152.68387,40.792285 151.72,41.27 C150.758421,41.8076215 149.544849,41.5107766 148.94,40.59 C148.433333,39.8633333 147.975556,40.0166667 147.551852,40.2588889 L147.394531,40.3523438 C147.23875,40.446875 147.0875,40.54 146.94,40.59 C142.808195,42.4649635 137.937079,41.4331245 134.920375,38.0439062 C131.903671,34.6546879 131.443404,29.6968041 133.784652,25.8101781 C136.1259,21.9235521 140.723825,20.0126509 145.130171,21.0949716 Z M169.76,21.33 C173.81949,22.5368534 176.704568,26.1352309 177,30.36 C177.08,31.79 177,33.23 177,34.67 L177.06,34.67 C177.06,36.11 177.11,37.55 177.06,38.99 C176.99,40.6 176.06,41.49 174.76,41.48 C173.46,41.47 172.55,40.59 172.51,38.94 C172.45,36.39 172.57,33.83 172.51,31.28 C172.425701,28.2491109 169.964069,25.8251139 166.932241,25.7875182 C163.900413,25.7499224 161.379429,28.1121332 161.22,31.14 C161.13,33.45 161.22,35.77 161.22,38.14 C161.22,40.51 160.47,41.57 158.84,41.53 C157.21,41.49 156.57,40.47 156.55,38.23 C156.55,35.76 156.43,33.23 156.6,30.8 C156.714235,27.6314405 158.286992,24.6936954 160.860539,22.8417581 C163.434087,20.9898208 166.719278,20.4317628 169.76,21.33 Z M80.43,16.16 C81.4991445,16.1418071 82.4398036,16.862841 82.7,17.9 C82.8089446,18.5271308 82.8525113,19.1638748 82.83,19.8 L82.8305185,27.5248859 C82.8377778,28.8514222 82.9466667,28.862 84.58,28.89 L86.49,28.89 L86.49,28.89 C89.92,28.78 91.93,26.98 92.49,23.57 L92.49,23.09 L92.49,23.09 C92.6082546,21.8461302 93.6505304,20.8946752 94.9,20.89 C95.5493891,20.9276995 96.1553576,21.228461 96.5780641,21.7228765 C97.0007705,22.2172921 97.2036921,22.8626433 97.14,23.51 C97.1312719,25.6920363 96.384041,27.8068409 95.02,29.51 C94.57,30.05 94.09,30.58 93.56,31.19 C95.25,33 96.74,35 97,37.59 C97,37.99 97.14,38.38 97.15,38.78 C97.2314038,39.423625 97.048776,40.0727895 96.6437333,40.5795638 C96.2386907,41.0863381 95.6457396,41.407549 95,41.47 C93.67,41.58 92.74,40.74 92.47,39.17 L92.47,38.69 L92.47,38.69 C92.2490695,35.7617883 89.7964354,33.5058895 86.86,33.53 C83.0081481,33.2603704 82.865487,33.2503841 82.8602032,36.8396865 L82.86,37.27 L82.86,37.27 C82.9099581,37.985796 82.9099581,38.704204 82.86,39.42 C82.7488715,40.6459556 81.6995958,41.5716889 80.4693482,41.5291749 C79.2391005,41.4866609 78.2562332,40.4907025 78.23,39.26 C78.1999577,38.8605641 78.1999577,38.4594359 78.23,38.06 L78.23,19.63 L78.23,19.63 C78.170693,19.0885885 78.163995,18.5427037 78.21,18 C78.4488786,16.9552839 79.359101,16.2008654 80.43,16.16 Z M238.438905,20.9992698 C242.850216,21.7099503 246.304567,25.1762591 247,29.59 C247.099294,31.2551878 247.099294,32.9248122 247,34.59 L247.21,34.61 L247.21,38.68 L247.21,38.68 C247.356021,39.7454239 246.793078,40.7822116 245.82,41.24 C244.856402,41.7623824 243.653674,41.4681898 243.04,40.56 C242.5,39.8 242.04,40.15 241.41,40.44 C237.412318,42.4358135 232.584609,41.635144 229.445244,38.45566 C226.305878,35.2761759 225.566573,30.4386903 227.612986,26.466672 C229.659399,22.4946537 234.027593,20.2885893 238.438905,20.9992698 Z M128.96,28.77 C129.024958,29.3247717 129.024958,29.8852283 128.96,30.44 C128.855579,31.516608 127.97092,32.3499829 126.89,32.39 C125.814017,32.5047254 124.815539,31.8164127 124.54,30.77 C124.36,30.17 124.35,29.51 124.18,28.9 C123.647717,26.8005264 121.666706,25.4006682 119.51,25.6 C117.342328,25.6845079 115.580682,27.3774066 115.41,29.54 C115.318571,30.6828571 115.308776,31.8257143 115.31344,32.9685714 L115.322886,34.6828571 C115.323469,34.9685714 115.322857,35.2542857 115.32,35.54 C115.32,36.74 115.38,37.94 115.32,39.13 C115.338276,39.7799002 115.081831,40.4074133 114.613615,40.8584991 C114.145399,41.3095849 113.508768,41.5424749 112.86,41.5 C112.252792,41.4826487 111.679217,41.2172382 111.272955,40.765626 C110.866693,40.3140137 110.663235,39.715653 110.71,39.11 C110.63,37.43 110.71,35.75 110.71,34.11 L110.71,34.06 L110.70375,33.2600463 L110.70375,33.2600463 L110.67625,31.66125 C110.665,30.8625 110.665,30.065 110.71,29.27 C111.121981,24.6236083 114.94953,21.0228603 119.6124,20.8951104 C124.275271,20.7673605 128.294232,24.1531357 128.96,28.77 Z M104.134322,22.7713215 C105.287397,22.8115158 106.235714,23.6929382 106.36,24.84 C106.400067,25.4760363 106.400067,26.1139637 106.36,26.75 L106.36,38.95 L106.36,38.95 C106.25,40.55 105.42,41.45 104.07,41.48 C103.416936,41.5026157 102.785557,41.2439365 102.336094,40.7696088 C101.88663,40.2952812 101.662288,39.6509022 101.72,39 C101.675,37.845 101.675,36.6875 101.68625,35.53 L101.71375,33.2157407 C101.7175,32.8302778 101.72,32.445 101.72,32.06 L101.69,32.09 L101.69,26.35 L101.69,26.35 C101.661263,25.7920577 101.688061,25.2326405 101.77,24.68 C101.973857,23.5443767 102.981247,22.7311271 104.134322,22.7713215 Z M259.957696,20.8765054 C264.758546,20.8242086 268.794218,24.468683 269.23,29.25 C269.332967,29.8834192 269.249584,30.5331114 268.99,31.12 C268.6024,31.9389711 267.754178,32.4383916 266.85,32.38 C265.953174,32.3678094 265.157192,31.802662 264.85,30.96 C264.715707,30.4185686 264.628713,29.8664924 264.59,29.31 C264.197919,26.9967687 262.09773,25.3705348 259.76,25.57 C257.408563,25.6930052 255.570731,27.6454267 255.59,30 C255.51,32.47 255.59,34.95 255.59,37.42 C255.62006,37.9795966 255.62006,38.5404034 255.59,39.1 C255.596326,40.3618719 254.600955,41.4014817 253.34,41.45 C252.676696,41.4944826 252.026383,41.2510386 251.555347,40.781917 C251.084311,40.3127953 250.83822,39.6634793 250.88,39 C250.8,37.33 250.88,35.65 250.88,34 L250.87,34 C250.87,32.49 250.79,31 250.87,29.45 C251.201523,24.6603246 255.156846,20.9288023 259.957696,20.8765054 Z M207.09,16.1 C208.354426,16.077527 209.401878,17.0759493 209.44,18.34 C209.54,19.665 209.508056,20.9969444 209.500417,22.3300463 L209.5,27.44 L209.5,27.44 C209.5,28.44 209.74,28.95 210.83,28.88 C211.92,28.81 212.92,28.93 213.94,28.82 C216.565167,28.611348 218.693411,26.6078056 219.06,24 C219.11,23.68 219.06,23.35 219.14,23 C219.285588,21.7552251 220.367977,20.8343211 221.62,20.89 C222.882616,20.9910846 223.83794,22.0746699 223.78,23.34 C223.797297,25.6804498 222.978088,27.9501191 221.47,29.74 C221.07,30.21 220.66,30.68 220.19,31.23 C222.133851,32.9608695 223.384421,35.3376634 223.71,37.92 C223.790012,38.4704409 223.790012,39.0295591 223.71,39.58 C223.543235,40.6512027 222.624085,41.4432814 221.54,41.45 C220.460582,41.4865783 219.498701,40.7734596 219.22,39.73 C219.14091,39.2599247 219.087498,38.7858885 219.06,38.31 C218.691237,35.8573431 216.74784,33.9424653 214.29,33.61 L213.82,33.54 C209.5,33.09 209.5,33.09 209.49,37.44 C209.520301,38.0772535 209.500238,38.7159048 209.43,39.35 C209.300037,40.5423176 208.282693,41.4390256 207.083493,41.4182602 C205.884293,41.3974948 204.898605,40.4661024 204.81,39.27 C204.779958,38.8705641 204.779958,38.4694359 204.81,38.07 L204.81,19.62 C204.785002,19.2203906 204.785002,18.8196094 204.81,18.42 C204.825522,17.1606425 205.831103,16.13742 207.09,16.1 Z M276.11,17.45 C276.231569,17.9130156 276.282145,18.3918033 276.26,18.87 C276.35,21.78 276.35,21.78 279.18,21.79 C281.09,21.79 283.01,21.73 284.92,21.79 C285.460606,21.7542361 285.99036,21.9534371 286.373461,22.3365388 C286.756563,22.7196405 286.955764,23.2493941 286.92,23.79 C286.92,24.93 286.3,25.63 285.01,25.79 C284.454055,25.8300878 283.895945,25.8300878 283.34,25.79 L278.08,25.79 L278.08,25.79 C276.33,25.79 276.34,25.86 276.31,27.54 C276.31,29.45 276.26,31.36 276.31,33.28 C276.239755,35.0489872 277.394183,36.6344437 279.099293,37.1107314 C280.804403,37.5870191 282.613344,36.8293192 283.47,35.28 C283.61,35.08 283.69,34.85 283.83,34.66 C284.187266,34.0365714 284.849988,33.6510986 285.568525,33.6487854 C286.287063,33.6464723 286.952253,34.0276701 287.313526,34.6487855 C287.674798,35.2699009 287.677266,36.0365715 287.32,36.66 C286.398165,38.8274318 284.526994,40.4476377 282.25,41.05 C279.997975,41.7210312 277.56299,41.3312323 275.632977,39.990729 C273.702963,38.6502257 272.487508,36.5045878 272.33,34.16 C272.18,31.54 272.33,28.9 272.33,26.27 L272.28,26.39 L272.28,19.21 L272.28,19.21 C272.256529,18.6543169 272.293412,18.0977273 272.39,17.55 C272.568202,16.735689 273.276841,16.1465305 274.11,16.12 C275.008875,16.0282745 275.846951,16.5855953 276.11,17.45 Z M188.441453,26.0548146 C186.361016,26.9690922 185.037642,29.0481323 185.09,31.32 C185.113579,32.8043893 185.728759,34.2179467 186.798963,35.2468446 C187.869167,36.2757425 189.305832,36.8348363 190.79,36.8 C193.062169,36.76294 195.087537,35.3588001 195.919261,33.2440047 C196.750984,31.1292093 196.22475,28.7215545 194.586567,27.1465999 C192.948384,25.5716454 190.521891,25.140537 188.441453,26.0548146 Z M140.553694,26.0234961 C138.461531,26.9087391 137.109768,28.9683501 137.13,31.24 C137.135263,32.7251423 137.732359,34.1469139 138.789068,35.1904849 C139.845778,36.2340559 141.274908,36.8133171 142.76,36.8 C145.031725,36.791811 147.074264,35.4143865 147.933263,33.3113119 C148.792262,31.2082373 148.298134,28.7947132 146.681754,27.1984304 C145.065374,25.6021476 142.645857,25.1382531 140.553694,26.0234961 Z M232.865972,27.0924641 C231.239221,28.733792 230.76903,31.1970599 231.676837,33.3221867 C232.584643,35.4473134 234.689453,36.8105985 237,36.77 C240.094414,36.7534719 242.591076,34.2344383 242.58,31.14 C242.599986,28.8291825 241.217979,26.7366181 239.084839,25.8478043 C236.951699,24.9589906 234.492723,25.4511362 232.865972,27.0924641 Z M7.12,33.88 C9.59,33.86 12.06,33.87 14.54,33.87 L21.23,33.87 C21.789268,33.8680546 22.3477703,33.9115308 22.9,34 C23.217835,34.0229026 23.5132062,34.1723216 23.719967,34.4147956 C23.9267278,34.6572696 24.0276022,34.9725386 24,35.29 C23.9942995,35.8611271 23.5668357,36.3398865 23,36.41 C22.6475479,36.4625798 22.2922266,36.4926605 21.9361922,36.5001054 L7.17,36.5 C5.17,36.5 4.49,36.1 4.66,35.1 C4.91,33.63 6.12,33.89 7.12,33.88 Z M52.3,25.35 C52.4578201,27.2005429 52.7418139,29.0381501 53.15,30.85 C53.1749631,31.3323092 53.5410594,31.7278615 54.02,31.79 C56.59,32.34 57.58,31.73 58.1,29.21 C58.35,27.98 58.59,26.75 58.86,25.38 C56.6788034,25.1703739 54.4830226,25.1603322 52.3,25.35 Z M37.27,25.23 L30,25.23 C30.4831599,27.2967851 31.1802534,29.3076316 32.08,31.23 C32.29,31.8 32.78,31.82 33.26,31.82 L40.49,31.79 C40.0382824,29.8662588 39.4569555,27.9752759 38.75,26.13 C38.52,25.35 37.96,25.23 37.27,25.23 Z M48.34,25.16 C46,25.27 43.73,25.24 41.06,25.24 C41.76,27.33 42.37,29.04 42.92,30.76 C43.0455233,31.3911283 43.6296849,31.8238406 44.27,31.76 L49.52,31.76 L49.52,31.76 C50.45,31.76 50.84,31.45 50.62,30.49 C50.33,29.17 50.04,27.85 49.88,26.49 C49.76,25.49 49.32,25.14 48.34,25.16 Z M20.06,27.54 C20.87,27.54 21.5,27.89 21.46,28.8 C21.42,29.71 20.78,30 20,30 L13.49,30 C12.6,30 11.85,29.77 11.86,28.71 C11.87,27.65 12.55,27.54 13.35,27.54 L20.06,27.54 L20.06,27.54 Z M18.4750132,21.0792702 C18.7225637,21.2909164 18.8725496,21.5947758 18.89,21.92 C18.94,22.76 18.39,23.23 17.54,23.24 L2.21,23.24 L2.21,23.24 C1.74960521,23.2818108 1.30512628,23.0598083 1.06200247,22.6666133 C0.818878666,22.2734183 0.818878666,21.7765817 1.06200247,21.3833867 C1.30512628,20.9901917 1.74960521,20.7681892 2.21,20.81 L4.37,20.81 L4.37,20.81 L9.91,20.8 L17.58,20.8 C17.9039841,20.7666893 18.2274628,20.867624 18.4750132,21.0792702 Z M60.4,16.39 L60.38,16.4 L51.81,16.4 L51.81,16.4 C50.81,16.4 50.6,16.88 50.81,17.74 C51.06,19.06 51.33,20.39 51.54,21.74 C51.66,22.47 51.96,22.85 52.77,22.83 L58.26,22.83 L58.26,22.83 C58.99,22.83 59.44,22.65 59.57,21.83 C60.0246187,20.0483187 60.3026276,18.2261877 60.4,16.39 Z M38.26,16.4 C38.6907647,18.2648432 39.2453268,20.0989069 39.92,21.89 C40.0348924,22.4546141 40.5561991,22.8423629 41.13,22.79 L49.13,22.79 L49.13,22.79 C48.81,20.86 48.53,19.15 48.24,17.43 C48.13,16.81 47.82,16.43 47.14,16.43 L38.26,16.4 Z M26.36,16.43 C27.14,18.48 27.79,20.18 28.43,21.88 C28.5776027,22.4335867 29.0987206,22.8034123 29.67,22.76 C31.694,22.768 33.718,22.776 35.80344,22.77888 L37.3776596,22.7791413 L37.2216967,22.0667544 C36.8336235,20.3837129 36.314875,18.7331093 35.67,17.13 C35.578186,16.7268054 35.2234377,16.4380568 34.81,16.43 C32.07,16.43 29.33,16.33 26.36,16.43 Z M103.94,16.11 C104.776001,16.099282 105.554217,16.5353797 105.981499,17.2540192 C106.408782,17.9726588 106.420218,18.8646617 106.011499,19.5940192 C105.602781,20.3233767 104.836001,20.779282 104,20.79 C102.707654,20.8065685 101.646569,19.7723463 101.63,18.48 C101.613431,17.1876537 102.647654,16.1265685 103.94,16.11 Z M14.78,14.09 C15.58,14.09 16.25,14.34 16.28,15.25 C16.31,16.16 15.59,16.56 14.69,16.56 L8.48,16.56 L8.48,16.56 C7.45,16.56 6.82,16.25 6.83,15.28 C6.84,14.31 7.49,14.08 8.33,14.09 L14.78,14.09 Z" id="Combined-Shape"></path>
        </g>
    </g>
</svg>