<svg xmlns="http://www.w3.org/2000/svg" width="21" height="21" viewBox="0 0 21 21">
    <g fill="none" fill-rule="evenodd">
        <g fill="#F2BF4C">
            <g>
                <g>
                    <path d="M16.369 20.741c-.159.001-.316-.038-.457-.114l-5.064-2.78-5.064 2.78c-.336.185-.742.153-1.048-.081-.306-.235-.458-.632-.392-1.023l.993-5.864-4.091-4.165C.986 9.22.89 8.82.998 8.452c.117-.378.429-.652.804-.708l5.66-.865 2.492-5.342c.166-.36.513-.588.894-.588.38 0 .728.228.894.588l2.522 5.332 5.66.864c.375.056.687.331.804.709.107.368.012.769-.248 1.041l-4.091 4.166.993 5.863c.072.4-.083.806-.398 1.042-.18.132-.396.198-.615.187z" transform="translate(-100 -190) translate(82 158) translate(18 32)"/>
                </g>
            </g>
        </g>
    </g>
</svg>
