<svg xmlns="http://www.w3.org/2000/svg" width="8" height="9" viewBox="0 0 8 9">
    <g fill="none" fill-rule="evenodd">
        <g fill="#731C23" fill-rule="nonzero">
            <g>
                <path d="M4 0C1.79 0 0 1.79 0 4s1.79 4 4 4 4-1.79 4-4-1.79-4-4-4zM1.067 4c0-.646.212-1.241.567-1.726l4.092 4.092c-.485.355-1.08.567-1.726.567-1.617 0-2.933-1.316-2.933-2.933zm5.356 1.65L2.35 1.577c.47-.322 1.039-.51 1.65-.51 1.617 0 2.933 1.316 2.933 2.933 0 .611-.188 1.18-.51 1.65z" transform="translate(-134 -420) translate(134 420.5)"/>
            </g>
        </g>
    </g>
</svg>
