<svg xmlns="http://www.w3.org/2000/svg" xmlns:xlink="http://www.w3.org/1999/xlink" width="252" height="189" viewBox="0 0 252 189">
    <defs>
        <path id="qfp3jlw8aa" d="M35.473 4.574C23.723 8.61 17.718 12.645 2.106 3.535c-1.131-.66-2.47.458-2.014 1.686 4.897 13.17 24.207 56.342 63.866 46.033 45.825-11.911 64.968 7.12 64.968 7.12S104.634.96 65.247.127C64.45.111 63.67.102 62.904.102c-12.648 0-20.92 2.236-27.43 4.472"/>
        <path id="na182wl4mb" d="M120.674.222C-6.9 56.309.092 129.862.092 129.862c103.6-2.127 120.615-109.473 122.782-128.008.114-.982-.67-1.767-1.566-1.767-.209 0-.424.042-.634.135"/>
        <path id="yrhdwrvkmc" d="M12.416 4.641C18.8 16.73 23.041 38.483 30.02 50.523c6.978 12.04 2.07-2.202 1.4-9.789-.67-7.586-1.616-22.078 5.333-22.153 6.948-.073 5.05 19.497 12.635 35.023 7.585 15.526 22.78 43.328 22.78 43.328H30.02S2.293 65.299.422 37.115C-1.45 8.93 5.458 27.688 9.803 41.089c4.345 13.402 9.838 22.333 13.795 24.777 3.958 2.443-9.777-17.656-13.855-38.87C5.665 5.785 6.033-7.446 12.416 4.642z"/>
        <path id="w6dpj1rlze" d="M1.933.602C1.056.784.444 1.35.08 1.8L.59 3.016c1.705 1.037 3.548 1.63 5.493 1.9L6.06 4.32c-.013-.342-.181-.66-.457-.863L2.916 1.47s.055-.397.802-.482c.748-.085.787-.887.787-.887s-1.038.182-2.572.5"/>
        <path id="exbf6zynmf" d="M.213.132c.105 0 .211 0 .323.007L.112.106C.15.118.175.118.213.133z"/>
        <path id="7tytr7foei" d="M.367.252v-.01.01z"/>
        <path id="87vcuxrdyk" d="M.222.265L.234.258C.228.258.225.255.222.252v.013z"/>
        <path id="clkv6nix4m" d="M.065 2.759c-.046.526.36.984.888 1.006 1.795.074 5.634.22 7.012.158.207-.009.342-.221.266-.414-.065-.16-.189-.291-.346-.364L1.543.231.423.05S.184 1.41.066 2.759"/>
        <path id="80uqsr795n" d="M.11.299l.193 1.628s1.111.517 1.87-.065L1.713.047.11.3z"/>
        <path id="7qohf8armo" d="M.07 2.574c-.067.33.163.645.498.678.593.059 1.505.133 2.236.128.337-.002.6-.295.56-.63C3.281 2.085 3.03.99 2.25.139L.823.06S.441.748.07 2.574"/>
        <path id="fm0hzjpjtp" d="M.02.18l.452 2.463s.447.332 1.33.092L1.586.085.021.181z"/>
        <path id="kply1cn6nq" d="M1.836.016L.103 5.03c-.03.083.005.175.082.217.473.262 2.175 1.017 4.227-.284.213-.136.359-.357.392-.608l.56-4.339H1.837z"/>
        <path id="4dvgy34dmr" d="M.143.102C.112.112.095.144.104.175l.917 2.98c.007.02.024.036.046.04l.878.156.328 2.204c.003.018.014.034.03.043l2.378 1.277c.008.004.018.007.027.007.02 0 .041-.012.052-.031.015-.028.004-.064-.024-.08L2.384 5.51l-.33-2.217c-.003-.024-.022-.044-.047-.048l-.885-.157L.216.14C.208.116.186.1.16.1.154.1.15.1.143.101"/>
        <path id="55nt3xvrzt" d="M6.505.04c-.263.515-1 .77-1.01.774-.037.015-3.802 1.448-5.33.609-.03-.016-.065-.005-.08.023-.016.028-.005.064.023.08.369.202.853.28 1.382.28 1.73 0 3.927-.837 4.045-.882C5.567.913 6.324.65 6.61.093c.015-.029.003-.064-.025-.079C6.575.01 6.566.008 6.557.008c-.02 0-.041.012-.052.032"/>
        <path id="mdfz74f4kv" d="M6.97.075c-.007.005-.627.508-1.776 1.023-1.06.475-2.8 1.058-5.068 1.136-.032.001-.057.028-.056.06.001.032.027.057.058.057H.13c2.29-.079 4.046-.668 5.117-1.149C6.408.682 7.037.17 7.043.165c.025-.02.029-.057.008-.082C7.04.069 7.023.062 7.006.062c-.013 0-.026.004-.037.013"/>
        <path id="04vb8syedx" d="M.415.132c-.893.396.132 2.11.782 2.273l.325-.771S1.347.078.65.078C.578.078.5.095.415.132"/>
        <path id="9tbrriof5y" d="M.367.252v-.01.01z"/>
        <path id="3hjyqe2mgA" d="M0.109 0.08L4.812 2.618 5.181 2.731 0.145 0.013z"/>
        <path id="tfzuqy0c6B" d="M.016 2.258l8.036 4.337c.415.224.934.07 1.158-.346l.385-.714c.224-.415.07-.934-.346-1.158L1.213.04.016 2.258z"/>
        <path id="qc1d2agp1C" d="M1.596.128l-1.464 2.7c-.04.074-.013.166.061.205.074.04.166.013.205-.06L1.856.27c.04-.073.013-.165-.06-.205-.024-.012-.047-.018-.07-.018-.053 0-.102.03-.13.081"/>
        <path id="whurx4u0bD" d="M.099 3.163c-.072 1.66.053 3.856.173 5.98.029.514.058 1.027.084 1.534l.307-.016C.636 10.154.607 9.64.578 9.126.352 5.144.216.613 1.142.313l.273-.237h-.031C.45.075.182 1.223.099 3.162"/>
        <path id="nw6lcgj1qE" d="M.087 1.23c0 .633.419 1.146.936 1.146.516 0 .935-.513.935-1.146 0-.633-.419-1.147-.935-1.147C.506.083.087.597.087 1.23"/>
        <path id="q45tgcjjhF" d="M.063 73.191c0 40.41 32.758 73.167 73.167 73.167 40.41 0 73.167-32.758 73.167-73.167 0-40.41-32.758-73.167-73.167-73.167S.063 32.782.063 73.19"/>
        <path id="0szdx1ui4H" d="M.036.848c0 .457.37.828.828.828.457 0 .828-.37.828-.828 0-.457-.37-.827-.828-.827C.407.02.036.39.036.848"/>
        <path id="x1lqshbtuI" d="M.075.57c0 .262.212.474.474.474.26 0 .472-.212.472-.473S.81.098.55.098C.287.098.075.31.075.57"/>
        <path id="t34d8e8d3J" d="M.092.851c0 .425.344.769.768.769.425 0 .769-.344.769-.769 0-.424-.344-.768-.769-.768C.436.083.092.427.092.85"/>
        <path id="uv0ym9y8uK" d="M.049.911c0 .457.37.828.827.828.458 0 .828-.37.828-.828 0-.457-.37-.828-.828-.828C.42.083.05.454.05.911"/>
        <path id="n0x677kzdL" d="M.036.74c0 .393.318.71.71.71.392 0 .71-.317.71-.71 0-.391-.318-.709-.71-.709-.392 0-.71.318-.71.71"/>
        <path id="mm8jrgoh9M" d="M0.048 2.874L0.048 43.298 0.622 43.298 0.622 0.007z"/>
        <path id="9w5spbrqoO" d="M5.305.112v2.883c0 1.826-.91 3.504-2.375 4.594C1.17 8.898.03 10.991.03 13.352v58.12c0 3.966 3.215 7.181 7.181 7.181h19.523c3.966 0 7.18-3.215 7.18-7.18v-58.12c0-2.362-1.139-4.455-2.898-5.764-1.465-1.09-2.375-2.768-2.375-4.594V.112H5.305z"/>
        <path id="7n38q4s6yQ" d="M.066.088C.045.31.03.534.03.762v58.12c0 3.966 3.215 7.18 7.181 7.18h19.523c3.966 0 7.18-3.214 7.18-7.18V.762c0-.228-.013-.452-.034-.674H.066z"/>
        <path id="6xn5zxev8R" d="M.086 2.071c.375.7.681 1.452 1.009 2.095.294.498.37.991.34 1.49 4.693.437 8.491.236 8.491.236C10.588 4.618 8.882.006 8.882.006 6.252 1.376 3.118 1.938.086 2.071"/>
        <path id="umnixgxshT" d="M.07.424L2.507 16.04c.037.24.244.416.486.416.28 0 .505-.234.49-.514C3.276 11.794 1.944.563 1.609.067L.07.424z"/>
        <path id="18bsz8yk2V" d="M.095 15.942c-.014.28.21.514.491.514.243 0 .449-.176.486-.416L3.51.424 1.971.067C1.636.563.304 11.794.095 15.942"/>
        <path id="0l4c2qq81X" d="M.542 1.86c-.351.235-.544.644-.49 1.063.266 2.116 1.365 8.965 4.987 15.654.19.353.245.764.161 1.156l-.63 2.928-1.166 1.094H6.41L8.41 18.34l-.856-.27c-.663-.21-1.118-.82-1.13-1.516l-.1-5.81C6.41 8.155 4.736 6.37 4.736 6.37l4.8-.233L4.757.062S2.773.369.542 1.86"/>
        <path id="5xep6aff8Y" d="M5.457.116S4.7 4.76 3.9 5.282c-.8.52-2.237.052-2.237.052S.536 5.802.132 6.33c-.274.358 2.946.831 4.573.048 0 0 2.255-3.924 2.255-5.944 0 0-.145-.332-1.133-.332-.112 0-.235.004-.37.014"/>
        <path id="wn21d9evkZ" d="M.005 1.42l.211.977c.658-.338 2.34-1.38 1.412-2.172-.154-.13-.301-.186-.44-.186C.489.04.005 1.42.005 1.42"/>
        <path id="e0yju8w8iaa" d="M.185 1.416L.558.71S.788.16.289.032C.269.026.249.024.232.024c-.411 0-.047 1.392-.047 1.392"/>
        <path id="htc491spoab" d="M.702.193L.08 1.64c.364.118 1.323-.272 1.506-1.068.09-.388-.119-.488-.356-.488-.248 0-.527.11-.527.11"/>
        <path id="tri8ta6etac" d="M.287.227c-.26.247-.271.658-.025.918.247.26.657.272.918.025.26-.246.271-.657.025-.917C1.077.118.905.05.733.05c-.16 0-.32.059-.446.177"/>
        <path id="1m0k4sedkad" d="M.255.241c-.26.247-.272.657-.025.918.246.26.657.272.917.025.26-.246.272-.657.025-.918C1.045.132.873.064.701.064.54.064.38.123.255.24"/>
        <path id="arudu6nl1ae" d="M.264.226c-.26.247-.272.657-.025.918.246.26.657.271.917.025.26-.246.272-.657.025-.918C1.054.116.881.048.71.048c-.16 0-.32.06-.446.178"/>
        <path id="ojlrde6nkaf" d="M.249.242c-.26.246-.272.657-.026.917.247.26.658.272.918.026.26-.247.272-.657.025-.918C1.038.132.866.064.695.064c-.16 0-.321.06-.446.178"/>
        <path id="xajfju76qag" d="M.093.126C.07.145.066.178.084.201c.254.32.79.553 1.309.778.102.045.204.089.303.134.007.003.014.004.021.004.02 0 .04-.011.048-.03.012-.027 0-.059-.026-.07L1.435.882C.928.663.405.434.167.135.157.122.14.115.126.115.114.115.102.12.093.126"/>
        <path id="fv4m2nvx9ah" d="M.36.047L.23 3.25s.836.752.582 1.943c-.098.454-.396.518-.685.491.033.304.014.656-.11.922 1.005.427 2.279.579 2.496-1.005C2.894 2.831.457.044.363.044.36.044.36.044.358.047"/>
        <path id="g4roiguweai" d="M.035 2.37s5.406 11.782 8.243 16.663c0 0 .563 3.07 0 4.037l-.48.213 2.24-.067s.2-4.13.044-4.361c-.155-.231-.466-.216-.466-.216s-.961-7.612-3.744-9.236L3.176.115.036 2.37z"/>
        <path id="w2crbz4muaj" d="M2.917 1.606c.18.74.34 2.655-.115 2.879-.456.223-1.766.262-1.766.262s-.927.092-.957.578c-.003.054 1.75.03 2.702.012.352-.006.652-.253.726-.597l.72-3.778c.068-.359-.16-.708-.516-.79L3.309.082s-.572.786-.392 1.525"/>
        <path id="vsd3u9gcqak" d="M1.753 1.104l-1.596.91c-.177.1-.104.37.1.369 1.593-.016 5.164-.067 5.482-.199.41-.17-.15-1.642-.738-2.14l-3.248 1.06z"/>
        <path id="7u8gsfxg5al" d="M4.563 20.3l-2.338 1.467s1.172-.199 2.04-.262c.87-.063 1.669-1.06 1.669-1.06l-.28-.447S4.778 3.19 4.99 1.281L.08.102S3.575 17.003 4.563 20.3"/>
        <path id="l7mc239amam" d="M1.521.393L.141 4.617c-.108.329.017.69.305.88l.283.19C.523 6.299.253 6.935.616 7.469c1.26 1.848 2.855 5.555 2.855 5.555l5.67.025-.138-1.6 1.739-9.814C7.909 1.685 3.372.491 2.034.12 1.996.11 1.958.104 1.92.104c-.177 0-.34.113-.4.289"/>
        <path id="b5o6pyshfan" d="M.107 3.708c.88 1.16 3.581.615 3.581.615L3.015.231 1.29.075S.087 3.682.107 3.708"/>
        <path id="n04t79l17ao" d="M3.068.215C2.953.286-.616 1.76.151 5.466c.045.22.192.405.396.496.524.234 1.651.634 3 .497 1.87-.19 3.094-3.453 3.042-4.402C6.546 1.27 4.944.039 3.746.039c-.25 0-.481.053-.678.176"/>
        <path id="qfwb2tvqaap" d="M.346.023C.23.023.135.114.13.23L.08 1.523h.8L.827.23C.823.114.727.023.612.023H.346z"/>
        <path id="qtnu9fbylaq" d="M.257.066C.17.066.097.15.097.254s.072.188.16.188h3.241c.089 0 .16-.084.16-.188s-.071-.188-.16-.188H.258z"/>
        <path id="wfpkuqjwkar" d="M.884.08C.316 1.836-.05 2.694.041 3.174c.002.013.007.026.01.039.816.073 2.494.12 4.39-.096 0-.033-.002-.067-.01-.1C3.928 1.023 1.873.001 1.873.001L.884.08z"/>
        <path id="ed8dpaf5jas" d="M.051.182c.044.16.162.285.314.316 1.16.244 3.003.048 3.778-.053.17-.022.295-.18.298-.359C2.545.302.867.254.051.182"/>
        <path id="8o0v1igzcat" d="M.322.096L.02 1.946c-.04.244.116.47.339.503.249.037.497.027.67.011.143-.013.26-.127.292-.28L1.754.096H.322z"/>
        <path id="zaymbqps7au" d="M4.36.281C2.726.327.79.186.03.123c-.08.17.028.384.213.386l5.797.037c.108 0 .195-.094.199-.212.003-.11.004-.217.003-.322-.282.115-.828.24-1.884.269"/>
        <path id="h7h0ncfojav" d="M4.446.12C1.87.738.566 2.162.054 2.877c-.01.014-.016.03-.023.044.76.063 2.696.203 4.328.158 1.056-.03 1.602-.154 1.884-.27-.01-1.771-.56-2.728-.56-2.728L4.446.12z"/>
        <path id="4tb7gmeuhaw" d="M.113 2.205c0 .179.116.334.277.366.298.061.639.039.85.014.117-.015.21-.114.226-.243.066-.543.235-1.944.249-2.036L.113.006v2.199z"/>
        <path id="vzqxhml1sax" d="M2.482.216C2.426.27.11 4.817.11 4.817l2.625 1.268L5.57 2.1S3.974.042 2.931.042c-.167 0-.32.052-.449.174"/>
        <path id="t9v49zbthay" d="M.014 1.48s.508.897 1.502-.001C2.315.757 1.807.115 1.163.061L1.128.059C.5.06.014 1.48.014 1.48"/>
        <path id="gyynpxdziaz" d="M1.185.063C-.105.278.111 2.856.111 2.856s.214.86.644.86c.43 0 2.578-1.29 2.364-1.934C2.919 1.186 2.538.04 1.462.04c-.087 0-.18.008-.277.024"/>
        <path id="6u4haajzjaA" d="M.892.19C.013.63.013 1.29.013 1.29s.44.879 1.099.66c.33-.11.88-.056 1.428 0 .55.054 1.1.11 1.429 0 0 0 .22-.88-.22-.88 0 0-1.453-.969-2.422-.969-.161 0-.31.027-.435.09"/>
        <path id="xrw41puqhaB" d="M0.255 0.43L0.255 5.066 0.396 5.066 0.396 0.101z"/>
        <path id="6ykp75ftaaD" d="M1.19.098C.592.098.108.583.108 1.181v7.583h2.187V1.18C2.295.583 1.81.098 1.212.098H1.19z"/>
        <path id="gs0cj07xcaE" d="M.616.023c-.33 0-.585.288-.545.615l.195 1.607c.038.305.278.546.583.581.515.059 1.341.12 2.15.034.355-.038.586-.397.477-.738C3.28 1.502 2.92.571 2.398.023H.616z"/>
        <path id="xqfgp5owdaF" d="M3.936 1.446C3.204 1.888.957 3.469.957 3.469S.682 3.43.38 3.485c-.449.08-.386.745.07.745h1.42c.266 0 .517-.122.68-.333.442-.576 1.36-1.699 1.799-1.728.59-.04.515 2.06.515 2.06h.33l.42-2.609C5.72.964 5.394.313 4.804.006c0 0-.135.998-.868 1.44"/>
        <path id="t6tjokqsxaG" d="M1.497.172L.471.627c-.282.126-.448.422-.405.728l.531 3.856c.01.072.028.145.064.209.349.631 1.394.946 2.205 1.099.495.093.942.173.823-.316L2.451.643c-.078-.323-.365-.53-.673-.53-.094 0-.189.019-.28.06"/>
        <path id="qeq7febreaH" d="M.013 1.142l.17.786C.713 1.656 2.065.817 1.319.18 1.195.076 1.076.031.964.031c-.562 0-.95 1.11-.95 1.11"/>
        <path id="06n1lidqcaI" d="M0.213 0.374L0.213 5.01 0.354 5.01 0.354 0.045z"/>
        <path id="y81ky4tw8aK" d="M1.17.042C.574.042.089.527.089 1.125v7.583h2.187V1.125C2.275.527 1.79.042 1.192.042h-.021z"/>
        <path id="g1ck79nueaL" d="M.939.09c-.508 0-.92.412-.92.92v7.647h1.858V1.01c0-.508-.412-.92-.92-.92H.94z"/>
        <path id="p5tfm5pl7aN" d="M.199.01C.126.01.067.102.067.216c0 .114.059.206.132.206L2.864.413c.073 0 .13-.083.13-.197S2.935.01 2.862.01H.2z"/>
        <linearGradient id="gy02ulsrzg" x1=".031%" x2="49.441%" y1="1.873%" y2="1.873%">
            <stop offset="0%" stop-color="#2A3482"/>
            <stop offset="100%" stop-color="#140E42"/>
        </linearGradient>
    </defs>
    <g fill="none" fill-rule="evenodd">
        <g>
            <g>
                <path fill="#ECF6FF" d="M15.757 156.414s-31.569-37.266-5.339-77.612c23.273-35.798 50.407-33.35 70.314-18.824 8.48 6.187 32.925.763 53.731-35.663 28.374-49.674 126.73-19.547 108.796 56.879-8.679 36.985 9.363 50.361 7.622 73.58-4.64 19.715-34.722 39.824-71.098 11.57-23.283-18.083-57.629 23.036-107.381 22.653-16.057-.005-32.314-8.146-48.77-24.422" transform="translate(-54 -107) translate(54 107)"/>
                <g>
                    <g transform="translate(-54 -107) translate(54 107) translate(2.036 8.412) translate(0 106.744)"/>
                    <g transform="translate(-54 -107) translate(54 107) translate(2.036 8.412) translate(104.804 7.302)"/>
                    <g>
                        <g transform="translate(-54 -107) translate(54 107) translate(2.036 8.412) translate(51.295 .075)">
                            <mask id="ejftd96gwd" fill="#fff">
                                <use xlink:href="#yrhdwrvkmc"/>
                            </mask>
                            <path fill="#43B02A" d="M30.019 96.932S2.293 65.299.422 37.115C-1.45 8.93 5.458 27.688 9.803 41.089c4.345 13.402 9.838 22.333 13.795 24.777 3.958 2.443-9.777-17.656-13.855-38.87C5.665 5.785 6.033-7.446 12.416 4.642 18.8 16.73 23.041 38.483 30.02 50.523c6.978 12.04 2.07-2.202 1.4-9.789-.67-7.586-1.616-22.078 5.333-22.153 6.948-.073 5.05 19.497 12.635 35.023 7.585 15.526 22.78 43.328 22.78 43.328H30.02z" mask="url(#ejftd96gwd)"/>
                        </g>
                        <path fill="#FFF" d="M3.079 30.054c.762 2.848 1.575 5.687 2.468 8.5.212.705.449 1.404.674 2.106l.68 2.106 1.425 4.187c1.944 5.567 4.097 11.058 6.424 16.47 2.305 5.423 4.924 10.702 7.68 15.904l2.124 3.874c.171.326.36.642.553.955l.568.947L26.807 87l1.127 1.903c.384.629.8 1.236 1.2 1.855.81 1.232 1.616 2.467 2.409 3.715l.004.007c.046.072.025.166-.047.212-.068.043-.156.026-.204-.037-.896-1.177-1.777-2.366-2.657-3.56-.436-.598-.89-1.185-1.312-1.794l-1.224-1.855-1.218-1.86-.607-.932c-.204-.31-.403-.623-.585-.945l-2.245-3.84c-.765-1.271-1.424-2.6-2.124-3.907l-1.03-1.971c-.169-.33-.346-.656-.508-.989L17.307 72 15.4 67.982c-.61-1.35-1.186-2.716-1.78-4.074-2.323-5.452-4.401-11.007-6.226-16.642-.445-1.412-.888-2.825-1.316-4.242-.406-1.424-.84-2.839-1.213-4.272l-.57-2.145-.539-2.154c-.36-1.436-.68-2.88-.976-4.333-.017-.083.037-.164.12-.18.08-.017.158.032.178.11l.002.004zM11.564 11.68c2.417 7.03 4.837 14.053 7.321 21.05 2.468 7.002 5.007 13.976 7.631 20.912 1.31 3.47 2.673 6.917 4.042 10.36l1.04 2.577c.344.86.697 1.716 1.057 2.57l1.058 2.568 1.077 2.56c.746 1.693 1.457 3.403 2.219 5.09.373.846.752 1.69 1.146 2.527.388.84.754 1.692 1.162 2.521 1.58 3.347 3.24 6.657 5.085 9.88.043.074.017.168-.056.21-.068.04-.153.021-.2-.04-2.267-2.968-4.23-6.162-6.046-9.423-.908-1.631-1.797-3.275-2.623-4.948-.852-1.661-1.658-3.343-2.446-5.034-3.154-6.763-5.885-13.703-8.474-20.685-2.576-6.987-4.958-14.041-7.186-21.14-2.205-7.108-4.297-14.249-6.101-21.47-.02-.082.03-.166.111-.186.078-.02.157.026.183.1M36.29 30.074c.701 2.87 1.003 5.801 1.362 8.662.158 1.437.368 2.852.56 4.268.124.703.228 1.407.342 2.11.05.353.12.703.192 1.051l.21 1.047c.233 1.405.623 2.78.953 4.167.044.173.083.347.131.519l.157.512.314 1.026.628 2.05 1.466 4.047 1.633 3.996c2.325 5.275 4.92 10.452 7.684 15.553.66 1.293 1.408 2.536 2.112 3.806l2.12 3.808c1.465 2.51 2.931 5.022 4.362 7.561l.002.003c.041.074.015.168-.059.21-.068.038-.155.018-.2-.045-1.698-2.367-3.376-4.752-5.028-7.156-1.584-2.448-3.218-4.869-4.726-7.37-.749-1.253-1.512-2.5-2.251-3.761l-.558-.944c-.182-.317-.352-.64-.53-.96l-1.052-1.927c-1.449-2.544-2.704-5.199-3.973-7.846-2.48-5.322-4.49-10.927-5.652-16.763l-.205-1.096c-.068-.365-.144-.729-.18-1.099-.088-.737-.187-1.473-.266-2.211-.076-.738-.108-1.477-.151-2.215-.054-.74-.055-1.475-.062-2.21-.02-2.947.153-5.838.36-8.766.005-.086.079-.15.164-.146.07.005.125.055.141.119" transform="translate(-54 -107) translate(54 107) translate(2.036 8.412) translate(51.295 .075)"/>
                    </g>
                    <g transform="translate(-54 -107) translate(54 107) translate(2.036 8.412) translate(46.632 122.016)"/>
                    <g transform="translate(-54 -107) translate(54 107) translate(2.036 8.412) translate(28.912 115.254)">
                        <mask id="pgqud3j9sh" fill="#fff">
                            <use xlink:href="#exbf6zynmf"/>
                        </mask>
                        <path fill="url(#gy02ulsrzg)" d="M.213.132c.105 0 .211 0 .323.007L.112.106C.15.118.175.118.213.133z" mask="url(#pgqud3j9sh)"/>
                    </g>
                    <g transform="translate(-54 -107) translate(54 107) translate(2.036 8.412) translate(29.611 115.138)">
                        <mask id="x8qwem3cxj" fill="#fff">
                            <use xlink:href="#7tytr7foei"/>
                        </mask>
                        <path d="M.367.252v-.01.01z" mask="url(#x8qwem3cxj)"/>
                    </g>
                    <g transform="translate(-54 -107) translate(54 107) translate(2.036 8.412) translate(29.844 115.138)">
                        <mask id="qhu84ydo7l" fill="#fff">
                            <use xlink:href="#87vcuxrdyk"/>
                        </mask>
                        <path d="M.222.265L.234.258C.228.258.225.255.222.252v.013z" mask="url(#qhu84ydo7l)"/>
                    </g>
                    <g transform="translate(-54 -107) translate(54 107) translate(2.036 8.412) translate(26.813 166.782)"/>
                    <g transform="translate(-54 -107) translate(54 107) translate(2.036 8.412) translate(26.93 165.733)"/>
                    <g transform="translate(-54 -107) translate(54 107) translate(2.036 8.412) translate(19.119 167.482)"/>
                    <g transform="translate(-54 -107) translate(54 107) translate(2.036 8.412) translate(19.585 165.267)"/>
                    <g transform="translate(-54 -107) translate(54 107) translate(2.036 8.412) translate(22.616 110.824)"/>
                    <g transform="translate(-54 -107) translate(54 107) translate(2.036 8.412) translate(21.45 116.77)">
                        <mask id="nh9q6smwzs" fill="#fff">
                            <use xlink:href="#4dvgy34dmr"/>
                        </mask>
                        <path d="M.143.102C.112.112.095.144.104.175l.917 2.98c.007.02.024.036.046.04l.878.156.328 2.204c.003.018.014.034.03.043l2.378 1.277c.008.004.018.007.027.007.02 0 .041-.012.052-.031.015-.028.004-.064-.024-.08L2.384 5.51l-.33-2.217c-.003-.024-.022-.044-.047-.048l-.885-.157L.216.14C.208.116.186.1.16.1.154.1.15.1.143.101" mask="url(#nh9q6smwzs)"/>
                    </g>
                    <g transform="translate(-54 -107) translate(54 107) translate(2.036 8.412) translate(18.186 126.563)">
                        <mask id="y2yikg4mbu" fill="#fff">
                            <use xlink:href="#55nt3xvrzt"/>
                        </mask>
                        <path d="M6.505.04c-.263.515-1 .77-1.01.774-.037.015-3.802 1.448-5.33.609-.03-.016-.065-.005-.08.023-.016.028-.005.064.023.08.369.202.853.28 1.382.28 1.73 0 3.927-.837 4.045-.882C5.567.913 6.324.65 6.61.093c.015-.029.003-.064-.025-.079C6.575.01 6.566.008 6.557.008c-.02 0-.041.012-.052.032" mask="url(#y2yikg4mbu)"/>
                    </g>
                    <g transform="translate(-54 -107) translate(54 107) translate(2.036 8.412) translate(17.487 128.894)">
                        <mask id="8s5tlvfyfw" fill="#fff">
                            <use xlink:href="#mdfz74f4kv"/>
                        </mask>
                        <path d="M6.97.075c-.007.005-.627.508-1.776 1.023-1.06.475-2.8 1.058-5.068 1.136-.032.001-.057.028-.056.06.001.032.027.057.058.057H.13c2.29-.079 4.046-.668 5.117-1.149C6.408.682 7.037.17 7.043.165c.025-.02.029-.057.008-.082C7.04.069 7.023.062 7.006.062c-.013 0-.026.004-.037.013" mask="url(#8s5tlvfyfw)"/>
                    </g>
                    <g transform="translate(-54 -107) translate(54 107) translate(2.036 8.412) translate(23.549 108.26)"/>
                    <g transform="translate(-54 -107) translate(54 107) translate(2.036 8.412) translate(29.611 115.138)">
                        <mask id="bz6a9tfufz" fill="#fff">
                            <use xlink:href="#9tbrriof5y"/>
                        </mask>
                        <path d="M.367.252v-.01.01z" mask="url(#bz6a9tfufz)"/>
                    </g>
                    <g transform="translate(-54 -107) translate(54 107) translate(2.036 8.412) translate(37.772 130.526)"/>
                    <g transform="translate(-54 -107) translate(54 107) translate(2.036 8.412) translate(28.095 124.464)"/>
                    <g transform="translate(-54 -107) translate(54 107) translate(2.036 8.412) translate(25.647 122.949)"/>
                    <g transform="translate(-54 -107) translate(54 107) translate(2.036 8.412) translate(21.1 114.905)"/>
                    <g transform="translate(-54 -107) translate(54 107) translate(2.036 8.412) translate(20.751 124.93)"/>
                    <g transform="translate(-54 -107) translate(54 107) translate(2.036 8.412) translate(58.056 24.44)">
                        <mask id="hy4y5xthcG" fill="#fff">
                            <use xlink:href="#q45tgcjjhF"/>
                        </mask>
                        <path fill="#EA4E3C" d="M.063 73.191c0 40.41 32.758 73.167 73.167 73.167 40.41 0 73.167-32.758 73.167-73.167 0-40.41-32.758-73.167-73.167-73.167S.063 32.782.063 73.19" mask="url(#hy4y5xthcG)"/>
                    </g>
                    <g fill="#FFF">
                        <path d="M131.89 66.048c0 36.417-29.522 65.939-65.94 65.939-36.416 0-65.938-29.522-65.938-65.939C.012 29.631 29.534.11 65.95.11c36.417 0 65.939 29.522 65.939 65.94" transform="translate(-54 -107) translate(54 107) translate(2.036 8.412) translate(65.634 31.784)"/>
                    </g>
                    <path fill="#FFF" d="M110.707 49.674h-.009c-.031-.006-.053-.035-.049-.067.121-.826.331-1.64.624-2.422 1.728-4.607 6.072-7.687 11.066-7.847 2.329-.076 4.614.5 6.608 1.66.027.017.037.053.02.08-.016.028-.051.038-.079.021-1.975-1.15-4.239-1.72-6.545-1.644-4.947.158-9.25 3.209-10.96 7.77-.291.775-.499 1.582-.618 2.399-.005.029-.03.05-.058.05m.025 3.58c-.028 0-.052-.02-.057-.049-.049-.301-.086-.608-.11-.912-.003-.032.02-.06.053-.063.032-.002.06.021.063.053.024.301.061.605.109.904.005.032-.017.062-.048.067h-.01" transform="translate(-54 -107) translate(54 107) translate(2.036 8.412)"/>
                    <g transform="translate(-54 -107) translate(54 107) translate(2.036 8.412) translate(123.224 50.67)"/>
                    <g transform="translate(-54 -107) translate(54 107) translate(2.036 8.412) translate(117.745 56.032)"/>
                    <g transform="translate(-54 -107) translate(54 107) translate(2.036 8.412) translate(127.07 54.983)"/>
                    <g transform="translate(-54 -107) translate(54 107) translate(2.036 8.412) translate(115.88 46.823)"/>
                    <g transform="translate(-54 -107) translate(54 107) translate(2.036 8.412) translate(123.224 43.209)"/>
                    <g transform="translate(-54 -107) translate(54 107) translate(2.036 8.412) translate(145.49 12.898)">
                        <mask id="rj41r4akzN" fill="#fff">
                            <use xlink:href="#mm8jrgoh9M"/>
                        </mask>
                        <path d="M0.048 2.874L0.048 43.298 0.622 43.298 0.622 0.007z" mask="url(#rj41r4akzN)"/>
                    </g>
                    <g transform="translate(-54 -107) translate(54 107) translate(2.036 8.412) translate(95.828 76.434)">
                        <mask id="eo25grmo8P" fill="#fff">
                            <use xlink:href="#9w5spbrqoO"/>
                        </mask>
                        <path d="M5.305.112v2.883c0 1.826-.91 3.504-2.375 4.594C1.17 8.898.03 10.991.03 13.352v58.12c0 3.966 3.215 7.181 7.181 7.181h19.523c3.966 0 7.18-3.215 7.18-7.18v-58.12c0-2.362-1.139-4.455-2.898-5.764-1.465-1.09-2.375-2.768-2.375-4.594V.112H5.305z" mask="url(#eo25grmo8P)"/>
                    </g>
                    <g transform="translate(-54 -107) translate(54 107) translate(2.036 8.412) translate(95.828 89.024)"/>
                    <g transform="translate(-54 -107) translate(54 107) translate(2.036 8.412) translate(65.168 126.68)">
                        <mask id="c9ry7wza7S" fill="#fff">
                            <use xlink:href="#6xn5zxev8R"/>
                        </mask>
                        <path d="M.086 2.071c.375.7.681 1.452 1.009 2.095.294.498.37.991.34 1.49 4.693.437 8.491.236 8.491.236C10.588 4.618 8.882.006 8.882.006 6.252 1.376 3.118 1.938.086 2.071" mask="url(#c9ry7wza7S)"/>
                    </g>
                    <g transform="translate(-54 -107) translate(54 107) translate(2.036 8.412) translate(85.452 154.308)">
                        <mask id="86qe5sn6aU" fill="#fff">
                            <use xlink:href="#umnixgxshT"/>
                        </mask>
                        <path d="M.07.424L2.507 16.04c.037.24.244.416.486.416.28 0 .505-.234.49-.514C3.276 11.794 1.944.563 1.609.067L.07.424z" mask="url(#86qe5sn6aU)"/>
                    </g>
                    <g transform="translate(-54 -107) translate(54 107) translate(2.036 8.412) translate(74.377 154.308)">
                        <mask id="14iegn907W" fill="#fff">
                            <use xlink:href="#18bsz8yk2V"/>
                        </mask>
                        <path d="M.095 15.942c-.014.28.21.514.491.514.243 0 .449-.176.486-.416L3.51.424 1.971.067C1.636.563.304 11.794.095 15.942" mask="url(#14iegn907W)"/>
                    </g>
                    <g transform="translate(-54 -107) translate(54 107) translate(2.036 8.412) translate(64.934 145.332)"/>
                    <g transform="translate(-54 -107) translate(54 107) translate(2.036 8.412) translate(67.033 163.285)"/>
                    <g transform="translate(-54 -107) translate(54 107) translate(2.036 8.412) translate(76.592 119.568)"/>
                    <g transform="translate(-54 -107) translate(54 107) translate(2.036 8.412) translate(73.328 128.778)"/>
                    <g transform="translate(-54 -107) translate(54 107) translate(2.036 8.412) translate(78.574 130.76)"/>
                    <g transform="translate(-54 -107) translate(54 107) translate(2.036 8.412) translate(76.01 136.705)"/>
                    <g transform="translate(-54 -107) translate(54 107) translate(2.036 8.412) translate(77.525 137.288)"/>
                    <g transform="translate(-54 -107) translate(54 107) translate(2.036 8.412) translate(74.494 139.27)"/>
                    <g transform="translate(-54 -107) translate(54 107) translate(2.036 8.412) translate(75.776 140.202)"/>
                    <g transform="translate(-54 -107) translate(54 107) translate(2.036 8.412) translate(78.224 140.669)"/>
                    <g transform="translate(-54 -107) translate(54 107) translate(2.036 8.412) translate(79.74 135.073)"/>
                    <g transform="translate(-54 -107) translate(54 107) translate(2.036 8.412) translate(237.238 144.283)"/>
                    <g transform="translate(-54 -107) translate(54 107) translate(2.036 8.412) translate(244 162.819)"/>
                    <g transform="translate(-54 -107) translate(54 107) translate(2.036 8.412) translate(231.992 166.2)"/>
                    <g transform="translate(-54 -107) translate(54 107) translate(2.036 8.412) translate(231.06 145.798)"/>
                    <g transform="translate(-54 -107) translate(54 107) translate(2.036 8.412) translate(227.678 118.985)"/>
                    <g transform="translate(-54 -107) translate(54 107) translate(2.036 8.412) translate(232.808 116.187)"/>
                    <g transform="translate(-54 -107) translate(54 107) translate(2.036 8.412) translate(232.341 110.358)"/>
                    <g>
                        <path d="M0.209 0.45L0.209 6.093 0.397 6.093 0.397 0.05z" transform="translate(-54 -107) translate(54 107) translate(2.036 8.412) translate(230.593 82.962)"/>
                    </g>
                    <g transform="translate(-54 -107) translate(54 107) translate(2.036 8.412) translate(230.243 88.092)"/>
                    <g transform="translate(-54 -107) translate(54 107) translate(2.036 8.412) translate(228.844 99.983)"/>
                    <g transform="translate(-54 -107) translate(54 107) translate(2.036 8.412) translate(213.572 166.2)"/>
                    <g transform="translate(-54 -107) translate(54 107) translate(2.036 8.412) translate(213.572 169.23)"/>
                    <g transform="translate(-54 -107) translate(54 107) translate(2.036 8.412) translate(214.505 164.567)"/>
                    <g transform="translate(-54 -107) translate(54 107) translate(2.036 8.412) translate(200.865 169.114)"/>
                    <g transform="translate(-54 -107) translate(54 107) translate(2.036 8.412) translate(200.865 166.316)"/>
                    <g transform="translate(-54 -107) translate(54 107) translate(2.036 8.412) translate(205.062 164.218)"/>
                    <g transform="translate(-54 -107) translate(54 107) translate(2.036 8.412) translate(208.676 106.511)"/>
                    <g transform="translate(-54 -107) translate(54 107) translate(2.036 8.412) translate(212.64 110.475)"/>
                    <g transform="translate(-54 -107) translate(54 107) translate(2.036 8.412) translate(197.135 103.946)"/>
                    <g transform="translate(-54 -107) translate(54 107) translate(2.036 8.412) translate(213.223 134.257)"/>
                    <g transform="translate(-54 -107) translate(54 107) translate(2.036 8.412) translate(209.725 84.71)">
                        <mask id="di7ftsmpfaC" fill="#fff">
                            <use xlink:href="#xrw41puqhaB"/>
                        </mask>
                        <path d="M0.255 0.43L0.255 5.066 0.396 5.066 0.396 0.101z" mask="url(#di7ftsmpfaC)"/>
                    </g>
                    <g transform="translate(-54 -107) translate(54 107) translate(2.036 8.412) translate(208.676 90.073)"/>
                    <g transform="translate(-54 -107) translate(54 107) translate(2.036 8.412) translate(204.596 166.899)"/>
                    <g transform="translate(-54 -107) translate(54 107) translate(2.036 8.412) translate(188.624 165.616)"/>
                    <g transform="translate(-54 -107) translate(54 107) translate(2.036 8.412) translate(188.858 112.806)"/>
                    <g transform="translate(-54 -107) translate(54 107) translate(2.036 8.412) translate(191.19 110.941)"/>
                    <g transform="translate(-54 -107) translate(54 107) translate(2.036 8.412) translate(181.397 83.895)">
                        <mask id="v8sif32yraJ" fill="#fff">
                            <use xlink:href="#06n1lidqcaI"/>
                        </mask>
                        <path d="M0.213 0.374L0.213 5.01 0.354 5.01 0.354 0.045z" mask="url(#v8sif32yraJ)"/>
                    </g>
                    <g transform="translate(-54 -107) translate(54 107) translate(2.036 8.412) translate(180.347 89.257)"/>
                    <g transform="translate(-54 -107) translate(54 107) translate(2.036 8.412) translate(180.58 89.374)">
                        <mask id="0zw7rueq9aM" fill="#fff">
                            <use xlink:href="#g1ck79nueaL"/>
                        </mask>
                        <path d="M.939.09c-.508 0-.92.412-.92.92v7.647h1.858V1.01c0-.508-.412-.92-.92-.92H.94z" mask="url(#0zw7rueq9aM)"/>
                    </g>
                    <path fill="#FFF" d="M180.6 98.03v-7.646c0-.508.411-.92.92-.92h.018c.508 0 .92.412.92.92v7.647H180.6z" transform="translate(-54 -107) translate(54 107) translate(2.036 8.412)"/>
                    <g transform="translate(-54 -107) translate(54 107) translate(2.036 8.412) translate(179.998 99.866)"/>
                </g>
                <g>
                    <g>
                        <path fill="#56548C" d="M15.402 56.615c.17.188-.42.616-.597.44-.347-.341-3.776-6.262-4.015-6.7.086-.18.123-.379.104-.595.036.021.074.034.111.048.26.528 4.01 6.366 4.397 6.807" transform="translate(-54 -107) translate(54 107) translate(76.036 69.412) translate(12.34 13.176)"/>
                        <path fill="#FFC331" d="M79.482 23.07h.703c0 .361-.314.654-.703.654v-.654z" transform="translate(-54 -107) translate(54 107) translate(76.036 69.412) translate(12.34 13.176)"/>
                        <path fill="#B3C9FF" d="M10.918 58.99h64.154c.553 0 1-.448 1-1V7.004H9.918V57.99c0 .552.448 1 1 1z" transform="translate(-54 -107) translate(54 107) translate(76.036 69.412) translate(12.34 13.176)"/>
                        <path fill="#C5D4F9" d="M8.434 7.006L77.556 7.006 77.556 3.702 8.434 3.702z" transform="translate(-54 -107) translate(54 107) translate(76.036 69.412) translate(12.34 13.176)"/>
                        <path fill="#9EB8F7" d="M8.434 7.006L77.556 7.006 77.556 5.929 8.434 5.929z" transform="translate(-54 -107) translate(54 107) translate(76.036 69.412) translate(12.34 13.176)"/>
                        <path fill="#6186E0" d="M79.561 3.702H6.429V2.464C6.43 1.18 7.471.138 8.756.138h68.479c1.284 0 2.326 1.041 2.326 2.326v1.238z" transform="translate(-54 -107) translate(54 107) translate(76.036 69.412) translate(12.34 13.176)"/>
                        <path fill="#9EB8F7" d="M6.429 3.702L79.561 3.702 79.561 2.625 6.429 2.625z" transform="translate(-54 -107) translate(54 107) translate(76.036 69.412) translate(12.34 13.176)"/>
                        <path fill="#F9F8F7" d="M24.669 6.986L19.394 16.808 9.952 16.808 17.339 6.986zM39.329 6.986L38.274 16.808 28.833 16.808 31.999 6.986zM53.992 6.986L57.155 16.808 47.716 16.808 46.662 6.986zM68.652 6.986L76.038 16.808 66.597 16.808 61.322 6.986z" transform="translate(-54 -107) translate(54 107) translate(76.036 69.412) translate(12.34 13.176)"/>
                        <path fill="#8DAAF0" d="M17.339 6.986L9.952 16.808.511 16.808 10.005 6.986zM31.999 6.986L28.833 16.808 19.394 16.808 24.669 6.986zM46.662 6.986L47.716 16.808 38.274 16.808 39.329 6.986zM61.322 6.986L66.597 16.808 57.155 16.808 53.992 6.986zM75.982 6.986L85.48 16.808 76.038 16.808 68.652 6.986zM80.776 24.682h-.041c-2.595 0-4.7-2.104-4.7-4.7V16.81h9.441v3.172c0 2.596-2.104 4.7-4.7 4.7" transform="translate(-54 -107) translate(54 107) translate(76.036 69.412) translate(12.34 13.176)"/>
                        <path fill="#F5F5F5" d="M71.336 24.682h-.041c-2.596 0-4.7-2.104-4.7-4.7V16.81h9.44v3.172c0 2.596-2.104 4.7-4.7 4.7" transform="translate(-54 -107) translate(54 107) translate(76.036 69.412) translate(12.34 13.176)"/>
                        <path fill="#8DAAF0" d="M61.895 24.682h-.041c-2.596 0-4.7-2.104-4.7-4.7V16.81h9.441v3.172c0 2.596-2.104 4.7-4.7 4.7" transform="translate(-54 -107) translate(54 107) translate(76.036 69.412) translate(12.34 13.176)"/>
                        <path fill="#F5F5F5" d="M52.455 24.682h-.042c-2.595 0-4.7-2.104-4.7-4.7V16.81h9.441v3.172c0 2.596-2.104 4.7-4.7 4.7" transform="translate(-54 -107) translate(54 107) translate(76.036 69.412) translate(12.34 13.176)"/>
                        <path fill="#8DAAF0" d="M43.014 24.682h-.041c-2.596 0-4.7-2.104-4.7-4.7V16.81h9.44v3.172c0 2.596-2.103 4.7-4.699 4.7" transform="translate(-54 -107) translate(54 107) translate(76.036 69.412) translate(12.34 13.176)"/>
                        <path fill="#F5F5F5" d="M33.573 24.682h-.04c-2.597 0-4.7-2.104-4.7-4.7V16.81h9.44v3.172c0 2.596-2.104 4.7-4.7 4.7" transform="translate(-54 -107) translate(54 107) translate(76.036 69.412) translate(12.34 13.176)"/>
                        <path fill="#8DAAF0" d="M24.133 24.682h-.041c-2.596 0-4.7-2.104-4.7-4.7V16.81h9.44v3.172c0 2.596-2.104 4.7-4.7 4.7" transform="translate(-54 -107) translate(54 107) translate(76.036 69.412) translate(12.34 13.176)"/>
                        <path fill="#9EB8F7" d="M16.341 58.99L32.972 58.99 32.972 26.347 16.341 26.347z" transform="translate(-54 -107) translate(54 107) translate(76.036 69.412) translate(12.34 13.176)"/>
                        <path fill="#9EB8F7" d="M17.454 58.99L31.858 58.99 31.858 27.646 17.454 27.646z" transform="translate(-54 -107) translate(54 107) translate(76.036 69.412) translate(12.34 13.176)"/>
                        <path fill="#9EB8F7" d="M17.454 58.99L31.573 58.99 31.573 27.931 17.454 27.931z" transform="translate(-54 -107) translate(54 107) translate(76.036 69.412) translate(12.34 13.176)"/>
                        <path fill="#FFF" d="M17.739 58.99L31.573 58.99 31.573 27.931 17.739 27.931z" transform="translate(-54 -107) translate(54 107) translate(76.036 69.412) translate(12.34 13.176)"/>
                        <path fill="#F9FBFC" d="M21.446 43.71c0 .616-.499 1.114-1.114 1.114-.615 0-1.114-.498-1.114-1.113s.499-1.114 1.114-1.114c.615 0 1.114.499 1.114 1.114" transform="translate(-54 -107) translate(54 107) translate(76.036 69.412) translate(12.34 13.176)"/>
                        <path fill="#DCE8EF" d="M21.32 43.71c0 .547-.442.99-.988.99s-.988-.443-.988-.99c0-.545.442-.988.988-.988s.988.443.988.989" transform="translate(-54 -107) translate(54 107) translate(76.036 69.412) translate(12.34 13.176)"/>
                        <path fill="#9EB8F7" d="M21.047 43.71c0 .381-.31.69-.692.69-.382 0-.691-.309-.691-.69 0-.383.31-.692.691-.692.382 0 .692.31.692.691M38.578 50.922L71.543 50.922 71.543 26.198 38.578 26.198z" transform="translate(-54 -107) translate(54 107) translate(76.036 69.412) translate(12.34 13.176)"/>
                        <path fill="#FFF" d="M39.506 50.225L70.614 50.225 70.614 27.052 39.506 27.052z" transform="translate(-54 -107) translate(54 107) translate(76.036 69.412) translate(12.34 13.176)"/>
                        <path fill="#82E3F9" d="M39.506 50.225L70.329 50.225 70.329 27.337 39.506 27.337z" transform="translate(-54 -107) translate(54 107) translate(76.036 69.412) translate(12.34 13.176)"/>
                        <path fill="#FFF" d="M39.506 50.225L70.329 50.225 70.329 27.337 39.506 27.337z" transform="translate(-54 -107) translate(54 107) translate(76.036 69.412) translate(12.34 13.176)"/>
                        <path fill="#9EB8F7" d="M37.65 51.887L72.582 51.887 72.582 49.734 37.65 49.734z" transform="translate(-54 -107) translate(54 107) translate(76.036 69.412) translate(12.34 13.176)"/>
                        <path fill="#82E3F9" d="M18.638 41.839L30.674 41.839 30.674 28.875 18.638 28.875z" transform="translate(-54 -107) translate(54 107) translate(76.036 69.412) translate(12.34 13.176)"/>
                        <path fill="#D6E2FF" d="M18.638 41.839L30.674 41.839 30.674 28.875 18.638 28.875z" transform="translate(-54 -107) translate(54 107) translate(76.036 69.412) translate(12.34 13.176)"/>
                        <path fill="#9EB8F7" d="M24.24 41.98L25.073 41.98 25.073 28.735 24.24 28.735z" transform="translate(-54 -107) translate(54 107) translate(76.036 69.412) translate(12.34 13.176)"/>
                        <path fill="#9EB8F7" d="M18.034 35.774L31.279 35.774 31.279 34.94 18.034 34.94z" transform="translate(-54 -107) translate(54 107) translate(76.036 69.412) translate(12.34 13.176)"/>
                        <path stroke="#9EB8F7" d="M18.638 58.041L30.674 58.041 30.674 45.613 18.638 45.613z" transform="translate(-54 -107) translate(54 107) translate(76.036 69.412) translate(12.34 13.176)"/>
                    </g>
                    <g>
                        <path fill="#FFF" d="M85.503 8.774c0 1.377-1.116 2.493-2.493 2.493-1.376 0-2.492-1.116-2.492-2.493 0-1.376 1.116-2.493 2.492-2.493 1.377 0 2.493 1.117 2.493 2.493" transform="translate(-54 -107) translate(54 107) translate(76.036 69.412) translate(0 .065)"/>
                        <path fill="#F2EFE9" d="M100.158 64.738c0 .306-.248.554-.554.554-.306 0-.553-.248-.553-.554 0-.306.247-.553.553-.553.306 0 .554.247.554.553M1.257 45.902c0 .306-.248.553-.553.553-.306 0-.554-.247-.554-.553 0-.306.248-.553.554-.553.305 0 .553.247.553.553" transform="translate(-54 -107) translate(54 107) translate(76.036 69.412) translate(0 .065)"/>
                        <path fill="#43B02A" d="M64.111 13.313L65.312 13.313 65.312 11.267 64.111 11.267z" transform="translate(-54 -107) translate(54 107) translate(76.036 69.412) translate(0 .065)"/>
                        <path fill="#9EB8F7" d="M64.111 13.313L65.312 13.313 65.312 11.267 64.111 11.267z" transform="translate(-54 -107) translate(54 107) translate(76.036 69.412) translate(0 .065)"/>
                        <path fill="#FFC331" d="M45.642 13.313L46.843 13.313 46.843 11.267 45.642 11.267z" transform="translate(-54 -107) translate(54 107) translate(76.036 69.412) translate(0 .065)"/>
                        <path fill="#9EB8F7" d="M45.642 13.313L46.843 13.313 46.843 11.267 45.642 11.267z" transform="translate(-54 -107) translate(54 107) translate(76.036 69.412) translate(0 .065)"/>
                        <path fill="#B3C9FF" d="M67.908 11.27H43.046c-.631 0-1.143-.511-1.143-1.143V1.622c0-.631.512-1.143 1.143-1.143h24.862c.632 0 1.144.512 1.144 1.143v8.505c0 .632-.512 1.144-1.144 1.144" transform="translate(-54 -107) translate(54 107) translate(76.036 69.412) translate(0 .065)"/>
                        <path fill="#FFC331" d="M67.908.479H43.046c-.631 0-1.143.512-1.143 1.143v8.505c0 .632.512 1.144 1.143 1.144h24.862c.632 0 1.144-.512 1.144-1.144V1.622c0-.631-.512-1.143-1.144-1.143m0 .831c.172 0 .312.14.312.312v8.505c0 .172-.14.312-.312.312H43.046c-.172 0-.312-.14-.312-.312V1.622c0-.172.14-.312.312-.312h24.862" transform="translate(-54 -107) translate(54 107) translate(76.036 69.412) translate(0 .065)"/>
                        <path stroke="#6186E0" stroke-width="3" d="M67.908 11.27H43.046c-.631 0-1.143-.511-1.143-1.143V1.622c0-.631.512-1.143 1.143-1.143h24.862c.632 0 1.144.512 1.144 1.143v8.505c0 .632-.512 1.144-1.144 1.144z" transform="translate(-54 -107) translate(54 107) translate(76.036 69.412) translate(0 .065)"/>
                    </g>
                    <text fill="#FFF" font-family="Poppins-SemiBold, Poppins" font-size="3.989" font-weight="500" transform="translate(-54 -107) translate(54 107) translate(76.036 69.412)">
                        <tspan x="49.503" y="7.677">STORE</tspan>
                    </text>
                </g>
                <g fill="#EA4E3C" stroke="#EA4E3C">
                    <path d="M0.035 101.69L5.427 104.709 104.808 5.943 100.643 0.709z" transform="translate(-54 -107) translate(54 107) translate(86.228 57.47)"/>
                </g>
            </g>
        </g>
    </g>
</svg>
