<svg xmlns="http://www.w3.org/2000/svg" width="6" height="8" viewBox="0 0 6 8">
    <g fill="none" fill-rule="evenodd">
        <g fill="#014085" fill-rule="nonzero">
            <g>
                <path d="M5.863 6.91l-.427-4.683C5.425 2.1 5.316 2 5.187 2h-.75v-.5c0-.402-.156-.779-.438-1.062C3.72.16 3.334 0 2.937 0c-.827 0-1.5.673-1.5 1.5V2h-.75c-.13 0-.237.099-.249.228L.013 6.909c-.026.28.068.559.257.766.19.207.458.325.739.325h3.857c.28 0 .55-.119.738-.325.19-.207.283-.486.259-.765zM3.937 2h-2v-.5c0-.551.449-1 1-1 .265 0 .523.106.708.291.189.189.292.44.292.709V2z" transform="translate(-213 -420) translate(213 420)"/>
            </g>
        </g>
    </g>
</svg>
