<svg xmlns="http://www.w3.org/2000/svg" xmlns:xlink="http://www.w3.org/1999/xlink" width="270" height="124" viewBox="0 0 270 124">
    <defs>
        <path id="sl6l8otrya" d="M0.048 0.07L9.085 0.07 9.085 4.617 0.048 4.617z"/>
        <path id="u2d4rjgxnc" d="M.05.066c-.038.038-.038.1 0 .139l.481.48-.481.482c-.038.038-.04.1 0 .138H.047.05v.001c.039.037.1.037.139-.002l.48-.48.482.48c.038.039.1.04.139.001.037-.038.037-.1-.001-.138L.807.686l.48-.481c.039-.039.04-.1.001-.139-.038-.038-.1-.037-.138 0L.669.549.188.067C.168.047.143.037.118.037c-.025 0-.05.01-.069.029z"/>
        <path id="o3onk03x0e" d="M.277 1.797c.16.336.55.533.87.44.32-.093.45-.44.29-.776C1.274 1.125.098.046.098.046s.017 1.415.178 1.751z"/>
        <path id="3od6bxtdig" d="M.272 1.784c.148.336.508.533.803.44.296-.093.415-.44.267-.776C1.193 1.112.108.033.108.033S.123 1.45.272 1.784z"/>
        <path id="psl40zmyai" d="M.215 1.77c.16.336.55.533.87.44.32-.093.45-.44.29-.776C1.213 1.098.036.02.036.02s.017 1.415.178 1.75z"/>
        <path id="clgemivr8k" d="M.067 4.146c0 2.276 1.83 4.12 4.09 4.12 2.258 0 4.089-1.844 4.089-4.12 0-2.275-1.831-4.12-4.09-4.12-2.258 0-4.09 1.845-4.09 4.12z"/>
        <path id="tk1f94r72m" d="M4.767.079c-.44 0-.802.343-.802.763L.032 5.231h40.603c.441 0 .802-.344.802-.764V.842c0-.42-.36-.763-.802-.763H4.767z"/>
        <path id="igb3824axo" d="M.089 12.046c0 6.652 5.373 12.044 12.002 12.044 6.628 0 12.002-5.392 12.002-12.044C24.093 5.393 18.719 0 12.09 0 5.462.001.089 5.393.089 12.046z"/>
        <path id="475zt0uspq" d="M.084 6.063c0 3.31 2.675 5.994 5.975 5.994s5.974-2.683 5.974-5.994S9.358.068 6.06.068C2.759.068.084 2.752.084 6.063z"/>
        <path id="1lg5gn95os" d="M12.413.89C5.225 3.205.003 10.035.003 18.078h3.973c0-5.552 3.203-10.359 7.835-12.622 1.808-.883 3.835-1.379 5.973-1.379 7.16 0 13.064 5.556 13.742 12.64.073.77.703 1.361 1.466 1.361h.078c1.415 0 2.505-1.275 2.294-2.694-1.096-7.379-6.618-13.31-13.73-14.907-1.24-.28-2.529-.427-3.85-.427-1.87 0-3.675.294-5.371.842z"/>
        <path id="33a19j3bbu" d="M7.106.067C4.978.264 3.588 2.42 4.266 4.453c1.459 4.383 2.02 8.787 2.02 12.97C6.286 31.343.07 42.804.07 42.804l5.974 2.415c4.137-8.075 8.361-12.038 11.975-13.992 6.5-3.517 11.024-.538 9.5-3.308L16.368 4.302c-1.045-1.458-2.407-2.564-3.929-3.288-1.372-.651-2.875-.99-4.393-.99-.313 0-.627.014-.94.043z"/>
        <path id="m61c2mhglw" d="M3.67.08C3.068.08.655 1.282.825 3.532L.066 14.869c0 .627 1.43-.583 2.032-.583l4.423-1.76c.602 0 1.75.567 1.75-.06L7.615 1.22c0-.627-.492-1.14-1.094-1.14H3.67z"/>
        <path id="ayw0i2jcvy" d="M1.606.065C.738.065.028.805.028 1.71v1.13c0 .906.71 1.647 1.578 1.647h29.972c.867 0 1.577-.741 1.577-1.647v-1.13c0-.905-.71-1.646-1.577-1.646H1.606z"/>
        <path id="mrpel9vu6A" d="M.078 12.046c0 6.652 5.374 12.044 12.002 12.044 6.629 0 12.002-5.392 12.002-12.044C24.082 5.393 18.71 0 12.08 0 5.452.001.078 5.393.078 12.046z"/>
        <path id="ci8oat43mC" d="M.074 6.062c0 1.01.25 1.962.69 2.796.027.054.057.107.088.16 1.025 1.816 2.969 3.04 5.196 3.04 3.3 0 5.976-2.684 5.976-5.996 0-2.494-1.519-4.632-3.68-5.534L8.276.5C7.587.221 6.836.068 6.048.068 2.75.068.074 2.752.074 6.062z"/>
        <path id="9qnunnxg9E" d="M.046 24.865h24.031C13.665 13.549 18.325 3.14 18.325 3.14L3.306.094l-3.26 24.77z"/>
        <path id="5fbrgrkwzG" d="M.056 26.243c0 .44.18.842.473 1.133.29.29.69.47 1.132.47h38.902c.882 0 1.604-.722 1.604-1.603L41.651.816l-13.1-.802C11.101.014.056 8.804.056 26.243z"/>
        <path id="6kycawji1I" d="M.061 6.421c0 .4.034.79.1 1.17.506 2.957 2.904 5.195 5.782 5.195V.056C2.695.056.061 2.906.061 6.421z"/>
        <path id="b758iagcnK" d="M7.658.056L.652 1.244c-.278.047-.499.414-.564.73-.11.529.166.98.414.98.025 0 .289-.045.313-.05l6.99-1.684c.278-.048.47-.346.43-.668C8.196.26 7.98.05 7.732.05c-.025 0-.05.003-.075.007z"/>
        <path id="hf1lobs2nM" d="M6.111 27.491c-.085.955-.202 1.926-.352 2.915l-.076.48c-.063.383-.124.755-.18 1.113.016-.008.034-.018.053-.026 1.816-.856 3.848-1.336 5.99-1.336 7.243 0 13.217 5.487 13.903 12.483.074.761.711 1.345 1.483 1.345h.079c1.432 0 2.534-1.26 2.32-2.661-1.104-7.264-6.657-13.105-13.818-14.705l-.072-.018L4.078 3.351C3.013 1.888 1.626.775.075.049 2.01 3.273 7.355 13.589 6.11 27.49z"/>
        <path id="xfedy8slfO" d="M1.23.047C.579.047.046.563.046 1.195v3.637c0 .63.533 1.147 1.186 1.147h24.714c.65 0 1.185-.517 1.185-1.147V1.195c0-.632-.534-1.148-1.185-1.148H1.23z"/>
        <path id="bvp9aek3dQ" d="M23.926.15C15.184.99 4.176 8.264.018 19.553h37.387s2.28-13.594-6.133-18.185C29.658.49 27.713.068 25.587.068c-.543 0-1.097.027-1.661.081z"/>
        <path id="3bhvj4ravS" d="M5.942 5.247v-3.56C4.187 1.76 1.659 1.557.07.04c.515 2.963 2.95 5.206 5.872 5.206z"/>
        <path id="lks7k0p90U" d="M5.802.047C4.708 1.517 2.652 4.011.017 5.98h18.369c.662 0 1.205-.517 1.205-1.147V1.195c0-.632-.543-1.148-1.205-1.148H5.802z"/>
        <path id="1xwe0wxcyW" d="M.018 19.554h15.508c9.36-4.694 8.788-16.018 8.369-19.5C15.165.897 4.17 8.208.018 19.553z"/>
        <path id="yegycuikpY" d="M.004 8.894c1.033 1.89 2.993 3.163 5.24 3.163 3.328 0 6.025-2.793 6.025-6.24 0-2.597-1.531-4.823-3.71-5.761-.524 2.7-2.21 7.705-7.555 8.838z"/>
        <path id="i1tml2wpdaa" d="M5.933 27.16c-.083.944-.196 1.904-.342 2.88-.025.158-.048.316-.074.475l-.176 1.099.052-.025c2.178-2.029 6.78-3.826 9.667-4.816-.023-.007-.047-.012-.07-.017L3.959 3.311C2.926 1.864 1.579.765.072.047c1.88 3.187 7.068 13.379 5.86 27.114z"/>
    </defs>
    <g fill="none" fill-rule="evenodd">
        <g>
            <g>
                <g>
                    <g>
                        <path fill="#EBF2F9" d="M258.056 121.629l-63.926-.023-54.285-.02-7.476-.001-126.605-.046S-.911 101.628.877 80.1c.224-2.694.58-5.412 1.098-8.12l.005-.023c.318-1.662.697-3.32 1.145-4.965 1.892-6.964 5.001-13.71 9.846-19.607 29.371-35.758 67.328-5.868 81.57-6.74 14.242-.872 15.045-35.182 57.598-39.28 23.603-2.272 48.941 3.046 57.124 26.925 3.224 9.41 3.785 21.701.526 37.546-1.895 9.215-.27 14.853 3.346 18.504 7.51 7.587 23.608 6.606 34.584 11.33 8.179 3.518 13.513 10.204 10.337 25.96" transform="translate(-45 -201) translate(45 201) translate(9) translate(.416 .029)"/>
                        <path fill="#F8FBFF" d="M231.978 92.01l-130.463 22.971c-1.184-5.81-1.792-12.12-1.486-18.845L229.24 47.49c2.28 7.475 2.677 17.237.373 29.822-1.34 7.32-.191 11.798 2.365 14.698M153.526 69.96l-85.762 32.223c.142-2.14.368-4.298.697-6.449l.003-.018c.202-1.32.443-2.637.727-3.944l84.335-21.812zM203.536 43.122c0-1.869 1.515-3.384 3.383-3.384 1.87 0 3.384 1.515 3.384 3.384s-1.515 3.384-3.384 3.384c-1.868 0-3.383-1.515-3.383-3.384" transform="translate(-45 -201) translate(45 201) translate(9) translate(.416 .029)"/>
                        <path fill="#A8D29F" d="M191.65 111.933c3.359-1.053 7.68-2.767 5.33-4.053-2.517-1.378-5.726 1.546-7.467 3.481-.09-.015-.18-.03-.271-.042-.445-.064-.896-.093-1.353-.095 3.317-5.317 7.017-12.395 3.866-13.295-3.395-.97-5.828 7.637-7.029 13.665-3.318.72-6.887 2.33-10.606 3.403-1.314-4.78-4.34-11.907-10.679-11.75-6.656.165 1.655 7.902 7.254 12.539-1.252.203-2.516.3-3.79.24-8.14-.378-13.24 5.14-13.24 5.14h43.716c1.641-2.603-.845-7.402-5.731-9.233" transform="translate(-45 -201) translate(45 201) translate(9) translate(.416 .029)"/>
                        <g transform="translate(-45 -201) translate(45 201) translate(9) translate(.416 .029) translate(108.479 1.128)">
                            <mask id="6630eloyzb" fill="#fff">
                                <use xlink:href="#sl6l8otrya"/>
                            </mask>
                            <path fill="#FFB27D" d="M9.085 3.509S6.038.185 5.097.074C4.155-.036.277 1.821.056 2.554c-.222.733 4.265-.733 4.514 0 .25.733.527 1.232 1.8 1.287 1.275.056 2.383.776 2.383.776l.332-1.108z" mask="url(#6630eloyzb)"/>
                        </g>
                        <path fill="#233862" d="M121.22 121.165c-.969-.59-.418-4.999-.418-4.999s4.511-3.609 5.132-.846c.62 2.763 4.285 4.004 6.372 4.342 1.44.234 1.886 1.032 2.024 1.503h-13.11z" transform="translate(-45 -201) translate(45 201) translate(9) translate(.416 .029)"/>
                        <path fill="#2B478B" d="M120.411 118.364c-1.156-.436-7.593-15.888-7.325-20.906.032-.595-.084-5.477-.268-6.489-.143-.788-.334-1.705-.564-2.724-.352-1.55-.79-3.335-1.28-5.25-1.368-5.38-3.111-11.776-4.314-16.868 2.158-4.84 4.924-9.076 7.46-10.522 1.81.22 3.555.555 4.848.835 1.03.605 1.8 1.122 2.37 1.564.201 1.003.494 2.677.731 4.833.153 1.41.281 3.027.341 4.796.43 12.551-1.765 26.19 3.83 48.452.157.621-4.039 2.954-5.829 2.279" transform="translate(-45 -201) translate(45 201) translate(9) translate(.416 .029)"/>
                        <path fill="#233862" d="M122.069 62.837c-.933 4.666-3.176 14.64-11.094 20.158-1.369-5.38-3.112-11.776-4.315-16.868 2.158-4.84 4.924-9.076 7.46-10.522 1.81.22 3.555.555 4.848.835 1.03.605 1.8 1.122 2.37 1.564.201 1.003.494 2.677.731 4.833" transform="translate(-45 -201) translate(45 201) translate(9) translate(.416 .029)"/>
                        <path fill="#FFB27D" d="M112.334 18.933l-.004.782s.213 2.449-2.802 2.806c-3.014.359-5.298-.955-5.217-2.844.272-1.463.57-2.467.59-3.677.008-.45-.023-.927-.107-1.466l5.842-.117 1.72.281-.022 4.235z" transform="translate(-45 -201) translate(45 201) translate(9) translate(.416 .029)"/>
                        <path fill="#E8945B" d="M112.356 14.698l-.022 4.235c-.62.288-1.32.464-2.106.464-2.684 0-4.42-1.969-5.327-3.397.008-.45-.023-.927-.107-1.466l5.842-.117 1.72.281z" transform="translate(-45 -201) translate(45 201) translate(9) translate(.416 .029)"/>
                        <path fill="#FFB27D" d="M112.697 16.756s-7.481 1.511-8.35-3.162c-.87-4.674-2.421-7.626 2.318-8.789 4.74-1.163 6.003.448 6.673 1.937.67 1.49 1.283 9.5-.641 10.014" transform="translate(-45 -201) translate(45 201) translate(9) translate(.416 .029)"/>
                        <path fill="#233862" d="M107.31 121.165s-.408-2.236-1.056-3.531c-.647-1.295-4.767-.471-4.767-.471s-.824.706-1 4.002h6.824z" transform="translate(-45 -201) translate(45 201) translate(9) translate(.416 .029)"/>
                        <path fill="#2B478B" d="M115.384 58.078s-4.1 18.273-5.415 26.52c-.492 3.086-1.517 12.973-1.677 16.094-.22 4.282-1.632 17.39-1.632 17.39s-2.382-1.505-5.916-.1c0 0-.893-5.876-1.461-18.182-.166-3.608.53-9.026.446-10.786-.416-8.654-3.18-31.03-.983-32.465 2.198-1.436 16.638 1.53 16.638 1.53" transform="translate(-45 -201) translate(45 201) translate(9) translate(.416 .029)"/>
                        <path fill="#233862" d="M114.792 3.27s-2.086-.16-4.547-1.23c-1.997-.869-4.517.087-5.335.518.022-.131.075-.311.2-.492 0 0-.367.26-.422.625-.037.027-.054.047-.044.053 0 0-.417-.076-.684.044 0 0 .187-.026.254.094.007.013.017.023.03.033-3.116 1.505-3.403 6.43-2.4 7.569 1.205 1.37 2.652 4.457 2.652 4.457s.527-.73.308-1.935c-.22-1.207.822-1.207 2.138-1.755 1.316-.548.22-2.083 1.37-3.015 1.152-.932 5.374-.384 5.32-1.097 1.566-.57 1.16-3.709 1.16-3.87" transform="translate(-45 -201) translate(45 201) translate(9) translate(.416 .029)"/>
                        <path fill="#EE9849" d="M116.79 3.02s-.63.256-1.01 1.147c-.484 1.14-.089 1.762-.089 1.762s7.918 7.18 7.403 8.488c-.27.683-6.403 4.28-8.952 5.752-1.048-.088-1.86-.08-1.885-.08h-.002s-1.734 5.284-7.943-.411c-1.09 1.587-9.545 5.483-8.077 12.207.345 1.58.643 3.07.9 4.477 1.745 9.527 1.608 15.148 1.269 18.248-.265 2.419-1.269 2.662-.371 3.306 0 0 1.746.783 5.013 1.46 2.429.503 5.697.95 9.712.976 6.388.04 8.805-2.162 8.805-2.162 1.691-1.653-1.653-8.161-1.386-12.859.138-2.41-.013-10.66-.037-14.451l.002-.002.006-.006c.306-.336 9.65-10.616 11.49-16.452l.001-.003c.093-.294.166-.577.218-.847.558-2.872-15.068-10.55-15.068-10.55" transform="translate(-45 -201) translate(45 201) translate(9) translate(.416 .029)"/>
                        <path fill="#E58638" d="M98.404 54.61c.34-3.1.476-8.72-1.269-18.248.12-.38.238-.744.356-1.091.529-1.571 2.777-1.492 3.192.113 1.29 4.985 2.45 13.459-2.28 19.226" transform="translate(-45 -201) translate(45 201) translate(9) translate(.416 .029)"/>
                        <path fill="#FFB27D" d="M96.496 49.401s3.884-2.348 5.087-2.05c1.204.298 3.815 1.433 3.653 2.127-.162.694-3.195 1.167-3.723 1.085-.528-.081-1.38.015-1.725.313-.346.298-3.098.41-3.434-.396-.336-.806.142-1.079.142-1.079" transform="translate(-45 -201) translate(45 201) translate(9) translate(.416 .029)"/>
                        <path fill="#EE9849" d="M104.312 19.677s-4.761.345-7.348 1.861c-1.674.981-11.373 16.435-11.373 18.71 0 2.274 10.185 10.342 10.185 10.342s1.89.628 1.957-2.382c0 0-5.08-7.51-4.813-8.38.168-.546 7.656-6.553 7.656-6.553l3.736-13.598z" transform="translate(-45 -201) translate(45 201) translate(9) translate(.416 .029)"/>
                        <path fill="#E58638" d="M131.638 14.42c-1.84 5.836-11.184 16.116-11.49 16.452l-.006.006-.002.002-.002-.002c-.026-.103-.797-3.044 1.043-5.147 1.873-2.141 8.336-7.506 10.457-11.311" transform="translate(-45 -201) translate(45 201) translate(9) translate(.416 .029)"/>
                    </g>
                    <g transform="translate(-45 -201) translate(45 201) translate(9) translate(185.818 85.261)">
                        <mask id="bblej1gf3d" fill="#fff">
                            <use xlink:href="#u2d4rjgxnc"/>
                        </mask>
                        <path fill="#FFF" d="M-0.471 1.825L1.809 1.825 1.809 -0.454 -0.471 -0.454z" mask="url(#bblej1gf3d)"/>
                    </g>
                    <g>
                        <path fill="#A8D29F" d="M116.378 101.85l-57.762-.019-.077-.015s5.087-7.434 14.996-7.408c9.908.027 9.784-5.427 22.761-8.822 3.842-1.006 7.498-2.607 10.742-4.364 7.39 2.796 12.21 8.108 9.34 20.627" transform="translate(-45 -201) translate(45 201) translate(9) translate(142.183 19.854)"/>
                        <path fill="#F1A34F" d="M41.386 13.348v86.621c0 .78-.595 1.417-1.321 1.417h-1.32c-.363 0-.692-.158-.932-.414-.24-.257-.39-.613-.39-1.003V13.348c0-.51.253-.957.63-1.206.202-.134.438-.212.691-.212h1.32c.727 0 1.322.637 1.322 1.418" transform="translate(-45 -201) translate(45 201) translate(9) translate(142.183 19.854)"/>
                        <path fill="#E58638" d="M38.443 13.144v86.622c0 .508-.253.957-.63 1.206-.24-.257-.39-.613-.39-1.003V13.348c0-.51.253-.957.63-1.206.24.256.39.611.39 1.002" transform="translate(-45 -201) translate(45 201) translate(9) translate(142.183 19.854)"/>
                        <path fill="#F1A34F" d="M23.314 47.152L16.003 52.08 22.632 57.892 39.04 56.857 39.04 50.229z" transform="translate(-45 -201) translate(45 201) translate(9) translate(142.183 19.854)"/>
                        <path fill="#CE8032" d="M37.944 51.135c-.074.202-.05.483.054.628.104.145.249.099.324-.103.074-.202.05-.484-.054-.629-.104-.145-.249-.099-.324.104M37.944 55.054c-.074.202-.05.483.054.628.104.145.249.099.324-.103.074-.202.05-.483-.054-.629-.104-.145-.249-.098-.324.104" transform="translate(-45 -201) translate(45 201) translate(9) translate(142.183 19.854)"/>
                        <path fill="#F1A34F" d="M65.576 33.762L77 38.681 66.015 44.515 39.726 43.602 39.726 35.396z" transform="translate(-45 -201) translate(45 201) translate(9) translate(142.183 19.854)"/>
                        <path fill="#E89746" d="M65.576 33.762L67.235 33.762 78.66 38.681 77 38.681z" transform="translate(-45 -201) translate(45 201) translate(9) translate(142.183 19.854)"/>
                        <path fill="#CE8032" d="M66.015 44.515L66.899 44.515 78.66 38.681 77 38.681zM41.446 36.627c.096.26.066.62-.068.806-.134.187-.32.127-.416-.132-.096-.259-.065-.62.068-.806.134-.186.32-.127.416.132M41.446 41.655c.096.26.066.62-.068.806-.134.186-.32.127-.416-.132-.096-.26-.065-.62.068-.806.134-.186.32-.127.416.132" transform="translate(-45 -201) translate(45 201) translate(9) translate(142.183 19.854)"/>
                        <path fill="#F1A34F" d="M13.876 19.533L2.452 24.452 13.437 30.286 39.726 29.372 39.726 21.167z" transform="translate(-45 -201) translate(45 201) translate(9) translate(142.183 19.854)"/>
                        <path fill="#E89746" d="M13.876 19.533L12.217 19.533 0.792 24.452 2.452 24.452z" transform="translate(-45 -201) translate(45 201) translate(9) translate(142.183 19.854)"/>
                        <path fill="#CE8032" d="M13.437 30.286L12.553 30.286.792 24.452 2.452 24.452zM38.006 22.398c-.096.26-.065.62.068.806.134.186.32.127.416-.132.096-.26.065-.62-.068-.806-.134-.186-.32-.127-.416.132M38.006 27.426c-.096.259-.065.62.068.806.134.186.32.127.416-.132.096-.26.065-.62-.068-.806-.134-.186-.32-.127-.416.132" transform="translate(-45 -201) translate(45 201) translate(9) translate(142.183 19.854)"/>
                        <path fill="#E89746" d="M23.314 47.152L22.367 47.152 14.603 52.123 16.003 52.123z" transform="translate(-45 -201) translate(45 201) translate(9) translate(142.183 19.854)"/>
                        <path fill="#CE8032" d="M22.632 57.892L21.357 57.892 14.603 52.123 16.003 52.123z" transform="translate(-45 -201) translate(45 201) translate(9) translate(142.183 19.854)"/>
                        <path fill="#F1A34F" d="M44.328 91.61v9.776H34.48v-9.814c0-1.821 1.382-3.318 3.154-3.501.12-.012.243-.019.366-.019h2.768c1.966 0 3.559 1.594 3.559 3.558" transform="translate(-45 -201) translate(45 201) translate(9) translate(142.183 19.854)"/>
                        <path fill="#E58638" d="M40.824 91.61v9.776h-6.343v-9.814c0-1.821 1.382-3.318 3.154-3.501 1.793.185 3.19 1.7 3.19 3.54M39.862 9.182v-.341h-.87v.006c-.237.022-.442.118-.615.287-.2.195-.3.435-.3.72 0 .277.102.515.307.715.204.2.445.3.721.3h.757v-.341c.16-.186.243-.41.243-.673 0-.263-.082-.487-.243-.673M41.533.872c-.62-.523-1.39-.785-2.314-.785-.59 0-1.152.136-1.685.407-.533.271-.947.655-1.242 1.15-.181.304-.272.609-.272.913 0 .239.074.436.222.593.147.157.335.236.564.236h.757s-.01-.284-.01-.479l.524-.707c.276-.276.642-.414 1.1-.414.39 0 .716.107.978.322.261.214.392.516.392.906 0 .448-.138.795-.414 1.043-.2.18-.543.348-1.028.5-.362.114-.602.23-.721.35-.12.119-.179.297-.179.535V6.87c0 .286.076.524.229.714.152.19.366.286.643.286h.756v-.433c.034-.067.064-.14.086-.224.038-.152.057-.543.057-1.171.78-.152 1.397-.488 1.85-1.007.452-.519.678-1.173.678-1.963 0-.905-.324-1.638-.971-2.2" transform="translate(-45 -201) translate(45 201) translate(9) translate(142.183 19.854)"/>
                        <path fill="#F1A34F" d="M40.862 9.855c0 .286-.096.526-.286.721-.19.195-.428.293-.714.293-.276 0-.517-.1-.721-.3-.205-.2-.307-.438-.307-.714 0-.286.1-.526.3-.721.2-.195.442-.293.728-.293s.523.098.714.293c.19.195.286.435.286.721m2.399-6.784c0 .791-.226 1.445-.679 1.964-.452.52-1.068.855-1.85 1.007 0 .628-.018 1.019-.056 1.17-.114.439-.395.658-.843.658-.276 0-.49-.095-.642-.286-.153-.19-.229-.428-.229-.714V5.442c0-.238.06-.416.179-.535.119-.12.36-.236.721-.35.485-.152.828-.32 1.028-.5.276-.248.414-.595.414-1.043 0-.39-.13-.692-.392-.906-.262-.215-.589-.322-.979-.322-.457 0-.823.138-1.1.414l-.57.772c-.2.276-.434.414-.7.414-.229 0-.417-.079-.564-.236-.148-.157-.222-.354-.222-.593 0-.304.09-.609.272-.914.295-.494.709-.878 1.242-1.15.533-.27 1.095-.406 1.685-.406.924 0 1.695.262 2.314.785.647.562.97 1.295.97 2.2" transform="translate(-45 -201) translate(45 201) translate(9) translate(142.183 19.854)"/>
                    </g>
                </g>
                <g>
                    <path fill="#D5E7F7" d="M92.733 53.902L101.026 53.902 101.026 49.379 92.733 49.379z" transform="translate(-45 -201) translate(45 201) translate(0 51.504)"/>
                    <g transform="translate(-45 -201) translate(45 201) translate(0 51.504) translate(35.434 49.379)">
                        <mask id="k5p1nszkbf" fill="#fff">
                            <use xlink:href="#o3onk03x0e"/>
                        </mask>
                        <path fill="#DCEAF9" d="M-10.388 10.467L11.993 10.467 11.993 -8.162 -10.388 -8.162z" mask="url(#k5p1nszkbf)"/>
                    </g>
                    <g transform="translate(-45 -201) translate(45 201) translate(0 51.504) translate(37.696 41.086)">
                        <mask id="rj5x2wutrh" fill="#fff">
                            <use xlink:href="#3od6bxtdig"/>
                        </mask>
                        <path fill="#DCEAF9" d="M-9.573 10.455L11.087 10.455 11.087 -8.174 -9.573 -8.174z" mask="url(#rj5x2wutrh)"/>
                    </g>
                    <g transform="translate(-45 -201) translate(45 201) translate(0 51.504) translate(46.743 53.902)">
                        <mask id="30b4smfisj" fill="#fff">
                            <use xlink:href="#psl40zmyai"/>
                        </mask>
                        <path fill="#DCEAF9" d="M-10.45 10.441L11.931 10.441 11.931 -8.188 -10.45 -8.188z" mask="url(#30b4smfisj)"/>
                    </g>
                    <path fill="#D5E7F7" d="M28.649 41.086L29.403 41.086 29.403 35.054 28.649 35.054z" transform="translate(-45 -201) translate(45 201) translate(0 51.504)"/>
                    <path fill="#C4D9ED" d="M21.11 53.902L52.775 53.902 52.775 47.117 21.11 47.117zM49.005 58.426L50.513 58.426 50.513 56.164 49.005 56.164zM45.989 58.426L47.497 58.426 47.497 56.164 45.989 56.164zM42.974 58.426L44.482 58.426 44.482 56.164 42.974 56.164zM39.958 58.426L41.466 58.426 41.466 56.164 39.958 56.164zM36.942 58.426L38.45 58.426 38.45 56.164 36.942 56.164zM33.927 58.426L35.434 58.426 35.434 56.164 33.927 56.164zM30.911 58.426L32.419 58.426 32.419 56.164 30.911 56.164zM27.895 58.426L29.403 58.426 29.403 56.164 27.895 56.164zM25.633 58.426L27.141 58.426 27.141 56.164 25.633 56.164zM22.618 58.426L24.126 58.426 24.126 56.164 22.618 56.164zM36.942 62.196L38.45 62.196 38.45 59.934 36.942 59.934zM33.927 62.196L35.434 62.196 35.434 59.934 33.927 59.934zM30.911 62.196L32.419 62.196 32.419 59.934 30.911 59.934zM27.895 62.196L29.403 62.196 29.403 59.934 27.895 59.934zM25.633 62.196L27.141 62.196 27.141 59.934 25.633 59.934zM22.618 62.196L24.126 62.196 24.126 59.934 22.618 59.934zM36.942 65.965L38.45 65.965 38.45 63.703 36.942 63.703zM33.927 65.965L35.434 65.965 35.434 63.703 33.927 63.703zM30.911 65.965L32.419 65.965 32.419 63.703 30.911 63.703zM27.895 65.965L29.403 65.965 29.403 63.703 27.895 63.703zM25.633 65.965L27.141 65.965 27.141 63.703 25.633 63.703zM22.618 65.965L24.126 65.965 24.126 63.703 22.618 63.703z" transform="translate(-45 -201) translate(45 201) translate(0 51.504)"/>
                    <path fill="#ADC9E0" d="M49.005 50.887L50.513 50.887 50.513 48.625 49.005 48.625zM35.434 50.887L36.942 50.887 36.942 48.625 35.434 48.625zM24.126 50.887L25.633 50.887 25.633 48.625 24.126 48.625z" transform="translate(-45 -201) translate(45 201) translate(0 51.504)"/>
                    <path fill="#699FF0" d="M24.972 38.07L25.633 37.507 16.77 25.393 13.571 25.253zM37.117 38.07L37.696 37.507 29.941 25.393 27.141 25.253z" transform="translate(-45 -201) translate(45 201) translate(0 51.504)"/>
                    <g transform="translate(-45 -201) translate(45 201) translate(0 51.504) translate(84.44 3.39)">
                        <mask id="48rukte3pl" fill="#fff">
                            <use xlink:href="#clgemivr8k"/>
                        </mask>
                        <path fill="#699FF0" d="M-8.273 16.506L16.585 16.506 16.585 -8.213 -8.273 -8.213z" mask="url(#48rukte3pl)"/>
                    </g>
                    <g transform="translate(-45 -201) translate(45 201) translate(0 51.504) translate(41.466 56.164)">
                        <mask id="qkdruyc2wn" fill="#fff">
                            <use xlink:href="#tk1f94r72m"/>
                        </mask>
                        <path fill="#699FF0" d="M-8.112 12.958L49.581 12.958 49.581 -7.649 -8.112 -7.649z" mask="url(#qkdruyc2wn)"/>
                    </g>
                    <g transform="translate(-45 -201) translate(45 201) translate(0 51.504) translate(17.34 46.363)">
                        <mask id="o3uxw2t8ip" fill="#fff">
                            <use xlink:href="#igb3824axo"/>
                        </mask>
                        <path fill="#424242" d="M-7.966 32.21L32.147 32.21 32.147 -8.118 -7.966 -8.118z" mask="url(#o3uxw2t8ip)"/>
                    </g>
                    <g transform="translate(-45 -201) translate(45 201) translate(0 51.504) translate(23.372 52.395)">
                        <mask id="edcr6zx9xr" fill="#fff">
                            <use xlink:href="#475zt0uspq"/>
                        </mask>
                        <path fill="#578DDD" d="M-7.782 19.985L19.899 19.985 19.899 -7.86 -7.782 -7.86z" mask="url(#edcr6zx9xr)"/>
                    </g>
                    <g transform="translate(-45 -201) translate(45 201) translate(0 51.504) translate(79.162 41.086)">
                        <mask id="3f0wbjgdyt" fill="#fff">
                            <use xlink:href="#1lg5gn95os"/>
                        </mask>
                        <path fill="#5D93E4" d="M-8.055 26.285L43.449 26.285 43.449 -8.159 -8.055 -8.159z" mask="url(#3f0wbjgdyt)"/>
                    </g>
                    <g transform="translate(-45 -201) translate(45 201) translate(0 51.504) translate(73.13 13.19)">
                        <mask id="9lon5khysv" fill="#fff">
                            <use xlink:href="#33a19j3bbu"/>
                        </mask>
                        <path fill="#699FF0" d="M-7.932 53.286L35.815 53.286 35.815 -8.043 -7.932 -8.043z" mask="url(#9lon5khysv)"/>
                    </g>
                    <g transform="translate(-45 -201) translate(45 201) translate(0 51.504) translate(76.9 1.882)">
                        <mask id="c6tdqplfrx" fill="#fff">
                            <use xlink:href="#m61c2mhglw"/>
                        </mask>
                        <path fill="#699FF0" d="M-7.8 23.275L16.137 23.275 16.137 -8.146 -7.8 -8.146z" mask="url(#c6tdqplfrx)"/>
                    </g>
                    <g transform="translate(-45 -201) translate(45 201) translate(0 51.504) translate(0 21.484)">
                        <mask id="x27fvbzmhz" fill="#fff">
                            <use xlink:href="#ayw0i2jcvy"/>
                        </mask>
                        <path fill="#699FF0" d="M-7.974 12.878L41.157 12.878 41.157 -8.325 -7.974 -8.325z" mask="url(#x27fvbzmhz)"/>
                    </g>
                    <g transform="translate(-45 -201) translate(45 201) translate(0 51.504) translate(84.44 46.363)">
                        <mask id="4mgelgabsB" fill="#fff">
                            <use xlink:href="#mrpel9vu6A"/>
                        </mask>
                        <path fill="#424242" d="M-7.976 32.21L32.137 32.21 32.137 -8.118 -7.976 -8.118z" mask="url(#4mgelgabsB)"/>
                    </g>
                    <g transform="translate(-45 -201) translate(45 201) translate(0 51.504) translate(90.47 52.395)">
                        <mask id="gpra7uqwrD" fill="#fff">
                            <use xlink:href="#ci8oat43mC"/>
                        </mask>
                        <path fill="#699FF0" d="M-7.791 19.985L19.889 19.985 19.889 -7.859 -7.791 -7.859z" mask="url(#gpra7uqwrD)"/>
                    </g>
                    <g transform="translate(-45 -201) translate(45 201) translate(0 51.504) translate(34.68 31.285)">
                        <mask id="muxt0yo2qF" fill="#fff">
                            <use xlink:href="#9qnunnxg9E"/>
                        </mask>
                        <path fill="#699FF0" d="M-7.976 32.945L32.099 32.945 32.099 -7.986 -7.976 -7.986z" mask="url(#muxt0yo2qF)"/>
                    </g>
                    <g transform="translate(-45 -201) translate(45 201) translate(0 51.504) translate(5.277 34.3)">
                        <mask id="qe5j46r4mH" fill="#fff">
                            <use xlink:href="#5fbrgrkwzG"/>
                        </mask>
                        <path fill="#699FF0" d="M-8.082 36.015L50.306 36.015 50.306 -8.155 -8.082 -8.155z" mask="url(#qe5j46r4mH)"/>
                    </g>
                    <g transform="translate(-45 -201) translate(45 201) translate(0 51.504) translate(84.44 .374)">
                        <mask id="h2b7c9jthJ" fill="#fff">
                            <use xlink:href="#6kycawji1I"/>
                        </mask>
                        <path fill="#F99746" d="M-7.566 21.078L13.57 21.078 13.57 -8.236 -7.566 -8.236z" mask="url(#h2b7c9jthJ)"/>
                    </g>
                    <g transform="translate(-45 -201) translate(45 201) translate(0 51.504) translate(73.885 4.897)">
                        <mask id="qifz1n4z7L" fill="#fff">
                            <use xlink:href="#b758iagcnK"/>
                        </mask>
                        <path fill="#2B478B" d="M-8.177 10.145L16.48 10.145 16.48 -7.142 -8.177 -7.142z" mask="url(#qifz1n4z7L)"/>
                    </g>
                    <g transform="translate(-45 -201) translate(45 201) translate(0 51.504) translate(85.193 14.698)">
                        <mask id="4g2ejkei7N" fill="#fff">
                            <use xlink:href="#hf1lobs2nM"/>
                        </mask>
                        <path fill="#F99746" d="M-8.079 52.571L37.511 52.571 37.511 -8.058 -8.079 -8.058z" mask="url(#4g2ejkei7N)"/>
                    </g>
                    <g transform="translate(-45 -201) translate(45 201) translate(0 51.504) translate(26.387 28.269)">
                        <mask id="8w6js1w6iP" fill="#fff">
                            <use xlink:href="#xfedy8slfO"/>
                        </mask>
                        <path fill="#F99746" d="M-8.045 13.845L35.221 13.845 35.221 -7.818 -8.045 -7.818z" mask="url(#8w6js1w6iP)"/>
                    </g>
                    <g transform="translate(-45 -201) translate(45 201) translate(0 51.504) translate(8.293 41.84)">
                        <mask id="25q0acde0R" fill="#fff">
                            <use xlink:href="#bvp9aek3dQ"/>
                        </mask>
                        <path fill="#578DDD" d="M-8.112 27.574L45.817 27.574 45.817 -44.549 -8.112 -44.549z" mask="url(#25q0acde0R)"/>
                    </g>
                    <g transform="translate(-45 -201) translate(45 201) translate(0 51.504) translate(84.44 7.913)">
                        <mask id="0f6heqygiT" fill="#fff">
                            <use xlink:href="#3bhvj4ravS"/>
                        </mask>
                        <path fill="#ED7D2B" d="M-7.675 13.557L13.686 13.557 13.686 -8.27 -7.675 -8.27z" mask="url(#0f6heqygiT)"/>
                    </g>
                    <g transform="translate(-45 -201) translate(45 201) translate(0 51.504) translate(34.68 28.269)">
                        <mask id="u33xo85o2V" fill="#fff">
                            <use xlink:href="#lks7k0p90U"/>
                        </mask>
                        <path fill="#ED7D2B" d="M-8.204 13.845L27.812 13.845 27.812 -7.818 -8.204 -7.818z" mask="url(#u33xo85o2V)"/>
                    </g>
                    <g transform="translate(-45 -201) translate(45 201) translate(0 51.504) translate(8.293 41.84)">
                        <mask id="s0e70tm1kX" fill="#fff">
                            <use xlink:href="#1xwe0wxcyW"/>
                        </mask>
                        <path fill="#5C96E3" d="M-8.101 27.613L32.206 27.613 32.206 -8.006 -8.101 -8.006z" mask="url(#s0e70tm1kX)"/>
                    </g>
                    <g transform="translate(-45 -201) translate(45 201) translate(0 51.504) translate(91.979 53.148)">
                        <mask id="xibvp7eroZ" fill="#fff">
                            <use xlink:href="#yegycuikpY"/>
                        </mask>
                        <path fill="#578DDD" d="M-7.928 20.31L19.201 20.31 19.201 -8.197 -7.928 -8.197z" mask="url(#xibvp7eroZ)"/>
                    </g>
                    <g transform="translate(-45 -201) translate(45 201) translate(0 51.504) translate(85.947 14.698)">
                        <mask id="36b7sbfuoab" fill="#fff">
                            <use xlink:href="#i1tml2wpdaa"/>
                        </mask>
                        <path fill="#ED7D2B" d="M-7.843 39.623L22.975 39.623 22.975 -7.961 -7.843 -7.961z" mask="url(#36b7sbfuoab)"/>
                    </g>
                    <path fill="#D3671E" d="M11.309 21.484L30.911 21.484 30.911 5.651 11.309 5.651z" transform="translate(-45 -201) translate(45 201) translate(0 51.504)"/>
                    <path fill="#F1A34F" d="M2.262 21.484L21.864 21.484 21.864 5.651 2.262 5.651zM27.895 16.206L28.161 16.835 27.895 17.714 30.911 17.714 30.911 16.206z" transform="translate(-45 -201) translate(45 201) translate(0 51.504)"/>
                    <path fill="#E78B37" d="M18.391 5.651L2.262 16.148 2.262 21.484 21.864 21.484 21.864 5.651z" transform="translate(-45 -201) translate(45 201) translate(0 51.504)"/>
                    <path fill="#D86713" d="M2.262 7.913L2.262 9.421 5.277 9.421 5.012 8.542 5.277 7.913z" transform="translate(-45 -201) translate(45 201) translate(0 51.504)"/>
                    <path fill="#F1A34F" d="M2.262 17.714L2.262 19.222 5.277 19.222 5.012 18.343 5.277 17.714z" transform="translate(-45 -201) translate(45 201) translate(0 51.504)"/>
                </g>
            </g>
        </g>
    </g>
</svg>
