<svg xmlns="http://www.w3.org/2000/svg" width="243" height="172" viewBox="0 0 243 172">
    <g fill="none" fill-rule="evenodd">
        <g>
            <g>
                <path fill="#ECF6FF" d="M14.25 141.517s-28.55-33.716-4.828-70.22c21.047-32.389 45.587-30.175 63.59-17.031 7.67 5.598 29.777.69 48.594-32.267C147.267-22.944 236.218 4.314 220 73.461c-7.849 33.463 8.468 45.565 6.893 66.572-4.197 17.838-31.402 36.032-64.3 10.47-21.056-16.362-52.118 20.841-97.113 20.495-14.522-.005-29.224-7.37-44.106-22.097" transform="translate(-52 -149) translate(52.964 149.588)"/>
                <g>
                    <g>
                        <g fill="#7EE666">
                            <path d="M3.106 0s1.64 1.883 1.682 5.213c.016.029.035.069.053.12.092.249.19.496.291.74.278-3.306 2.407-4.87 2.407-4.87-.7 2.771-2.073 4.605-2.364 4.972.208.497.434.987.669 1.474.048-2.7 2.778-5.926 2.778-5.926-.898 2.969-2.387 5.529-2.71 6.068l.29.59.312.59c.105.196.206.395.315.589l.013.025c.101-3.494 2.1-5.562 2.1-5.562-.652 3.09-1.737 5.165-2.03 5.687l.247.43c.308.538.627 1.07.955 1.595-.204-3.26 1.364-6.349 1.526-6.659l.014-.025c.023 3.357-1.125 6.153-1.437 6.847.395.629.805 1.248 1.229 1.858-.185-1.025-.482-3.867 1.067-7.094v.033l.001.04v.415c-.008 1.275-.108 4.747-.908 6.835.15.213.301.425.455.636.27.37.545.735.825 1.097-1.057-3.363 1.261-6.996 1.261-6.996.34 2.86-.74 6.467-1.013 7.317.493.626.998 1.242 1.517 1.846-.273-.974-.816-3.708.563-6.89 0 0 .56 3.977-.385 7.097.531.613 1.077 1.216 1.635 1.806-.274-.98-1.05-4.361.482-6.977 0 0 1.128 3.657-.341 7.125.826.869 1.681 1.713 2.561 2.53.217.207.131.28-.08.091-.916-.787-1.802-1.609-2.657-2.464-.783.164-5.36 1.034-8.492-.559 0 0 4.768-1.091 8.353.417-.574-.578-1.132-1.172-1.675-1.78-.804.068-4.503.29-7.41-1.136 0 0 3.718-.846 7.245.947-.533-.6-1.049-1.217-1.548-1.847-.818.08-4.416.323-6.847-1.335l.02-.004c.268-.046 3.22-.503 6.69 1.166-.327-.417-.648-.84-.96-1.268l-.47-.663c-.92-.108-4.825-.643-7.488-2.217l.145-.003h.216c1.055.012 4.232.207 6.976 2.001-.42-.609-.825-1.23-1.212-1.862-.764-.039-4.006-.3-6.07-2.098h.054c.107.002.368.01.736.046l.261.029c1.176.144 3.144.567 4.887 1.804-.315-.517-.618-1.043-.91-1.575l-.239-.442C5.881 9.731 1.931 9.178 0 7.06c0 0 3.776.567 6.604 2.607l.005.01c-.105-.198-.202-.4-.303-.6l-.3-.601-.27-.59c-.608-.063-3.568-.467-5.615-2.417h.084c.499.007 3.111.147 5.46 2.259l.06.138c-.244-.542-.479-1.088-.69-1.643-.567-.145-3.87-1.064-4.883-3.006 0 0 2.839.772 4.84 2.889-.093-.242-.18-.487-.262-.733l-.018-.067-.04-.035C4.216 4.862 2.613 3.174 3.105 0z" transform="translate(-52 -149) translate(52.964 149.588) translate(31.036 9.412) translate(28 46.107) translate(3.059 54.667)"/>
                        </g>
                        <path fill="#56548C" d="M25.204 92.643c.277.307-.689 1.008-.978.72-.567-.558-6.179-10.247-6.57-10.965.141-.292.201-.62.171-.973.058.035.12.057.182.078.423.866 6.562 10.418 7.195 11.14" transform="translate(-52 -149) translate(52.964 149.588) translate(31.036 9.412) translate(28 46.107)"/>
                        <path fill="#FFC331" d="M130.062 37.75h1.15c0 .592-.514 1.071-1.15 1.071v-1.07z" transform="translate(-52 -149) translate(52.964 149.588) translate(31.036 9.412) translate(28 46.107)"/>
                        <path fill="#B3C9FF" d="M16.23 96.529L124.482 96.529 124.482 11.461 16.23 11.461z" transform="translate(-52 -149) translate(52.964 149.588) translate(31.036 9.412) translate(28 46.107)"/>
                        <path fill="#C5D4F9" d="M13.801 11.464L126.91 11.464 126.91 6.058 13.801 6.058z" transform="translate(-52 -149) translate(52.964 149.588) translate(31.036 9.412) translate(28 46.107)"/>
                        <path fill="#9EB8F7" d="M13.801 11.464L126.91 11.464 126.91 9.702 13.801 9.702z" transform="translate(-52 -149) translate(52.964 149.588) translate(31.036 9.412) translate(28 46.107)"/>
                        <path fill="#6186E0" d="M130.19 6.058H10.52V4.033c0-2.103 1.705-3.807 3.808-3.807h112.056c2.102 0 3.807 1.704 3.807 3.807v2.025z" transform="translate(-52 -149) translate(52.964 149.588) translate(31.036 9.412) translate(28 46.107)"/>
                        <path fill="#9EB8F7" d="M10.521 6.058L130.191 6.058 130.191 4.296 10.521 4.296z" transform="translate(-52 -149) translate(52.964 149.588) translate(31.036 9.412) translate(28 46.107)"/>
                        <path fill="#F9F8F7" d="M40.367 11.432L31.736 27.503 16.286 27.503 28.372 11.432zM64.356 11.432L62.631 27.503 47.181 27.503 52.362 11.432zM88.35 11.432L93.526 27.503 78.081 27.503 76.356 11.432zM112.339 11.432L124.426 27.503 108.976 27.503 100.345 11.432z" transform="translate(-52 -149) translate(52.964 149.588) translate(31.036 9.412) translate(28 46.107)"/>
                        <path fill="#8DAAF0" d="M28.373 11.432L16.286 27.503.836 27.503 16.373 11.432zM52.362 11.432L47.181 27.503 31.736 27.503 40.367 11.432zM76.356 11.432L78.081 27.503 62.631 27.503 64.356 11.432zM100.345 11.432L108.976 27.503 93.526 27.503 88.35 11.432zM124.334 11.432L139.877 27.503 124.427 27.503 112.339 11.432zM132.18 40.388h-.068c-4.247 0-7.69-3.443-7.69-7.69v-5.191h15.448v5.19c0 4.248-3.443 7.691-7.69 7.691" transform="translate(-52 -149) translate(52.964 149.588) translate(31.036 9.412) translate(28 46.107)"/>
                        <path fill="#F5F5F5" d="M116.731 40.388h-.067c-4.248 0-7.691-3.443-7.691-7.69v-5.191h15.449v5.19c0 4.248-3.443 7.691-7.69 7.691" transform="translate(-52 -149) translate(52.964 149.588) translate(31.036 9.412) translate(28 46.107)"/>
                        <path fill="#8DAAF0" d="M101.283 40.388h-.068c-4.247 0-7.69-3.443-7.69-7.69v-5.191h15.449v5.19c0 4.248-3.443 7.691-7.69 7.691" transform="translate(-52 -149) translate(52.964 149.588) translate(31.036 9.412) translate(28 46.107)"/>
                        <path fill="#F5F5F5" d="M85.835 40.388h-.068c-4.247 0-7.69-3.443-7.69-7.69v-5.191h15.448v5.19c0 4.248-3.443 7.691-7.69 7.691" transform="translate(-52 -149) translate(52.964 149.588) translate(31.036 9.412) translate(28 46.107)"/>
                        <path fill="#8DAAF0" d="M70.387 40.388h-.068c-4.247 0-7.69-3.443-7.69-7.69v-5.191h15.448v5.19c0 4.248-3.443 7.691-7.69 7.691" transform="translate(-52 -149) translate(52.964 149.588) translate(31.036 9.412) translate(28 46.107)"/>
                        <path fill="#F5F5F5" d="M54.938 40.388h-.067c-4.248 0-7.691-3.443-7.691-7.69v-5.191h15.449v5.19c0 4.248-3.443 7.691-7.69 7.691" transform="translate(-52 -149) translate(52.964 149.588) translate(31.036 9.412) translate(28 46.107)"/>
                        <path fill="#8DAAF0" d="M39.49 40.388h-.067c-4.248 0-7.691-3.443-7.691-7.69v-5.191H47.18v5.19c0 4.248-3.442 7.691-7.69 7.691" transform="translate(-52 -149) translate(52.964 149.588) translate(31.036 9.412) translate(28 46.107)"/>
                        <path fill="#9EB8F7" d="M26.74 96.529L53.955 96.529 53.955 43.113 26.74 43.113z" transform="translate(-52 -149) translate(52.964 149.588) translate(31.036 9.412) translate(28 46.107)"/>
                        <path fill="#9EB8F7" d="M28.562 96.529L52.132 96.529 52.132 45.239 28.562 45.239z" transform="translate(-52 -149) translate(52.964 149.588) translate(31.036 9.412) translate(28 46.107)"/>
                        <path fill="#9EB8F7" d="M28.561 96.529L51.666 96.529 51.666 45.705 28.561 45.705z" transform="translate(-52 -149) translate(52.964 149.588) translate(31.036 9.412) translate(28 46.107)"/>
                        <path fill="#FFF" d="M29.027 96.529L51.666 96.529 51.666 45.705 29.027 45.705z" transform="translate(-52 -149) translate(52.964 149.588) translate(31.036 9.412) translate(28 46.107)"/>
                        <path fill="#F9FBFC" d="M35.093 71.526c0 1.007-.816 1.823-1.823 1.823-1.006 0-1.822-.816-1.822-1.823 0-1.006.816-1.822 1.822-1.822 1.007 0 1.823.816 1.823 1.822" transform="translate(-52 -149) translate(52.964 149.588) translate(31.036 9.412) translate(28 46.107)"/>
                        <path fill="#DCE8EF" d="M34.888 71.526c0 .894-.725 1.618-1.618 1.618-.893 0-1.617-.724-1.617-1.618 0-.893.724-1.617 1.617-1.617s1.618.724 1.618 1.617" transform="translate(-52 -149) translate(52.964 149.588) translate(31.036 9.412) translate(28 46.107)"/>
                        <path fill="#9EB8F7" d="M34.44 71.524c0 .625-.507 1.132-1.131 1.132-.625 0-1.132-.507-1.132-1.132 0-.624.507-1.13 1.132-1.13.624 0 1.13.506 1.13 1.13M63.127 83.326L117.07 83.326 117.07 42.87 63.127 42.87z" transform="translate(-52 -149) translate(52.964 149.588) translate(31.036 9.412) translate(28 46.107)"/>
                        <path fill="#FFF" d="M64.646 82.186L115.549 82.186 115.549 44.267 64.646 44.267z" transform="translate(-52 -149) translate(52.964 149.588) translate(31.036 9.412) translate(28 46.107)"/>
                        <path fill="#82E3F9" d="M64.646 82.186L115.084 82.186 115.084 44.733 64.646 44.733z" transform="translate(-52 -149) translate(52.964 149.588) translate(31.036 9.412) translate(28 46.107)"/>
                        <path fill="#FFF" d="M64.646 82.186L115.084 82.186 115.084 44.733 64.646 44.733z" transform="translate(-52 -149) translate(52.964 149.588) translate(31.036 9.412) translate(28 46.107)"/>
                        <path fill="#9EB8F7" d="M61.609 84.906L118.771 84.906 118.771 81.383 61.609 81.383z" transform="translate(-52 -149) translate(52.964 149.588) translate(31.036 9.412) translate(28 46.107)"/>
                        <path fill="#82E3F9" d="M30.499 68.463L50.194 68.463 50.194 47.251 30.499 47.251z" transform="translate(-52 -149) translate(52.964 149.588) translate(31.036 9.412) translate(28 46.107)"/>
                        <path fill="#D6E2FF" d="M30.499 68.463L50.194 68.463 50.194 47.251 30.499 47.251z" transform="translate(-52 -149) translate(52.964 149.588) translate(31.036 9.412) translate(28 46.107)"/>
                        <path fill="#9EB8F7" d="M39.665 68.694L41.029 68.694 41.029 47.02 39.665 47.02z" transform="translate(-52 -149) translate(52.964 149.588) translate(31.036 9.412) translate(28 46.107)"/>
                        <path fill="#9EB8F7" d="M29.51 58.539L51.183 58.539 51.183 57.175 29.51 57.175z" transform="translate(-52 -149) translate(52.964 149.588) translate(31.036 9.412) translate(28 46.107)"/>
                        <path stroke="#9EB8F7" d="M30.499 94.976L50.194 94.976 50.194 74.639 30.499 74.639z" transform="translate(-52 -149) translate(52.964 149.588) translate(31.036 9.412) translate(28 46.107)"/>
                        <path stroke="#DCDCDC" stroke-linejoin="round" stroke-width=".5" d="M79.696 58.998s7.912-11.876 9.582-11.876c1.868 0 10.51 9.005 10.51 9.005" transform="translate(-52 -149) translate(52.964 149.588) translate(31.036 9.412) translate(28 46.107)"/>
                        <path fill="#43B02A" d="M101.862 65.096l-20.804 3.278c-.543.086-1.053-.285-1.139-.828l-1.208-7.67c-.086-.543.285-1.053.829-1.138l20.804-3.278c.543-.086 1.053.285 1.139.828l1.208 7.669c.086.544-.285 1.054-.829 1.139" transform="translate(-52 -149) translate(52.964 149.588) translate(31.036 9.412) translate(28 46.107)"/>
                    </g>
                    <text fill="#FFF" font-family="Poppins-Medium, Poppins" font-size="6.916" font-weight="400" letter-spacing=".043" transform="translate(-52 -149) translate(52.964 149.588) translate(31.036 9.412) rotate(-9 119.505 108.222)">
                        <tspan x="110.003" y="110.376">OPEN</tspan>
                    </text>
                    <g>
                        <path fill="#81A4FF" d="M118.352 94.135c0 .43-.35.778-.78.778-.429 0-.778-.348-.778-.778 0-.43.349-.779.779-.779.43 0 .779.349.779.779" transform="translate(-52 -149) translate(52.964 149.588) translate(31.036 9.412) translate(0 .107)"/>
                        <path fill="#3458B2" d="M118.31 94.135c0 .406-.33.736-.737.736s-.736-.33-.736-.736c0-.407.33-.737.736-.737.407 0 .736.33.736.737" transform="translate(-52 -149) translate(52.964 149.588) translate(31.036 9.412) translate(0 .107)"/>
                        <path fill="#81A4FF" d="M118.081 93.906c0 .28-.227.508-.508.508-.28 0-.508-.227-.508-.508 0-.28.227-.508.508-.508.28 0 .508.228.508.508" transform="translate(-52 -149) translate(52.964 149.588) translate(31.036 9.412) translate(0 .107)"/>
                        <path fill="#3458B2" d="M1.521 142.813L.295 142.764 8.498 114.723 9.619 115.05zM24.079 142.813L22.864 142.802 31.056 114.723 32.176 115.05z" transform="translate(-52 -149) translate(52.964 149.588) translate(31.036 9.412) translate(0 .107)"/>
                        <path fill="#3458B2" d="M35.887 142.926h-1.11l-1.56-12.057H11.324l1.558 12.057h-1.103l-5.08-39.224c-.028-.224.147-.424.374-.424h23.35c.189 0 .349.14.373.328l5.092 39.32z" transform="translate(-52 -149) translate(52.964 149.588) translate(31.036 9.412) translate(0 .107)"/>
                        <path fill="#3458B2" d="M33.02 129.754H11.236l-3.22-24.875-.055-.436c-.004-.013-.004-.018-.004-.018h21.778l3.283 25.33z" transform="translate(-52 -149) translate(52.964 149.588) translate(31.036 9.412) translate(0 .107)"/>
                        <path fill="#FFF7E8" d="M32.507 129.754L11.237 129.754 8.017 104.879 29.282 104.879z" transform="translate(-52 -149) translate(52.964 149.588) translate(31.036 9.412) translate(0 .107)"/>
                        <path fill="#3458B2" d="M24.334 119.754c.094.668.393.966.819.966.426 0 .654-.298.558-.966-.094-.667-.409-.98-.835-.98s-.637.313-.542.98zm.354-2.4c1.35 0 2.473.81 2.7 2.4.224 1.577-.668 2.401-2.017 2.401-1.35 0-2.475-.824-2.7-2.4-.226-1.592.668-2.4 2.017-2.4zM22.108 112h2.344l-4.046 10h-2.344l4.046-10zm-5.305 2.245c.095.667.393.965.82.965.425 0 .653-.298.558-.965-.097-.683-.41-.98-.836-.98s-.639.297-.542.98zm.354-2.401c1.35 0 2.476.823 2.7 2.4.224 1.577-.668 2.4-2.017 2.4-1.349 0-2.49-.823-2.714-2.4-.224-1.577.682-2.4 2.031-2.4z" transform="translate(-52 -149) translate(52.964 149.588) translate(31.036 9.412) translate(0 .107)"/>
                        <path fill="#FFF" d="M147.722 38.903c0 2.253-1.826 4.08-4.08 4.08-2.252 0-4.078-1.827-4.078-4.08s1.826-4.08 4.079-4.08c2.253 0 4.079 1.827 4.079 4.08" transform="translate(-52 -149) translate(52.964 149.588) translate(31.036 9.412) translate(0 .107)"/>
                        <path fill="#F2EFE9" d="M68.222 19.025c0 2.253-1.826 4.08-4.079 4.08-2.253 0-4.079-1.827-4.079-4.08s1.826-4.08 4.079-4.08c2.253 0 4.08 1.827 4.08 4.08M67.735 4.047c0 1.01-.817 1.827-1.826 1.827-1.009 0-1.827-.818-1.827-1.827 0-1.008.818-1.826 1.827-1.826s1.826.818 1.826 1.826M7.673 63.493c0 .5-.405.905-.905.905s-.906-.405-.906-.905.406-.906.906-.906.905.406.905.906M108.497 20.09c0 .5-.405.906-.905.906s-.906-.406-.906-.906.406-.906.906-.906.905.406.905.906M87.217 1.226c0 .487-.394.88-.88.88s-.88-.393-.88-.88c0-.485.394-.88.88-.88s.88.395.88.88M190.638 76.902c0 .5-.406.906-.906.906s-.906-.405-.906-.906c0-.5.406-.905.906-.905s.906.405.906.905M184.793 130.48c0 .5-.406.906-.906.906s-.906-.405-.906-.906c0-.5.406-.905.906-.905s.906.405.906.905M150.941 26.84c0 .5-.405.906-.905.906s-.906-.405-.906-.906c0-.5.405-.905.906-.905.5 0 .905.405.905.905M9.865 99.658c0 .5-.405.906-.906.906-.5 0-.905-.406-.905-.906s.405-.906.905-.906.906.406.906.906M3.792 123.532c0 1.01-.818 1.826-1.826 1.826-1.01 0-1.827-.817-1.827-1.826 0-1.009.818-1.826 1.827-1.826 1.008 0 1.826.817 1.826 1.826M187.967 96.317c0 .908-.736 1.644-1.644 1.644-.908 0-1.644-.736-1.644-1.644 0-.908.736-1.644 1.644-1.644.908 0 1.644.736 1.644 1.644" transform="translate(-52 -149) translate(52.964 149.588) translate(31.036 9.412) translate(0 .107)"/>
                        <path fill="#F6E552" d="M174.812 34.296c4.73 0 8.565 3.834 8.565 8.564 0 8.492-8.565 18.86-8.565 18.86s-8.565-10.368-8.565-18.86c0-4.73 3.835-8.564 8.565-8.564zm0 4.037c-2.5 0-4.527 2.027-4.527 4.527s2.027 4.527 4.528 4.527c2.5 0 4.527-2.026 4.527-4.527 0-2.5-2.027-4.527-4.527-4.527z" transform="translate(-52 -149) translate(52.964 149.588) translate(31.036 9.412) translate(0 .107)"/>
                        <path fill="#43B02A" d="M112.717 46.331L114.682 46.331 114.682 42.983 112.717 42.983z" transform="translate(-52 -149) translate(52.964 149.588) translate(31.036 9.412) translate(0 .107)"/>
                        <path fill="#9EB8F7" d="M112.717 46.331L114.682 46.331 114.682 42.982 112.717 42.982z" transform="translate(-52 -149) translate(52.964 149.588) translate(31.036 9.412) translate(0 .107)"/>
                        <path fill="#FFC331" d="M82.495 46.331L84.46 46.331 84.46 42.983 82.495 42.983z" transform="translate(-52 -149) translate(52.964 149.588) translate(31.036 9.412) translate(0 .107)"/>
                        <path fill="#9EB8F7" d="M82.495 46.331L84.46 46.331 84.46 42.982 82.495 42.982z" transform="translate(-52 -149) translate(52.964 149.588) translate(31.036 9.412) translate(0 .107)"/>
                        <path fill="#B3C9FF" d="M118.93 42.989H78.247c-1.034 0-1.871-.838-1.871-1.871V27.2c0-1.034.837-1.871 1.871-1.871h40.683c1.034 0 1.871.837 1.871 1.871v13.918c0 1.033-.837 1.87-1.871 1.87" transform="translate(-52 -149) translate(52.964 149.588) translate(31.036 9.412) translate(0 .107)"/>
                        <path fill="#FFC331" d="M118.93 25.329H78.247c-1.034 0-1.871.837-1.871 1.871v13.918c0 1.033.837 1.87 1.871 1.87h40.683c1.034 0 1.871-.837 1.871-1.87V27.2c0-1.034-.837-1.871-1.871-1.871m0 1.36c.282 0 .51.23.51.511v13.918c0 .281-.228.51-.51.51H78.247c-.282 0-.51-.229-.51-.51V27.2c0-.282.228-.51.51-.51h40.683" transform="translate(-52 -149) translate(52.964 149.588) translate(31.036 9.412) translate(0 .107)"/>
                        <path stroke="#6186E0" stroke-width="3" d="M118.93 42.989H78.247c-1.034 0-1.871-.838-1.871-1.871V27.2c0-1.034.837-1.871 1.871-1.871h40.683c1.034 0 1.871.837 1.871 1.871v13.918c0 1.033-.837 1.87-1.871 1.87z" transform="translate(-52 -149) translate(52.964 149.588) translate(31.036 9.412) translate(0 .107)"/>
                    </g>
                    <text fill="#FFF" font-family="Poppins-SemiBold, Poppins" font-size="7.989" font-weight="500" transform="translate(-52 -149) translate(52.964 149.588) translate(31.036 9.412)">
                        <tspan x="85.486" y="36.839">STORE</tspan>
                    </text>
                    <g>
                        <path fill="#FFB93E" d="M8.286 33.119l-.432.288c-.412.275-.964.159-1.232-.25l-2.92-4.4-.944-1.426 1.58-1.044.34-.224.206.31.976 1.477 2.675 4.037c.274.41.16.964-.249 1.232" transform="translate(-52 -149) translate(52.964 149.588) translate(31.036 9.412) translate(7.408 9.073)"/>
                        <path fill="#FFDA9F" d="M22.794 17.633c.302.718.215 1.5-.17 2.12-.241.4-.612.733-1.078.926l-.055.023c-.083.034-.169.063-.257.083-.005.002-.014.005-.025.005-.072.023-.146.037-.219.045l-.117.015c-.077.01-.152.013-.227.012-.086.002-.173 0-.252-.011-.007-.003-.014-.006-.018-.004-.091-.012-.177-.025-.267-.048-.012 0-.024-.006-.036-.007-.083-.02-.164-.046-.242-.08-.174-.058-.344-.145-.497-.256-.361-.241-.658-.589-.837-1.017-.498-1.188.058-2.554 1.245-3.052.433-.18.884-.224 1.314-.145l.1.02.001.004c.165.035.333.09.482.165.058.025.112.051.157.082.041.021.075.04.113.067.02.008.035.019.045.03.117.077.222.163.322.263.036.034.064.066.095.102.032.025.056.058.08.09.031.037.061.073.085.117.035.035.063.077.082.123.02.024.036.05.048.078.047.078.092.162.128.25" transform="translate(-52 -149) translate(52.964 149.588) translate(31.036 9.412) translate(7.408 9.073)"/>
                        <path fill="#FFDA9F" d="M22.794 17.633c.302.718.215 1.5-.17 2.12-.241.4-.612.733-1.078.926l-.055.023c-.083.034-.169.063-.257.083-.005.002-.014.005-.025.005-.072.023-.146.037-.219.045l-.117.015c-.077.01-.152.013-.227.012-.086.002-.173 0-.252-.011-.007-.003-.014-.006-.018-.004-.091-.012-.177-.025-.267-.048-.012 0-.024-.006-.036-.007-.083-.02-.164-.046-.242-.08-.176-.063-.341-.152-.497-.256.426.08.884.04 1.31-.143.22-.094.42-.213.597-.36.46-.392.753-.946.82-1.539.04-.377-.012-.771-.17-1.148-.158-.378-.402-.688-.702-.922l-.002-.004c-.041-.037-.086-.067-.13-.098.035.007.064.012.1.024.165.035.333.09.482.165.058.025.112.051.157.082.041.021.075.04.113.067.02.008.035.019.045.03.117.077.222.163.322.263.036.034.064.066.095.102.032.025.056.058.08.09.031.037.061.073.085.117.035.035.063.077.082.123.02.024.036.05.048.078.047.078.092.162.128.25" transform="translate(-52 -149) translate(52.964 149.588) translate(31.036 9.412) translate(7.408 9.073)"/>
                        <path fill="#FFB93E" d="M6.661 27.515L5.86 27.85 3.702 28.757 3.339 28.91 1.632 24.858 1.119 23.634 4.442 22.239 6.193 26.401z" transform="translate(-52 -149) translate(52.964 149.588) translate(31.036 9.412) translate(7.408 9.073)"/>
                        <path fill="#FFDA9F" d="M3.339 28.91l-.276.117c-.52.217-1.126-.028-1.342-.549L.299 25.091c-.22-.518.026-1.12.545-1.34l.275-.118.513 1.225 1.707 4.052zM23.472 25.257L23.467 25.259 6.661 27.515 6.193 26.402 4.442 22.239 17.817 11.81 19.742 16.387 21.241 19.953 21.546 20.68z" transform="translate(-52 -149) translate(52.964 149.588) translate(31.036 9.412) translate(7.408 9.073)"/>
                        <path fill="#FFB93E" d="M24.953 25.297c.113.267-.016.572-.278.684l-.285.12c-.266.114-.572-.015-.685-.282l-.238-.56-1.92-4.58-.306-.726-1.499-3.566-1.92-4.579-.239-.56c-.113-.267.012-.57.278-.684l.285-.12c.262-.112.572.015.683.277l.498 1.188 1.828 4.352.034.083.872 2.07.564 1.338 2.328 5.545z" transform="translate(-52 -149) translate(52.964 149.588) translate(31.036 9.412) translate(7.408 9.073)"/>
                        <path fill="#FFDA9F" d="M30.609.938L22.517 12.02l9.919-9.483c.517-.495.5-1.326-.04-1.799-.538-.471-1.365-.38-1.787.199zm9.673 9.512c-.278-.66-1.06-.942-1.695-.612L26.5 16.136l-1.076.56 1.213-.395 12.896-4.212c.681-.222 1.027-.98.749-1.64zM31.033 21.9l-4.304.14 4.88.71 8.696 1.267c.709.103 1.354-.424 1.394-1.138.04-.715-.542-1.31-1.258-1.288l-9.408.31z" transform="translate(-52 -149) translate(52.964 149.588) translate(31.036 9.412) translate(7.408 9.073)"/>
                    </g>
                </g>
                <path fill="#F6E552" d="M241.32 83.429c0 .902-.732 1.634-1.635 1.634-.902 0-1.634-.732-1.634-1.634 0-.903.732-1.634 1.634-1.634.903 0 1.634.731 1.634 1.634" transform="translate(-52 -149) translate(52.964 149.588)"/>
                <path fill="#FFE1C2" d="M229.336 128.82c0 .701-.57 1.27-1.271 1.27-.702 0-1.271-.569-1.271-1.27 0-.702.57-1.271 1.27-1.271.703 0 1.272.569 1.272 1.27" transform="translate(-52 -149) translate(52.964 149.588)"/>
                <path fill="#B3C9FF" d="M32.52 26.78c0 .903-.731 1.634-1.634 1.634-.902 0-1.634-.731-1.634-1.634 0-.902.732-1.634 1.634-1.634.903 0 1.634.732 1.634 1.634" transform="translate(-52 -149) translate(52.964 149.588)"/>
                <path fill="#F6E552" d="M15.507 124.072c0 .959-.777 1.736-1.736 1.736s-1.735-.777-1.735-1.736c0-.958.776-1.735 1.735-1.735.959 0 1.736.777 1.736 1.735" transform="translate(-52 -149) translate(52.964 149.588)"/>
                <path fill="#0FF" d="M20.9 34.77c0 .3-.244.544-.545.544-.3 0-.544-.244-.544-.545 0-.3.244-.545.544-.545.301 0 .545.244.545.545" transform="translate(-52 -149) translate(52.964 149.588)"/>
                <path fill="#F1FFED" d="M159.618 13.687c-.503 2.356-2.821 3.859-5.178 3.355-2.356-.503-3.858-2.82-3.355-5.178.503-2.356 2.821-3.858 5.178-3.355 2.356.503 3.858 2.822 3.355 5.178" transform="translate(-52 -149) translate(52.964 149.588)"/>
                <path fill="#F2AE50" d="M228.43 20.224c-.153.715-.856 1.171-1.572 1.019-.716-.153-1.172-.857-1.02-1.573.153-.715.858-1.171 1.573-1.018.716.153 1.172.856 1.02 1.572M57.81 5.794c-.154.715-.857 1.172-1.573 1.019-.716-.153-1.172-.857-1.02-1.572.154-.716.858-1.172 1.573-1.02.716.153 1.172.857 1.02 1.573" transform="translate(-52 -149) translate(52.964 149.588)"/>
                <path fill="#E4E4E4" d="M239.347 50.051c-.153.715-.857 1.171-1.572 1.019-.716-.153-1.173-.857-1.02-1.572.153-.716.857-1.172 1.573-1.02.715.153 1.172.857 1.019 1.573" transform="translate(-52 -149) translate(52.964 149.588)"/>
                <path fill="#E1E1E1" d="M143.97 17.84c-.12.56-.672.918-1.233.798s-.92-.672-.8-1.233.673-.919 1.234-.799c.56.12.919.672.799 1.233" transform="translate(-52 -149) translate(52.964 149.588)"/>
                <path fill="#6186E0" d="M75.036 152.412H184.036V155.412H75.036z" transform="translate(-52 -149) translate(52.964 149.588)"/>
                <path fill="#F5F5F5" d="M83.077 95.907h-.067c-4.247 0-7.69-3.443-7.69-7.69v-5.191h15.448v5.19c0 4.248-3.443 7.691-7.69 7.691" transform="translate(-52 -149) translate(52.964 149.588)"/>
                <path fill="#8DAAF0" d="M67.63 95.907h-.068c-4.248 0-7.691-3.443-7.691-7.69v-5.191H75.32v5.19c0 4.248-3.443 7.691-7.69 7.691" transform="translate(-52 -149) translate(52.964 149.588)"/>
            </g>
        </g>
    </g>
</svg>
