<svg xmlns="http://www.w3.org/2000/svg" width="24" height="24" viewBox="0 0 24 24">
    <g fill="none" fill-rule="evenodd">
        <g>
            <g>
                <g fill="#424242" fill-rule="nonzero">
                    <path d="M2.871 5.742c-.678 0-1.23.552-1.23 1.23v3.337c0 .678.552 1.23 1.23 1.23.679 0 1.23-.552 1.23-1.23V6.973c0-.679-.551-1.23-1.23-1.23zM.82 6.973c0-.119.016-.233.035-.346-.494.16-.855.62-.855 1.166v1.695c0 .547.36 1.006.855 1.166-.02-.113-.035-.227-.035-.345V6.973zM9.434 5.742c-.679 0-1.23.552-1.23 1.23v3.337c0 .678.551 1.23 1.23 1.23.123 0 .24-.024.352-.058-.153.507-.618.878-1.173.878H7.307c-.17-.476-.62-.82-1.155-.82-.678 0-1.23.552-1.23 1.23 0 .679.552 1.231 1.23 1.231.534 0 .985-.344 1.155-.82h1.306c1.131 0 2.051-.92 2.051-2.051V6.973c0-.679-.552-1.23-1.23-1.23zM11.45 6.627c.019.113.034.227.034.346v3.336c0 .118-.015.232-.035.345.495-.16.856-.619.856-1.166V7.793c0-.547-.361-1.006-.856-1.166z" transform="translate(-16 -408) translate(16 408) translate(6 5)"/>
                    <path d="M6.152 0C2.76 0 0 2.76 0 6.152v.01c.244-.184.527-.32.84-.38C1.03 3.015 3.336.82 6.151.82c2.815 0 5.122 2.195 5.314 4.962.312.06.594.196.839.38v-.01C12.305 2.76 9.545 0 6.152 0z" transform="translate(-16 -408) translate(16 408) translate(6 5)"/>
                </g>
            </g>
        </g>
    </g>
</svg>
