<svg xmlns="http://www.w3.org/2000/svg" width="12" height="14" viewBox="0 0 12 14">
    <g fill="none" fill-rule="evenodd">
        <g fill="#424242" fill-rule="nonzero">
            <g>
                <g>
                    <path d="M9.99.01H1.944C.885.01.022.874.022 1.935v10.143C.022 13.137.884 14 1.945 14H9.99c1.061 0 1.924-.862 1.924-1.923V1.934c0-1.06-.863-1.923-1.924-1.923zm-1.4 11.892H3.344c-.29 0-.524-.235-.524-.525 0-.29.235-.525.524-.525H8.59c.29 0 .525.235.525.525 0 .29-.235.525-.525.525zm0-2.798H3.344c-.29 0-.524-.235-.524-.525 0-.29.235-.524.524-.524H8.59c.29 0 .525.235.525.524 0 .29-.235.525-.525.525zm0-2.448H3.344c-.29 0-.524-.235-.524-.525 0-.29.235-.524.524-.524H8.59c.29 0 .525.235.525.524 0 .29-.235.525-.525.525zm0-2.798H3.344c-.29 0-.524-.235-.524-.525 0-.29.235-.524.524-.524H8.59c.29 0 .525.235.525.524 0 .29-.235.525-.525.525z" transform="translate(-21 -521) translate(15 516) translate(6 5)"/>
                </g>
            </g>
        </g>
    </g>
</svg>
