<svg xmlns="http://www.w3.org/2000/svg" width="14" height="12" viewBox="0 0 14 12">
    <g fill="none" fill-rule="evenodd">
        <g fill="#424242" fill-rule="nonzero">
            <g transform="translate(-20 -483) translate(20 483)">
                <circle cx="3.562" cy="8.25" r="1"/>
                <path d="M5.526 3.386L5.526 5.257 7.398 4.321z"/>
                <path d="M12.313 0H1.187C.532 0 0 .532 0 1.187v8.7c0 .655.532 1.187 1.187 1.187h11.126c.655 0 1.187-.532 1.187-1.186V1.187C13.5.532 12.968 0 12.313 0zm-7.54 2.769c0-.138.07-.265.187-.337.116-.072.262-.078.385-.017l3.164 1.582c.134.067.219.204.219.354s-.085.286-.22.353L5.346 6.286c-.125.062-.27.054-.385-.017-.116-.072-.188-.2-.188-.336V2.769zM11.495 8.7H4.7c-.164.46-.6.791-1.114.791-.515 0-.95-.331-1.114-.79h-.468c-.219 0-.396-.178-.396-.396 0-.219.177-.396.396-.396h.468c.164-.46.599-.79 1.114-.79.515 0 .95.33 1.114.79h6.796c.219 0 .396.177.396.396 0 .218-.177.395-.396.395z"/>
            </g>
        </g>
    </g>
</svg>
