<svg xmlns="http://www.w3.org/2000/svg" width="13" height="12" viewBox="0 0 13 12">
    <g fill="none" fill-rule="evenodd">
        <g fill-rule="nonzero">
            <g>
                <g>
                    <g>
                        <g>
                            <path fill="#40C042" stroke="#FFF" d="M9.006 1.539C8.016.547 6.698 0 5.295 0 2.403 0 .049 2.354.048 5.246c0 .925.241 1.828.7 2.623l-.744 2.72 2.782-.73c.766.418 1.629.638 2.507.638h.002c2.892 0 5.246-2.354 5.247-5.246 0-1.402-.545-2.72-1.536-3.712z" transform="translate(-260 -43) translate(0 24) translate(251 11) translate(10 6) translate(0 2.706)"/>
                            <path fill="#FFF" d="M7.687 6.345c-.131-.066-.776-.383-.896-.426-.12-.044-.207-.066-.295.065-.087.131-.338.427-.415.514-.076.088-.153.099-.284.033-.131-.066-.553-.204-1.054-.65-.39-.348-.653-.778-.73-.909-.076-.131 0-.195.058-.267.142-.177.284-.361.328-.449.043-.087.022-.164-.011-.23-.033-.065-.295-.71-.404-.973-.107-.255-.215-.221-.295-.225-.077-.004-.164-.005-.252-.005-.087 0-.23.033-.35.165-.12.13-.458.448-.458 1.093s.47 1.269.535 1.356c.066.088.925 1.412 2.24 1.98.313.135.557.216.747.276.314.1.6.086.826.052.252-.038.775-.317.885-.623.109-.307.109-.57.076-.624-.032-.055-.12-.087-.251-.153z" transform="translate(-260 -43) translate(0 24) translate(251 11) translate(10 6) translate(0 2.706)"/>
                        </g>
                    </g>
                </g>
            </g>
        </g>
    </g>
</svg>
