<svg xmlns="http://www.w3.org/2000/svg" width="7" height="8" viewBox="0 0 7 8">
    <g fill="none" fill-rule="evenodd">
        <g fill="#FFF" fill-rule="nonzero">
            <g>
                <path d="M5.776 3.991C5.137 3.352 4.287 3 3.384 3 2.48 3 1.63 3.352.99 3.991.352 4.631 0 5.48 0 6.384c0 1.828 1.729 3.349 2.658 4.166.129.113.24.211.329.294.111.104.254.156.397.156.142 0 .285-.052.396-.156.09-.083.2-.18.33-.294.928-.817 2.657-2.338 2.657-4.166 0-.904-.352-1.754-.99-2.393zM3.384 7.747c-.823 0-1.491-.67-1.491-1.491 0-.822.668-1.491 1.49-1.491.823 0 1.492.669 1.492 1.49 0 .823-.67 1.492-1.491 1.492z" transform="translate(-122 -58) translate(122 55)"/>
            </g>
        </g>
    </g>
</svg>
